<svg xmlns="http://www.w3.org/2000/svg" viewBox="6 -6 512 512" style="enable-background:new 6 -6 512 512" xml:space="preserve"><switch><g><linearGradient id="a" gradientUnits="userSpaceOnUse" x1="219.436" y1="233.596" x2="313.085" y2="233.596"><stop offset="0" style="stop-color:#7f00ff"/><stop offset="1" style="stop-color:#3f00fc"/></linearGradient><path d="M312.1 251c-1.7-6.8-5.5-12.8-10.7-17.4 14.2-12.2 15.8-33.5 3.6-47.6-4.5-5.3-10.6-9-17.4-10.7V157h-17v17h-17v-17h-17v17h-17v17h8.5v85.1h-8.5v17h17v17h17v-17h17v17h17V292c18-4.6 29-22.9 24.5-41zM279 276.2h-34v-34.1h34c9.4 0 17 7.6 17 17s-7.6 17.1-17 17.1zm0-51.1h-34V191h34c9.4 0 17 7.6 17 17 0 9.5-7.6 17.1-17 17.1z" style="fill:url(#a)"/><linearGradient id="b" gradientUnits="userSpaceOnUse" x1="117.285" y1="233.596" x2="406.713" y2="233.596"><stop offset="0" style="stop-color:#7f00ff"/><stop offset="1" style="stop-color:#3f00fc"/></linearGradient><path d="M262 88.9c-79.9 0-144.7 64.8-144.7 144.7.1 79.9 64.8 144.6 144.7 144.7 79.9 0 144.7-64.8 144.7-144.7S341.9 88.9 262 88.9zm0 272.4c-70.5 0-127.7-57.2-127.7-127.7.1-70.5 57.2-127.6 127.7-127.7 70.5 0 127.7 57.2 127.7 127.7S332.5 361.3 262 361.3z" style="fill:url(#b)"/><linearGradient id="c" gradientUnits="userSpaceOnUse" x1="151.335" y1="233.594" x2="372.664" y2="233.594"><stop offset="0" style="stop-color:#7f00ff"/><stop offset="1" style="stop-color:#3f00fc"/></linearGradient><path d="M335.8 151.1c-45.6-40.7-115.5-36.9-156.3 8.7-18.1 20.3-28.2 46.6-28.2 73.8 0 31.5 13.4 61.5 36.9 82.5 45.6 40.7 115.5 36.9 156.3-8.7 40.7-45.6 36.8-115.5-8.7-156.3zm-11.4 152.3c-38.5 34.5-97.7 31.2-132.2-7.4-15.4-17.2-23.8-39.4-23.8-62.4 0-26.7 11.3-52.1 31.2-69.8 38.5-34.5 97.7-31.2 132.2 7.4 34.5 38.5 31.2 97.7-7.4 132.2z" style="fill:url(#c)"/><linearGradient id="d" gradientUnits="userSpaceOnUse" x1="66.21" y1="250.62" x2="457.79" y2="250.62"><stop offset="0" style="stop-color:#7f00ff"/><stop offset="1" style="stop-color:#3f00fc"/></linearGradient><path d="M449.3-4.8c-1.4 0-2.8.4-4.1 1-55.8 30.6-123.3 30.6-179.1 0-2.5-1.4-5.6-1.4-8.2 0-55.8 30.6-123.3 30.6-179.1 0-4.1-2.2-9.3-.7-11.6 3.5-.7 1.3-1 2.7-1 4.1v363.6c0 15 8 29 20.9 36.6l170.6 100.8c2.7 1.6 6 1.6 8.7 0L436.9 404c12.9-7.7 20.9-21.6 20.9-36.6V3.8c0-4.7-3.8-8.6-8.5-8.6zm-8.5 372.2c0 9-4.8 17.4-12.5 22L262 487.6 95.8 389.4c-7.8-4.6-12.5-13-12.5-22V17.6c57 26.3 123 24.8 178.8-4.2 55.7 29 121.7 30.5 178.8 4.2v349.8z" style="fill:url(#d)"/></g></switch></svg>