<svg xmlns="http://www.w3.org/2000/svg" viewBox="6 -6 512 512" style="enable-background:new 6 -6 512 512" xml:space="preserve"><switch><g><linearGradient id="a" gradientUnits="userSpaceOnUse" x1="151.619" y1="249.949" x2="372.369" y2="249.949"><stop offset="0" style="stop-color:#7f00ff"/><stop offset="1" style="stop-color:#3f00fc"/></linearGradient><path d="M335.6 167.7c-45.4-40.6-115.2-36.8-155.9 8.7-18.1 20.2-28.1 46.4-28.1 73.6 0 31.4 13.4 61.3 36.8 82.3 45.4 40.6 115.2 36.8 155.9-8.7 40.6-45.5 36.7-115.3-8.7-155.9zm-11.3 151.9c-38.4 34.4-97.5 31.1-131.9-7.4a93.486 93.486 0 0 1-23.8-62.3c0-26.6 11.3-51.9 31.1-69.6 38.4-34.4 97.5-31.1 131.9 7.4 34.4 38.4 31.1 97.5-7.3 131.9z" style="fill:url(#a)"/><linearGradient id="b" gradientUnits="userSpaceOnUse" x1="219.542" y1="249.951" x2="312.946" y2="249.951"><stop offset="0" style="stop-color:#7f00ff"/><stop offset="1" style="stop-color:#3f00fc"/></linearGradient><path d="M311.9 267.3c-1.7-6.7-5.4-12.8-10.7-17.3 14.1-12.1 15.7-33.4 3.6-47.5-4.5-5.3-10.6-9-17.3-10.7v-18.2h-17v17h-17v-17h-17v17h-17v17h8.5v84.9h-8.5v17h17v17h17v-17h17v17h17v-18.2c18-4.7 29-23 24.4-41zM279 292.4h-34v-34h34c9.4 0 17 7.6 17 17s-7.6 17-17 17zm0-50.9h-34v-34h34c9.4 0 17 7.6 17 17s-7.6 17-17 17z" style="fill:url(#b)"/><linearGradient id="c" gradientUnits="userSpaceOnUse" x1="7.283" y1="250" x2="516.717" y2="250"><stop offset="0" style="stop-color:#7f00ff"/><stop offset="1" style="stop-color:#3f00fc"/></linearGradient><path d="M499.7 273.9c13.2-4.7 20.2-19.2 15.6-32.4-4.7-13.2-19.2-20.2-32.4-15.6-7.3 2.6-13 8.3-15.6 15.6h-61.4c-3-50.1-31.7-95.1-76-118.8v-51h95c2.6 7.2 8.2 12.9 15.4 15.4v69.5c0 4.7 3.8 8.5 8.5 8.5h67.9v-17h-59.4v-61c13.2-4.7 20.2-19.2 15.6-32.4s-19.2-20.2-32.4-15.6c-7.3 2.6-13 8.3-15.6 15.6H321.4c-4.7 0-8.5 3.8-8.5 8.5v51.9c-16.3-6.2-33.5-9.4-50.9-9.5-5.7 0-11.3.4-17 1.1V95.6c13.2-4.6 20.2-19 15.6-32.2-2.5-7.3-8.3-13-15.6-15.6V12.2h271.7v-17H236.5c-4.7 0-8.5 3.8-8.5 8.5v44c-7.2 2.6-12.9 8.2-15.4 15.4h-78V44.6c13.2-4.7 20.2-19.2 15.6-32.4C145.5-1 131-8 117.8-3.3c-7.3 2.6-13 8.3-15.6 15.6h-95v17h95c2.6 7.2 8.2 12.9 15.4 15.4v27c0 4.7 3.8 8.5 8.5 8.5h86.5c2.6 7.2 8.2 12.9 15.4 15.4v14.3c-61.5 15-106.1 68.4-109.9 131.6H66.7V206c13.2-4.6 20.2-19 15.6-32.2-2.5-7.3-8.3-13-15.6-15.6v-52.5c0-4.7-3.8-8.5-8.5-8.5H7.3v17h42.5v44c-13.2 4.6-20.2 19-15.6 32.2 2.5 7.3 8.3 13 15.6 15.6v44c0 4.7 3.8 8.5 8.5 8.5h59.9c1.2 20.8 6.8 41.1 16.6 59.4H92.2c-4.7 0-8.5 3.8-8.5 8.5v42.5H7.3v17h76.4v17c0 4.7 3.8 8.5 8.5 8.5h59.4v18.5c-7.2 2.6-12.9 8.2-15.4 15.4H7.3v17h128.9c4.7 13.2 19.2 20.2 32.4 15.6 13.2-4.7 20.2-19.2 15.6-32.4-2.6-7.3-8.3-13-15.6-15.6v-27c0-4.7-3.8-8.5-8.5-8.5h-59.4V335h44.9c25.4 34.8 65 56.5 108 59v59.9c0 4.7 3.8 8.5 8.5 8.5H330v42.5h17V454c0-4.7-3.8-8.5-8.5-8.5h-67.9v-51.4c35.3-2 68.7-17 93.6-42h50.7v103.4c-13.3 4.7-20.2 19.2-15.5 32.5 4.7 13.3 19.2 20.2 32.5 15.5 13.3-4.7 20.2-19.2 15.5-32.5-2.6-7.3-8.3-13-15.5-15.5V343.3c0-4.7-3.8-8.5-8.5-8.5h-44.9c16.3-22.3 25.9-48.8 27.4-76.4h61.4c2.6 7.2 8.2 12.9 15.4 15.4v111.9c0 4.7 3.8 8.5 8.5 8.5h25.5v-17h-17V273.9zM448.8 54.7c4.7 0 8.5 3.8 8.5 8.5s-3.8 8.5-8.5 8.5-8.5-3.8-8.5-8.5 3.8-8.5 8.5-8.5zM126.1 29.2c-4.7 0-8.5-3.8-8.5-8.5s3.8-8.5 8.5-8.5 8.5 3.8 8.5 8.5-3.8 8.5-8.5 8.5zM58.2 190.5c-4.7 0-8.5-3.8-8.5-8.5s3.8-8.5 8.5-8.5 8.5 3.8 8.5 8.5-3.8 8.5-8.5 8.5zm101.9 254.7c4.7 0 8.5 3.8 8.5 8.5s-3.8 8.5-8.5 8.5-8.5-3.8-8.5-8.5 3.8-8.5 8.5-8.5zm263.2 25.5c4.7 0 8.5 3.8 8.5 8.5s-3.8 8.5-8.5 8.5-8.5-3.8-8.5-8.5 3.8-8.5 8.5-8.5zM236.5 63.2c4.7 0 8.5 3.8 8.5 8.5s-3.8 8.5-8.5 8.5-8.5-3.8-8.5-8.5 3.8-8.5 8.5-8.5zM262 377.3c-70.3 0-127.4-57-127.4-127.4.1-70.3 57.1-127.3 127.4-127.4 70.3 0 127.4 57 127.4 127.4S332.3 377.3 262 377.3zm229.2-118.9c-4.7 0-8.5-3.8-8.5-8.5s3.8-8.5 8.5-8.5 8.5 3.8 8.5 8.5-3.8 8.5-8.5 8.5z" style="fill:url(#c)"/><linearGradient id="d" gradientUnits="userSpaceOnUse" x1="7.283" y1="343.344" x2="58.225" y2="343.344"><stop offset="0" style="stop-color:#7f00ff"/><stop offset="1" style="stop-color:#3f00fc"/></linearGradient><path style="fill:url(#d)" d="M7.3 334.9h50.9v17H7.3z"/><linearGradient id="e" gradientUnits="userSpaceOnUse" x1="287.464" y1="419.758" x2="304.445" y2="419.758"><stop offset="0" style="stop-color:#7f00ff"/><stop offset="1" style="stop-color:#3f00fc"/></linearGradient><path style="fill:url(#e)" d="M287.5 411.3h17v17h-17z"/><linearGradient id="f" gradientUnits="userSpaceOnUse" x1="406.329" y1="118.35" x2="423.31" y2="118.35"><stop offset="0" style="stop-color:#7f00ff"/><stop offset="1" style="stop-color:#3f00fc"/></linearGradient><path style="fill:url(#f)" d="M406.3 105.6h17v25.5h-17z"/></g></switch></svg>