<svg xmlns="http://www.w3.org/2000/svg" viewBox="6 -6 512 512" style="enable-background:new 6 -6 512 512" xml:space="preserve"><switch><g><linearGradient id="a" gradientUnits="userSpaceOnUse" x1="80.722" y1="249.997" x2="298.252" y2="249.997"><stop offset="0" style="stop-color:#0f9"/><stop offset="1" style="stop-color:#3cf"/></linearGradient><path d="M292.2 316.5h-6v-42.3c0-3.3-2.7-6-6-6v-36.3h6c3.3 0 6-2.7 6-6v-48.3c0-3.3-2.7-6-6-6h-12.1v-36.3h2.3c3.3 0 6-2.7 6-6V80.8c0-3.3-2.7-6-6-6H95.1c-3.3 0-6 2.7-6 6v42.3h-2.3c-3.3 0-6 2.7-6 6v48.3c0 3.3 2.7 6 6 6h12.1v36.3h-6c-3.3 0-6 2.7-6 6V274c0 3.3 2.7 6 6 6v42.3c0 3.3 2.7 6 6 6h6v36.3h-9.8c-3.3 0-6 2.7-6 6v48.3c0 3.3 2.7 6 6 6h181.3c3.3 0 6-2.7 6-6v-42.3h9.8c3.3 0 6-2.7 6-6v-48.3c.1-3.1-2.7-5.8-6-5.8zm-12.1-133v36.3H262v-36.3h18.1zM117 328.5h18.1v36.3H117v-36.3zm-6.1-12h-6v-36.3H123v36.3h-12.1zm18.2-48.4v-36.3h18.1v36.3h-18.1zm-18.2-48.3v-36.3H129v36.3h-18.1zm30.2 0v-36.3h18.1v36.3h-18.1zm-6 60.4h18.1v36.3h-18.1v-36.3zm12.1 48.3h18.1v36.3h-18.1v-36.3zm12.1-60.4v-36.3h18.1v36.3h-18.1zm12.1-48.3v-36.3h18.1v36.3h-18.1zm-6.1 60.4h18.1v36.3h-18.1v-36.3zm12.1 48.3h18.1v36.3h-18.1v-36.3zm12.1-60.4v-36.3h18.1v36.3h-18.1zm12.1-48.3v-36.3h18.1v36.3h-18.1zm-6.1 60.4h18.1v36.3h-18.1v-36.3zm12.1 48.3h18.1v36.3h-18.1v-36.3zm12.1-60.4v-36.3h18.1v36.3h-18.1zm12.1-48.3v-36.3h18.1v36.3h-18.1zm-6.1 60.4h18.1v36.3h-18.1v-36.3zm12.1 48.3H256v36.3h-18.1v-36.3zm12.1-60.4v-36.3H268v36.3h-18.1zm6.1 12.1h18.1v36.3H256v-36.3zm-3.8-193.4h18.1v36.3h-18.1V86.8zm-8.3 48.4H262v36.3h-18.1v-36.3zM222 86.8h18.1v36.3H222V86.8zm-8.3 48.4h18.1v36.3h-18.1v-36.3zm-21.9-48.4h18.1v36.3h-18.1V86.8zm-8.4 48.4h18.1v36.3h-18.1v-36.3zm-21.9-48.4h18.1v36.3h-18.1V86.8zm-8.3 48.4h18.1v36.3h-18.1v-36.3zm-21.9-48.4h18.1v36.3h-18.1V86.8zm-8.3 48.4h18.1v36.3H123v-36.3zm-21.9-48.4h18.1v36.3h-18.1V86.8zm-8.3 84.6v-36.3h18.1v36.3H92.8zm6 96.7v-36.3H117v36.3H98.8zm20.4 145h-18.1v-36.3h18.1v36.3zm30.3 0h-18.1v-36.3h18.1v36.3zm30.2 0h-18.1v-36.3h18.1v36.3zm30.2 0h-18.1v-36.3h18.1v36.3zm30.2 0H222v-36.3h18.1v36.3zm30.2 0h-18.1v-36.3h18.1v36.3zm15.9-48.3H268v-36.3h18.1v36.3z" style="fill:url(#a)"/><linearGradient id="b" gradientUnits="userSpaceOnUse" x1="288.584" y1="328.553" x2="443.278" y2="328.553"><stop offset="0" style="stop-color:#0f9"/><stop offset="1" style="stop-color:#3cf"/></linearGradient><path d="M404.6 251.2c-16.7-12.6-37.1-19.3-58-19.3-20.9-.1-41.3 6.7-58 19.3l7.3 9.7c37.4-28 90.4-20.5 118.4 16.9s20.5 90.4-16.9 118.4c-30.1 22.6-71.4 22.6-101.5 0l-7.3 9.7c42.7 32 103.3 23.4 135.4-19.3 32-42.8 23.3-103.4-19.4-135.4z" style="fill:url(#b)"/><linearGradient id="c" gradientUnits="userSpaceOnUse" x1="288.584" y1="170.236" x2="443.273" y2="170.236"><stop offset="0" style="stop-color:#0f9"/><stop offset="1" style="stop-color:#3cf"/></linearGradient><path d="M346.6 92.9c-20.9-.1-41.3 6.7-58 19.3l7.3 9.7c37.4-28 90.4-20.5 118.4 16.9 22.6 30.1 22.6 71.4 0 101.5l9.7 7.3c12.6-16.7 19.4-37.1 19.3-58-.1-53.4-43.3-96.6-96.7-96.7z" style="fill:url(#c)"/><linearGradient id="d" gradientUnits="userSpaceOnUse" x1="316.38" y1="177.487" x2="382.855" y2="177.487"><stop offset="0" style="stop-color:#0f9"/><stop offset="1" style="stop-color:#3cf"/></linearGradient><path d="M382.1 189.8c-1.2-4.8-3.9-9.1-7.6-12.3 10-8.6 11.2-23.8 2.6-33.8-3.2-3.8-7.5-6.4-12.3-7.6v-12.9h-12.1v12.1h-12.1v-12.1h-12.1v12.1h-12.1v12.1h6v60.4h-6v12.1h12.1V232h12.1v-12.1h12.1V232h12.1v-12.9c12.8-3.4 20.6-16.4 17.3-29.3zm-23.4 17.9h-24.2v-24.2h24.2c6.7 0 12.1 5.4 12.1 12.1 0 6.7-5.4 12.1-12.1 12.1zm0-36.3h-24.2v-24.2h24.2c6.7 0 12.1 5.4 12.1 12.1 0 6.7-5.4 12.1-12.1 12.1z" style="fill:url(#d)"/><linearGradient id="e" gradientUnits="userSpaceOnUse" x1="316.38" y1="328.55" x2="382.855" y2="328.55"><stop offset="0" style="stop-color:#0f9"/><stop offset="1" style="stop-color:#3cf"/></linearGradient><path d="M382.1 340.9c-1.2-4.8-3.9-9.1-7.6-12.3 10-8.6 11.2-23.8 2.6-33.8-3.2-3.8-7.5-6.4-12.3-7.6v-12.9h-12.1v12.1h-12.1v-12.1h-12.1v12.1h-12.1v12.1h6v60.4h-6V371h12.1v12.1h12.1V371h12.1v12.1h12.1V370c12.8-3.2 20.6-16.3 17.3-29.1zm-23.4 17.9h-24.2v-24.2h24.2c6.7 0 12.1 5.4 12.1 12.1s-5.4 12.1-12.1 12.1zm0-36.3h-24.2v-24.2h24.2c6.7 0 12.1 5.4 12.1 12.1s-5.4 12.1-12.1 12.1z" style="fill:url(#e)"/></g></switch></svg>