<svg xmlns="http://www.w3.org/2000/svg" viewBox="6 -6 512 512" style="enable-background:new 6 -6 512 512" xml:space="preserve"><switch><g><linearGradient id="a" gradientUnits="userSpaceOnUse" x1="204.184" y1="336.685" x2="459.119" y2="336.685"><stop offset="0" style="stop-color:#0f9"/><stop offset="1" style="stop-color:#3cf"/></linearGradient><path d="M400.7 373.4c-1.1-1.7-3-2.8-5-3l-59.8-4h-23.2v-16.2l19.2-3 37.3 3.9c.6.1 1.1 0 1.7 0l25.4-4-2-12.7L371 338c-.7-30.7-18.2-58.5-45.6-72.4l1.5-1.7 82.6 29.2 40.4 40.4 9.1-9.1-41.3-41.4c-.7-.7-1.5-1.2-2.4-1.5l-88-31.1c-2.4-.9-5.1-.2-6.9 1.7l-7.6 8.2c-8.1-2.6-16.6-3.9-25.2-3.9-46.1 0-83.5 37.3-83.5 83.4s37.3 83.5 83.4 83.5c30.1 0 57.9-16.2 72.7-42.5l31.2 2.1 23.7 37.4c1.2 1.9 3.2 3 5.4 3h33.9v-12.8H424l-23.3-37.1zm-153.1 24.8c-32.2-22.1-40.4-66.1-18.3-98.2 22.1-32.2 66.1-40.4 98.2-18.3 18.4 12.6 29.7 33.1 30.6 55.4l-25.8-2.7c-.6-.1-1.1 0-1.7 0l-25.4 4-.9.3-10.2-3.4v-26.6c6.9 1.3 12.2 7 12.8 14.1h12.8c-.8-14.1-11.7-25.6-25.7-27.3v-7h-12.8v7c-14 1.7-24.8 13.2-25.7 27.3.3 8.3 5.9 15.5 13.9 17.8l11.8 3.9v26.6c-6.9-1.3-12.2-7-12.8-14.1h-12.8c.8 14.1 11.7 25.6 25.7 27.3v7h12.8v-7c4.6-.8 8.9-2.5 12.8-5h28.5l10.3.7c-21.9 32.1-65.9 40.3-98.1 18.2zm52.2-47.5v17.9c-1.8 1.1-3.7 1.9-5.7 2.5v-22.2l5.7 1.8zm-18.5-42V331l-7.7-2.6c-2.7-.6-4.8-2.9-5.1-5.6.6-7.1 5.8-12.8 12.8-14.1z" style="fill:url(#a)"/><linearGradient id="b" gradientUnits="userSpaceOnUse" x1="64.881" y1="124.848" x2="319.829" y2="124.848"><stop offset="0" style="stop-color:#0f9"/><stop offset="1" style="stop-color:#3cf"/></linearGradient><path d="M309.1 87.1c-19.4-34.4-60.2-50.5-97.9-38.6l-7.6-8.2c-1.7-1.9-4.4-2.6-6.9-1.7l-88 31.1c-.9.3-1.7.8-2.4 1.5l-41.4 41.4 9.1 9.1 40.4-40.4L197 52.1l1.5 1.7a83.275 83.275 0 0 0-45.6 72.4l-23.2-3.7-2 12.7 25.4 4c.6.1 1.1.1 1.7 0l37.3-3.9 18.5 2.9v16.3h-23l-59.3 4c-2 .1-3.9 1.2-5 3l-23.5 37.1H69.4v12.8h33.9c2.2 0 4.2-1.1 5.4-3l23.7-37.4 31.2-2.1c22.6 40.2 73.5 54.4 113.7 31.7s54.4-73.4 31.8-113.5zm-72.7 111.6c-23.3 0-45.1-11.4-58.2-30.6l9.9-.7h29v5.6h12.8v-6.4h12.8v6.4h12.8v-8.7c11.2-5.3 16-18.6 10.7-29.7-1.1-2.4-2.7-4.7-4.7-6.5 8.9-8.6 9.1-22.7.5-31.6-1.9-1.9-4.1-3.5-6.5-4.7v-8.7h-12.8v6.4h-12.8v-6.4h-12.8v6.4h-12.8v12.8h6.4v22.9l-17.3-2.7c-.6-.1-1.1-.1-1.7 0l-25.8 2.7c1.5-37.8 32.6-67.7 70.5-67.7 39 0 70.6 31.6 70.7 70.6-.1 38.9-31.7 70.5-70.7 70.6zm9.6-77.1h-22.5v-19.3H246c5.3 0 9.6 4.3 9.6 9.6 0 5.4-4.3 9.7-9.6 9.7zm9.6 22.5c0 5.3-4.3 9.6-9.6 9.6h-21.8v-19.3H246c5.3.1 9.6 4.4 9.6 9.7z" style="fill:url(#b)"/><linearGradient id="c" gradientUnits="userSpaceOnUse" x1="323.812" y1="153.974" x2="458.432" y2="153.974"><stop offset="0" style="stop-color:#0f9"/><stop offset="1" style="stop-color:#3cf"/></linearGradient><path d="m450.7 206.4-15.9 11.9c-4.5-65.3-45.6-122.4-106-147.5l-4.9 11.8c55.4 23 93.2 75.1 98.1 134.9l-14.8-11.1-7.7 10.3 25.7 19.3c2.3 1.7 5.4 1.7 7.7 0l25.7-19.3-7.9-10.3z" style="fill:url(#c)"/><linearGradient id="d" gradientUnits="userSpaceOnUse" x1="65.568" y1="307.544" x2="200.188" y2="307.544"><stop offset="0" style="stop-color:#0f9"/><stop offset="1" style="stop-color:#3cf"/></linearGradient><path d="m102.1 244 14.8 11.1 7.7-10.3-25.7-19.3a6.45 6.45 0 0 0-7.7 0l-25.7 19.3 7.7 10.3 15.9-11.9c4.6 65.3 45.7 122.4 106.1 147.5l4.9-11.8c-55.3-23-93.2-75.1-98-134.9z" style="fill:url(#d)"/></g></switch></svg>