<svg xmlns="http://www.w3.org/2000/svg" viewBox="6 -6 512 512" style="enable-background:new 6 -6 512 512" xml:space="preserve"><switch><g><linearGradient id="a" gradientUnits="userSpaceOnUse" x1="6.508" y1="222.462" x2="506.657" y2="222.462"><stop offset="0" style="stop-color:#0f9"/><stop offset="1" style="stop-color:#3cf"/></linearGradient><path d="M425.3 121.1v.1C369.3 29.9 250 1.3 158.8 57.3c-30.2 18.5-54.8 45-71 76.6l-1.5-3.5C47.1 147.3 21 169 10.9 193l15.7 6.6c7.1-16.9 25.7-33.4 52.9-47.2-15.1 38.8-17.3 81.4-6.3 121.5-29.7-15.5-47.3-34.4-49.6-53.7l-16.9 2c3.3 27.5 26.7 52.2 67.5 71.3l3.1-6.7c35.7 101 146.4 153.9 247.4 118.3S478.6 258.7 443 157.7c-1.6-4.5-3.4-9-5.3-13.4 25.8 11.4 45.1 25.4 55.1 40.3l14.2-9.5c-14.7-21.5-42.8-40.2-81.7-54zm-44.7-27.5-7.3 4.9-28-5.6-18.7-6.2c-1.5-.5-3.2-.6-4.8-.2l-23.2 5.8-7.5-2.5 6-12.1h20.3c1.3 0 2.6-.3 3.8-.9l21.1-10.6c14 7.4 26.9 16.6 38.3 27.4zM189.8 60.3l14.3 9.5c1 .7 2.1 1.1 3.3 1.3l28.5 4.8-1.9 5.7-15.1 5.1c-1.9.6-3.6 2-4.6 3.7l-18.1 30.1-28.7 17.2-43.1 6.1c-4.2.6-7.3 4.2-7.3 8.4v19.2c0 2.3.9 4.4 2.5 6l10.3 10.3v6.1l-22.7-15.1-9.1-27.3c18.1-40.7 50.8-73.3 91.7-91.1zM89 177.9l3 9.1c.6 1.8 1.8 3.3 3.4 4.4l29.7 19.8-5.4 5.4c-1.6 1.6-2.5 3.8-2.5 6v19.2c0 1.3.3 2.6.9 3.8l12.8 25.6c1.2 2.4 3.4 4 6 4.5l25.1 5v21.6c-1.9-.3-3.9-.6-5.8-1-17.7-3.4-35.1-8-52.1-14l-3.8 10.7c-18.1-37.4-22-80-11.3-120.1zm171 221.6c-65.5-.1-125.7-36.3-156.3-94.3 16.1 5.4 32.5 9.7 49.2 12.9 2.9.6 6 1 9.1 1.6v18c0 1.1.2 2.2.6 3.2l12.8 32c.9 2.3 2.8 4.1 5.2 4.9l19.2 6.4c2.6.9 5.4.4 7.7-1.2 2.2-1.6 3.5-4.2 3.5-6.9v-27.7l22.2-16.6c1.5-1.2 2.5-2.8 2.9-4.7 4.1.1 8.3.3 12.4.3h5.7c3.1 0 6.3 0 9.5-.1 14.7-.2 29.3-1.1 43.7-2.4 4.9 12.6 17.1 20.9 30.7 20.9h.5c17.1-.3 31.1-13.6 32.3-30.7 5-1.1 10.1-2.2 14.9-3.5v.5c0 2.3.9 4.4 2.5 6l11.9 11.9c-33.4 43.8-85.2 69.5-140.2 69.5zm62-86.5c-.2-8.8 6.9-16.1 15.7-16.3h.3c8.9 0 16 7.2 16 16 0 8.9-7.2 16-16 16-8.7.1-15.9-7-16-15.7zm88 2.9-7.2-7.3v-1.8c5.2-1.6 10.2-3.3 15.2-5.1-2.5 4.9-5.1 9.6-8 14.2zm17.2-35.9c-7.7 3.2-15.8 6.2-24.4 8.9v-2.3c0-1.3-.3-2.6-.9-3.8l-24.7-49.4v-23.6c0-2.9-1.4-5.5-3.8-7.1L354.2 190c-2-1.3-4.5-1.8-6.8-1.2l-25.6 6.4 4.1 16.5 21.9-5.5 12.3 8.2v21c0 1.3.3 2.6.9 3.8l24.7 49.4v5.4c-5.9 1.6-11.9 3.1-18 4.4-1.7-3.5-3.9-6.7-6.7-9.4-6.3-6.1-14.8-9.4-23.6-9.3-16.2.2-29.9 12.2-32.1 28.3-13.8 1.3-27.9 2.1-42 2.3-3.1.1-6.2.1-9.2.1h-5.5c-4.1 0-8.1-.2-12.1-.3v-.8l23.1-23.1-12.1-12.1-25.5 25.7c-1.6 1.6-2.5 3.8-2.5 6v3.6c-.3 0-.6 0-.9-.1l-.8 12.6-20.5 15.3c-2.1 1.6-3.4 4.1-3.4 6.8v20.1l-4.2-1.4-10.7-26.6v-13.7c4.2.6 8.4 1.2 12.6 1.7l1.9-17c-4.9-.5-9.7-1.2-14.5-1.9v-31.4c0-4.1-2.9-7.5-6.8-8.4l-27.9-5.6-10-20v-13.6l21.1-21.1 7.5 15c1.6 3.2 5 5 8.5 4.7l36.1-3.8 5.6 5.6 12.1-12.1-8.5-8.5c-1.8-1.8-4.4-2.7-6.9-2.4l-34.3 3.6-10.1-20.3c-2.1-4.2-7.2-5.9-11.4-3.8-.8.4-1.6.9-2.2 1.6l-4.6 4.6v-5c0-2.3-.9-4.4-2.5-6L134.3 168v-8.3l37.4-5.3c1.1-.2 2.2-.5 3.2-1.1l32-19.2c1.2-.7 2.2-1.7 2.9-2.9l17.6-29.3 16.2-5.4c2.5-.8 4.5-2.8 5.4-5.4l6.4-19.2c1.5-4.5-.9-9.3-5.4-10.8-.4-.1-.8-.2-1.3-.3l-36.6-6.1-2.3-1.6c16.3-4.9 33.2-7.4 50.2-7.4 21.3 0 42.4 3.9 62.3 11.5l-6.8 3.4H292c-3.2 0-6.2 1.8-7.6 4.7L271.6 91c-2.1 4.2-.4 9.3 3.8 11.4.4.2.7.3 1.1.5l19.2 6.4c1.5.5 3.2.6 4.8.2l23.2-5.8 16.8 5.6c.3.1.7.2 1 .3l32 6.4c.6.1 1.1.2 1.7.2 1.7 0 3.3-.5 4.7-1.4l12.9-8.6c6 6.8 11.5 14 16.3 21.7l-28.2 9.4-32.6-5.4-10.8-16.1c-1.6-2.4-4.2-3.8-7.1-3.8H292c-2.3 0-4.4.9-6 2.5l-19.2 19.2 12.1 12 16.7-16.7h30.3l10.2 15.3c1.3 2 3.4 3.3 5.7 3.7l38.4 6.4c1.4.2 2.8.1 4.1-.3l33.5-11.2c21.7 42.4 25.1 92 9.4 137.1z" style="fill:url(#a)"/><linearGradient id="b" gradientUnits="userSpaceOnUse" x1="452.641" y1="242.499" x2="517.492" y2="242.499"><stop offset="0" style="stop-color:#0f9"/><stop offset="1" style="stop-color:#3cf"/></linearGradient><path d="m517.1 202.5-16.9 2c.2 1.5.3 3 .3 4.5 0 20.4-17 41.3-47.8 58.7l8.4 14.8c36.9-20.9 56.5-46.3 56.5-73.6v-.9c-.1-1.8-.3-3.7-.5-5.5z" style="fill:url(#b)"/><linearGradient id="c" gradientUnits="userSpaceOnUse" x1="227.686" y1="211.975" x2="304.423" y2="211.975"><stop offset="0" style="stop-color:#0f9"/><stop offset="1" style="stop-color:#3cf"/></linearGradient><path d="M303 220.8c-1.1-3.3-2.9-6.3-5.3-8.8 9.5-10.3 8.7-26.3-1.6-35.8-2.6-2.3-5.6-4.1-8.8-5.3v-10.1h-17.1v8.5h-17.1v-8.5H236v8.5h-8.5v17.1h8.5v51.2h-8.5v17.1h8.5v8.5h17.1v-8.5h17.1v8.5h17.1V253c13.3-4.5 20.3-19 15.7-32.2zm-24.2 16.7h-25.6v-17.1h25.6c4.7 0 8.5 3.8 8.5 8.5s-3.8 8.6-8.5 8.6zm0-34.1h-25.6v-17.1h25.6c4.7 0 8.5 3.8 8.5 8.5s-3.8 8.6-8.5 8.6z" style="fill:url(#c)"/></g></switch></svg>