<?xml version="1.0" encoding="utf-8"?>
<!-- Generator: Adobe Illustrator 19.0.0, SVG Export Plug-In . SVG Version: 6.00 Build 0)  -->
<svg version="1.1" id="Capa_1" xmlns="http://www.w3.org/2000/svg" xmlns:xlink="http://www.w3.org/1999/xlink" x="0px" y="0px"
	 viewBox="31 -31 512 512" style="enable-background:new 31 -31 512 512;" xml:space="preserve">
<style type="text/css">
	.st0{opacity:0.2;fill:#11081C;enable-background:new    ;}
	.st1{fill:none;stroke:url(#SVGID_1_);stroke-width:3;stroke-linecap:round;stroke-linejoin:round;stroke-miterlimit:10;}
	.st2{fill:url(#SVGID_2_);}
	.st3{fill:url(#SVGID_3_);}
	.st4{fill:url(#SVGID_4_);}
	.st5{fill:url(#SVGID_5_);}
	.st6{fill:url(#SVGID_6_);}
</style>
<path class="st0" d="M286.8,374c-75.9,1.7-79.2,29.4-79.2,29.4s3.2,27.6,79.2,29.4c0,0,70.2-1,79.4-29.4
	C357,375,286.8,374,286.8,374z"/>
<linearGradient id="SVGID_1_" gradientUnits="userSpaceOnUse" x1="-526.2" y1="389.3" x2="-526.2" y2="389.3">
	<stop  offset="2.945171e-007" style="stop-color:#3F00FC"/>
	<stop  offset="0.2077" style="stop-color:#3F02F7"/>
	<stop  offset="0.4672" style="stop-color:#3E09E7"/>
	<stop  offset="0.7531" style="stop-color:#3E14CE"/>
	<stop  offset="1" style="stop-color:#3D20B2"/>
</linearGradient>
<path class="st1" d="M-526.2,389.3"/>
<linearGradient id="SVGID_2_" gradientUnits="userSpaceOnUse" x1="104.0867" y1="253.1882" x2="469.9134" y2="253.1882">
	<stop  offset="0" style="stop-color:#4F3E90"/>
	<stop  offset="1" style="stop-color:#171A31"/>
</linearGradient>
<path class="st2" d="M469.9,161.7c0,101-81.9,182.9-182.9,182.9s-182.9-81.9-182.9-182.9"/>
<linearGradient id="SVGID_3_" gradientUnits="userSpaceOnUse" x1="104.0867" y1="161.7315" x2="469.722" y2="161.7315">
	<stop  offset="2.945171e-007" style="stop-color:#3F00FC"/>
	<stop  offset="0.2077" style="stop-color:#3F02F7"/>
	<stop  offset="0.4672" style="stop-color:#3E09E7"/>
	<stop  offset="0.7531" style="stop-color:#3E14CE"/>
	<stop  offset="1" style="stop-color:#3D20B2"/>
</linearGradient>
<path class="st3" d="M286.6,94c-175.1,4-182.5,67.7-182.5,67.7s7.5,63.7,182.5,67.7c0,0,161.9-2.3,183.1-67.7
	C448.5,96.3,286.6,94,286.6,94z"/>
<linearGradient id="SVGID_4_" gradientUnits="userSpaceOnUse" x1="185.2114" y1="161.7315" x2="382.8573" y2="161.7315">
	<stop  offset="1.916698e-007" style="stop-color:#7F00FF"/>
	<stop  offset="0.4889" style="stop-color:#7D00FF"/>
	<stop  offset="0.665" style="stop-color:#7600FF"/>
	<stop  offset="0.7905" style="stop-color:#6B00FF"/>
	<stop  offset="0.892" style="stop-color:#5A00FF"/>
	<stop  offset="0.9779" style="stop-color:#4400FF"/>
	<stop  offset="1" style="stop-color:#3D00FF"/>
</linearGradient>
<path class="st4" d="M283.9,125.1c-94.6,2.2-98.7,36.6-98.7,36.6s4,34.4,98.7,36.6c0,0,87.5-1.2,99-36.6
	C371.4,126.4,283.9,125.1,283.9,125.1z"/>
<linearGradient id="SVGID_5_" gradientUnits="userSpaceOnUse" x1="251.2409" y1="161.7315" x2="316.8279" y2="161.7315">
	<stop  offset="0" style="stop-color:#00FF99"/>
	<stop  offset="1" style="stop-color:#33CCFF"/>
</linearGradient>
<path class="st5" d="M284,149.6c-31.4,0.7-32.7,12.1-32.7,12.1s1.3,11.4,32.7,12.1c0,0,29-0.4,32.8-12.1
	C313,150,284,149.6,284,149.6z"/>
<linearGradient id="SVGID_6_" gradientUnits="userSpaceOnUse" x1="251.6714" y1="145.6526" x2="315.9868" y2="145.6526">
	<stop  offset="0" style="stop-color:#00FF99"/>
	<stop  offset="1" style="stop-color:#33CCFF"/>
</linearGradient>
<path class="st6" d="M251.7,161.7c0-17.8,14.4-32.2,32.2-32.2c17.8,0,32.2,14.4,32.2,32.2"/>
</svg>
