<?xml version="1.0" encoding="utf-8"?>
<!-- Generator: Adobe Illustrator 19.0.0, SVG Export Plug-In . SVG Version: 6.00 Build 0)  -->
<svg version="1.1" id="Capa_1" xmlns="http://www.w3.org/2000/svg" xmlns:xlink="http://www.w3.org/1999/xlink" x="0px" y="0px"
	 viewBox="6 -6 512 512" style="enable-background:new 6 -6 512 512;" xml:space="preserve">
<style type="text/css">
	.st0{fill:none;stroke:url(#SVGID_1_);stroke-width:3;stroke-linecap:round;stroke-linejoin:round;stroke-miterlimit:10;}
	.st1{opacity:0.2;fill:#1E1A21;}
	.st2{fill:url(#SVGID_2_);}
	.st3{fill:url(#SVGID_3_);}
	.st4{fill:url(#SVGID_4_);}
	.st5{opacity:0.2;fill:#2E3191;enable-background:new    ;}
	.st6{fill:url(#SVGID_5_);}
	.st7{fill:url(#SVGID_6_);}
	.st8{fill:url(#SVGID_7_);}
	.st9{fill:#031653;}
	.st10{fill:url(#SVGID_8_);}
	.st11{fill:url(#SVGID_9_);}
	.st12{fill:url(#SVGID_10_);}
	.st13{fill:url(#SVGID_11_);}
	.st14{fill:url(#SVGID_12_);}
	.st15{fill:url(#SVGID_13_);}
	.st16{opacity:0.25;fill:url(#SVGID_14_);}
	.st17{fill:url(#SVGID_15_);}
	.st18{fill:url(#SVGID_16_);}
	.st19{opacity:0.6;fill:url(#SVGID_17_);}
	.st20{fill:url(#SVGID_18_);}
	.st21{fill:url(#SVGID_19_);}
	.st22{fill:url(#SVGID_20_);}
	.st23{fill:url(#SVGID_21_);}
	.st24{fill:url(#SVGID_22_);}
	.st25{fill:#3D20B7;}
	.st26{fill:url(#SVGID_23_);}
	.st27{fill:url(#SVGID_24_);}
</style>
<linearGradient id="SVGID_1_" gradientUnits="userSpaceOnUse" x1="197.7694" y1="451.2969" x2="197.7694" y2="451.2969">
	<stop  offset="2.945171e-007" style="stop-color:#3F00FC"/>
	<stop  offset="0.2077" style="stop-color:#3F02F7"/>
	<stop  offset="0.4672" style="stop-color:#3E09E7"/>
	<stop  offset="0.7531" style="stop-color:#3E14CE"/>
	<stop  offset="1" style="stop-color:#3D20B2"/>
</linearGradient>
<path class="st0" d="M197.8,451.3"/>
<g>
	<path class="st1" d="M355.4,306.1l57.2,2.5c0,0,8.9-1.3,14-7.1c5-5.8-1.2-21.6-12-25.4c-10.9-3.7-88.3-7.7-88.3-7.7L355.4,306.1z"
		/>
	<g>
		
			<linearGradient id="SVGID_2_" gradientUnits="userSpaceOnUse" x1="5.7273" y1="504.4464" x2="6.3502" y2="503.7252" gradientTransform="matrix(123.428 0 0 -179.065 -411.65 90496.2188)">
			<stop  offset="0" style="stop-color:#463780"/>
			<stop  offset="0.1433" style="stop-color:#382E68"/>
			<stop  offset="0.3308" style="stop-color:#292550"/>
			<stop  offset="0.5289" style="stop-color:#1F1F3F"/>
			<stop  offset="0.7426" style="stop-color:#191B34"/>
			<stop  offset="1" style="stop-color:#171A31"/>
		</linearGradient>
		<path class="st2" d="M367.5,206.1l-67.8-38c-1.9-1-3.6-1-4.7-0.3l-16.6,9.7l3.2,2.7l11.7,8.4v58.6c0,3.9,2.9,8.8,6.5,10.9l56,31.4
			l-1.3,14.1l1,2.7l16.8-9.7v0c1.2-0.6,1.9-2.1,1.9-4v-75.4C374,213,371.1,208.1,367.5,206.1z"/>
		
			<linearGradient id="SVGID_3_" gradientUnits="userSpaceOnUse" x1="5.5758" y1="504.3669" x2="6.2917" y2="503.6027" gradientTransform="matrix(107.17 0 0 -168.6487 -316.669 85236.6875)">
			<stop  offset="0" style="stop-color:#268ECD"/>
			<stop  offset="0.3644" style="stop-color:#0974F9"/>
			<stop  offset="0.5403" style="stop-color:#1195F7"/>
			<stop  offset="0.6698" style="stop-color:#076CF9"/>
			<stop  offset="1" style="stop-color:#325FAC"/>
		</linearGradient>
		<path class="st3" d="M278.7,254.6c0,3.9,2.9,8.8,6.5,10.9l67.7,41.1c2.2,0.5,6.6-2.7,6.6-6.7v-74.2c0-4.6-3.5-10-7-11.9
			l-66.9-37.2c-3.9-2.1-9.1,1-9.1,5.1L278.7,254.6z"/>
		
			<linearGradient id="SVGID_4_" gradientUnits="userSpaceOnUse" x1="6.156" y1="503.5539" x2="5.6597" y2="504.3783" gradientTransform="matrix(104.176 0 0 -167.1217 -298.705 84465.4453)">
			<stop  offset="0" style="stop-color:#4F3E90"/>
			<stop  offset="1" style="stop-color:#171A31"/>
		</linearGradient>
		<path class="st4" d="M276.4,256.9c0,3.9,2.9,8.8,6.5,10.9l67.8,38c3.6,2,6.5,0.3,6.5-3.6v-75.4c0-3.9-2.9-8.8-6.5-10.9l-67.8-38
			c-3.6-2-6.5-0.3-6.5,3.6V256.9L276.4,256.9z"/>
		<path class="st5" d="M309,183.1l8.6-5l-7.9-4.4l-1.7,5.9L309,183.1z M352.9,207.7l8.6-4.9l-7.9-4.5l-1.7,5.9L352.9,207.7z"/>
		
			<linearGradient id="SVGID_5_" gradientUnits="userSpaceOnUse" x1="5.2105" y1="502.5643" x2="5.9846" y2="502.5643" gradientTransform="matrix(71.661 0 0 -94.1923 -74.309 47509.8125)">
			<stop  offset="0" style="stop-color:#D5E8F1"/>
			<stop  offset="1" style="stop-color:#94BCFF"/>
		</linearGradient>
		<path class="st6" d="M354.6,184.4c0-17.7-10.9-37.7-24.8-45.5c-7.1-4-14.3-4.3-20.2-1.1c-6.7,3.7-10.5,11.7-10.5,22V181h0.1
			c0.1,0.8,0.6,1.6,1.7,2.2c2.2,1.3,6,1.3,8.2,0c1.2-0.7,1.8-1.7,1.7-2.7v-20.7c0-6,1.7-10.6,4.7-12.3c2.7-1.5,6.1-0.2,8.5,1.1
			c10.3,5.8,19,22.1,19,35.8v21.1c0.1,0.8,0.6,1.6,1.7,2.2c2.2,1.3,6,1.3,8.2,0c1.1-0.6,1.7-1.4,1.7-2.2L354.6,184.4
			C354.7,184.4,354.6,184.4,354.6,184.4z"/>
		<path class="st5" d="M334.6,142.2c10.2,11.3,17.2,27.9,17.2,43.1v22.9c0.4-0.2,0.8-0.3,1.2-0.5c1.1-0.6,1.7-1.4,1.7-2.2v-21.2
			C354.6,168.8,346.1,151.4,334.6,142.2L334.6,142.2z M312.7,146.9c-3.6,2-5.6,7.5-5.6,14.8v22.2c0.7-0.2,1.5-0.4,2.1-0.7
			c1.2-0.7,1.8-1.7,1.7-2.7v-20.7c0-6,1.7-10.6,4.7-12.3c2-1.1,4.4-0.7,6.5,0.2C319.2,146.3,315.6,145.2,312.7,146.9L312.7,146.9z"
			/>
		
			<linearGradient id="SVGID_6_" gradientUnits="userSpaceOnUse" x1="2.6523" y1="498.7139" x2="3.4286" y2="498.0668" gradientTransform="matrix(17.861 0 0 -35.9945 261.861 18179.6777)">
			<stop  offset="5.148000e-002" style="stop-color:#BEB3ED"/>
			<stop  offset="0.1809" style="stop-color:#E4E0FF"/>
			<stop  offset="0.3754" style="stop-color:#DED5F9"/>
			<stop  offset="0.4362" style="stop-color:#DED5F9"/>
			<stop  offset="0.4851" style="stop-color:#A89AE4"/>
			<stop  offset="0.7084" style="stop-color:#957EDC"/>
			<stop  offset="1" style="stop-color:#6E70C5"/>
		</linearGradient>
		<path class="st7" d="M316.3,228c-3.8-2.2-6.9-0.4-6.9,3.9c0,3,1.5,6.4,3.6,8.8v9.3c0,1.6,1.3,3.6,3,4.5c1.7,0.9,3,0.4,3-1.2v-9
			c2.5,0.2,4.2-1.5,4.2-4.7C323.2,235.3,320.1,230.1,316.3,228z"/>
		
			<linearGradient id="SVGID_7_" gradientUnits="userSpaceOnUse" x1="2.6523" y1="498.7139" x2="3.4286" y2="498.0668" gradientTransform="matrix(17.861 0 0 -35.9945 261.861 18179.6777)">
			<stop  offset="0" style="stop-color:#4F3E90"/>
			<stop  offset="1" style="stop-color:#171A31"/>
		</linearGradient>
		<path class="st8" d="M316.3,228c-3.8-2.2-6.9-0.4-6.9,3.9c0,3,1.5,6.4,3.6,8.8v9.3c0,1.6,1.3,3.6,3,4.5c1.7,0.9,3,0.4,3-1.2v-9
			c2.5,0.2,4.2-1.5,4.2-4.7C323.2,235.3,320.1,230.1,316.3,228z"/>
		<path class="st9" d="M319,244.3v9.1l-0.5-0.2c-1.7-0.9-3-3-3-4.5v-9.3c-2.2-2.5-3.6-5.9-3.6-8.8c0-1.4,0.3-2.6,1-3.4
			c1-0.1,2.2,0.2,3.5,0.9c3.8,2.2,6.9,7.3,6.9,11.6c0,1.4-0.3,2.6-1,3.4h-0.8L319,244.3L319,244.3z"/>
	</g>
	<g>
		<path class="st1" d="M97.2,298.6c0,0-3.9,1.9,0.6,6.9c4.5,4.9,99.3,57.1,99.3,57.1s7.8,4.1,13.6,0l86.3-50.6c0,0,2.2-3.3-2.4-5.6
			L195.5,249c0,0-5-3.9-11.7,0C177.1,252.9,97.2,298.6,97.2,298.6z"/>
		<linearGradient id="SVGID_8_" gradientUnits="userSpaceOnUse" x1="95.6563" y1="280.1721" x2="297.6154" y2="280.1721">
			<stop  offset="0" style="stop-color:#4F3E90"/>
			<stop  offset="1" style="stop-color:#171A31"/>
		</linearGradient>
		<path class="st10" d="M97.2,272.9c0,0-3.9,1.9,0.6,6.9c4.5,4.9,99.3,57.1,99.3,57.1s7.8,4.1,13.6,0l86.3-50.6c0,0,2.2-3.3-2.4-5.6
			l-99.2-57.4c0,0-5-3.9-11.7,0C177.1,227.2,97.2,272.9,97.2,272.9z"/>
		<linearGradient id="SVGID_9_" gradientUnits="userSpaceOnUse" x1="95.6562" y1="313.0684" x2="297.6596" y2="313.0684">
			<stop  offset="0" style="stop-color:#463780"/>
			<stop  offset="0.1433" style="stop-color:#382E68"/>
			<stop  offset="0.3308" style="stop-color:#292550"/>
			<stop  offset="0.5289" style="stop-color:#1F1F3F"/>
			<stop  offset="0.7426" style="stop-color:#191B34"/>
			<stop  offset="1" style="stop-color:#171A31"/>
		</linearGradient>
		<path class="st11" d="M95.7,287.1v-11.8c0,0-0.1,3.2,3.5,5.5c3.6,2.4,27.6,16.6,27.6,16.6l35.9,20.3l34.1,18.9
			c0,0,7.6,4.2,13.7,0.6c6.1-3.6,86.8-50.8,86.8-50.8s0.8-1,0.5-2.8l0,12.7c0,1.1-0.6,2.1-1.5,2.7l-84.6,49.4c0,0-8.6,6.4-17-1.5
			l-97.2-56.9C96.3,289.4,95.7,288.3,95.7,287.1L95.7,287.1z"/>
		<linearGradient id="SVGID_10_" gradientUnits="userSpaceOnUse" x1="95.6563" y1="252.1727" x2="297.6154" y2="252.1727">
			<stop  offset="0" style="stop-color:#4F3E90"/>
			<stop  offset="1" style="stop-color:#171A31"/>
		</linearGradient>
		<path class="st12" d="M97.2,244.9c0,0-3.9,1.9,0.6,6.9c4.5,4.9,99.3,57.1,99.3,57.1s7.8,4.1,13.6,0l86.3-50.6c0,0,2.2-3.3-2.4-5.6
			l-99.2-57.4c0,0-5-3.9-11.7,0C177.1,199.2,97.2,244.9,97.2,244.9z"/>
		<linearGradient id="SVGID_11_" gradientUnits="userSpaceOnUse" x1="95.6562" y1="285.069" x2="297.6596" y2="285.069">
			<stop  offset="0" style="stop-color:#463780"/>
			<stop  offset="0.1433" style="stop-color:#382E68"/>
			<stop  offset="0.3308" style="stop-color:#292550"/>
			<stop  offset="0.5289" style="stop-color:#1F1F3F"/>
			<stop  offset="0.7426" style="stop-color:#191B34"/>
			<stop  offset="1" style="stop-color:#171A31"/>
		</linearGradient>
		<path class="st13" d="M95.7,259.1v-11.8c0,0-0.1,3.2,3.5,5.5c3.6,2.4,27.6,16.6,27.6,16.6l35.9,20.3l34.1,18.9
			c0,0,7.6,4.2,13.7,0.6c6.1-3.6,86.8-50.8,86.8-50.8s0.8-1,0.5-2.8l0,12.7c0,1.1-0.6,2.1-1.5,2.7l-84.6,49.4c0,0-8.6,6.4-17-1.5
			l-97.2-56.9C96.3,261.4,95.7,260.3,95.7,259.1L95.7,259.1z"/>
		<linearGradient id="SVGID_12_" gradientUnits="userSpaceOnUse" x1="95.6563" y1="224.1733" x2="297.6154" y2="224.1733">
			<stop  offset="0" style="stop-color:#4F3E90"/>
			<stop  offset="1" style="stop-color:#171A31"/>
		</linearGradient>
		<path class="st14" d="M97.2,216.9c0,0-3.9,1.9,0.6,6.9c4.5,4.9,99.3,57.1,99.3,57.1s7.8,4.1,13.6,0l86.3-50.6c0,0,2.2-3.3-2.4-5.6
			l-99.2-57.4c0,0-5-3.9-11.7,0C177.1,171.2,97.2,216.9,97.2,216.9z"/>
		<linearGradient id="SVGID_13_" gradientUnits="userSpaceOnUse" x1="95.6562" y1="257.0696" x2="297.6596" y2="257.0696">
			<stop  offset="0" style="stop-color:#463780"/>
			<stop  offset="0.1433" style="stop-color:#382E68"/>
			<stop  offset="0.3308" style="stop-color:#292550"/>
			<stop  offset="0.5289" style="stop-color:#1F1F3F"/>
			<stop  offset="0.7426" style="stop-color:#191B34"/>
			<stop  offset="1" style="stop-color:#171A31"/>
		</linearGradient>
		<path class="st15" d="M95.7,231.1v-11.8c0,0-0.1,3.2,3.5,5.5c3.6,2.4,27.6,16.6,27.6,16.6l35.9,20.3l34.1,18.9
			c0,0,7.6,4.2,13.7,0.6c6.1-3.6,86.8-50.8,86.8-50.8s0.8-1,0.5-2.8l0,12.7c0,1.1-0.6,2.1-1.5,2.7l-84.6,49.4c0,0-8.6,6.4-17-1.5
			l-97.2-56.9C96.3,233.4,95.7,232.3,95.7,231.1L95.7,231.1z"/>
		<linearGradient id="SVGID_14_" gradientUnits="userSpaceOnUse" x1="186.1226" y1="272.9575" x2="212.305" y2="175.2434">
			<stop  offset="0" style="stop-color:#4F3E90;stop-opacity:0.6"/>
			<stop  offset="1" style="stop-color:#171ABF;stop-opacity:0.4"/>
		</linearGradient>
		<path class="st16" d="M107.9,217.5c0,0-3.6,1.8,0.6,6.3c4.2,4.5,91.2,52.4,91.2,52.4s7.1,3.8,12.5,0l79.3-46.4c0,0,2-3-2.2-5.2
			L198.2,172c0,0-4.6-3.6-10.7,0C181.3,175.6,107.9,217.5,107.9,217.5z"/>
		<g>
			<linearGradient id="SVGID_15_" gradientUnits="userSpaceOnUse" x1="95.6563" y1="196.1739" x2="297.6154" y2="196.1739">
				<stop  offset="0" style="stop-color:#4F3E90"/>
				<stop  offset="1" style="stop-color:#171A31"/>
			</linearGradient>
			<path class="st17" d="M97.2,188.9c0,0-3.9,1.9,0.6,6.9c4.5,4.9,99.3,57.1,99.3,57.1s7.8,4.1,13.6,0l86.3-50.6
				c0,0,2.2-3.3-2.4-5.6l-99.2-57.4c0,0-5-3.9-11.7,0C177.1,143.2,97.2,188.9,97.2,188.9z"/>
			<linearGradient id="SVGID_16_" gradientUnits="userSpaceOnUse" x1="95.6562" y1="229.0702" x2="297.6596" y2="229.0702">
				<stop  offset="0" style="stop-color:#463780"/>
				<stop  offset="0.1433" style="stop-color:#382E68"/>
				<stop  offset="0.3308" style="stop-color:#292550"/>
				<stop  offset="0.5289" style="stop-color:#1F1F3F"/>
				<stop  offset="0.7426" style="stop-color:#191B34"/>
				<stop  offset="1" style="stop-color:#171A31"/>
			</linearGradient>
			<path class="st18" d="M95.7,203.1v-11.8c0,0-0.1,3.2,3.5,5.5c3.6,2.4,27.6,16.6,27.6,16.6l35.9,20.3l34.1,18.9
				c0,0,7.6,4.2,13.7,0.6c6.1-3.6,86.8-50.8,86.8-50.8s0.8-1,0.5-2.8l0,12.7c0,1.1-0.6,2.1-1.5,2.7l-84.6,49.4c0,0-8.6,6.4-17-1.5
				l-97.2-56.9C96.3,205.4,95.7,204.3,95.7,203.1L95.7,203.1z"/>
		</g>
		<linearGradient id="SVGID_17_" gradientUnits="userSpaceOnUse" x1="140.8347" y1="204.3035" x2="273.1111" y2="204.3035">
			<stop  offset="0" style="stop-color:#463780"/>
			<stop  offset="0.1433" style="stop-color:#382E68"/>
			<stop  offset="0.3308" style="stop-color:#292550"/>
			<stop  offset="0.5289" style="stop-color:#1F1F3F"/>
			<stop  offset="0.7426" style="stop-color:#191B34"/>
			<stop  offset="1" style="stop-color:#171A31"/>
		</linearGradient>
		<polygon class="st19" points="140.8,189.2 208.7,230.2 273.1,195.8 266.7,195.2 200,178.4 		"/>
		<g>
			<linearGradient id="SVGID_18_" gradientUnits="userSpaceOnUse" x1="140.8347" y1="192.1073" x2="204.5675" y2="192.1073">
				<stop  offset="1.916698e-007" style="stop-color:#7F00FF"/>
				<stop  offset="0.4889" style="stop-color:#7D00FF"/>
				<stop  offset="0.665" style="stop-color:#7600FF"/>
				<stop  offset="0.7905" style="stop-color:#6B00FF"/>
				<stop  offset="0.892" style="stop-color:#5A00FF"/>
				<stop  offset="0.9779" style="stop-color:#4400FF"/>
				<stop  offset="1" style="stop-color:#3D00FF"/>
			</linearGradient>
			<polygon class="st20" points="140.8,185.2 160.6,173.7 204.6,199 184.8,210.5 			"/>
			<linearGradient id="SVGID_19_" gradientUnits="userSpaceOnUse" x1="184.7888" y1="211.1376" x2="226.5715" y2="211.1376">
				<stop  offset="2.945171e-007" style="stop-color:#3F00FC"/>
				<stop  offset="0.2077" style="stop-color:#3F02F7"/>
				<stop  offset="0.4672" style="stop-color:#3E09E7"/>
				<stop  offset="0.7531" style="stop-color:#3E14CE"/>
				<stop  offset="1" style="stop-color:#3D20B2"/>
			</linearGradient>
			<polygon class="st21" points="226.6,211.7 204.5,199 184.8,210.6 206.7,223.2 			"/>
			<linearGradient id="SVGID_20_" gradientUnits="userSpaceOnUse" x1="177.0997" y1="175.4641" x2="191.9821" y2="231.0062">
				<stop  offset="2.945171e-007" style="stop-color:#851CB7"/>
				<stop  offset="1" style="stop-color:#3D20B7"/>
			</linearGradient>
			<polygon class="st22" points="140.8,185.2 140.8,188.6 206.7,227.1 226.6,215.5 226.6,211.7 206.8,223.2 			"/>
			<linearGradient id="SVGID_21_" gradientUnits="userSpaceOnUse" x1="169.6576" y1="171.9907" x2="198.7511" y2="171.9907">
				<stop  offset="2.945171e-007" style="stop-color:#3F00FC"/>
				<stop  offset="0.2077" style="stop-color:#3F02F7"/>
				<stop  offset="0.4672" style="stop-color:#3E09E7"/>
				<stop  offset="0.7531" style="stop-color:#3E14CE"/>
				<stop  offset="1" style="stop-color:#3D20B2"/>
			</linearGradient>
			<polygon class="st23" points="169.7,174.7 172.5,166.8 197,152.5 198.8,191.5 			"/>
			<linearGradient id="SVGID_22_" gradientUnits="userSpaceOnUse" x1="203.4193" y1="193.0952" x2="262.8758" y2="193.0952">
				<stop  offset="1.916698e-007" style="stop-color:#7F00FF"/>
				<stop  offset="0.2224" style="stop-color:#7A00FF"/>
				<stop  offset="0.5003" style="stop-color:#6A00FF"/>
				<stop  offset="0.8064" style="stop-color:#5100FF"/>
				<stop  offset="1" style="stop-color:#3D00FF"/>
			</linearGradient>
			<polygon class="st24" points="203.4,194.2 203.5,176.5 262.9,190.6 230.2,209.6 			"/>
			<polygon class="st25" points="203.4,194.2 230.2,209.6 262.9,190.6 262.9,194.2 230.2,213.8 203.4,198.4 			"/>
			<polygon class="st25" points="169.7,174.7 169.7,178.9 198.7,195.6 198.8,191.5 			"/>
			<linearGradient id="SVGID_23_" gradientUnits="userSpaceOnUse" x1="215.3758" y1="214.7369" x2="217.8761" y2="224.068">
				<stop  offset="2.945171e-007" style="stop-color:#3F00FC"/>
				<stop  offset="0.12" style="stop-color:#3D01F7"/>
				<stop  offset="0.27" style="stop-color:#3804E7"/>
				<stop  offset="0.436" style="stop-color:#2F08CE"/>
				<stop  offset="0.6136" style="stop-color:#230EAA"/>
				<stop  offset="0.8005" style="stop-color:#14167C"/>
				<stop  offset="0.9923" style="stop-color:#012045"/>
				<stop  offset="1" style="stop-color:#002043"/>
			</linearGradient>
			<polygon class="st26" points="206.8,223.2 206.7,227.1 226.6,215.5 226.6,211.7 			"/>
			<linearGradient id="SVGID_24_" gradientUnits="userSpaceOnUse" x1="244.7112" y1="195.4467" x2="248.324" y2="208.9299">
				<stop  offset="2.945171e-007" style="stop-color:#3F00FC"/>
				<stop  offset="0.12" style="stop-color:#3D01F7"/>
				<stop  offset="0.27" style="stop-color:#3804E7"/>
				<stop  offset="0.436" style="stop-color:#2F08CE"/>
				<stop  offset="0.6136" style="stop-color:#230EAA"/>
				<stop  offset="0.8005" style="stop-color:#14167C"/>
				<stop  offset="0.9923" style="stop-color:#012045"/>
				<stop  offset="1" style="stop-color:#002043"/>
			</linearGradient>
			<polygon class="st27" points="230.2,209.6 230.2,213.8 262.9,194.2 262.9,190.6 			"/>
		</g>
	</g>
</g>
</svg>
