<?xml version="1.0" encoding="utf-8"?>
<!-- Generator: Adobe Illustrator 19.0.0, SVG Export Plug-In . SVG Version: 6.00 Build 0)  -->
<svg version="1.1" id="Calque_1" xmlns="http://www.w3.org/2000/svg" xmlns:xlink="http://www.w3.org/1999/xlink" x="0px" y="0px"
	 viewBox="0 0 1920 1080" style="enable-background:new 0 0 1920 1080;" xml:space="preserve">
<style type="text/css">
	.st0{opacity:0.1;fill:#171B31;}
	.st1{opacity:0.2;fill:#524696;}
</style>
<path id="XMLID_1_" class="st0" d="M451.4,580.1L-858.3,393.3c-65.9-9.4-111.7-70.4-102.3-136.3l142.8-1000.9
	c9.4-65.9,70.4-111.7,136.3-102.3L628.2-659.3c65.9,9.4,111.7,70.4,102.3,136.3L587.8,477.8C578.4,543.7,517.3,589.5,451.4,580.1z"
	/>
<path id="XMLID_3_" class="st1" d="M647.5,502.5L-634.1,174.3c-64.5-16.5-103.3-82.2-86.8-146.6l250.9-979.4
	c16.5-64.5,82.2-103.3,146.6-86.8L958.2-710.3c64.5,16.5,103.3,82.2,86.8,146.6L794.1,415.7C777.6,480.2,712,519,647.5,502.5z"/>
</svg>
