<svg version="1.1" id="Calque_1" xmlns="http://www.w3.org/2000/svg" x="0" y="0" viewBox="-50 55 798 454" style="enable-background:new -50 55 798 454" xml:space="preserve"><style>.st1{fill:#fff}</style><g style="opacity:.3"><path class="st1" d="M176.6 296.4v14.3c0 8.7-1.8 15.4-5.5 20.1-3.6 4.7-9 7-16.1 7s-12.5-2.3-16.1-7-5.5-11.4-5.5-20.1v-56c0-8.7 1.8-15.4 5.5-20.1 3.6-4.7 9-7 16.1-7s12.5 2.3 16.1 7c3.6 4.7 5.5 11.4 5.5 20.1v10.5h-13.7v-11.5c0-3.9-.7-6.6-2-8.2-1.4-1.6-3.2-2.4-5.5-2.4s-4.1.8-5.5 2.4-2 4.3-2 8.2v58.2c0 3.9.7 6.6 2 8.2 1.4 1.5 3.2 2.3 5.5 2.3s4.1-.8 5.5-2.3 2-4.3 2-8.2v-15.4h13.7v-.1zM215.7 336.6c-.2-.7-.4-1.4-.5-2-.2-.6-.3-1.4-.5-2.3-.1-.9-.2-2.1-.3-3.5 0-1.4-.1-3.2-.1-5.4v-16.9c0-5-.7-8.6-2.2-10.6-1.5-2.1-3.9-3.1-7.2-3.1h-5v43.9h-14.5V228.9h21.9c7.5 0 13 2.1 16.4 6.2s5.1 10.3 5.1 18.6v8.5c0 11.1-3.2 18.4-9.5 21.9 3.7 1.7 6.2 4.6 7.6 8.5 1.4 4 2 8.7 2 14.4v16.6c0 2.7.1 5 .3 7s.6 4 1.3 6.1h-14.8v-.1zm-15.8-92.3v33.1h5.7c2.7 0 4.8-.8 6.4-2.5 1.5-1.6 2.3-4.6 2.3-8.9v-10.6c0-3.9-.6-6.7-1.8-8.5-1.2-1.7-3.1-2.6-5.6-2.6h-7zM250.6 300.9l-18.3-72h15.1l11.1 49.1 11.1-49.1h13.8l-18.3 72v35.7h-14.5v-35.7zM310.5 228.9c7.3 0 12.7 2.3 16.3 6.8 3.6 4.5 5.3 11.1 5.3 19.9v14c0 8.7-1.8 15.3-5.3 19.9-3.6 4.5-9 6.8-16.3 6.8h-6.8v40.5h-14.6V228.9h21.4zm-6.9 15.4v36.5h6.8c2.3 0 4-.7 5.3-2.2 1.2-1.4 1.8-4.1 1.8-8v-16.2c0-3.9-.6-6.6-1.8-8-1.2-1.4-3-2.2-5.3-2.2h-6.8v.1zM335.2 228.9H380v15.4h-15.1v92.3h-14.5v-92.3h-15.1l-.1-15.4zM385.1 254.8c0-8.7 1.9-15.4 5.7-20.1 3.8-4.7 9.2-7 16.3-7 7.1 0 12.6 2.3 16.3 7 3.8 4.7 5.7 11.4 5.7 20.1v56c0 8.7-1.9 15.4-5.7 20.1-3.8 4.7-9.2 7-16.3 7-7.1 0-12.6-2.3-16.3-7-3.8-4.7-5.7-11.4-5.7-20.1v-56zm14.5 57c0 3.9.7 6.6 2 8.2 1.4 1.6 3.2 2.4 5.5 2.4s4.1-.8 5.5-2.4 2-4.3 2-8.2v-58.2c0-3.9-.7-6.6-2-8.2-1.4-1.6-3.2-2.4-5.5-2.4s-4.1.8-5.5 2.4c-1.4 1.6-2 4.3-2 8.2v58.2zM487 307.3v-38.4l-14.7 23h-1.7l-14.4-23.1v38.5h-8.5v-52.9h9.8l14.2 22.8 14.2-22.8h9.8v52.9H487zM539.5 307.2l-3.8-10H512l-3.9 10h-9.2l20.3-52.9h9.3l20.3 52.9h-9.3zm-7.2-19.3-8.4-22.5-8.4 22.5h16.8zM592.8 306.5v.7h-10.2l-13.2-17.7h-8.2v17.7h-8.5v-53h21.5c5.1.1 9.1 1.8 12 5.2s4.3 7.5 4.3 12.4c0 4-.9 7.6-2.7 10.6s-4.7 5.1-8.7 6l13.7 18.1zm-18.6-42.9h-13v16.9h13c2.5 0 4.5-.8 5.8-2.5s2-3.7 2-6-.7-4.3-2-6c-1.4-1.6-3.3-2.4-5.8-2.4zM632.6 254.3v.3l-20.1 25.3 21.8 26.7v.6h-10.5l-18.9-23.4v23.4h-8.5v-52.9h8.5v22.4l17.2-22.4h10.5zM672.4 297.3v9.8h-33.9v-52.9h33.9v9.7H647v12.2h24.5v9.3H647v11.9h25.4zM693.3 307.2v-43.8h-14.4v-9.1h37.2v9.1h-14.4v43.8h-8.4zM92.4 277.5c.9 0 1.7-.5 2.1-1.3l9-20.2c.1-.3.2-.6.2-.9v-38.3c0-1.2-1-2.2-2.2-2.3H60.8c-.9 0-1.6.5-2 1.2l-9 18c-.2.3-.2.7-.2 1v18H36.1v-36.1c0-1.2-1-2.2-2.2-2.3H-6.8c-.9 0-1.6.5-2 1.2l-9 18c-.2.3-.3.7-.3 1v40.6c0 1.2 1 2.3 2.3 2.3h18v9h-9c-.9 0-1.6.5-2 1.2l-9 18c-.2.3-.3.7-.3 1v40.6c0 1.2 1 2.3 2.3 2.3h40.6c.9 0 1.7-.5 2.1-1.3l8.4-18.9h14.3v18c0 1.2 1 2.3 2.3 2.3h40.6c.9 0 1.7-.5 2.1-1.3l9-20.2c.1-.3.2-.6.2-.9V289c0-1.2-1-2.2-2.2-2.3H74.5v-9h17.9v-.2zm6.7-23-4.5 10.1v-29.4l4.5-9v28.3zm-36.9-35.6h35.5l-6.8 13.5H55.5l6.7-13.5zM27 252.8v-17.5l4.5-9v26.5H27zm3.3 4.5-3.3 7.4v-7.4h3.3zm-35.7-38.4h35.5l-6.8 13.5h-35.5l6.8-13.5zm-8.1 54.1v-36.1h36.1v15.8H2.3v4.5h20.3V273h-36.1zm8.1 18h7.6v13.5h-14.4l6.8-13.5zm27.9 54.1h-36.1V309H2.3v20.3h4.5V309h15.8l-.1 36.1zm.9-40.6H6.8V291h23.4l-6.8 13.5zm3.6 32.2v-7.4h3.3l-3.3 7.4zm4.5-11.9H27v-17.5l4.5-9v26.5zm18.3-19.1c-.1.3-.2.7-.2 1v18H36.1v-36.1c0-1.2-1-2.2-2.2-2.3H6.8v-9h18c.9 0 1.7-.5 2.1-1.3l8.4-18.9h14.3v18c0 1.2 1 2.3 2.3 2.3h18v9h-9c-.9 0-1.6.5-2 1.2l-9.1 18.1zM69.9 291v13.5H55.5l6.8-13.5h7.6zm20.2 54.1h-36v-15.8h20.3v-4.5H54.1V309h36v36.1zm9-18.5-4.5 10.1v-29.4l4.5-9v28.3zM97.8 291 91 304.5H74.4V291h23.4zm-27.9-38.2V273H54.1v-36.1h36V273H74.4v-20.3h-4.5z"/></g></svg>