<?xml version="1.0" encoding="utf-8"?>
<!-- Generator: Adobe Illustrator 19.0.0, SVG Export Plug-In . SVG Version: 6.00 Build 0)  -->
<svg version="1.1" id="Capa_1" xmlns="http://www.w3.org/2000/svg" xmlns:xlink="http://www.w3.org/1999/xlink" x="0px" y="0px"
	 viewBox="-188 -537.5 900 563" style="enable-background:new -188 -537.5 900 563;" xml:space="preserve">
<style type="text/css">
	.st0{clip-path:url(#SVGID_2_);fill:url(#SVGID_3_);}
	.st1{opacity:0.3;clip-path:url(#SVGID_2_);fill:#7B20E5;}
	.st2{clip-path:url(#SVGID_2_);fill:none;stroke:url(#XMLID_2_);stroke-width:6;stroke-miterlimit:10;}
	.st3{clip-path:url(#SVGID_2_);fill:none;stroke:url(#XMLID_3_);stroke-width:6;stroke-miterlimit:10;}
	.st4{clip-path:url(#SVGID_2_);}
	.st5{fill:url(#XMLID_4_);}
	.st6{fill:url(#XMLID_5_);}
	.st7{fill:url(#XMLID_6_);}
	.st8{clip-path:url(#SVGID_2_);fill:url(#XMLID_7_);}
	.st9{clip-path:url(#SVGID_2_);fill:url(#XMLID_8_);}
	.st10{clip-path:url(#SVGID_2_);fill:url(#XMLID_9_);}
	.st11{fill:url(#XMLID_10_);}
	.st12{fill:url(#XMLID_11_);}
	.st13{fill:url(#XMLID_12_);}
	.st14{fill:url(#XMLID_13_);}
	.st15{fill:url(#XMLID_14_);}
	.st16{fill:url(#XMLID_15_);}
	.st17{clip-path:url(#XMLID_16_);fill:url(#XMLID_17_);}
	.st18{clip-path:url(#XMLID_16_);fill:url(#XMLID_18_);}
	.st19{clip-path:url(#XMLID_16_);fill:url(#XMLID_19_);}
	.st20{clip-path:url(#XMLID_16_);fill:url(#XMLID_21_);}
	.st21{clip-path:url(#XMLID_16_);fill:url(#XMLID_22_);}
	.st22{clip-path:url(#XMLID_16_);fill:url(#XMLID_23_);}
	.st23{clip-path:url(#XMLID_16_);fill:url(#XMLID_24_);}
	.st24{clip-path:url(#XMLID_16_);fill:url(#XMLID_25_);}
	.st25{clip-path:url(#SVGID_2_);fill:url(#XMLID_26_);}
	.st26{fill:url(#XMLID_27_);}
	.st27{fill:url(#XMLID_28_);}
	.st28{fill:url(#XMLID_29_);}
	.st29{fill:url(#XMLID_30_);}
	.st30{fill:url(#XMLID_31_);}
	.st31{fill:url(#XMLID_32_);}
	.st32{fill:url(#XMLID_33_);}
	.st33{fill:url(#XMLID_34_);}
	.st34{fill:url(#XMLID_35_);}
	.st35{fill:url(#XMLID_36_);}
	.st36{fill:url(#XMLID_38_);}
	.st37{fill:url(#XMLID_39_);}
	.st38{opacity:0.5;clip-path:url(#SVGID_2_);fill:url(#XMLID_40_);}
	.st39{opacity:0.55;clip-path:url(#SVGID_2_);fill:url(#XMLID_41_);}
	.st40{opacity:0.6;clip-path:url(#SVGID_2_);fill:url(#XMLID_45_);}
	.st41{opacity:0.4;clip-path:url(#SVGID_2_);fill:url(#XMLID_46_);}
	.st42{opacity:0.6;clip-path:url(#SVGID_2_);fill:url(#XMLID_47_);}
	.st43{opacity:0.4;clip-path:url(#SVGID_2_);fill:url(#XMLID_48_);}
	.st44{opacity:0.55;clip-path:url(#SVGID_2_);fill:url(#XMLID_51_);}
	.st45{opacity:0.2;clip-path:url(#SVGID_2_);fill:url(#XMLID_52_);}
	.st46{opacity:0.4;clip-path:url(#SVGID_2_);fill:url(#XMLID_53_);}
	.st47{opacity:0.6;clip-path:url(#SVGID_2_);fill:url(#XMLID_54_);}
	.st48{opacity:0.4;clip-path:url(#SVGID_2_);fill:url(#XMLID_55_);}
	.st49{opacity:0.5;clip-path:url(#SVGID_2_);fill:url(#XMLID_56_);}
	.st50{opacity:0.55;clip-path:url(#SVGID_2_);fill:url(#XMLID_57_);}
	.st51{opacity:0.6;clip-path:url(#SVGID_2_);fill:url(#XMLID_58_);}
	.st52{opacity:0.2;clip-path:url(#SVGID_2_);fill:url(#XMLID_59_);}
	.st53{opacity:0.4;clip-path:url(#SVGID_2_);fill:url(#XMLID_60_);}
	.st54{opacity:0.6;clip-path:url(#SVGID_2_);fill:url(#XMLID_61_);}
	.st55{opacity:0.55;clip-path:url(#SVGID_2_);fill:url(#XMLID_62_);}
</style>
<g>
	<defs>
		<rect id="SVGID_1_" x="-188" y="-537.5" width="900" height="563"/>
	</defs>
	<clipPath id="SVGID_2_">
		<use xlink:href="#SVGID_1_"  style="overflow:visible;"/>
	</clipPath>
	<linearGradient id="SVGID_3_" gradientUnits="userSpaceOnUse" x1="-188" y1="-256" x2="712" y2="-256">
		<stop  offset="0" style="stop-color:#7F00FF"/>
		<stop  offset="0.2752" style="stop-color:#7C00FF"/>
		<stop  offset="0.4903" style="stop-color:#7200FF"/>
		<stop  offset="0.6852" style="stop-color:#6100FF"/>
		<stop  offset="0.867" style="stop-color:#4A00FF"/>
		<stop  offset="1" style="stop-color:#3400FF"/>
	</linearGradient>
	<rect x="-188" y="-537.5" class="st0" width="900" height="563"/>
	<path class="st1" d="M-114-93.1l-13.3-46.5c-2-7.1-0.1-14.8,5-20.1l33.6-34.8c5.1-5.3,12.7-7.5,19.9-5.7l46.9,11.8
		c7.2,1.8,12.8,7.3,14.9,14.4l13.3,46.5c2,7.1,0.1,14.8-5,20.1l-33.6,34.8c-5.1,5.3-12.7,7.5-19.9,5.7l-46.9-11.8
		C-106.3-80.5-112-86-114-93.1z"/>
	<path class="st1" d="M-44.7-293.1l-19.9-69.6c-3-10.6-0.2-22.1,7.5-30l50.4-52c7.7-8,19.1-11.2,29.8-8.5l70.3,17.6
		c10.7,2.7,19.2,10.9,22.3,21.5l19.9,69.6c3,10.6,0.2,22.1-7.5,30l-50.4,52c-7.7,8-19.1,11.2-29.8,8.5l-70.3-17.6
		C-33.1-274.2-41.6-282.4-44.7-293.1z"/>
	<path class="st1" d="M289.4-344.2l51.7-48.8c7.9-7.5,19.2-10.1,29.6-7l68.1,20.4c10.4,3.1,18.4,11.5,20.9,22.1l16.4,69.1
		c2.5,10.6-0.8,21.7-8.7,29.1l-51.7,48.8c-7.9,7.5-19.2,10.1-29.6,7L318-223.8c-10.4-3.1-18.4-11.5-20.9-22.1L280.7-315
		C278.2-325.6,281.5-336.7,289.4-344.2z"/>
	
		<linearGradient id="XMLID_2_" gradientUnits="userSpaceOnUse" x1="73.137" y1="-16846.4629" x2="165.5362" y2="-16846.4629" gradientTransform="matrix(1 0 0 -1 0 -16896)">
		<stop  offset="0" style="stop-color:#00ACE9"/>
		<stop  offset="1" style="stop-color:#007541"/>
	</linearGradient>
	<polyline id="XMLID_372_" class="st2" points="162.5,-108.8 162.5,-38.8 74.5,7.1 	"/>
	
		<linearGradient id="XMLID_3_" gradientUnits="userSpaceOnUse" x1="27.9335" y1="-16841.7539" x2="321.9779" y2="-16841.7539" gradientTransform="matrix(1 0 0 -1 0 -16896)">
		<stop  offset="0" style="stop-color:#00ACE9"/>
		<stop  offset="1" style="stop-color:#007541"/>
	</linearGradient>
	<polyline id="XMLID_65_" class="st3" points="30.9,-253.1 30.9,-16.8 320.5,142 	"/>
	<g id="XMLID_178_" class="st4">
		
			<linearGradient id="XMLID_4_" gradientUnits="userSpaceOnUse" x1="125.0104" y1="-16511.0449" x2="192.3983" y2="-16259.5508" gradientTransform="matrix(1 0 0 -1 0 -16896)">
			<stop  offset="0" style="stop-color:#4F3E90"/>
			<stop  offset="1" style="stop-color:#171A31"/>
		</linearGradient>
		<polygon id="XMLID_184_" class="st5" points="42.2,-443.2 42.2,-578.1 158.3,-645.6 275.2,-578.1 275.2,-443.3 159.1,-375.8 		"/>
		
			<linearGradient id="XMLID_5_" gradientUnits="userSpaceOnUse" x1="141.8705" y1="-16380.6826" x2="175.5381" y2="-16255.0332" gradientTransform="matrix(1 0 0 -1 0 -16896)">
			<stop  offset="0" style="stop-color:#4F3E90"/>
			<stop  offset="1" style="stop-color:#171A31"/>
		</linearGradient>
		<polygon id="XMLID_182_" class="st6" points="158.3,-645.6 275.2,-578.1 159.1,-510.7 42.2,-578.1 		"/>
		
			<linearGradient id="XMLID_6_" gradientUnits="userSpaceOnUse" x1="195.7314" y1="-16339.1387" x2="238.5383" y2="-16498.8945" gradientTransform="matrix(1 0 0 -1 0 -16896)">
			<stop  offset="0" style="stop-color:#4F3E90"/>
			<stop  offset="1" style="stop-color:#171A31"/>
		</linearGradient>
		<polygon id="XMLID_181_" class="st7" points="159.1,-375.8 159.1,-510.7 275.2,-578.1 275.2,-443.3 		"/>
	</g>
	
		<linearGradient id="XMLID_7_" gradientUnits="userSpaceOnUse" x1="465.9684" y1="-17388.125" x2="656.0234" y2="-16678.8301" gradientTransform="matrix(1 0 0 -1 0 -16896)">
		<stop  offset="0" style="stop-color:#4F3E90"/>
		<stop  offset="1" style="stop-color:#171A31"/>
	</linearGradient>
	<polygon id="XMLID_20_" class="st8" points="232.5,327.8 232.5,-52.6 559.9,-242.9 889.5,-52.7 889.5,327.7 562.1,517.9 	"/>
	
		<linearGradient id="XMLID_8_" gradientUnits="userSpaceOnUse" x1="513.5193" y1="-17020.459" x2="608.4727" y2="-16666.0879" gradientTransform="matrix(1 0 0 -1 0 -16896)">
		<stop  offset="0" style="stop-color:#4F3E90"/>
		<stop  offset="1" style="stop-color:#171A31"/>
	</linearGradient>
	<polygon id="XMLID_49_" class="st9" points="559.9,-242.9 889.5,-52.7 562.1,137.5 232.5,-52.6 	"/>
	
		<linearGradient id="XMLID_9_" gradientUnits="userSpaceOnUse" x1="665.4241" y1="-16903.291" x2="786.153" y2="-17353.8574" gradientTransform="matrix(1 0 0 -1 0 -16896)">
		<stop  offset="0" style="stop-color:#4F3E90"/>
		<stop  offset="1" style="stop-color:#171A31"/>
	</linearGradient>
	<polygon id="XMLID_50_" class="st10" points="562.1,517.9 562.1,137.5 889.5,-52.7 889.5,327.7 	"/>
	<g id="XMLID_171_" class="st4">
		
			<linearGradient id="XMLID_10_" gradientUnits="userSpaceOnUse" x1="-2.7569" y1="-16720.0391" x2="64.6309" y2="-16468.543" gradientTransform="matrix(1 0 0 -1 0 -16896)">
			<stop  offset="0" style="stop-color:#4F3E90"/>
			<stop  offset="1" style="stop-color:#171A31"/>
		</linearGradient>
		<polygon id="XMLID_175_" class="st11" points="-85.5,-234.2 -85.5,-369.1 30.5,-436.6 147.4,-369.2 147.4,-234.3 31.3,-166.8 		
			"/>
		
			<linearGradient id="XMLID_11_" gradientUnits="userSpaceOnUse" x1="14.1032" y1="-16589.6758" x2="47.7708" y2="-16464.0254" gradientTransform="matrix(1 0 0 -1 0 -16896)">
			<stop  offset="0" style="stop-color:#4F3E90"/>
			<stop  offset="1" style="stop-color:#171A31"/>
		</linearGradient>
		<polygon id="XMLID_173_" class="st12" points="30.5,-436.6 147.4,-369.2 31.3,-301.7 -85.5,-369.1 		"/>
		
			<linearGradient id="XMLID_12_" gradientUnits="userSpaceOnUse" x1="67.9641" y1="-16548.1309" x2="110.7709" y2="-16707.8887" gradientTransform="matrix(1 0 0 -1 0 -16896)">
			<stop  offset="0" style="stop-color:#4F3E90"/>
			<stop  offset="1" style="stop-color:#171A31"/>
		</linearGradient>
		<polygon id="XMLID_172_" class="st13" points="31.3,-166.8 31.3,-301.7 147.4,-369.2 147.4,-234.3 		"/>
	</g>
	<g id="XMLID_185_" class="st4">
		
			<linearGradient id="XMLID_13_" gradientUnits="userSpaceOnUse" x1="146.7424" y1="-16821.4375" x2="178.3333" y2="-16703.5391" gradientTransform="matrix(1 0 0 -1 0 -16896)">
			<stop  offset="0" style="stop-color:#4F3E90"/>
			<stop  offset="1" style="stop-color:#171A31"/>
		</linearGradient>
		<polygon id="XMLID_188_" class="st14" points="107.9,-101.9 107.9,-165.1 162.4,-196.7 217.1,-165.1 217.1,-101.9 162.7,-70.3 		
			"/>
		
			<linearGradient id="XMLID_14_" gradientUnits="userSpaceOnUse" x1="154.6463" y1="-16760.3242" x2="170.4294" y2="-16701.4219" gradientTransform="matrix(1 0 0 -1 0 -16896)">
			<stop  offset="0" style="stop-color:#4F3E90"/>
			<stop  offset="1" style="stop-color:#171A31"/>
		</linearGradient>
		<polygon id="XMLID_187_" class="st15" points="162.4,-196.7 217.1,-165.1 162.7,-133.5 107.9,-165.1 		"/>
		
			<linearGradient id="XMLID_15_" gradientUnits="userSpaceOnUse" x1="179.8958" y1="-16740.8496" x2="199.9633" y2="-16815.7422" gradientTransform="matrix(1 0 0 -1 0 -16896)">
			<stop  offset="0" style="stop-color:#4F3E90"/>
			<stop  offset="1" style="stop-color:#171A31"/>
		</linearGradient>
		<polygon id="XMLID_186_" class="st16" points="162.7,-70.3 162.7,-133.5 217.1,-165.1 217.1,-101.9 		"/>
	</g>
	<g id="XMLID_97_" class="st4">
		<defs>
			<polygon id="XMLID_98_" points="556.3,-180.3 750.4,-68.2 557.6,43.8 363.5,-68.2 			"/>
		</defs>
		<clipPath id="XMLID_16_">
			<use xlink:href="#XMLID_98_"  style="overflow:visible;"/>
		</clipPath>
		
			<linearGradient id="XMLID_17_" gradientUnits="userSpaceOnUse" x1="528.8961" y1="-16758.291" x2="585.0031" y2="-16967.6855" gradientTransform="matrix(1 0 0 -1 0 -16896)">
			<stop  offset="0" style="stop-color:#00ACE9"/>
			<stop  offset="1" style="stop-color:#007541"/>
		</linearGradient>
		<polygon id="XMLID_109_" class="st17" points="556.3,-145.1 750.4,-33 557.6,79 363.5,-33 		"/>
		
			<linearGradient id="XMLID_18_" gradientUnits="userSpaceOnUse" x1="528.8961" y1="-16792.8555" x2="585.0031" y2="-17002.248" gradientTransform="matrix(1 0 0 -1 0 -16896)">
			<stop  offset="0" style="stop-color:#00ACE9"/>
			<stop  offset="1" style="stop-color:#007541"/>
		</linearGradient>
		<polygon id="XMLID_108_" class="st18" points="556.3,-110.5 750.4,1.5 557.6,113.6 363.5,1.6 		"/>
		
			<linearGradient id="XMLID_19_" gradientUnits="userSpaceOnUse" x1="528.8961" y1="-16827.418" x2="585.0031" y2="-17036.8125" gradientTransform="matrix(1 0 0 -1 0 -16896)">
			<stop  offset="0" style="stop-color:#00ACE9"/>
			<stop  offset="1" style="stop-color:#007541"/>
		</linearGradient>
		<polygon id="XMLID_107_" class="st19" points="556.3,-75.9 750.4,36.1 557.6,148.1 363.5,36.2 		"/>
		
			<linearGradient id="XMLID_21_" gradientUnits="userSpaceOnUse" x1="528.8961" y1="-16861.9805" x2="585.0031" y2="-17071.375" gradientTransform="matrix(1 0 0 -1 0 -16896)">
			<stop  offset="0" style="stop-color:#00ACE9"/>
			<stop  offset="1" style="stop-color:#007541"/>
		</linearGradient>
		<polygon id="XMLID_105_" class="st20" points="556.3,-41.4 750.4,70.7 557.6,182.7 363.5,70.7 		"/>
		
			<linearGradient id="XMLID_22_" gradientUnits="userSpaceOnUse" x1="528.8961" y1="-16896.543" x2="585.0031" y2="-17105.9375" gradientTransform="matrix(1 0 0 -1 0 -16896)">
			<stop  offset="0" style="stop-color:#00ACE9"/>
			<stop  offset="1" style="stop-color:#007541"/>
		</linearGradient>
		<polygon id="XMLID_104_" class="st21" points="556.3,-6.8 750.4,105.2 557.6,217.3 363.5,105.3 		"/>
		
			<linearGradient id="XMLID_23_" gradientUnits="userSpaceOnUse" x1="528.8961" y1="-16931.1055" x2="585.0031" y2="-17140.5" gradientTransform="matrix(1 0 0 -1 0 -16896)">
			<stop  offset="0" style="stop-color:#00ACE9"/>
			<stop  offset="1" style="stop-color:#007541"/>
		</linearGradient>
		<polygon id="XMLID_103_" class="st22" points="556.3,27.8 750.4,139.8 557.6,251.8 363.5,139.8 		"/>
		
			<linearGradient id="XMLID_24_" gradientUnits="userSpaceOnUse" x1="528.8961" y1="-16965.6699" x2="585.0031" y2="-17175.0625" gradientTransform="matrix(1 0 0 -1 0 -16896)">
			<stop  offset="0" style="stop-color:#00ACE9"/>
			<stop  offset="1" style="stop-color:#007541"/>
		</linearGradient>
		<polygon id="XMLID_101_" class="st23" points="556.3,62.3 750.4,174.4 557.6,286.4 363.5,174.4 		"/>
		
			<linearGradient id="XMLID_25_" gradientUnits="userSpaceOnUse" x1="528.8961" y1="-17000.2324" x2="585.0031" y2="-17209.627" gradientTransform="matrix(1 0 0 -1 0 -16896)">
			<stop  offset="0" style="stop-color:#00ACE9"/>
			<stop  offset="1" style="stop-color:#007541"/>
		</linearGradient>
		<polygon id="XMLID_100_" class="st24" points="556.3,96.9 750.4,208.9 557.6,321 363.5,209 		"/>
	</g>
	
		<linearGradient id="XMLID_26_" gradientUnits="userSpaceOnUse" x1="486.2631" y1="-16920.7227" x2="627.6532" y2="-16393.0469" gradientTransform="matrix(1 0 0 -1 0 -16896)">
		<stop  offset="0" style="stop-color:#FFFFFF;stop-opacity:0"/>
		<stop  offset="1" style="stop-color:#FFFFFF;stop-opacity:0.3"/>
	</linearGradient>
	<polygon id="XMLID_96_" class="st25" points="556.4,-522 401,-431.7 401,-46.4 557.5,43.8 712.9,-46.5 712.9,-431.8 	"/>
	<g id="XMLID_572_" class="st4">
		
			<linearGradient id="XMLID_27_" gradientUnits="userSpaceOnUse" x1="186.3102" y1="-16759.6582" x2="196.4339" y2="-16797.4395" gradientTransform="matrix(1 0 0 -1 0 -16896)">
			<stop  offset="0" style="stop-color:#00ACE9"/>
			<stop  offset="1" style="stop-color:#007541"/>
		</linearGradient>
		<polygon id="XMLID_574_" class="st26" points="177.6,-93.5 177.6,-125.4 205.1,-141.4 205.1,-109.5 		"/>
		
			<linearGradient id="XMLID_28_" gradientUnits="userSpaceOnUse" x1="207.3566" y1="-16754.0176" x2="231.1669" y2="-16842.8789" gradientTransform="matrix(1 0 0 -1 0 -16896)">
			<stop  offset="0" style="stop-color:#FFFFFF;stop-opacity:0"/>
			<stop  offset="1" style="stop-color:#FFFFFF;stop-opacity:0.3"/>
		</linearGradient>
		<polygon id="XMLID_573_" class="st27" points="177.6,-93.5 217.6,-49.5 256.6,-72.1 256.6,-117.5 205.1,-141.4 177.6,-125.4 		"/>
	</g>
	<g id="XMLID_581_" class="st4">
		
			<linearGradient id="XMLID_29_" gradientUnits="userSpaceOnUse" x1="85.8699" y1="-16590.4512" x2="105.2079" y2="-16662.623" gradientTransform="matrix(1 0 0 -1 0 -16896)">
			<stop  offset="0" style="stop-color:#00ACE9"/>
			<stop  offset="1" style="stop-color:#007541"/>
		</linearGradient>
		<polygon id="XMLID_583_" class="st28" points="69.3,-223.8 69.3,-284.7 121.8,-315.2 121.8,-254.2 		"/>
		
			<linearGradient id="XMLID_30_" gradientUnits="userSpaceOnUse" x1="126.0718" y1="-16577.9609" x2="171.5533" y2="-16747.6992" gradientTransform="matrix(1 0 0 -1 0 -16896)">
			<stop  offset="0" style="stop-color:#FFFFFF;stop-opacity:0"/>
			<stop  offset="1" style="stop-color:#FFFFFF;stop-opacity:0.3"/>
		</linearGradient>
		<polygon id="XMLID_582_" class="st29" points="69.3,-225.5 145.7,-141.4 220.2,-184.6 220.2,-271.2 121.8,-316.9 69.3,-286.4 		
			"/>
	</g>
	<g id="XMLID_584_" class="st4">
		
			<linearGradient id="XMLID_31_" gradientUnits="userSpaceOnUse" x1="216.2876" y1="-16378.2188" x2="235.6256" y2="-16450.3887" gradientTransform="matrix(1 0 0 -1 0 -16896)">
			<stop  offset="0" style="stop-color:#00ACE9"/>
			<stop  offset="1" style="stop-color:#007541"/>
		</linearGradient>
		<polygon id="XMLID_586_" class="st30" points="199.7,-436 199.7,-496.9 252.2,-527.4 252.2,-466.5 		"/>
		
			<linearGradient id="XMLID_32_" gradientUnits="userSpaceOnUse" x1="256.4896" y1="-16365.7275" x2="301.971" y2="-16535.4668" gradientTransform="matrix(1 0 0 -1 0 -16896)">
			<stop  offset="0" style="stop-color:#FFFFFF;stop-opacity:0"/>
			<stop  offset="1" style="stop-color:#FFFFFF;stop-opacity:0.3"/>
		</linearGradient>
		<polygon id="XMLID_585_" class="st31" points="199.7,-437.7 276.1,-353.6 350.6,-396.9 350.6,-483.4 252.2,-529.1 199.7,-498.6 		
			"/>
	</g>
	<g id="XMLID_575_" class="st4">
		
			<linearGradient id="XMLID_33_" gradientUnits="userSpaceOnUse" x1="125.399" y1="-16752.7324" x2="139.4962" y2="-16805.3438" gradientTransform="matrix(1 0 0 -1 0 -16896)">
			<stop  offset="0" style="stop-color:#00ACE9"/>
			<stop  offset="1" style="stop-color:#007541"/>
		</linearGradient>
		<polygon id="XMLID_577_" class="st32" points="118.3,-141.4 146.6,-125.1 146.6,-92.5 118.3,-108.8 		"/>
		
			<linearGradient id="XMLID_34_" gradientUnits="userSpaceOnUse" x1="99.4645" y1="-16759.6816" x2="118.2859" y2="-16829.9238" gradientTransform="matrix(1 0 0 -1 0 -16896)">
			<stop  offset="0" style="stop-color:#FFFFFF;stop-opacity:0"/>
			<stop  offset="1" style="stop-color:#FFFFFF;stop-opacity:0.3"/>
		</linearGradient>
		<polygon id="XMLID_576_" class="st33" points="118.3,-141.4 69.3,-127.1 69.3,-84.3 106.4,-62.9 146.6,-92.5 146.6,-125.1 		"/>
	</g>
	<g id="XMLID_578_" class="st4">
		
			<linearGradient id="XMLID_35_" gradientUnits="userSpaceOnUse" x1="-46.6202" y1="-16577.1289" x2="-18.9719" y2="-16680.3125" gradientTransform="matrix(1 0 0 -1 0 -16896)">
			<stop  offset="0" style="stop-color:#00ACE9"/>
			<stop  offset="1" style="stop-color:#007541"/>
		</linearGradient>
		<polygon id="XMLID_580_" class="st34" points="-60.5,-315.2 -5.1,-283.3 -5.1,-219.4 -60.5,-251.3 		"/>
		
			<linearGradient id="XMLID_36_" gradientUnits="userSpaceOnUse" x1="-97.4845" y1="-16590.7578" x2="-60.5708" y2="-16728.5215" gradientTransform="matrix(1 0 0 -1 0 -16896)">
			<stop  offset="0" style="stop-color:#FFFFFF;stop-opacity:0"/>
			<stop  offset="1" style="stop-color:#FFFFFF;stop-opacity:0.3"/>
		</linearGradient>
		<polygon id="XMLID_579_" class="st35" points="-60.5,-315.2 -156.6,-287.2 -156.6,-203.2 -83.9,-161.2 -5.1,-219.4 -5.1,-283.3 		
			"/>
	</g>
	<g id="XMLID_587_" class="st4">
		
			<linearGradient id="XMLID_38_" gradientUnits="userSpaceOnUse" x1="84.1244" y1="-16364.8789" x2="111.889" y2="-16468.498" gradientTransform="matrix(1 0 0 -1 0 -16896)">
			<stop  offset="0" style="stop-color:#00ACE9"/>
			<stop  offset="1" style="stop-color:#007541"/>
		</linearGradient>
		<polygon id="XMLID_589_" class="st36" points="70.2,-527.4 125.8,-495.3 125.8,-431.2 70.2,-463.3 		"/>
		
			<linearGradient id="XMLID_39_" gradientUnits="userSpaceOnUse" x1="33.0463" y1="-16378.5654" x2="70.1152" y2="-16516.9082" gradientTransform="matrix(1 0 0 -1 0 -16896)">
			<stop  offset="0" style="stop-color:#FFFFFF;stop-opacity:0"/>
			<stop  offset="1" style="stop-color:#FFFFFF;stop-opacity:0.3"/>
		</linearGradient>
		<polygon id="XMLID_588_" class="st37" points="70.2,-527.4 -26.3,-499.3 -26.3,-415 46.7,-372.8 125.8,-431.2 125.8,-495.3 		"/>
	</g>
	
		<linearGradient id="XMLID_40_" gradientUnits="userSpaceOnUse" x1="589.4077" y1="-16877.5391" x2="593.7545" y2="-16877.5391" gradientTransform="matrix(1 0 0 -1 0 -16896)">
		<stop  offset="9.817236e-008" style="stop-color:#FFFFFF;stop-opacity:0.6"/>
		<stop  offset="1" style="stop-color:#FFFFFF"/>
	</linearGradient>
	<circle id="XMLID_304_" class="st38" cx="591.6" cy="-18.5" r="2.2"/>
	
		<linearGradient id="XMLID_41_" gradientUnits="userSpaceOnUse" x1="460.4142" y1="-16583.4258" x2="464.761" y2="-16583.4258" gradientTransform="matrix(1 0 0 -1 0 -16896)">
		<stop  offset="9.817236e-008" style="stop-color:#FFFFFF;stop-opacity:0.6"/>
		<stop  offset="1" style="stop-color:#FFFFFF"/>
	</linearGradient>
	<circle id="XMLID_302_" class="st39" cx="462.6" cy="-312.6" r="2.2"/>
	
		<linearGradient id="XMLID_45_" gradientUnits="userSpaceOnUse" x1="345.5358" y1="-16539.6387" x2="355.6545" y2="-16539.6387" gradientTransform="matrix(1 0 0 -1 0 -16896)">
		<stop  offset="9.817236e-008" style="stop-color:#FFFFFF;stop-opacity:0.6"/>
		<stop  offset="1" style="stop-color:#FFFFFF"/>
	</linearGradient>
	<circle id="XMLID_37_" class="st40" cx="350.6" cy="-356.4" r="5.1"/>
	
		<linearGradient id="XMLID_46_" gradientUnits="userSpaceOnUse" x1="682.2487" y1="-16498.7891" x2="686.3563" y2="-16498.7891" gradientTransform="matrix(1 0 0 -1 0 -16896)">
		<stop  offset="9.817236e-008" style="stop-color:#FFFFFF;stop-opacity:0.6"/>
		<stop  offset="1" style="stop-color:#FFFFFF"/>
	</linearGradient>
	<circle id="XMLID_43_" class="st41" cx="684.3" cy="-397.2" r="2.1"/>
	
		<linearGradient id="XMLID_47_" gradientUnits="userSpaceOnUse" x1="417.9706" y1="-16371.1113" x2="428.0893" y2="-16371.1113" gradientTransform="matrix(1 0 0 -1 0 -16896)">
		<stop  offset="9.817236e-008" style="stop-color:#FFFFFF;stop-opacity:0.6"/>
		<stop  offset="1" style="stop-color:#FFFFFF"/>
	</linearGradient>
	<circle id="XMLID_143_" class="st42" cx="423" cy="-524.9" r="5.1"/>
	
		<linearGradient id="XMLID_48_" gradientUnits="userSpaceOnUse" x1="318.4819" y1="-16699.2578" x2="322.5895" y2="-16699.2578" gradientTransform="matrix(1 0 0 -1 0 -16896)">
		<stop  offset="9.817236e-008" style="stop-color:#FFFFFF;stop-opacity:0.6"/>
		<stop  offset="1" style="stop-color:#FFFFFF"/>
	</linearGradient>
	<circle id="XMLID_142_" class="st43" cx="320.5" cy="-196.7" r="2.1"/>
	
		<linearGradient id="XMLID_51_" gradientUnits="userSpaceOnUse" x1="554.2158" y1="-16421.0195" x2="559.6911" y2="-16421.0195" gradientTransform="matrix(1 0 0 -1 0 -16896)">
		<stop  offset="9.817236e-008" style="stop-color:#FFFFFF;stop-opacity:0.6"/>
		<stop  offset="1" style="stop-color:#FFFFFF"/>
	</linearGradient>
	<circle id="XMLID_140_" class="st44" cx="557" cy="-475" r="2.7"/>
	
		<linearGradient id="XMLID_52_" gradientUnits="userSpaceOnUse" x1="200.668" y1="-16636.7813" x2="209.0927" y2="-16636.7813" gradientTransform="matrix(1 0 0 -1 0 -16896)">
		<stop  offset="9.817236e-008" style="stop-color:#FFFFFF;stop-opacity:0.6"/>
		<stop  offset="1" style="stop-color:#FFFFFF"/>
	</linearGradient>
	<circle id="XMLID_44_" class="st45" cx="204.9" cy="-259.2" r="4.2"/>
	
		<linearGradient id="XMLID_53_" gradientUnits="userSpaceOnUse" x1="-126.5336" y1="-16448.8457" x2="-121.4239" y2="-16448.8457" gradientTransform="matrix(1 0 0 -1 0 -16896)">
		<stop  offset="9.817236e-008" style="stop-color:#FFFFFF;stop-opacity:0.6"/>
		<stop  offset="1" style="stop-color:#FFFFFF"/>
	</linearGradient>
	<circle id="XMLID_42_" class="st46" cx="-124" cy="-447.2" r="2.6"/>
	
		<linearGradient id="XMLID_54_" gradientUnits="userSpaceOnUse" x1="569.9086" y1="-16762.4883" x2="580.0273" y2="-16762.4883" gradientTransform="matrix(1 0 0 -1 0 -16896)">
		<stop  offset="9.817236e-008" style="stop-color:#FFFFFF;stop-opacity:0.6"/>
		<stop  offset="1" style="stop-color:#FFFFFF"/>
	</linearGradient>
	<circle id="XMLID_73_" class="st47" cx="575" cy="-133.5" r="5.1"/>
	
		<linearGradient id="XMLID_55_" gradientUnits="userSpaceOnUse" x1="527.7305" y1="-16537.584" x2="531.8381" y2="-16537.584" gradientTransform="matrix(1 0 0 -1 0 -16896)">
		<stop  offset="9.817236e-008" style="stop-color:#FFFFFF;stop-opacity:0.6"/>
		<stop  offset="1" style="stop-color:#FFFFFF"/>
	</linearGradient>
	<circle id="XMLID_72_" class="st48" cx="529.8" cy="-358.4" r="2.1"/>
	
		<linearGradient id="XMLID_56_" gradientUnits="userSpaceOnUse" x1="505.1098" y1="-16845.1328" x2="510.5852" y2="-16845.1328" gradientTransform="matrix(1 0 0 -1 0 -16896)">
		<stop  offset="9.817236e-008" style="stop-color:#FFFFFF;stop-opacity:0.6"/>
		<stop  offset="1" style="stop-color:#FFFFFF"/>
	</linearGradient>
	<circle id="XMLID_71_" class="st49" cx="507.8" cy="-50.9" r="2.7"/>
	
		<linearGradient id="XMLID_57_" gradientUnits="userSpaceOnUse" x1="642.5356" y1="-16699.2578" x2="648.011" y2="-16699.2578" gradientTransform="matrix(1 0 0 -1 0 -16896)">
		<stop  offset="9.817236e-008" style="stop-color:#FFFFFF;stop-opacity:0.6"/>
		<stop  offset="1" style="stop-color:#FFFFFF"/>
	</linearGradient>
	<circle id="XMLID_70_" class="st50" cx="645.3" cy="-196.7" r="2.7"/>
	
		<linearGradient id="XMLID_58_" gradientUnits="userSpaceOnUse" x1="357.3132" y1="-16448.8457" x2="367.4319" y2="-16448.8457" gradientTransform="matrix(1 0 0 -1 0 -16896)">
		<stop  offset="9.817236e-008" style="stop-color:#FFFFFF;stop-opacity:0.6"/>
		<stop  offset="1" style="stop-color:#FFFFFF"/>
	</linearGradient>
	<circle id="XMLID_369_" class="st51" cx="362.4" cy="-447.2" r="5.1"/>
	
		<linearGradient id="XMLID_59_" gradientUnits="userSpaceOnUse" x1="170.7403" y1="-16467.5781" x2="179.1649" y2="-16467.5781" gradientTransform="matrix(1 0 0 -1 0 -16896)">
		<stop  offset="9.817236e-008" style="stop-color:#FFFFFF;stop-opacity:0.6"/>
		<stop  offset="1" style="stop-color:#FFFFFF"/>
	</linearGradient>
	<circle id="XMLID_361_" class="st52" cx="175" cy="-428.4" r="4.2"/>
	
		<linearGradient id="XMLID_60_" gradientUnits="userSpaceOnUse" x1="275.6326" y1="-16609.877" x2="280.7424" y2="-16609.877" gradientTransform="matrix(1 0 0 -1 0 -16896)">
		<stop  offset="9.817236e-008" style="stop-color:#FFFFFF;stop-opacity:0.6"/>
		<stop  offset="1" style="stop-color:#FFFFFF"/>
	</linearGradient>
	<circle id="XMLID_360_" class="st53" cx="278.2" cy="-286.1" r="2.6"/>
	
		<linearGradient id="XMLID_61_" gradientUnits="userSpaceOnUse" x1="464.6342" y1="-16614.9355" x2="474.7529" y2="-16614.9355" gradientTransform="matrix(1 0 0 -1 0 -16896)">
		<stop  offset="9.817236e-008" style="stop-color:#FFFFFF;stop-opacity:0.6"/>
		<stop  offset="1" style="stop-color:#FFFFFF"/>
	</linearGradient>
	<circle id="XMLID_359_" class="st54" cx="469.7" cy="-281.1" r="5.1"/>
	
		<linearGradient id="XMLID_62_" gradientUnits="userSpaceOnUse" x1="505.5905" y1="-16560.0488" x2="511.0658" y2="-16560.0488" gradientTransform="matrix(1 0 0 -1 0 -16896)">
		<stop  offset="9.817236e-008" style="stop-color:#FFFFFF;stop-opacity:0.6"/>
		<stop  offset="1" style="stop-color:#FFFFFF"/>
	</linearGradient>
	<circle id="XMLID_358_" class="st55" cx="508.3" cy="-336" r="2.7"/>
</g>
</svg>
