<svg version="1.1" id="Capa_1" xmlns="http://www.w3.org/2000/svg" x="0" y="0" viewBox="225 -56 900 563" style="enable-background:new 225 -56 900 563" xml:space="preserve"><style>.st2{fill:#fff}</style><linearGradient id="SVGID_1_" gradientUnits="userSpaceOnUse" x1="225" y1="226.5" x2="1125" y2="226.5" gradientTransform="matrix(1 0 0 -1 0 452)"><stop offset="0" style="stop-color:#7f00ff"/><stop offset=".275" style="stop-color:#7c00ff"/><stop offset=".49" style="stop-color:#7200ff"/><stop offset=".685" style="stop-color:#6100ff"/><stop offset=".867" style="stop-color:#4a00ff"/><stop offset="1" style="stop-color:#3400ff"/></linearGradient><path style="fill:url(#SVGID_1_)" d="M225-56h900v563H225z"/><g style="opacity:.94"><path class="st2" d="m634.7 182.6 23.9-5.1v20h17.6V218h-18v35.4s-.3 12.7 18 7.3v18.8s-10.3 6.8-30.8 0c0 0-9.4-7-10.8-19.2-1.2-12.2.1-77.7.1-77.7zM604.5 197.4h23.8v84.5h-23.8zM604.5 189.7l23.8-5.2v-19.4l-23.8 5.2zM749 182.6l23.9-5.1v20h17.6V218h-18v35.4s-.3 12.7 18 7.3v18.8s-10.3 6.8-30.8 0c0 0-9.4-7-10.8-19.2-1.2-12.2.1-77.7.1-77.7zM718.7 197.4h23.8v84.5h-23.8zM718.7 189.7l23.8-5.2v-19.4l-23.8 5.2zM593.1 211.6s-6.5-12.6-21.9-15.5c-15.4-2.9-22.6 7.1-22.6 7.1l-1.3.7v-38.7l-21.8 5.1V282h25v-5.3c9.5 6.5 19.7 5.9 19.7 5.9 16.5-3.4 20.4-11.9 20.4-11.9s5.7-5.3 8.8-24.4-6.3-34.7-6.3-34.7zm-25.2 47.8c-10.3 5.3-17.6-2.5-17.6-2.5v-35.3s2.9-5 12.5-4.7c9.5.3 13.2 15.8 13.2 15.8s2.1 21.3-8.1 26.7z"/><circle class="st2" cx="812.2" cy="273.6" r="12.3"/></g></svg>