<svg version="1.1" id="Capa_1" xmlns="http://www.w3.org/2000/svg" xmlns:xlink="http://www.w3.org/1999/xlink" x="0" y="0" viewBox="-188 -537.5 900 563" style="enable-background:new -188 -537.5 900 563" xml:space="preserve"><style>.st1{opacity:.3;fill:#7b20e5}.st1,.st4{clip-path:url(#SVGID_2_)}</style><defs><path id="SVGID_1_" d="M-188-537.5h900v563h-900z"/></defs><clipPath id="SVGID_2_"><use xlink:href="#SVGID_1_" style="overflow:visible"/></clipPath><linearGradient id="SVGID_3_" gradientUnits="userSpaceOnUse" x1="-188" y1="-256" x2="712" y2="-256"><stop offset="0" style="stop-color:#7f00ff"/><stop offset=".275" style="stop-color:#7c00ff"/><stop offset=".49" style="stop-color:#7200ff"/><stop offset=".685" style="stop-color:#6100ff"/><stop offset=".867" style="stop-color:#4a00ff"/><stop offset="1" style="stop-color:#3400ff"/></linearGradient><path style="clip-path:url(#SVGID_2_);fill:url(#SVGID_3_)" d="M-188-537.5h900v563h-900z"/><path class="st1" d="m-114-93.1-13.3-46.5c-2-7.1-.1-14.8 5-20.1l33.6-34.8c5.1-5.3 12.7-7.5 19.9-5.7l46.9 11.8c7.2 1.8 12.8 7.3 14.9 14.4l13.3 46.5c2 7.1.1 14.8-5 20.1l-33.6 34.8c-5.1 5.3-12.7 7.5-19.9 5.7l-46.9-11.8c-7.2-1.8-12.9-7.3-14.9-14.4zM-44.7-293.1l-19.9-69.6c-3-10.6-.2-22.1 7.5-30l50.4-52c7.7-8 19.1-11.2 29.8-8.5l70.3 17.6c10.7 2.7 19.2 10.9 22.3 21.5l19.9 69.6c3 10.6.2 22.1-7.5 30l-50.4 52c-7.7 8-19.1 11.2-29.8 8.5l-70.3-17.6c-10.7-2.6-19.2-10.8-22.3-21.5zM289.4-344.2l51.7-48.8c7.9-7.5 19.2-10.1 29.6-7l68.1 20.4c10.4 3.1 18.4 11.5 20.9 22.1l16.4 69.1c2.5 10.6-.8 21.7-8.7 29.1l-51.7 48.8c-7.9 7.5-19.2 10.1-29.6 7L318-223.8c-10.4-3.1-18.4-11.5-20.9-22.1L280.7-315c-2.5-10.6.8-21.7 8.7-29.2z"/><linearGradient id="XMLID_2_" gradientUnits="userSpaceOnUse" x1="73.137" y1="-16846.463" x2="165.536" y2="-16846.463" gradientTransform="matrix(1 0 0 -1 0 -16896)"><stop offset="0" style="stop-color:#00ace9"/><stop offset="1" style="stop-color:#007541"/></linearGradient><path id="XMLID_372_" style="clip-path:url(#SVGID_2_);fill:none;stroke:url(#XMLID_2_);stroke-width:6;stroke-miterlimit:10" d="M162.5-108.8v70l-88 45.9"/><linearGradient id="XMLID_3_" gradientUnits="userSpaceOnUse" x1="27.933" y1="-16841.754" x2="321.978" y2="-16841.754" gradientTransform="matrix(1 0 0 -1 0 -16896)"><stop offset="0" style="stop-color:#00ace9"/><stop offset="1" style="stop-color:#007541"/></linearGradient><path id="XMLID_65_" style="clip-path:url(#SVGID_2_);fill:none;stroke:url(#XMLID_3_);stroke-width:6;stroke-miterlimit:10" d="M30.9-253.1v236.3L320.5 142"/><g id="XMLID_178_" class="st4"><linearGradient id="XMLID_4_" gradientUnits="userSpaceOnUse" x1="125.01" y1="-16511.045" x2="192.398" y2="-16259.551" gradientTransform="matrix(1 0 0 -1 0 -16896)"><stop offset="0" style="stop-color:#4f3e90"/><stop offset="1" style="stop-color:#171a31"/></linearGradient><path id="XMLID_184_" style="fill:url(#XMLID_4_)" d="M42.2-443.2v-134.9l116.1-67.5 116.9 67.5v134.8l-116.1 67.5z"/><linearGradient id="XMLID_5_" gradientUnits="userSpaceOnUse" x1="141.87" y1="-16380.683" x2="175.538" y2="-16255.033" gradientTransform="matrix(1 0 0 -1 0 -16896)"><stop offset="0" style="stop-color:#4f3e90"/><stop offset="1" style="stop-color:#171a31"/></linearGradient><path id="XMLID_182_" style="fill:url(#XMLID_5_)" d="m158.3-645.6 116.9 67.5-116.1 67.4-116.9-67.4z"/><linearGradient id="XMLID_6_" gradientUnits="userSpaceOnUse" x1="195.731" y1="-16339.139" x2="238.538" y2="-16498.894" gradientTransform="matrix(1 0 0 -1 0 -16896)"><stop offset="0" style="stop-color:#4f3e90"/><stop offset="1" style="stop-color:#171a31"/></linearGradient><path id="XMLID_181_" style="fill:url(#XMLID_6_)" d="M159.1-375.8v-134.9l116.1-67.4v134.8z"/></g><linearGradient id="XMLID_7_" gradientUnits="userSpaceOnUse" x1="465.968" y1="-17388.125" x2="656.023" y2="-16678.83" gradientTransform="matrix(1 0 0 -1 0 -16896)"><stop offset="0" style="stop-color:#4f3e90"/><stop offset="1" style="stop-color:#171a31"/></linearGradient><path id="XMLID_20_" style="clip-path:url(#SVGID_2_);fill:url(#XMLID_7_)" d="M232.5 327.8V-52.6l327.4-190.3L889.5-52.7v380.4L562.1 517.9z"/><linearGradient id="XMLID_8_" gradientUnits="userSpaceOnUse" x1="513.519" y1="-17020.459" x2="608.473" y2="-16666.088" gradientTransform="matrix(1 0 0 -1 0 -16896)"><stop offset="0" style="stop-color:#4f3e90"/><stop offset="1" style="stop-color:#171a31"/></linearGradient><path id="XMLID_49_" style="clip-path:url(#SVGID_2_);fill:url(#XMLID_8_)" d="M559.9-242.9 889.5-52.7 562.1 137.5 232.5-52.6z"/><linearGradient id="XMLID_9_" gradientUnits="userSpaceOnUse" x1="665.424" y1="-16903.291" x2="786.153" y2="-17353.857" gradientTransform="matrix(1 0 0 -1 0 -16896)"><stop offset="0" style="stop-color:#4f3e90"/><stop offset="1" style="stop-color:#171a31"/></linearGradient><path id="XMLID_50_" style="clip-path:url(#SVGID_2_);fill:url(#XMLID_9_)" d="M562.1 517.9V137.5L889.5-52.7v380.4z"/><g id="XMLID_171_" class="st4"><linearGradient id="XMLID_10_" gradientUnits="userSpaceOnUse" x1="-2.757" y1="-16720.039" x2="64.631" y2="-16468.543" gradientTransform="matrix(1 0 0 -1 0 -16896)"><stop offset="0" style="stop-color:#4f3e90"/><stop offset="1" style="stop-color:#171a31"/></linearGradient><path id="XMLID_175_" style="fill:url(#XMLID_10_)" d="M-85.5-234.2v-134.9l116-67.5 116.9 67.4v134.9L31.3-166.8z"/><linearGradient id="XMLID_11_" gradientUnits="userSpaceOnUse" x1="14.103" y1="-16589.676" x2="47.771" y2="-16464.025" gradientTransform="matrix(1 0 0 -1 0 -16896)"><stop offset="0" style="stop-color:#4f3e90"/><stop offset="1" style="stop-color:#171a31"/></linearGradient><path id="XMLID_173_" style="fill:url(#XMLID_11_)" d="m30.5-436.6 116.9 67.4-116.1 67.5-116.8-67.4z"/><linearGradient id="XMLID_12_" gradientUnits="userSpaceOnUse" x1="67.964" y1="-16548.131" x2="110.771" y2="-16707.889" gradientTransform="matrix(1 0 0 -1 0 -16896)"><stop offset="0" style="stop-color:#4f3e90"/><stop offset="1" style="stop-color:#171a31"/></linearGradient><path id="XMLID_172_" style="fill:url(#XMLID_12_)" d="M31.3-166.8v-134.9l116.1-67.5v134.9z"/></g><g id="XMLID_185_" class="st4"><linearGradient id="XMLID_13_" gradientUnits="userSpaceOnUse" x1="146.742" y1="-16821.438" x2="178.333" y2="-16703.539" gradientTransform="matrix(1 0 0 -1 0 -16896)"><stop offset="0" style="stop-color:#4f3e90"/><stop offset="1" style="stop-color:#171a31"/></linearGradient><path id="XMLID_188_" style="fill:url(#XMLID_13_)" d="M107.9-101.9v-63.2l54.5-31.6 54.7 31.6v63.2l-54.4 31.6z"/><linearGradient id="XMLID_14_" gradientUnits="userSpaceOnUse" x1="154.646" y1="-16760.324" x2="170.429" y2="-16701.422" gradientTransform="matrix(1 0 0 -1 0 -16896)"><stop offset="0" style="stop-color:#4f3e90"/><stop offset="1" style="stop-color:#171a31"/></linearGradient><path id="XMLID_187_" style="fill:url(#XMLID_14_)" d="m162.4-196.7 54.7 31.6-54.4 31.6-54.8-31.6z"/><linearGradient id="XMLID_15_" gradientUnits="userSpaceOnUse" x1="179.896" y1="-16740.85" x2="199.963" y2="-16815.742" gradientTransform="matrix(1 0 0 -1 0 -16896)"><stop offset="0" style="stop-color:#4f3e90"/><stop offset="1" style="stop-color:#171a31"/></linearGradient><path id="XMLID_186_" style="fill:url(#XMLID_15_)" d="M162.7-70.3v-63.2l54.4-31.6v63.2z"/></g><g id="XMLID_97_" class="st4"><defs><path id="XMLID_98_" d="M556.3-180.3 750.4-68.2l-192.8 112-194.1-112z"/></defs><clipPath id="XMLID_16_"><use xlink:href="#XMLID_98_" style="overflow:visible"/></clipPath><linearGradient id="XMLID_17_" gradientUnits="userSpaceOnUse" x1="528.896" y1="-16758.291" x2="585.003" y2="-16967.685" gradientTransform="matrix(1 0 0 -1 0 -16896)"><stop offset="0" style="stop-color:#00ace9"/><stop offset="1" style="stop-color:#007541"/></linearGradient><path id="XMLID_109_" style="clip-path:url(#XMLID_16_);fill:url(#XMLID_17_)" d="M556.3-145.1 750.4-33 557.6 79 363.5-33z"/><linearGradient id="XMLID_18_" gradientUnits="userSpaceOnUse" x1="528.896" y1="-16792.856" x2="585.003" y2="-17002.248" gradientTransform="matrix(1 0 0 -1 0 -16896)"><stop offset="0" style="stop-color:#00ace9"/><stop offset="1" style="stop-color:#007541"/></linearGradient><path id="XMLID_108_" style="clip-path:url(#XMLID_16_);fill:url(#XMLID_18_)" d="m556.3-110.5 194.1 112-192.8 112.1-194.1-112z"/><linearGradient id="XMLID_19_" gradientUnits="userSpaceOnUse" x1="528.896" y1="-16827.418" x2="585.003" y2="-17036.813" gradientTransform="matrix(1 0 0 -1 0 -16896)"><stop offset="0" style="stop-color:#00ace9"/><stop offset="1" style="stop-color:#007541"/></linearGradient><path id="XMLID_107_" style="clip-path:url(#XMLID_16_);fill:url(#XMLID_19_)" d="m556.3-75.9 194.1 112-192.8 112L363.5 36.2z"/><linearGradient id="XMLID_21_" gradientUnits="userSpaceOnUse" x1="528.896" y1="-16861.981" x2="585.003" y2="-17071.375" gradientTransform="matrix(1 0 0 -1 0 -16896)"><stop offset="0" style="stop-color:#00ace9"/><stop offset="1" style="stop-color:#007541"/></linearGradient><path id="XMLID_105_" style="clip-path:url(#XMLID_16_);fill:url(#XMLID_21_)" d="M556.3-41.4 750.4 70.7l-192.8 112-194.1-112z"/><linearGradient id="XMLID_22_" gradientUnits="userSpaceOnUse" x1="528.896" y1="-16896.543" x2="585.003" y2="-17105.938" gradientTransform="matrix(1 0 0 -1 0 -16896)"><stop offset="0" style="stop-color:#00ace9"/><stop offset="1" style="stop-color:#007541"/></linearGradient><path id="XMLID_104_" style="clip-path:url(#XMLID_16_);fill:url(#XMLID_22_)" d="m556.3-6.8 194.1 112-192.8 112.1-194.1-112z"/><linearGradient id="XMLID_23_" gradientUnits="userSpaceOnUse" x1="528.896" y1="-16931.106" x2="585.003" y2="-17140.5" gradientTransform="matrix(1 0 0 -1 0 -16896)"><stop offset="0" style="stop-color:#00ace9"/><stop offset="1" style="stop-color:#007541"/></linearGradient><path id="XMLID_103_" style="clip-path:url(#XMLID_16_);fill:url(#XMLID_23_)" d="m556.3 27.8 194.1 112-192.8 112-194.1-112z"/><linearGradient id="XMLID_24_" gradientUnits="userSpaceOnUse" x1="528.896" y1="-16965.67" x2="585.003" y2="-17175.063" gradientTransform="matrix(1 0 0 -1 0 -16896)"><stop offset="0" style="stop-color:#00ace9"/><stop offset="1" style="stop-color:#007541"/></linearGradient><path id="XMLID_101_" style="clip-path:url(#XMLID_16_);fill:url(#XMLID_24_)" d="m556.3 62.3 194.1 112.1-192.8 112-194.1-112z"/><linearGradient id="XMLID_25_" gradientUnits="userSpaceOnUse" x1="528.896" y1="-17000.232" x2="585.003" y2="-17209.627" gradientTransform="matrix(1 0 0 -1 0 -16896)"><stop offset="0" style="stop-color:#00ace9"/><stop offset="1" style="stop-color:#007541"/></linearGradient><path id="XMLID_100_" style="clip-path:url(#XMLID_16_);fill:url(#XMLID_25_)" d="m556.3 96.9 194.1 112L557.6 321 363.5 209z"/></g><linearGradient id="XMLID_26_" gradientUnits="userSpaceOnUse" x1="486.263" y1="-16920.723" x2="627.653" y2="-16393.047" gradientTransform="matrix(1 0 0 -1 0 -16896)"><stop offset="0" style="stop-color:#fff;stop-opacity:0"/><stop offset="1" style="stop-color:#fff;stop-opacity:.3"/></linearGradient><path id="XMLID_96_" style="clip-path:url(#SVGID_2_);fill:url(#XMLID_26_)" d="M556.4-522 401-431.7v385.3l156.5 90.2 155.4-90.3v-385.3z"/><g id="XMLID_572_" class="st4"><linearGradient id="XMLID_27_" gradientUnits="userSpaceOnUse" x1="186.31" y1="-16759.658" x2="196.434" y2="-16797.44" gradientTransform="matrix(1 0 0 -1 0 -16896)"><stop offset="0" style="stop-color:#00ace9"/><stop offset="1" style="stop-color:#007541"/></linearGradient><path id="XMLID_574_" style="fill:url(#XMLID_27_)" d="M177.6-93.5v-31.9l27.5-16v31.9z"/><linearGradient id="XMLID_28_" gradientUnits="userSpaceOnUse" x1="207.357" y1="-16754.018" x2="231.167" y2="-16842.879" gradientTransform="matrix(1 0 0 -1 0 -16896)"><stop offset="0" style="stop-color:#fff;stop-opacity:0"/><stop offset="1" style="stop-color:#fff;stop-opacity:.3"/></linearGradient><path id="XMLID_573_" style="fill:url(#XMLID_28_)" d="m177.6-93.5 40 44 39-22.6v-45.4l-51.5-23.9-27.5 16z"/></g><g id="XMLID_581_" class="st4"><linearGradient id="XMLID_29_" gradientUnits="userSpaceOnUse" x1="85.87" y1="-16590.451" x2="105.208" y2="-16662.623" gradientTransform="matrix(1 0 0 -1 0 -16896)"><stop offset="0" style="stop-color:#00ace9"/><stop offset="1" style="stop-color:#007541"/></linearGradient><path id="XMLID_583_" style="fill:url(#XMLID_29_)" d="M69.3-223.8v-60.9l52.5-30.5v61z"/><linearGradient id="XMLID_30_" gradientUnits="userSpaceOnUse" x1="126.072" y1="-16577.961" x2="171.553" y2="-16747.699" gradientTransform="matrix(1 0 0 -1 0 -16896)"><stop offset="0" style="stop-color:#fff;stop-opacity:0"/><stop offset="1" style="stop-color:#fff;stop-opacity:.3"/></linearGradient><path id="XMLID_582_" style="fill:url(#XMLID_30_)" d="m69.3-225.5 76.4 84.1 74.5-43.2v-86.6l-98.4-45.7-52.5 30.5z"/></g><g id="XMLID_584_" class="st4"><linearGradient id="XMLID_31_" gradientUnits="userSpaceOnUse" x1="216.288" y1="-16378.219" x2="235.626" y2="-16450.389" gradientTransform="matrix(1 0 0 -1 0 -16896)"><stop offset="0" style="stop-color:#00ace9"/><stop offset="1" style="stop-color:#007541"/></linearGradient><path id="XMLID_586_" style="fill:url(#XMLID_31_)" d="M199.7-436v-60.9l52.5-30.5v60.9z"/><linearGradient id="XMLID_32_" gradientUnits="userSpaceOnUse" x1="256.49" y1="-16365.728" x2="301.971" y2="-16535.467" gradientTransform="matrix(1 0 0 -1 0 -16896)"><stop offset="0" style="stop-color:#fff;stop-opacity:0"/><stop offset="1" style="stop-color:#fff;stop-opacity:.3"/></linearGradient><path id="XMLID_585_" style="fill:url(#XMLID_32_)" d="m199.7-437.7 76.4 84.1 74.5-43.3v-86.5l-98.4-45.7-52.5 30.5z"/></g><g id="XMLID_575_" class="st4"><linearGradient id="XMLID_33_" gradientUnits="userSpaceOnUse" x1="125.399" y1="-16752.732" x2="139.496" y2="-16805.344" gradientTransform="matrix(1 0 0 -1 0 -16896)"><stop offset="0" style="stop-color:#00ace9"/><stop offset="1" style="stop-color:#007541"/></linearGradient><path id="XMLID_577_" style="fill:url(#XMLID_33_)" d="m118.3-141.4 28.3 16.3v32.6l-28.3-16.3z"/><linearGradient id="XMLID_34_" gradientUnits="userSpaceOnUse" x1="99.465" y1="-16759.682" x2="118.286" y2="-16829.924" gradientTransform="matrix(1 0 0 -1 0 -16896)"><stop offset="0" style="stop-color:#fff;stop-opacity:0"/><stop offset="1" style="stop-color:#fff;stop-opacity:.3"/></linearGradient><path id="XMLID_576_" style="fill:url(#XMLID_34_)" d="m118.3-141.4-49 14.3v42.8l37.1 21.4 40.2-29.6v-32.6z"/></g><g id="XMLID_578_" class="st4"><linearGradient id="XMLID_35_" gradientUnits="userSpaceOnUse" x1="-46.62" y1="-16577.129" x2="-18.972" y2="-16680.313" gradientTransform="matrix(1 0 0 -1 0 -16896)"><stop offset="0" style="stop-color:#00ace9"/><stop offset="1" style="stop-color:#007541"/></linearGradient><path id="XMLID_580_" style="fill:url(#XMLID_35_)" d="m-60.5-315.2 55.4 31.9v63.9l-55.4-31.9z"/><linearGradient id="XMLID_36_" gradientUnits="userSpaceOnUse" x1="-97.484" y1="-16590.758" x2="-60.571" y2="-16728.521" gradientTransform="matrix(1 0 0 -1 0 -16896)"><stop offset="0" style="stop-color:#fff;stop-opacity:0"/><stop offset="1" style="stop-color:#fff;stop-opacity:.3"/></linearGradient><path id="XMLID_579_" style="fill:url(#XMLID_36_)" d="m-60.5-315.2-96.1 28v84l72.7 42 78.8-58.2v-63.9z"/></g><g id="XMLID_587_" class="st4"><linearGradient id="XMLID_38_" gradientUnits="userSpaceOnUse" x1="84.124" y1="-16364.879" x2="111.889" y2="-16468.498" gradientTransform="matrix(1 0 0 -1 0 -16896)"><stop offset="0" style="stop-color:#00ace9"/><stop offset="1" style="stop-color:#007541"/></linearGradient><path id="XMLID_589_" style="fill:url(#XMLID_38_)" d="m70.2-527.4 55.6 32.1v64.1l-55.6-32.1z"/><linearGradient id="XMLID_39_" gradientUnits="userSpaceOnUse" x1="33.046" y1="-16378.565" x2="70.115" y2="-16516.908" gradientTransform="matrix(1 0 0 -1 0 -16896)"><stop offset="0" style="stop-color:#fff;stop-opacity:0"/><stop offset="1" style="stop-color:#fff;stop-opacity:.3"/></linearGradient><path id="XMLID_588_" style="fill:url(#XMLID_39_)" d="m70.2-527.4-96.5 28.1v84.3l73 42.2 79.1-58.4v-64.1z"/></g><linearGradient id="XMLID_40_" gradientUnits="userSpaceOnUse" x1="589.408" y1="-16877.539" x2="593.755" y2="-16877.539" gradientTransform="matrix(1 0 0 -1 0 -16896)"><stop offset="0" style="stop-color:#fff;stop-opacity:.6"/><stop offset="1" style="stop-color:#fff"/></linearGradient><circle id="XMLID_304_" cx="591.6" cy="-18.5" r="2.2" style="opacity:.5;clip-path:url(#SVGID_2_);fill:url(#XMLID_40_)"/><linearGradient id="XMLID_41_" gradientUnits="userSpaceOnUse" x1="460.414" y1="-16583.426" x2="464.761" y2="-16583.426" gradientTransform="matrix(1 0 0 -1 0 -16896)"><stop offset="0" style="stop-color:#fff;stop-opacity:.6"/><stop offset="1" style="stop-color:#fff"/></linearGradient><circle id="XMLID_302_" cx="462.6" cy="-312.6" r="2.2" style="opacity:.55;clip-path:url(#SVGID_2_);fill:url(#XMLID_41_)"/><linearGradient id="XMLID_45_" gradientUnits="userSpaceOnUse" x1="345.536" y1="-16539.639" x2="355.654" y2="-16539.639" gradientTransform="matrix(1 0 0 -1 0 -16896)"><stop offset="0" style="stop-color:#fff;stop-opacity:.6"/><stop offset="1" style="stop-color:#fff"/></linearGradient><circle id="XMLID_37_" cx="350.6" cy="-356.4" r="5.1" style="opacity:.6;clip-path:url(#SVGID_2_);fill:url(#XMLID_45_)"/><linearGradient id="XMLID_46_" gradientUnits="userSpaceOnUse" x1="682.249" y1="-16498.789" x2="686.356" y2="-16498.789" gradientTransform="matrix(1 0 0 -1 0 -16896)"><stop offset="0" style="stop-color:#fff;stop-opacity:.6"/><stop offset="1" style="stop-color:#fff"/></linearGradient><circle id="XMLID_43_" cx="684.3" cy="-397.2" r="2.1" style="opacity:.4;clip-path:url(#SVGID_2_);fill:url(#XMLID_46_)"/><linearGradient id="XMLID_47_" gradientUnits="userSpaceOnUse" x1="417.971" y1="-16371.111" x2="428.089" y2="-16371.111" gradientTransform="matrix(1 0 0 -1 0 -16896)"><stop offset="0" style="stop-color:#fff;stop-opacity:.6"/><stop offset="1" style="stop-color:#fff"/></linearGradient><circle id="XMLID_143_" cx="423" cy="-524.9" r="5.1" style="opacity:.6;clip-path:url(#SVGID_2_);fill:url(#XMLID_47_)"/><linearGradient id="XMLID_48_" gradientUnits="userSpaceOnUse" x1="318.482" y1="-16699.258" x2="322.589" y2="-16699.258" gradientTransform="matrix(1 0 0 -1 0 -16896)"><stop offset="0" style="stop-color:#fff;stop-opacity:.6"/><stop offset="1" style="stop-color:#fff"/></linearGradient><circle id="XMLID_142_" cx="320.5" cy="-196.7" r="2.1" style="opacity:.4;clip-path:url(#SVGID_2_);fill:url(#XMLID_48_)"/><linearGradient id="XMLID_51_" gradientUnits="userSpaceOnUse" x1="554.216" y1="-16421.019" x2="559.691" y2="-16421.019" gradientTransform="matrix(1 0 0 -1 0 -16896)"><stop offset="0" style="stop-color:#fff;stop-opacity:.6"/><stop offset="1" style="stop-color:#fff"/></linearGradient><circle id="XMLID_140_" cx="557" cy="-475" r="2.7" style="opacity:.55;clip-path:url(#SVGID_2_);fill:url(#XMLID_51_)"/><linearGradient id="XMLID_52_" gradientUnits="userSpaceOnUse" x1="200.668" y1="-16636.781" x2="209.093" y2="-16636.781" gradientTransform="matrix(1 0 0 -1 0 -16896)"><stop offset="0" style="stop-color:#fff;stop-opacity:.6"/><stop offset="1" style="stop-color:#fff"/></linearGradient><circle id="XMLID_44_" cx="204.9" cy="-259.2" r="4.2" style="opacity:.2;clip-path:url(#SVGID_2_);fill:url(#XMLID_52_)"/><linearGradient id="XMLID_53_" gradientUnits="userSpaceOnUse" x1="-126.534" y1="-16448.846" x2="-121.424" y2="-16448.846" gradientTransform="matrix(1 0 0 -1 0 -16896)"><stop offset="0" style="stop-color:#fff;stop-opacity:.6"/><stop offset="1" style="stop-color:#fff"/></linearGradient><circle id="XMLID_42_" cx="-124" cy="-447.2" r="2.6" style="opacity:.4;clip-path:url(#SVGID_2_);fill:url(#XMLID_53_)"/><linearGradient id="XMLID_54_" gradientUnits="userSpaceOnUse" x1="569.909" y1="-16762.488" x2="580.027" y2="-16762.488" gradientTransform="matrix(1 0 0 -1 0 -16896)"><stop offset="0" style="stop-color:#fff;stop-opacity:.6"/><stop offset="1" style="stop-color:#fff"/></linearGradient><circle id="XMLID_73_" cx="575" cy="-133.5" r="5.1" style="opacity:.6;clip-path:url(#SVGID_2_);fill:url(#XMLID_54_)"/><linearGradient id="XMLID_55_" gradientUnits="userSpaceOnUse" x1="527.731" y1="-16537.584" x2="531.838" y2="-16537.584" gradientTransform="matrix(1 0 0 -1 0 -16896)"><stop offset="0" style="stop-color:#fff;stop-opacity:.6"/><stop offset="1" style="stop-color:#fff"/></linearGradient><circle id="XMLID_72_" cx="529.8" cy="-358.4" r="2.1" style="opacity:.4;clip-path:url(#SVGID_2_);fill:url(#XMLID_55_)"/><linearGradient id="XMLID_56_" gradientUnits="userSpaceOnUse" x1="505.11" y1="-16845.133" x2="510.585" y2="-16845.133" gradientTransform="matrix(1 0 0 -1 0 -16896)"><stop offset="0" style="stop-color:#fff;stop-opacity:.6"/><stop offset="1" style="stop-color:#fff"/></linearGradient><circle id="XMLID_71_" cx="507.8" cy="-50.9" r="2.7" style="opacity:.5;clip-path:url(#SVGID_2_);fill:url(#XMLID_56_)"/><linearGradient id="XMLID_57_" gradientUnits="userSpaceOnUse" x1="642.536" y1="-16699.258" x2="648.011" y2="-16699.258" gradientTransform="matrix(1 0 0 -1 0 -16896)"><stop offset="0" style="stop-color:#fff;stop-opacity:.6"/><stop offset="1" style="stop-color:#fff"/></linearGradient><circle id="XMLID_70_" cx="645.3" cy="-196.7" r="2.7" style="opacity:.55;clip-path:url(#SVGID_2_);fill:url(#XMLID_57_)"/><linearGradient id="XMLID_58_" gradientUnits="userSpaceOnUse" x1="357.313" y1="-16448.846" x2="367.432" y2="-16448.846" gradientTransform="matrix(1 0 0 -1 0 -16896)"><stop offset="0" style="stop-color:#fff;stop-opacity:.6"/><stop offset="1" style="stop-color:#fff"/></linearGradient><circle id="XMLID_369_" cx="362.4" cy="-447.2" r="5.1" style="opacity:.6;clip-path:url(#SVGID_2_);fill:url(#XMLID_58_)"/><linearGradient id="XMLID_59_" gradientUnits="userSpaceOnUse" x1="170.74" y1="-16467.578" x2="179.165" y2="-16467.578" gradientTransform="matrix(1 0 0 -1 0 -16896)"><stop offset="0" style="stop-color:#fff;stop-opacity:.6"/><stop offset="1" style="stop-color:#fff"/></linearGradient><circle id="XMLID_361_" cx="175" cy="-428.4" r="4.2" style="opacity:.2;clip-path:url(#SVGID_2_);fill:url(#XMLID_59_)"/><linearGradient id="XMLID_60_" gradientUnits="userSpaceOnUse" x1="275.633" y1="-16609.877" x2="280.742" y2="-16609.877" gradientTransform="matrix(1 0 0 -1 0 -16896)"><stop offset="0" style="stop-color:#fff;stop-opacity:.6"/><stop offset="1" style="stop-color:#fff"/></linearGradient><circle id="XMLID_360_" cx="278.2" cy="-286.1" r="2.6" style="opacity:.4;clip-path:url(#SVGID_2_);fill:url(#XMLID_60_)"/><linearGradient id="XMLID_61_" gradientUnits="userSpaceOnUse" x1="464.634" y1="-16614.935" x2="474.753" y2="-16614.935" gradientTransform="matrix(1 0 0 -1 0 -16896)"><stop offset="0" style="stop-color:#fff;stop-opacity:.6"/><stop offset="1" style="stop-color:#fff"/></linearGradient><circle id="XMLID_359_" cx="469.7" cy="-281.1" r="5.1" style="opacity:.6;clip-path:url(#SVGID_2_);fill:url(#XMLID_61_)"/><linearGradient id="XMLID_62_" gradientUnits="userSpaceOnUse" x1="505.591" y1="-16560.049" x2="511.066" y2="-16560.049" gradientTransform="matrix(1 0 0 -1 0 -16896)"><stop offset="0" style="stop-color:#fff;stop-opacity:.6"/><stop offset="1" style="stop-color:#fff"/></linearGradient><circle id="XMLID_358_" cx="508.3" cy="-336" r="2.7" style="opacity:.55;clip-path:url(#SVGID_2_);fill:url(#XMLID_62_)"/></svg>