<svg version="1.1" id="Capa_1" xmlns="http://www.w3.org/2000/svg" xmlns:xlink="http://www.w3.org/1999/xlink" x="0" y="0" viewBox="-188 -537.5 900 563" style="enable-background:new -188 -537.5 900 563" xml:space="preserve"><style>.st1{opacity:.2;fill:#1d1b30}.st2{opacity:.3;fill:#7b20e5}</style><linearGradient id="SVGID_1_" gradientUnits="userSpaceOnUse" x1="-188" y1="-256" x2="712" y2="-256"><stop offset="0" style="stop-color:#7f00ff"/><stop offset=".275" style="stop-color:#7c00ff"/><stop offset=".49" style="stop-color:#7200ff"/><stop offset=".685" style="stop-color:#6100ff"/><stop offset=".867" style="stop-color:#4a00ff"/><stop offset="1" style="stop-color:#3400ff"/></linearGradient><path style="fill:url(#SVGID_1_)" d="M-188-537.5h900v563h-900z"/><path id="XMLID_2_" class="st1" d="M366.5-187.7 524-89.1 367.6 9.6 210.1-89z"/><path class="st2" d="m-42.4-93.1-13.3-46.5c-2-7.1-.1-14.8 5-20.1l33.6-34.8c5.1-5.3 12.7-7.5 19.9-5.7l46.9 11.8c7.2 1.8 12.8 7.3 14.9 14.4l13.3 46.5c2 7.1.1 14.8-5 20.1L39.3-72.6c-5.1 5.3-12.7 7.5-19.9 5.7l-46.9-11.8c-7.2-1.8-12.9-7.3-14.9-14.4zM399.5-334.6l-19.9-69.6c-3-10.6-.2-22.1 7.5-30l50.4-52c7.7-8 19.1-11.2 29.8-8.5l70.3 17.6c10.7 2.7 19.2 10.9 22.3 21.5l19.9 69.6c3 10.6.2 22.1-7.5 30l-50.4 52c-7.7 8-19.1 11.2-29.8 8.5l-70.3-17.6c-10.8-2.7-19.3-10.9-22.3-21.5z"/><path class="st2" d="m289.4-344.2 51.7-48.8c7.9-7.5 19.2-10.1 29.6-7l68.1 20.4c10.4 3.1 18.4 11.5 20.9 22.1l16.4 69.1c2.5 10.6-.8 21.7-8.7 29.1l-51.7 48.8c-7.9 7.5-19.2 10.1-29.6 7L318-223.8c-10.4-3.1-18.4-11.5-20.9-22.1L280.7-315c-2.5-10.6.8-21.7 8.7-29.2z"/><linearGradient id="XMLID_38_" gradientUnits="userSpaceOnUse" x1="316.202" y1="-16805.43" x2="425.666" y2="-16396.902" gradientTransform="matrix(1 0 0 -1 0 -16896)"><stop offset="0" style="stop-color:#4f3e90"/><stop offset="1" style="stop-color:#171a31"/></linearGradient><path id="XMLID_20_" style="fill:url(#XMLID_38_)" d="M181.7-185.2v-219.1l188.6-109.6 189.8 109.5v219.1L371.6-75.7z"/><linearGradient id="XMLID_39_" gradientUnits="userSpaceOnUse" x1="343.589" y1="-16593.668" x2="398.279" y2="-16389.565" gradientTransform="matrix(1 0 0 -1 0 -16896)"><stop offset="0" style="stop-color:#4f3e90"/><stop offset="1" style="stop-color:#171a31"/></linearGradient><path id="XMLID_49_" style="fill:url(#XMLID_39_)" d="m370.3-513.9 189.8 109.5-188.5 109.6-189.9-109.5z"/><linearGradient id="XMLID_40_" gradientUnits="userSpaceOnUse" x1="431.081" y1="-16526.184" x2="500.616" y2="-16785.693" gradientTransform="matrix(1 0 0 -1 0 -16896)"><stop offset="0" style="stop-color:#4f3e90"/><stop offset="1" style="stop-color:#171a31"/></linearGradient><path id="XMLID_50_" style="fill:url(#XMLID_40_)" d="M371.6-75.7v-219.1l188.5-109.6v219.1z"/><g id="XMLID_97_"><defs><path id="XMLID_98_" d="M368.2-477.8 480-413.3l-111 64.5-111.8-64.5z"/></defs><clipPath id="XMLID_41_"><use xlink:href="#XMLID_98_" style="overflow:visible"/></clipPath><linearGradient id="XMLID_46_" gradientUnits="userSpaceOnUse" x1="352.446" y1="-16442.67" x2="384.761" y2="-16563.273" gradientTransform="matrix(1 0 0 -1 0 -16896)"><stop offset="0" style="stop-color:#00ace9"/><stop offset="1" style="stop-color:#007541"/></linearGradient><path id="XMLID_109_" style="clip-path:url(#XMLID_41_);fill:url(#XMLID_46_)" d="M368.2-457.6 480-393l-111 64.5L257.2-393z"/><linearGradient id="XMLID_47_" gradientUnits="userSpaceOnUse" x1="352.446" y1="-16462.576" x2="384.761" y2="-16583.18" gradientTransform="matrix(1 0 0 -1 0 -16896)"><stop offset="0" style="stop-color:#00ace9"/><stop offset="1" style="stop-color:#007541"/></linearGradient><path id="XMLID_108_" style="clip-path:url(#XMLID_41_);fill:url(#XMLID_47_)" d="M368.2-437.7 480-373.1l-111 64.5-111.8-64.5z"/><linearGradient id="XMLID_48_" gradientUnits="userSpaceOnUse" x1="352.446" y1="-16482.484" x2="384.761" y2="-16603.088" gradientTransform="matrix(1 0 0 -1 0 -16896)"><stop offset="0" style="stop-color:#00ace9"/><stop offset="1" style="stop-color:#007541"/></linearGradient><path id="XMLID_107_" style="clip-path:url(#XMLID_41_);fill:url(#XMLID_48_)" d="M368.2-417.7 480-353.2l-111 64.5-111.8-64.5z"/><linearGradient id="XMLID_51_" gradientUnits="userSpaceOnUse" x1="352.446" y1="-16502.391" x2="384.761" y2="-16622.994" gradientTransform="matrix(1 0 0 -1 0 -16896)"><stop offset="0" style="stop-color:#00ace9"/><stop offset="1" style="stop-color:#007541"/></linearGradient><path id="XMLID_105_" style="clip-path:url(#XMLID_41_);fill:url(#XMLID_51_)" d="M368.2-397.8 480-333.3l-111 64.5-111.8-64.5z"/><linearGradient id="XMLID_52_" gradientUnits="userSpaceOnUse" x1="352.446" y1="-16522.297" x2="384.761" y2="-16642.9" gradientTransform="matrix(1 0 0 -1 0 -16896)"><stop offset="0" style="stop-color:#00ace9"/><stop offset="1" style="stop-color:#007541"/></linearGradient><path id="XMLID_104_" style="clip-path:url(#XMLID_41_);fill:url(#XMLID_52_)" d="M368.2-377.9 480-313.4l-111 64.5-111.8-64.5z"/><linearGradient id="XMLID_53_" gradientUnits="userSpaceOnUse" x1="352.446" y1="-16542.205" x2="384.761" y2="-16662.809" gradientTransform="matrix(1 0 0 -1 0 -16896)"><stop offset="0" style="stop-color:#00ace9"/><stop offset="1" style="stop-color:#007541"/></linearGradient><path id="XMLID_103_" style="clip-path:url(#XMLID_41_);fill:url(#XMLID_53_)" d="M368.2-358 480-293.5 369-229l-111.8-64.5z"/><linearGradient id="XMLID_54_" gradientUnits="userSpaceOnUse" x1="352.446" y1="-16562.111" x2="384.761" y2="-16682.715" gradientTransform="matrix(1 0 0 -1 0 -16896)"><stop offset="0" style="stop-color:#00ace9"/><stop offset="1" style="stop-color:#007541"/></linearGradient><path id="XMLID_101_" style="clip-path:url(#XMLID_41_);fill:url(#XMLID_54_)" d="M368.2-338.1 480-273.6l-111 64.5-111.8-64.5z"/><linearGradient id="XMLID_55_" gradientUnits="userSpaceOnUse" x1="352.446" y1="-16582.018" x2="384.761" y2="-16702.621" gradientTransform="matrix(1 0 0 -1 0 -16896)"><stop offset="0" style="stop-color:#00ace9"/><stop offset="1" style="stop-color:#007541"/></linearGradient><path id="XMLID_100_" style="clip-path:url(#XMLID_41_);fill:url(#XMLID_55_)" d="M368.2-318.2 480-253.7l-111 64.5-111.8-64.5z"/></g><linearGradient id="XMLID_56_" gradientUnits="userSpaceOnUse" x1="327.891" y1="-16536.225" x2="409.326" y2="-16232.303" gradientTransform="matrix(1 0 0 -1 0 -16896)"><stop offset="0" style="stop-color:#fff;stop-opacity:0"/><stop offset="1" style="stop-color:#fff;stop-opacity:.3"/></linearGradient><path id="XMLID_96_" style="opacity:.3;fill:url(#XMLID_56_)" d="m368.3-674.7-89.5 52v221.9l90.1 52 89.5-52v-221.9z"/><linearGradient id="XMLID_57_" gradientUnits="userSpaceOnUse" x1="387.298" y1="-16511.352" x2="389.802" y2="-16511.352" gradientTransform="matrix(1 0 0 -1 0 -16896)"><stop offset="0" style="stop-color:#fff;stop-opacity:.6"/><stop offset="1" style="stop-color:#fff"/></linearGradient><circle id="XMLID_304_" cx="388.6" cy="-384.6" r="1.3" style="opacity:.5;fill:url(#XMLID_57_)"/><linearGradient id="XMLID_58_" gradientUnits="userSpaceOnUse" x1="133.965" y1="-16514.631" x2="136.469" y2="-16514.631" gradientTransform="matrix(1 0 0 -1 0 -16896)"><stop offset="0" style="stop-color:#fff;stop-opacity:.6"/><stop offset="1" style="stop-color:#fff"/></linearGradient><circle id="XMLID_302_" cx="135.2" cy="-381.4" r="1.3" style="opacity:.55;fill:url(#XMLID_58_)"/><linearGradient id="XMLID_59_" gradientUnits="userSpaceOnUse" x1="67.799" y1="-16489.412" x2="73.627" y2="-16489.412" gradientTransform="matrix(1 0 0 -1 0 -16896)"><stop offset="0" style="stop-color:#fff;stop-opacity:.6"/><stop offset="1" style="stop-color:#fff"/></linearGradient><circle id="XMLID_37_" cx="70.7" cy="-406.6" r="2.9" style="opacity:.6;fill:url(#XMLID_59_)"/><linearGradient id="XMLID_60_" gradientUnits="userSpaceOnUse" x1="682.249" y1="-16498.789" x2="686.356" y2="-16498.789" gradientTransform="matrix(1 0 0 -1 0 -16896)"><stop offset="0" style="stop-color:#fff;stop-opacity:.6"/><stop offset="1" style="stop-color:#fff"/></linearGradient><circle id="XMLID_43_" cx="684.3" cy="-397.2" r="2.1" style="opacity:.4;fill:url(#XMLID_60_)"/><linearGradient id="XMLID_61_" gradientUnits="userSpaceOnUse" x1="109.519" y1="-16392.346" x2="115.347" y2="-16392.346" gradientTransform="matrix(1 0 0 -1 0 -16896)"><stop offset="0" style="stop-color:#fff;stop-opacity:.6"/><stop offset="1" style="stop-color:#fff"/></linearGradient><circle id="XMLID_143_" cx="112.4" cy="-503.7" r="2.9" style="opacity:.6;fill:url(#XMLID_61_)"/><linearGradient id="XMLID_62_" gradientUnits="userSpaceOnUse" x1="231.255" y1="-16408.668" x2="233.621" y2="-16408.668" gradientTransform="matrix(1 0 0 -1 0 -16896)"><stop offset="0" style="stop-color:#fff;stop-opacity:.6"/><stop offset="1" style="stop-color:#fff"/></linearGradient><circle id="XMLID_142_" cx="232.4" cy="-487.3" r="1.2" style="opacity:.4;fill:url(#XMLID_62_)"/><linearGradient id="XMLID_63_" gradientUnits="userSpaceOnUse" x1="187.991" y1="-16421.092" x2="191.145" y2="-16421.092" gradientTransform="matrix(1 0 0 -1 0 -16896)"><stop offset="0" style="stop-color:#fff;stop-opacity:.6"/><stop offset="1" style="stop-color:#fff"/></linearGradient><circle id="XMLID_140_" cx="189.6" cy="-474.9" r="1.6" style="opacity:.55;fill:url(#XMLID_63_)"/><linearGradient id="XMLID_64_" gradientUnits="userSpaceOnUse" x1="163.399" y1="-16372.685" x2="168.251" y2="-16372.685" gradientTransform="matrix(1 0 0 -1 0 -16896)"><stop offset="0" style="stop-color:#fff;stop-opacity:.6"/><stop offset="1" style="stop-color:#fff"/></linearGradient><circle id="XMLID_44_" cx="165.8" cy="-523.3" r="2.4" style="opacity:.2;fill:url(#XMLID_64_)"/><linearGradient id="XMLID_65_" gradientUnits="userSpaceOnUse" x1="-42.015" y1="-16437.119" x2="-39.072" y2="-16437.119" gradientTransform="matrix(1 0 0 -1 0 -16896)"><stop offset="0" style="stop-color:#fff;stop-opacity:.6"/><stop offset="1" style="stop-color:#fff"/></linearGradient><circle id="XMLID_42_" cx="-40.5" cy="-458.9" r="1.5" style="opacity:.4;fill:url(#XMLID_65_)"/><linearGradient id="XMLID_66_" gradientUnits="userSpaceOnUse" x1="376.067" y1="-16445.088" x2="381.896" y2="-16445.088" gradientTransform="matrix(1 0 0 -1 0 -16896)"><stop offset="0" style="stop-color:#fff;stop-opacity:.6"/><stop offset="1" style="stop-color:#fff"/></linearGradient><circle id="XMLID_73_" cx="379" cy="-450.9" r="2.9" style="opacity:.6;fill:url(#XMLID_66_)"/><linearGradient id="XMLID_67_" gradientUnits="userSpaceOnUse" x1="172.737" y1="-16488.229" x2="175.102" y2="-16488.229" gradientTransform="matrix(1 0 0 -1 0 -16896)"><stop offset="0" style="stop-color:#fff;stop-opacity:.6"/><stop offset="1" style="stop-color:#fff"/></linearGradient><circle id="XMLID_72_" cx="173.9" cy="-407.8" r="1.2" style="opacity:.4;fill:url(#XMLID_67_)"/><linearGradient id="XMLID_68_" gradientUnits="userSpaceOnUse" x1="338.746" y1="-16492.688" x2="341.899" y2="-16492.688" gradientTransform="matrix(1 0 0 -1 0 -16896)"><stop offset="0" style="stop-color:#fff;stop-opacity:.6"/><stop offset="1" style="stop-color:#fff"/></linearGradient><circle id="XMLID_71_" cx="340.3" cy="-403.3" r="1.6" style="opacity:.5;fill:url(#XMLID_68_)"/><linearGradient id="XMLID_69_" gradientUnits="userSpaceOnUse" x1="417.898" y1="-16408.668" x2="421.052" y2="-16408.668" gradientTransform="matrix(1 0 0 -1 0 -16896)"><stop offset="0" style="stop-color:#fff;stop-opacity:.6"/><stop offset="1" style="stop-color:#fff"/></linearGradient><circle id="XMLID_70_" cx="419.5" cy="-487.3" r="1.6" style="opacity:.55;fill:url(#XMLID_69_)"/><linearGradient id="XMLID_74_" gradientUnits="userSpaceOnUse" x1="74.582" y1="-16437.119" x2="80.41" y2="-16437.119" gradientTransform="matrix(1 0 0 -1 0 -16896)"><stop offset="0" style="stop-color:#fff;stop-opacity:.6"/><stop offset="1" style="stop-color:#fff"/></linearGradient><circle id="XMLID_369_" cx="77.5" cy="-458.9" r="2.9" style="opacity:.6;fill:url(#XMLID_74_)"/><linearGradient id="XMLID_75_" gradientUnits="userSpaceOnUse" x1="-32.877" y1="-16447.908" x2="-28.024" y2="-16447.908" gradientTransform="matrix(1 0 0 -1 0 -16896)"><stop offset="0" style="stop-color:#fff;stop-opacity:.6"/><stop offset="1" style="stop-color:#fff"/></linearGradient><circle id="XMLID_361_" cx="-30.5" cy="-448.1" r="2.4" style="opacity:.2;fill:url(#XMLID_75_)"/><linearGradient id="XMLID_76_" gradientUnits="userSpaceOnUse" x1="27.538" y1="-16529.867" x2="30.481" y2="-16529.867" gradientTransform="matrix(1 0 0 -1 0 -16896)"><stop offset="0" style="stop-color:#fff;stop-opacity:.6"/><stop offset="1" style="stop-color:#fff"/></linearGradient><circle id="XMLID_360_" cx="29" cy="-366.1" r="1.5" style="opacity:.4;fill:url(#XMLID_76_)"/><linearGradient id="XMLID_77_" gradientUnits="userSpaceOnUse" x1="315.433" y1="-16360.103" x2="321.261" y2="-16360.103" gradientTransform="matrix(1 0 0 -1 0 -16896)"><stop offset="0" style="stop-color:#fff;stop-opacity:.6"/><stop offset="1" style="stop-color:#fff"/></linearGradient><circle id="XMLID_359_" cx="318.3" cy="-535.9" r="2.9" style="opacity:.6;fill:url(#XMLID_77_)"/><linearGradient id="XMLID_78_" gradientUnits="userSpaceOnUse" x1="159.985" y1="-16501.168" x2="163.138" y2="-16501.168" gradientTransform="matrix(1 0 0 -1 0 -16896)"><stop offset="0" style="stop-color:#fff;stop-opacity:.6"/><stop offset="1" style="stop-color:#fff"/></linearGradient><circle id="XMLID_358_" cx="161.6" cy="-394.8" r="1.6" style="opacity:.55;fill:url(#XMLID_78_)"/><path style="fill:none" d="M-167.9-510.9h518.4v324.3h-518.4z"/><path id="XMLID_168_" class="st1" d="m108.7-127.6 97.9 61.3L109.3-5 11.4-66.3z"/><g id="XMLID_7_"><linearGradient id="XMLID_79_" gradientUnits="userSpaceOnUse" x1="97.186" y1="-16811.998" x2="128.135" y2="-16696.496" gradientTransform="matrix(1 0 0 -1 0 -16896)"><stop offset="0" style="stop-color:#4f3e90"/><stop offset="1" style="stop-color:#171a31"/></linearGradient><path id="XMLID_30_" style="fill:url(#XMLID_79_)" d="m112.3-203.7 107.4 61.9-106.7 62L5.6-141.7z"/><linearGradient id="XMLID_80_" gradientUnits="userSpaceOnUse" x1="52.548" y1="-16820.973" x2="66.074" y2="-16770.496" gradientTransform="matrix(1 0 0 -1 0 -16896)"><stop offset="0" style="stop-color:#00ace9"/><stop offset="1" style="stop-color:#007541"/></linearGradient><path id="XMLID_25_" style="fill:url(#XMLID_80_)" d="m5.6-141.7-.1 20.9 107.5 62v-20.9z"/><linearGradient id="XMLID_81_" gradientUnits="userSpaceOnUse" x1="166.394" y1="-16837.185" x2="166.394" y2="-16754.283" gradientTransform="matrix(1 0 0 -1 0 -16896)"><stop offset="0" style="stop-color:#463780"/><stop offset=".143" style="stop-color:#382e68"/><stop offset=".331" style="stop-color:#292550"/><stop offset=".529" style="stop-color:#1f1f3f"/><stop offset=".743" style="stop-color:#191b34"/><stop offset="1" style="stop-color:#171a31"/></linearGradient><path id="XMLID_8_" style="fill:url(#XMLID_81_)" d="M113-58.8v-20.9l106.8-62-.1 20.9z"/></g><g id="XMLID_21_"><linearGradient id="XMLID_82_" gradientUnits="userSpaceOnUse" x1="97.186" y1="-16773.002" x2="128.135" y2="-16657.5" gradientTransform="matrix(1 0 0 -1 0 -16896)"><stop offset="0" style="stop-color:#4f3e90"/><stop offset="1" style="stop-color:#171a31"/></linearGradient><path id="XMLID_6_" style="fill:url(#XMLID_82_)" d="m112.3-242.7 107.4 61.9-106.7 62L5.6-180.7z"/><linearGradient id="XMLID_83_" gradientUnits="userSpaceOnUse" x1="52.548" y1="-16781.979" x2="66.074" y2="-16731.5" gradientTransform="matrix(1 0 0 -1 0 -16896)"><stop offset="0" style="stop-color:#00ace9"/><stop offset="1" style="stop-color:#007541"/></linearGradient><path id="XMLID_5_" style="fill:url(#XMLID_83_)" d="m5.6-180.7-.1 20.9 107.5 62v-20.9z"/><linearGradient id="XMLID_84_" gradientUnits="userSpaceOnUse" x1="166.394" y1="-16798.19" x2="166.394" y2="-16715.287" gradientTransform="matrix(1 0 0 -1 0 -16896)"><stop offset="0" style="stop-color:#463780"/><stop offset=".143" style="stop-color:#382e68"/><stop offset=".331" style="stop-color:#292550"/><stop offset=".529" style="stop-color:#1f1f3f"/><stop offset=".743" style="stop-color:#191b34"/><stop offset="1" style="stop-color:#171a31"/></linearGradient><path id="XMLID_9_" style="fill:url(#XMLID_84_)" d="M113-97.8v-20.9l106.8-62-.1 20.9z"/></g><g id="XMLID_22_"><linearGradient id="XMLID_85_" gradientUnits="userSpaceOnUse" x1="97.186" y1="-16734.008" x2="128.135" y2="-16618.506" gradientTransform="matrix(1 0 0 -1 0 -16896)"><stop offset="0" style="stop-color:#4f3e90"/><stop offset="1" style="stop-color:#171a31"/></linearGradient><path id="XMLID_11_" style="fill:url(#XMLID_85_)" d="m112.3-281.7 107.4 62-106.7 62-107.4-62z"/><linearGradient id="XMLID_86_" gradientUnits="userSpaceOnUse" x1="52.548" y1="-16742.982" x2="66.074" y2="-16692.506" gradientTransform="matrix(1 0 0 -1 0 -16896)"><stop offset="0" style="stop-color:#00ace9"/><stop offset="1" style="stop-color:#007541"/></linearGradient><path id="XMLID_10_" style="fill:url(#XMLID_86_)" d="m5.6-219.7-.1 20.9 107.5 62v-20.9z"/><linearGradient id="XMLID_87_" gradientUnits="userSpaceOnUse" x1="166.394" y1="-16759.195" x2="166.394" y2="-16676.293" gradientTransform="matrix(1 0 0 -1 0 -16896)"><stop offset="0" style="stop-color:#463780"/><stop offset=".143" style="stop-color:#382e68"/><stop offset=".331" style="stop-color:#292550"/><stop offset=".529" style="stop-color:#1f1f3f"/><stop offset=".743" style="stop-color:#191b34"/><stop offset="1" style="stop-color:#171a31"/></linearGradient><path id="XMLID_12_" style="fill:url(#XMLID_87_)" d="M113-136.8v-20.9l106.8-62-.1 20.9z"/></g><g id="XMLID_23_"><linearGradient id="XMLID_88_" gradientUnits="userSpaceOnUse" x1="97.186" y1="-16695.012" x2="128.135" y2="-16579.51" gradientTransform="matrix(1 0 0 -1 0 -16896)"><stop offset="0" style="stop-color:#4f3e90"/><stop offset="1" style="stop-color:#171a31"/></linearGradient><path id="XMLID_14_" style="fill:url(#XMLID_88_)" d="m112.3-320.7 107.4 62-106.7 62-107.4-62z"/><linearGradient id="XMLID_89_" gradientUnits="userSpaceOnUse" x1="52.548" y1="-16703.986" x2="66.074" y2="-16653.51" gradientTransform="matrix(1 0 0 -1 0 -16896)"><stop offset="0" style="stop-color:#00ace9"/><stop offset="1" style="stop-color:#007541"/></linearGradient><path id="XMLID_13_" style="fill:url(#XMLID_89_)" d="m5.6-258.7-.1 20.9 107.5 62v-20.9z"/><linearGradient id="XMLID_90_" gradientUnits="userSpaceOnUse" x1="166.394" y1="-16720.199" x2="166.394" y2="-16637.297" gradientTransform="matrix(1 0 0 -1 0 -16896)"><stop offset="0" style="stop-color:#463780"/><stop offset=".143" style="stop-color:#382e68"/><stop offset=".331" style="stop-color:#292550"/><stop offset=".529" style="stop-color:#1f1f3f"/><stop offset=".743" style="stop-color:#191b34"/><stop offset="1" style="stop-color:#171a31"/></linearGradient><path id="XMLID_15_" style="fill:url(#XMLID_90_)" d="M113-175.8v-20.9l106.8-62-.1 20.9z"/></g><g id="XMLID_24_"><linearGradient id="XMLID_91_" gradientUnits="userSpaceOnUse" x1="97.186" y1="-16656.016" x2="128.135" y2="-16540.514" gradientTransform="matrix(1 0 0 -1 0 -16896)"><stop offset="0" style="stop-color:#4f3e90"/><stop offset="1" style="stop-color:#171a31"/></linearGradient><path id="XMLID_17_" style="fill:url(#XMLID_91_)" d="m112.3-359.7 107.4 62-106.7 62-107.4-62z"/><linearGradient id="XMLID_92_" gradientUnits="userSpaceOnUse" x1="52.548" y1="-16664.992" x2="66.074" y2="-16614.514" gradientTransform="matrix(1 0 0 -1 0 -16896)"><stop offset="0" style="stop-color:#00ace9"/><stop offset="1" style="stop-color:#007541"/></linearGradient><path id="XMLID_16_" style="fill:url(#XMLID_92_)" d="m5.6-297.7-.1 20.9 107.5 62v-20.9z"/><linearGradient id="XMLID_93_" gradientUnits="userSpaceOnUse" x1="166.394" y1="-16681.205" x2="166.394" y2="-16598.301" gradientTransform="matrix(1 0 0 -1 0 -16896)"><stop offset="0" style="stop-color:#463780"/><stop offset=".143" style="stop-color:#382e68"/><stop offset=".331" style="stop-color:#292550"/><stop offset=".529" style="stop-color:#1f1f3f"/><stop offset=".743" style="stop-color:#191b34"/><stop offset="1" style="stop-color:#171a31"/></linearGradient><path id="XMLID_18_" style="fill:url(#XMLID_93_)" d="M113-214.8v-20.9l106.8-62-.1 20.9z"/></g><linearGradient id="XMLID_94_" gradientUnits="userSpaceOnUse" x1="103.776" y1="-16631.18" x2="122.281" y2="-16562.119" gradientTransform="matrix(1 0 0 -1 0 -16896)"><stop offset="0" style="stop-color:#00ace9"/><stop offset="1" style="stop-color:#007541"/></linearGradient><path id="XMLID_26_" style="fill:url(#XMLID_94_)" d="m112.8-336.4 64.2 37-63.8 37.1-64.2-37z"/><g id="XMLID_4_"><defs><path id="XMLID_35_" d="m112.8-336.4 64.2 37-63.8 37.1-64.2-37z"/></defs><clipPath id="XMLID_95_"><use xlink:href="#XMLID_35_" style="overflow:visible"/></clipPath><linearGradient id="XMLID_99_" gradientUnits="userSpaceOnUse" x1="103.744" y1="-16573.664" x2="122.307" y2="-16642.941" gradientTransform="matrix(1 0 0 -1 0 -16896)"><stop offset="0" style="stop-color:#00ace9"/><stop offset="1" style="stop-color:#007541"/></linearGradient><path id="XMLID_19_" style="clip-path:url(#XMLID_95_);fill:url(#XMLID_99_)" d="m112.8-324.8 64.2 37.1-63.8 37.1L49-287.7z"/><linearGradient id="XMLID_102_" gradientUnits="userSpaceOnUse" x1="103.744" y1="-16585.1" x2="122.307" y2="-16654.375" gradientTransform="matrix(1 0 0 -1 0 -16896)"><stop offset="0" style="stop-color:#00ace9"/><stop offset="1" style="stop-color:#007541"/></linearGradient><path id="XMLID_27_" style="clip-path:url(#XMLID_95_);fill:url(#XMLID_102_)" d="m112.8-313.3 64.2 37-63.8 37.1-64.2-37z"/><linearGradient id="XMLID_106_" gradientUnits="userSpaceOnUse" x1="103.744" y1="-16596.533" x2="122.307" y2="-16665.81" gradientTransform="matrix(1 0 0 -1 0 -16896)"><stop offset="0" style="stop-color:#00ace9"/><stop offset="1" style="stop-color:#007541"/></linearGradient><path id="XMLID_28_" style="clip-path:url(#XMLID_95_);fill:url(#XMLID_106_)" d="m112.8-301.9 64.2 37.1-63.8 37-64.2-37z"/><linearGradient id="XMLID_110_" gradientUnits="userSpaceOnUse" x1="103.744" y1="-16607.969" x2="122.307" y2="-16677.246" gradientTransform="matrix(1 0 0 -1 0 -16896)"><stop offset="0" style="stop-color:#00ace9"/><stop offset="1" style="stop-color:#007541"/></linearGradient><path id="XMLID_29_" style="clip-path:url(#XMLID_95_);fill:url(#XMLID_110_)" d="m112.8-290.5 64.2 37.1-63.8 37.1L49-253.4z"/><linearGradient id="XMLID_111_" gradientUnits="userSpaceOnUse" x1="103.744" y1="-16619.404" x2="122.307" y2="-16688.682" gradientTransform="matrix(1 0 0 -1 0 -16896)"><stop offset="0" style="stop-color:#00ace9"/><stop offset="1" style="stop-color:#007541"/></linearGradient><path id="XMLID_31_" style="clip-path:url(#XMLID_95_);fill:url(#XMLID_111_)" d="m112.8-279 64.2 37-63.8 37.1-64.2-37z"/><linearGradient id="XMLID_112_" gradientUnits="userSpaceOnUse" x1="103.744" y1="-16630.838" x2="122.307" y2="-16700.115" gradientTransform="matrix(1 0 0 -1 0 -16896)"><stop offset="0" style="stop-color:#00ace9"/><stop offset="1" style="stop-color:#007541"/></linearGradient><path id="XMLID_32_" style="clip-path:url(#XMLID_95_);fill:url(#XMLID_112_)" d="m112.8-267.6 64.2 37.1-63.8 37-64.2-37z"/><linearGradient id="XMLID_113_" gradientUnits="userSpaceOnUse" x1="103.744" y1="-16642.273" x2="122.307" y2="-16711.551" gradientTransform="matrix(1 0 0 -1 0 -16896)"><stop offset="0" style="stop-color:#00ace9"/><stop offset="1" style="stop-color:#007541"/></linearGradient><path id="XMLID_33_" style="clip-path:url(#XMLID_95_);fill:url(#XMLID_113_)" d="m112.8-256.2 64.2 37.1-63.8 37.1L49-219.1z"/><linearGradient id="XMLID_115_" gradientUnits="userSpaceOnUse" x1="103.744" y1="-16653.709" x2="122.307" y2="-16722.986" gradientTransform="matrix(1 0 0 -1 0 -16896)"><stop offset="0" style="stop-color:#00ace9"/><stop offset="1" style="stop-color:#007541"/></linearGradient><path id="XMLID_34_" style="clip-path:url(#XMLID_95_);fill:url(#XMLID_115_)" d="m112.8-244.7 64.2 37-63.8 37.1-64.2-37z"/></g><linearGradient id="XMLID_116_" gradientUnits="userSpaceOnUse" x1="83.635" y1="-16624.654" x2="141.683" y2="-16408.016" gradientTransform="matrix(1 0 0 -1 0 -16896)"><stop offset="0" style="stop-color:#fff;stop-opacity:0"/><stop offset="1" style="stop-color:#fff;stop-opacity:.3"/></linearGradient><path id="XMLID_36_" style="opacity:.3;fill:url(#XMLID_116_)" d="m112.4-495.8-63.8 37.1v158.1l64.3 37.1 63.8-37.1v-158.2z"/><linearGradient id="XMLID_117_" gradientUnits="userSpaceOnUse" x1="91.262" y1="-16589.914" x2="97.374" y2="-16589.914" gradientTransform="matrix(1 0 0 -1 0 -16896)"><stop offset="0" style="stop-color:#fff;stop-opacity:.6"/><stop offset="1" style="stop-color:#fff"/></linearGradient><circle id="XMLID_3_" cx="94.3" cy="-306.1" r="3.1" style="opacity:.6;fill:url(#XMLID_117_)"/><linearGradient id="XMLID_118_" gradientUnits="userSpaceOnUse" x1="116.001" y1="-16556.76" x2="119.308" y2="-16556.76" gradientTransform="matrix(1 0 0 -1 0 -16896)"><stop offset="0" style="stop-color:#fff;stop-opacity:.6"/><stop offset="1" style="stop-color:#fff"/></linearGradient><circle id="XMLID_45_" cx="117.7" cy="-339.2" r="1.7" style="opacity:.55;fill:url(#XMLID_118_)"/><path id="XMLID_114_" class="st1" d="m113-59.2-107.4-62 107-115.2 107.1 115.2-106.7 62"/></svg>