<?xml version="1.0" encoding="utf-8"?>
<!-- Generator: Adobe Illustrator 19.0.0, SVG Export Plug-In . SVG Version: 6.00 Build 0)  -->
<svg version="1.1" id="Calque_1" xmlns="http://www.w3.org/2000/svg" xmlns:xlink="http://www.w3.org/1999/xlink" x="0px" y="0px"
	 viewBox="1242 -1152 3096 3096" style="enable-background:new 1242 -1152 3096 3096;" xml:space="preserve">
<style type="text/css">
	.st0{fill:none;stroke:url(#SVGID_1_);stroke-width:30;stroke-miterlimit:10;}
	.st1{fill:none;stroke:url(#SVGID_2_);stroke-width:30;stroke-miterlimit:10;}
	.st2{fill:none;stroke:url(#SVGID_3_);stroke-width:30;stroke-miterlimit:10;}
	.st3{fill:none;stroke:url(#SVGID_4_);stroke-width:30;stroke-miterlimit:10;}
	.st4{fill:none;stroke:url(#SVGID_5_);stroke-width:30;stroke-miterlimit:10;}
</style>
<linearGradient id="SVGID_1_" gradientUnits="userSpaceOnUse" x1="1980.5709" y1="1083.5352" x2="3493.2461" y2="1083.5352" gradientTransform="matrix(1 0 0 -1 0 792)">
	<stop  offset="0" style="stop-color:#00FF99"/>
	<stop  offset="1" style="stop-color:#33CCFF"/>
</linearGradient>
<path class="st0" d="M2068,64c0,0-4-16,0-72s-100-40-32-428l-40.4-61.4c0,0-6-108,154.5-237s125.7-175.9,125.7-175.9s138-48,225-42
	c0,0,87-87,237-87s255,90,255,90s234,72,294,177c0,0,69.1,84.3,71.1,140.3s10,96,24,108s70,82,70,128s26,378,26,378
	s-68.1,106.8-80.1,145.8s-30,195-30,195s-54-615.1-99-711.1s-54-174-213-186s-435,30-543.1,3c-108-27-99-42-99-42s-192,120-213,192
	s-87,63-87,63s-36,201,0,261s24,249,24,249L2068,64z"/>
<linearGradient id="SVGID_2_" gradientUnits="userSpaceOnUse" x1="2060.5779" y1="496.8203" x2="2193.3496" y2="496.8203" gradientTransform="matrix(1 0 0 -1 0 792)">
	<stop  offset="0" style="stop-color:#00FF99"/>
	<stop  offset="1" style="stop-color:#33CCFF"/>
</linearGradient>
<path class="st1" d="M2192.5,502c0,0-70.5,4-94.5-164s-22.4-264.4-22.4-264.4"/>
<linearGradient id="SVGID_3_" gradientUnits="userSpaceOnUse" x1="2122.8826" y1="227.6678" x2="3557.7666" y2="227.6678" gradientTransform="matrix(1 0 0 -1 0 792)">
	<stop  offset="0" style="stop-color:#00FF99"/>
	<stop  offset="1" style="stop-color:#33CCFF"/>
</linearGradient>
<path class="st2" d="M3478-18c0,0,79,57.6,62.5,152.1s-37.5,72-40.5,147s-43.5,177-75,187.5s-61.5,15-61.5,15s3,264-87,373.5
	c0,0-78,70.5-135,94.5s-130.5,130.5-211.5,144c0,0-149,103.3-351.2,7.4c0,0-42-48-117-126s-141-87-216-219s-48-309.7-51-361.9
	s-21-37.1-30-55.1s-27-189-27-189"/>
<linearGradient id="SVGID_4_" gradientUnits="userSpaceOnUse" x1="2394.2327" y1="-565.7234" x2="4346.2637" y2="-565.7234" gradientTransform="matrix(1 0 0 -1 0 792)">
	<stop  offset="0" style="stop-color:#00FF99"/>
	<stop  offset="1" style="stop-color:#33CCFF"/>
</linearGradient>
<path class="st3" d="M4338,1782c0,0-406-268-542-320c0,0-76-34-128-80s-152-140-280-184c0,0,10-0.6,0-54.3s-67.7-241.1-120.9-278.4
	c0,0-0.8,13.5-2.2,34.6c-4.4,68.4-14.3,216.5-18.9,243.8c-6,35.7-134,244.3-194,284.3s-102,192-102,192s40,22,48,40
	s-220,238-208,198s-106-160-106-160s-82-34-92-142s-76-152-140-286s-37.2-335.5-37.2-335.5"/>
<linearGradient id="SVGID_5_" gradientUnits="userSpaceOnUse" x1="1238.0532" y1="-490.7331" x2="2413.5725" y2="-490.7331" gradientTransform="matrix(1 0 0 -1 0 792)">
	<stop  offset="0" style="stop-color:#00FF99"/>
	<stop  offset="1" style="stop-color:#33CCFF"/>
</linearGradient>
<path class="st4" d="M2399.7,922.7c0,0-51.9,126.2-102.9,186.2S2253,1175,2253,1175s-17-47-134,18s-357,205-393,207s-162,28-208,76
	s-172,74-202,110s-74,48-74,48"/>
</svg>
