<?xml version="1.0" encoding="utf-8"?>
<!-- Generator: Adobe Illustrator 19.0.0, SVG Export Plug-In . SVG Version: 6.00 Build 0)  -->
<svg version="1.1" id="Calque_1" xmlns="http://www.w3.org/2000/svg" xmlns:xlink="http://www.w3.org/1999/xlink" x="0px" y="0px"
	 viewBox="0 0 3096 3096" style="enable-background:new 0 0 3096 3096;" xml:space="preserve">
<style type="text/css">
	.st0{fill:none;stroke:url(#SVGID_1_);stroke-width:30;stroke-miterlimit:10;}
	.st1{fill:none;stroke:url(#SVGID_2_);stroke-width:30;stroke-miterlimit:10;}
	.st2{fill:none;stroke:url(#SVGID_3_);stroke-width:30;stroke-miterlimit:10;}
	.st3{fill:none;stroke:url(#SVGID_4_);stroke-width:30;stroke-miterlimit:10;}
	.st4{fill:none;stroke:url(#SVGID_5_);stroke-width:30;stroke-miterlimit:10;}
	.st5{fill:none;stroke:url(#SVGID_6_);stroke-width:30;stroke-miterlimit:10;}
</style>
<image style="overflow:visible;" width="250" height="250" xlink:href="mike.jpg"  transform="matrix(12.384 0 0 12.384 -4081.6326 0)">
</image>
<linearGradient id="SVGID_1_" gradientUnits="userSpaceOnUse" x1="687.3975" y1="788.1796" x2="2325.8918" y2="788.1796">
	<stop  offset="0" style="stop-color:#00FF99"/>
	<stop  offset="1" style="stop-color:#33CCFF"/>
</linearGradient>
<path class="st0" d="M925.8,1444.8c0,0-18-186,0-234c18-48,5-119-8-134.5c-13-15.5,40.7-210.5,16.8-243.5s-2.8-222,75.2-255
	c78-33,264-83.5,351-41.8c87,41.8,96,14.8,96,14.8s0-5.5,117-14.8s309,2.8,396,299.8c0,0,4.1,72.2,12.1,94.2s44,104,60,126
	s82,292,72,344c0,0,92.9-57.2,77.9-228.2c0,0,48,9,78-141c30-150,51-249,36-324s-126-240-273-282s-258-174-258-174s-105-144-291-105
	c0,0-189.8-59.7-271.8-6.7s-148,77-152,145c0,0-114-18-180,96c0,0-22,92-72,114s-74,52-74,114s-32,180-26,230s18,168,10,206
	s-23.5,24-10.7,66s30.7,70,76.7,140s66,56,80,110S925.8,1444.8,925.8,1444.8z"/>
<linearGradient id="SVGID_2_" gradientUnits="userSpaceOnUse" x1="2063.7588" y1="1428.9391" x2="2246.0474" y2="1428.9391">
	<stop  offset="0" style="stop-color:#00FF99"/>
	<stop  offset="1" style="stop-color:#33CCFF"/>
</linearGradient>
<path class="st1" d="M2230.2,1144.3c0,0,9.8,228.6-35.2,318.6c-7.4,14.7-14.9,26.4-22.3,35.7c-30.3,37.6-59.1,34.5-69.6,31.7
	c-2.2-0.6-4.4,0.9-4.6,3.2l-19.6,161.6c-0.5,4.1,5,5.8,7,2.2"/>
<linearGradient id="SVGID_3_" gradientUnits="userSpaceOnUse" x1="831.7024" y1="1798.1301" x2="2100.219" y2="1798.1301">
	<stop  offset="0" style="stop-color:#00FF99"/>
	<stop  offset="1" style="stop-color:#33CCFF"/>
</linearGradient>
<path class="st2" d="M856.1,1337.3c0,0-29.3,97.9,15.7,210.7s78,64.9,78,64.9s15,144,117,267c102,123,117,144,117,144s75,75,105,123
	c30,48,39,57,108,78c69,21,189,30,234,18c45-12,171-90,192-108s183.7-152.2,262.9-437.6"/>
<linearGradient id="SVGID_4_" gradientUnits="userSpaceOnUse" x1="1013.1779" y1="2325.8135" x2="2236.1672" y2="2325.8135">
	<stop  offset="0" style="stop-color:#00FF99"/>
	<stop  offset="1" style="stop-color:#33CCFF"/>
</linearGradient>
<path class="st3" d="M2031.9,1846.7c0,0,1,207.2,16,225.2c15,18,105,111,147,111s21,81,21,81s-234,435-384,498s-213,0-213,0
	s-141-12-180,12s-477-118.9-402-454c0,0,69-12.3,93-71.7c24-59.4,10-279.7,10-279.7"/>
<linearGradient id="SVGID_5_" gradientUnits="userSpaceOnUse" x1="2147.467" y1="2355.1848" x2="3104.3206" y2="2355.1848">
	<stop  offset="0" style="stop-color:#00FF99"/>
	<stop  offset="1" style="stop-color:#33CCFF"/>
</linearGradient>
<path class="st4" d="M2154.9,2136c0,0,91.1-52,135.1,0s228,148.3,364,192.2c136,43.8,180,35.8,260,119.8s182,152,182,152"/>
<linearGradient id="SVGID_6_" gradientUnits="userSpaceOnUse" x1="-14.5521" y1="2596.7131" x2="1140.9927" y2="2596.7131">
	<stop  offset="0" style="stop-color:#00FF99"/>
	<stop  offset="1" style="stop-color:#33CCFF"/>
</linearGradient>
<path class="st5" d="M0,2996c0,0,42-168,170-232s444-252,444-252s379.3-280.6,452-292s72.7-11.4,72.7-11.4"/>
</svg>
