<svg version="1.1" id="Capa_1" xmlns="http://www.w3.org/2000/svg" x="0" y="0" viewBox="225 -56 900 563" style="enable-background:new 225 -56 900 563" xml:space="preserve"><style>.st2{fill:#fff}</style><linearGradient id="SVGID_1_" gradientUnits="userSpaceOnUse" x1="225" y1="226.5" x2="1125" y2="226.5" gradientTransform="matrix(1 0 0 -1 0 452)"><stop offset="0" style="stop-color:#7f00ff"/><stop offset=".275" style="stop-color:#7c00ff"/><stop offset=".49" style="stop-color:#7200ff"/><stop offset=".685" style="stop-color:#6100ff"/><stop offset=".867" style="stop-color:#4a00ff"/><stop offset="1" style="stop-color:#3400ff"/></linearGradient><path style="fill:url(#SVGID_1_)" d="M225-56h900v563H225z"/><g style="opacity:.93"><path class="st2" d="m462.6 220.1 9.9-17.5s-18.8-13.7-40.1-3.7c-21.2 9.9-21.5 31.2-21.5 31.2s1.7 19.2 11.3 26c9.6 6.8 13.7 11.3 35.3 9.9 21.6-1.4 29.8-26.4 29.8-26.4l8.9-16.5s7.9-14 26-5.5c0 0 12.4 10.6 4.1 22.3-8.2 11.6-22.6 5.8-22.6 5.8l-10.6-6.5-8.9 15.7s13.7 13.2 28.7 11.2c15.1-1.9 22.3-7.5 22.3-7.5s23.3-16.5 12-41.8-39.1-21.6-39.1-21.6-16.1 2.6-21.9 8.7c0 0-3.7 3.1-7.2 8.5-3.5 5.5-16.1 29.1-16.1 29.1s-5.8 7.5-18.2 5.1c-12.4-2.4-11.6-18.5-11.6-18.5s-1-10.6 11.6-12.6c12.7-1.9 17.9 4.6 17.9 4.6zM873.2 202l-23.1 62.3h-21.2L805.8 202h20.7l12.9 39.6 12.9-39.6h20.9zM909.2 249.3c5.1 0 9.5-2 12-4.7l14.9 8.6c-6.1 8.5-15.4 12.9-27.2 12.9-21.3 0-34.6-14.3-34.6-32.9s13.5-32.9 33.2-32.9c18.2 0 31.6 14.1 31.6 32.9 0 2.6-.3 5.1-.7 7.5h-44.3c2.5 6.4 8.3 8.6 15.1 8.6zm11.5-22.6c-2-7.3-7.6-9.9-13.2-9.9-7.1 0-11.8 3.5-13.5 9.9h26.7zM648.6 226.1v38.3H630v-35.6c0-7.7-4.9-11.4-10.8-11.4-6.8 0-11.5 4-11.5 12.9v34H589V202h18.7v5.9c3.4-4.6 9.6-7.6 17.8-7.6 12.3 0 23.1 9 23.1 25.8zM725.6 202.1v62.3h-18.7v-5.9c-4.1 4.7-10.2 7.6-18.6 7.6-16.3 0-29.8-14.3-29.8-32.9s13.5-32.9 29.8-32.9c8.4 0 14.5 2.9 18.6 7.6V202h18.7v.1zm-18.7 31.1c0-9.4-6.2-15.2-14.9-15.2s-14.9 5.9-14.9 15.2c0 9.4 6.2 15.2 14.9 15.2s14.9-5.8 14.9-15.2zM762.6 220v22.1c0 5.4 4.6 5.9 12.9 5.4v17c-24.5 2.5-31.6-4.9-31.6-22.4V220h-10v-17.9h10v-11.8l18.7-5.6v17.5h12.9v17.9l-12.9-.1zM559.2 202.1h18.7v62.3h-18.7zM783.5 202.1h18.7v62.3h-18.7z"/></g></svg>