<svg version="1.1" id="Capa_1" xmlns="http://www.w3.org/2000/svg" x="0" y="0" viewBox="6 -6 512 512" style="enable-background:new 6 -6 512 512" xml:space="preserve"><style>.st0{opacity:.17;fill:#1d1b30}.st6{fill:#3f00fc}.st7{fill:#7f00ff}</style><switch><g><path class="st0" d="M354.6 383.6 474.7 360l5.3-72.6-22.1-19.6-190 65.8z"/><path class="st0" d="m176.4 412.7 120.1-23.6 5.3-72.6-22.2-19.6-189.9 65.8zM176.4 281l120.1-23.6 5.3-72.6-22.2-19.6L89.7 231z"/><linearGradient id="XMLID_5_" gradientUnits="userSpaceOnUse" x1="148.373" y1="-16158.489" x2="198.359" y2="-15971.938" gradientTransform="matrix(1 0 0 -1 0 -15884)"><stop offset="0" style="stop-color:#4f3e90"/><stop offset="1" style="stop-color:#171a31"/></linearGradient><path id="XMLID_17_" style="fill:url(#XMLID_5_)" d="M87 231.3V131.2l86.1-50 86.7 50v100l-86.1 50.1z"/><linearGradient id="XMLID_7_" gradientUnits="userSpaceOnUse" x1="160.88" y1="-16061.79" x2="185.853" y2="-15968.587" gradientTransform="matrix(1 0 0 -1 0 -15884)"><stop offset="0" style="stop-color:#4f3e90"/><stop offset="1" style="stop-color:#171a31"/></linearGradient><path id="XMLID_16_" style="fill:url(#XMLID_7_)" d="m173.1 81.2 86.7 50-86.1 50-86.7-50z"/><linearGradient id="XMLID_9_" gradientUnits="userSpaceOnUse" x1="200.832" y1="-16030.974" x2="232.585" y2="-16149.477" gradientTransform="matrix(1 0 0 -1 0 -15884)"><stop offset="0" style="stop-color:#4f3e90"/><stop offset="1" style="stop-color:#171a31"/></linearGradient><path id="XMLID_15_" style="fill:url(#XMLID_9_)" d="M173.7 281.3V181.2l86.1-50v100z"/><linearGradient id="SVGID_1_" gradientUnits="userSpaceOnUse" x1="208.859" y1="212.442" x2="231.019" y2="212.442"><stop offset="0" style="stop-color:#7f00ff"/><stop offset=".298" style="stop-color:#7c00ff"/><stop offset=".526" style="stop-color:#7200fe"/><stop offset=".731" style="stop-color:#6200fe"/><stop offset=".921" style="stop-color:#4b00fd"/><stop offset="1" style="stop-color:#3f00fc"/></linearGradient><path style="fill:url(#SVGID_1_)" d="m231 164.1-22.1 13.4v83.3l22.1-13.4z"/><linearGradient id="SVGID_2_" gradientUnits="userSpaceOnUse" x1="116.129" y1="358.981" x2="138.829" y2="443.699" gradientTransform="matrix(1 0 0 -1 0 613.956)"><stop offset="0" style="stop-color:#7f00ff"/><stop offset=".298" style="stop-color:#7c00ff"/><stop offset=".526" style="stop-color:#7200fe"/><stop offset=".731" style="stop-color:#6200fe"/><stop offset=".921" style="stop-color:#4b00fd"/><stop offset="1" style="stop-color:#3f00fc"/></linearGradient><path style="fill:url(#SVGID_2_)" d="m138.6 261-22.2-13.5v-83.3l22.2 13.5z"/><path class="st6" d="m231 247.9-22.1 12.9 22.1-13.4z"/><path class="st7" d="M116.4 248.2v-.7l22.2 13.5z"/><linearGradient id="XMLID_10_" gradientUnits="userSpaceOnUse" x1="160.268" y1="-16086.537" x2="187.06" y2="-15986.545" gradientTransform="matrix(1 0 0 -1 0 -15884)"><stop offset="0" style="stop-color:#4f3e90"/><stop offset="1" style="stop-color:#171a31"/></linearGradient><path id="XMLID_14_" style="fill:url(#XMLID_10_)" d="m173.4 98.9 92.9 53.6-92.3 53.7-93-53.6z"/><linearGradient id="XMLID_18_" gradientUnits="userSpaceOnUse" x1="160.268" y1="-16061.036" x2="187.06" y2="-15961.044" gradientTransform="matrix(1 0 0 -1 0 -15884)"><stop offset="0" style="stop-color:#4f3e90"/><stop offset="1" style="stop-color:#171a31"/></linearGradient><path id="XMLID_13_" style="fill:url(#XMLID_18_)" d="m173.4 73.4 92.9 53.6-92.3 53.7-93-53.6z"/><linearGradient id="SVGID_3_" gradientUnits="userSpaceOnUse" x1="213.36" y1="141.248" x2="226.966" y2="192.028"><stop offset="0" style="stop-color:#4f3e90"/><stop offset="1" style="stop-color:#171a31"/></linearGradient><path style="fill:url(#SVGID_3_)" d="M174 180.7v25.5l92.3-53.6v-25.5z"/><linearGradient id="SVGID_4_" gradientUnits="userSpaceOnUse" x1="114.47" y1="118.09" x2="140.487" y2="215.186"><stop offset="0" style="stop-color:#4f3e90"/><stop offset="1" style="stop-color:#171a31"/></linearGradient><path style="fill:url(#SVGID_4_)" d="M81 127.1v25.5l93 53.6v-25.5z"/><linearGradient id="SVGID_5_" gradientUnits="userSpaceOnUse" x1="210.404" y1="166.035" x2="232.564" y2="166.035"><stop offset="0" style="stop-color:#7f00ff"/><stop offset=".298" style="stop-color:#7c00ff"/><stop offset=".526" style="stop-color:#7200fe"/><stop offset=".731" style="stop-color:#6200fe"/><stop offset=".921" style="stop-color:#4b00fd"/><stop offset="1" style="stop-color:#3f00fc"/></linearGradient><path style="fill:url(#SVGID_5_)" d="M210.4 185.1v-25.5l22.2-12.6v25.2z"/><linearGradient id="SVGID_6_" gradientUnits="userSpaceOnUse" x1="114.129" y1="165.445" x2="136.289" y2="165.445"><stop offset="0" style="stop-color:#7f00ff"/><stop offset=".298" style="stop-color:#7c00ff"/><stop offset=".526" style="stop-color:#7200fe"/><stop offset=".731" style="stop-color:#6200fe"/><stop offset=".921" style="stop-color:#4b00fd"/><stop offset="1" style="stop-color:#3f00fc"/></linearGradient><path style="fill:url(#SVGID_6_)" d="M114.1 146.4v25.5l22.2 12.6v-25.2z"/><linearGradient id="SVGID_7_" gradientUnits="userSpaceOnUse" x1="116.399" y1="126.585" x2="232.564" y2="126.585"><stop offset="0" style="stop-color:#7f00ff"/><stop offset=".298" style="stop-color:#7c00ff"/><stop offset=".526" style="stop-color:#7200fe"/><stop offset=".731" style="stop-color:#6200fe"/><stop offset=".921" style="stop-color:#4b00fd"/><stop offset="1" style="stop-color:#3f00fc"/></linearGradient><path style="fill:url(#SVGID_7_)" d="m210.4 159.6-94-53.1 22.2-12.9 94 53.4"/><linearGradient id="SVGID_8_" gradientUnits="userSpaceOnUse" x1="114.129" y1="125.735" x2="227.788" y2="125.735"><stop offset="0" style="stop-color:#7f00ff"/><stop offset=".298" style="stop-color:#7c00ff"/><stop offset=".526" style="stop-color:#7200fe"/><stop offset=".731" style="stop-color:#6200fe"/><stop offset=".921" style="stop-color:#4b00fd"/><stop offset="1" style="stop-color:#3f00fc"/></linearGradient><path style="fill:url(#SVGID_8_)" d="m114.1 146.4 91.5-54.2 22.2 12.6-91.5 54.5"/><linearGradient id="SVGID_9_" gradientUnits="userSpaceOnUse" x1="161.839" y1="106.107" x2="198.152" y2="106.107"><stop offset="0" style="stop-color:#a300ff"/><stop offset=".223" style="stop-color:#a000ff"/><stop offset=".394" style="stop-color:#9600ff"/><stop offset=".548" style="stop-color:#8600fe"/><stop offset=".691" style="stop-color:#6f00fe"/><stop offset=".828" style="stop-color:#5100fd"/><stop offset=".957" style="stop-color:#2d00fc"/><stop offset="1" style="stop-color:#1f00fc"/></linearGradient><path d="M198.2 89.4c-2.4-.8-5.5-.4-9.2 1.6-11.9 6.6-11.4 21.1-11.7 31.1-.1 4.4-.3 7.9-1.9 9.4 0 0-.4.3-.7.6l-12.9-9.7c2.1-2 1.8-7.7 2-14.2.3-9.4 1.4-20.7 11.6-26.3 5.8-3.2 9.4-1.3 12.8.9 2.2 1.4 7.8 5.1 10 6.6z" style="fill:url(#SVGID_9_)"/><linearGradient id="SVGID_10_" gradientUnits="userSpaceOnUse" x1="161.839" y1="120.742" x2="177.256" y2="120.742"><stop offset="0" style="stop-color:#a300ff"/><stop offset=".223" style="stop-color:#a000ff"/><stop offset=".394" style="stop-color:#9600ff"/><stop offset=".548" style="stop-color:#8600fe"/><stop offset=".691" style="stop-color:#6f00fe"/><stop offset=".828" style="stop-color:#5100fd"/><stop offset=".957" style="stop-color:#2d00fc"/><stop offset="1" style="stop-color:#1f00fc"/></linearGradient><path d="M175.4 131.4s-.3.5-1.1 1.1l-2.4.8-10.1-11c2.1-2 1.8-7.7 2-14.2 0 .3.1.6.1.9-.1 11.8 13.3 16.6 13.3 16.6s-.2 4.3-1.8 5.8z" style="fill:url(#SVGID_10_)"/><linearGradient id="SVGID_11_" gradientUnits="userSpaceOnUse" x1="174.318" y1="110.766" x2="204.189" y2="110.766"><stop offset="0" style="stop-color:#a300ff"/><stop offset=".223" style="stop-color:#a000ff"/><stop offset=".394" style="stop-color:#9600ff"/><stop offset=".548" style="stop-color:#8600fe"/><stop offset=".691" style="stop-color:#6f00fe"/><stop offset=".828" style="stop-color:#5100fd"/><stop offset=".957" style="stop-color:#2d00fc"/><stop offset="1" style="stop-color:#1f00fc"/></linearGradient><path d="M190 122.8c-21.7 14.3-14.6 8.6-14.6 8.6 2.1-2.1 1.8-7.9 2-14.6l.9-.6c9-6 13.3-14.1 14.1-20.9.2-2.1.1-4-.3-5.8 5.3-1.7 9.1.3 10.9 4.3 3.3 7.1.1 20.4-13 29z" style="fill:url(#SVGID_11_)"/><linearGradient id="SVGID_12_" gradientUnits="userSpaceOnUse" x1="192.067" y1="92.165" x2="202.979" y2="92.165"><stop offset="0" style="stop-color:#a300ff"/><stop offset=".223" style="stop-color:#a000ff"/><stop offset=".394" style="stop-color:#9600ff"/><stop offset=".548" style="stop-color:#8600fe"/><stop offset=".691" style="stop-color:#6f00fe"/><stop offset=".828" style="stop-color:#5100fd"/><stop offset=".957" style="stop-color:#2d00fc"/><stop offset="1" style="stop-color:#1f00fc"/></linearGradient><path d="M192.4 95.4c.2-2.1.1-4-.3-5.8 5.3-1.7 9.1.3 10.9 4.3-3.5.4-7.3 1-10.6 1.5z" style="fill:url(#SVGID_12_)"/><linearGradient id="SVGID_13_" gradientUnits="userSpaceOnUse" x1="133.165" y1="123.669" x2="176.492" y2="123.669"><stop offset="0" style="stop-color:#a300ff"/><stop offset=".223" style="stop-color:#a000ff"/><stop offset=".394" style="stop-color:#9600ff"/><stop offset=".548" style="stop-color:#8600fe"/><stop offset=".691" style="stop-color:#6f00fe"/><stop offset=".828" style="stop-color:#5100fd"/><stop offset=".957" style="stop-color:#2d00fc"/><stop offset="1" style="stop-color:#1f00fc"/></linearGradient><path d="M176.1 131.2c-6.1-.1-10.4-26.2-27.3-25.8 6.6 7.6 9.9 19.1 13.9 19.2 0 0 4.9-.6-19.1 8.6-3.9 1.5-7.3 2.1-10.4 2.2 4 5.9 11.9 9 23.8 4.5 24-9.3 19.1-8.7 19.1-8.7z" style="fill:url(#SVGID_13_)"/><linearGradient id="SVGID_14_" gradientUnits="userSpaceOnUse" x1="120.639" y1="119.309" x2="155.198" y2="119.309"><stop offset="0" style="stop-color:#a300ff"/><stop offset=".223" style="stop-color:#a000ff"/><stop offset=".394" style="stop-color:#9600ff"/><stop offset=".548" style="stop-color:#8600fe"/><stop offset=".691" style="stop-color:#6f00fe"/><stop offset=".828" style="stop-color:#5100fd"/><stop offset=".957" style="stop-color:#2d00fc"/><stop offset="1" style="stop-color:#1f00fc"/></linearGradient><path d="M155.2 106.6c-3.3-1.4-7.1-1.8-11.8-.3-4.7 1.5-8.2 4.5-10.4 8.1-4.8 8-3.6 19 3.4 24.4-3.4-1.9-9.4-5.4-10.5-6.3-5.9-5.4-6.9-15.1-3-22.6 2.2-4.1 5.8-7.5 10.9-9.1 3.9-1.2 7.3-1.2 10.2-.3 1.9.5 8 4.1 11.2 6.1z" style="fill:url(#SVGID_14_)"/><linearGradient id="XMLID_19_" gradientUnits="userSpaceOnUse" x1="329.314" y1="-16260.813" x2="379.3" y2="-16074.262" gradientTransform="matrix(1 0 0 -1 0 -15884)"><stop offset="0" style="stop-color:#4f3e90"/><stop offset="1" style="stop-color:#171a31"/></linearGradient><path id="XMLID_20_" style="fill:url(#XMLID_19_)" d="M267.9 333.6V233.5l86.1-50 86.7 50v100.1l-86.1 50z"/><linearGradient id="XMLID_21_" gradientUnits="userSpaceOnUse" x1="341.82" y1="-16164.113" x2="366.794" y2="-16070.91" gradientTransform="matrix(1 0 0 -1 0 -15884)"><stop offset="0" style="stop-color:#4f3e90"/><stop offset="1" style="stop-color:#171a31"/></linearGradient><path id="XMLID_49_" style="fill:url(#XMLID_21_)" d="m354 183.5 86.7 50-86.1 50-86.7-50z"/><linearGradient id="XMLID_22_" gradientUnits="userSpaceOnUse" x1="381.772" y1="-16133.297" x2="413.525" y2="-16251.801" gradientTransform="matrix(1 0 0 -1 0 -15884)"><stop offset="0" style="stop-color:#4f3e90"/><stop offset="1" style="stop-color:#171a31"/></linearGradient><path id="XMLID_50_" style="fill:url(#XMLID_22_)" d="M354.6 383.6V283.5l86.1-50v100.1z"/><linearGradient id="SVGID_15_" gradientUnits="userSpaceOnUse" x1="389.799" y1="314.766" x2="411.959" y2="314.766"><stop offset="0" style="stop-color:#7f00ff"/><stop offset=".298" style="stop-color:#7c00ff"/><stop offset=".526" style="stop-color:#7200fe"/><stop offset=".731" style="stop-color:#6200fe"/><stop offset=".921" style="stop-color:#4b00fd"/><stop offset="1" style="stop-color:#3f00fc"/></linearGradient><path style="fill:url(#SVGID_15_)" d="m412 266.4-22.2 13.5v83.2l22.2-13.4z"/><linearGradient id="SVGID_16_" gradientUnits="userSpaceOnUse" x1="297.069" y1="256.657" x2="319.769" y2="341.375" gradientTransform="matrix(1 0 0 -1 0 613.956)"><stop offset="0" style="stop-color:#7f00ff"/><stop offset=".298" style="stop-color:#7c00ff"/><stop offset=".526" style="stop-color:#7200fe"/><stop offset=".731" style="stop-color:#6200fe"/><stop offset=".921" style="stop-color:#4b00fd"/><stop offset="1" style="stop-color:#3f00fc"/></linearGradient><path style="fill:url(#SVGID_16_)" d="m319.5 363.3-22.2-13.5v-83.2l22.2 13.4z"/><path class="st6" d="m412 350.3-22.2 12.8 22.2-13.4z"/><path class="st7" d="M297.3 350.6v-.8l22.2 13.5z"/><linearGradient id="XMLID_23_" gradientUnits="userSpaceOnUse" x1="341.208" y1="-16188.86" x2="368.001" y2="-16088.868" gradientTransform="matrix(1 0 0 -1 0 -15884)"><stop offset="0" style="stop-color:#4f3e90"/><stop offset="1" style="stop-color:#171a31"/></linearGradient><path id="XMLID_3_" style="fill:url(#XMLID_23_)" d="m354.3 201.2 93 53.7-92.4 53.6-93-53.6z"/><linearGradient id="XMLID_24_" gradientUnits="userSpaceOnUse" x1="341.208" y1="-16163.36" x2="368.001" y2="-16063.368" gradientTransform="matrix(1 0 0 -1 0 -15884)"><stop offset="0" style="stop-color:#4f3e90"/><stop offset="1" style="stop-color:#171a31"/></linearGradient><path id="XMLID_1_" style="fill:url(#XMLID_24_)" d="m354.3 175.7 93 53.7-92.4 53.6-93-53.6z"/><linearGradient id="SVGID_17_" gradientUnits="userSpaceOnUse" x1="394.301" y1="243.572" x2="407.907" y2="294.351"><stop offset="0" style="stop-color:#4f3e90"/><stop offset="1" style="stop-color:#171a31"/></linearGradient><path style="fill:url(#SVGID_17_)" d="M354.9 283v25.5l92.4-53.6v-25.5z"/><linearGradient id="SVGID_18_" gradientUnits="userSpaceOnUse" x1="295.411" y1="220.414" x2="321.428" y2="317.51"><stop offset="0" style="stop-color:#4f3e90"/><stop offset="1" style="stop-color:#171a31"/></linearGradient><path style="fill:url(#SVGID_18_)" d="M261.9 229.4v25.5l93 53.6V283z"/><linearGradient id="SVGID_19_" gradientUnits="userSpaceOnUse" x1="391.345" y1="268.359" x2="413.505" y2="268.359"><stop offset="0" style="stop-color:#7f00ff"/><stop offset=".298" style="stop-color:#7c00ff"/><stop offset=".526" style="stop-color:#7200fe"/><stop offset=".731" style="stop-color:#6200fe"/><stop offset=".921" style="stop-color:#4b00fd"/><stop offset="1" style="stop-color:#3f00fc"/></linearGradient><path style="fill:url(#SVGID_19_)" d="M391.3 287.4v-25.5l22.2-12.6v25.2z"/><linearGradient id="SVGID_20_" gradientUnits="userSpaceOnUse" x1="295.069" y1="267.769" x2="317.229" y2="267.769"><stop offset="0" style="stop-color:#7f00ff"/><stop offset=".298" style="stop-color:#7c00ff"/><stop offset=".526" style="stop-color:#7200fe"/><stop offset=".731" style="stop-color:#6200fe"/><stop offset=".921" style="stop-color:#4b00fd"/><stop offset="1" style="stop-color:#3f00fc"/></linearGradient><path style="fill:url(#SVGID_20_)" d="M295.1 248.7v25.5l22.1 12.6v-25.2z"/><linearGradient id="SVGID_21_" gradientUnits="userSpaceOnUse" x1="297.339" y1="228.909" x2="413.505" y2="228.909"><stop offset="0" style="stop-color:#7f00ff"/><stop offset=".298" style="stop-color:#7c00ff"/><stop offset=".526" style="stop-color:#7200fe"/><stop offset=".731" style="stop-color:#6200fe"/><stop offset=".921" style="stop-color:#4b00fd"/><stop offset="1" style="stop-color:#3f00fc"/></linearGradient><path style="fill:url(#SVGID_21_)" d="m391.3 261.9-94-53.1 22.2-12.9 94 53.4"/><linearGradient id="SVGID_22_" gradientUnits="userSpaceOnUse" x1="295.069" y1="228.059" x2="408.729" y2="228.059"><stop offset="0" style="stop-color:#7f00ff"/><stop offset=".298" style="stop-color:#7c00ff"/><stop offset=".526" style="stop-color:#7200fe"/><stop offset=".731" style="stop-color:#6200fe"/><stop offset=".921" style="stop-color:#4b00fd"/><stop offset="1" style="stop-color:#3f00fc"/></linearGradient><path style="fill:url(#SVGID_22_)" d="m295.1 248.7 91.5-54.2 22.1 12.6-91.5 54.5"/><linearGradient id="SVGID_23_" gradientUnits="userSpaceOnUse" x1="342.779" y1="208.43" x2="379.093" y2="208.43"><stop offset="0" style="stop-color:#a300ff"/><stop offset=".223" style="stop-color:#a000ff"/><stop offset=".394" style="stop-color:#9600ff"/><stop offset=".548" style="stop-color:#8600fe"/><stop offset=".691" style="stop-color:#6f00fe"/><stop offset=".828" style="stop-color:#5100fd"/><stop offset=".957" style="stop-color:#2d00fc"/><stop offset="1" style="stop-color:#1f00fc"/></linearGradient><path d="M379.1 191.7c-2.4-.8-5.5-.4-9.2 1.6-11.9 6.6-11.4 21.1-11.7 31.1-.1 4.4-.3 7.9-1.9 9.4 0 0-.4.3-.7.6l-12.9-9.7c2.1-2 1.8-7.7 2-14.2.3-9.4 1.4-20.7 11.6-26.3 5.8-3.2 9.4-1.3 12.8.9 2.2 1.4 7.9 5.2 10 6.6z" style="fill:url(#SVGID_23_)"/><linearGradient id="SVGID_24_" gradientUnits="userSpaceOnUse" x1="342.779" y1="223.066" x2="358.196" y2="223.066"><stop offset="0" style="stop-color:#a300ff"/><stop offset=".223" style="stop-color:#a000ff"/><stop offset=".394" style="stop-color:#9600ff"/><stop offset=".548" style="stop-color:#8600fe"/><stop offset=".691" style="stop-color:#6f00fe"/><stop offset=".828" style="stop-color:#5100fd"/><stop offset=".957" style="stop-color:#2d00fc"/><stop offset="1" style="stop-color:#1f00fc"/></linearGradient><path d="M356.4 233.8s-.3.5-1.1 1.1l-2.4.8-10.1-11c2.1-2 1.8-7.7 2-14.2 0 .3.1.6.1.9-.1 11.8 13.3 16.6 13.3 16.6s-.3 4.3-1.8 5.8z" style="fill:url(#SVGID_24_)"/><linearGradient id="SVGID_25_" gradientUnits="userSpaceOnUse" x1="355.258" y1="213.09" x2="385.129" y2="213.09"><stop offset="0" style="stop-color:#a300ff"/><stop offset=".223" style="stop-color:#a000ff"/><stop offset=".394" style="stop-color:#9600ff"/><stop offset=".548" style="stop-color:#8600fe"/><stop offset=".691" style="stop-color:#6f00fe"/><stop offset=".828" style="stop-color:#5100fd"/><stop offset=".957" style="stop-color:#2d00fc"/><stop offset="1" style="stop-color:#1f00fc"/></linearGradient><path d="M370.9 225.1c-21.7 14.3-14.6 8.6-14.6 8.6 2.1-2.1 1.8-7.9 2-14.6l.9-.6c9-6 13.3-14.1 14.1-20.9.2-2.1.1-4-.3-5.8 5.3-1.7 9.1.3 10.9 4.3 3.3 7.1.1 20.4-13 29z" style="fill:url(#SVGID_25_)"/><linearGradient id="SVGID_26_" gradientUnits="userSpaceOnUse" x1="373.008" y1="194.489" x2="383.92" y2="194.489"><stop offset="0" style="stop-color:#a300ff"/><stop offset=".223" style="stop-color:#a000ff"/><stop offset=".394" style="stop-color:#9600ff"/><stop offset=".548" style="stop-color:#8600fe"/><stop offset=".691" style="stop-color:#6f00fe"/><stop offset=".828" style="stop-color:#5100fd"/><stop offset=".957" style="stop-color:#2d00fc"/><stop offset="1" style="stop-color:#1f00fc"/></linearGradient><path d="M373.3 197.7c.2-2.1.1-4-.3-5.8 5.3-1.7 9.1.3 10.9 4.3-3.4.4-7.3 1-10.6 1.5z" style="fill:url(#SVGID_26_)"/><linearGradient id="SVGID_27_" gradientUnits="userSpaceOnUse" x1="314.105" y1="225.993" x2="357.432" y2="225.993"><stop offset="0" style="stop-color:#a300ff"/><stop offset=".223" style="stop-color:#a000ff"/><stop offset=".394" style="stop-color:#9600ff"/><stop offset=".548" style="stop-color:#8600fe"/><stop offset=".691" style="stop-color:#6f00fe"/><stop offset=".828" style="stop-color:#5100fd"/><stop offset=".957" style="stop-color:#2d00fc"/><stop offset="1" style="stop-color:#1f00fc"/></linearGradient><path d="M357 233.5c-6.1-.1-10.4-26.2-27.3-25.8 6.6 7.6 9.9 19.1 13.9 19.2 0 0 4.9-.6-19.1 8.6-3.9 1.5-7.3 2.1-10.4 2.2 4 5.9 11.9 9 23.8 4.5 24-9.3 19.1-8.7 19.1-8.7z" style="fill:url(#SVGID_27_)"/><linearGradient id="SVGID_28_" gradientUnits="userSpaceOnUse" x1="301.579" y1="221.633" x2="336.139" y2="221.633"><stop offset="0" style="stop-color:#a300ff"/><stop offset=".223" style="stop-color:#a000ff"/><stop offset=".394" style="stop-color:#9600ff"/><stop offset=".548" style="stop-color:#8600fe"/><stop offset=".691" style="stop-color:#6f00fe"/><stop offset=".828" style="stop-color:#5100fd"/><stop offset=".957" style="stop-color:#2d00fc"/><stop offset="1" style="stop-color:#1f00fc"/></linearGradient><path d="M336.1 208.9c-3.3-1.4-7.1-1.8-11.8-.3-4.7 1.5-8.2 4.5-10.4 8.1-4.8 8-3.6 19 3.4 24.4-3.4-1.9-9.4-5.4-10.5-6.3-5.9-5.4-6.9-15.1-3-22.6 2.2-4.1 5.8-7.5 10.9-9.1 3.9-1.2 7.3-1.2 10.2-.3 2 .6 8 4.2 11.2 6.1z" style="fill:url(#SVGID_28_)"/><linearGradient id="XMLID_25_" gradientUnits="userSpaceOnUse" x1="151.076" y1="-16291.133" x2="201.062" y2="-16104.581" gradientTransform="matrix(1 0 0 -1 0 -15884)"><stop offset="0" style="stop-color:#4f3e90"/><stop offset="1" style="stop-color:#171a31"/></linearGradient><path id="XMLID_12_" style="fill:url(#XMLID_25_)" d="M89.7 363.9v-100l86.1-50.1 86.7 50v100.1l-86.1 50z"/><linearGradient id="XMLID_26_" gradientUnits="userSpaceOnUse" x1="163.582" y1="-16194.434" x2="188.556" y2="-16101.23" gradientTransform="matrix(1 0 0 -1 0 -15884)"><stop offset="0" style="stop-color:#4f3e90"/><stop offset="1" style="stop-color:#171a31"/></linearGradient><path id="XMLID_11_" style="fill:url(#XMLID_26_)" d="m175.8 213.8 86.7 50-86.1 50.1-86.7-50z"/><linearGradient id="XMLID_27_" gradientUnits="userSpaceOnUse" x1="203.535" y1="-16163.617" x2="235.287" y2="-16282.12" gradientTransform="matrix(1 0 0 -1 0 -15884)"><stop offset="0" style="stop-color:#4f3e90"/><stop offset="1" style="stop-color:#171a31"/></linearGradient><path id="XMLID_8_" style="fill:url(#XMLID_27_)" d="M176.4 413.9v-100l86.1-50.1v100.1z"/><linearGradient id="SVGID_29_" gradientUnits="userSpaceOnUse" x1="211.561" y1="345.086" x2="233.721" y2="345.086"><stop offset="0" style="stop-color:#7f00ff"/><stop offset=".298" style="stop-color:#7c00ff"/><stop offset=".526" style="stop-color:#7200fe"/><stop offset=".731" style="stop-color:#6200fe"/><stop offset=".921" style="stop-color:#4b00fd"/><stop offset="1" style="stop-color:#3f00fc"/></linearGradient><path style="fill:url(#SVGID_29_)" d="m233.7 296.7-22.1 13.5v83.3l22.1-13.5z"/><linearGradient id="SVGID_30_" gradientUnits="userSpaceOnUse" x1="118.831" y1="226.337" x2="141.531" y2="311.056" gradientTransform="matrix(1 0 0 -1 0 613.956)"><stop offset="0" style="stop-color:#7f00ff"/><stop offset=".298" style="stop-color:#7c00ff"/><stop offset=".526" style="stop-color:#7200fe"/><stop offset=".731" style="stop-color:#6200fe"/><stop offset=".921" style="stop-color:#4b00fd"/><stop offset="1" style="stop-color:#3f00fc"/></linearGradient><path style="fill:url(#SVGID_30_)" d="m141.3 393.6-22.2-13.4v-83.3l22.2 13.5z"/><path class="st6" d="m233.7 380.6-22.1 12.9 22.1-13.5z"/><path class="st7" d="M119.1 380.9v-.7l22.2 13.4z"/><linearGradient id="XMLID_28_" gradientUnits="userSpaceOnUse" x1="162.97" y1="-16219.181" x2="189.763" y2="-16119.189" gradientTransform="matrix(1 0 0 -1 0 -15884)"><stop offset="0" style="stop-color:#4f3e90"/><stop offset="1" style="stop-color:#171a31"/></linearGradient><path id="XMLID_6_" style="fill:url(#XMLID_28_)" d="m176.1 231.5 92.9 53.7-92.3 53.7-93-53.7z"/><linearGradient id="XMLID_29_" gradientUnits="userSpaceOnUse" x1="162.97" y1="-16193.68" x2="189.763" y2="-16093.688" gradientTransform="matrix(1 0 0 -1 0 -15884)"><stop offset="0" style="stop-color:#4f3e90"/><stop offset="1" style="stop-color:#171a31"/></linearGradient><path id="XMLID_4_" style="fill:url(#XMLID_29_)" d="m176.1 206 92.9 53.7-92.3 53.7-93-53.7z"/><linearGradient id="SVGID_31_" gradientUnits="userSpaceOnUse" x1="216.063" y1="273.892" x2="229.669" y2="324.671"><stop offset="0" style="stop-color:#4f3e90"/><stop offset="1" style="stop-color:#171a31"/></linearGradient><path style="fill:url(#SVGID_31_)" d="M176.7 313.4v25.5l92.3-53.7v-25.5z"/><linearGradient id="SVGID_32_" gradientUnits="userSpaceOnUse" x1="117.173" y1="250.733" x2="143.19" y2="347.829"><stop offset="0" style="stop-color:#4f3e90"/><stop offset="1" style="stop-color:#171a31"/></linearGradient><path style="fill:url(#SVGID_32_)" d="M83.7 259.7v25.5l93 53.7v-25.5z"/><linearGradient id="SVGID_33_" gradientUnits="userSpaceOnUse" x1="213.107" y1="298.679" x2="235.267" y2="298.679"><stop offset="0" style="stop-color:#7f00ff"/><stop offset=".298" style="stop-color:#7c00ff"/><stop offset=".526" style="stop-color:#7200fe"/><stop offset=".731" style="stop-color:#6200fe"/><stop offset=".921" style="stop-color:#4b00fd"/><stop offset="1" style="stop-color:#3f00fc"/></linearGradient><path style="fill:url(#SVGID_33_)" d="M213.1 317.7v-25.5l22.2-12.6v25.2z"/><linearGradient id="SVGID_34_" gradientUnits="userSpaceOnUse" x1="116.832" y1="298.089" x2="138.992" y2="298.089"><stop offset="0" style="stop-color:#7f00ff"/><stop offset=".298" style="stop-color:#7c00ff"/><stop offset=".526" style="stop-color:#7200fe"/><stop offset=".731" style="stop-color:#6200fe"/><stop offset=".921" style="stop-color:#4b00fd"/><stop offset="1" style="stop-color:#3f00fc"/></linearGradient><path style="fill:url(#SVGID_34_)" d="M116.8 279.1v25.5l22.2 12.5v-25.2z"/><linearGradient id="SVGID_35_" gradientUnits="userSpaceOnUse" x1="119.101" y1="259.229" x2="235.267" y2="259.229"><stop offset="0" style="stop-color:#7f00ff"/><stop offset=".298" style="stop-color:#7c00ff"/><stop offset=".526" style="stop-color:#7200fe"/><stop offset=".731" style="stop-color:#6200fe"/><stop offset=".921" style="stop-color:#4b00fd"/><stop offset="1" style="stop-color:#3f00fc"/></linearGradient><path style="fill:url(#SVGID_35_)" d="m213.1 292.2-94-53.1 22.2-12.9 94 53.4"/><linearGradient id="SVGID_36_" gradientUnits="userSpaceOnUse" x1="116.832" y1="258.378" x2="230.491" y2="258.378"><stop offset="0" style="stop-color:#7f00ff"/><stop offset=".298" style="stop-color:#7c00ff"/><stop offset=".526" style="stop-color:#7200fe"/><stop offset=".731" style="stop-color:#6200fe"/><stop offset=".921" style="stop-color:#4b00fd"/><stop offset="1" style="stop-color:#3f00fc"/></linearGradient><path style="fill:url(#SVGID_36_)" d="m116.8 279.1 91.5-54.3 22.2 12.6-91.5 54.5"/><linearGradient id="SVGID_37_" gradientUnits="userSpaceOnUse" x1="164.541" y1="238.75" x2="200.855" y2="238.75"><stop offset="0" style="stop-color:#a300ff"/><stop offset=".223" style="stop-color:#a000ff"/><stop offset=".394" style="stop-color:#9600ff"/><stop offset=".548" style="stop-color:#8600fe"/><stop offset=".691" style="stop-color:#6f00fe"/><stop offset=".828" style="stop-color:#5100fd"/><stop offset=".957" style="stop-color:#2d00fc"/><stop offset="1" style="stop-color:#1f00fc"/></linearGradient><path d="M200.9 222c-2.4-.8-5.5-.4-9.2 1.6-11.9 6.6-11.4 21.1-11.7 31.1-.1 4.4-.3 7.9-1.9 9.4 0 0-.4.3-.7.6l-12.9-9.7c2.1-2 1.8-7.7 2-14.2.3-9.4 1.4-20.7 11.6-26.3 5.8-3.2 9.4-1.3 12.8.9 2.2 1.4 7.8 5.2 10 6.6z" style="fill:url(#SVGID_37_)"/><linearGradient id="SVGID_38_" gradientUnits="userSpaceOnUse" x1="164.541" y1="253.386" x2="179.958" y2="253.386"><stop offset="0" style="stop-color:#a300ff"/><stop offset=".223" style="stop-color:#a000ff"/><stop offset=".394" style="stop-color:#9600ff"/><stop offset=".548" style="stop-color:#8600fe"/><stop offset=".691" style="stop-color:#6f00fe"/><stop offset=".828" style="stop-color:#5100fd"/><stop offset=".957" style="stop-color:#2d00fc"/><stop offset="1" style="stop-color:#1f00fc"/></linearGradient><path d="M178.1 264.1s-.3.5-1.1 1.1l-2.4.8-10.1-11c2.1-2 1.8-7.7 2-14.2 0 .3.1.6.1.9-.1 11.8 13.3 16.6 13.3 16.6s-.2 4.3-1.8 5.8z" style="fill:url(#SVGID_38_)"/><linearGradient id="SVGID_39_" gradientUnits="userSpaceOnUse" x1="177.02" y1="243.41" x2="206.891" y2="243.41"><stop offset="0" style="stop-color:#a300ff"/><stop offset=".223" style="stop-color:#a000ff"/><stop offset=".394" style="stop-color:#9600ff"/><stop offset=".548" style="stop-color:#8600fe"/><stop offset=".691" style="stop-color:#6f00fe"/><stop offset=".828" style="stop-color:#5100fd"/><stop offset=".957" style="stop-color:#2d00fc"/><stop offset="1" style="stop-color:#1f00fc"/></linearGradient><path d="M192.7 255.5c-21.7 14.3-14.6 8.6-14.6 8.6 2.1-2.1 1.8-7.9 2-14.6l.9-.6c9-6 13.3-14.1 14.1-20.9.2-2.1.1-4-.3-5.8 5.3-1.7 9.1.3 10.9 4.3 3.3 7.1.1 20.3-13 29z" style="fill:url(#SVGID_39_)"/><linearGradient id="SVGID_40_" gradientUnits="userSpaceOnUse" x1="194.77" y1="224.809" x2="205.682" y2="224.809"><stop offset="0" style="stop-color:#a300ff"/><stop offset=".223" style="stop-color:#a000ff"/><stop offset=".394" style="stop-color:#9600ff"/><stop offset=".548" style="stop-color:#8600fe"/><stop offset=".691" style="stop-color:#6f00fe"/><stop offset=".828" style="stop-color:#5100fd"/><stop offset=".957" style="stop-color:#2d00fc"/><stop offset="1" style="stop-color:#1f00fc"/></linearGradient><path d="M195.1 228c.2-2.1.1-4-.3-5.8 5.3-1.7 9.1.3 10.9 4.3-3.5.5-7.3 1-10.6 1.5z" style="fill:url(#SVGID_40_)"/><linearGradient id="SVGID_41_" gradientUnits="userSpaceOnUse" x1="135.867" y1="256.313" x2="179.194" y2="256.313"><stop offset="0" style="stop-color:#a300ff"/><stop offset=".223" style="stop-color:#a000ff"/><stop offset=".394" style="stop-color:#9600ff"/><stop offset=".548" style="stop-color:#8600fe"/><stop offset=".691" style="stop-color:#6f00fe"/><stop offset=".828" style="stop-color:#5100fd"/><stop offset=".957" style="stop-color:#2d00fc"/><stop offset="1" style="stop-color:#1f00fc"/></linearGradient><path d="M178.8 263.8c-6.1-.1-10.4-26.2-27.3-25.8 6.6 7.6 9.9 19.1 13.9 19.2 0 0 4.9-.6-19.1 8.6-3.9 1.5-7.3 2.1-10.4 2.2 4 5.9 11.9 9 23.8 4.5 24-9.2 19.1-8.7 19.1-8.7z" style="fill:url(#SVGID_41_)"/><linearGradient id="SVGID_42_" gradientUnits="userSpaceOnUse" x1="123.341" y1="251.952" x2="157.901" y2="251.952"><stop offset="0" style="stop-color:#a300ff"/><stop offset=".223" style="stop-color:#a000ff"/><stop offset=".394" style="stop-color:#9600ff"/><stop offset=".548" style="stop-color:#8600fe"/><stop offset=".691" style="stop-color:#6f00fe"/><stop offset=".828" style="stop-color:#5100fd"/><stop offset=".957" style="stop-color:#2d00fc"/><stop offset="1" style="stop-color:#1f00fc"/></linearGradient><path d="M157.9 239.3c-3.3-1.4-7.1-1.8-11.8-.3-4.7 1.5-8.2 4.5-10.4 8.1-4.8 8-3.6 19 3.4 24.4-3.4-1.9-9.4-5.4-10.5-6.3-5.9-5.4-6.9-15.1-3-22.6 2.2-4.1 5.8-7.5 10.9-9.1 3.9-1.2 7.3-1.2 10.2-.3 1.9.5 8 4.1 11.2 6.1z" style="fill:url(#SVGID_42_)"/></g></switch></svg>