<svg xmlns="http://www.w3.org/2000/svg" viewBox="-107.6 -8 633.2 479" style="enable-background:new -107.6 -8 633.2 479" xml:space="preserve"><style>.st5{fill:none}.st93{fill:#f8fbff}</style><path d="M-708.3 350V94L-930-34l-221.7 128v256L-930 478l221.7-128zm-352.9-203.7L-930 70.6l131.2 75.7v151.4L-930 373.4l-131.2-75.7V146.3zM-930 294.6l-62.9-36.3v-72.6l62.9-36.3 62.9 36.3v72.6l-62.9 36.3z" style="fill:#7f00ff" id="Capa_1"/><g id="Calque_2"><g id="XMLID_74_"><path id="XMLID_72_" d="m262 444.1-275.5-159c-3.8-2.2-3.8-7.7 0-9.9l155.7-89.9c4.3-2.5 9.5-2.5 13.7 0l275.5 159.1c3.8 2.2 3.8 7.7 0 9.9l-155.7 89.9c-4.2 2.4-9.4 2.4-13.7-.1z" style="opacity:.2;fill:#1e2228"/><g id="XMLID_440_"><linearGradient id="XMLID_22_" gradientUnits="userSpaceOnUse" x1="269.494" y1="335.86" x2="433.651" y2="335.86"><stop offset="0" style="stop-color:#4f3e90"/><stop offset="1" style="stop-color:#171a31"/></linearGradient><path id="XMLID_459_" d="m399.2 313.6-129.7-74.9V433c2.3-.1 4.5-.6 6.5-1.8l68.1-39.3 86.7-50.1c1.9-1.1 2.9-3 2.9-4.9v-19.1l-34.5-4.2z" style="fill:url(#XMLID_22_)"/><linearGradient id="XMLID_23_" gradientUnits="userSpaceOnUse" x1="-14.385" y1="302.45" x2="269.494" y2="302.45"><stop offset="0" style="stop-color:#4f3e90"/><stop offset="1" style="stop-color:#171a31"/></linearGradient><path id="XMLID_458_" d="M156.9 173.8c-4.2-2.4-9.4-2.4-13.7 0L7.5 252.2V249h-21.9v18.9c-.1 2 .9 4 2.8 5.1l273.9 158.1c2.2 1.3 4.7 1.9 7.2 1.8V238.8l-112.6-65z" style="fill:url(#XMLID_23_)"/><linearGradient id="XMLID_37_" gradientUnits="userSpaceOnUse" x1="-14.385" y1="283.341" x2="433.651" y2="283.341"><stop offset="0" style="stop-color:#4f3e90"/><stop offset="1" style="stop-color:#171a31"/></linearGradient><path id="XMLID_455_" d="M262.3 412-11.5 253.9c-3.8-2.2-3.8-7.7 0-9.9l154.8-89.4c4.2-2.4 9.4-2.4 13.7 0l273.9 158.1c3.8 2.2 3.8 7.7 0 9.9L276 412c-4.2 2.5-9.4 2.5-13.7 0z" style="fill:url(#XMLID_37_)"/><g id="XMLID_443_"><path id="XMLID_452_" class="st5" d="M105.9 191.5v114.9l21.7 12.5V179z"/><path id="XMLID_451_" class="st5" d="M150.9 166.4v166L254 391.9V226z"/><path id="XMLID_450_" class="st5" d="m6.4 249 85.5 49.4v-98.8z"/><path id="XMLID_449_" class="st5" d="m397.7 308.9-48.1-27.8v55.6z"/><path id="XMLID_448_" class="st5" d="M326.2 350.2v-82.5l-25.5-14.8V365z"/></g></g><g id="XMLID_244_"><path id="XMLID_439_" d="M408.2 271.2 147.5 120.7s-.1-.1-.2-.1-.2 0-.2.1L-4.2 208l261 150.7 151.4-87.5z" style="opacity:.8;fill:#283644"/><g id="XMLID_245_"><path id="XMLID_431_" d="M142.1 274.9c-.2 0-.4-.1-.5-.3-.2-.3-.1-.6.2-.8l4.8-2.9c.3-.2.6-.1.8.2.2.3.1.6-.2.8l-4.8 2.9c-.1 0-.2.1-.3.1zm13.5-8.1c-.2 0-.4-.1-.5-.3-.2-.3-.1-.6.2-.8l4.8-2.9c.3-.2.6-.1.8.2.2.3.1.6-.2.8l-4.8 2.9c-.1.1-.2.1-.3.1zm13.4-8.1c-.2 0-.4-.1-.5-.3-.2-.3-.1-.6.2-.8l4.8-2.9c.3-.2.6-.1.8.2.2.3.1.6-.2.8l-4.8 2.9c-.1.1-.2.1-.3.1zm13.5-8c-.2 0-.4-.1-.5-.3-.2-.3-.1-.6.2-.8l4.8-2.9c.3-.2.6-.1.8.2.2.3.1.6-.2.8l-4.8 2.9c-.1 0-.2.1-.3.1zm13.4-8.1c-.2 0-.4-.1-.5-.3-.2-.3-.1-.6.2-.8l4.8-2.9c.3-.2.6-.1.8.2.2.3.1.6-.2.8l-4.8 2.9c-.1.1-.2.1-.3.1zm13.4-8.1c-.2 0-.4-.1-.5-.3-.2-.3-.1-.6.2-.8l4.8-2.9c.3-.2.6-.1.8.2.2.3.1.6-.2.8l-4.8 2.9c-.1.1-.2.1-.3.1zm13.5-8c-.2 0-.4-.1-.5-.3-.2-.3-.1-.6.2-.8l4.8-2.9c.3-.2.6-.1.8.2.2.3.1.6-.2.8l-4.8 2.9c-.1 0-.2.1-.3.1z" style="opacity:.5;fill:#f8fbff"/><linearGradient id="XMLID_38_" gradientUnits="userSpaceOnUse" x1="82.385" y1="158.558" x2="175.622" y2="158.558"><stop offset="0" style="stop-color:#0f9"/><stop offset="1" style="stop-color:#3cf"/></linearGradient><path id="XMLID_430_" style="fill:url(#XMLID_38_)" d="m116.2 185.5-33.8-19.7 59.4-34.2 33.8 19.8z"/><g id="XMLID_427_"><linearGradient id="XMLID_39_" gradientUnits="userSpaceOnUse" x1="107.304" y1="175.117" x2="109.544" y2="175.117"><stop offset="0" style="stop-color:#4f3e90"/><stop offset="1" style="stop-color:#171a31"/></linearGradient><path id="XMLID_429_" d="M108.4 187.3c-.6 0-1.1-.5-1.1-1.1v-22c0-.6.5-1.1 1.1-1.1.6 0 1.1.5 1.1 1.1v22c0 .5-.5 1.1-1.1 1.1z" style="fill:url(#XMLID_39_)"/><linearGradient id="XMLID_40_" gradientUnits="userSpaceOnUse" x1="100.958" y1="166.811" x2="115.891" y2="166.811"><stop offset="0" style="stop-color:#0f9"/><stop offset="1" style="stop-color:#3cf"/></linearGradient><ellipse id="XMLID_428_" cx="108.4" cy="166.8" rx="7.5" ry="10.2" style="fill:url(#XMLID_40_)"/></g><g id="XMLID_421_"><linearGradient id="XMLID_41_" gradientUnits="userSpaceOnUse" x1="67.395" y1="136.733" x2="104.645" y2="136.733"><stop offset="0" style="stop-color:#4f3e90"/><stop offset="1" style="stop-color:#171a31"/></linearGradient><path id="XMLID_424_" style="fill:url(#XMLID_41_)" d="m86 147.5-18.6-10.8L86 126l18.6 10.7z"/><linearGradient id="XMLID_42_" gradientUnits="userSpaceOnUse" x1="67.395" y1="169.734" x2="86.02" y2="169.734"><stop offset="0" style="stop-color:#4f3e90"/><stop offset="1" style="stop-color:#171a31"/></linearGradient><path id="XMLID_423_" style="fill:url(#XMLID_42_)" d="M86 202.7 67.4 192v-55.3L86 147.5z"/><linearGradient id="XMLID_43_" gradientUnits="userSpaceOnUse" x1="86.02" y1="169.734" x2="104.645" y2="169.734"><stop offset="0" style="stop-color:#4f3e90"/><stop offset="1" style="stop-color:#171a31"/></linearGradient><path id="XMLID_422_" style="fill:url(#XMLID_43_)" d="M86 202.7v-55.2l18.6-10.8V192z"/></g><g id="XMLID_415_"><g id="XMLID_65_"><linearGradient id="SVGID_1_" gradientUnits="userSpaceOnUse" x1="162.702" y1="137.378" x2="220.887" y2="137.378"><stop offset="0" style="stop-color:#4f3e90"/><stop offset="1" style="stop-color:#171a31"/></linearGradient><path style="fill:url(#SVGID_1_)" d="m196.7 151-34-19.8 12.9-7.5 45.3 13.8z"/></g><linearGradient id="XMLID_44_" gradientUnits="userSpaceOnUse" x1="162.702" y1="160.271" x2="196.713" y2="160.271"><stop offset="0" style="stop-color:#4f3e90"/><stop offset="1" style="stop-color:#171a31"/></linearGradient><path id="XMLID_64_" style="fill:url(#XMLID_44_)" d="m196.7 189.3-34-19.8v-38.3l34 19.8z"/><linearGradient id="XMLID_45_" gradientUnits="userSpaceOnUse" x1="196.713" y1="163.409" x2="220.887" y2="163.409"><stop offset="0" style="stop-color:#4f3e90"/><stop offset="1" style="stop-color:#171a31"/></linearGradient><path id="XMLID_63_" style="fill:url(#XMLID_45_)" d="M196.7 189.3V151l24.2-13.5v38.3z"/></g><g id="XMLID_409_"><linearGradient id="XMLID_46_" gradientUnits="userSpaceOnUse" x1="24.163" y1="125.825" x2="78.398" y2="125.825"><stop offset="0" style="stop-color:#4f3e90"/><stop offset="1" style="stop-color:#171a31"/></linearGradient><path id="XMLID_412_" style="fill:url(#XMLID_46_)" d="m51.3 141.5-27.1-15.7 27.1-15.6 27.1 15.6z"/><linearGradient id="XMLID_47_" gradientUnits="userSpaceOnUse" x1="24.163" y1="173.874" x2="51.281" y2="173.874"><stop offset="0" style="stop-color:#4f3e90"/><stop offset="1" style="stop-color:#171a31"/></linearGradient><path id="XMLID_411_" style="fill:url(#XMLID_47_)" d="m51.3 221.9-27.1-15.6v-80.5l27.1 15.7z"/><linearGradient id="XMLID_48_" gradientUnits="userSpaceOnUse" x1="51.281" y1="173.874" x2="78.398" y2="173.874"><stop offset="0" style="stop-color:#4f3e90"/><stop offset="1" style="stop-color:#171a31"/></linearGradient><path id="XMLID_410_" style="fill:url(#XMLID_48_)" d="M51.3 221.9v-80.4l27.1-15.7v80.5z"/></g><linearGradient id="XMLID_49_" gradientUnits="userSpaceOnUse" x1="122.178" y1="152.827" x2="152.745" y2="152.827"><stop offset="0" style="stop-color:#3f00fc"/><stop offset=".208" style="stop-color:#3f02f7"/><stop offset=".467" style="stop-color:#3e09e7"/><stop offset=".753" style="stop-color:#3e14ce"/><stop offset="1" style="stop-color:#3d20b2"/></linearGradient><path id="XMLID_403_" d="M122.2 154.9c-.3 1.8.4 4 2.1 4.8 2.5 1.2 5.2-.7 7.9-1.4 2.5-.7 5.4-.2 7.6 1.3.8.5 1.5 1.2 2.5 1.6 1.6.6 3.4.1 5-.4 1.3-.4 2.6-.9 3.6-1.8 2.3-2 2.4-5.7.9-8.4-5.8-10.1-27.5-8.1-29.6 4.3z" style="fill:url(#XMLID_49_)"/><g id="XMLID_397_"><g id="XMLID_61_"><linearGradient id="SVGID_2_" gradientUnits="userSpaceOnUse" x1="202.262" y1="136.733" x2="239.512" y2="136.733"><stop offset="0" style="stop-color:#4f3e90"/><stop offset="1" style="stop-color:#171a31"/></linearGradient><path style="fill:url(#SVGID_2_)" d="m220.9 147.5-18.6-10.8 18.6-10.7 18.6 10.7z"/></g><linearGradient id="XMLID_50_" gradientUnits="userSpaceOnUse" x1="202.262" y1="169.734" x2="220.887" y2="169.734"><stop offset="0" style="stop-color:#4f3e90"/><stop offset="1" style="stop-color:#171a31"/></linearGradient><path id="XMLID_60_" style="fill:url(#XMLID_50_)" d="M220.9 202.7 202.3 192v-55.3l18.6 10.8z"/><linearGradient id="XMLID_51_" gradientUnits="userSpaceOnUse" x1="220.887" y1="169.734" x2="239.512" y2="169.734"><stop offset="0" style="stop-color:#4f3e90"/><stop offset="1" style="stop-color:#171a31"/></linearGradient><path id="XMLID_59_" style="fill:url(#XMLID_51_)" d="M220.9 202.7v-55.2l18.6-10.8V192z"/></g><g id="XMLID_391_"><g id="XMLID_57_"><linearGradient id="SVGID_3_" gradientUnits="userSpaceOnUse" x1="230.199" y1="136.669" x2="295.953" y2="136.669"><stop offset="0" style="stop-color:#4f3e90"/><stop offset="1" style="stop-color:#171a31"/></linearGradient><path style="fill:url(#SVGID_3_)" d="m277.3 155.2-47.1-26.3 18.6-10.8 47.2 26.4z"/></g><linearGradient id="XMLID_52_" gradientUnits="userSpaceOnUse" x1="230.199" y1="182.361" x2="277.328" y2="182.361"><stop offset="0" style="stop-color:#4f3e90"/><stop offset="1" style="stop-color:#171a31"/></linearGradient><path id="XMLID_56_" style="fill:url(#XMLID_52_)" d="m277.3 235.8-47.1-26.3v-80.6l47.1 26.3z"/><linearGradient id="XMLID_53_" gradientUnits="userSpaceOnUse" x1="277.328" y1="190.15" x2="295.953" y2="190.15"><stop offset="0" style="stop-color:#4f3e90"/><stop offset="1" style="stop-color:#171a31"/></linearGradient><path id="XMLID_55_" style="fill:url(#XMLID_53_)" d="M277.3 235.8v-80.6l18.7-10.7v80.6z"/></g><g id="XMLID_385_"><linearGradient id="XMLID_54_" gradientUnits="userSpaceOnUse" x1="139.232" y1="190.514" x2="184.934" y2="190.514"><stop offset="0" style="stop-color:#4f3e90"/><stop offset="1" style="stop-color:#171a31"/></linearGradient><path id="XMLID_388_" style="fill:url(#XMLID_54_)" d="m166.3 203.5-27.1-15.2 18.7-10.8 27 15.3z"/><linearGradient id="XMLID_58_" gradientUnits="userSpaceOnUse" x1="139.232" y1="207.788" x2="166.31" y2="207.788"><stop offset="0" style="stop-color:#4f3e90"/><stop offset="1" style="stop-color:#171a31"/></linearGradient><path id="XMLID_387_" style="fill:url(#XMLID_58_)" d="m166.3 227.3-27.1-15.2v-23.8l27.1 15.2z"/><linearGradient id="XMLID_67_" gradientUnits="userSpaceOnUse" x1="166.31" y1="210.025" x2="184.934" y2="210.025"><stop offset="0" style="stop-color:#4f3e90"/><stop offset="1" style="stop-color:#171a31"/></linearGradient><path id="XMLID_386_" style="fill:url(#XMLID_67_)" d="M166.3 227.3v-23.8l18.6-10.7v23.7z"/></g><g id="XMLID_382_"><linearGradient id="XMLID_68_" gradientUnits="userSpaceOnUse" x1="285.52" y1="228.466" x2="287.76" y2="228.466"><stop offset="0" style="stop-color:#4f3e90"/><stop offset="1" style="stop-color:#171a31"/></linearGradient><path id="XMLID_384_" d="M286.6 240.6c-.6 0-1.1-.5-1.1-1.1v-22c0-.6.5-1.1 1.1-1.1.6 0 1.1.5 1.1 1.1v22c.1.6-.4 1.1-1.1 1.1z" style="fill:url(#XMLID_68_)"/><linearGradient id="XMLID_69_" gradientUnits="userSpaceOnUse" x1="279.174" y1="220.16" x2="294.107" y2="220.16"><stop offset="0" style="stop-color:#0f9"/><stop offset="1" style="stop-color:#3cf"/></linearGradient><ellipse id="XMLID_383_" cx="286.6" cy="220.2" rx="7.5" ry="10.2" style="fill:url(#XMLID_69_)"/></g><g id="XMLID_379_"><linearGradient id="XMLID_71_" gradientUnits="userSpaceOnUse" x1="302.299" y1="238.639" x2="304.539" y2="238.639"><stop offset="0" style="stop-color:#4f3e90"/><stop offset="1" style="stop-color:#171a31"/></linearGradient><path id="XMLID_381_" d="M303.4 250.8c-.6 0-1.1-.5-1.1-1.1v-22c0-.6.5-1.1 1.1-1.1.6 0 1.1.5 1.1 1.1v22c0 .6-.5 1.1-1.1 1.1z" style="fill:url(#XMLID_71_)"/><linearGradient id="XMLID_73_" gradientUnits="userSpaceOnUse" x1="295.953" y1="230.333" x2="310.886" y2="230.333"><stop offset="0" style="stop-color:#0f9"/><stop offset="1" style="stop-color:#3cf"/></linearGradient><ellipse id="XMLID_380_" cx="303.4" cy="230.3" rx="7.5" ry="10.2" style="fill:url(#XMLID_73_)"/></g><g id="XMLID_376_"><linearGradient id="XMLID_75_" gradientUnits="userSpaceOnUse" x1="319.078" y1="248.812" x2="321.318" y2="248.812"><stop offset="0" style="stop-color:#4f3e90"/><stop offset="1" style="stop-color:#171a31"/></linearGradient><path id="XMLID_378_" d="M320.2 260.9c-.6 0-1.1-.5-1.1-1.1v-22c0-.6.5-1.1 1.1-1.1.6 0 1.1.5 1.1 1.1v22c0 .6-.5 1.1-1.1 1.1z" style="fill:url(#XMLID_75_)"/><linearGradient id="XMLID_76_" gradientUnits="userSpaceOnUse" x1="312.732" y1="240.506" x2="327.665" y2="240.506"><stop offset="0" style="stop-color:#0f9"/><stop offset="1" style="stop-color:#3cf"/></linearGradient><ellipse id="XMLID_377_" cx="320.2" cy="240.5" rx="7.5" ry="10.2" style="fill:url(#XMLID_76_)"/></g><g id="XMLID_373_"><linearGradient id="XMLID_77_" gradientUnits="userSpaceOnUse" x1="335.856" y1="258.985" x2="338.096" y2="258.985"><stop offset="0" style="stop-color:#4f3e90"/><stop offset="1" style="stop-color:#171a31"/></linearGradient><path id="XMLID_375_" d="M337 271.1c-.6 0-1.1-.5-1.1-1.1v-22c0-.6.5-1.1 1.1-1.1.6 0 1.1.5 1.1 1.1v22c0 .6-.5 1.1-1.1 1.1z" style="fill:url(#XMLID_77_)"/><linearGradient id="XMLID_78_" gradientUnits="userSpaceOnUse" x1="329.51" y1="250.679" x2="344.443" y2="250.679"><stop offset="0" style="stop-color:#0f9"/><stop offset="1" style="stop-color:#3cf"/></linearGradient><ellipse id="XMLID_374_" cx="337" cy="250.7" rx="7.5" ry="10.2" style="fill:url(#XMLID_78_)"/></g><g id="XMLID_370_"><linearGradient id="XMLID_79_" gradientUnits="userSpaceOnUse" x1="352.635" y1="269.158" x2="354.875" y2="269.158"><stop offset="0" style="stop-color:#4f3e90"/><stop offset="1" style="stop-color:#171a31"/></linearGradient><path id="XMLID_372_" d="M353.8 281.3c-.6 0-1.1-.5-1.1-1.1v-22c0-.6.5-1.1 1.1-1.1.6 0 1.1.5 1.1 1.1v22c0 .6-.5 1.1-1.1 1.1z" style="fill:url(#XMLID_79_)"/><linearGradient id="XMLID_80_" gradientUnits="userSpaceOnUse" x1="346.289" y1="260.852" x2="361.222" y2="260.852"><stop offset="0" style="stop-color:#0f9"/><stop offset="1" style="stop-color:#3cf"/></linearGradient><ellipse id="XMLID_371_" cx="353.8" cy="260.9" rx="7.5" ry="10.2" style="fill:url(#XMLID_80_)"/></g><g id="XMLID_364_"><linearGradient id="XMLID_81_" gradientUnits="userSpaceOnUse" x1="113.954" y1="210.025" x2="179.707" y2="210.025"><stop offset="0" style="stop-color:#4f3e90"/><stop offset="1" style="stop-color:#171a31"/></linearGradient><path id="XMLID_367_" style="fill:url(#XMLID_81_)" d="M161.1 228.6 114 202.2l18.6-10.7 47.1 26.3z"/><linearGradient id="XMLID_82_" gradientUnits="userSpaceOnUse" x1="113.954" y1="227.299" x2="161.083" y2="227.299"><stop offset="0" style="stop-color:#4f3e90"/><stop offset="1" style="stop-color:#171a31"/></linearGradient><path id="XMLID_366_" style="fill:url(#XMLID_82_)" d="M161.1 252.4 114 226v-23.8l47.1 26.4z"/><linearGradient id="XMLID_83_" gradientUnits="userSpaceOnUse" x1="161.083" y1="235.088" x2="179.707" y2="235.088"><stop offset="0" style="stop-color:#4f3e90"/><stop offset="1" style="stop-color:#171a31"/></linearGradient><path id="XMLID_365_" style="fill:url(#XMLID_83_)" d="M161.1 252.4v-23.8l18.6-10.8v23.8z"/></g><g id="XMLID_358_"><linearGradient id="XMLID_84_" gradientUnits="userSpaceOnUse" x1="83.834" y1="226.506" x2="149.588" y2="226.506"><stop offset="0" style="stop-color:#4f3e90"/><stop offset="1" style="stop-color:#171a31"/></linearGradient><path id="XMLID_361_" style="fill:url(#XMLID_84_)" d="m131 245-47.2-26.3 18.7-10.7 47.1 26.3z"/><linearGradient id="XMLID_85_" gradientUnits="userSpaceOnUse" x1="83.834" y1="243.781" x2="130.963" y2="243.781"><stop offset="0" style="stop-color:#4f3e90"/><stop offset="1" style="stop-color:#171a31"/></linearGradient><path id="XMLID_360_" style="fill:url(#XMLID_85_)" d="m131 268.8-47.2-26.3v-23.8L131 245z"/><linearGradient id="XMLID_86_" gradientUnits="userSpaceOnUse" x1="130.963" y1="251.57" x2="149.588" y2="251.57"><stop offset="0" style="stop-color:#4f3e90"/><stop offset="1" style="stop-color:#171a31"/></linearGradient><path id="XMLID_359_" style="fill:url(#XMLID_86_)" d="M131 268.8V245l18.6-10.7v23.8z"/></g><g id="XMLID_352_"><linearGradient id="XMLID_87_" gradientUnits="userSpaceOnUse" x1="200.404" y1="228.636" x2="237.367" y2="228.636"><stop offset="0" style="stop-color:#4f3e90"/><stop offset="1" style="stop-color:#171a31"/></linearGradient><path id="XMLID_355_" style="fill:url(#XMLID_87_)" d="m218.7 239.5-18.3-10.9 18.6-10.8 18.4 10.9z"/><linearGradient id="XMLID_88_" gradientUnits="userSpaceOnUse" x1="200.404" y1="245.911" x2="218.742" y2="245.911"><stop offset="0" style="stop-color:#4f3e90"/><stop offset="1" style="stop-color:#171a31"/></linearGradient><path id="XMLID_354_" style="fill:url(#XMLID_88_)" d="m218.7 263.3-18.3-10.9v-23.8l18.3 10.9z"/><linearGradient id="XMLID_89_" gradientUnits="userSpaceOnUse" x1="218.742" y1="245.98" x2="237.367" y2="245.98"><stop offset="0" style="stop-color:#4f3e90"/><stop offset="1" style="stop-color:#171a31"/></linearGradient><path id="XMLID_353_" style="fill:url(#XMLID_89_)" d="M218.7 263.3v-23.8l18.7-10.8v23.8z"/></g><g id="XMLID_346_"><linearGradient id="XMLID_90_" gradientUnits="userSpaceOnUse" x1="224.649" y1="243.133" x2="261.612" y2="243.133"><stop offset="0" style="stop-color:#4f3e90"/><stop offset="1" style="stop-color:#171a31"/></linearGradient><path id="XMLID_349_" style="fill:url(#XMLID_90_)" d="m243 254-18.4-10.9 18.7-10.8 18.3 10.9z"/><linearGradient id="XMLID_91_" gradientUnits="userSpaceOnUse" x1="224.649" y1="260.407" x2="242.987" y2="260.407"><stop offset="0" style="stop-color:#4f3e90"/><stop offset="1" style="stop-color:#171a31"/></linearGradient><path id="XMLID_348_" style="fill:url(#XMLID_91_)" d="m243 277.8-18.4-10.9v-23.8L243 254z"/><linearGradient id="XMLID_92_" gradientUnits="userSpaceOnUse" x1="242.987" y1="260.477" x2="261.612" y2="260.477"><stop offset="0" style="stop-color:#4f3e90"/><stop offset="1" style="stop-color:#171a31"/></linearGradient><path id="XMLID_347_" style="fill:url(#XMLID_92_)" d="M243 277.8V254l18.6-10.8V267z"/></g><g id="XMLID_340_"><linearGradient id="XMLID_93_" gradientUnits="userSpaceOnUse" x1="248.894" y1="257.63" x2="285.857" y2="257.63"><stop offset="0" style="stop-color:#4f3e90"/><stop offset="1" style="stop-color:#171a31"/></linearGradient><path id="XMLID_343_" style="fill:url(#XMLID_93_)" d="m267.2 268.5-18.3-10.9 18.6-10.8 18.4 10.9z"/><linearGradient id="XMLID_94_" gradientUnits="userSpaceOnUse" x1="248.894" y1="274.904" x2="267.232" y2="274.904"><stop offset="0" style="stop-color:#4f3e90"/><stop offset="1" style="stop-color:#171a31"/></linearGradient><path id="XMLID_342_" style="fill:url(#XMLID_94_)" d="m267.2 292.2-18.3-10.8v-23.8l18.3 10.9z"/><linearGradient id="XMLID_95_" gradientUnits="userSpaceOnUse" x1="267.232" y1="274.974" x2="285.857" y2="274.974"><stop offset="0" style="stop-color:#4f3e90"/><stop offset="1" style="stop-color:#171a31"/></linearGradient><path id="XMLID_341_" style="fill:url(#XMLID_95_)" d="M267.2 292.2v-23.7l18.7-10.8v23.8z"/></g><g id="XMLID_334_"><linearGradient id="XMLID_96_" gradientUnits="userSpaceOnUse" x1="273.14" y1="272.126" x2="310.102" y2="272.126"><stop offset="0" style="stop-color:#4f3e90"/><stop offset="1" style="stop-color:#171a31"/></linearGradient><path id="XMLID_337_" style="fill:url(#XMLID_96_)" d="m291.5 282.9-18.4-10.8 18.7-10.8 18.3 10.9z"/><linearGradient id="XMLID_97_" gradientUnits="userSpaceOnUse" x1="273.14" y1="289.401" x2="291.477" y2="289.401"><stop offset="0" style="stop-color:#4f3e90"/><stop offset="1" style="stop-color:#171a31"/></linearGradient><path id="XMLID_336_" style="fill:url(#XMLID_97_)" d="m291.5 306.7-18.4-10.8v-23.8l18.4 10.8z"/><linearGradient id="XMLID_98_" gradientUnits="userSpaceOnUse" x1="291.477" y1="289.47" x2="310.102" y2="289.47"><stop offset="0" style="stop-color:#4f3e90"/><stop offset="1" style="stop-color:#171a31"/></linearGradient><path id="XMLID_335_" style="fill:url(#XMLID_98_)" d="M291.5 306.7v-23.8l18.6-10.7V296z"/></g><g id="XMLID_328_"><linearGradient id="XMLID_99_" gradientUnits="userSpaceOnUse" x1="176.159" y1="242.462" x2="213.121" y2="242.462"><stop offset="0" style="stop-color:#4f3e90"/><stop offset="1" style="stop-color:#171a31"/></linearGradient><path id="XMLID_331_" style="fill:url(#XMLID_99_)" d="m194.5 253.3-18.3-10.9 18.6-10.8 18.3 10.9z"/><linearGradient id="XMLID_100_" gradientUnits="userSpaceOnUse" x1="176.159" y1="259.736" x2="194.497" y2="259.736"><stop offset="0" style="stop-color:#4f3e90"/><stop offset="1" style="stop-color:#171a31"/></linearGradient><path id="XMLID_330_" style="fill:url(#XMLID_100_)" d="m194.5 277.1-18.3-10.9v-23.8l18.3 10.9z"/><linearGradient id="XMLID_101_" gradientUnits="userSpaceOnUse" x1="194.497" y1="259.806" x2="213.121" y2="259.806"><stop offset="0" style="stop-color:#4f3e90"/><stop offset="1" style="stop-color:#171a31"/></linearGradient><path id="XMLID_329_" style="fill:url(#XMLID_101_)" d="M194.5 277.1v-23.8l18.6-10.8v23.8z"/></g><g id="XMLID_322_"><linearGradient id="XMLID_102_" gradientUnits="userSpaceOnUse" x1="200.404" y1="256.959" x2="237.367" y2="256.959"><stop offset="0" style="stop-color:#4f3e90"/><stop offset="1" style="stop-color:#171a31"/></linearGradient><path id="XMLID_325_" style="fill:url(#XMLID_102_)" d="m218.7 267.8-18.3-10.9 18.6-10.8 18.4 10.9z"/><linearGradient id="XMLID_103_" gradientUnits="userSpaceOnUse" x1="200.404" y1="274.233" x2="218.742" y2="274.233"><stop offset="0" style="stop-color:#4f3e90"/><stop offset="1" style="stop-color:#171a31"/></linearGradient><path id="XMLID_324_" style="fill:url(#XMLID_103_)" d="m218.7 291.6-18.3-10.9v-23.8l18.3 10.9z"/><linearGradient id="XMLID_104_" gradientUnits="userSpaceOnUse" x1="218.742" y1="274.303" x2="237.367" y2="274.303"><stop offset="0" style="stop-color:#4f3e90"/><stop offset="1" style="stop-color:#171a31"/></linearGradient><path id="XMLID_323_" style="fill:url(#XMLID_104_)" d="M218.7 291.6v-23.8l18.7-10.8v23.8z"/></g><g id="XMLID_316_"><linearGradient id="XMLID_105_" gradientUnits="userSpaceOnUse" x1="224.649" y1="271.455" x2="261.612" y2="271.455"><stop offset="0" style="stop-color:#4f3e90"/><stop offset="1" style="stop-color:#171a31"/></linearGradient><path id="XMLID_319_" style="fill:url(#XMLID_105_)" d="m243 282.3-18.4-10.9 18.7-10.8 18.3 10.9z"/><linearGradient id="XMLID_106_" gradientUnits="userSpaceOnUse" x1="224.649" y1="288.73" x2="242.987" y2="288.73"><stop offset="0" style="stop-color:#4f3e90"/><stop offset="1" style="stop-color:#171a31"/></linearGradient><path id="XMLID_318_" style="fill:url(#XMLID_106_)" d="m243 306.1-18.4-10.9v-23.8l18.4 10.9z"/><linearGradient id="XMLID_107_" gradientUnits="userSpaceOnUse" x1="242.987" y1="288.799" x2="261.612" y2="288.799"><stop offset="0" style="stop-color:#4f3e90"/><stop offset="1" style="stop-color:#171a31"/></linearGradient><path id="XMLID_317_" style="fill:url(#XMLID_107_)" d="M243 306.1v-23.8l18.6-10.8v23.8z"/></g><g id="XMLID_310_"><linearGradient id="XMLID_108_" gradientUnits="userSpaceOnUse" x1="248.894" y1="285.952" x2="285.857" y2="285.952"><stop offset="0" style="stop-color:#4f3e90"/><stop offset="1" style="stop-color:#171a31"/></linearGradient><path id="XMLID_313_" style="fill:url(#XMLID_108_)" d="m267.2 296.8-18.3-10.9 18.6-10.8 18.4 10.9z"/><linearGradient id="XMLID_109_" gradientUnits="userSpaceOnUse" x1="248.894" y1="303.226" x2="267.232" y2="303.226"><stop offset="0" style="stop-color:#4f3e90"/><stop offset="1" style="stop-color:#171a31"/></linearGradient><path id="XMLID_312_" style="fill:url(#XMLID_109_)" d="m267.2 320.6-18.3-10.9v-23.8l18.3 10.9z"/><linearGradient id="XMLID_110_" gradientUnits="userSpaceOnUse" x1="267.232" y1="303.296" x2="285.857" y2="303.296"><stop offset="0" style="stop-color:#4f3e90"/><stop offset="1" style="stop-color:#171a31"/></linearGradient><path id="XMLID_311_" style="fill:url(#XMLID_110_)" d="M267.2 320.6v-23.8l18.7-10.8v23.8z"/></g><g id="XMLID_304_"><linearGradient id="XMLID_111_" gradientUnits="userSpaceOnUse" x1="151.914" y1="256.946" x2="188.876" y2="256.946"><stop offset="0" style="stop-color:#4f3e90"/><stop offset="1" style="stop-color:#171a31"/></linearGradient><path id="XMLID_307_" style="fill:url(#XMLID_111_)" d="m170.3 267.8-18.4-10.9 18.6-10.8 18.4 10.9z"/><linearGradient id="XMLID_112_" gradientUnits="userSpaceOnUse" x1="151.914" y1="274.221" x2="170.252" y2="274.221"><stop offset="0" style="stop-color:#4f3e90"/><stop offset="1" style="stop-color:#171a31"/></linearGradient><path id="XMLID_306_" style="fill:url(#XMLID_112_)" d="m170.3 291.6-18.4-10.9v-23.8l18.4 10.9z"/><linearGradient id="XMLID_113_" gradientUnits="userSpaceOnUse" x1="170.252" y1="274.29" x2="188.876" y2="274.29"><stop offset="0" style="stop-color:#4f3e90"/><stop offset="1" style="stop-color:#171a31"/></linearGradient><path id="XMLID_305_" style="fill:url(#XMLID_113_)" d="M170.3 291.6v-23.8l18.6-10.8v23.8z"/></g><g id="XMLID_298_"><linearGradient id="XMLID_290_" gradientUnits="userSpaceOnUse" x1="176.159" y1="271.443" x2="213.121" y2="271.443"><stop offset="0" style="stop-color:#4f3e90"/><stop offset="1" style="stop-color:#171a31"/></linearGradient><path id="XMLID_301_" style="fill:url(#XMLID_290_)" d="m194.5 282.3-18.3-10.9 18.6-10.8 18.3 10.9z"/><linearGradient id="XMLID_291_" gradientUnits="userSpaceOnUse" x1="176.159" y1="288.717" x2="194.497" y2="288.717"><stop offset="0" style="stop-color:#4f3e90"/><stop offset="1" style="stop-color:#171a31"/></linearGradient><path id="XMLID_300_" style="fill:url(#XMLID_291_)" d="m194.5 306.1-18.3-10.9v-23.8l18.3 10.9z"/><linearGradient id="XMLID_296_" gradientUnits="userSpaceOnUse" x1="194.497" y1="288.787" x2="213.121" y2="288.787"><stop offset="0" style="stop-color:#4f3e90"/><stop offset="1" style="stop-color:#171a31"/></linearGradient><path id="XMLID_299_" style="fill:url(#XMLID_296_)" d="M194.5 306.1v-23.8l18.6-10.8v23.8z"/></g><g id="XMLID_292_"><linearGradient id="XMLID_297_" gradientUnits="userSpaceOnUse" x1="200.404" y1="285.94" x2="237.367" y2="285.94"><stop offset="0" style="stop-color:#4f3e90"/><stop offset="1" style="stop-color:#171a31"/></linearGradient><path id="XMLID_295_" style="fill:url(#XMLID_297_)" d="m218.7 296.8-18.3-10.9 18.6-10.8 18.4 10.9z"/><linearGradient id="XMLID_302_" gradientUnits="userSpaceOnUse" x1="200.404" y1="303.214" x2="218.742" y2="303.214"><stop offset="0" style="stop-color:#4f3e90"/><stop offset="1" style="stop-color:#171a31"/></linearGradient><path id="XMLID_294_" style="fill:url(#XMLID_302_)" d="m218.7 320.6-18.3-10.9v-23.8l18.3 10.9z"/><linearGradient id="XMLID_303_" gradientUnits="userSpaceOnUse" x1="218.742" y1="303.284" x2="237.367" y2="303.284"><stop offset="0" style="stop-color:#4f3e90"/><stop offset="1" style="stop-color:#171a31"/></linearGradient><path id="XMLID_293_" style="fill:url(#XMLID_303_)" d="M218.7 320.6v-23.8l18.7-10.8v23.8z"/></g><g id="XMLID_286_"><linearGradient id="XMLID_308_" gradientUnits="userSpaceOnUse" x1="224.649" y1="300.436" x2="261.612" y2="300.436"><stop offset="0" style="stop-color:#4f3e90"/><stop offset="1" style="stop-color:#171a31"/></linearGradient><path id="XMLID_289_" style="fill:url(#XMLID_308_)" d="m243 311.3-18.4-10.9 18.7-10.8 18.3 10.9z"/><linearGradient id="XMLID_309_" gradientUnits="userSpaceOnUse" x1="224.649" y1="317.711" x2="242.987" y2="317.711"><stop offset="0" style="stop-color:#4f3e90"/><stop offset="1" style="stop-color:#171a31"/></linearGradient><path id="XMLID_288_" style="fill:url(#XMLID_309_)" d="m243 335.1-18.4-10.9v-23.8l18.4 10.9z"/><linearGradient id="XMLID_314_" gradientUnits="userSpaceOnUse" x1="242.987" y1="317.78" x2="261.612" y2="317.78"><stop offset="0" style="stop-color:#4f3e90"/><stop offset="1" style="stop-color:#171a31"/></linearGradient><path id="XMLID_287_" style="fill:url(#XMLID_314_)" d="M243 335.1v-23.8l18.6-10.8v23.8z"/></g><g id="XMLID_283_"><linearGradient id="XMLID_315_" gradientUnits="userSpaceOnUse" x1="186.053" y1="219.506" x2="188.293" y2="219.506"><stop offset="0" style="stop-color:#4f3e90"/><stop offset="1" style="stop-color:#171a31"/></linearGradient><path id="XMLID_285_" d="M187.2 231.6c-.6 0-1.1-.5-1.1-1.1v-22c0-.6.5-1.1 1.1-1.1s1.1.5 1.1 1.1v22c0 .6-.5 1.1-1.1 1.1z" style="fill:url(#XMLID_315_)"/><linearGradient id="XMLID_320_" gradientUnits="userSpaceOnUse" x1="179.707" y1="211.2" x2="194.64" y2="211.2"><stop offset="0" style="stop-color:#0f9"/><stop offset="1" style="stop-color:#3cf"/></linearGradient><ellipse id="XMLID_284_" cx="187.2" cy="211.2" rx="7.5" ry="10.2" style="fill:url(#XMLID_320_)"/></g><g id="XMLID_280_"><linearGradient id="XMLID_321_" gradientUnits="userSpaceOnUse" x1="256.943" y1="327.42" x2="259.183" y2="327.42"><stop offset="0" style="stop-color:#4f3e90"/><stop offset="1" style="stop-color:#171a31"/></linearGradient><path id="XMLID_282_" d="M258.1 339.6c-.6 0-1.1-.5-1.1-1.1v-22c0-.6.5-1.1 1.1-1.1.6 0 1.1.5 1.1 1.1v22c0 .6-.5 1.1-1.1 1.1z" style="fill:url(#XMLID_321_)"/><linearGradient id="XMLID_326_" gradientUnits="userSpaceOnUse" x1="250.597" y1="319.114" x2="265.53" y2="319.114"><stop offset="0" style="stop-color:#0f9"/><stop offset="1" style="stop-color:#3cf"/></linearGradient><ellipse id="XMLID_281_" cx="258.1" cy="319.1" rx="7.5" ry="10.2" style="fill:url(#XMLID_326_)"/></g><g id="XMLID_277_"><linearGradient id="XMLID_327_" gradientUnits="userSpaceOnUse" x1="273.578" y1="318.461" x2="275.818" y2="318.461"><stop offset="0" style="stop-color:#4f3e90"/><stop offset="1" style="stop-color:#171a31"/></linearGradient><path id="XMLID_279_" d="M274.7 330.6c-.6 0-1.1-.5-1.1-1.1v-22c0-.6.5-1.1 1.1-1.1.6 0 1.1.5 1.1 1.1v22c0 .6-.5 1.1-1.1 1.1z" style="fill:url(#XMLID_327_)"/><linearGradient id="XMLID_332_" gradientUnits="userSpaceOnUse" x1="267.232" y1="310.154" x2="282.165" y2="310.154"><stop offset="0" style="stop-color:#0f9"/><stop offset="1" style="stop-color:#3cf"/></linearGradient><ellipse id="XMLID_278_" cx="274.7" cy="310.2" rx="7.5" ry="10.2" style="fill:url(#XMLID_332_)"/></g><g id="XMLID_274_"><linearGradient id="XMLID_333_" gradientUnits="userSpaceOnUse" x1="290.213" y1="309.501" x2="292.453" y2="309.501"><stop offset="0" style="stop-color:#4f3e90"/><stop offset="1" style="stop-color:#171a31"/></linearGradient><path id="XMLID_276_" d="M291.3 321.6c-.6 0-1.1-.5-1.1-1.1v-22c0-.6.5-1.1 1.1-1.1.6 0 1.1.5 1.1 1.1v22c.1.6-.4 1.1-1.1 1.1z" style="fill:url(#XMLID_333_)"/><linearGradient id="XMLID_338_" gradientUnits="userSpaceOnUse" x1="283.867" y1="301.195" x2="298.8" y2="301.195"><stop offset="0" style="stop-color:#0f9"/><stop offset="1" style="stop-color:#3cf"/></linearGradient><ellipse id="XMLID_275_" cx="291.3" cy="301.2" rx="7.5" ry="10.2" style="fill:url(#XMLID_338_)"/></g><g id="XMLID_271_"><linearGradient id="XMLID_339_" gradientUnits="userSpaceOnUse" x1="306.849" y1="300.541" x2="309.089" y2="300.541"><stop offset="0" style="stop-color:#4f3e90"/><stop offset="1" style="stop-color:#171a31"/></linearGradient><path id="XMLID_273_" d="M308 312.7c-.6 0-1.1-.5-1.1-1.1v-22c0-.6.5-1.1 1.1-1.1.6 0 1.1.5 1.1 1.1v22c0 .6-.5 1.1-1.1 1.1z" style="fill:url(#XMLID_339_)"/><linearGradient id="XMLID_344_" gradientUnits="userSpaceOnUse" x1="300.502" y1="292.235" x2="315.435" y2="292.235"><stop offset="0" style="stop-color:#0f9"/><stop offset="1" style="stop-color:#3cf"/></linearGradient><ellipse id="XMLID_272_" cx="308" cy="292.2" rx="7.5" ry="10.2" style="fill:url(#XMLID_344_)"/></g><g id="XMLID_246_" style="opacity:.5"><path id="XMLID_270_" class="st93" d="M63.3 229c-.2 0-.4-.1-.5-.3-.2-.3-.1-.6.2-.8l2.4-1.4c.3-.2.6-.1.8.2.2.3.1.6-.2.8l-2.4 1.4c-.1.1-.2.1-.3.1z"/><path id="XMLID_263_" class="st93" d="M74.4 222.6c-.2 0-.4-.1-.5-.3-.2-.3-.1-.6.2-.8l4.8-2.8c.3-.2.6-.1.8.2.2.3.1.6-.2.8l-4.8 2.8c-.2.1-.3.1-.3.1zm13.3-7.8c-.2 0-.4-.1-.5-.3-.2-.3-.1-.6.2-.8l4.8-2.8c.3-.2.6-.1.8.2.2.3.1.6-.2.8l-4.8 2.8c-.1.1-.2.1-.3.1zm13.4-7.8c-.2 0-.4-.1-.5-.3-.2-.3-.1-.6.2-.8l4.8-2.8c.3-.2.6-.1.8.2.2.3.1.6-.2.8l-4.8 2.8c-.1.1-.2.1-.3.1zm13.3-7.8c-.2 0-.4-.1-.5-.3-.2-.3-.1-.6.2-.8l4.8-2.8c.3-.2.6-.1.8.2.2.3.1.6-.2.8l-4.8 2.8c-.1 0-.2.1-.3.1zm13.4-7.8c-.2 0-.4-.1-.5-.3-.2-.3-.1-.6.2-.8l4.8-2.8c.3-.2.6-.1.8.2.2.3.1.6-.2.8l-4.8 2.8c-.1 0-.2.1-.3.1zm13.3-7.8c-.2 0-.4-.1-.5-.3-.2-.3-.1-.6.2-.8l4.8-2.8c.3-.2.6-.1.8.2.2.3.1.6-.2.8l-4.8 2.8c-.1 0-.2.1-.3.1z"/><path id="XMLID_262_" class="st93" d="M154.5 175.7c-.2 0-.4-.1-.5-.3-.2-.3-.1-.6.2-.8l2.7-1.6 2.7 1.6c.3.2.4.5.2.8-.2.3-.5.4-.8.2l-2.1-1.2-2.1 1.2c-.1.1-.2.1-.3.1z"/><path id="XMLID_248_" class="st93" d="M341.2 281.2c-.1 0-.2 0-.3-.1l-5-2.9c-.3-.2-.4-.5-.2-.8.2-.3.5-.4.8-.2l5 2.9c.3.2.4.5.2.8-.1.2-.3.3-.5.3zm-14-8.1c-.1 0-.2 0-.3-.1l-5-2.9c-.3-.2-.4-.5-.2-.8.2-.3.5-.4.8-.2l5 2.9c.3.2.4.5.2.8-.1.2-.3.3-.5.3zm-14-8.1c-.1 0-.2 0-.3-.1l-5-2.9c-.3-.2-.4-.5-.2-.8.2-.3.5-.4.8-.2l5 2.9c.3.2.4.5.2.8-.1.2-.3.3-.5.3zm-14-8.1c-.1 0-.2 0-.3-.1l-5-2.9c-.3-.2-.4-.5-.2-.8.2-.3.5-.4.8-.2l5 2.9c.3.2.4.5.2.8-.1.2-.3.3-.5.3zm-13.9-8.1c-.1 0-.2 0-.3-.1l-5-2.9c-.3-.2-.4-.5-.2-.8.2-.3.5-.4.8-.2l5 2.9c.3.2.4.5.2.8-.2.2-.3.3-.5.3zm-14-8.2c-.1 0-.2 0-.3-.1l-5-2.9c-.3-.2-.4-.5-.2-.8.2-.3.5-.4.8-.2l5 2.9c.3.2.4.5.2.8-.2.2-.3.3-.5.3zm-14-8.1c-.1 0-.2 0-.3-.1l-5-2.9c-.3-.2-.4-.5-.2-.8.2-.3.5-.4.8-.2l5 2.9c.3.2.4.5.2.8-.1.2-.3.3-.5.3zm-14-8.1c-.1 0-.2 0-.3-.1l-5-2.9c-.3-.2-.4-.5-.2-.8.2-.3.5-.4.8-.2l5 2.9c.3.2.4.5.2.8-.1.2-.3.3-.5.3zm-14-8.1c-.1 0-.2 0-.3-.1l-5-2.9c-.3-.2-.4-.5-.2-.8.2-.3.5-.4.8-.2l5 2.9c.3.2.4.5.2.8-.1.2-.3.3-.5.3zm-14-8.1c-.1 0-.2 0-.3-.1l-5-2.9c-.3-.2-.4-.5-.2-.8.2-.3.5-.4.8-.2l5 2.9c.3.2.4.5.2.8-.1.2-.3.3-.5.3zm-14-8.1c-.1 0-.2 0-.3-.1l-5-2.9c-.3-.2-.4-.5-.2-.8.2-.3.5-.4.8-.2l5 2.9c.3.2.4.5.2.8-.1.2-.3.3-.5.3zm-14-8.1c-.1 0-.2 0-.3-.1l-5-2.9c-.3-.2-.4-.5-.2-.8.2-.3.5-.4.8-.2l5 2.9c.3.2.4.5.2.8-.1.2-.3.3-.5.3zm-14-8.1c-.1 0-.2 0-.3-.1l-5-2.9c-.3-.2-.4-.5-.2-.8.2-.3.5-.4.8-.2l5 2.9c.3.2.4.5.2.8-.1.2-.3.3-.5.3z"/><path id="XMLID_247_" class="st93" d="M352.6 287.8c-.1 0-.2 0-.3-.1l-2.4-1.4c-.3-.2-.4-.5-.2-.8.2-.3.5-.4.8-.2l2.4 1.4c.3.2.4.5.2.8-.1.2-.3.3-.5.3z"/></g></g></g><path id="XMLID_196_" class="st93" d="M337 251.2c-.3 0-.6-.3-.6-.6v-2.2c0-.3.3-.6.6-.6s.6.3.6.6v2.2c-.1.4-.3.6-.6.6zm0-7.8c-.3 0-.6-.3-.6-.6v-2.2c0-.3.3-.6.6-.6s.6.3.6.6v2.2c-.1.3-.3.6-.6.6zm0-7.8c-.3 0-.6-.3-.6-.6v-2.2c0-.3.3-.6.6-.6s.6.3.6.6v2.2c-.1.3-.3.6-.6.6zm0-7.9c-.3 0-.6-.3-.6-.6v-2.2c0-.3.3-.6.6-.6s.6.3.6.6v2.2c-.1.4-.3.6-.6.6zm0-7.8c-.3 0-.6-.3-.6-.6v-2.2c0-.3.3-.6.6-.6s.6.3.6.6v2.2c-.1.3-.3.6-.6.6zm0-7.9c-.3 0-.6-.3-.6-.6v-2.2c0-.3.3-.6.6-.6s.6.3.6.6v2.2c-.1.4-.3.6-.6.6zm0-7.8c-.3 0-.6-.3-.6-.6v-2.2c0-.3.3-.6.6-.6s.6.3.6.6v2.2c-.1.4-.3.6-.6.6zm0-7.8c-.3 0-.6-.3-.6-.6v-2.2c0-.3.3-.6.6-.6s.6.3.6.6v2.2c-.1.3-.3.6-.6.6zm0-7.9c-.3 0-.6-.3-.6-.6v-2.2c0-.3.3-.6.6-.6s.6.3.6.6v2.2c-.1.4-.3.6-.6.6zm0-7.8c-.3 0-.6-.3-.6-.6v-2.2c0-.3.3-.6.6-.6s.6.3.6.6v2.2c-.1.3-.3.6-.6.6zm0-7.9c-.3 0-.6-.3-.6-.6V170c0-.3.3-.6.6-.6s.6.3.6.6v2.2c-.1.4-.3.6-.6.6zm0-7.8c-.3 0-.6-.3-.6-.6v-2.2c0-.3.3-.6.6-.6s.6.3.6.6v2.2c-.1.4-.3.6-.6.6zm0-7.8c-.3 0-.6-.3-.6-.6v-2.2c0-.3.3-.6.6-.6s.6.3.6.6v2.2c-.1.3-.3.6-.6.6zm0-7.9c-.3 0-.6-.3-.6-.6v-2.2c0-.3.3-.6.6-.6s.6.3.6.6v2.2c-.1.4-.3.6-.6.6zm0-7.8c-.3 0-.6-.3-.6-.6v-2.2c0-.3.3-.6.6-.6s.6.3.6.6v2.2c-.1.3-.3.6-.6.6zm0-7.9c-.3 0-.6-.3-.6-.6v-2.2c0-.3.3-.6.6-.6s.6.3.6.6v2.2c-.1.4-.3.6-.6.6zm0-7.8c-.3 0-.6-.3-.6-.6V123c0-.3.3-.6.6-.6s.6.3.6.6v2.2c-.1.4-.3.6-.6.6zm-.7-7.5c-.1 0-.2 0-.3-.1l-2-1.1c-.3-.2-.4-.5-.2-.8.2-.3.5-.4.8-.2l2 1.1c.3.2.4.5.2.8-.1.2-.3.3-.5.3zm-134 0c-.3 0-.6-.3-.6-.6v-2.2c0-.3.3-.6.6-.6s.6.3.6.6v2.2c-.1.4-.3.6-.6.6zm127.2-3.8c-.1 0-.2 0-.3-.1l-2-1.1c-.3-.2-.4-.5-.2-.8.2-.3.5-.4.8-.2l2 1.1c.3.2.4.5.2.8-.1.2-.3.3-.5.3zm-6.8-3.9c-.1 0-.2 0-.3-.1l-2-1.1c-.3-.2-.4-.5-.2-.8.2-.3.5-.4.8-.2l2 1.1c.3.2.4.5.2.8-.1.2-.3.3-.5.3zm-120.4-.1c-.3 0-.6-.3-.6-.6v-2.2c0-.3.3-.6.6-.6s.6.3.6.6v2.2c-.1.3-.3.6-.6.6zm113.6-3.7c-.1 0-.2 0-.3-.1l-2-1.1c-.3-.2-.4-.5-.2-.8.2-.3.5-.4.8-.2l2 1.1c.3.2.4.5.2.8-.2.2-.3.3-.5.3zm-6.9-3.9c-.1 0-.2 0-.3-.1l-2-1.1c-.3-.2-.4-.5-.2-.8.2-.3.5-.4.8-.2l2 1.1c.3.2.4.5.2.8-.1.2-.3.3-.5.3zm-106.7-.3c-.3 0-.6-.3-.6-.6v-2.2c0-.3.3-.6.6-.6s.6.3.6.6v2.2c-.1.4-.3.6-.6.6zm99.9-3.5c-.1 0-.2 0-.3-.1l-2-1.1c-.3-.2-.4-.5-.2-.8.2-.3.5-.4.8-.2l2 1.1c.3.2.4.5.2.8-.1.2-.3.3-.5.3zm-6.8-3.9c-.1 0-.2 0-.3-.1l-2-1.1c-.3-.2-.4-.5-.2-.8.2-.3.5-.4.8-.2l2 1.1c.3.2.4.5.2.8-.1.2-.3.3-.5.3zm-93.1-.4c-.3 0-.6-.3-.6-.6V92c0-.3.3-.6.6-.6s.6.3.6.6v2.2c-.1.3-.3.6-.6.6zm86.3-3.4c-.1 0-.2 0-.3-.1l-2-1.1c-.3-.2-.4-.5-.2-.8.2-.3.5-.4.8-.2l2 1.1c.3.2.4.5.2.8-.2.2-.4.3-.5.3zm-6.9-3.9c-.1 0-.2 0-.3-.1l-2-1.1c-.3-.2-.4-.5-.2-.8.2-.3.5-.4.8-.2l2 1.1c.3.2.4.5.2.8-.1.2-.3.3-.5.3zm-79.4-.6c-.3 0-.6-.3-.6-.6v-2.2c0-.3.3-.6.6-.6s.6.3.6.6v2.2c-.1.4-.3.6-.6.6zm72.6-3.2c-.1 0-.2 0-.3-.1l-2-1.1c-.3-.2-.4-.5-.2-.8.2-.3.5-.4.8-.2l2 1.1c.3.2.4.5.2.8-.1.2-.3.3-.5.3zm-6.8-3.9c-.1 0-.2 0-.3-.1l-2-1.1c-.3-.2-.4-.5-.2-.8.2-.3.5-.4.8-.2l2 1.1c.3.2.4.5.2.8-.1.2-.3.3-.5.3zm-65.8-.7c-.3 0-.6-.3-.6-.6v-2.2c0-.3.3-.6.6-.6s.6.3.6.6v2.2c-.1.4-.3.6-.6.6zm58.9-3.1c-.1 0-.2 0-.3-.1l-2-1.1c-.3-.2-.4-.5-.2-.8.2-.3.5-.4.8-.2l2 1.1c.3.2.4.5.2.8-.1.2-.3.3-.5.3zm-6.8-3.9c-.1 0-.2 0-.3-.1l-2-1.1c-.3-.2-.4-.5-.2-.8.2-.3.5-.4.8-.2l2 1.1c.3.2.4.5.2.8-.1.2-.3.3-.5.3zm-52.1-.8c-.3 0-.6-.3-.6-.6v-2.2c0-.3.3-.6.6-.6s.6.3.6.6v2.2c-.1.3-.3.6-.6.6zm45.3-3.1c-.1 0-.2 0-.3-.1l-2-1.1c-.3-.2-.4-.5-.2-.8.2-.3.5-.4.8-.2l2 1.1c.3.2.4.5.2.8-.1.2-.3.3-.5.3zm-6.8-3.8c-.1 0-.2 0-.3-.1l-2-1.1c-.3-.2-.4-.5-.2-.8.2-.3.5-.4.8-.2l2 1.1c.3.2.4.5.2.8-.2.2-.3.3-.5.3zm-38.5-1c-.3 0-.6-.3-.6-.6v-2.2c0-.3.3-.6.6-.6s.6.3.6.6v2.2c-.1.4-.3.6-.6.6zm31.6-2.9c-.1 0-.2 0-.3-.1l-2-1.1c-.3-.2-.4-.5-.2-.8.2-.3.5-.4.8-.2l2 1.1c.3.2.4.5.2.8-.1.2-.3.3-.5.3zm-6.8-3.8c-.1 0-.2 0-.3-.1l-2-1.1c-.3-.2-.4-.5-.2-.8.2-.3.5-.4.8-.2l1.9 1.1c.3.2.4.5.2.8 0 .2-.2.3-.4.3zm-24.8-1.1c-.3 0-.6-.3-.6-.6v-2.2c0-.3.3-.6.6-.6s.6.3.6.6V55c-.1.3-.3.6-.6.6zm18-2.8c-.1 0-.2 0-.3-.1l-2-1.1c-.3-.2-.4-.5-.2-.8.2-.3.5-.4.8-.2l2 1.1c.3.2.4.5.2.8-.1.2-.3.3-.5.3zm-6.9-3.8c-.1 0-.2 0-.3-.1l-2-1.1c-.3-.2-.4-.5-.2-.8.2-.3.5-.4.8-.2l2 1.1c.3.2.4.5.2.8-.1.2-.3.3-.5.3zm-11.1-1.2c-.3 0-.6-.3-.6-.6V45c0-.3.3-.6.6-.6s.6.3.6.6v2.2c-.1.3-.3.6-.6.6zm4.3-2.7c-.1 0-.2 0-.3-.1l-2-1.1c-.3-.2-.4-.5-.2-.8.2-.3.5-.4.8-.2l2 1.1c.3.2.4.5.2.8-.1.2-.3.3-.5.3z"/><path id="XMLID_165_" class="st93" d="M140.3 150.6c-.3 0-.6-.3-.6-.6v-2.2c0-.3.3-.6.6-.6s.6.3.6.6v2.2c-.1.3-.3.6-.6.6zm0-7.9c-.3 0-.6-.3-.6-.6v-2.2c0-.3.3-.6.6-.6s.6.3.6.6v2.2c-.1.4-.3.6-.6.6zm0-7.8c-.3 0-.6-.3-.6-.6v-2.2c0-.3.3-.6.6-.6s.6.3.6.6v2.2c-.1.3-.3.6-.6.6zM88 132.2c-.3 0-.6-.3-.6-.6v-2.2c0-.3.3-.6.6-.6s.6.3.6.6v2.2c-.1.3-.3.6-.6.6zm52.3-5.2c-.3 0-.6-.3-.6-.6v-2.2c0-.3.3-.6.6-.6s.6.3.6.6v2.2c-.1.4-.3.6-.6.6zM88 124.3c-.3 0-.6-.3-.6-.6v-2.2c0-.3.3-.6.6-.6s.6.3.6.6v2.2c-.1.4-.3.6-.6.6zm52.3-5.1c-.3 0-.6-.3-.6-.6v-2.2c0-.3.3-.6.6-.6s.6.3.6.6v2.2c-.1.3-.3.6-.6.6zM88 116.5c-.3 0-.6-.3-.6-.6v-2.2c0-.3.3-.6.6-.6s.6.3.6.6v2.2c-.1.3-.3.6-.6.6zm52.3-5.1c-.3 0-.6-.3-.6-.6v-2.2c0-.3.3-.6.6-.6s.6.3.6.6v2.2c-.1.3-.3.6-.6.6zM88 108.6c-.3 0-.6-.3-.6-.6v-2.2c0-.3.3-.6.6-.6s.6.3.6.6v2.2c-.1.4-.3.6-.6.6zm52.3-5.1c-.3 0-.6-.3-.6-.6v-2.2c0-.3.3-.6.6-.6s.6.3.6.6v2.2c-.1.4-.3.6-.6.6zM88 100.8c-.3 0-.6-.3-.6-.6V98c0-.3.3-.6.6-.6s.6.3.6.6v2.2c-.1.4-.3.6-.6.6zm52.3-5.1c-.3 0-.6-.3-.6-.6v-2.2c0-.3.3-.6.6-.6s.6.3.6.6v2.2c-.1.3-.3.6-.6.6zM88 93c-.3 0-.6-.3-.6-.6v-2.2c0-.3.3-.6.6-.6s.6.3.6.6v2.2c-.1.3-.3.6-.6.6zm52.3-5.2c-.3 0-.6-.3-.6-.6V85c0-.3.3-.6.6-.6s.6.3.6.6v2.2c-.1.4-.3.6-.6.6zM88 85.1c-.3 0-.6-.3-.6-.6v-2.2c0-.3.3-.6.6-.6s.6.3.6.6v2.2c-.1.4-.3.6-.6.6zm52.3-5.1c-.3 0-.6-.3-.6-.6v-2.2c0-.3.3-.6.6-.6s.6.3.6.6v2.2c-.1.3-.3.6-.6.6zM88 77.3c-.3 0-.6-.3-.6-.6v-2.2c0-.3.3-.6.6-.6s.6.3.6.6v2.2c-.1.3-.3.6-.6.6zm52.3-5.1c-.3 0-.6-.3-.6-.6v-2.2c0-.3.3-.6.6-.6s.6.3.6.6v2.2c-.1.3-.3.6-.6.6zM88 69.4c-.3 0-.6-.3-.6-.6V68l1.9-1c.3-.1.6 0 .8.2.1.3 0 .6-.2.8l-1.3.6v.1c-.1.5-.3.7-.6.7zm6.6-3.7c-.2 0-.4-.1-.5-.3-.1-.3 0-.6.2-.8l2-1c.3-.1.6 0 .8.2.1.3 0 .6-.2.8l-2 1c-.1.1-.2.1-.3.1zm45.7-1.4c-.3 0-.6-.3-.6-.6v-2.2c0-.3.3-.6.6-.6s.6.3.6.6v2.2c-.1.4-.3.6-.6.6zm-38.7-2.2c-.2 0-.4-.1-.5-.3-.1-.3 0-.6.2-.8l2-1c.3-.1.6 0 .8.2.1.3 0 .6-.2.8l-2 1c-.1.1-.2.1-.3.1zm7-3.5c-.2 0-.4-.1-.5-.3-.1-.3 0-.6.2-.8l2-1c.3-.1.6 0 .8.2.1.3 0 .6-.2.8l-2 1c-.1.1-.2.1-.3.1zm31.7-2.1c-.3 0-.6-.3-.6-.6v-2.2c0-.3.3-.6.6-.6s.6.3.6.6v2.2c-.1.3-.3.6-.6.6zm-24.7-1.4c-.2 0-.4-.1-.5-.3-.1-.3 0-.6.2-.8l2-1c.3-.1.6 0 .8.2.1.3 0 .6-.2.8l-2 1c-.1.1-.2.1-.3.1zm7-3.5c-.2 0-.4-.1-.5-.3-.1-.3 0-.6.2-.8l2-1c.3-.1.6 0 .8.2.1.3 0 .6-.2.8l-2 1c-.1.1-.2.1-.3.1zm17.7-3c-.3 0-.6-.3-.6-.6v-2.2c0-.3.3-.6.6-.6s.6.3.6.6V48c-.1.4-.3.6-.6.6zm-10.7-.6c-.2 0-.4-.1-.5-.3-.1-.3 0-.6.2-.8l2-1c.3-.1.6 0 .8.2.1.3 0 .6-.2.8l-2 1c-.1.1-.2.1-.3.1zm7-3.5c-.2 0-.4-.1-.5-.3-.1-.3 0-.6.2-.8l2-1c.3-.1.6 0 .8.2.1.3 0 .6-.2.8l-2 1c-.1.1-.2.1-.3.1z"/><path id="XMLID_150_" class="st93" d="M175.6 129.4c-.3 0-.6-.3-.6-.6v-2.2c0-.3.3-.6.6-.6s.6.3.6.6v2.2c0 .4-.3.6-.6.6zm0-7.8c-.3 0-.6-.3-.6-.6v-2.2c0-.3.3-.6.6-.6s.6.3.6.6v2.2c0 .3-.3.6-.6.6zm0-7.8c-.3 0-.6-.3-.6-.6V111c0-.3.3-.6.6-.6s.6.3.6.6v2.2c0 .3-.3.6-.6.6zm0-7.9c-.3 0-.6-.3-.6-.6v-2.2c0-.3.3-.6.6-.6s.6.3.6.6v2.2c0 .4-.3.6-.6.6zm0-7.8c-.3 0-.6-.3-.6-.6v-2.2c0-.3.3-.6.6-.6s.6.3.6.6v2.2c0 .3-.3.6-.6.6zm0-7.9c-.3 0-.6-.3-.6-.6v-2.2c0-.3.3-.6.6-.6s.6.3.6.6v2.2c0 .4-.3.6-.6.6zm0-7.8c-.3 0-.6-.3-.6-.6v-2.2c0-.3.3-.6.6-.6s.6.3.6.6v2.2c0 .4-.3.6-.6.6zm0-7.8c-.3 0-.6-.3-.6-.6v-2.2c0-.3.3-.6.6-.6s.6.3.6.6V74c0 .3-.3.6-.6.6zm0-7.9c-.3 0-.6-.3-.6-.6v-2.2c0-.3.3-.6.6-.6s.6.3.6.6v2.2c0 .4-.3.6-.6.6zm0-7.8c-.3 0-.6-.3-.6-.6v-2.2c0-.3.3-.6.6-.6s.6.3.6.6v2.2c0 .3-.3.6-.6.6zm0-7.9c-.3 0-.6-.3-.6-.6v-2.2c0-.3.3-.6.6-.6s.6.3.6.6v2.2c0 .4-.3.6-.6.6zm0-7.8c-.3 0-.6-.3-.6-.6v-2.2c0-.3.3-.6.6-.6s.6.3.6.6v2.2c0 .4-.3.6-.6.6zm0-7.8c-.3 0-.6-.3-.6-.6v-2.2c0-.3.3-.6.6-.6s.6.3.6.6v2.2c0 .3-.3.6-.6.6zm0-7.9c-.3 0-.6-.3-.6-.6v-2.2c0-.3.3-.6.6-.6s.6.3.6.6V27c0 .3-.3.5-.6.5z"/><path id="XMLID_128_" class="st93" d="M51.3 132.2c-.3 0-.6-.3-.6-.6v-2.2c0-.3.3-.6.6-.6s.6.3.6.6v2.2c-.1.3-.3.6-.6.6zm0-7.9c-.3 0-.6-.3-.6-.6v-2.2c0-.3.3-.6.6-.6s.6.3.6.6v2.2c-.1.4-.3.6-.6.6zm0-7.8c-.3 0-.6-.3-.6-.6v-2.2c0-.3.3-.6.6-.6s.6.3.6.6v2.2c-.1.3-.3.6-.6.6zm0-7.9c-.3 0-.6-.3-.6-.6v-2.2c0-.3.3-.6.6-.6s.6.3.6.6v2.2c-.1.4-.3.6-.6.6zm0-7.8c-.3 0-.6-.3-.6-.6V98c0-.3.3-.6.6-.6s.6.3.6.6v2.2c-.1.4-.3.6-.6.6zm0-7.8c-.3 0-.6-.3-.6-.6v-2.2c0-.3.3-.6.6-.6s.6.3.6.6v2.2c-.1.3-.3.6-.6.6zm0-7.9c-.3 0-.6-.3-.6-.6v-2.2c0-.3.3-.6.6-.6s.6.3.6.6v2.2c-.1.4-.3.6-.6.6zm0-7.8c-.3 0-.6-.3-.6-.6v-2.2c0-.3.3-.6.6-.6s.6.3.6.6v2.2c-.1.3-.3.6-.6.6zm0-7.9c-.3 0-.6-.3-.6-.6v-2.2c0-.3.3-.6.6-.6s.6.3.6.6v2.2c-.1.4-.3.6-.6.6zM88 69c-.3 0-.6-.3-.6-.6s.3-.6.6-.6.6.2.6.5v.1c-.1.3-.3.6-.6.6zm0-5.7c-.3 0-.6-.3-.6-.6v-2.2c0-.3.3-.6.6-.6s.6.3.6.6v2.2c-.1.3-.3.6-.6.6zm-36.7-1.7c-.3 0-.6-.3-.6-.6v-2.2c0-.3.3-.6.6-.6s.6.3.6.6V61c-.1.4-.3.6-.6.6zM88 55.5c-.3 0-.6-.3-.6-.6v-2.2c0-.3.3-.6.6-.6s.6.3.6.6v2.2c-.1.3-.3.6-.6.6zm-36.7-1.7c-.3 0-.6-.3-.6-.6V51l.6-.3c.3-.1.6 0 .8.2.1.3 0 .6-.2.8v1.5c-.1.3-.3.6-.6.6zm5.3-4.6c-.2 0-.4-.1-.5-.3-.1-.3 0-.6.2-.8l2-1c.3-.1.6 0 .8.2.1.3 0 .6-.2.8l-2 1c-.1.1-.2.1-.3.1zM88 47.6c-.3 0-.6-.3-.6-.6v-2.2c0-.3.3-.6.6-.6s.6.3.6.6V47c-.1.4-.3.6-.6.6zm-24.4-1.9c-.2 0-.4-.1-.5-.3-.1-.3 0-.6.2-.8l2-1c.3-.1.6 0 .8.2.1.3 0 .6-.2.8l-2 1c-.1.1-.2.1-.3.1zm7-3.5c-.2 0-.4-.1-.5-.3-.1-.3 0-.6.2-.8l2-1c.3-.1.6 0 .8.2.1.3 0 .6-.2.8l-2 1c-.1.1-.2.1-.3.1zM88 39.8c-.3 0-.6-.3-.6-.6V37c0-.3.3-.6.6-.6s.6.3.6.6v2.2c-.1.3-.3.6-.6.6zm-10.4-1.1c-.2 0-.4-.1-.5-.3-.1-.3 0-.6.2-.8l2-1c.3-.1.6 0 .8.2.1.3 0 .6-.2.8l-2 1c-.1 0-.2.1-.3.1zm7-3.6c-.2 0-.4-.1-.5-.3-.1-.3 0-.6.2-.8l2-1c.3-.1.6 0 .8.2.1.3 0 .6-.2.8l-2 1c-.1.1-.2.1-.3.1z"/><path id="XMLID_114_" class="st93" d="M267.2 137.2c-.3 0-.6-.3-.6-.6v-2.2c0-.3.3-.6.6-.6s.6.3.6.6v2.2c0 .4-.3.6-.6.6zm0-7.8c-.3 0-.6-.3-.6-.6v-2.2c0-.3.3-.6.6-.6s.6.3.6.6v2.2c0 .3-.3.6-.6.6zm0-7.9c-.3 0-.6-.3-.6-.6v-2.2c0-.3.3-.6.6-.6s.6.3.6.6v2.2c0 .4-.3.6-.6.6zm0-7.8c-.3 0-.6-.3-.6-.6v-2.2c0-.3.3-.6.6-.6s.6.3.6.6v2.2c0 .4-.3.6-.6.6zm0-7.8c-.3 0-.6-.3-.6-.6v-2.2c0-.3.3-.6.6-.6s.6.3.6.6v2.2c0 .3-.3.6-.6.6zm0-7.9c-.3 0-.6-.3-.6-.6v-2.2c0-.3.3-.6.6-.6s.6.3.6.6v2.2c0 .4-.3.6-.6.6zm0-7.8c-.3 0-.6-.3-.6-.6v-2.2c0-.3.3-.6.6-.6s.6.3.6.6v2.2c0 .3-.3.6-.6.6zm0-7.8c-.3 0-.6-.3-.6-.6v-2.2c0-.3.3-.6.6-.6s.6.3.6.6v2.2c0 .3-.3.6-.6.6zm0-7.9c-.3 0-.6-.3-.6-.6v-2.2c0-.3.3-.6.6-.6s.6.3.6.6V74c0 .3-.3.5-.6.5zm0-7.8c-.3 0-.6-.3-.6-.6v-2.2c0-.3.3-.6.6-.6s.6.3.6.6v2.2c0 .3-.3.6-.6.6zm0-7.9c-.3 0-.6-.3-.6-.6V56c0-.3.3-.6.6-.6s.6.3.6.6v2.2c0 .4-.3.6-.6.6zm0-7.8c-.3 0-.6-.3-.6-.6v-2.2c0-.3.3-.6.6-.6s.6.3.6.6v2.2c0 .3-.3.6-.6.6zm0-7.8c-.3 0-.6-.3-.6-.6v-2.2c0-.3.3-.6.6-.6s.6.3.6.6v2.2c0 .3-.3.6-.6.6z"/></g><linearGradient id="SVGID_4_" gradientUnits="userSpaceOnUse" x1="-9.807" y1="296.645" x2="87.224" y2="296.645"><stop offset="0" style="stop-color:#3f00fc"/><stop offset=".208" style="stop-color:#3f02f7"/><stop offset=".467" style="stop-color:#3e09e7"/><stop offset=".753" style="stop-color:#3e14ce"/><stop offset="1" style="stop-color:#3d20b2"/></linearGradient><path style="fill:none;stroke:url(#SVGID_4_);stroke-miterlimit:10" d="m87 260.6-44.3 24.6v19.2l-52.3 28.3"/><linearGradient id="SVGID_5_" gradientUnits="userSpaceOnUse" x1="66.203" y1="337.036" x2="161.313" y2="337.036"><stop offset="0" style="stop-color:#3f00fc"/><stop offset=".208" style="stop-color:#3f02f7"/><stop offset=".467" style="stop-color:#3e09e7"/><stop offset=".753" style="stop-color:#3e14ce"/><stop offset="1" style="stop-color:#3d20b2"/></linearGradient><path style="fill:none;stroke:url(#SVGID_5_);stroke-miterlimit:10" d="m161.1 303.4-46.3 24v18.5l-48.4 24.8"/><linearGradient id="SVGID_6_" gradientUnits="userSpaceOnUse" x1="140.521" y1="319.369" x2="179.087" y2="319.369"><stop offset="0" style="stop-color:#3f00fc"/><stop offset=".208" style="stop-color:#3f02f7"/><stop offset=".467" style="stop-color:#3e09e7"/><stop offset=".753" style="stop-color:#3e14ce"/><stop offset="1" style="stop-color:#3d20b2"/></linearGradient><path style="fill:none;stroke:url(#SVGID_6_);stroke-miterlimit:10" d="m140.8 313.9 18.3 10.8 19.7-10.8"/><linearGradient id="SVGID_7_" gradientUnits="userSpaceOnUse" x1="281.94" y1="375.491" x2="367.668" y2="375.491"><stop offset="0" style="stop-color:#3f00fc"/><stop offset=".208" style="stop-color:#3f02f7"/><stop offset=".467" style="stop-color:#3e09e7"/><stop offset=".753" style="stop-color:#3e14ce"/><stop offset="1" style="stop-color:#3d20b2"/></linearGradient><path style="fill:none;stroke:url(#SVGID_7_);stroke-miterlimit:10" d="m282.2 344 59.6 30.1v19.1l25.6 13.8"/><linearGradient id="SVGID_8_" gradientUnits="userSpaceOnUse" x1="351.335" y1="334.442" x2="431.32" y2="334.442"><stop offset="0" style="stop-color:#3f00fc"/><stop offset=".208" style="stop-color:#3f02f7"/><stop offset=".467" style="stop-color:#3e09e7"/><stop offset=".753" style="stop-color:#3e14ce"/><stop offset="1" style="stop-color:#3d20b2"/></linearGradient><path style="fill:none;stroke:url(#SVGID_8_);stroke-miterlimit:10" d="m351.6 303.9 57.7 31.2v19.1l21.8 10.8"/><linearGradient id="SVGID_9_" gradientUnits="userSpaceOnUse" x1="305.572" y1="336.845" x2="377.522" y2="336.845"><stop offset="0" style="stop-color:#3f00fc"/><stop offset=".208" style="stop-color:#3f02f7"/><stop offset=".467" style="stop-color:#3e09e7"/><stop offset=".753" style="stop-color:#3e14ce"/><stop offset="1" style="stop-color:#3d20b2"/></linearGradient><path style="fill:none;stroke:url(#SVGID_9_);stroke-miterlimit:10" d="m305.8 355.9 71.5-38.1"/><linearGradient id="SVGID_10_" gradientUnits="userSpaceOnUse" x1="296.012" y1="342.063" x2="320.369" y2="342.063"><stop offset="0" style="stop-color:#3f00fc"/><stop offset=".208" style="stop-color:#3f02f7"/><stop offset=".467" style="stop-color:#3e09e7"/><stop offset=".753" style="stop-color:#3e14ce"/><stop offset="1" style="stop-color:#3d20b2"/></linearGradient><path style="fill:none;stroke:url(#SVGID_10_);stroke-miterlimit:10" d="m320.1 348.3-23.9-12.4"/><linearGradient id="SVGID_11_" gradientUnits="userSpaceOnUse" x1="39.104" y1="16072.283" x2="63.456" y2="16072.283" gradientTransform="translate(0 -16040)"><stop offset="0" style="stop-color:#0f9"/><stop offset="1" style="stop-color:#3cf"/></linearGradient><path d="m61.9 30 1.5-.8-2.8-1.5-1.4.9-1.2-.8 1.6-.8-2.7-1.5-1.5.9-2-1.2-2.6 1.5 1.3.8-8.9 5.1-1.4-.8-2.7 1.6 2 1.1-1.2.7 2.7 1.5 1.2-.7 1.2.6-1.3.7 2.7 1.6 1.2-.7c3.3 1.6 6.7.9 6.7.9 4.3-1.3 3.7-3.6 3.7-3.6 3.1-.2 4.5-1.7 4.5-1.7 2.1-2-.6-3.8-.6-3.8zm-8 6.6c-1.2.9-3.2.3-3.2.3l-4.8-2.8 3.4-2 4.6 2.6c0 .1 1.2 1 0 1.9zm5-3.5c-1.4.8-2.8 0-2.8 0l-4.2-2.4 2.9-1.7 4.3 2.5c0-.1 1.2.8-.2 1.6z" style="fill:url(#SVGID_11_)"/><linearGradient id="SVGID_12_" gradientUnits="userSpaceOnUse" x1="81.434" y1="16057.4" x2="94.536" y2="16057.4" gradientTransform="translate(0 -16040)"><stop offset="0" style="stop-color:#0f9"/><stop offset="1" style="stop-color:#3cf"/></linearGradient><path d="m93.7 16.2.8-.5-1.5-.8-.8.5-.6-.4.9-.5-1.5-.8-.8.5-1.1-.6-1.4.8.7.5-4.8 2.7-.8-.4-1.4.8 1.1.6-.7.4 1.4.8.7-.4.6.3-.7.4 1.4.8.7-.4c1.7.9 3.6.5 3.6.5 2.3-.7 2-1.9 2-1.9 1.7-.1 2.4-.9 2.4-.9 1.2-1.1-.2-2-.2-2zm-4.3 3.5c-.7.5-1.7.2-1.7.2l-2.6-1.5 1.8-1.1 2.5 1.4s.6.5 0 1zm2.7-1.9c-.8.4-1.5 0-1.5 0l-2.2-1.3 1.6-.9 2.3 1.3c-.1 0 .6.5-.2.9z" style="fill:url(#SVGID_12_)"/><linearGradient id="SVGID_13_" gradientUnits="userSpaceOnUse" x1="131.538" y1="16068.02" x2="149.013" y2="16068.02" gradientTransform="translate(0 -16040)"><stop offset="0" style="stop-color:#0f9"/><stop offset="1" style="stop-color:#3cf"/></linearGradient><path d="m147.9 26.4 1.1-.6-2-1.1-1 .7-.9-.6 1.2-.6-2-1.1-1.1.6-1.4-.8-1.9 1.1.9.6-6.4 3.7-1-.6-1.9 1.1 1.4.8-.9.5 1.9 1.1.9-.5.8.5-.9.5 1.9 1.1.9-.5c2.3 1.2 4.8.7 4.8.7 3.1-1 2.7-2.6 2.7-2.6 2.2-.2 3.3-1.2 3.3-1.2 1.5-1.6-.4-2.8-.4-2.8zm-5.8 4.7c-.9.7-2.3.2-2.3.2l-3.5-2 2.5-1.4 3.3 1.9s.9.7 0 1.3zm3.6-2.5c-1 .6-2 0-2 0l-3-1.7 2.1-1.2 3.1 1.8c0-.1.9.5-.2 1.1z" style="fill:url(#SVGID_13_)"/><linearGradient id="SVGID_14_" gradientUnits="userSpaceOnUse" x1="165.354" y1="16049.648" x2="185.889" y2="16049.648" gradientTransform="translate(0 -16040)"><stop offset="0" style="stop-color:#0f9"/><stop offset="1" style="stop-color:#3cf"/></linearGradient><path d="m184.6 7.8 1.3-.7-2.4-1.3-1.2.8-1-.7 1.4-.7-2.3-1.3-1.3.8-1.7-1-2.3 1.3 1.1.7-7.5 4.3-1.2-.7-2.2 1.3 1.7 1-1 .6 2.2 1.3 1-.6 1 .5-1.1.6 2.3 1.3 1-.6c2.7 1.4 5.6.8 5.6.8 3.6-1.1 3.2-3 3.2-3 2.6-.2 3.8-1.4 3.8-1.4 1.8-1.9-.4-3.3-.4-3.3zm-6.8 5.5c-1 .8-2.7.3-2.7.3l-4.1-2.4 2.9-1.7 3.8 2.2c.1.1 1.1.8.1 1.6zm4.2-3c-1.2.7-2.4 0-2.4 0l-3.5-2 2.4-1.4 3.6 2.1c.1-.1 1.2.6-.1 1.3z" style="fill:url(#SVGID_14_)"/><linearGradient id="SVGID_15_" gradientUnits="userSpaceOnUse" x1="255.691" y1="16068.979" x2="278.866" y2="16068.979" gradientTransform="translate(0 -16040)"><stop offset="0" style="stop-color:#0f9"/><stop offset="1" style="stop-color:#3cf"/></linearGradient><path d="m277.4 26.8 1.5-.8-2.7-1.4-1.4.9-1.2-.8 1.5-.8-2.6-1.5-1.4.9-1.9-1.1-2.5 1.5 1.3.8-8.4 4.8-1.3-.8-2.5 1.5 1.9 1.1-1.2.7 2.5 1.5 1.2-.7 1.1.6-1.2.7 2.6 1.5 1.2-.7c3.1 1.6 6.3.9 6.3.9 4.1-1.3 3.6-3.4 3.6-3.4 2.9-.2 4.3-1.6 4.3-1.6 1.8-2.1-.7-3.8-.7-3.8zm-7.7 6.3c-1.2.9-3 .3-3 .3l-4.6-2.7 3.3-1.9 4.3 2.5c0 .1 1.2.9 0 1.8zm4.8-3.4c-1.4.7-2.7 0-2.7 0l-4-2.3 2.8-1.6 4.1 2.4s1.2.8-.2 1.5z" style="fill:url(#SVGID_15_)"/><linearGradient id="SVGID_16_" gradientUnits="userSpaceOnUse" x1="20.904" y1="172.415" x2="39.206" y2="172.415"><stop offset="0" style="stop-color:#3f00fc"/><stop offset=".208" style="stop-color:#3f02f7"/><stop offset=".467" style="stop-color:#3e09e7"/><stop offset=".753" style="stop-color:#3e14ce"/><stop offset="1" style="stop-color:#3d20b2"/></linearGradient><path style="fill:none;stroke:url(#SVGID_16_);stroke-miterlimit:10" d="m21.1 222.6 17.6-8.3v-16.2l-8.3-5.1v-63.6l6.7-3.4-6.7-3.8"/><linearGradient id="SVGID_17_" gradientUnits="userSpaceOnUse" x1="83.592" y1="237.739" x2="117.055" y2="237.739"><stop offset="0" style="stop-color:#3f00fc"/><stop offset=".208" style="stop-color:#3f02f7"/><stop offset=".467" style="stop-color:#3e09e7"/><stop offset=".753" style="stop-color:#3e14ce"/><stop offset="1" style="stop-color:#3d20b2"/></linearGradient><path style="fill:none;stroke:url(#SVGID_17_);stroke-miterlimit:10" d="m83.8 258.7 14.6-8v-23.8l18.4-10.1"/><linearGradient id="SVGID_18_" gradientUnits="userSpaceOnUse" x1="144.431" y1="224.545" x2="164.5" y2="224.545"><stop offset="0" style="stop-color:#3f00fc"/><stop offset=".208" style="stop-color:#3f02f7"/><stop offset=".467" style="stop-color:#3e09e7"/><stop offset=".753" style="stop-color:#3e14ce"/><stop offset="1" style="stop-color:#3d20b2"/></linearGradient><path style="fill:none;stroke:url(#SVGID_18_);stroke-miterlimit:10" d="M151.9 246.8v-23.4l11.6-7.1-18-10.1 7.2-3.5"/><linearGradient id="SVGID_19_" gradientUnits="userSpaceOnUse" x1="170.138" y1="237.797" x2="179.684" y2="237.797"><stop offset="0" style="stop-color:#3f00fc"/><stop offset=".208" style="stop-color:#3f02f7"/><stop offset=".467" style="stop-color:#3e09e7"/><stop offset=".753" style="stop-color:#3e14ce"/><stop offset="1" style="stop-color:#3d20b2"/></linearGradient><path style="fill:none;stroke:url(#SVGID_19_);stroke-miterlimit:10" d="m170.4 235.1 9 5.4"/><linearGradient id="SVGID_20_" gradientUnits="userSpaceOnUse" x1="258.683" y1="179.599" x2="279.39" y2="179.599"><stop offset="0" style="stop-color:#3f00fc"/><stop offset=".208" style="stop-color:#3f02f7"/><stop offset=".467" style="stop-color:#3e09e7"/><stop offset=".753" style="stop-color:#3e14ce"/><stop offset="1" style="stop-color:#3d20b2"/></linearGradient><path style="fill:none;stroke:url(#SVGID_20_);stroke-miterlimit:10" d="M259.2 224.8v-80.3l20-9.6"/><linearGradient id="SVGID_21_" gradientUnits="userSpaceOnUse" x1="173.395" y1="156.842" x2="202.601" y2="156.842"><stop offset="0" style="stop-color:#3f00fc"/><stop offset=".208" style="stop-color:#3f02f7"/><stop offset=".467" style="stop-color:#3e09e7"/><stop offset=".753" style="stop-color:#3e14ce"/><stop offset="1" style="stop-color:#3d20b2"/></linearGradient><path style="fill:none;stroke:url(#SVGID_21_);stroke-miterlimit:10" d="m184.8 181.6.1-23-11-6.2v-14.9l8.5-4.9 20 6.8"/><g id="XMLID_1_"><linearGradient id="XMLID_345_" gradientUnits="userSpaceOnUse" x1="41.663" y1="209.987" x2="43.903" y2="209.987"><stop offset="0" style="stop-color:#4f3e90"/><stop offset="1" style="stop-color:#171a31"/></linearGradient><path id="XMLID_24_" d="M42.8 222.1c-.6 0-1.1-.5-1.1-1.1v-22c0-.6.5-1.1 1.1-1.1.6 0 1.1.5 1.1 1.1v22c0 .6-.5 1.1-1.1 1.1z" style="fill:url(#XMLID_345_)"/><linearGradient id="XMLID_350_" gradientUnits="userSpaceOnUse" x1="35.318" y1="201.681" x2="50.25" y2="201.681"><stop offset="0" style="stop-color:#0f9"/><stop offset="1" style="stop-color:#3cf"/></linearGradient><ellipse id="XMLID_19_" cx="42.8" cy="201.7" rx="7.5" ry="10.2" style="fill:url(#XMLID_350_)"/></g></g></svg>