<?xml version="1.0" encoding="utf-8"?>
<!-- Generator: Adobe Illustrator 19.0.0, SVG Export Plug-In . SVG Version: 6.00 Build 0)  -->
<svg version="1.1" xmlns="http://www.w3.org/2000/svg" xmlns:xlink="http://www.w3.org/1999/xlink" x="0px" y="0px"
	 viewBox="-107.6 -8 633.2 479" style="enable-background:new -107.6 -8 633.2 479;" xml:space="preserve">
<style type="text/css">
	.st0{fill:#7F00FF;}
	.st1{opacity:0.2;fill:#1E2228;}
	.st2{fill:url(#XMLID_22_);}
	.st3{fill:url(#XMLID_23_);}
	.st4{fill:url(#XMLID_37_);}
	.st5{fill:none;}
	.st6{opacity:0.8;fill:#283644;}
	.st7{opacity:0.5;fill:#F8FBFF;}
	.st8{fill:url(#XMLID_38_);}
	.st9{fill:url(#XMLID_39_);}
	.st10{fill:url(#XMLID_40_);}
	.st11{fill:url(#XMLID_41_);}
	.st12{fill:url(#XMLID_42_);}
	.st13{fill:url(#XMLID_43_);}
	.st14{fill:url(#SVGID_1_);}
	.st15{fill:url(#XMLID_44_);}
	.st16{fill:url(#XMLID_45_);}
	.st17{fill:url(#XMLID_46_);}
	.st18{fill:url(#XMLID_47_);}
	.st19{fill:url(#XMLID_48_);}
	.st20{fill:url(#XMLID_49_);}
	.st21{fill:url(#SVGID_2_);}
	.st22{fill:url(#XMLID_50_);}
	.st23{fill:url(#XMLID_51_);}
	.st24{fill:url(#SVGID_3_);}
	.st25{fill:url(#XMLID_52_);}
	.st26{fill:url(#XMLID_53_);}
	.st27{fill:url(#XMLID_54_);}
	.st28{fill:url(#XMLID_58_);}
	.st29{fill:url(#XMLID_67_);}
	.st30{fill:url(#XMLID_68_);}
	.st31{fill:url(#XMLID_69_);}
	.st32{fill:url(#XMLID_71_);}
	.st33{fill:url(#XMLID_73_);}
	.st34{fill:url(#XMLID_75_);}
	.st35{fill:url(#XMLID_76_);}
	.st36{fill:url(#XMLID_77_);}
	.st37{fill:url(#XMLID_78_);}
	.st38{fill:url(#XMLID_79_);}
	.st39{fill:url(#XMLID_80_);}
	.st40{fill:url(#XMLID_81_);}
	.st41{fill:url(#XMLID_82_);}
	.st42{fill:url(#XMLID_83_);}
	.st43{fill:url(#XMLID_84_);}
	.st44{fill:url(#XMLID_85_);}
	.st45{fill:url(#XMLID_86_);}
	.st46{fill:url(#XMLID_87_);}
	.st47{fill:url(#XMLID_88_);}
	.st48{fill:url(#XMLID_89_);}
	.st49{fill:url(#XMLID_90_);}
	.st50{fill:url(#XMLID_91_);}
	.st51{fill:url(#XMLID_92_);}
	.st52{fill:url(#XMLID_93_);}
	.st53{fill:url(#XMLID_94_);}
	.st54{fill:url(#XMLID_95_);}
	.st55{fill:url(#XMLID_96_);}
	.st56{fill:url(#XMLID_97_);}
	.st57{fill:url(#XMLID_98_);}
	.st58{fill:url(#XMLID_99_);}
	.st59{fill:url(#XMLID_100_);}
	.st60{fill:url(#XMLID_101_);}
	.st61{fill:url(#XMLID_102_);}
	.st62{fill:url(#XMLID_103_);}
	.st63{fill:url(#XMLID_104_);}
	.st64{fill:url(#XMLID_105_);}
	.st65{fill:url(#XMLID_106_);}
	.st66{fill:url(#XMLID_107_);}
	.st67{fill:url(#XMLID_108_);}
	.st68{fill:url(#XMLID_109_);}
	.st69{fill:url(#XMLID_110_);}
	.st70{fill:url(#XMLID_111_);}
	.st71{fill:url(#XMLID_112_);}
	.st72{fill:url(#XMLID_113_);}
	.st73{fill:url(#XMLID_290_);}
	.st74{fill:url(#XMLID_291_);}
	.st75{fill:url(#XMLID_296_);}
	.st76{fill:url(#XMLID_297_);}
	.st77{fill:url(#XMLID_302_);}
	.st78{fill:url(#XMLID_303_);}
	.st79{fill:url(#XMLID_308_);}
	.st80{fill:url(#XMLID_309_);}
	.st81{fill:url(#XMLID_314_);}
	.st82{fill:url(#XMLID_315_);}
	.st83{fill:url(#XMLID_320_);}
	.st84{fill:url(#XMLID_321_);}
	.st85{fill:url(#XMLID_326_);}
	.st86{fill:url(#XMLID_327_);}
	.st87{fill:url(#XMLID_332_);}
	.st88{fill:url(#XMLID_333_);}
	.st89{fill:url(#XMLID_338_);}
	.st90{fill:url(#XMLID_339_);}
	.st91{fill:url(#XMLID_344_);}
	.st92{opacity:0.5;}
	.st93{fill:#F8FBFF;}
	.st94{fill:none;stroke:url(#SVGID_4_);stroke-miterlimit:10;}
	.st95{fill:none;stroke:url(#SVGID_5_);stroke-miterlimit:10;}
	.st96{fill:none;stroke:url(#SVGID_6_);stroke-miterlimit:10;}
	.st97{fill:none;stroke:url(#SVGID_7_);stroke-miterlimit:10;}
	.st98{fill:none;stroke:url(#SVGID_8_);stroke-miterlimit:10;}
	.st99{fill:none;stroke:url(#SVGID_9_);stroke-miterlimit:10;}
	.st100{fill:none;stroke:url(#SVGID_10_);stroke-miterlimit:10;}
	.st101{fill:url(#SVGID_11_);}
	.st102{fill:url(#SVGID_12_);}
	.st103{fill:url(#SVGID_13_);}
	.st104{fill:url(#SVGID_14_);}
	.st105{fill:url(#SVGID_15_);}
	.st106{fill:none;stroke:url(#SVGID_16_);stroke-miterlimit:10;}
	.st107{fill:none;stroke:url(#SVGID_17_);stroke-miterlimit:10;}
	.st108{fill:none;stroke:url(#SVGID_18_);stroke-miterlimit:10;}
	.st109{fill:none;stroke:url(#SVGID_19_);stroke-miterlimit:10;}
	.st110{fill:none;stroke:url(#SVGID_20_);stroke-miterlimit:10;}
	.st111{fill:none;stroke:url(#SVGID_21_);stroke-miterlimit:10;}
	.st112{fill:url(#XMLID_345_);}
	.st113{fill:url(#XMLID_350_);}
</style>
<g id="Capa_1">
	<path class="st0" d="M-708.3,350V94L-930-34l-221.7,128v256L-930,478L-708.3,350z M-1061.2,146.3L-930,70.6l131.2,75.7v151.4
		L-930,373.4l-131.2-75.7V146.3z M-930,294.6l-62.9-36.3v-72.6l62.9-36.3l62.9,36.3v72.6L-930,294.6z"/>
</g>
<g id="Calque_2">
	<g>
		<g id="XMLID_74_">
			<path id="XMLID_72_" class="st1" d="M262,444.1L-13.5,285.1c-3.8-2.2-3.8-7.7,0-9.9l155.7-89.9c4.3-2.5,9.5-2.5,13.7,0
				l275.5,159.1c3.8,2.2,3.8,7.7,0,9.9l-155.7,89.9C271.5,446.6,266.3,446.6,262,444.1z"/>
			<g id="XMLID_440_">
				<linearGradient id="XMLID_22_" gradientUnits="userSpaceOnUse" x1="269.4942" y1="335.86" x2="433.6506" y2="335.86">
					<stop  offset="0" style="stop-color:#4F3E90"/>
					<stop  offset="1" style="stop-color:#171A31"/>
				</linearGradient>
				<path id="XMLID_459_" class="st2" d="M399.2,313.6l-129.7-74.9V433c2.3-0.1,4.5-0.6,6.5-1.8l68.1-39.3l86.7-50.1
					c1.9-1.1,2.9-3,2.9-4.9v-19.1L399.2,313.6z"/>
				<linearGradient id="XMLID_23_" gradientUnits="userSpaceOnUse" x1="-14.3854" y1="302.45" x2="269.4942" y2="302.45">
					<stop  offset="0" style="stop-color:#4F3E90"/>
					<stop  offset="1" style="stop-color:#171A31"/>
				</linearGradient>
				<path id="XMLID_458_" class="st3" d="M156.9,173.8c-4.2-2.4-9.4-2.4-13.7,0L7.5,252.2c0-1.9,0-3.2,0-3.2h-21.9v18.9h0
					c-0.1,2,0.9,4,2.8,5.1l273.9,158.1c2.2,1.3,4.7,1.9,7.2,1.8V238.8L156.9,173.8z"/>
				<linearGradient id="XMLID_37_" gradientUnits="userSpaceOnUse" x1="-14.3854" y1="283.3409" x2="433.6506" y2="283.3409">
					<stop  offset="0" style="stop-color:#4F3E90"/>
					<stop  offset="1" style="stop-color:#171A31"/>
				</linearGradient>
				<path id="XMLID_455_" class="st4" d="M262.3,412L-11.5,253.9c-3.8-2.2-3.8-7.7,0-9.9l154.8-89.4c4.2-2.4,9.4-2.4,13.7,0
					l273.9,158.1c3.8,2.2,3.8,7.7,0,9.9L276,412C271.8,414.5,266.6,414.5,262.3,412z"/>
				<g id="XMLID_443_">
					<polygon id="XMLID_452_" class="st5" points="105.9,191.5 105.9,306.4 127.6,318.9 127.6,179 					"/>
					<polygon id="XMLID_451_" class="st5" points="150.9,166.4 150.9,332.4 254,391.9 254,226 					"/>
					<polygon id="XMLID_450_" class="st5" points="6.4,249 91.9,298.4 91.9,199.6 					"/>
					<polygon id="XMLID_449_" class="st5" points="397.7,308.9 349.6,281.1 349.6,336.7 					"/>
					<polygon id="XMLID_448_" class="st5" points="326.2,350.2 326.2,267.7 300.7,252.9 300.7,365 					"/>
				</g>
			</g>
			<g id="XMLID_244_">
				<path id="XMLID_439_" class="st6" d="M408.2,271.2L147.5,120.7c0,0-0.1-0.1-0.2-0.1c-0.1,0-0.2,0-0.2,0.1L-4.2,208l261,150.7
					L408.2,271.2z"/>
				<g id="XMLID_245_">
					<path id="XMLID_431_" class="st7" d="M142.1,274.9c-0.2,0-0.4-0.1-0.5-0.3c-0.2-0.3-0.1-0.6,0.2-0.8l4.8-2.9
						c0.3-0.2,0.6-0.1,0.8,0.2c0.2,0.3,0.1,0.6-0.2,0.8l-4.8,2.9C142.3,274.8,142.2,274.9,142.1,274.9z M155.6,266.8
						c-0.2,0-0.4-0.1-0.5-0.3c-0.2-0.3-0.1-0.6,0.2-0.8l4.8-2.9c0.3-0.2,0.6-0.1,0.8,0.2c0.2,0.3,0.1,0.6-0.2,0.8l-4.8,2.9
						C155.8,266.8,155.7,266.8,155.6,266.8z M169,258.7c-0.2,0-0.4-0.1-0.5-0.3c-0.2-0.3-0.1-0.6,0.2-0.8l4.8-2.9
						c0.3-0.2,0.6-0.1,0.8,0.2c0.2,0.3,0.1,0.6-0.2,0.8l-4.8,2.9C169.2,258.7,169.1,258.7,169,258.7z M182.5,250.7
						c-0.2,0-0.4-0.1-0.5-0.3c-0.2-0.3-0.1-0.6,0.2-0.8l4.8-2.9c0.3-0.2,0.6-0.1,0.8,0.2c0.2,0.3,0.1,0.6-0.2,0.8l-4.8,2.9
						C182.7,250.6,182.6,250.7,182.5,250.7z M195.9,242.6c-0.2,0-0.4-0.1-0.5-0.3c-0.2-0.3-0.1-0.6,0.2-0.8l4.8-2.9
						c0.3-0.2,0.6-0.1,0.8,0.2c0.2,0.3,0.1,0.6-0.2,0.8l-4.8,2.9C196.1,242.6,196,242.6,195.9,242.6z M209.3,234.5
						c-0.2,0-0.4-0.1-0.5-0.3c-0.2-0.3-0.1-0.6,0.2-0.8l4.8-2.9c0.3-0.2,0.6-0.1,0.8,0.2c0.2,0.3,0.1,0.6-0.2,0.8l-4.8,2.9
						C209.5,234.5,209.4,234.5,209.3,234.5z M222.8,226.5c-0.2,0-0.4-0.1-0.5-0.3c-0.2-0.3-0.1-0.6,0.2-0.8l4.8-2.9
						c0.3-0.2,0.6-0.1,0.8,0.2c0.2,0.3,0.1,0.6-0.2,0.8l-4.8,2.9C223,226.4,222.9,226.5,222.8,226.5z"/>
					<linearGradient id="XMLID_38_" gradientUnits="userSpaceOnUse" x1="82.3848" y1="158.5582" x2="175.6219" y2="158.5582">
						<stop  offset="0" style="stop-color:#00FF99"/>
						<stop  offset="1" style="stop-color:#33CCFF"/>
					</linearGradient>
					<polygon id="XMLID_430_" class="st8" points="116.2,185.5 82.4,165.8 141.8,131.6 175.6,151.4 					"/>
					<g id="XMLID_427_">
						<linearGradient id="XMLID_39_" gradientUnits="userSpaceOnUse" x1="107.3038" y1="175.1174" x2="109.5437" y2="175.1174">
							<stop  offset="0" style="stop-color:#4F3E90"/>
							<stop  offset="1" style="stop-color:#171A31"/>
						</linearGradient>
						<path id="XMLID_429_" class="st9" d="M108.4,187.3c-0.6,0-1.1-0.5-1.1-1.1v-22c0-0.6,0.5-1.1,1.1-1.1c0.6,0,1.1,0.5,1.1,1.1
							v22C109.5,186.7,109,187.3,108.4,187.3z"/>
						<linearGradient id="XMLID_40_" gradientUnits="userSpaceOnUse" x1="100.9579" y1="166.8112" x2="115.8907" y2="166.8112">
							<stop  offset="0" style="stop-color:#00FF99"/>
							<stop  offset="1" style="stop-color:#33CCFF"/>
						</linearGradient>
						<ellipse id="XMLID_428_" class="st10" cx="108.4" cy="166.8" rx="7.5" ry="10.2"/>
					</g>
					<g id="XMLID_421_">
						<linearGradient id="XMLID_41_" gradientUnits="userSpaceOnUse" x1="67.3953" y1="136.7332" x2="104.6448" y2="136.7332">
							<stop  offset="0" style="stop-color:#4F3E90"/>
							<stop  offset="1" style="stop-color:#171A31"/>
						</linearGradient>
						<polygon id="XMLID_424_" class="st11" points="86,147.5 67.4,136.7 86,126 104.6,136.7 						"/>
						<linearGradient id="XMLID_42_" gradientUnits="userSpaceOnUse" x1="67.3953" y1="169.734" x2="86.0201" y2="169.734">
							<stop  offset="0" style="stop-color:#4F3E90"/>
							<stop  offset="1" style="stop-color:#171A31"/>
						</linearGradient>
						<polygon id="XMLID_423_" class="st12" points="86,202.7 67.4,192 67.4,136.7 86,147.5 						"/>
						<linearGradient id="XMLID_43_" gradientUnits="userSpaceOnUse" x1="86.0201" y1="169.734" x2="104.6448" y2="169.734">
							<stop  offset="0" style="stop-color:#4F3E90"/>
							<stop  offset="1" style="stop-color:#171A31"/>
						</linearGradient>
						<polygon id="XMLID_422_" class="st13" points="86,202.7 86,147.5 104.6,136.7 104.6,192 						"/>
					</g>
					<g id="XMLID_415_">
						<g>
							<g id="XMLID_65_">
								<linearGradient id="SVGID_1_" gradientUnits="userSpaceOnUse" x1="162.702" y1="137.3783" x2="220.8869" y2="137.3783">
									<stop  offset="0" style="stop-color:#4F3E90"/>
									<stop  offset="1" style="stop-color:#171A31"/>
								</linearGradient>
								<polygon class="st14" points="196.7,151 162.7,131.2 175.6,123.7 220.9,137.5 								"/>
							</g>
							<linearGradient id="XMLID_44_" gradientUnits="userSpaceOnUse" x1="162.702" y1="160.2707" x2="196.7127" y2="160.2707">
								<stop  offset="0" style="stop-color:#4F3E90"/>
								<stop  offset="1" style="stop-color:#171A31"/>
							</linearGradient>
							<polygon id="XMLID_64_" class="st15" points="196.7,189.3 162.7,169.5 162.7,131.2 196.7,151 							"/>
							<linearGradient id="XMLID_45_" gradientUnits="userSpaceOnUse" x1="196.7127" y1="163.4087" x2="220.8869" y2="163.4087">
								<stop  offset="0" style="stop-color:#4F3E90"/>
								<stop  offset="1" style="stop-color:#171A31"/>
							</linearGradient>
							<polygon id="XMLID_63_" class="st16" points="196.7,189.3 196.7,151 220.9,137.5 220.9,175.8 							"/>
						</g>
					</g>
					<g id="XMLID_409_">
						<linearGradient id="XMLID_46_" gradientUnits="userSpaceOnUse" x1="24.1631" y1="125.825" x2="78.3981" y2="125.825">
							<stop  offset="0" style="stop-color:#4F3E90"/>
							<stop  offset="1" style="stop-color:#171A31"/>
						</linearGradient>
						<polygon id="XMLID_412_" class="st17" points="51.3,141.5 24.2,125.8 51.3,110.2 78.4,125.8 						"/>
						<linearGradient id="XMLID_47_" gradientUnits="userSpaceOnUse" x1="24.1631" y1="173.8737" x2="51.2807" y2="173.8737">
							<stop  offset="0" style="stop-color:#4F3E90"/>
							<stop  offset="1" style="stop-color:#171A31"/>
						</linearGradient>
						<polygon id="XMLID_411_" class="st18" points="51.3,221.9 24.2,206.3 24.2,125.8 51.3,141.5 						"/>
						<linearGradient id="XMLID_48_" gradientUnits="userSpaceOnUse" x1="51.2807" y1="173.8738" x2="78.3981" y2="173.8738">
							<stop  offset="0" style="stop-color:#4F3E90"/>
							<stop  offset="1" style="stop-color:#171A31"/>
						</linearGradient>
						<polygon id="XMLID_410_" class="st19" points="51.3,221.9 51.3,141.5 78.4,125.8 78.4,206.3 						"/>
					</g>
					<linearGradient id="XMLID_49_" gradientUnits="userSpaceOnUse" x1="122.1784" y1="152.8266" x2="152.7454" y2="152.8266">
						<stop  offset="2.945171e-007" style="stop-color:#3F00FC"/>
						<stop  offset="0.2077" style="stop-color:#3F02F7"/>
						<stop  offset="0.4672" style="stop-color:#3E09E7"/>
						<stop  offset="0.7531" style="stop-color:#3E14CE"/>
						<stop  offset="1" style="stop-color:#3D20B2"/>
					</linearGradient>
					<path id="XMLID_403_" class="st20" d="M122.2,154.9c-0.3,1.8,0.4,4,2.1,4.8c2.5,1.2,5.2-0.7,7.9-1.4c2.5-0.7,5.4-0.2,7.6,1.3
						c0.8,0.5,1.5,1.2,2.5,1.6c1.6,0.6,3.4,0.1,5-0.4c1.3-0.4,2.6-0.9,3.6-1.8c2.3-2,2.4-5.7,0.9-8.4
						C146,140.5,124.3,142.5,122.2,154.9z"/>
					<g id="XMLID_397_">
						<g>
							<g id="XMLID_61_">
								<linearGradient id="SVGID_2_" gradientUnits="userSpaceOnUse" x1="202.2621" y1="136.7332" x2="239.5117" y2="136.7332">
									<stop  offset="0" style="stop-color:#4F3E90"/>
									<stop  offset="1" style="stop-color:#171A31"/>
								</linearGradient>
								<polygon class="st21" points="220.9,147.5 202.3,136.7 220.9,126 239.5,136.7 								"/>
							</g>
							<linearGradient id="XMLID_50_" gradientUnits="userSpaceOnUse" x1="202.2621" y1="169.734" x2="220.8869" y2="169.734">
								<stop  offset="0" style="stop-color:#4F3E90"/>
								<stop  offset="1" style="stop-color:#171A31"/>
							</linearGradient>
							<polygon id="XMLID_60_" class="st22" points="220.9,202.7 202.3,192 202.3,136.7 220.9,147.5 							"/>
							<linearGradient id="XMLID_51_" gradientUnits="userSpaceOnUse" x1="220.8869" y1="169.734" x2="239.5117" y2="169.734">
								<stop  offset="0" style="stop-color:#4F3E90"/>
								<stop  offset="1" style="stop-color:#171A31"/>
							</linearGradient>
							<polygon id="XMLID_59_" class="st23" points="220.9,202.7 220.9,147.5 239.5,136.7 239.5,192 							"/>
						</g>
					</g>
					<g id="XMLID_391_">
						<g>
							<g id="XMLID_57_">
								<linearGradient id="SVGID_3_" gradientUnits="userSpaceOnUse" x1="230.1993" y1="136.669" x2="295.953" y2="136.669">
									<stop  offset="0" style="stop-color:#4F3E90"/>
									<stop  offset="1" style="stop-color:#171A31"/>
								</linearGradient>
								<polygon class="st24" points="277.3,155.2 230.2,128.9 248.8,118.1 296,144.5 								"/>
							</g>
							<linearGradient id="XMLID_52_" gradientUnits="userSpaceOnUse" x1="230.1993" y1="182.3606" x2="277.3283" y2="182.3606">
								<stop  offset="0" style="stop-color:#4F3E90"/>
								<stop  offset="1" style="stop-color:#171A31"/>
							</linearGradient>
							<polygon id="XMLID_56_" class="st25" points="277.3,235.8 230.2,209.5 230.2,128.9 277.3,155.2 							"/>
							<linearGradient id="XMLID_53_" gradientUnits="userSpaceOnUse" x1="277.3283" y1="190.1498" x2="295.953" y2="190.1498">
								<stop  offset="0" style="stop-color:#4F3E90"/>
								<stop  offset="1" style="stop-color:#171A31"/>
							</linearGradient>
							<polygon id="XMLID_55_" class="st26" points="277.3,235.8 277.3,155.2 296,144.5 296,225.1 							"/>
						</g>
					</g>
					<g id="XMLID_385_">
						<linearGradient id="XMLID_54_" gradientUnits="userSpaceOnUse" x1="139.2319" y1="190.5136" x2="184.9342" y2="190.5136">
							<stop  offset="0" style="stop-color:#4F3E90"/>
							<stop  offset="1" style="stop-color:#171A31"/>
						</linearGradient>
						<polygon id="XMLID_388_" class="st27" points="166.3,203.5 139.2,188.3 157.9,177.5 184.9,192.8 						"/>
						<linearGradient id="XMLID_58_" gradientUnits="userSpaceOnUse" x1="139.2319" y1="207.788" x2="166.3095" y2="207.788">
							<stop  offset="0" style="stop-color:#4F3E90"/>
							<stop  offset="1" style="stop-color:#171A31"/>
						</linearGradient>
						<polygon id="XMLID_387_" class="st28" points="166.3,227.3 139.2,212.1 139.2,188.3 166.3,203.5 						"/>
						<linearGradient id="XMLID_67_" gradientUnits="userSpaceOnUse" x1="166.3095" y1="210.0246" x2="184.9342" y2="210.0246">
							<stop  offset="0" style="stop-color:#4F3E90"/>
							<stop  offset="1" style="stop-color:#171A31"/>
						</linearGradient>
						<polygon id="XMLID_386_" class="st29" points="166.3,227.3 166.3,203.5 184.9,192.8 184.9,216.5 						"/>
					</g>
					<g id="XMLID_382_">
						<linearGradient id="XMLID_68_" gradientUnits="userSpaceOnUse" x1="285.5203" y1="228.4661" x2="287.7602" y2="228.4661">
							<stop  offset="0" style="stop-color:#4F3E90"/>
							<stop  offset="1" style="stop-color:#171A31"/>
						</linearGradient>
						<path id="XMLID_384_" class="st30" d="M286.6,240.6c-0.6,0-1.1-0.5-1.1-1.1v-22c0-0.6,0.5-1.1,1.1-1.1c0.6,0,1.1,0.5,1.1,1.1
							v22C287.8,240.1,287.3,240.6,286.6,240.6z"/>
						<linearGradient id="XMLID_69_" gradientUnits="userSpaceOnUse" x1="279.1743" y1="220.1599" x2="294.1071" y2="220.1599">
							<stop  offset="0" style="stop-color:#00FF99"/>
							<stop  offset="1" style="stop-color:#33CCFF"/>
						</linearGradient>
						<ellipse id="XMLID_383_" class="st31" cx="286.6" cy="220.2" rx="7.5" ry="10.2"/>
					</g>
					<g id="XMLID_379_">
						<linearGradient id="XMLID_71_" gradientUnits="userSpaceOnUse" x1="302.2989" y1="238.6391" x2="304.5389" y2="238.6391">
							<stop  offset="0" style="stop-color:#4F3E90"/>
							<stop  offset="1" style="stop-color:#171A31"/>
						</linearGradient>
						<path id="XMLID_381_" class="st32" d="M303.4,250.8c-0.6,0-1.1-0.5-1.1-1.1v-22c0-0.6,0.5-1.1,1.1-1.1c0.6,0,1.1,0.5,1.1,1.1
							v22C304.5,250.3,304,250.8,303.4,250.8z"/>
						<linearGradient id="XMLID_73_" gradientUnits="userSpaceOnUse" x1="295.953" y1="230.3328" x2="310.8858" y2="230.3328">
							<stop  offset="0" style="stop-color:#00FF99"/>
							<stop  offset="1" style="stop-color:#33CCFF"/>
						</linearGradient>
						<ellipse id="XMLID_380_" class="st33" cx="303.4" cy="230.3" rx="7.5" ry="10.2"/>
					</g>
					<g id="XMLID_376_">
						<linearGradient id="XMLID_75_" gradientUnits="userSpaceOnUse" x1="319.0777" y1="248.812" x2="321.3176" y2="248.812">
							<stop  offset="0" style="stop-color:#4F3E90"/>
							<stop  offset="1" style="stop-color:#171A31"/>
						</linearGradient>
						<path id="XMLID_378_" class="st34" d="M320.2,260.9c-0.6,0-1.1-0.5-1.1-1.1v-22c0-0.6,0.5-1.1,1.1-1.1c0.6,0,1.1,0.5,1.1,1.1
							v22C321.3,260.4,320.8,260.9,320.2,260.9z"/>
						<linearGradient id="XMLID_76_" gradientUnits="userSpaceOnUse" x1="312.7318" y1="240.5058" x2="327.6646" y2="240.5058">
							<stop  offset="0" style="stop-color:#00FF99"/>
							<stop  offset="1" style="stop-color:#33CCFF"/>
						</linearGradient>
						<ellipse id="XMLID_377_" class="st35" cx="320.2" cy="240.5" rx="7.5" ry="10.2"/>
					</g>
					<g id="XMLID_373_">
						<linearGradient id="XMLID_77_" gradientUnits="userSpaceOnUse" x1="335.8565" y1="258.985" x2="338.0964" y2="258.985">
							<stop  offset="0" style="stop-color:#4F3E90"/>
							<stop  offset="1" style="stop-color:#171A31"/>
						</linearGradient>
						<path id="XMLID_375_" class="st36" d="M337,271.1c-0.6,0-1.1-0.5-1.1-1.1v-22c0-0.6,0.5-1.1,1.1-1.1c0.6,0,1.1,0.5,1.1,1.1v22
							C338.1,270.6,337.6,271.1,337,271.1z"/>
						<linearGradient id="XMLID_78_" gradientUnits="userSpaceOnUse" x1="329.5105" y1="250.6788" x2="344.4434" y2="250.6788">
							<stop  offset="0" style="stop-color:#00FF99"/>
							<stop  offset="1" style="stop-color:#33CCFF"/>
						</linearGradient>
						<ellipse id="XMLID_374_" class="st37" cx="337" cy="250.7" rx="7.5" ry="10.2"/>
					</g>
					<g id="XMLID_370_">
						<linearGradient id="XMLID_79_" gradientUnits="userSpaceOnUse" x1="352.6352" y1="269.1581" x2="354.8751" y2="269.1581">
							<stop  offset="0" style="stop-color:#4F3E90"/>
							<stop  offset="1" style="stop-color:#171A31"/>
						</linearGradient>
						<path id="XMLID_372_" class="st38" d="M353.8,281.3c-0.6,0-1.1-0.5-1.1-1.1v-22c0-0.6,0.5-1.1,1.1-1.1c0.6,0,1.1,0.5,1.1,1.1
							v22C354.9,280.8,354.4,281.3,353.8,281.3z"/>
						<linearGradient id="XMLID_80_" gradientUnits="userSpaceOnUse" x1="346.2893" y1="260.8517" x2="361.222" y2="260.8517">
							<stop  offset="0" style="stop-color:#00FF99"/>
							<stop  offset="1" style="stop-color:#33CCFF"/>
						</linearGradient>
						<ellipse id="XMLID_371_" class="st39" cx="353.8" cy="260.9" rx="7.5" ry="10.2"/>
					</g>
					<g id="XMLID_364_">
						<linearGradient id="XMLID_81_" gradientUnits="userSpaceOnUse" x1="113.9537" y1="210.0246" x2="179.7074" y2="210.0246">
							<stop  offset="0" style="stop-color:#4F3E90"/>
							<stop  offset="1" style="stop-color:#171A31"/>
						</linearGradient>
						<polygon id="XMLID_367_" class="st40" points="161.1,228.6 114,202.2 132.6,191.5 179.7,217.8 						"/>
						<linearGradient id="XMLID_82_" gradientUnits="userSpaceOnUse" x1="113.9537" y1="227.299" x2="161.0827" y2="227.299">
							<stop  offset="0" style="stop-color:#4F3E90"/>
							<stop  offset="1" style="stop-color:#171A31"/>
						</linearGradient>
						<polygon id="XMLID_366_" class="st41" points="161.1,252.4 114,226 114,202.2 161.1,228.6 						"/>
						<linearGradient id="XMLID_83_" gradientUnits="userSpaceOnUse" x1="161.0827" y1="235.0882" x2="179.7074" y2="235.0882">
							<stop  offset="0" style="stop-color:#4F3E90"/>
							<stop  offset="1" style="stop-color:#171A31"/>
						</linearGradient>
						<polygon id="XMLID_365_" class="st42" points="161.1,252.4 161.1,228.6 179.7,217.8 179.7,241.6 						"/>
					</g>
					<g id="XMLID_358_">
						<linearGradient id="XMLID_84_" gradientUnits="userSpaceOnUse" x1="83.8339" y1="226.5063" x2="149.5876" y2="226.5063">
							<stop  offset="0" style="stop-color:#4F3E90"/>
							<stop  offset="1" style="stop-color:#171A31"/>
						</linearGradient>
						<polygon id="XMLID_361_" class="st43" points="131,245 83.8,218.7 102.5,208 149.6,234.3 						"/>
						<linearGradient id="XMLID_85_" gradientUnits="userSpaceOnUse" x1="83.8339" y1="243.7807" x2="130.9629" y2="243.7807">
							<stop  offset="0" style="stop-color:#4F3E90"/>
							<stop  offset="1" style="stop-color:#171A31"/>
						</linearGradient>
						<polygon id="XMLID_360_" class="st44" points="131,268.8 83.8,242.5 83.8,218.7 131,245 						"/>
						<linearGradient id="XMLID_86_" gradientUnits="userSpaceOnUse" x1="130.9629" y1="251.5699" x2="149.5876" y2="251.5699">
							<stop  offset="0" style="stop-color:#4F3E90"/>
							<stop  offset="1" style="stop-color:#171A31"/>
						</linearGradient>
						<polygon id="XMLID_359_" class="st45" points="131,268.8 131,245 149.6,234.3 149.6,258.1 						"/>
					</g>
					<g id="XMLID_352_">
						<linearGradient id="XMLID_87_" gradientUnits="userSpaceOnUse" x1="200.4041" y1="228.6363" x2="237.3665" y2="228.6363">
							<stop  offset="0" style="stop-color:#4F3E90"/>
							<stop  offset="1" style="stop-color:#171A31"/>
						</linearGradient>
						<polygon id="XMLID_355_" class="st46" points="218.7,239.5 200.4,228.6 219,217.8 237.4,228.7 						"/>
						<linearGradient id="XMLID_88_" gradientUnits="userSpaceOnUse" x1="200.4041" y1="245.9107" x2="218.7418" y2="245.9107">
							<stop  offset="0" style="stop-color:#4F3E90"/>
							<stop  offset="1" style="stop-color:#171A31"/>
						</linearGradient>
						<polygon id="XMLID_354_" class="st47" points="218.7,263.3 200.4,252.4 200.4,228.6 218.7,239.5 						"/>
						<linearGradient id="XMLID_89_" gradientUnits="userSpaceOnUse" x1="218.7418" y1="245.9803" x2="237.3665" y2="245.9803">
							<stop  offset="0" style="stop-color:#4F3E90"/>
							<stop  offset="1" style="stop-color:#171A31"/>
						</linearGradient>
						<polygon id="XMLID_353_" class="st48" points="218.7,263.3 218.7,239.5 237.4,228.7 237.4,252.5 						"/>
					</g>
					<g id="XMLID_346_">
						<linearGradient id="XMLID_90_" gradientUnits="userSpaceOnUse" x1="224.6493" y1="243.133" x2="261.6117" y2="243.133">
							<stop  offset="0" style="stop-color:#4F3E90"/>
							<stop  offset="1" style="stop-color:#171A31"/>
						</linearGradient>
						<polygon id="XMLID_349_" class="st49" points="243,254 224.6,243.1 243.3,232.3 261.6,243.2 						"/>
						<linearGradient id="XMLID_91_" gradientUnits="userSpaceOnUse" x1="224.6493" y1="260.4073" x2="242.987" y2="260.4073">
							<stop  offset="0" style="stop-color:#4F3E90"/>
							<stop  offset="1" style="stop-color:#171A31"/>
						</linearGradient>
						<polygon id="XMLID_348_" class="st50" points="243,277.8 224.6,266.9 224.6,243.1 243,254 						"/>
						<linearGradient id="XMLID_92_" gradientUnits="userSpaceOnUse" x1="242.987" y1="260.4769" x2="261.6117" y2="260.4769">
							<stop  offset="0" style="stop-color:#4F3E90"/>
							<stop  offset="1" style="stop-color:#171A31"/>
						</linearGradient>
						<polygon id="XMLID_347_" class="st51" points="243,277.8 243,254 261.6,243.2 261.6,267 						"/>
					</g>
					<g id="XMLID_340_">
						<linearGradient id="XMLID_93_" gradientUnits="userSpaceOnUse" x1="248.8944" y1="257.6296" x2="285.8568" y2="257.6296">
							<stop  offset="0" style="stop-color:#4F3E90"/>
							<stop  offset="1" style="stop-color:#171A31"/>
						</linearGradient>
						<polygon id="XMLID_343_" class="st52" points="267.2,268.5 248.9,257.6 267.5,246.8 285.9,257.7 						"/>
						<linearGradient id="XMLID_94_" gradientUnits="userSpaceOnUse" x1="248.8944" y1="274.904" x2="267.2321" y2="274.904">
							<stop  offset="0" style="stop-color:#4F3E90"/>
							<stop  offset="1" style="stop-color:#171A31"/>
						</linearGradient>
						<polygon id="XMLID_342_" class="st53" points="267.2,292.2 248.9,281.4 248.9,257.6 267.2,268.5 						"/>
						<linearGradient id="XMLID_95_" gradientUnits="userSpaceOnUse" x1="267.2321" y1="274.9735" x2="285.8568" y2="274.9735">
							<stop  offset="0" style="stop-color:#4F3E90"/>
							<stop  offset="1" style="stop-color:#171A31"/>
						</linearGradient>
						<polygon id="XMLID_341_" class="st54" points="267.2,292.2 267.2,268.5 285.9,257.7 285.9,281.5 						"/>
					</g>
					<g id="XMLID_334_">
						<linearGradient id="XMLID_96_" gradientUnits="userSpaceOnUse" x1="273.1396" y1="272.1262" x2="310.102" y2="272.1262">
							<stop  offset="0" style="stop-color:#4F3E90"/>
							<stop  offset="1" style="stop-color:#171A31"/>
						</linearGradient>
						<polygon id="XMLID_337_" class="st55" points="291.5,282.9 273.1,272.1 291.8,261.3 310.1,272.2 						"/>
						<linearGradient id="XMLID_97_" gradientUnits="userSpaceOnUse" x1="273.1396" y1="289.4006" x2="291.4772" y2="289.4006">
							<stop  offset="0" style="stop-color:#4F3E90"/>
							<stop  offset="1" style="stop-color:#171A31"/>
						</linearGradient>
						<polygon id="XMLID_336_" class="st56" points="291.5,306.7 273.1,295.9 273.1,272.1 291.5,282.9 						"/>
						<linearGradient id="XMLID_98_" gradientUnits="userSpaceOnUse" x1="291.4772" y1="289.4702" x2="310.102" y2="289.4702">
							<stop  offset="0" style="stop-color:#4F3E90"/>
							<stop  offset="1" style="stop-color:#171A31"/>
						</linearGradient>
						<polygon id="XMLID_335_" class="st57" points="291.5,306.7 291.5,282.9 310.1,272.2 310.1,296 						"/>
					</g>
					<g id="XMLID_328_">
						<linearGradient id="XMLID_99_" gradientUnits="userSpaceOnUse" x1="176.159" y1="242.4619" x2="213.1214" y2="242.4619">
							<stop  offset="0" style="stop-color:#4F3E90"/>
							<stop  offset="1" style="stop-color:#171A31"/>
						</linearGradient>
						<polygon id="XMLID_331_" class="st58" points="194.5,253.3 176.2,242.4 194.8,231.6 213.1,242.5 						"/>
						<linearGradient id="XMLID_100_" gradientUnits="userSpaceOnUse" x1="176.159" y1="259.7363" x2="194.4967" y2="259.7363">
							<stop  offset="0" style="stop-color:#4F3E90"/>
							<stop  offset="1" style="stop-color:#171A31"/>
						</linearGradient>
						<polygon id="XMLID_330_" class="st59" points="194.5,277.1 176.2,266.2 176.2,242.4 194.5,253.3 						"/>
						<linearGradient id="XMLID_101_" gradientUnits="userSpaceOnUse" x1="194.4967" y1="259.8058" x2="213.1214" y2="259.8058">
							<stop  offset="0" style="stop-color:#4F3E90"/>
							<stop  offset="1" style="stop-color:#171A31"/>
						</linearGradient>
						<polygon id="XMLID_329_" class="st60" points="194.5,277.1 194.5,253.3 213.1,242.5 213.1,266.3 						"/>
					</g>
					<g id="XMLID_322_">
						<linearGradient id="XMLID_102_" gradientUnits="userSpaceOnUse" x1="200.4041" y1="256.9585" x2="237.3665" y2="256.9585">
							<stop  offset="0" style="stop-color:#4F3E90"/>
							<stop  offset="1" style="stop-color:#171A31"/>
						</linearGradient>
						<polygon id="XMLID_325_" class="st61" points="218.7,267.8 200.4,256.9 219,246.1 237.4,257 						"/>
						<linearGradient id="XMLID_103_" gradientUnits="userSpaceOnUse" x1="200.4041" y1="274.2329" x2="218.7418" y2="274.2329">
							<stop  offset="0" style="stop-color:#4F3E90"/>
							<stop  offset="1" style="stop-color:#171A31"/>
						</linearGradient>
						<polygon id="XMLID_324_" class="st62" points="218.7,291.6 200.4,280.7 200.4,256.9 218.7,267.8 						"/>
						<linearGradient id="XMLID_104_" gradientUnits="userSpaceOnUse" x1="218.7418" y1="274.3025" x2="237.3665" y2="274.3025">
							<stop  offset="0" style="stop-color:#4F3E90"/>
							<stop  offset="1" style="stop-color:#171A31"/>
						</linearGradient>
						<polygon id="XMLID_323_" class="st63" points="218.7,291.6 218.7,267.8 237.4,257 237.4,280.8 						"/>
					</g>
					<g id="XMLID_316_">
						<linearGradient id="XMLID_105_" gradientUnits="userSpaceOnUse" x1="224.6493" y1="271.4551" x2="261.6117" y2="271.4551">
							<stop  offset="0" style="stop-color:#4F3E90"/>
							<stop  offset="1" style="stop-color:#171A31"/>
						</linearGradient>
						<polygon id="XMLID_319_" class="st64" points="243,282.3 224.6,271.4 243.3,260.6 261.6,271.5 						"/>
						<linearGradient id="XMLID_106_" gradientUnits="userSpaceOnUse" x1="224.6493" y1="288.7296" x2="242.987" y2="288.7296">
							<stop  offset="0" style="stop-color:#4F3E90"/>
							<stop  offset="1" style="stop-color:#171A31"/>
						</linearGradient>
						<polygon id="XMLID_318_" class="st65" points="243,306.1 224.6,295.2 224.6,271.4 243,282.3 						"/>
						<linearGradient id="XMLID_107_" gradientUnits="userSpaceOnUse" x1="242.987" y1="288.7991" x2="261.6117" y2="288.7991">
							<stop  offset="0" style="stop-color:#4F3E90"/>
							<stop  offset="1" style="stop-color:#171A31"/>
						</linearGradient>
						<polygon id="XMLID_317_" class="st66" points="243,306.1 243,282.3 261.6,271.5 261.6,295.3 						"/>
					</g>
					<g id="XMLID_310_">
						<linearGradient id="XMLID_108_" gradientUnits="userSpaceOnUse" x1="248.8944" y1="285.9518" x2="285.8568" y2="285.9518">
							<stop  offset="0" style="stop-color:#4F3E90"/>
							<stop  offset="1" style="stop-color:#171A31"/>
						</linearGradient>
						<polygon id="XMLID_313_" class="st67" points="267.2,296.8 248.9,285.9 267.5,275.1 285.9,286 						"/>
						<linearGradient id="XMLID_109_" gradientUnits="userSpaceOnUse" x1="248.8944" y1="303.2261" x2="267.2321" y2="303.2261">
							<stop  offset="0" style="stop-color:#4F3E90"/>
							<stop  offset="1" style="stop-color:#171A31"/>
						</linearGradient>
						<polygon id="XMLID_312_" class="st68" points="267.2,320.6 248.9,309.7 248.9,285.9 267.2,296.8 						"/>
						<linearGradient id="XMLID_110_" gradientUnits="userSpaceOnUse" x1="267.2321" y1="303.2958" x2="285.8568" y2="303.2958">
							<stop  offset="0" style="stop-color:#4F3E90"/>
							<stop  offset="1" style="stop-color:#171A31"/>
						</linearGradient>
						<polygon id="XMLID_311_" class="st69" points="267.2,320.6 267.2,296.8 285.9,286 285.9,309.8 						"/>
					</g>
					<g id="XMLID_304_">
						<linearGradient id="XMLID_111_" gradientUnits="userSpaceOnUse" x1="151.9139" y1="256.9464" x2="188.8763" y2="256.9464">
							<stop  offset="0" style="stop-color:#4F3E90"/>
							<stop  offset="1" style="stop-color:#171A31"/>
						</linearGradient>
						<polygon id="XMLID_307_" class="st70" points="170.3,267.8 151.9,256.9 170.5,246.1 188.9,257 						"/>
						<linearGradient id="XMLID_112_" gradientUnits="userSpaceOnUse" x1="151.9139" y1="274.2208" x2="170.2516" y2="274.2208">
							<stop  offset="0" style="stop-color:#4F3E90"/>
							<stop  offset="1" style="stop-color:#171A31"/>
						</linearGradient>
						<polygon id="XMLID_306_" class="st71" points="170.3,291.6 151.9,280.7 151.9,256.9 170.3,267.8 						"/>
						<linearGradient id="XMLID_113_" gradientUnits="userSpaceOnUse" x1="170.2516" y1="274.2903" x2="188.8763" y2="274.2903">
							<stop  offset="0" style="stop-color:#4F3E90"/>
							<stop  offset="1" style="stop-color:#171A31"/>
						</linearGradient>
						<polygon id="XMLID_305_" class="st72" points="170.3,291.6 170.3,267.8 188.9,257 188.9,280.8 						"/>
					</g>
					<g id="XMLID_298_">
						<linearGradient id="XMLID_290_" gradientUnits="userSpaceOnUse" x1="176.159" y1="271.4431" x2="213.1214" y2="271.4431">
							<stop  offset="0" style="stop-color:#4F3E90"/>
							<stop  offset="1" style="stop-color:#171A31"/>
						</linearGradient>
						<polygon id="XMLID_301_" class="st73" points="194.5,282.3 176.2,271.4 194.8,260.6 213.1,271.5 						"/>
						<linearGradient id="XMLID_291_" gradientUnits="userSpaceOnUse" x1="176.159" y1="288.7173" x2="194.4967" y2="288.7173">
							<stop  offset="0" style="stop-color:#4F3E90"/>
							<stop  offset="1" style="stop-color:#171A31"/>
						</linearGradient>
						<polygon id="XMLID_300_" class="st74" points="194.5,306.1 176.2,295.2 176.2,271.4 194.5,282.3 						"/>
						<linearGradient id="XMLID_296_" gradientUnits="userSpaceOnUse" x1="194.4967" y1="288.7869" x2="213.1214" y2="288.7869">
							<stop  offset="0" style="stop-color:#4F3E90"/>
							<stop  offset="1" style="stop-color:#171A31"/>
						</linearGradient>
						<polygon id="XMLID_299_" class="st75" points="194.5,306.1 194.5,282.3 213.1,271.5 213.1,295.3 						"/>
					</g>
					<g id="XMLID_292_">
						<linearGradient id="XMLID_297_" gradientUnits="userSpaceOnUse" x1="200.4041" y1="285.9396" x2="237.3665" y2="285.9396">
							<stop  offset="0" style="stop-color:#4F3E90"/>
							<stop  offset="1" style="stop-color:#171A31"/>
						</linearGradient>
						<polygon id="XMLID_295_" class="st76" points="218.7,296.8 200.4,285.9 219,275.1 237.4,286 						"/>
						<linearGradient id="XMLID_302_" gradientUnits="userSpaceOnUse" x1="200.4041" y1="303.2141" x2="218.7418" y2="303.2141">
							<stop  offset="0" style="stop-color:#4F3E90"/>
							<stop  offset="1" style="stop-color:#171A31"/>
						</linearGradient>
						<polygon id="XMLID_294_" class="st77" points="218.7,320.6 200.4,309.7 200.4,285.9 218.7,296.8 						"/>
						<linearGradient id="XMLID_303_" gradientUnits="userSpaceOnUse" x1="218.7418" y1="303.2836" x2="237.3665" y2="303.2836">
							<stop  offset="0" style="stop-color:#4F3E90"/>
							<stop  offset="1" style="stop-color:#171A31"/>
						</linearGradient>
						<polygon id="XMLID_293_" class="st78" points="218.7,320.6 218.7,296.8 237.4,286 237.4,309.8 						"/>
					</g>
					<g id="XMLID_286_">
						<linearGradient id="XMLID_308_" gradientUnits="userSpaceOnUse" x1="224.6493" y1="300.4362" x2="261.6117" y2="300.4362">
							<stop  offset="0" style="stop-color:#4F3E90"/>
							<stop  offset="1" style="stop-color:#171A31"/>
						</linearGradient>
						<polygon id="XMLID_289_" class="st79" points="243,311.3 224.6,300.4 243.3,289.6 261.6,300.5 						"/>
						<linearGradient id="XMLID_309_" gradientUnits="userSpaceOnUse" x1="224.6493" y1="317.7106" x2="242.987" y2="317.7106">
							<stop  offset="0" style="stop-color:#4F3E90"/>
							<stop  offset="1" style="stop-color:#171A31"/>
						</linearGradient>
						<polygon id="XMLID_288_" class="st80" points="243,335.1 224.6,324.2 224.6,300.4 243,311.3 						"/>
						<linearGradient id="XMLID_314_" gradientUnits="userSpaceOnUse" x1="242.987" y1="317.7802" x2="261.6117" y2="317.7802">
							<stop  offset="0" style="stop-color:#4F3E90"/>
							<stop  offset="1" style="stop-color:#171A31"/>
						</linearGradient>
						<polygon id="XMLID_287_" class="st81" points="243,335.1 243,311.3 261.6,300.5 261.6,324.3 						"/>
					</g>
					<g id="XMLID_283_">
						<linearGradient id="XMLID_315_" gradientUnits="userSpaceOnUse" x1="186.0533" y1="219.5065" x2="188.2932" y2="219.5065">
							<stop  offset="0" style="stop-color:#4F3E90"/>
							<stop  offset="1" style="stop-color:#171A31"/>
						</linearGradient>
						<path id="XMLID_285_" class="st82" d="M187.2,231.6c-0.6,0-1.1-0.5-1.1-1.1v-22c0-0.6,0.5-1.1,1.1-1.1s1.1,0.5,1.1,1.1v22
							C188.3,231.1,187.8,231.6,187.2,231.6z"/>
						<linearGradient id="XMLID_320_" gradientUnits="userSpaceOnUse" x1="179.7074" y1="211.2002" x2="194.6401" y2="211.2002">
							<stop  offset="0" style="stop-color:#00FF99"/>
							<stop  offset="1" style="stop-color:#33CCFF"/>
						</linearGradient>
						<ellipse id="XMLID_284_" class="st83" cx="187.2" cy="211.2" rx="7.5" ry="10.2"/>
					</g>
					<g id="XMLID_280_">
						<linearGradient id="XMLID_321_" gradientUnits="userSpaceOnUse" x1="256.9428" y1="327.4201" x2="259.1827" y2="327.4201">
							<stop  offset="0" style="stop-color:#4F3E90"/>
							<stop  offset="1" style="stop-color:#171A31"/>
						</linearGradient>
						<path id="XMLID_282_" class="st84" d="M258.1,339.6c-0.6,0-1.1-0.5-1.1-1.1v-22c0-0.6,0.5-1.1,1.1-1.1c0.6,0,1.1,0.5,1.1,1.1
							v22C259.2,339.1,258.7,339.6,258.1,339.6z"/>
						<linearGradient id="XMLID_326_" gradientUnits="userSpaceOnUse" x1="250.5969" y1="319.1138" x2="265.5297" y2="319.1138">
							<stop  offset="0" style="stop-color:#00FF99"/>
							<stop  offset="1" style="stop-color:#33CCFF"/>
						</linearGradient>
						<ellipse id="XMLID_281_" class="st85" cx="258.1" cy="319.1" rx="7.5" ry="10.2"/>
					</g>
					<g id="XMLID_277_">
						<linearGradient id="XMLID_327_" gradientUnits="userSpaceOnUse" x1="273.578" y1="318.4605" x2="275.8179" y2="318.4605">
							<stop  offset="0" style="stop-color:#4F3E90"/>
							<stop  offset="1" style="stop-color:#171A31"/>
						</linearGradient>
						<path id="XMLID_279_" class="st86" d="M274.7,330.6c-0.6,0-1.1-0.5-1.1-1.1v-22c0-0.6,0.5-1.1,1.1-1.1c0.6,0,1.1,0.5,1.1,1.1
							v22C275.8,330.1,275.3,330.6,274.7,330.6z"/>
						<linearGradient id="XMLID_332_" gradientUnits="userSpaceOnUse" x1="267.2321" y1="310.1542" x2="282.1649" y2="310.1542">
							<stop  offset="0" style="stop-color:#00FF99"/>
							<stop  offset="1" style="stop-color:#33CCFF"/>
						</linearGradient>
						<ellipse id="XMLID_278_" class="st87" cx="274.7" cy="310.2" rx="7.5" ry="10.2"/>
					</g>
					<g id="XMLID_274_">
						<linearGradient id="XMLID_333_" gradientUnits="userSpaceOnUse" x1="290.2132" y1="309.5008" x2="292.4531" y2="309.5008">
							<stop  offset="0" style="stop-color:#4F3E90"/>
							<stop  offset="1" style="stop-color:#171A31"/>
						</linearGradient>
						<path id="XMLID_276_" class="st88" d="M291.3,321.6c-0.6,0-1.1-0.5-1.1-1.1v-22c0-0.6,0.5-1.1,1.1-1.1c0.6,0,1.1,0.5,1.1,1.1
							v22C292.5,321.1,292,321.6,291.3,321.6z"/>
						<linearGradient id="XMLID_338_" gradientUnits="userSpaceOnUse" x1="283.8673" y1="301.1946" x2="298.8002" y2="301.1946">
							<stop  offset="0" style="stop-color:#00FF99"/>
							<stop  offset="1" style="stop-color:#33CCFF"/>
						</linearGradient>
						<ellipse id="XMLID_275_" class="st89" cx="291.3" cy="301.2" rx="7.5" ry="10.2"/>
					</g>
					<g id="XMLID_271_">
						<linearGradient id="XMLID_339_" gradientUnits="userSpaceOnUse" x1="306.8485" y1="300.5412" x2="309.0885" y2="300.5412">
							<stop  offset="0" style="stop-color:#4F3E90"/>
							<stop  offset="1" style="stop-color:#171A31"/>
						</linearGradient>
						<path id="XMLID_273_" class="st90" d="M308,312.7c-0.6,0-1.1-0.5-1.1-1.1v-22c0-0.6,0.5-1.1,1.1-1.1c0.6,0,1.1,0.5,1.1,1.1v22
							C309.1,312.2,308.6,312.7,308,312.7z"/>
						<linearGradient id="XMLID_344_" gradientUnits="userSpaceOnUse" x1="300.5025" y1="292.235" x2="315.4354" y2="292.235">
							<stop  offset="0" style="stop-color:#00FF99"/>
							<stop  offset="1" style="stop-color:#33CCFF"/>
						</linearGradient>
						<ellipse id="XMLID_272_" class="st91" cx="308" cy="292.2" rx="7.5" ry="10.2"/>
					</g>
					<g id="XMLID_246_" class="st92">
						<path id="XMLID_270_" class="st93" d="M63.3,229c-0.2,0-0.4-0.1-0.5-0.3c-0.2-0.3-0.1-0.6,0.2-0.8l2.4-1.4
							c0.3-0.2,0.6-0.1,0.8,0.2c0.2,0.3,0.1,0.6-0.2,0.8l-2.4,1.4C63.5,229,63.4,229,63.3,229z"/>
						<path id="XMLID_263_" class="st93" d="M74.4,222.6c-0.2,0-0.4-0.1-0.5-0.3c-0.2-0.3-0.1-0.6,0.2-0.8l4.8-2.8
							c0.3-0.2,0.6-0.1,0.8,0.2c0.2,0.3,0.1,0.6-0.2,0.8l-4.8,2.8C74.5,222.6,74.4,222.6,74.4,222.6z M87.7,214.8
							c-0.2,0-0.4-0.1-0.5-0.3c-0.2-0.3-0.1-0.6,0.2-0.8l4.8-2.8c0.3-0.2,0.6-0.1,0.8,0.2c0.2,0.3,0.1,0.6-0.2,0.8l-4.8,2.8
							C87.9,214.8,87.8,214.8,87.7,214.8z M101.1,207c-0.2,0-0.4-0.1-0.5-0.3c-0.2-0.3-0.1-0.6,0.2-0.8l4.8-2.8
							c0.3-0.2,0.6-0.1,0.8,0.2c0.2,0.3,0.1,0.6-0.2,0.8l-4.8,2.8C101.3,207,101.2,207,101.1,207z M114.4,199.2
							c-0.2,0-0.4-0.1-0.5-0.3c-0.2-0.3-0.1-0.6,0.2-0.8l4.8-2.8c0.3-0.2,0.6-0.1,0.8,0.2c0.2,0.3,0.1,0.6-0.2,0.8l-4.8,2.8
							C114.6,199.1,114.5,199.2,114.4,199.2z M127.8,191.4c-0.2,0-0.4-0.1-0.5-0.3c-0.2-0.3-0.1-0.6,0.2-0.8l4.8-2.8
							c0.3-0.2,0.6-0.1,0.8,0.2c0.2,0.3,0.1,0.6-0.2,0.8l-4.8,2.8C128,191.3,127.9,191.4,127.8,191.4z M141.1,183.6
							c-0.2,0-0.4-0.1-0.5-0.3c-0.2-0.3-0.1-0.6,0.2-0.8l4.8-2.8c0.3-0.2,0.6-0.1,0.8,0.2c0.2,0.3,0.1,0.6-0.2,0.8l-4.8,2.8
							C141.3,183.5,141.2,183.6,141.1,183.6z"/>
						<path id="XMLID_262_" class="st93" d="M154.5,175.7c-0.2,0-0.4-0.1-0.5-0.3c-0.2-0.3-0.1-0.6,0.2-0.8l2.7-1.6l2.7,1.6
							c0.3,0.2,0.4,0.5,0.2,0.8c-0.2,0.3-0.5,0.4-0.8,0.2l-2.1-1.2l-2.1,1.2C154.7,175.7,154.6,175.7,154.5,175.7z"/>
						<path id="XMLID_248_" class="st93" d="M341.2,281.2c-0.1,0-0.2,0-0.3-0.1l-5-2.9c-0.3-0.2-0.4-0.5-0.2-0.8
							c0.2-0.3,0.5-0.4,0.8-0.2l5,2.9c0.3,0.2,0.4,0.5,0.2,0.8C341.6,281.1,341.4,281.2,341.2,281.2z M327.2,273.1
							c-0.1,0-0.2,0-0.3-0.1l-5-2.9c-0.3-0.2-0.4-0.5-0.2-0.8c0.2-0.3,0.5-0.4,0.8-0.2l5,2.9c0.3,0.2,0.4,0.5,0.2,0.8
							C327.6,273,327.4,273.1,327.2,273.1z M313.2,265c-0.1,0-0.2,0-0.3-0.1l-5-2.9c-0.3-0.2-0.4-0.5-0.2-0.8
							c0.2-0.3,0.5-0.4,0.8-0.2l5,2.9c0.3,0.2,0.4,0.5,0.2,0.8C313.6,264.9,313.4,265,313.2,265z M299.2,256.9c-0.1,0-0.2,0-0.3-0.1
							l-5-2.9c-0.3-0.2-0.4-0.5-0.2-0.8c0.2-0.3,0.5-0.4,0.8-0.2l5,2.9c0.3,0.2,0.4,0.5,0.2,0.8
							C299.6,256.8,299.4,256.9,299.2,256.9z M285.3,248.8c-0.1,0-0.2,0-0.3-0.1l-5-2.9c-0.3-0.2-0.4-0.5-0.2-0.8
							c0.2-0.3,0.5-0.4,0.8-0.2l5,2.9c0.3,0.2,0.4,0.5,0.2,0.8C285.6,248.7,285.5,248.8,285.3,248.8z M271.3,240.6
							c-0.1,0-0.2,0-0.3-0.1l-5-2.9c-0.3-0.2-0.4-0.5-0.2-0.8c0.2-0.3,0.5-0.4,0.8-0.2l5,2.9c0.3,0.2,0.4,0.5,0.2,0.8
							C271.6,240.5,271.5,240.6,271.3,240.6z M257.3,232.5c-0.1,0-0.2,0-0.3-0.1l-5-2.9c-0.3-0.2-0.4-0.5-0.2-0.8
							c0.2-0.3,0.5-0.4,0.8-0.2l5,2.9c0.3,0.2,0.4,0.5,0.2,0.8C257.7,232.4,257.5,232.5,257.3,232.5z M243.3,224.4
							c-0.1,0-0.2,0-0.3-0.1l-5-2.9c-0.3-0.2-0.4-0.5-0.2-0.8c0.2-0.3,0.5-0.4,0.8-0.2l5,2.9c0.3,0.2,0.4,0.5,0.2,0.8
							C243.7,224.3,243.5,224.4,243.3,224.4z M229.3,216.3c-0.1,0-0.2,0-0.3-0.1l-5-2.9c-0.3-0.2-0.4-0.5-0.2-0.8
							c0.2-0.3,0.5-0.4,0.8-0.2l5,2.9c0.3,0.2,0.4,0.5,0.2,0.8C229.7,216.2,229.5,216.3,229.3,216.3z M215.3,208.2
							c-0.1,0-0.2,0-0.3-0.1l-5-2.9c-0.3-0.2-0.4-0.5-0.2-0.8c0.2-0.3,0.5-0.4,0.8-0.2l5,2.9c0.3,0.2,0.4,0.5,0.2,0.8
							C215.7,208.1,215.5,208.2,215.3,208.2z M201.3,200.1c-0.1,0-0.2,0-0.3-0.1l-5-2.9c-0.3-0.2-0.4-0.5-0.2-0.8
							c0.2-0.3,0.5-0.4,0.8-0.2l5,2.9c0.3,0.2,0.4,0.5,0.2,0.8C201.7,200,201.5,200.1,201.3,200.1z M187.3,192c-0.1,0-0.2,0-0.3-0.1
							l-5-2.9c-0.3-0.2-0.4-0.5-0.2-0.8c0.2-0.3,0.5-0.4,0.8-0.2l5,2.9c0.3,0.2,0.4,0.5,0.2,0.8C187.7,191.9,187.5,192,187.3,192z
							 M173.3,183.9c-0.1,0-0.2,0-0.3-0.1l-5-2.9c-0.3-0.2-0.4-0.5-0.2-0.8c0.2-0.3,0.5-0.4,0.8-0.2l5,2.9c0.3,0.2,0.4,0.5,0.2,0.8
							C173.7,183.8,173.5,183.9,173.3,183.9z"/>
						<path id="XMLID_247_" class="st93" d="M352.6,287.8c-0.1,0-0.2,0-0.3-0.1l-2.4-1.4c-0.3-0.2-0.4-0.5-0.2-0.8
							c0.2-0.3,0.5-0.4,0.8-0.2l2.4,1.4c0.3,0.2,0.4,0.5,0.2,0.8C353,287.7,352.8,287.8,352.6,287.8z"/>
					</g>
				</g>
			</g>
			<path id="XMLID_196_" class="st93" d="M337,251.2c-0.3,0-0.6-0.3-0.6-0.6v-2.2c0-0.3,0.3-0.6,0.6-0.6c0.3,0,0.6,0.3,0.6,0.6v2.2
				C337.5,251,337.3,251.2,337,251.2z M337,243.4c-0.3,0-0.6-0.3-0.6-0.6v-2.2c0-0.3,0.3-0.6,0.6-0.6c0.3,0,0.6,0.3,0.6,0.6v2.2
				C337.5,243.1,337.3,243.4,337,243.4z M337,235.6c-0.3,0-0.6-0.3-0.6-0.6v-2.2c0-0.3,0.3-0.6,0.6-0.6c0.3,0,0.6,0.3,0.6,0.6v2.2
				C337.5,235.3,337.3,235.6,337,235.6z M337,227.7c-0.3,0-0.6-0.3-0.6-0.6v-2.2c0-0.3,0.3-0.6,0.6-0.6c0.3,0,0.6,0.3,0.6,0.6v2.2
				C337.5,227.5,337.3,227.7,337,227.7z M337,219.9c-0.3,0-0.6-0.3-0.6-0.6v-2.2c0-0.3,0.3-0.6,0.6-0.6c0.3,0,0.6,0.3,0.6,0.6v2.2
				C337.5,219.6,337.3,219.9,337,219.9z M337,212c-0.3,0-0.6-0.3-0.6-0.6v-2.2c0-0.3,0.3-0.6,0.6-0.6c0.3,0,0.6,0.3,0.6,0.6v2.2
				C337.5,211.8,337.3,212,337,212z M337,204.2c-0.3,0-0.6-0.3-0.6-0.6v-2.2c0-0.3,0.3-0.6,0.6-0.6c0.3,0,0.6,0.3,0.6,0.6v2.2
				C337.5,204,337.3,204.2,337,204.2z M337,196.4c-0.3,0-0.6-0.3-0.6-0.6v-2.2c0-0.3,0.3-0.6,0.6-0.6c0.3,0,0.6,0.3,0.6,0.6v2.2
				C337.5,196.1,337.3,196.4,337,196.4z M337,188.5c-0.3,0-0.6-0.3-0.6-0.6v-2.2c0-0.3,0.3-0.6,0.6-0.6c0.3,0,0.6,0.3,0.6,0.6v2.2
				C337.5,188.3,337.3,188.5,337,188.5z M337,180.7c-0.3,0-0.6-0.3-0.6-0.6v-2.2c0-0.3,0.3-0.6,0.6-0.6c0.3,0,0.6,0.3,0.6,0.6v2.2
				C337.5,180.4,337.3,180.7,337,180.7z M337,172.8c-0.3,0-0.6-0.3-0.6-0.6V170c0-0.3,0.3-0.6,0.6-0.6c0.3,0,0.6,0.3,0.6,0.6v2.2
				C337.5,172.6,337.3,172.8,337,172.8z M337,165c-0.3,0-0.6-0.3-0.6-0.6v-2.2c0-0.3,0.3-0.6,0.6-0.6c0.3,0,0.6,0.3,0.6,0.6v2.2
				C337.5,164.8,337.3,165,337,165z M337,157.2c-0.3,0-0.6-0.3-0.6-0.6v-2.2c0-0.3,0.3-0.6,0.6-0.6c0.3,0,0.6,0.3,0.6,0.6v2.2
				C337.5,156.9,337.3,157.2,337,157.2z M337,149.3c-0.3,0-0.6-0.3-0.6-0.6v-2.2c0-0.3,0.3-0.6,0.6-0.6c0.3,0,0.6,0.3,0.6,0.6v2.2
				C337.5,149.1,337.3,149.3,337,149.3z M337,141.5c-0.3,0-0.6-0.3-0.6-0.6v-2.2c0-0.3,0.3-0.6,0.6-0.6c0.3,0,0.6,0.3,0.6,0.6v2.2
				C337.5,141.2,337.3,141.5,337,141.5z M337,133.6c-0.3,0-0.6-0.3-0.6-0.6v-2.2c0-0.3,0.3-0.6,0.6-0.6c0.3,0,0.6,0.3,0.6,0.6v2.2
				C337.5,133.4,337.3,133.6,337,133.6z M337,125.8c-0.3,0-0.6-0.3-0.6-0.6V123c0-0.3,0.3-0.6,0.6-0.6c0.3,0,0.6,0.3,0.6,0.6v2.2
				C337.5,125.6,337.3,125.8,337,125.8z M336.3,118.3c-0.1,0-0.2,0-0.3-0.1l-2-1.1c-0.3-0.2-0.4-0.5-0.2-0.8
				c0.2-0.3,0.5-0.4,0.8-0.2l2,1.1c0.3,0.2,0.4,0.5,0.2,0.8C336.7,118.2,336.5,118.3,336.3,118.3z M202.3,118.3
				c-0.3,0-0.6-0.3-0.6-0.6v-2.2c0-0.3,0.3-0.6,0.6-0.6c0.3,0,0.6,0.3,0.6,0.6v2.2C202.8,118.1,202.6,118.3,202.3,118.3z
				 M329.5,114.5c-0.1,0-0.2,0-0.3-0.1l-2-1.1c-0.3-0.2-0.4-0.5-0.2-0.8c0.2-0.3,0.5-0.4,0.8-0.2l2,1.1c0.3,0.2,0.4,0.5,0.2,0.8
				C329.9,114.4,329.7,114.5,329.5,114.5z M322.7,110.6c-0.1,0-0.2,0-0.3-0.1l-2-1.1c-0.3-0.2-0.4-0.5-0.2-0.8
				c0.2-0.3,0.5-0.4,0.8-0.2l2,1.1c0.3,0.2,0.4,0.5,0.2,0.8C323.1,110.5,322.9,110.6,322.7,110.6z M202.3,110.5
				c-0.3,0-0.6-0.3-0.6-0.6v-2.2c0-0.3,0.3-0.6,0.6-0.6c0.3,0,0.6,0.3,0.6,0.6v2.2C202.8,110.2,202.6,110.5,202.3,110.5z
				 M315.9,106.8c-0.1,0-0.2,0-0.3-0.1l-2-1.1c-0.3-0.2-0.4-0.5-0.2-0.8c0.2-0.3,0.5-0.4,0.8-0.2l2,1.1c0.3,0.2,0.4,0.5,0.2,0.8
				C316.2,106.7,316.1,106.8,315.9,106.8z M309,102.9c-0.1,0-0.2,0-0.3-0.1l-2-1.1c-0.3-0.2-0.4-0.5-0.2-0.8
				c0.2-0.3,0.5-0.4,0.8-0.2l2,1.1c0.3,0.2,0.4,0.5,0.2,0.8C309.4,102.8,309.2,102.9,309,102.9z M202.3,102.6
				c-0.3,0-0.6-0.3-0.6-0.6v-2.2c0-0.3,0.3-0.6,0.6-0.6c0.3,0,0.6,0.3,0.6,0.6v2.2C202.8,102.4,202.6,102.6,202.3,102.6z
				 M302.2,99.1c-0.1,0-0.2,0-0.3-0.1l-2-1.1c-0.3-0.2-0.4-0.5-0.2-0.8c0.2-0.3,0.5-0.4,0.8-0.2l2,1.1c0.3,0.2,0.4,0.5,0.2,0.8
				C302.6,99,302.4,99.1,302.2,99.1z M295.4,95.2c-0.1,0-0.2,0-0.3-0.1l-2-1.1c-0.3-0.2-0.4-0.5-0.2-0.8c0.2-0.3,0.5-0.4,0.8-0.2
				l2,1.1c0.3,0.2,0.4,0.5,0.2,0.8C295.8,95.1,295.6,95.2,295.4,95.2z M202.3,94.8c-0.3,0-0.6-0.3-0.6-0.6V92c0-0.3,0.3-0.6,0.6-0.6
				c0.3,0,0.6,0.3,0.6,0.6v2.2C202.8,94.5,202.6,94.8,202.3,94.8z M288.6,91.4c-0.1,0-0.2,0-0.3-0.1l-2-1.1
				c-0.3-0.2-0.4-0.5-0.2-0.8c0.2-0.3,0.5-0.4,0.8-0.2l2,1.1c0.3,0.2,0.4,0.5,0.2,0.8C288.9,91.3,288.7,91.4,288.6,91.4z
				 M281.7,87.5c-0.1,0-0.2,0-0.3-0.1l-2-1.1c-0.3-0.2-0.4-0.5-0.2-0.8c0.2-0.3,0.5-0.4,0.8-0.2l2,1.1c0.3,0.2,0.4,0.5,0.2,0.8
				C282.1,87.4,281.9,87.5,281.7,87.5z M202.3,86.9c-0.3,0-0.6-0.3-0.6-0.6v-2.2c0-0.3,0.3-0.6,0.6-0.6c0.3,0,0.6,0.3,0.6,0.6v2.2
				C202.8,86.7,202.6,86.9,202.3,86.9z M274.9,83.7c-0.1,0-0.2,0-0.3-0.1l-2-1.1c-0.3-0.2-0.4-0.5-0.2-0.8c0.2-0.3,0.5-0.4,0.8-0.2
				l2,1.1c0.3,0.2,0.4,0.5,0.2,0.8C275.3,83.6,275.1,83.7,274.9,83.7z M268.1,79.8c-0.1,0-0.2,0-0.3-0.1l-2-1.1
				c-0.3-0.2-0.4-0.5-0.2-0.8c0.2-0.3,0.5-0.4,0.8-0.2l2,1.1c0.3,0.2,0.4,0.5,0.2,0.8C268.5,79.7,268.3,79.8,268.1,79.8z
				 M202.3,79.1c-0.3,0-0.6-0.3-0.6-0.6v-2.2c0-0.3,0.3-0.6,0.6-0.6c0.3,0,0.6,0.3,0.6,0.6v2.2C202.8,78.9,202.6,79.1,202.3,79.1z
				 M261.2,76c-0.1,0-0.2,0-0.3-0.1l-2-1.1c-0.3-0.2-0.4-0.5-0.2-0.8c0.2-0.3,0.5-0.4,0.8-0.2l2,1.1c0.3,0.2,0.4,0.5,0.2,0.8
				C261.6,75.9,261.4,76,261.2,76z M254.4,72.1c-0.1,0-0.2,0-0.3-0.1l-2-1.1c-0.3-0.2-0.4-0.5-0.2-0.8c0.2-0.3,0.5-0.4,0.8-0.2
				l2,1.1c0.3,0.2,0.4,0.5,0.2,0.8C254.8,72,254.6,72.1,254.4,72.1z M202.3,71.3c-0.3,0-0.6-0.3-0.6-0.6v-2.2c0-0.3,0.3-0.6,0.6-0.6
				c0.3,0,0.6,0.3,0.6,0.6v2.2C202.8,71,202.6,71.3,202.3,71.3z M247.6,68.2c-0.1,0-0.2,0-0.3-0.1l-2-1.1c-0.3-0.2-0.4-0.5-0.2-0.8
				c0.2-0.3,0.5-0.4,0.8-0.2l2,1.1c0.3,0.2,0.4,0.5,0.2,0.8C248,68.1,247.8,68.2,247.6,68.2z M240.8,64.4c-0.1,0-0.2,0-0.3-0.1
				l-2-1.1c-0.3-0.2-0.4-0.5-0.2-0.8c0.2-0.3,0.5-0.4,0.8-0.2l2,1.1c0.3,0.2,0.4,0.5,0.2,0.8C241.1,64.3,241,64.4,240.8,64.4z
				 M202.3,63.4c-0.3,0-0.6-0.3-0.6-0.6v-2.2c0-0.3,0.3-0.6,0.6-0.6c0.3,0,0.6,0.3,0.6,0.6v2.2C202.8,63.2,202.6,63.4,202.3,63.4z
				 M233.9,60.5c-0.1,0-0.2,0-0.3-0.1l-2-1.1c-0.3-0.2-0.4-0.5-0.2-0.8c0.2-0.3,0.5-0.4,0.8-0.2l2,1.1c0.3,0.2,0.4,0.5,0.2,0.8
				C234.3,60.4,234.1,60.5,233.9,60.5z M227.1,56.7c-0.1,0-0.2,0-0.3-0.1l-2-1.1c-0.3-0.2-0.4-0.5-0.2-0.8c0.2-0.3,0.5-0.4,0.8-0.2
				l1.9,1.1c0.3,0.2,0.4,0.5,0.2,0.8C227.5,56.6,227.3,56.7,227.1,56.7z M202.3,55.6c-0.3,0-0.6-0.3-0.6-0.6v-2.2
				c0-0.3,0.3-0.6,0.6-0.6c0.3,0,0.6,0.3,0.6,0.6V55C202.8,55.3,202.6,55.6,202.3,55.6z M220.3,52.8c-0.1,0-0.2,0-0.3-0.1l-2-1.1
				c-0.3-0.2-0.4-0.5-0.2-0.8c0.2-0.3,0.5-0.4,0.8-0.2l2,1.1c0.3,0.2,0.4,0.5,0.2,0.8C220.7,52.7,220.5,52.8,220.3,52.8z M213.4,49
				c-0.1,0-0.2,0-0.3-0.1l-2-1.1c-0.3-0.2-0.4-0.5-0.2-0.8c0.2-0.3,0.5-0.4,0.8-0.2l2,1.1c0.3,0.2,0.4,0.5,0.2,0.8
				C213.8,48.9,213.6,49,213.4,49z M202.3,47.8c-0.3,0-0.6-0.3-0.6-0.6V45c0-0.3,0.3-0.6,0.6-0.6c0.3,0,0.6,0.3,0.6,0.6v2.2
				C202.8,47.5,202.6,47.8,202.3,47.8z M206.6,45.1c-0.1,0-0.2,0-0.3-0.1l-2-1.1c-0.3-0.2-0.4-0.5-0.2-0.8c0.2-0.3,0.5-0.4,0.8-0.2
				l2,1.1c0.3,0.2,0.4,0.5,0.2,0.8C207,45,206.8,45.1,206.6,45.1z"/>
			<path id="XMLID_165_" class="st93" d="M140.3,150.6c-0.3,0-0.6-0.3-0.6-0.6v-2.2c0-0.3,0.3-0.6,0.6-0.6c0.3,0,0.6,0.3,0.6,0.6
				v2.2C140.8,150.3,140.6,150.6,140.3,150.6z M140.3,142.7c-0.3,0-0.6-0.3-0.6-0.6v-2.2c0-0.3,0.3-0.6,0.6-0.6
				c0.3,0,0.6,0.3,0.6,0.6v2.2C140.8,142.5,140.6,142.7,140.3,142.7z M140.3,134.9c-0.3,0-0.6-0.3-0.6-0.6v-2.2
				c0-0.3,0.3-0.6,0.6-0.6c0.3,0,0.6,0.3,0.6,0.6v2.2C140.8,134.6,140.6,134.9,140.3,134.9z M88,132.2c-0.3,0-0.6-0.3-0.6-0.6v-2.2
				c0-0.3,0.3-0.6,0.6-0.6c0.3,0,0.6,0.3,0.6,0.6v2.2C88.5,131.9,88.3,132.2,88,132.2z M140.3,127c-0.3,0-0.6-0.3-0.6-0.6v-2.2
				c0-0.3,0.3-0.6,0.6-0.6c0.3,0,0.6,0.3,0.6,0.6v2.2C140.8,126.8,140.6,127,140.3,127z M88,124.3c-0.3,0-0.6-0.3-0.6-0.6v-2.2
				c0-0.3,0.3-0.6,0.6-0.6c0.3,0,0.6,0.3,0.6,0.6v2.2C88.5,124.1,88.3,124.3,88,124.3z M140.3,119.2c-0.3,0-0.6-0.3-0.6-0.6v-2.2
				c0-0.3,0.3-0.6,0.6-0.6c0.3,0,0.6,0.3,0.6,0.6v2.2C140.8,118.9,140.6,119.2,140.3,119.2z M88,116.5c-0.3,0-0.6-0.3-0.6-0.6v-2.2
				c0-0.3,0.3-0.6,0.6-0.6c0.3,0,0.6,0.3,0.6,0.6v2.2C88.5,116.2,88.3,116.5,88,116.5z M140.3,111.4c-0.3,0-0.6-0.3-0.6-0.6v-2.2
				c0-0.3,0.3-0.6,0.6-0.6c0.3,0,0.6,0.3,0.6,0.6v2.2C140.8,111.1,140.6,111.4,140.3,111.4z M88,108.6c-0.3,0-0.6-0.3-0.6-0.6v-2.2
				c0-0.3,0.3-0.6,0.6-0.6c0.3,0,0.6,0.3,0.6,0.6v2.2C88.5,108.4,88.3,108.6,88,108.6z M140.3,103.5c-0.3,0-0.6-0.3-0.6-0.6v-2.2
				c0-0.3,0.3-0.6,0.6-0.6c0.3,0,0.6,0.3,0.6,0.6v2.2C140.8,103.3,140.6,103.5,140.3,103.5z M88,100.8c-0.3,0-0.6-0.3-0.6-0.6V98
				c0-0.3,0.3-0.6,0.6-0.6c0.3,0,0.6,0.3,0.6,0.6v2.2C88.5,100.6,88.3,100.8,88,100.8z M140.3,95.7c-0.3,0-0.6-0.3-0.6-0.6v-2.2
				c0-0.3,0.3-0.6,0.6-0.6c0.3,0,0.6,0.3,0.6,0.6v2.2C140.8,95.4,140.6,95.7,140.3,95.7z M88,93c-0.3,0-0.6-0.3-0.6-0.6v-2.2
				c0-0.3,0.3-0.6,0.6-0.6c0.3,0,0.6,0.3,0.6,0.6v2.2C88.5,92.7,88.3,93,88,93z M140.3,87.8c-0.3,0-0.6-0.3-0.6-0.6V85
				c0-0.3,0.3-0.6,0.6-0.6c0.3,0,0.6,0.3,0.6,0.6v2.2C140.8,87.6,140.6,87.8,140.3,87.8z M88,85.1c-0.3,0-0.6-0.3-0.6-0.6v-2.2
				c0-0.3,0.3-0.6,0.6-0.6c0.3,0,0.6,0.3,0.6,0.6v2.2C88.5,84.9,88.3,85.1,88,85.1z M140.3,80c-0.3,0-0.6-0.3-0.6-0.6v-2.2
				c0-0.3,0.3-0.6,0.6-0.6c0.3,0,0.6,0.3,0.6,0.6v2.2C140.8,79.7,140.6,80,140.3,80z M88,77.3c-0.3,0-0.6-0.3-0.6-0.6v-2.2
				c0-0.3,0.3-0.6,0.6-0.6c0.3,0,0.6,0.3,0.6,0.6v2.2C88.5,77,88.3,77.3,88,77.3z M140.3,72.2c-0.3,0-0.6-0.3-0.6-0.6v-2.2
				c0-0.3,0.3-0.6,0.6-0.6c0.3,0,0.6,0.3,0.6,0.6v2.2C140.8,71.9,140.6,72.2,140.3,72.2z M88,69.4c-0.3,0-0.6-0.3-0.6-0.6v-0.8
				l1.9-1c0.3-0.1,0.6,0,0.8,0.2c0.1,0.3,0,0.6-0.2,0.8l-1.3,0.6v0.1C88.5,69.2,88.3,69.4,88,69.4z M94.6,65.7
				c-0.2,0-0.4-0.1-0.5-0.3c-0.1-0.3,0-0.6,0.2-0.8l2-1c0.3-0.1,0.6,0,0.8,0.2c0.1,0.3,0,0.6-0.2,0.8l-2,1
				C94.8,65.7,94.7,65.7,94.6,65.7z M140.3,64.3c-0.3,0-0.6-0.3-0.6-0.6v-2.2c0-0.3,0.3-0.6,0.6-0.6c0.3,0,0.6,0.3,0.6,0.6v2.2
				C140.8,64.1,140.6,64.3,140.3,64.3z M101.6,62.1c-0.2,0-0.4-0.1-0.5-0.3c-0.1-0.3,0-0.6,0.2-0.8l2-1c0.3-0.1,0.6,0,0.8,0.2
				c0.1,0.3,0,0.6-0.2,0.8l-2,1C101.8,62.1,101.7,62.1,101.6,62.1z M108.6,58.6c-0.2,0-0.4-0.1-0.5-0.3c-0.1-0.3,0-0.6,0.2-0.8l2-1
				c0.3-0.1,0.6,0,0.8,0.2c0.1,0.3,0,0.6-0.2,0.8l-2,1C108.8,58.6,108.7,58.6,108.6,58.6z M140.3,56.5c-0.3,0-0.6-0.3-0.6-0.6v-2.2
				c0-0.3,0.3-0.6,0.6-0.6c0.3,0,0.6,0.3,0.6,0.6v2.2C140.8,56.2,140.6,56.5,140.3,56.5z M115.6,55.1c-0.2,0-0.4-0.1-0.5-0.3
				c-0.1-0.3,0-0.6,0.2-0.8l2-1c0.3-0.1,0.6,0,0.8,0.2c0.1,0.3,0,0.6-0.2,0.8l-2,1C115.8,55.1,115.7,55.1,115.6,55.1z M122.6,51.6
				c-0.2,0-0.4-0.1-0.5-0.3c-0.1-0.3,0-0.6,0.2-0.8l2-1c0.3-0.1,0.6,0,0.8,0.2c0.1,0.3,0,0.6-0.2,0.8l-2,1
				C122.8,51.6,122.7,51.6,122.6,51.6z M140.3,48.6c-0.3,0-0.6-0.3-0.6-0.6v-2.2c0-0.3,0.3-0.6,0.6-0.6c0.3,0,0.6,0.3,0.6,0.6v2.2
				C140.8,48.4,140.6,48.6,140.3,48.6z M129.6,48c-0.2,0-0.4-0.1-0.5-0.3c-0.1-0.3,0-0.6,0.2-0.8l2-1c0.3-0.1,0.6,0,0.8,0.2
				c0.1,0.3,0,0.6-0.2,0.8l-2,1C129.8,48,129.7,48,129.6,48z M136.6,44.5c-0.2,0-0.4-0.1-0.5-0.3c-0.1-0.3,0-0.6,0.2-0.8l2-1
				c0.3-0.1,0.6,0,0.8,0.2c0.1,0.3,0,0.6-0.2,0.8l-2,1C136.8,44.5,136.7,44.5,136.6,44.5z"/>
			<path id="XMLID_150_" class="st93" d="M175.6,129.4c-0.3,0-0.6-0.3-0.6-0.6v-2.2c0-0.3,0.3-0.6,0.6-0.6c0.3,0,0.6,0.3,0.6,0.6
				v2.2C176.2,129.2,175.9,129.4,175.6,129.4z M175.6,121.6c-0.3,0-0.6-0.3-0.6-0.6v-2.2c0-0.3,0.3-0.6,0.6-0.6
				c0.3,0,0.6,0.3,0.6,0.6v2.2C176.2,121.3,175.9,121.6,175.6,121.6z M175.6,113.8c-0.3,0-0.6-0.3-0.6-0.6V111
				c0-0.3,0.3-0.6,0.6-0.6c0.3,0,0.6,0.3,0.6,0.6v2.2C176.2,113.5,175.9,113.8,175.6,113.8z M175.6,105.9c-0.3,0-0.6-0.3-0.6-0.6
				v-2.2c0-0.3,0.3-0.6,0.6-0.6c0.3,0,0.6,0.3,0.6,0.6v2.2C176.2,105.7,175.9,105.9,175.6,105.9z M175.6,98.1
				c-0.3,0-0.6-0.3-0.6-0.6v-2.2c0-0.3,0.3-0.6,0.6-0.6c0.3,0,0.6,0.3,0.6,0.6v2.2C176.2,97.8,175.9,98.1,175.6,98.1z M175.6,90.2
				c-0.3,0-0.6-0.3-0.6-0.6v-2.2c0-0.3,0.3-0.6,0.6-0.6c0.3,0,0.6,0.3,0.6,0.6v2.2C176.2,90,175.9,90.2,175.6,90.2z M175.6,82.4
				c-0.3,0-0.6-0.3-0.6-0.6v-2.2c0-0.3,0.3-0.6,0.6-0.6c0.3,0,0.6,0.3,0.6,0.6v2.2C176.2,82.2,175.9,82.4,175.6,82.4z M175.6,74.6
				c-0.3,0-0.6-0.3-0.6-0.6v-2.2c0-0.3,0.3-0.6,0.6-0.6c0.3,0,0.6,0.3,0.6,0.6V74C176.2,74.3,175.9,74.6,175.6,74.6z M175.6,66.7
				c-0.3,0-0.6-0.3-0.6-0.6v-2.2c0-0.3,0.3-0.6,0.6-0.6c0.3,0,0.6,0.3,0.6,0.6v2.2C176.2,66.5,175.9,66.7,175.6,66.7z M175.6,58.9
				c-0.3,0-0.6-0.3-0.6-0.6v-2.2c0-0.3,0.3-0.6,0.6-0.6c0.3,0,0.6,0.3,0.6,0.6v2.2C176.2,58.6,175.9,58.9,175.6,58.9z M175.6,51
				c-0.3,0-0.6-0.3-0.6-0.6v-2.2c0-0.3,0.3-0.6,0.6-0.6c0.3,0,0.6,0.3,0.6,0.6v2.2C176.2,50.8,175.9,51,175.6,51z M175.6,43.2
				c-0.3,0-0.6-0.3-0.6-0.6v-2.2c0-0.3,0.3-0.6,0.6-0.6c0.3,0,0.6,0.3,0.6,0.6v2.2C176.2,43,175.9,43.2,175.6,43.2z M175.6,35.4
				c-0.3,0-0.6-0.3-0.6-0.6v-2.2c0-0.3,0.3-0.6,0.6-0.6c0.3,0,0.6,0.3,0.6,0.6v2.2C176.2,35.1,175.9,35.4,175.6,35.4z M175.6,27.5
				c-0.3,0-0.6-0.3-0.6-0.6v-2.2c0-0.3,0.3-0.6,0.6-0.6c0.3,0,0.6,0.3,0.6,0.6V27C176.2,27.3,175.9,27.5,175.6,27.5z"/>
			<path id="XMLID_128_" class="st93" d="M51.3,132.2c-0.3,0-0.6-0.3-0.6-0.6v-2.2c0-0.3,0.3-0.6,0.6-0.6c0.3,0,0.6,0.3,0.6,0.6v2.2
				C51.8,131.9,51.6,132.2,51.3,132.2z M51.3,124.3c-0.3,0-0.6-0.3-0.6-0.6v-2.2c0-0.3,0.3-0.6,0.6-0.6c0.3,0,0.6,0.3,0.6,0.6v2.2
				C51.8,124.1,51.6,124.3,51.3,124.3z M51.3,116.5c-0.3,0-0.6-0.3-0.6-0.6v-2.2c0-0.3,0.3-0.6,0.6-0.6c0.3,0,0.6,0.3,0.6,0.6v2.2
				C51.8,116.2,51.6,116.5,51.3,116.5z M51.3,108.6c-0.3,0-0.6-0.3-0.6-0.6v-2.2c0-0.3,0.3-0.6,0.6-0.6c0.3,0,0.6,0.3,0.6,0.6v2.2
				C51.8,108.4,51.6,108.6,51.3,108.6z M51.3,100.8c-0.3,0-0.6-0.3-0.6-0.6V98c0-0.3,0.3-0.6,0.6-0.6c0.3,0,0.6,0.3,0.6,0.6v2.2
				C51.8,100.6,51.6,100.8,51.3,100.8z M51.3,93c-0.3,0-0.6-0.3-0.6-0.6v-2.2c0-0.3,0.3-0.6,0.6-0.6c0.3,0,0.6,0.3,0.6,0.6v2.2
				C51.8,92.7,51.6,93,51.3,93z M51.3,85.1c-0.3,0-0.6-0.3-0.6-0.6v-2.2c0-0.3,0.3-0.6,0.6-0.6c0.3,0,0.6,0.3,0.6,0.6v2.2
				C51.8,84.9,51.6,85.1,51.3,85.1z M51.3,77.3c-0.3,0-0.6-0.3-0.6-0.6v-2.2c0-0.3,0.3-0.6,0.6-0.6c0.3,0,0.6,0.3,0.6,0.6v2.2
				C51.8,77,51.6,77.3,51.3,77.3z M51.3,69.4c-0.3,0-0.6-0.3-0.6-0.6v-2.2c0-0.3,0.3-0.6,0.6-0.6c0.3,0,0.6,0.3,0.6,0.6v2.2
				C51.8,69.2,51.6,69.4,51.3,69.4z M88,69c-0.3,0-0.6-0.3-0.6-0.6c0-0.3,0.3-0.6,0.6-0.6c0.3,0,0.6,0.2,0.6,0.5v0.1
				C88.5,68.7,88.3,69,88,69z M88,63.3c-0.3,0-0.6-0.3-0.6-0.6v-2.2c0-0.3,0.3-0.6,0.6-0.6c0.3,0,0.6,0.3,0.6,0.6v2.2
				C88.5,63,88.3,63.3,88,63.3z M51.3,61.6c-0.3,0-0.6-0.3-0.6-0.6v-2.2c0-0.3,0.3-0.6,0.6-0.6c0.3,0,0.6,0.3,0.6,0.6V61
				C51.8,61.4,51.6,61.6,51.3,61.6z M88,55.5c-0.3,0-0.6-0.3-0.6-0.6v-2.2c0-0.3,0.3-0.6,0.6-0.6c0.3,0,0.6,0.3,0.6,0.6v2.2
				C88.5,55.2,88.3,55.5,88,55.5z M51.3,53.8c-0.3,0-0.6-0.3-0.6-0.6V51l0.6-0.3c0.3-0.1,0.6,0,0.8,0.2c0.1,0.3,0,0.6-0.2,0.8l0,0
				v1.5C51.8,53.5,51.6,53.8,51.3,53.8z M56.6,49.2c-0.2,0-0.4-0.1-0.5-0.3c-0.1-0.3,0-0.6,0.2-0.8l2-1c0.3-0.1,0.6,0,0.8,0.2
				c0.1,0.3,0,0.6-0.2,0.8l-2,1C56.8,49.2,56.7,49.2,56.6,49.2z M88,47.6c-0.3,0-0.6-0.3-0.6-0.6v-2.2c0-0.3,0.3-0.6,0.6-0.6
				c0.3,0,0.6,0.3,0.6,0.6v2.2C88.5,47.4,88.3,47.6,88,47.6z M63.6,45.7c-0.2,0-0.4-0.1-0.5-0.3c-0.1-0.3,0-0.6,0.2-0.8l2-1
				c0.3-0.1,0.6,0,0.8,0.2c0.1,0.3,0,0.6-0.2,0.8l-2,1C63.8,45.7,63.7,45.7,63.6,45.7z M70.6,42.2c-0.2,0-0.4-0.1-0.5-0.3
				c-0.1-0.3,0-0.6,0.2-0.8l2-1c0.3-0.1,0.6,0,0.8,0.2c0.1,0.3,0,0.6-0.2,0.8l-2,1C70.8,42.2,70.7,42.2,70.6,42.2z M88,39.8
				c-0.3,0-0.6-0.3-0.6-0.6V37c0-0.3,0.3-0.6,0.6-0.6c0.3,0,0.6,0.3,0.6,0.6v2.2C88.5,39.5,88.3,39.8,88,39.8z M77.6,38.7
				c-0.2,0-0.4-0.1-0.5-0.3c-0.1-0.3,0-0.6,0.2-0.8l2-1c0.3-0.1,0.6,0,0.8,0.2c0.1,0.3,0,0.6-0.2,0.8l-2,1
				C77.8,38.6,77.7,38.7,77.6,38.7z M84.6,35.1c-0.2,0-0.4-0.1-0.5-0.3c-0.1-0.3,0-0.6,0.2-0.8l2-1c0.3-0.1,0.6,0,0.8,0.2
				c0.1,0.3,0,0.6-0.2,0.8l-2,1C84.8,35.1,84.7,35.1,84.6,35.1z"/>
			<path id="XMLID_114_" class="st93" d="M267.2,137.2c-0.3,0-0.6-0.3-0.6-0.6v-2.2c0-0.3,0.3-0.6,0.6-0.6s0.6,0.3,0.6,0.6v2.2
				C267.8,137,267.5,137.2,267.2,137.2z M267.2,129.4c-0.3,0-0.6-0.3-0.6-0.6v-2.2c0-0.3,0.3-0.6,0.6-0.6s0.6,0.3,0.6,0.6v2.2
				C267.8,129.1,267.5,129.4,267.2,129.4z M267.2,121.5c-0.3,0-0.6-0.3-0.6-0.6v-2.2c0-0.3,0.3-0.6,0.6-0.6s0.6,0.3,0.6,0.6v2.2
				C267.8,121.3,267.5,121.5,267.2,121.5z M267.2,113.7c-0.3,0-0.6-0.3-0.6-0.6v-2.2c0-0.3,0.3-0.6,0.6-0.6s0.6,0.3,0.6,0.6v2.2
				C267.8,113.5,267.5,113.7,267.2,113.7z M267.2,105.9c-0.3,0-0.6-0.3-0.6-0.6v-2.2c0-0.3,0.3-0.6,0.6-0.6s0.6,0.3,0.6,0.6v2.2
				C267.8,105.6,267.5,105.9,267.2,105.9z M267.2,98c-0.3,0-0.6-0.3-0.6-0.6v-2.2c0-0.3,0.3-0.6,0.6-0.6s0.6,0.3,0.6,0.6v2.2
				C267.8,97.8,267.5,98,267.2,98z M267.2,90.2c-0.3,0-0.6-0.3-0.6-0.6v-2.2c0-0.3,0.3-0.6,0.6-0.6s0.6,0.3,0.6,0.6v2.2
				C267.8,89.9,267.5,90.2,267.2,90.2z M267.2,82.4c-0.3,0-0.6-0.3-0.6-0.6v-2.2c0-0.3,0.3-0.6,0.6-0.6s0.6,0.3,0.6,0.6v2.2
				C267.8,82.1,267.5,82.4,267.2,82.4z M267.2,74.5c-0.3,0-0.6-0.3-0.6-0.6v-2.2c0-0.3,0.3-0.6,0.6-0.6s0.6,0.3,0.6,0.6V74
				C267.8,74.3,267.5,74.5,267.2,74.5z M267.2,66.7c-0.3,0-0.6-0.3-0.6-0.6v-2.2c0-0.3,0.3-0.6,0.6-0.6s0.6,0.3,0.6,0.6v2.2
				C267.8,66.4,267.5,66.7,267.2,66.7z M267.2,58.8c-0.3,0-0.6-0.3-0.6-0.6V56c0-0.3,0.3-0.6,0.6-0.6s0.6,0.3,0.6,0.6v2.2
				C267.8,58.6,267.5,58.8,267.2,58.8z M267.2,51c-0.3,0-0.6-0.3-0.6-0.6v-2.2c0-0.3,0.3-0.6,0.6-0.6s0.6,0.3,0.6,0.6v2.2
				C267.8,50.7,267.5,51,267.2,51z M267.2,43.2c-0.3,0-0.6-0.3-0.6-0.6v-2.2c0-0.3,0.3-0.6,0.6-0.6s0.6,0.3,0.6,0.6v2.2
				C267.8,42.9,267.5,43.2,267.2,43.2z"/>
		</g>
		<linearGradient id="SVGID_4_" gradientUnits="userSpaceOnUse" x1="-9.8068" y1="296.6451" x2="87.2243" y2="296.6451">
			<stop  offset="2.945171e-007" style="stop-color:#3F00FC"/>
			<stop  offset="0.2077" style="stop-color:#3F02F7"/>
			<stop  offset="0.4672" style="stop-color:#3E09E7"/>
			<stop  offset="0.7531" style="stop-color:#3E14CE"/>
			<stop  offset="1" style="stop-color:#3D20B2"/>
		</linearGradient>
		<polyline class="st94" points="87,260.6 42.7,285.2 42.7,304.4 -9.6,332.7 		"/>
		<linearGradient id="SVGID_5_" gradientUnits="userSpaceOnUse" x1="66.2034" y1="337.0357" x2="161.3129" y2="337.0357">
			<stop  offset="2.945171e-007" style="stop-color:#3F00FC"/>
			<stop  offset="0.2077" style="stop-color:#3F02F7"/>
			<stop  offset="0.4672" style="stop-color:#3E09E7"/>
			<stop  offset="0.7531" style="stop-color:#3E14CE"/>
			<stop  offset="1" style="stop-color:#3D20B2"/>
		</linearGradient>
		<polyline class="st95" points="161.1,303.4 114.8,327.4 114.8,345.9 66.4,370.7 		"/>
		<linearGradient id="SVGID_6_" gradientUnits="userSpaceOnUse" x1="140.5206" y1="319.3693" x2="179.0866" y2="319.3693">
			<stop  offset="2.945171e-007" style="stop-color:#3F00FC"/>
			<stop  offset="0.2077" style="stop-color:#3F02F7"/>
			<stop  offset="0.4672" style="stop-color:#3E09E7"/>
			<stop  offset="0.7531" style="stop-color:#3E14CE"/>
			<stop  offset="1" style="stop-color:#3D20B2"/>
		</linearGradient>
		<polyline class="st96" points="140.8,313.9 159.1,324.7 178.8,313.9 		"/>
		<linearGradient id="SVGID_7_" gradientUnits="userSpaceOnUse" x1="281.9398" y1="375.4906" x2="367.6685" y2="375.4906">
			<stop  offset="2.945171e-007" style="stop-color:#3F00FC"/>
			<stop  offset="0.2077" style="stop-color:#3F02F7"/>
			<stop  offset="0.4672" style="stop-color:#3E09E7"/>
			<stop  offset="0.7531" style="stop-color:#3E14CE"/>
			<stop  offset="1" style="stop-color:#3D20B2"/>
		</linearGradient>
		<polyline class="st97" points="282.2,344 341.8,374.1 341.8,393.2 367.4,407 		"/>
		<linearGradient id="SVGID_8_" gradientUnits="userSpaceOnUse" x1="351.3351" y1="334.4417" x2="431.3198" y2="334.4417">
			<stop  offset="2.945171e-007" style="stop-color:#3F00FC"/>
			<stop  offset="0.2077" style="stop-color:#3F02F7"/>
			<stop  offset="0.4672" style="stop-color:#3E09E7"/>
			<stop  offset="0.7531" style="stop-color:#3E14CE"/>
			<stop  offset="1" style="stop-color:#3D20B2"/>
		</linearGradient>
		<polyline class="st98" points="351.6,303.9 409.3,335.1 409.3,354.2 431.1,365 		"/>
		<linearGradient id="SVGID_9_" gradientUnits="userSpaceOnUse" x1="305.5716" y1="336.8452" x2="377.5221" y2="336.8452">
			<stop  offset="2.945171e-007" style="stop-color:#3F00FC"/>
			<stop  offset="0.2077" style="stop-color:#3F02F7"/>
			<stop  offset="0.4672" style="stop-color:#3E09E7"/>
			<stop  offset="0.7531" style="stop-color:#3E14CE"/>
			<stop  offset="1" style="stop-color:#3D20B2"/>
		</linearGradient>
		<line class="st99" x1="305.8" y1="355.9" x2="377.3" y2="317.8"/>
		<linearGradient id="SVGID_10_" gradientUnits="userSpaceOnUse" x1="296.0117" y1="342.0625" x2="320.3694" y2="342.0625">
			<stop  offset="2.945171e-007" style="stop-color:#3F00FC"/>
			<stop  offset="0.2077" style="stop-color:#3F02F7"/>
			<stop  offset="0.4672" style="stop-color:#3E09E7"/>
			<stop  offset="0.7531" style="stop-color:#3E14CE"/>
			<stop  offset="1" style="stop-color:#3D20B2"/>
		</linearGradient>
		<line class="st100" x1="320.1" y1="348.3" x2="296.2" y2="335.9"/>
		
			<linearGradient id="SVGID_11_" gradientUnits="userSpaceOnUse" x1="39.104" y1="16072.2832" x2="63.4563" y2="16072.2832" gradientTransform="matrix(1 0 0 1 0 -16040)">
			<stop  offset="0" style="stop-color:#00FF99"/>
			<stop  offset="1" style="stop-color:#33CCFF"/>
		</linearGradient>
		<path class="st101" d="M61.9,30l1.5-0.8l-2.8-1.5l-1.4,0.9L58,27.8l1.6-0.8l-2.7-1.5l-1.5,0.9l-2-1.2l-2.6,1.5l1.3,0.8l-8.9,5.1
			l-1.4-0.8l-2.7,1.6l2,1.1l-1.2,0.7l2.7,1.5l1.2-0.7l1.2,0.6l-1.3,0.7l2.7,1.6l1.2-0.7c3.3,1.6,6.7,0.9,6.7,0.9
			c4.3-1.3,3.7-3.6,3.7-3.6c3.1-0.2,4.5-1.7,4.5-1.7C64.6,31.8,61.9,30,61.9,30z M53.9,36.6c-1.2,0.9-3.2,0.3-3.2,0.3l-4.8-2.8
			l3.4-2l4.6,2.6C53.9,34.8,55.1,35.7,53.9,36.6z M58.9,33.1c-1.4,0.8-2.8,0-2.8,0l-4.2-2.4l2.9-1.7l4.3,2.5
			C59.1,31.4,60.3,32.3,58.9,33.1z"/>
		
			<linearGradient id="SVGID_12_" gradientUnits="userSpaceOnUse" x1="81.4344" y1="16057.4004" x2="94.5357" y2="16057.4004" gradientTransform="matrix(1 0 0 1 0 -16040)">
			<stop  offset="0" style="stop-color:#00FF99"/>
			<stop  offset="1" style="stop-color:#33CCFF"/>
		</linearGradient>
		<path class="st102" d="M93.7,16.2l0.8-0.5L93,14.9l-0.8,0.5L91.6,15l0.9-0.5L91,13.7l-0.8,0.5l-1.1-0.6l-1.4,0.8l0.7,0.5l-4.8,2.7
			l-0.8-0.4L81.4,18l1.1,0.6L81.8,19l1.4,0.8l0.7-0.4l0.6,0.3l-0.7,0.4l1.4,0.8l0.7-0.4c1.7,0.9,3.6,0.5,3.6,0.5
			c2.3-0.7,2-1.9,2-1.9c1.7-0.1,2.4-0.9,2.4-0.9C95.1,17.1,93.7,16.2,93.7,16.2z M89.4,19.7c-0.7,0.5-1.7,0.2-1.7,0.2l-2.6-1.5
			l1.8-1.1l2.5,1.4C89.4,18.7,90,19.2,89.4,19.7z M92.1,17.8c-0.8,0.4-1.5,0-1.5,0l-2.2-1.3l1.6-0.9l2.3,1.3
			C92.2,16.9,92.9,17.4,92.1,17.8z"/>
		
			<linearGradient id="SVGID_13_" gradientUnits="userSpaceOnUse" x1="131.5378" y1="16068.0195" x2="149.013" y2="16068.0195" gradientTransform="matrix(1 0 0 1 0 -16040)">
			<stop  offset="0" style="stop-color:#00FF99"/>
			<stop  offset="1" style="stop-color:#33CCFF"/>
		</linearGradient>
		<path class="st103" d="M147.9,26.4l1.1-0.6l-2-1.1l-1,0.7l-0.9-0.6l1.2-0.6l-2-1.1l-1.1,0.6l-1.4-0.8l-1.9,1.1l0.9,0.6l-6.4,3.7
			l-1-0.6l-1.9,1.1l1.4,0.8l-0.9,0.5l1.9,1.1l0.9-0.5l0.8,0.5l-0.9,0.5l1.9,1.1l0.9-0.5c2.3,1.2,4.8,0.7,4.8,0.7
			c3.1-1,2.7-2.6,2.7-2.6c2.2-0.2,3.3-1.2,3.3-1.2C149.8,27.6,147.9,26.4,147.9,26.4z M142.1,31.1c-0.9,0.7-2.3,0.2-2.3,0.2l-3.5-2
			l2.5-1.4l3.3,1.9C142.1,29.8,143,30.5,142.1,31.1z M145.7,28.6c-1,0.6-2,0-2,0l-3-1.7l2.1-1.2l3.1,1.8
			C145.9,27.4,146.8,28,145.7,28.6z"/>
		
			<linearGradient id="SVGID_14_" gradientUnits="userSpaceOnUse" x1="165.3543" y1="16049.6484" x2="185.8895" y2="16049.6484" gradientTransform="matrix(1 0 0 1 0 -16040)">
			<stop  offset="0" style="stop-color:#00FF99"/>
			<stop  offset="1" style="stop-color:#33CCFF"/>
		</linearGradient>
		<path class="st104" d="M184.6,7.8l1.3-0.7l-2.4-1.3l-1.2,0.8l-1-0.7l1.4-0.7l-2.3-1.3l-1.3,0.8l-1.7-1L175.1,5l1.1,0.7l-7.5,4.3
			l-1.2-0.7l-2.2,1.3l1.7,1l-1,0.6l2.2,1.3l1-0.6l1,0.5l-1.1,0.6l2.3,1.3l1-0.6c2.7,1.4,5.6,0.8,5.6,0.8c3.6-1.1,3.2-3,3.2-3
			c2.6-0.2,3.8-1.4,3.8-1.4C186.8,9.2,184.6,7.8,184.6,7.8z M177.8,13.3c-1,0.8-2.7,0.3-2.7,0.3l-4.1-2.4l2.9-1.7l3.8,2.2
			C177.8,11.8,178.8,12.5,177.8,13.3z M182,10.3c-1.2,0.7-2.4,0-2.4,0l-3.5-2l2.4-1.4l3.6,2.1C182.2,8.9,183.3,9.6,182,10.3z"/>
		
			<linearGradient id="SVGID_15_" gradientUnits="userSpaceOnUse" x1="255.6909" y1="16068.9795" x2="278.8657" y2="16068.9795" gradientTransform="matrix(1 0 0 1 0 -16040)">
			<stop  offset="0" style="stop-color:#00FF99"/>
			<stop  offset="1" style="stop-color:#33CCFF"/>
		</linearGradient>
		<path class="st105" d="M277.4,26.8l1.5-0.8l-2.7-1.4l-1.4,0.9l-1.2-0.8l1.5-0.8l-2.6-1.5l-1.4,0.9l-1.9-1.1l-2.5,1.5l1.3,0.8
			l-8.4,4.8l-1.3-0.8l-2.5,1.5l1.9,1.1l-1.2,0.7l2.5,1.5l1.2-0.7l1.1,0.6l-1.2,0.7l2.6,1.5l1.2-0.7c3.1,1.6,6.3,0.9,6.3,0.9
			c4.1-1.3,3.6-3.4,3.6-3.4c2.9-0.2,4.3-1.6,4.3-1.6C279.9,28.5,277.4,26.8,277.4,26.8z M269.7,33.1c-1.2,0.9-3,0.3-3,0.3l-4.6-2.7
			l3.3-1.9l4.3,2.5C269.7,31.4,270.9,32.2,269.7,33.1z M274.5,29.7c-1.4,0.7-2.7,0-2.7,0l-4-2.3l2.8-1.6l4.1,2.4
			C274.7,28.2,275.9,29,274.5,29.7z"/>
		<linearGradient id="SVGID_16_" gradientUnits="userSpaceOnUse" x1="20.9045" y1="172.4151" x2="39.2061" y2="172.4151">
			<stop  offset="2.945171e-007" style="stop-color:#3F00FC"/>
			<stop  offset="0.2077" style="stop-color:#3F02F7"/>
			<stop  offset="0.4672" style="stop-color:#3E09E7"/>
			<stop  offset="0.7531" style="stop-color:#3E14CE"/>
			<stop  offset="1" style="stop-color:#3D20B2"/>
		</linearGradient>
		<polyline class="st106" points="21.1,222.6 38.7,214.3 38.7,198.1 30.4,193 30.4,129.4 37.1,126 30.4,122.2 		"/>
		<linearGradient id="SVGID_17_" gradientUnits="userSpaceOnUse" x1="83.5919" y1="237.7393" x2="117.0546" y2="237.7393">
			<stop  offset="2.945171e-007" style="stop-color:#3F00FC"/>
			<stop  offset="0.2077" style="stop-color:#3F02F7"/>
			<stop  offset="0.4672" style="stop-color:#3E09E7"/>
			<stop  offset="0.7531" style="stop-color:#3E14CE"/>
			<stop  offset="1" style="stop-color:#3D20B2"/>
		</linearGradient>
		<polyline class="st107" points="83.8,258.7 98.4,250.7 98.4,226.9 116.8,216.8 		"/>
		<linearGradient id="SVGID_18_" gradientUnits="userSpaceOnUse" x1="144.431" y1="224.5454" x2="164.5001" y2="224.5454">
			<stop  offset="2.945171e-007" style="stop-color:#3F00FC"/>
			<stop  offset="0.2077" style="stop-color:#3F02F7"/>
			<stop  offset="0.4672" style="stop-color:#3E09E7"/>
			<stop  offset="0.7531" style="stop-color:#3E14CE"/>
			<stop  offset="1" style="stop-color:#3D20B2"/>
		</linearGradient>
		<polyline class="st108" points="151.9,246.8 151.9,223.4 163.5,216.3 145.5,206.2 152.7,202.7 		"/>
		<linearGradient id="SVGID_19_" gradientUnits="userSpaceOnUse" x1="170.1378" y1="237.797" x2="179.6837" y2="237.797">
			<stop  offset="2.945171e-007" style="stop-color:#3F00FC"/>
			<stop  offset="0.2077" style="stop-color:#3F02F7"/>
			<stop  offset="0.4672" style="stop-color:#3E09E7"/>
			<stop  offset="0.7531" style="stop-color:#3E14CE"/>
			<stop  offset="1" style="stop-color:#3D20B2"/>
		</linearGradient>
		<line class="st109" x1="170.4" y1="235.1" x2="179.4" y2="240.5"/>
		<linearGradient id="SVGID_20_" gradientUnits="userSpaceOnUse" x1="258.6827" y1="179.5987" x2="279.3904" y2="179.5987">
			<stop  offset="2.945171e-007" style="stop-color:#3F00FC"/>
			<stop  offset="0.2077" style="stop-color:#3F02F7"/>
			<stop  offset="0.4672" style="stop-color:#3E09E7"/>
			<stop  offset="0.7531" style="stop-color:#3E14CE"/>
			<stop  offset="1" style="stop-color:#3D20B2"/>
		</linearGradient>
		<polyline class="st110" points="259.2,224.8 259.2,144.5 279.2,134.9 		"/>
		<linearGradient id="SVGID_21_" gradientUnits="userSpaceOnUse" x1="173.3951" y1="156.8416" x2="202.6006" y2="156.8416">
			<stop  offset="2.945171e-007" style="stop-color:#3F00FC"/>
			<stop  offset="0.2077" style="stop-color:#3F02F7"/>
			<stop  offset="0.4672" style="stop-color:#3E09E7"/>
			<stop  offset="0.7531" style="stop-color:#3E14CE"/>
			<stop  offset="1" style="stop-color:#3D20B2"/>
		</linearGradient>
		<polyline class="st111" points="184.8,181.6 184.9,158.6 173.9,152.4 173.9,137.5 182.4,132.6 202.4,139.4 		"/>
		<g id="XMLID_1_">
			<linearGradient id="XMLID_345_" gradientUnits="userSpaceOnUse" x1="41.6635" y1="209.9868" x2="43.9034" y2="209.9868">
				<stop  offset="0" style="stop-color:#4F3E90"/>
				<stop  offset="1" style="stop-color:#171A31"/>
			</linearGradient>
			<path id="XMLID_24_" class="st112" d="M42.8,222.1c-0.6,0-1.1-0.5-1.1-1.1v-22c0-0.6,0.5-1.1,1.1-1.1c0.6,0,1.1,0.5,1.1,1.1v22
				C43.9,221.6,43.4,222.1,42.8,222.1z"/>
			<linearGradient id="XMLID_350_" gradientUnits="userSpaceOnUse" x1="35.3175" y1="201.6806" x2="50.2504" y2="201.6806">
				<stop  offset="0" style="stop-color:#00FF99"/>
				<stop  offset="1" style="stop-color:#33CCFF"/>
			</linearGradient>
			<ellipse id="XMLID_19_" class="st113" cx="42.8" cy="201.7" rx="7.5" ry="10.2"/>
		</g>
	</g>
</g>
</svg>
