<svg version="1.1" id="Capa_1" xmlns="http://www.w3.org/2000/svg" x="0" y="0" viewBox="6 -6 512 512" style="enable-background:new 6 -6 512 512" xml:space="preserve"><style>.st8{fill:#3d20b7}</style><path d="M259.2 358.7s22 19.9 59.7 4.8c37.7-15.1 84.5-36.2 98.8-44.9 14.2-8.7 24.3-22.2 3.3-25.9S346.1 266 346.1 266s-2.1-13.8-8.8-20.5-115.1 11.3-115.1 11.3l-51 29.1 88 72.8z" style="opacity:.2;fill:#11081c"/><linearGradient id="SVGID_1_" gradientUnits="userSpaceOnUse" x1="152.306" y1="286.411" x2="362.649" y2="286.411"><stop offset="0" style="stop-color:#4f3e90"/><stop offset="1" style="stop-color:#171a31"/></linearGradient><path d="M153.9 278.9s-4.1 2 .7 7.2c4.7 5.1 103.4 59.5 103.4 59.5s8.1 4.3 14.2 0l89.9-52.7s2.3-3.4-2.5-5.9l-103.3-59.7s-5.2-4.1-12.2 0c-6.9 4-90.2 51.6-90.2 51.6z" style="fill:url(#SVGID_1_)"/><linearGradient id="SVGID_2_" gradientUnits="userSpaceOnUse" x1="152.306" y1="320.673" x2="362.695" y2="320.673"><stop offset="0" style="stop-color:#463780"/><stop offset=".143" style="stop-color:#382e68"/><stop offset=".331" style="stop-color:#292550"/><stop offset=".529" style="stop-color:#1f1f3f"/><stop offset=".743" style="stop-color:#191b34"/><stop offset="1" style="stop-color:#171a31"/></linearGradient><path d="M152.3 293.7v-12.3s-.1 3.3 3.6 5.8 28.7 17.3 28.7 17.3l37.4 21.1 35.5 19.7s7.9 4.4 14.3.6c6.4-3.8 90.4-53 90.4-53s.8-1.1.5-2.9v13.3c0 1.2-.6 2.2-1.6 2.8L273 357.4s-8.9 6.6-17.7-1.5l-101.2-59.2c-1.1-.6-1.8-1.8-1.8-3z" style="fill:url(#SVGID_2_)"/><linearGradient id="SVGID_3_" gradientUnits="userSpaceOnUse" x1="199.36" y1="282.175" x2="265.738" y2="282.175"><stop offset="0" style="stop-color:#7f00ff"/><stop offset=".489" style="stop-color:#7d00ff"/><stop offset=".665" style="stop-color:#7600ff"/><stop offset=".79" style="stop-color:#6b00ff"/><stop offset=".892" style="stop-color:#5a00ff"/><stop offset=".978" style="stop-color:#40f"/><stop offset="1" style="stop-color:#3d00ff"/></linearGradient><path style="fill:url(#SVGID_3_)" d="m199.4 275 20.6-12 45.7 26.4-20.5 12z"/><linearGradient id="SVGID_4_" gradientUnits="userSpaceOnUse" x1="245.139" y1="301.995" x2="288.656" y2="301.995"><stop offset="0" style="stop-color:#3f00fc"/><stop offset=".208" style="stop-color:#3f02f7"/><stop offset=".467" style="stop-color:#3e09e7"/><stop offset=".753" style="stop-color:#3e14ce"/><stop offset="1" style="stop-color:#3d20b2"/></linearGradient><path style="fill:url(#SVGID_4_)" d="m288.7 302.6-23-13.2-20.6 12 22.9 13.2z"/><linearGradient id="SVGID_5_" gradientUnits="userSpaceOnUse" x1="237.13" y1="264.841" x2="252.631" y2="322.689"><stop offset="0" style="stop-color:#851cb7"/><stop offset="1" style="stop-color:#3d20b7"/></linearGradient><path style="fill:url(#SVGID_5_)" d="M199.4 275v3.5l68.5 40.1 20.8-12.1v-3.9l-20.7 12z"/><linearGradient id="SVGID_6_" gradientUnits="userSpaceOnUse" x1="229.379" y1="261.224" x2="259.68" y2="261.224"><stop offset="0" style="stop-color:#3f00fc"/><stop offset=".208" style="stop-color:#3f02f7"/><stop offset=".467" style="stop-color:#3e09e7"/><stop offset=".753" style="stop-color:#3e14ce"/><stop offset="1" style="stop-color:#3d20b2"/></linearGradient><path style="fill:url(#SVGID_6_)" d="m229.4 264 2.9-8.2 25.6-14.9 1.8 40.6z"/><linearGradient id="SVGID_7_" gradientUnits="userSpaceOnUse" x1="264.542" y1="283.204" x2="326.467" y2="283.204"><stop offset="0" style="stop-color:#7f00ff"/><stop offset=".222" style="stop-color:#7a00ff"/><stop offset=".5" style="stop-color:#6a00ff"/><stop offset=".806" style="stop-color:#5100ff"/><stop offset="1" style="stop-color:#3d00ff"/></linearGradient><path style="fill:url(#SVGID_7_)" d="m264.5 284.3.1-18.3 61.9 14.6-34.1 19.8z"/><path class="st8" d="m264.5 284.3 27.9 16.1 34.1-19.8v3.7l-34.1 20.5-27.9-16.1zM229.4 264v4.4l30.2 17.5.1-4.4z"/><linearGradient id="SVGID_8_" gradientUnits="userSpaceOnUse" x1="276.995" y1="305.744" x2="279.599" y2="315.463"><stop offset="0" style="stop-color:#3f00fc"/><stop offset=".12" style="stop-color:#3d01f7"/><stop offset=".27" style="stop-color:#3804e7"/><stop offset=".436" style="stop-color:#2f08ce"/><stop offset=".614" style="stop-color:#230eaa"/><stop offset=".8" style="stop-color:#14167c"/><stop offset=".992" style="stop-color:#012045"/><stop offset="1" style="stop-color:#002043"/></linearGradient><path style="fill:url(#SVGID_8_)" d="m268 314.6-.1 4 20.8-12.1v-3.9z"/><linearGradient id="SVGID_9_" gradientUnits="userSpaceOnUse" x1="307.548" y1="285.653" x2="311.311" y2="299.696"><stop offset="0" style="stop-color:#3f00fc"/><stop offset=".12" style="stop-color:#3d01f7"/><stop offset=".27" style="stop-color:#3804e7"/><stop offset=".436" style="stop-color:#2f08ce"/><stop offset=".614" style="stop-color:#230eaa"/><stop offset=".8" style="stop-color:#14167c"/><stop offset=".992" style="stop-color:#012045"/><stop offset="1" style="stop-color:#002043"/></linearGradient><path style="fill:url(#SVGID_9_)" d="M292.4 300.4v4.4l34.1-20.5v-3.7z"/><linearGradient id="SVGID_10_" gradientUnits="userSpaceOnUse" x1="119.12" y1="241.184" x2="329.462" y2="241.184"><stop offset="0" style="stop-color:#4f3e90"/><stop offset="1" style="stop-color:#171a31"/></linearGradient><path d="M120.7 233.6s-4.1 2 .7 7.2 103.4 59.5 103.4 59.5 8.1 4.3 14.2 0l89.9-52.7s2.3-3.4-2.5-5.9L223.1 182s-5.2-4.1-12.2 0-90.2 51.6-90.2 51.6z" style="fill:url(#SVGID_10_)"/><linearGradient id="SVGID_11_" gradientUnits="userSpaceOnUse" x1="119.12" y1="275.446" x2="329.508" y2="275.446"><stop offset="0" style="stop-color:#463780"/><stop offset=".143" style="stop-color:#382e68"/><stop offset=".331" style="stop-color:#292550"/><stop offset=".529" style="stop-color:#1f1f3f"/><stop offset=".743" style="stop-color:#191b34"/><stop offset="1" style="stop-color:#171a31"/></linearGradient><path d="M119.1 248.4v-12.3s-.1 3.3 3.6 5.8 28.7 17.3 28.7 17.3l37.4 21.1 35.5 19.7s7.9 4.4 14.3.6c6.4-3.8 90.4-53 90.4-53s.8-1.1.5-2.9V258c0 1.2-.6 2.2-1.6 2.8l-88.1 51.4s-8.9 6.6-17.7-1.5l-101.2-59.2c-1.1-.7-1.8-1.8-1.8-3.1z" style="fill:url(#SVGID_11_)"/><linearGradient id="SVGID_12_" gradientUnits="userSpaceOnUse" x1="166.173" y1="236.948" x2="232.552" y2="236.948"><stop offset="0" style="stop-color:#7f00ff"/><stop offset=".489" style="stop-color:#7d00ff"/><stop offset=".665" style="stop-color:#7600ff"/><stop offset=".79" style="stop-color:#6b00ff"/><stop offset=".892" style="stop-color:#5a00ff"/><stop offset=".978" style="stop-color:#40f"/><stop offset="1" style="stop-color:#3d00ff"/></linearGradient><path style="fill:url(#SVGID_12_)" d="m166.2 229.7 20.6-12 45.8 26.5-20.6 12z"/><linearGradient id="SVGID_13_" gradientUnits="userSpaceOnUse" x1="211.952" y1="256.769" x2="255.469" y2="256.769"><stop offset="0" style="stop-color:#3f00fc"/><stop offset=".208" style="stop-color:#3f02f7"/><stop offset=".467" style="stop-color:#3e09e7"/><stop offset=".753" style="stop-color:#3e14ce"/><stop offset="1" style="stop-color:#3d20b2"/></linearGradient><path style="fill:url(#SVGID_13_)" d="m255.5 257.4-23-13.2-20.5 12 22.8 13.2z"/><linearGradient id="SVGID_14_" gradientUnits="userSpaceOnUse" x1="203.944" y1="219.614" x2="219.444" y2="277.462"><stop offset="0" style="stop-color:#851cb7"/><stop offset="1" style="stop-color:#3d20b7"/></linearGradient><path style="fill:url(#SVGID_14_)" d="M166.2 229.7v3.6l68.6 40.1 20.7-12.1v-3.9l-20.7 12z"/><linearGradient id="SVGID_15_" gradientUnits="userSpaceOnUse" x1="196.193" y1="215.997" x2="226.494" y2="215.997"><stop offset="0" style="stop-color:#3f00fc"/><stop offset=".208" style="stop-color:#3f02f7"/><stop offset=".467" style="stop-color:#3e09e7"/><stop offset=".753" style="stop-color:#3e14ce"/><stop offset="1" style="stop-color:#3d20b2"/></linearGradient><path style="fill:url(#SVGID_15_)" d="m196.2 218.8 3-8.3 25.5-14.8 1.8 40.6z"/><linearGradient id="SVGID_16_" gradientUnits="userSpaceOnUse" x1="231.356" y1="237.977" x2="293.281" y2="237.977"><stop offset="0" style="stop-color:#7f00ff"/><stop offset=".222" style="stop-color:#7a00ff"/><stop offset=".5" style="stop-color:#6a00ff"/><stop offset=".806" style="stop-color:#5100ff"/><stop offset="1" style="stop-color:#3d00ff"/></linearGradient><path style="fill:url(#SVGID_16_)" d="m231.4 239.1.1-18.4 61.8 14.7-34.1 19.8z"/><path class="st8" d="m231.4 239.1 27.8 16.1 34.1-19.8v3.7l-34.1 20.4-27.8-16zM196.2 218.8v4.4l30.2 17.4.1-4.3z"/><linearGradient id="SVGID_17_" gradientUnits="userSpaceOnUse" x1="243.809" y1="260.517" x2="246.413" y2="270.236"><stop offset="0" style="stop-color:#3f00fc"/><stop offset=".12" style="stop-color:#3d01f7"/><stop offset=".27" style="stop-color:#3804e7"/><stop offset=".436" style="stop-color:#2f08ce"/><stop offset=".614" style="stop-color:#230eaa"/><stop offset=".8" style="stop-color:#14167c"/><stop offset=".992" style="stop-color:#012045"/><stop offset="1" style="stop-color:#002043"/></linearGradient><path style="fill:url(#SVGID_17_)" d="M234.8 269.4v4l20.7-12.1v-3.9z"/><linearGradient id="SVGID_18_" gradientUnits="userSpaceOnUse" x1="274.362" y1="240.426" x2="278.125" y2="254.469"><stop offset="0" style="stop-color:#3f00fc"/><stop offset=".12" style="stop-color:#3d01f7"/><stop offset=".27" style="stop-color:#3804e7"/><stop offset=".436" style="stop-color:#2f08ce"/><stop offset=".614" style="stop-color:#230eaa"/><stop offset=".8" style="stop-color:#14167c"/><stop offset=".992" style="stop-color:#012045"/><stop offset="1" style="stop-color:#002043"/></linearGradient><path style="fill:url(#SVGID_18_)" d="M259.2 255.2v4.3l34.1-20.4v-3.7z"/><linearGradient id="SVGID_19_" gradientUnits="userSpaceOnUse" x1="90.998" y1="191.873" x2="301.341" y2="191.873"><stop offset="0" style="stop-color:#4f3e90"/><stop offset="1" style="stop-color:#171a31"/></linearGradient><path d="M92.6 184.3s-4.1 2 .7 7.2S196.7 251 196.7 251s8.1 4.3 14.2 0l89.9-52.7s2.3-3.4-2.5-5.9L195 132.7s-5.2-4.1-12.2 0c-7 4-90.2 51.6-90.2 51.6z" style="fill:url(#SVGID_19_)"/><linearGradient id="SVGID_20_" gradientUnits="userSpaceOnUse" x1="90.998" y1="226.134" x2="301.387" y2="226.134"><stop offset="0" style="stop-color:#463780"/><stop offset=".143" style="stop-color:#382e68"/><stop offset=".331" style="stop-color:#292550"/><stop offset=".529" style="stop-color:#1f1f3f"/><stop offset=".743" style="stop-color:#191b34"/><stop offset="1" style="stop-color:#171a31"/></linearGradient><path d="M91 199.1v-12.3s-.1 3.3 3.6 5.8 28.7 17.3 28.7 17.3l37.4 21.1 35.5 19.7s7.9 4.4 14.3.6c6.4-3.8 90.4-53 90.4-53s.8-1.1.5-2.9v13.3c0 1.2-.6 2.2-1.6 2.8l-88.1 51.4s-8.9 6.6-17.7-1.5L92.7 202.2c-1-.7-1.7-1.8-1.7-3.1z" style="fill:url(#SVGID_20_)"/><linearGradient id="SVGID_21_" gradientUnits="userSpaceOnUse" x1="138.052" y1="187.637" x2="204.431" y2="187.637"><stop offset="0" style="stop-color:#7f00ff"/><stop offset=".489" style="stop-color:#7d00ff"/><stop offset=".665" style="stop-color:#7600ff"/><stop offset=".79" style="stop-color:#6b00ff"/><stop offset=".892" style="stop-color:#5a00ff"/><stop offset=".978" style="stop-color:#40f"/><stop offset="1" style="stop-color:#3d00ff"/></linearGradient><path style="fill:url(#SVGID_21_)" d="m138.1 180.4 20.6-12 45.7 26.4-20.5 12z"/><linearGradient id="SVGID_22_" gradientUnits="userSpaceOnUse" x1="183.831" y1="207.457" x2="227.348" y2="207.457"><stop offset="0" style="stop-color:#3f00fc"/><stop offset=".208" style="stop-color:#3f02f7"/><stop offset=".467" style="stop-color:#3e09e7"/><stop offset=".753" style="stop-color:#3e14ce"/><stop offset="1" style="stop-color:#3d20b2"/></linearGradient><path style="fill:url(#SVGID_22_)" d="m227.3 208.1-22.9-13.2-20.6 11.9 22.9 13.3z"/><linearGradient id="SVGID_23_" gradientUnits="userSpaceOnUse" x1="175.823" y1="170.303" x2="191.323" y2="228.151"><stop offset="0" style="stop-color:#851cb7"/><stop offset="1" style="stop-color:#3d20b7"/></linearGradient><path style="fill:url(#SVGID_23_)" d="M138.1 180.4v3.6l68.5 40 20.8-12v-3.9l-20.7 12z"/><linearGradient id="SVGID_24_" gradientUnits="userSpaceOnUse" x1="168.071" y1="166.685" x2="198.373" y2="166.685"><stop offset="0" style="stop-color:#3f00fc"/><stop offset=".208" style="stop-color:#3f02f7"/><stop offset=".467" style="stop-color:#3e09e7"/><stop offset=".753" style="stop-color:#3e14ce"/><stop offset="1" style="stop-color:#3d20b2"/></linearGradient><path style="fill:url(#SVGID_24_)" d="m168.1 169.5 2.9-8.3 25.5-14.8 1.9 40.6z"/><linearGradient id="SVGID_25_" gradientUnits="userSpaceOnUse" x1="203.235" y1="188.666" x2="265.159" y2="188.666"><stop offset="0" style="stop-color:#7f00ff"/><stop offset=".222" style="stop-color:#7a00ff"/><stop offset=".5" style="stop-color:#6a00ff"/><stop offset=".806" style="stop-color:#5100ff"/><stop offset="1" style="stop-color:#3d00ff"/></linearGradient><path style="fill:url(#SVGID_25_)" d="m203.2 189.8.1-18.4 61.9 14.6-34.1 19.9z"/><path class="st8" d="m203.2 189.8 27.9 16.1 34.1-19.9v3.8l-34.1 20.4-27.9-16zM168.1 169.5v4.4l30.2 17.4.1-4.3z"/><linearGradient id="SVGID_26_" gradientUnits="userSpaceOnUse" x1="215.688" y1="211.206" x2="218.292" y2="220.924"><stop offset="0" style="stop-color:#3f00fc"/><stop offset=".12" style="stop-color:#3d01f7"/><stop offset=".27" style="stop-color:#3804e7"/><stop offset=".436" style="stop-color:#2f08ce"/><stop offset=".614" style="stop-color:#230eaa"/><stop offset=".8" style="stop-color:#14167c"/><stop offset=".992" style="stop-color:#012045"/><stop offset="1" style="stop-color:#002043"/></linearGradient><path style="fill:url(#SVGID_26_)" d="m206.7 220.1-.1 3.9 20.8-12-.1-3.9z"/><linearGradient id="SVGID_27_" gradientUnits="userSpaceOnUse" x1="246.241" y1="191.115" x2="250.004" y2="205.158"><stop offset="0" style="stop-color:#3f00fc"/><stop offset=".12" style="stop-color:#3d01f7"/><stop offset=".27" style="stop-color:#3804e7"/><stop offset=".436" style="stop-color:#2f08ce"/><stop offset=".614" style="stop-color:#230eaa"/><stop offset=".8" style="stop-color:#14167c"/><stop offset=".992" style="stop-color:#012045"/><stop offset="1" style="stop-color:#002043"/></linearGradient><path style="fill:url(#SVGID_27_)" d="M231.1 205.9v4.3l34.1-20.4V186z"/><linearGradient id="SVGID_28_" gradientUnits="userSpaceOnUse" x1="197.769" y1="451.297" x2="197.769" y2="451.297"><stop offset="0" style="stop-color:#3f00fc"/><stop offset=".208" style="stop-color:#3f02f7"/><stop offset=".467" style="stop-color:#3e09e7"/><stop offset=".753" style="stop-color:#3e14ce"/><stop offset="1" style="stop-color:#3d20b2"/></linearGradient></svg>