<svg version="1.1" id="Capa_1" xmlns="http://www.w3.org/2000/svg" x="0" y="0" viewBox="6 -6 512 512" style="enable-background:new 6 -6 512 512" xml:space="preserve"><style>.st1,.st5{opacity:.2;fill:#1e1a21}.st5{fill:#2e3191;enable-background:new}.st25{fill:#3d20b7}</style><linearGradient id="SVGID_1_" gradientUnits="userSpaceOnUse" x1="197.769" y1="451.297" x2="197.769" y2="451.297"><stop offset="0" style="stop-color:#3f00fc"/><stop offset=".208" style="stop-color:#3f02f7"/><stop offset=".467" style="stop-color:#3e09e7"/><stop offset=".753" style="stop-color:#3e14ce"/><stop offset="1" style="stop-color:#3d20b2"/></linearGradient><path class="st1" d="m355.4 306.1 57.2 2.5s8.9-1.3 14-7.1c5-5.8-1.2-21.6-12-25.4-10.9-3.7-88.3-7.7-88.3-7.7l29.1 37.7z"/><linearGradient id="SVGID_2_" gradientUnits="userSpaceOnUse" x1="5.727" y1="504.446" x2="6.35" y2="503.725" gradientTransform="matrix(123.428 0 0 -179.065 -411.65 90496.219)"><stop offset="0" style="stop-color:#463780"/><stop offset=".143" style="stop-color:#382e68"/><stop offset=".331" style="stop-color:#292550"/><stop offset=".529" style="stop-color:#1f1f3f"/><stop offset=".743" style="stop-color:#191b34"/><stop offset="1" style="stop-color:#171a31"/></linearGradient><path d="m367.5 206.1-67.8-38c-1.9-1-3.6-1-4.7-.3l-16.6 9.7 3.2 2.7 11.7 8.4v58.6c0 3.9 2.9 8.8 6.5 10.9l56 31.4-1.3 14.1 1 2.7 16.8-9.7c1.2-.6 1.9-2.1 1.9-4v-75.4c-.2-4.2-3.1-9.1-6.7-11.1z" style="fill:url(#SVGID_2_)"/><linearGradient id="SVGID_3_" gradientUnits="userSpaceOnUse" x1="5.576" y1="504.367" x2="6.292" y2="503.603" gradientTransform="matrix(107.17 0 0 -168.6487 -316.669 85236.688)"><stop offset="0" style="stop-color:#268ecd"/><stop offset=".364" style="stop-color:#0974f9"/><stop offset=".54" style="stop-color:#1195f7"/><stop offset=".67" style="stop-color:#076cf9"/><stop offset="1" style="stop-color:#325fac"/></linearGradient><path d="M278.7 254.6c0 3.9 2.9 8.8 6.5 10.9l67.7 41.1c2.2.5 6.6-2.7 6.6-6.7v-74.2c0-4.6-3.5-10-7-11.9l-66.9-37.2c-3.9-2.1-9.1 1-9.1 5.1l2.2 72.9z" style="fill:url(#SVGID_3_)"/><linearGradient id="SVGID_4_" gradientUnits="userSpaceOnUse" x1="6.156" y1="503.554" x2="5.66" y2="504.378" gradientTransform="matrix(104.176 0 0 -167.1217 -298.705 84465.445)"><stop offset="0" style="stop-color:#4f3e90"/><stop offset="1" style="stop-color:#171a31"/></linearGradient><path d="M276.4 256.9c0 3.9 2.9 8.8 6.5 10.9l67.8 38c3.6 2 6.5.3 6.5-3.6v-75.4c0-3.9-2.9-8.8-6.5-10.9l-67.8-38c-3.6-2-6.5-.3-6.5 3.6v75.4z" style="fill:url(#SVGID_4_)"/><path class="st5" d="m309 183.1 8.6-5-7.9-4.4-1.7 5.9 1 3.5zm43.9 24.6 8.6-4.9-7.9-4.5-1.7 5.9 1 3.5z"/><linearGradient id="SVGID_5_" gradientUnits="userSpaceOnUse" x1="5.21" y1="502.564" x2="5.985" y2="502.564" gradientTransform="matrix(71.661 0 0 -94.1923 -74.309 47509.813)"><stop offset="0" style="stop-color:#d5e8f1"/><stop offset="1" style="stop-color:#94bcff"/></linearGradient><path d="M354.6 184.4c0-17.7-10.9-37.7-24.8-45.5-7.1-4-14.3-4.3-20.2-1.1-6.7 3.7-10.5 11.7-10.5 22V181h.1c.1.8.6 1.6 1.7 2.2 2.2 1.3 6 1.3 8.2 0 1.2-.7 1.8-1.7 1.7-2.7v-20.7c0-6 1.7-10.6 4.7-12.3 2.7-1.5 6.1-.2 8.5 1.1 10.3 5.8 19 22.1 19 35.8v21.1c.1.8.6 1.6 1.7 2.2 2.2 1.3 6 1.3 8.2 0 1.1-.6 1.7-1.4 1.7-2.2v-21.1c.1 0 0 0 0 0z" style="fill:url(#SVGID_5_)"/><path class="st5" d="M334.6 142.2c10.2 11.3 17.2 27.9 17.2 43.1v22.9c.4-.2.8-.3 1.2-.5 1.1-.6 1.7-1.4 1.7-2.2v-21.2c-.1-15.5-8.6-32.9-20.1-42.1zm-21.9 4.7c-3.6 2-5.6 7.5-5.6 14.8v22.2c.7-.2 1.5-.4 2.1-.7 1.2-.7 1.8-1.7 1.7-2.7v-20.7c0-6 1.7-10.6 4.7-12.3 2-1.1 4.4-.7 6.5.2-2.9-1.4-6.5-2.5-9.4-.8z"/><linearGradient id="SVGID_6_" gradientUnits="userSpaceOnUse" x1="2.652" y1="498.714" x2="3.429" y2="498.067" gradientTransform="matrix(17.861 0 0 -35.9945 261.861 18179.678)"><stop offset=".051" style="stop-color:#beb3ed"/><stop offset=".181" style="stop-color:#e4e0ff"/><stop offset=".375" style="stop-color:#ded5f9"/><stop offset=".436" style="stop-color:#ded5f9"/><stop offset=".485" style="stop-color:#a89ae4"/><stop offset=".708" style="stop-color:#957edc"/><stop offset="1" style="stop-color:#6e70c5"/></linearGradient><path d="M316.3 228c-3.8-2.2-6.9-.4-6.9 3.9 0 3 1.5 6.4 3.6 8.8v9.3c0 1.6 1.3 3.6 3 4.5 1.7.9 3 .4 3-1.2v-9c2.5.2 4.2-1.5 4.2-4.7 0-4.3-3.1-9.5-6.9-11.6z" style="fill:url(#SVGID_6_)"/><linearGradient id="SVGID_7_" gradientUnits="userSpaceOnUse" x1="2.652" y1="498.714" x2="3.429" y2="498.067" gradientTransform="matrix(17.861 0 0 -35.9945 261.861 18179.678)"><stop offset="0" style="stop-color:#4f3e90"/><stop offset="1" style="stop-color:#171a31"/></linearGradient><path d="M316.3 228c-3.8-2.2-6.9-.4-6.9 3.9 0 3 1.5 6.4 3.6 8.8v9.3c0 1.6 1.3 3.6 3 4.5 1.7.9 3 .4 3-1.2v-9c2.5.2 4.2-1.5 4.2-4.7 0-4.3-3.1-9.5-6.9-11.6z" style="fill:url(#SVGID_7_)"/><path d="M319 244.3v9.1l-.5-.2c-1.7-.9-3-3-3-4.5v-9.3c-2.2-2.5-3.6-5.9-3.6-8.8 0-1.4.3-2.6 1-3.4 1-.1 2.2.2 3.5.9 3.8 2.2 6.9 7.3 6.9 11.6 0 1.4-.3 2.6-1 3.4h-.8l-2.5 1.2z" style="fill:#031653"/><path class="st1" d="M97.2 298.6s-3.9 1.9.6 6.9c4.5 4.9 99.3 57.1 99.3 57.1s7.8 4.1 13.6 0L297 312s2.2-3.3-2.4-5.6L195.5 249s-5-3.9-11.7 0c-6.7 3.9-86.6 49.6-86.6 49.6z"/><linearGradient id="SVGID_8_" gradientUnits="userSpaceOnUse" x1="95.656" y1="280.172" x2="297.615" y2="280.172"><stop offset="0" style="stop-color:#4f3e90"/><stop offset="1" style="stop-color:#171a31"/></linearGradient><path d="M97.2 272.9s-3.9 1.9.6 6.9c4.5 4.9 99.3 57.1 99.3 57.1s7.8 4.1 13.6 0l86.3-50.6s2.2-3.3-2.4-5.6l-99.2-57.4s-5-3.9-11.7 0c-6.6 3.9-86.5 49.6-86.5 49.6z" style="fill:url(#SVGID_8_)"/><linearGradient id="SVGID_9_" gradientUnits="userSpaceOnUse" x1="95.656" y1="313.068" x2="297.66" y2="313.068"><stop offset="0" style="stop-color:#463780"/><stop offset=".143" style="stop-color:#382e68"/><stop offset=".331" style="stop-color:#292550"/><stop offset=".529" style="stop-color:#1f1f3f"/><stop offset=".743" style="stop-color:#191b34"/><stop offset="1" style="stop-color:#171a31"/></linearGradient><path d="M95.7 287.1v-11.8s-.1 3.2 3.5 5.5c3.6 2.4 27.6 16.6 27.6 16.6l35.9 20.3 34.1 18.9s7.6 4.2 13.7.6 86.8-50.8 86.8-50.8.8-1 .5-2.8v12.7c0 1.1-.6 2.1-1.5 2.7l-84.6 49.4s-8.6 6.4-17-1.5L97.5 290c-1.2-.6-1.8-1.7-1.8-2.9z" style="fill:url(#SVGID_9_)"/><linearGradient id="SVGID_10_" gradientUnits="userSpaceOnUse" x1="95.656" y1="252.173" x2="297.615" y2="252.173"><stop offset="0" style="stop-color:#4f3e90"/><stop offset="1" style="stop-color:#171a31"/></linearGradient><path d="M97.2 244.9s-3.9 1.9.6 6.9c4.5 4.9 99.3 57.1 99.3 57.1s7.8 4.1 13.6 0l86.3-50.6s2.2-3.3-2.4-5.6l-99.2-57.4s-5-3.9-11.7 0c-6.6 3.9-86.5 49.6-86.5 49.6z" style="fill:url(#SVGID_10_)"/><linearGradient id="SVGID_11_" gradientUnits="userSpaceOnUse" x1="95.656" y1="285.069" x2="297.66" y2="285.069"><stop offset="0" style="stop-color:#463780"/><stop offset=".143" style="stop-color:#382e68"/><stop offset=".331" style="stop-color:#292550"/><stop offset=".529" style="stop-color:#1f1f3f"/><stop offset=".743" style="stop-color:#191b34"/><stop offset="1" style="stop-color:#171a31"/></linearGradient><path d="M95.7 259.1v-11.8s-.1 3.2 3.5 5.5c3.6 2.4 27.6 16.6 27.6 16.6l35.9 20.3 34.1 18.9s7.6 4.2 13.7.6 86.8-50.8 86.8-50.8.8-1 .5-2.8v12.7c0 1.1-.6 2.1-1.5 2.7l-84.6 49.4s-8.6 6.4-17-1.5L97.5 262c-1.2-.6-1.8-1.7-1.8-2.9z" style="fill:url(#SVGID_11_)"/><linearGradient id="SVGID_12_" gradientUnits="userSpaceOnUse" x1="95.656" y1="224.173" x2="297.615" y2="224.173"><stop offset="0" style="stop-color:#4f3e90"/><stop offset="1" style="stop-color:#171a31"/></linearGradient><path d="M97.2 216.9s-3.9 1.9.6 6.9c4.5 4.9 99.3 57.1 99.3 57.1s7.8 4.1 13.6 0l86.3-50.6s2.2-3.3-2.4-5.6l-99.2-57.4s-5-3.9-11.7 0c-6.6 3.9-86.5 49.6-86.5 49.6z" style="fill:url(#SVGID_12_)"/><linearGradient id="SVGID_13_" gradientUnits="userSpaceOnUse" x1="95.656" y1="257.07" x2="297.66" y2="257.07"><stop offset="0" style="stop-color:#463780"/><stop offset=".143" style="stop-color:#382e68"/><stop offset=".331" style="stop-color:#292550"/><stop offset=".529" style="stop-color:#1f1f3f"/><stop offset=".743" style="stop-color:#191b34"/><stop offset="1" style="stop-color:#171a31"/></linearGradient><path d="M95.7 231.1v-11.8s-.1 3.2 3.5 5.5c3.6 2.4 27.6 16.6 27.6 16.6l35.9 20.3 34.1 18.9s7.6 4.2 13.7.6 86.8-50.8 86.8-50.8.8-1 .5-2.8v12.7c0 1.1-.6 2.1-1.5 2.7l-84.6 49.4s-8.6 6.4-17-1.5L97.5 234c-1.2-.6-1.8-1.7-1.8-2.9z" style="fill:url(#SVGID_13_)"/><linearGradient id="SVGID_14_" gradientUnits="userSpaceOnUse" x1="186.123" y1="272.957" x2="212.305" y2="175.243"><stop offset="0" style="stop-color:#4f3e90;stop-opacity:.6"/><stop offset="1" style="stop-color:#171abf;stop-opacity:.4"/></linearGradient><path d="M107.9 217.5s-3.6 1.8.6 6.3 91.2 52.4 91.2 52.4 7.1 3.8 12.5 0l79.3-46.4s2-3-2.2-5.2L198.2 172s-4.6-3.6-10.7 0c-6.2 3.6-79.6 45.5-79.6 45.5z" style="opacity:.25;fill:url(#SVGID_14_)"/><linearGradient id="SVGID_15_" gradientUnits="userSpaceOnUse" x1="95.656" y1="196.174" x2="297.615" y2="196.174"><stop offset="0" style="stop-color:#4f3e90"/><stop offset="1" style="stop-color:#171a31"/></linearGradient><path d="M97.2 188.9s-3.9 1.9.6 6.9c4.5 4.9 99.3 57.1 99.3 57.1s7.8 4.1 13.6 0l86.3-50.6s2.2-3.3-2.4-5.6l-99.2-57.4s-5-3.9-11.7 0c-6.6 3.9-86.5 49.6-86.5 49.6z" style="fill:url(#SVGID_15_)"/><linearGradient id="SVGID_16_" gradientUnits="userSpaceOnUse" x1="95.656" y1="229.07" x2="297.66" y2="229.07"><stop offset="0" style="stop-color:#463780"/><stop offset=".143" style="stop-color:#382e68"/><stop offset=".331" style="stop-color:#292550"/><stop offset=".529" style="stop-color:#1f1f3f"/><stop offset=".743" style="stop-color:#191b34"/><stop offset="1" style="stop-color:#171a31"/></linearGradient><path d="M95.7 203.1v-11.8s-.1 3.2 3.5 5.5c3.6 2.4 27.6 16.6 27.6 16.6l35.9 20.3 34.1 18.9s7.6 4.2 13.7.6 86.8-50.8 86.8-50.8.8-1 .5-2.8v12.7c0 1.1-.6 2.1-1.5 2.7l-84.6 49.4s-8.6 6.4-17-1.5L97.5 206c-1.2-.6-1.8-1.7-1.8-2.9z" style="fill:url(#SVGID_16_)"/><linearGradient id="SVGID_17_" gradientUnits="userSpaceOnUse" x1="140.835" y1="204.304" x2="273.111" y2="204.304"><stop offset="0" style="stop-color:#463780"/><stop offset=".143" style="stop-color:#382e68"/><stop offset=".331" style="stop-color:#292550"/><stop offset=".529" style="stop-color:#1f1f3f"/><stop offset=".743" style="stop-color:#191b34"/><stop offset="1" style="stop-color:#171a31"/></linearGradient><path style="opacity:.6;fill:url(#SVGID_17_)" d="m140.8 189.2 67.9 41 64.4-34.4-6.4-.6-66.7-16.8z"/><linearGradient id="SVGID_18_" gradientUnits="userSpaceOnUse" x1="140.835" y1="192.107" x2="204.567" y2="192.107"><stop offset="0" style="stop-color:#7f00ff"/><stop offset=".489" style="stop-color:#7d00ff"/><stop offset=".665" style="stop-color:#7600ff"/><stop offset=".79" style="stop-color:#6b00ff"/><stop offset=".892" style="stop-color:#5a00ff"/><stop offset=".978" style="stop-color:#40f"/><stop offset="1" style="stop-color:#3d00ff"/></linearGradient><path style="fill:url(#SVGID_18_)" d="m140.8 185.2 19.8-11.5 44 25.3-19.8 11.5z"/><linearGradient id="SVGID_19_" gradientUnits="userSpaceOnUse" x1="184.789" y1="211.138" x2="226.571" y2="211.138"><stop offset="0" style="stop-color:#3f00fc"/><stop offset=".208" style="stop-color:#3f02f7"/><stop offset=".467" style="stop-color:#3e09e7"/><stop offset=".753" style="stop-color:#3e14ce"/><stop offset="1" style="stop-color:#3d20b2"/></linearGradient><path style="fill:url(#SVGID_19_)" d="M226.6 211.7 204.5 199l-19.7 11.6 21.9 12.6z"/><linearGradient id="SVGID_20_" gradientUnits="userSpaceOnUse" x1="177.1" y1="175.464" x2="191.982" y2="231.006"><stop offset="0" style="stop-color:#851cb7"/><stop offset="1" style="stop-color:#3d20b7"/></linearGradient><path style="fill:url(#SVGID_20_)" d="M140.8 185.2v3.4l65.9 38.5 19.9-11.6v-3.8l-19.8 11.5z"/><linearGradient id="SVGID_21_" gradientUnits="userSpaceOnUse" x1="169.658" y1="171.991" x2="198.751" y2="171.991"><stop offset="0" style="stop-color:#3f00fc"/><stop offset=".208" style="stop-color:#3f02f7"/><stop offset=".467" style="stop-color:#3e09e7"/><stop offset=".753" style="stop-color:#3e14ce"/><stop offset="1" style="stop-color:#3d20b2"/></linearGradient><path style="fill:url(#SVGID_21_)" d="m169.7 174.7 2.8-7.9 24.5-14.3 1.8 39z"/><linearGradient id="SVGID_22_" gradientUnits="userSpaceOnUse" x1="203.419" y1="193.095" x2="262.876" y2="193.095"><stop offset="0" style="stop-color:#7f00ff"/><stop offset=".222" style="stop-color:#7a00ff"/><stop offset=".5" style="stop-color:#6a00ff"/><stop offset=".806" style="stop-color:#5100ff"/><stop offset="1" style="stop-color:#3d00ff"/></linearGradient><path style="fill:url(#SVGID_22_)" d="m203.4 194.2.1-17.7 59.4 14.1-32.7 19z"/><path class="st25" d="m203.4 194.2 26.8 15.4 32.7-19v3.6l-32.7 19.6-26.8-15.4zM169.7 174.7v4.2l29 16.7.1-4.1z"/><linearGradient id="SVGID_23_" gradientUnits="userSpaceOnUse" x1="215.376" y1="214.737" x2="217.876" y2="224.068"><stop offset="0" style="stop-color:#3f00fc"/><stop offset=".12" style="stop-color:#3d01f7"/><stop offset=".27" style="stop-color:#3804e7"/><stop offset=".436" style="stop-color:#2f08ce"/><stop offset=".614" style="stop-color:#230eaa"/><stop offset=".8" style="stop-color:#14167c"/><stop offset=".992" style="stop-color:#012045"/><stop offset="1" style="stop-color:#002043"/></linearGradient><path style="fill:url(#SVGID_23_)" d="m206.8 223.2-.1 3.9 19.9-11.6v-3.8z"/><linearGradient id="SVGID_24_" gradientUnits="userSpaceOnUse" x1="244.711" y1="195.447" x2="248.324" y2="208.93"><stop offset="0" style="stop-color:#3f00fc"/><stop offset=".12" style="stop-color:#3d01f7"/><stop offset=".27" style="stop-color:#3804e7"/><stop offset=".436" style="stop-color:#2f08ce"/><stop offset=".614" style="stop-color:#230eaa"/><stop offset=".8" style="stop-color:#14167c"/><stop offset=".992" style="stop-color:#012045"/><stop offset="1" style="stop-color:#002043"/></linearGradient><path style="fill:url(#SVGID_24_)" d="M230.2 209.6v4.2l32.7-19.6v-3.6z"/></svg>