<svg xmlns="http://www.w3.org/2000/svg" viewBox="0 0 1920 1080" style="enable-background:new 0 0 1920 1080" xml:space="preserve"><path style="opacity:.4;fill:#dde2e8;enable-background:new" d="m710 432.1 7.6-8.1v8.1z"/><path style="opacity:.1;fill:#dde2e8;enable-background:new" d="m710 423.3 7.6-8.2v8.2z"/><linearGradient id="a" gradientUnits="userSpaceOnUse" x1="-916.122" y1="1141.853" x2="1222.375" y2="1141.853" gradientTransform="scale(1 -1) rotate(31.714 1801.422 704.33)"><stop offset="0" style="stop-color:#7ec3ff"/><stop offset="1" style="stop-color:#22005b"/></linearGradient><path d="M1049.2 100.2-428.2 649.3c-74.3 27.7-146.7-.4-161.7-62.5l-228-944.5c-15-62.2 33.1-135 107.4-162.5l1477.3-549.1c74.3-27.7 146.7.4 161.7 62.5l228.1 944.4c14.9 62.1-33.1 134.9-107.4 162.6z" style="opacity:.2;fill:url(#a);enable-background:new"/><linearGradient id="b" gradientUnits="userSpaceOnUse" x1="-671.245" y1="855.723" x2="840.414" y2="855.723" gradientTransform="scale(1 -1) rotate(-29.477 -2336.026 39.517)"><stop offset="0" style="stop-color:#7ec3ff"/><stop offset="1" style="stop-color:#22005b"/></linearGradient><path d="m-50.4-535.7 1123.8 783.8c33.5 23.4 41.7 69.5 18.2 103-83.4 118.9-267.7 374.5-342.5 418.4-98.1 57.7-509.5 11.2-898.8 84.2-281.7 52.8-522.1-44.4-633.4-102.1-37.1-19.2-50.8-65.5-30.2-101.9l656.4-1161.2c21.4-37.9 70.8-49.1 106.5-24.2z" style="opacity:.2;fill:url(#b);enable-background:new"/></svg>