<svg xmlns="http://www.w3.org/2000/svg" viewBox="0 0 1920 1080" style="enable-background:new 0 0 1920 1080" xml:space="preserve"><path style="opacity:.4;fill:#dde2e8;enable-background:new" d="m710 432.1 7.6-8.1v8.1z"/><path style="opacity:.1;fill:#dde2e8;enable-background:new" d="m710 423.3 7.6-8.2v8.2z"/><linearGradient id="a" gradientUnits="userSpaceOnUse" x1="-1113.171" y1="-35.592" x2="1203.985" y2="-35.592" gradientTransform="rotate(-31.714 -99.647 -164.33)"><stop offset="0" style="stop-color:#7ec3ff"/><stop offset="1" style="stop-color:#22005b"/></linearGradient><path d="M1040.5 207.3-553.1 806.2c-80.1 30.2-158.2-.4-174.4-68.2L-973.4-292.2c-16.2-67.8 35.7-147.2 115.8-177.2l1593.5-598.9c80.1-30.2 158.2.4 174.4 68.2L1156.3 30c16.2 67.7-35.6 147.1-115.8 177.3z" style="opacity:.15;fill:url(#a);enable-background:new"/><linearGradient id="b" gradientUnits="userSpaceOnUse" x1="-819.664" y1="211.675" x2="691.994" y2="211.675" gradientTransform="rotate(29.477 -283.287 500.483)"><stop offset="0" style="stop-color:#7ec3ff"/><stop offset="1" style="stop-color:#22005b"/></linearGradient><path d="m-173.4-619.7 508.2 519.5 615.6 264.3c33.5 23.4 41.7 69.5 18.2 103C885.2 386 700.9 641.6 626.1 685.5c-98.1 57.7-509.5 11.2-898.8 84.2-281.7 52.8-522.1-44.4-633.4-102.1-37.1-19.2-50.8-65.5-30.2-101.9l656.4-1161.2c21.4-37.9 70.8-49.1 106.5-24.2z" style="opacity:.2;fill:url(#b);enable-background:new"/></svg>