<svg version="1.1" id="Layer_1" xmlns="http://www.w3.org/2000/svg" x="0" y="0" viewBox="0 0 1400 980" style="enable-background:new 0 0 1400 980" xml:space="preserve"><style>.st1{fill:none;stroke:#0053fb;stroke-width:2;stroke-miterlimit:10}.st2{fill:#0053fb}.st3{fill:none}.st4{fill-rule:evenodd;clip-rule:evenodd;fill:#0053fb}.st5{fill:#fff}</style><g style="opacity:8.000000e-002"><path class="st1" d="M1155.6 66.9c19.7-13.4 43.5-21.2 69.2-21.2 68.1 0 123.3 55.2 123.3 123.3s-55.2 123.3-123.3 123.3-123.3-55.2-123.3-123.3c0-27 8.7-52 23.5-72.4"/><path class="st1" d="M1053.8 148.8c10-85.6 82.7-152.1 171-152.1 95.1 0 172.2 77.1 172.2 172.2s-77.1 172.2-172.2 172.2c-75.8 0-140.1-49-163.1-117"/><path class="st1" d="M1122.9 384.2C1042.4 346 986.7 264 986.7 169c0-131.5 106.6-238.1 238.1-238.1S1462.9 37.5 1462.9 169s-106.6 238-238.1 238h-1.6"/><circle class="st1" cx="1224.8" cy="169" r="304.3"/><path class="st1" d="M854.8 157.2c6.2-199 169.5-358.4 370-358.4 204.4 0 370.2 165.7 370.2 370.2s-165.7 370.2-370.2 370.2c-186.8 0-341.3-138.4-366.6-318.3"/><path class="st1" d="M1176.6 650.6C931.9 626.4 740.8 420 740.8 169c0-267.3 216.7-484 484-484s484 216.7 484 484c0 236.3-169.3 433-393.3 475.5"/><path class="st1" d="M673.1 424.8C637 347 616.8 260.4 616.8 169c0-335.8 272.2-608 608-608s608 272.2 608 608-272.2 608-608 608c-198.4 0-374.6-95-485.6-242.1"/><path class="st1" d="M813.1 781.9C616.1 649.3 486.6 424.3 486.6 169c0-407.7 330.5-738.3 738.3-738.3s738.3 330.5 738.3 738.3-330.5 738.3-738.3 738.3c-122.7 0-238.4-29.9-340.2-82.9"/><path class="st1" d="M516.1 679.1C412.6 535.6 351.7 359.4 351.7 169c0-482.2 390.9-873.1 873.1-873.1S2098-313.3 2098 169s-390.9 873.1-873.1 873.1c-247.5 0-471-103-629.9-268.4"/><path class="st2" d="M1225.3 91.3c43 0 77.8 34.8 77.8 77.8s-34.8 77.8-77.8 77.8-77.8-34.8-77.8-77.8 34.8-77.8 77.8-77.8zm0 1.7c-42.2 0-76.2 34.1-76.2 76.2 0 42.2 34 76.2 76.2 76.2 42 0 76.2-34 76.2-76.2 0-42.1-34.2-76.2-76.2-76.2z"/><path class="st3" d="M1141.1 64.1c-9.3 0-17 7.7-17 17s7.7 16.9 17 16.9 16.9-7.6 16.9-16.9c-.1-9.4-7.6-17-16.9-17z"/><path class="st4" d="M1132.3 73.5c1.5 0 2.6.5 2.6.9 0 .6-3.2 1.7-4.7 1.7-1.4 0-.5-1.1-.5-1.7 0-.4 1.2-.9 2.6-.9zM1146.4 68.5c1.5 0 2.7.5 2.7 1.1 0 .6-3.3 1.7-4.7 1.7-1.5 0-8.2-1.5-8.2-2.1 0-.7 8.8-.7 10.2-.7zM1151.2 79.1c1.5 0 2.7.5 2.7 1.1-6.7 7.3-6.6.2-8 .2-1.5 0-8.2 1.9-4.8-.7 0-.6 5.3-2.9 10.1-.6zM1144.4 74c1.5 0 1.4.6 1.4 1.2s-2 1.4-3.4 1.4c-1.5 0 .7-.7.7-1.3 0-.6-.2-1.3 1.3-1.3zM1146.8 87.1c1.4 0 6-1.8 6-1.2 0 .5-6.6 3.8-8.1 3.8-1.4 0 .7-.7.7-1.3-.9-.4-4.1-.5 1.4-1.3zM1141.2 89.8c1.4 0 .7.7.7 1.3 0 .6-1.4 1.3-2.8 1.3-5.2 0-1.5-2.1 2.1-2.6zM1134.4 81.8c1.5 0 4.8 2.1 4.8 2.7-3.2 2.8-5.9 3.1-7-.1.1 0-6.4-2.6 2.2-2.6z"/><path class="st2" d="M1141.1 62.5c10.2 0 18.4 8.3 18.4 18.5s-8.3 18.4-18.4 18.4c-10.3 0-18.5-8.3-18.5-18.4-.1-10.2 8.2-18.5 18.5-18.5zm0 1.6c-9.3 0-17 7.7-17 17s7.7 16.9 17 16.9 16.9-7.6 16.9-16.9c-.1-9.4-7.6-17-16.9-17z"/><path class="st3" d="M1059 152.1c-18.7 0-33.9 15.2-33.9 33.9 0 18.8 15.2 33.9 33.9 33.9 18.8 0 33.9-15.1 33.9-33.9 0-18.7-15.1-33.9-33.9-33.9z"/><path class="st2" d="M1059 150.6c19.6 0 35.4 15.8 35.4 35.4 0 19.6-15.8 35.4-35.4 35.4-19.6 0-35.4-15.8-35.4-35.4 0-19.6 15.9-35.4 35.4-35.4zm0 1.5c-18.7 0-33.9 15.2-33.9 33.9 0 18.8 15.2 33.9 33.9 33.9 18.8 0 33.9-15.1 33.9-33.9 0-18.7-15.1-33.9-33.9-33.9z"/><path class="st2" d="M1052 158h3v4h-3zM1066 158h3v4h-3zM1061 196h3v4h-3zM1045 196h2v4h-2zM1053 204h3v4h-3zM1043 204h2v4h-2zM1078 204h3v4h-3z"/><path class="st3" d="M860 160.7c-15 0-27.3 12.3-27.3 27.3s12.3 27.3 27.3 27.3 27.3-12.3 27.3-27.3-12.3-27.3-27.3-27.3z"/><path class="st2" d="M860 159.2c15.9 0 28.8 12.9 28.8 28.8s-12.9 28.8-28.8 28.8-28.8-12.9-28.8-28.8 12.9-28.8 28.8-28.8zm0 1.5c-15 0-27.3 12.3-27.3 27.3s12.3 27.3 27.3 27.3 27.3-12.3 27.3-27.3-12.3-27.3-27.3-27.3z"/><path class="st2" d="m838.3 182.9 1.5-1.7.5-.4.4.4 1.5 1.7.5.4-.5.4-1.5 1.7-.4.4-.5-.4-1.5-1.7-.4-.4.4-.4zm2-.4-.8.8.8.8.7-.8-.7-.8zM847.6 176l1.7-1.5.4-.4.4.4 1.7 1.5.4.5-.4.4-1.7 1.5-.4.5-.4-.5-1.7-1.5-.4-.4.4-.5zm2-.4-.8.8.8.7.8-.7-.8-.8zM848.5 167.7l1.5-1.7.5-.4.4.4 1.5 1.7.5.4-.5.4-1.5 1.7-.4.4-.5-.4-1.5-1.7-.4-.4.4-.4zm2.1-.5-.8.8.8.8.8-.8-.8-.8zM840.9 194.7l1.5-1.5.5-.4.4.4 1.5 1.5.5.5-.5.4-1.5 1.5-.4.5-.5-.5-1.5-1.5-.4-.4.4-.5zm2-.3-.8.8.8.8.7-.8-.7-.8zM862.8 179.9l1.5-1.7.5-.4.4.5 1.5 1.5.5.4-.5.4-1.5 1.7-.4.4-.5-.4-1.5-1.7-.4-.4.4-.3zm2-.5-.8.8.8.8.7-.8-.7-.8zM860.7 164.3l1.5-1.7.5-.4.4.4 1.5 1.7.5.4-.5.4-1.5 1.7-.4.4-.5-.4-1.5-1.7-.4-.4.4-.4zm2-.5-.8.8.8.8.7-.8-.7-.8zM862.7 192.1l1.7-1.7.4-.4.4.4 1.5 1.7.5.4-.5.4-1.5 1.7-.4.4-.4-.4-1.7-1.7-.4-.4.4-.4zm2-.4-.8.8.8.8.8-.8-.8-.8zM877.4 176.7l1.7-1.7.4-.4.4.4 1.5 1.7.5.4-.5.4-1.5 1.7-.4.4-.5-.6-1.7-1.7-.3-.3.4-.3zm2-.5-.8.8.8.8.8-.8-.8-.8zM851.5 201.3l1.7-1.7.4-.4.4.4 1.7 1.7.4.4-.4.4-1.7 1.7-.4.4-.4-.4-1.7-1.7-.4-.4.4-.4zm2-.4-.8.8.8.8.8-.8-.8-.8zM877.8 199.5l1.7-1.7.4-.4.4.4 1.7 1.7.4.4-.4.4-1.7 1.7-.4.4-.4-.4-1.7-1.7-.4-.4.4-.4zm2-.5-.8.8.8.8.8-.8-.8-.8zM867.4 209.8l1.7-1.5.4-.5.4.5 1.5 1.5.5.4-.5.4-1.5 1.7-.4.4-.4-.4-1.7-1.7-.4-.4.4-.4zm2-.4-.8.8.8.8.8-.8-.8-.8zM881.6 186.9l1.5-1.5.5-.4.4.4 1.5 1.5.5.4-.5.5-1.5 1.5-.4.4-.5-.4-1.5-1.5-.4-.5.4-.4zm2-.3-.8.7.8.8.7-.8-.7-.7z"/><path class="st3" d="M1173 347.5c-26.2 0-47.5 21.3-47.5 47.5s21.3 47.5 47.5 47.5 47.5-21.3 47.5-47.5-21.3-47.5-47.5-47.5z"/><path class="st2" d="M1173 346c27 0 49 22 49 49s-22 49-49 49-49-22-49-49 22-49 49-49zm0 1.5c-26.2 0-47.5 21.3-47.5 47.5s21.3 47.5 47.5 47.5 47.5-21.3 47.5-47.5-21.3-47.5-47.5-47.5z"/><path class="st2" d="m1206.2 365 .2 3.7-.7 1.3h.9l.9-2.5c3.8 4.6 6 8.1 8.3 13.6l-3.5-.1c-.7-.8-1.4-1.7-2.1-2.4l-.8 1.4c-2.2-1.4-2.5-1.1-2.6-3.8l-1.9-2.1h-.4l1.5 3.3-.9 1.2-6.3-2.2-1.8 2.8c-4.3.4-5 .8-7.2-2.3l.7-2 3.7-1.3.5-2.2 2.6-.5 1.7-2.4c.9-.1 1.7-.4 2.7-.4l-.1-.1-1.3.1-.5-1.3-1.2-.1-.4-2.1 4.3-3.2c1.3 1.1 2.5 2.3 3.7 3.6zm-3.8-1.6-2.4 1.7v.2l.9.1.5.9h1.5l.6 3.7h-2.2l-1.4.1-1.7 2.2-2.1.3-.4 1.9c-2.1 1.3-1.5 1.2-3.9 1.6l-.1.5c1.2 1.8 2.1 1.2 4.3 1.2l.5-.9c1.7-1.8 1.4-2.5 4-1.7l3.3 1.3-1.8-3.3 4.1.2 2.9 2.2v1.8l.1.2.9-2.3c1.1 1.1 2 2.7 3 2.7h.5c-1.5-4-3.3-6.2-5.8-9.3l-.2.7h-3.1l-.7-2.3 1.2-.5v-.8c.1-.8-1.6-1.7-2.5-2.4zm16 31.8c0 11.1-4 21.6-11.3 29.9l-1.4-.5-1.5-4.4-.2-3.8c-2.5-2.5-1.4-3.4.1-6.4l-3.1-5.8.4-3.1c-2.7-.2-4.1-1.9-5.6-.6l-.5.2c-2 0-3.9.4-5.8.4l-4.7-5.3-.1-.5c0-3-.4-4.7-1.2-7.6l4.6-3.8v-2.6c4-1.8 4.5-2.4 7.8-.7l9.2-2.6v3.3c0 .2 0 .5 4 1.2v-1.2l2.7-.1 5.4 1.5c1.1 4.2 1.2 8.4 1.2 12.5zm-3-10.7-3.3-.1-3.1-1.4v3h-1.9c-2-4-2.1-2.8-7.1-3.3v-2l-3.5 1.7-1.2-.1c-2.5-1.1-3.2-1.1-3.2.2v2.5l-5.5 3.7c.5 2.1-.1 4.4-.1 6.5 5.1 5.8 2.6 4.3 8.6 4.3l.6-.7c2-.8 4.8.9 7.3 1.2l-.4 4.4 3.3 5.9c-1.5 2.7-3 3.2-.4 5.8l1.5 5.8.1.8c8.7-10.9 11.6-25 8.3-38.2zm-85.3-3.3c3.1-9.1 8.7-16.9 16.4-22.6l1.9-.6c3.3-2.5 2-2 6-2l1.2 1.7 1.3.1 1.4-1.4c1.7.8 1.3.8 3.1.2l1.7 2.1.4.9.6.1 1.5-2.8c1.1-.1 2.8-.5 3.8-.4l4.6 2.1 1.7 2.4-1.1 2.1c-3.4 0-2.2.4-4.7-1.8l-.7 4.3c.9.2 4 2.2 5.1 2.8l-.1 2.6-2 .7-1.3 1.1-9.2 4.1-2.5 3.7v.4l-3.3 2-1.3 1.2-.3 3.8-4.1-1.7V385l-4 .1-2.1 1.1-1.3 3.4.5 1.1 4.8-2 1-.6.6 2.1-.6 1.7 2.1.4.2 2.6 3.7.8 1.3-1.5 3.3.7 1.2 1.3 1.7-.1.1-1c3.1 1.5 2.4 0 4.3 4h2.9l1.3 2 .1 1.5 6.5.5h.5l1.3 2.5 2.1 1c-.6 3.2-.5 2.3-2.5 5v5.6c-2 2-4 2-4 1.8v3.4l-.5.4-3.4 3.9-1.3 2.9-3.1 2.4h.2-1.2 1.2v1.4c0 1.3-.1 1.5-.2 2.6l2.2 1.8-.5 1.9-3.7-.2-2.8-2.6-2.2-4.1-1.2-5.2-.2-.2 1.1-3.3-.3-.2v-8c0-.6-2.4-1.7-2.5-1.7-.5 0-1.9-.4-2.4-.5l-.4-1.8-3.7-4.5.4-1.9.1-2.8 2.2-1.7-.1-1.8-3.4-.5-4.3-3.4c-1.5-.2-1.4-.2-2.8-.9l-4.4-1.3-4.3-3.5-2.1-3.4-.1-3.5-1.3-.7-.1-.8zm7.8-11.6c-2.6 3.4-4.1 7.2-5.5 11.3l1.6.5v4l3.7 4 1.5 2.5 3.6.9 2.5.8 2 .6 2.8 3.1 3.9.4.5 3.9-2.5 1.8-.1 2.2-.2 1.3 3.3 4.4.2.9c.2.1.3.2.4.2.5 0 3.3 1.9 3.3 2.4v7.7l1.3.2-.6 4 1.7 2.4 1.7 6.7 3.9 2.1-1.6-.5c0-.7.5-1.5.5-1.5h-.8l-1.4-2.6 1.3-1.8-1.1-.6.2-2.1 4.6-1.6.9-1.6 2.6-3.3c-.7-3.2-.9-2.4.6-5.1l2.8.1 1.3-1.1.7-5.5 2-3.1c-1.9-.6-1.5-.5-2.5-2.2l-3.9-.1-3.7-1.4-.2-3.1-.7-1.8h-2.8l-2.3-2.3-.6.4v.4l-3.4.2-.9-1.5-2-.4-1.3 1.5-5.8-1.3-.1-2.5-3.2-.6 1.3-2.4c-3.1 2.1-2 1.9-5.5 1.4-1.2-2.5-1.3-1.8-.6-4.4l1.3-3.2 3.2-2.5h8.9v3.3l-.9.1-.7-1.9 1.4-1.7 2.4-1.7.3-1.4 3-3.1 3.1-1.8 7.5-3.4 1.4-.5.1-.6-1.4-2-3-2.5h-.8l.2-1.8.9-5.7c1.3 1.2 2.5 3.5 3.8 3.5h1.2l.2-.1-5-2.9-2.2.3-1.7 3.2-2.8-.4-.4-1.5-.9-1.2c-.8.4-1.4.4-2.2 0l-1.1.9-2.7-.1-1.2-1.7-4.4 1.9-1.9.6c-3.2 3.2-6.4 6.3-9 10z"/><path class="st3" d="M696.1 424.9c-33.8 0-61.1 27.4-61.1 61 0 33.7 27.3 60.9 61.1 60.9 33.7 0 60.9-27.3 60.9-60.9 0-33.6-27.3-61-60.9-61z"/><path class="st2" d="M696.1 423.4c34.5 0 62.5 28 62.5 62.6 0 34.5-28 62.6-62.5 62.6-34.6 0-62.6-28.1-62.6-62.6 0-34.6 28-62.6 62.6-62.6zm0 1.5c-33.8 0-61.1 27.4-61.1 61 0 33.7 27.3 60.9 61.1 60.9 33.7 0 60.9-27.3 60.9-60.9 0-33.6-27.3-61-60.9-61z"/><path class="st2" d="M704.8 520.1c4.3 0 14.4-4.5 24.6-8.9 6.5-2.8 20.3-9.6 27.2-9.1-3.9 13.7-11.3 25.2-22.8 33.8-10.5 7.9-23.6 12.6-37.7 12.6-11.9 0-23-3.3-32.5-9.1-10.4-6.3-18-14.8-23.5-25.5 11.7-4.3 18-2.7 29.5.6 8.4 2.6 18.8 5.6 35.2 5.6zm25.3-7.4c-10.4 4.5-20.7 9-25.3 9-16.7 0-27.2-3.1-35.7-5.6-9.3-2.7-16.4-4.8-26.8-1.3 5.1 9.7 12.8 17.7 22.1 23.4 9.2 5.6 20.1 8.7 31.7 8.7 13.7 0 26.5-4.5 36.7-12.3 10.2-7.7 17.8-18.4 21.6-30.9-4.6.4-14.5 4.6-24.3 9zM614.7 509.9c-22 3.8-35.9 4.8-36.5 2.2-.4-1.8 5-4.6 14.9-8.1 13.7-5 28.1-9.1 42.2-13 .1 1.5.4 3.1.6 4.6-5.3 1.7-10.9 3.3-16.1 5.5-3 1.2-4.6 2-4.5 2.2.2.9 9.3-.1 23.9-2.6 36.6-6.3 79.6-16.4 115.2-27.3 14.2-4.4 22.7-7.6 22.4-8.5 0-.2-1.9-.2-5.3.1-5.7.4-11.6 1.3-17.2 2.2-.5-1.4-1.1-2.8-1.5-4.3 14.4-2.8 29.3-5.7 44.1-7.6 10.5-1.3 16.7-1.2 17.1.7.6 2.5-12.3 7.8-33.5 14.3-47.8 14.9-116.8 31.2-165.8 39.6zm165.1-40.8c20.4-6.3 32.8-11 32.5-12.5-.2-.9-5.8-.6-15.5.6-10.2 1.2-24.8 3.7-42 7.1l.5 1.3c6.7-1.1 12.3-1.8 16.2-2.1 4.1-.2 6.6.1 6.8 1.2.5 1.9-8.5 5.7-23.5 10.3-35.7 11-78.7 21.1-115.4 27.4-15.5 2.6-25.2 3.3-25.6 1.4-.2-1.2 1.7-2.5 5.4-4.1 3.4-1.4 8.5-3.2 14.9-5.2-.1-.5-.1-.9-.2-1.4-16.8 4.7-30.7 9-40.3 12.4-9 3.2-13.9 5.5-13.8 6.4.4 1.5 13.6.1 34.6-3.4 50.4-8.8 116.5-24.5 165.4-39.4zM689.8 440.3c13 1.4 28.5-2.6 40.9-6.4 7.2 4.8 12.4 10.2 17.4 17.2-30 7-64.8-1.4-106.4 6.5l-1.5.2c2.1-3.9 4.3-7.4 7.1-11 2.4-3 5.1-5.8 8-8.3l.4-.2c11.4-1.2 22.9-.7 34.1 2zm19.8.1c-7 1.2-13.8.6-20 .6h-.1c-11.1 0-22.3-2.7-33.5-1.5-5.2 4.5-9.6 10.1-13 16 40.3-7.7 74.1 0 102.4-5.6-4.1-5.7-9.2-10.7-15-14.7-6.7 2.2-13.8 4-20.8 5.2z"/><path class="st3" d="M1244.9 592.6c-36 0-65.3 29.3-65.3 65.3 0 36.1 29.3 65.3 65.3 65.3 36.1 0 65.3-29.2 65.3-65.3.1-36-29.1-65.3-65.3-65.3z"/><path class="st4" d="M1199.2 670.5c1.5 0 2.8 1.3 2.8 2.8 0 1.7-1.3 3-2.8 3-1.7 0-2.8-1.3-2.8-3 0-1.5 1.2-2.8 2.8-2.8zM1266.7 594.2c1.5 0 2.8 1.3 2.8 2.8 0 1.7-1.3 3-2.8 3-1.7 0-2.8-1.3-2.8-3-.1-1.5 1.1-2.8 2.8-2.8z"/><path class="st2" d="M1244.9 591.1c37 0 67 30 67 66.8 0 37-30 67-67 67-36.8 0-66.8-30-66.8-67 0-36.8 30-66.8 66.8-66.8zm0 1.5c-36 0-65.3 29.3-65.3 65.3 0 36.1 29.3 65.3 65.3 65.3 36.1 0 65.3-29.2 65.3-65.3.1-36-29.1-65.3-65.3-65.3z"/><path class="st2" d="M1206 603.4c9 .6 18.9 2 27.4 3.3 17.6 2.7 34.1 5.2 55 .9l.4 1.5c-21.3 4.3-38 1.8-55.7-.9-8.5-1.3-18.1-2.6-27.1-3.3v-1.5zM1185.3 628.5c20.6-4 40.5-1.1 60.7 1.9 19.6 2.9 39.6 6 60.2 2.4l.4 1.7c-21 3.5-41 .6-60.8-2.4-20.1-3.1-39.8-6-60.1-2l-.4-1.6zM1180.8 672.9c17.5 1.2 33.8-2.6 50.1-6.4 24.9-5.9 50-11.7 79.8.1l-.6 1.4c-29.4-11.6-54.2-5.8-78.9 0-16.4 3.8-32.8 7.7-50.6 6.4l.2-1.5zM1193 698.1c22.4-4.4 38.6-.1 55.8 4 11.7 3 24.2 5.8 36.2 6.1v1.5c-12-.4-24.8-3.2-36.6-6.1-17.1-4.1-33.5-8.3-55.7-3.9l.3-1.6zM1207.5 638.5c6 0 11.3 1.1 15.2 2.8 4.1 1.9 6.7 4.5 6.7 7.4 0 3-2.6 5.5-6.7 7.4-3.9 1.8-9.2 2.8-15.2 2.8-5.9 0-11.3-1.1-15.2-2.8-4.1-1.9-6.6-4.5-6.6-7.4 0-3 2.5-5.5 6.6-7.4 3.9-1.8 9.3-2.8 15.2-2.8zm14.6 4.2c-3.8-1.7-8.9-2.7-14.6-2.7-5.7 0-10.9 1.1-14.5 2.7-3.5 1.7-5.8 3.8-5.8 6s2.2 4.4 5.8 6c3.7 1.7 8.9 2.7 14.5 2.7 5.8 0 10.9-1.1 14.6-2.7 3.5-1.7 5.7-3.8 5.7-6s-2.1-4.3-5.7-6zM1272.5 673.4c4.8 0 9.2 1.1 12.4 2.8 3.3 1.9 5.4 4.5 5.4 7.4 0 2.8-2.1 5.4-5.4 7.3-3.2 1.8-7.6 2.8-12.4 2.8s-9.2-1.1-12.4-2.8c-3.3-1.9-5.3-4.5-5.3-7.3 0-3 2-5.5 5.3-7.4 3.1-1.7 7.5-2.8 12.4-2.8zm11.5 4.3c-3-1.7-7-2.7-11.6-2.7s-8.6 1.1-11.6 2.7c-2.8 1.5-4.6 3.7-4.6 6 0 2.2 1.8 4.4 4.6 5.9 3 1.7 7 2.7 11.6 2.7s8.6-1.1 11.6-2.7c2.8-1.5 4.6-3.7 4.6-5.9 0-2.4-1.7-4.5-4.6-6zM1260.4 621.3c4 .7 7.8 1.2 11.5 1.5 3.5.2 7.1.5 10.5.6l-.1 1.5c-3.4-.1-6.8-.2-10.5-.6-3.7-.4-7.6-.8-11.6-1.5l.2-1.5zM1234 600.4c3.9-.5 7.7-.7 11.3-.7s7.2.2 10.6.7l-.1 1.2c-3.4-.6-7-.8-10.5-.8-3.7 0-7.3.2-11.1.8l-.2-1.2zM1223 705.5c4 .2 7.1.6 10.6 1.2 3.7.7 6.8 1.5 10.1 2.6l-.4 1.1c-3.3-1.1-6.2-1.9-9.8-2.5-3.5-.7-6.6-1.1-10.6-1.2v-1.2z"/><path class="st3" d="M843 772.4c-20.7 0-37.6 16.9-37.6 37.6 0 20.8 16.9 37.6 37.6 37.6 20.8 0 37.6-16.8 37.6-37.6 0-20.7-16.8-37.6-37.6-37.6z"/><path class="st2" d="M843 770.9c21.6 0 39.1 17.5 39.1 39.1s-17.5 39.1-39.1 39.1-39.1-17.5-39.1-39.1 17.5-39.1 39.1-39.1zm0 1.5c-20.7 0-37.6 16.9-37.6 37.6 0 20.8 16.9 37.6 37.6 37.6 20.8 0 37.6-16.8 37.6-37.6 0-20.7-16.8-37.6-37.6-37.6z"/><path class="st2" d="M830.8 786.4c2.4-.1 20.3-1.2 23.3 1.5 1.3 1.1 1.4 2.7-.7 5.1-2.2 2.5-9.1.2-11.5-.9-5-2.5-8.5-3.1-13.3-.1-5.2 3.1-31.7-4.9 2.2-5.6zm0 1.5c-28.8.6-5.9 4.4-3.1 2.7 5.3-3.3 9.4-2.7 14.8 0 1.8.8 8.2 2.9 9.7 1.3 1.3-1.4 1.4-2.4.8-2.8-2.3-2.1-21-1.2-22.2-1.2zM854.9 806.1c-.2 1.8 5.1 10.4 5.7 1.1.1-3.3 4.8-4.6 7.6-3.5 1.7.7 3.3 2.1 4.6 4.7.8 1.8 4.7 3.9 4.6 6.6-.1 1.7-2 3-8 2.7-2.2-.1-3.3-.8-4-1.5-.8 2.4-1.4 4.3-4.1 5.3-3.3 1.2-7.4-.2-10.3-2.2-4.5-3.1-3.7-6.4-6.9-8.6-1.7-1.2-2.8-3.4 1.3-9.3 1-1.7 10.6-3.2 9.5 4.7zm-1.5-.2c.8-6.1-6.6-3.9-6.7-3.8-3.4 4.8-2.7 6.5-1.8 7.2 4.5 3.1 1.3 4.7 7 8.6 2.2 1.7 6 3.1 8.9 2 2.1-.8 2.6-2.7 3.2-4.6.5-1.1.6-1.5 1.2-1.5.6-.1.7.2.9.6.2.5.9 1.7 3.3 1.8 4.8.1 6.4-.5 6.5-1.3 0-1.7-3.7-4.1-4.5-5.8-1.2-2.2-2.5-3.4-3.8-3.9-1.8-.8-5.3 0-5.4 2-.8 11.8-9.4 2.8-8.8-1.3zM824.1 812.8c1.3.5 2.6 1.1 3.7 1.9 1.1.8 1.8 1.9 1.5 3.2-.1 1.2-.9 1.8-.9 3.1.1.9.8 1.9 1.8 2.7 1.2.9 2.6 1.7 4.3 2.2 2.6.8 5.4 1.2 7.2.7 2.8-.9 10.5-.9 15 0 1.3.4 2.4.7 3.1 1.2.9.7 1.2 1.5.6 2.6-.6.9-2.1 2-5.1 3.2-2.1.9-2.8.6-3.7.1-4-1.9-7.6 7.2-17.8 2.8-4-1.7-21-11.9-17.2-19.4 2-3.9-4-8.2 7.5-4.3zm-.6 1.6c-8.1-2.8-3-1.7-5.7 3.7-3.3 6.1 13.5 15.8 16.4 17.1 9.8 4.1 12.5-5.3 17.8-2.8.6.2 1.1.5 2.5-.1 2.6-1.1 3.9-1.9 4.3-2.6.1-.1.1-.4-.1-.5-.5-.4-1.3-.7-2.5-.9-4.3-.9-11.6-.8-14.3-.1-1.9.6-5.2.2-8.2-.7-1.7-.6-3.4-1.4-4.6-2.4-1.4-1.2-2.2-2.5-2.4-3.9-.1-1.8.8-2.2.9-3.3.1-.7-.4-1.3-.9-1.9-.7-.7-1.9-1.3-3.2-1.6z"/><path class="st3" d="M535.9 678.9c-33.7 0-61.1 27.4-61.1 61.1 0 33.8 27.4 61 61.1 61 33.8 0 61.2-27.3 61.2-61s-27.4-61.1-61.2-61.1z"/><path class="st4" d="M577.4 695.2c1.5 0 2.8 1.2 2.8 2.8 0 1.5-1.3 2.8-2.8 2.8-1.5 0-2.8-1.3-2.8-2.8 0-1.6 1.3-2.8 2.8-2.8z"/><path class="st2" d="M535.9 677.4c34.6 0 62.7 28.1 62.7 62.6 0 34.6-28.1 62.7-62.7 62.7-34.5 0-62.6-28.1-62.6-62.7 0-34.5 28.2-62.6 62.6-62.6zm0 1.5c-33.7 0-61.1 27.4-61.1 61.1 0 33.8 27.4 61 61.1 61 33.8 0 61.2-27.3 61.2-61s-27.4-61.1-61.2-61.1z"/><path class="st2" d="M480 731h66v4h-66zM509 785h46v4h-46z"/></g></svg>