<?xml version="1.0" encoding="utf-8"?>
<!-- Generator: Adobe Illustrator 19.0.0, SVG Export Plug-In . SVG Version: 6.00 Build 0)  -->
<svg version="1.1" id="Calque_1" xmlns="http://www.w3.org/2000/svg" xmlns:xlink="http://www.w3.org/1999/xlink" x="0px" y="0px"
	 viewBox="-50 55 798 454" style="enable-background:new -50 55 798 454;" xml:space="preserve">
<style type="text/css">
	.st0{opacity:0.3;}
	.st1{fill:#FFFFFF;}
</style>
<g class="st0">
	<g>
		<path class="st1" d="M176.6,296.4v14.3c0,8.7-1.8,15.4-5.5,20.1c-3.6,4.7-9,7-16.1,7s-12.5-2.3-16.1-7s-5.5-11.4-5.5-20.1v-56
			c0-8.7,1.8-15.4,5.5-20.1c3.6-4.7,9-7,16.1-7s12.5,2.3,16.1,7c3.6,4.7,5.5,11.4,5.5,20.1v10.5h-13.7v-11.5c0-3.9-0.7-6.6-2-8.2
			c-1.4-1.6-3.2-2.4-5.5-2.4s-4.1,0.8-5.5,2.4s-2,4.3-2,8.2v58.2c0,3.9,0.7,6.6,2,8.2c1.4,1.5,3.2,2.3,5.5,2.3s4.1-0.8,5.5-2.3
			s2-4.3,2-8.2v-15.4h13.7V296.4z"/>
		<path class="st1" d="M215.7,336.6c-0.2-0.7-0.4-1.4-0.5-2c-0.2-0.6-0.3-1.4-0.5-2.3c-0.1-0.9-0.2-2.1-0.3-3.5
			c0-1.4-0.1-3.2-0.1-5.4v-16.9c0-5-0.7-8.6-2.2-10.6c-1.5-2.1-3.9-3.1-7.2-3.1h-5v43.9h-14.5V228.9h21.9c7.5,0,13,2.1,16.4,6.2
			s5.1,10.3,5.1,18.6v8.5c0,11.1-3.2,18.4-9.5,21.9c3.7,1.7,6.2,4.6,7.6,8.5c1.4,4,2,8.7,2,14.4v16.6c0,2.7,0.1,5,0.3,7
			s0.6,4,1.3,6.1h-14.8V336.6z M199.9,244.3v33.1h5.7c2.7,0,4.8-0.8,6.4-2.5c1.5-1.6,2.3-4.6,2.3-8.9v-10.6c0-3.9-0.6-6.7-1.8-8.5
			c-1.2-1.7-3.1-2.6-5.6-2.6L199.9,244.3L199.9,244.3z"/>
		<path class="st1" d="M250.6,300.9l-18.3-72h15.1l11.1,49.1l11.1-49.1h13.8l-18.3,72v35.7h-14.5V300.9z"/>
		<path class="st1" d="M310.5,228.9c7.3,0,12.7,2.3,16.3,6.8c3.6,4.5,5.3,11.1,5.3,19.9v14c0,8.7-1.8,15.3-5.3,19.9
			c-3.6,4.5-9,6.8-16.3,6.8h-6.8v40.5h-14.6V228.9H310.5z M303.6,244.3v36.5h6.8c2.3,0,4-0.7,5.3-2.2c1.2-1.4,1.8-4.1,1.8-8v-16.2
			c0-3.9-0.6-6.6-1.8-8c-1.2-1.4-3-2.2-5.3-2.2h-6.8V244.3z"/>
		<path class="st1" d="M335.2,228.9H380v15.4h-15.1v92.3h-14.5v-92.3h-15.1L335.2,228.9L335.2,228.9z"/>
		<path class="st1" d="M385.1,254.8c0-8.7,1.9-15.4,5.7-20.1c3.8-4.7,9.2-7,16.3-7c7.1,0,12.6,2.3,16.3,7c3.8,4.7,5.7,11.4,5.7,20.1
			v56c0,8.7-1.9,15.4-5.7,20.1c-3.8,4.7-9.2,7-16.3,7c-7.1,0-12.6-2.3-16.3-7c-3.8-4.7-5.7-11.4-5.7-20.1V254.8z M399.6,311.8
			c0,3.9,0.7,6.6,2,8.2c1.4,1.6,3.2,2.4,5.5,2.4s4.1-0.8,5.5-2.4s2-4.3,2-8.2v-58.2c0-3.9-0.7-6.6-2-8.2c-1.4-1.6-3.2-2.4-5.5-2.4
			s-4.1,0.8-5.5,2.4c-1.4,1.6-2,4.3-2,8.2V311.8z"/>
		<path class="st1" d="M487,307.3v-38.4l-14.7,23h-1.7l-14.4-23.1v38.5h-8.5v-52.9h9.8l14.2,22.8l14.2-22.8h9.8v52.9H487z"/>
		<path class="st1" d="M539.5,307.2l-3.8-10H512l-3.9,10h-9.2l20.3-52.9h9.3l20.3,52.9H539.5z M532.3,287.9l-8.4-22.5l-8.4,22.5
			H532.3z"/>
		<path class="st1" d="M592.8,306.5v0.7h-10.2l-13.2-17.7h-8.2v17.7h-8.5v-53c2.4,0,6,0,10.8,0s8.4,0,10.7,0c5.1,0.1,9.1,1.8,12,5.2
			s4.3,7.5,4.3,12.4c0,4-0.9,7.6-2.7,10.6s-4.7,5.1-8.7,6L592.8,306.5z M574.2,263.6h-13v16.9h13c2.5,0,4.5-0.8,5.8-2.5s2-3.7,2-6
			s-0.7-4.3-2-6C578.6,264.4,576.7,263.6,574.2,263.6z"/>
		<path class="st1" d="M632.6,254.3v0.3l-20.1,25.3l21.8,26.7v0.6h-10.5l-18.9-23.4v23.4h-8.5v-52.9h8.5v22.4l17.2-22.4L632.6,254.3
			L632.6,254.3z"/>
		<path class="st1" d="M672.4,297.3v9.8h-33.9v-52.9h33.9v9.7H647v12.2h24.5v9.3H647v11.9L672.4,297.3L672.4,297.3z"/>
		<path class="st1" d="M693.3,307.2v-43.8h-14.4v-9.1h37.2v9.1h-14.4v43.8H693.3z"/>
	</g>
	<g>
		<g>
			<path class="st1" d="M92.4,277.5c0.9,0,1.7-0.5,2.1-1.3l0,0l9-20.2c0.1-0.3,0.2-0.6,0.2-0.9v-38.3c0-1.2-1-2.2-2.2-2.3
				c0,0,0,0-0.1,0H60.8c-0.9,0-1.6,0.5-2,1.2l-9,18l0,0c-0.2,0.3-0.2,0.7-0.2,1v18H36.1v-36.1c0-1.2-1-2.2-2.2-2.3c0,0,0,0-0.1,0
				H-6.8c-0.9,0-1.6,0.5-2,1.2l-9,18l0,0c-0.2,0.3-0.3,0.7-0.3,1v40.6c0,1.2,1,2.3,2.3,2.3h18v9h-9c-0.9,0-1.6,0.5-2,1.2l-9,18l0,0
				c-0.2,0.3-0.3,0.7-0.3,1v40.6c0,1.2,1,2.3,2.3,2.3h40.6c0.9,0,1.7-0.5,2.1-1.3l0,0l8.4-18.9h14.3v18c0,1.2,1,2.3,2.3,2.3h40.6
				c0.9,0,1.7-0.5,2.1-1.3l0,0l9-20.2c0.1-0.3,0.2-0.6,0.2-0.9V289c0-1.2-1-2.2-2.2-2.3c0,0,0,0-0.1,0h-27v-9h17.9V277.5z
				 M99.1,254.5l-4.5,10.1v-29.4l4.5-9V254.5z M62.2,218.9h35.5l-6.8,13.5H55.5L62.2,218.9z M27,252.8v-17.5l4.5-9v26.5H27z
				 M30.3,257.3l-3.3,7.4v-7.4H30.3L30.3,257.3z M-5.4,218.9h35.5l-6.8,13.5h-35.5L-5.4,218.9z M-13.5,273v-36.1h36.1v15.8H2.3v4.5
				h20.3V273H-13.5z M-5.4,291h7.6v13.5h-14.4L-5.4,291z M22.5,345.1h-36.1V309H2.3v20.3h4.5V309h15.8L22.5,345.1L22.5,345.1z
				 M23.4,304.5H6.8V291h23.4L23.4,304.5z M27,336.7v-7.4h3.3L27,336.7z M31.5,324.8H27v-17.5l4.5-9V324.8z M49.8,305.7L49.8,305.7
				c-0.1,0.3-0.2,0.7-0.2,1v18H36.1v-36.1c0-1.2-1-2.2-2.2-2.3c0,0,0,0-0.1,0h-27v-9h18c0.9,0,1.7-0.5,2.1-1.3l0,0l8.4-18.9h14.3v18
				c0,1.2,1,2.3,2.3,2.3h18v9h-9c-0.9,0-1.6,0.5-2,1.2L49.8,305.7z M69.9,291v13.5H55.5l6.8-13.5H69.9z M90.1,345.1h-36v-15.8h20.3
				v-4.5H54.1v-15.8h36V345.1z M99.1,326.6l-4.5,10.1v-29.4l4.5-9V326.6z M97.8,291L91,304.5H74.4V291H97.8z M69.9,252.8V273H54.1
				v-36.1h36V273H74.4v-20.3H69.9z"/>
		</g>
	</g>
</g>
</svg>
