<?xml version="1.0" encoding="utf-8"?>
<!-- Generator: Adobe Illustrator 19.0.0, SVG Export Plug-In . SVG Version: 6.00 Build 0)  -->
<svg version="1.1" id="Capa_1" xmlns="http://www.w3.org/2000/svg" xmlns:xlink="http://www.w3.org/1999/xlink" x="0px" y="0px"
	 viewBox="-44 -146 612 792" style="enable-background:new -44 -146 612 792;" xml:space="preserve">
<style type="text/css">
	.st0{fill:url(#SVGID_1_);stroke:url(#SVGID_2_);stroke-miterlimit:10;}
	.st1{fill:url(#SVGID_3_);stroke:url(#SVGID_4_);stroke-miterlimit:10;}
	.st2{fill:url(#SVGID_5_);stroke:url(#SVGID_6_);stroke-miterlimit:10;}
	.st3{fill:url(#SVGID_7_);stroke:url(#SVGID_8_);stroke-miterlimit:10;}
	.st4{fill:url(#SVGID_9_);}
	.st5{fill:url(#SVGID_10_);}
	.st6{fill:url(#SVGID_11_);}
	.st7{fill:url(#SVGID_12_);}
	.st8{fill:none;stroke:url(#SVGID_13_);stroke-width:5;stroke-miterlimit:10;}
	.st9{fill:none;stroke:url(#SVGID_14_);stroke-width:5;stroke-miterlimit:10;}
	.st10{fill:none;stroke:#FFFFFF;stroke-width:5;stroke-miterlimit:10;}
	.st11{fill:none;stroke:url(#SVGID_15_);stroke-width:5;stroke-miterlimit:10;}
	.st12{fill:none;stroke:url(#SVGID_16_);stroke-width:6;stroke-miterlimit:10;}
	.st13{fill:none;stroke:url(#SVGID_17_);stroke-width:6;stroke-miterlimit:10;}
	.st14{fill:none;stroke:url(#SVGID_18_);stroke-width:6;stroke-miterlimit:10;}
</style>
<g>
	
		<linearGradient id="SVGID_1_" gradientUnits="userSpaceOnUse" x1="111.1963" y1="-15895.748" x2="119.7979" y2="-15895.748" gradientTransform="matrix(1 0 0 -1 0 -15884)">
		<stop  offset="9.817236e-008" style="stop-color:#3F00FC"/>
		<stop  offset="1" style="stop-color:#7F00FF"/>
	</linearGradient>
	
		<linearGradient id="SVGID_2_" gradientUnits="userSpaceOnUse" x1="110.6963" y1="-15895.748" x2="120.2979" y2="-15895.748" gradientTransform="matrix(1 0 0 -1 0 -15884)">
		<stop  offset="9.817236e-008" style="stop-color:#3F00FC"/>
		<stop  offset="1" style="stop-color:#7F00FF"/>
	</linearGradient>
	<circle class="st0" cx="115.5" cy="11.7" r="4.3"/>
	
		<linearGradient id="SVGID_3_" gradientUnits="userSpaceOnUse" x1="110.347" y1="-15844.2666" x2="118.9487" y2="-15844.2666" gradientTransform="matrix(1 0 0 -1 0 -15884)">
		<stop  offset="9.817236e-008" style="stop-color:#3F00FC"/>
		<stop  offset="1" style="stop-color:#7F00FF"/>
	</linearGradient>
	
		<linearGradient id="SVGID_4_" gradientUnits="userSpaceOnUse" x1="109.847" y1="-15844.2666" x2="119.4487" y2="-15844.2666" gradientTransform="matrix(1 0 0 -1 0 -15884)">
		<stop  offset="9.817236e-008" style="stop-color:#3F00FC"/>
		<stop  offset="1" style="stop-color:#7F00FF"/>
	</linearGradient>
	<circle class="st1" cx="114.6" cy="-39.7" r="4.3"/>
	
		<linearGradient id="SVGID_5_" gradientUnits="userSpaceOnUse" x1="112.8194" y1="-15945.374" x2="121.4211" y2="-15945.374" gradientTransform="matrix(1 0 0 -1 0 -15884)">
		<stop  offset="9.817236e-008" style="stop-color:#3F00FC"/>
		<stop  offset="1" style="stop-color:#7F00FF"/>
	</linearGradient>
	
		<linearGradient id="SVGID_6_" gradientUnits="userSpaceOnUse" x1="112.3194" y1="-15945.374" x2="121.9211" y2="-15945.374" gradientTransform="matrix(1 0 0 -1 0 -15884)">
		<stop  offset="9.817236e-008" style="stop-color:#3F00FC"/>
		<stop  offset="1" style="stop-color:#7F00FF"/>
	</linearGradient>
	<circle class="st2" cx="117.1" cy="61.4" r="4.3"/>
	
		<linearGradient id="SVGID_7_" gradientUnits="userSpaceOnUse" x1="114.5361" y1="-15996.3008" x2="123.1377" y2="-15996.3008" gradientTransform="matrix(1 0 0 -1 0 -15884)">
		<stop  offset="9.817236e-008" style="stop-color:#3F00FC"/>
		<stop  offset="1" style="stop-color:#7F00FF"/>
	</linearGradient>
	
		<linearGradient id="SVGID_8_" gradientUnits="userSpaceOnUse" x1="114.0361" y1="-15996.3008" x2="123.6377" y2="-15996.3008" gradientTransform="matrix(1 0 0 -1 0 -15884)">
		<stop  offset="9.817236e-008" style="stop-color:#3F00FC"/>
		<stop  offset="1" style="stop-color:#7F00FF"/>
	</linearGradient>
	<circle class="st3" cx="118.8" cy="112.3" r="4.3"/>
</g>
<text transform="matrix(1 0 0 1 -2955.5 -3477.5)" style="font-family:'MyriadPro-Regular'; font-size:12px;">    max-width: 600px;</text>
<text transform="matrix(1 0 0 1 -2955.5 -3463.1001)" style="font-family:'MyriadPro-Regular'; font-size:12px;">    margin: 0 auto;</text>
<g>
	
		<linearGradient id="SVGID_9_" gradientUnits="userSpaceOnUse" x1="58.6313" y1="-15807.9424" x2="67.2327" y2="-15807.9424" gradientTransform="matrix(1 0 0 -1 0 -15884)">
		<stop  offset="9.817236e-008" style="stop-color:#3F00FC"/>
		<stop  offset="1" style="stop-color:#7F00FF"/>
	</linearGradient>
	<circle class="st4" cx="62.9" cy="-76.1" r="4.3"/>
	
		<linearGradient id="SVGID_10_" gradientUnits="userSpaceOnUse" x1="58.9281" y1="-15858.8584" x2="67.5295" y2="-15858.8584" gradientTransform="matrix(1 0 0 -1 0 -15884)">
		<stop  offset="9.817236e-008" style="stop-color:#3F00FC"/>
		<stop  offset="1" style="stop-color:#7F00FF"/>
	</linearGradient>
	<circle class="st5" cx="63.2" cy="-25.1" r="4.3"/>
	
		<linearGradient id="SVGID_11_" gradientUnits="userSpaceOnUse" x1="59.2437" y1="-15906.9961" x2="67.8451" y2="-15906.9961" gradientTransform="matrix(1 0 0 -1 0 -15884)">
		<stop  offset="9.817236e-008" style="stop-color:#3F00FC"/>
		<stop  offset="1" style="stop-color:#7F00FF"/>
	</linearGradient>
	<circle class="st6" cx="63.5" cy="23" r="4.3"/>
	
		<linearGradient id="SVGID_12_" gradientUnits="userSpaceOnUse" x1="60.3503" y1="-15959.5225" x2="68.9517" y2="-15959.5225" gradientTransform="matrix(1 0 0 -1 0 -15884)">
		<stop  offset="9.817236e-008" style="stop-color:#3F00FC"/>
		<stop  offset="1" style="stop-color:#7F00FF"/>
	</linearGradient>
	<circle class="st7" cx="64.7" cy="75.5" r="4.3"/>
</g>
<g>
	<linearGradient id="SVGID_13_" gradientUnits="userSpaceOnUse" x1="183.2" y1="27.6099" x2="339.3" y2="27.6099">
		<stop  offset="9.817236e-008" style="stop-color:#3F00FC"/>
		<stop  offset="1" style="stop-color:#7F00FF"/>
	</linearGradient>
	<polygon class="st8" points="261.6,114.3 185.7,70.9 185.7,-17.5 261.6,-59.1 336.8,-16.3 336.8,70.9 	"/>
	<linearGradient id="SVGID_14_" gradientUnits="userSpaceOnUse" x1="184.4563" y1="4.7081" x2="336.6514" y2="4.7081">
		<stop  offset="9.817236e-008" style="stop-color:#3F00FC"/>
		<stop  offset="1" style="stop-color:#7F00FF"/>
	</linearGradient>
	<polyline class="st9" points="185.7,-17.5 261.9,26.2 335.4,-16.3 	"/>
	<polyline class="st10" points="213,89.1 33.4,191.8 33.4,453.9 262.9,581.8 490,452 490,429 	"/>
	<polyline class="st10" points="310,89.2 490,189.9 490,269.5 490,278.3 262.6,410.1 33.4,281.4 	"/>
	<polyline class="st10" points="33.4,191.8 263.5,322.6 490,189.9 	"/>
	<polyline class="st10" points="108.9,496 108.9,235.1 336.7,103.8 	"/>
	<polyline class="st10" points="110.3,147.8 339,277.5 339.4,366 338.4,453 	"/>
	<polyline class="st10" points="185.7,538.5 186.8,453.1 33.4,368.2 	"/>
	<polyline class="st10" points="338.4,538.6 338.4,453 414.5,409.7 414.8,495.5 	"/>
	<linearGradient id="SVGID_15_" gradientUnits="userSpaceOnUse" x1="184.9581" y1="273.0416" x2="548.6061" y2="273.0416">
		<stop  offset="9.817236e-008" style="stop-color:#3F00FC"/>
		<stop  offset="1" style="stop-color:#7F00FF"/>
	</linearGradient>
	<polyline class="st11" points="544.3,310.4 470.8,352.1 417.4,321.1 490.6,278.9 545.3,309.2 546.1,397.6 470.1,441 415.1,410.3 
		414.5,234.1 186.2,104.4 	"/>
	<line class="st10" x1="261.3" y1="146.8" x2="262" y2="234"/>
	<polyline class="st10" points="186.8,453.1 186.1,366.8 186.1,278.1 413,146.8 	"/>
	<linearGradient id="SVGID_16_" gradientUnits="userSpaceOnUse" x1="183.0956" y1="459.4318" x2="342.42" y2="459.4318">
		<stop  offset="9.817236e-008" style="stop-color:#3F00FC"/>
		<stop  offset="1" style="stop-color:#7F00FF"/>
	</linearGradient>
	<polyline class="st12" points="307.3,384.7 339.4,402.8 338.4,491 262.6,533.4 186.3,490 186.1,401.6 214.2,385.7 216.3,384.7 	"/>
	<linearGradient id="SVGID_17_" gradientUnits="userSpaceOnUse" x1="184.6163" y1="423.8671" x2="340.8569" y2="423.8671">
		<stop  offset="9.817236e-008" style="stop-color:#3F00FC"/>
		<stop  offset="1" style="stop-color:#7F00FF"/>
	</linearGradient>
	<polyline class="st13" points="186.1,401.6 262.9,445.3 339.4,402.8 	"/>
	<linearGradient id="SVGID_18_" gradientUnits="userSpaceOnUse" x1="259.6" y1="489.35" x2="265.9" y2="489.35">
		<stop  offset="9.817236e-008" style="stop-color:#3F00FC"/>
		<stop  offset="1" style="stop-color:#7F00FF"/>
	</linearGradient>
	<line class="st14" x1="262.6" y1="533.4" x2="262.9" y2="445.3"/>
	<polyline class="st10" points="186.1,366.8 262.6,410.1 339.4,366 	"/>
	<polyline class="st10" points="187.2,105.1 413.6,233.5 414.5,419.5 	"/>
	<polyline class="st10" points="413,322.9 490.6,278.9 490,263 	"/>
</g>
</svg>
