<svg xmlns="http://www.w3.org/2000/svg" viewBox="0 0 3096 3096" style="enable-background:new 0 0 3096 3096" xml:space="preserve"><linearGradient id="a" gradientUnits="userSpaceOnUse" x1="738.437" y1="1302.002" x2="2314.778" y2="1302.002"><stop offset="0" style="stop-color:#0f9"/><stop offset="1" style="stop-color:#3cf"/></linearGradient><path d="M868.8 1048.8s-78-816.1 606.1-840.1c0 0 651.1-111 720.1 669.1 0 0 10.9 174.2 0 214.2 0 0 83.1-66 95.1-24 0 0 22 72 0 112s-22 250-22 250-16 120-62 118-36-2-46-2 10.9 240.9-76.1 354.9c0 0-58.6 48.4-65.2 84.4 0 0-51.6 110.7-84.6 134.7-33 24-40.5 214.5-120 246s-361.5 78-525-51-211.5-208.5-211.5-208.5-19.5-108-33-136.5-112.5-142.5-126-175.5-31.5-175.5-27-202.5c0 0-48.6.9-56.6-57.1s-54-130-54-130l-26.2-131.2s-3-78 0-141c2.9-62.9-15.3-123.1 113.9-83.9z" style="fill:none;stroke:url(#a);stroke-width:30;stroke-miterlimit:10"/><linearGradient id="b" gradientUnits="userSpaceOnUse" x1="1168.147" y1="1899.197" x2="1917.633" y2="1899.197"><stop offset="0" style="stop-color:#0f9"/><stop offset="1" style="stop-color:#3cf"/></linearGradient><path d="M1189.8 1708.9s453.7 81.1 708.1 18c0 0 33 228-75 318s-57-87-174-117-201 9-201 9-66 44.5-63 133.3c3 88.7-180-117-195-180.7s-.1-180.6-.1-180.6z" style="fill:none;stroke:url(#b);stroke-width:30;stroke-miterlimit:10"/><linearGradient id="c" gradientUnits="userSpaceOnUse" x1="1090.164" y1="1980.542" x2="2004.429" y2="1980.542"><stop offset="0" style="stop-color:#0f9"/><stop offset="1" style="stop-color:#3cf"/></linearGradient><path d="M1959 2092.1c16.9-26.1 7.9-311.2 25.9-362.2s-21-105.7-57-114.3c-36-8.7-120 24.3-189-14.7s-177-45-240-39-147 69-168 69-117-15-117-15-132-12-105 111-27 192 12 267 128.1 288.5 128.1 288.5 220.2 221.5 596.6 59.5c0 0 45.3-76.6 60.9-156.3s52.5-93.5 52.5-93.5z" style="fill:none;stroke:url(#c);stroke-width:30;stroke-miterlimit:10"/><linearGradient id="d" gradientUnits="userSpaceOnUse" x1="1813.878" y1="2552.99" x2="2141.032" y2="2552.99"><stop offset="0" style="stop-color:#0f9"/><stop offset="1" style="stop-color:#3cf"/></linearGradient><path d="M2006.3 2010.6s8.6 215.4 89.6 271.9-27 392.5-27 392.5-84 153-138 222-102 161-102 199" style="fill:none;stroke:url(#d);stroke-width:30;stroke-miterlimit:10"/><linearGradient id="e" gradientUnits="userSpaceOnUse" x1="979.444" y1="2502.212" x2="1294.131" y2="2502.212"><stop offset="0" style="stop-color:#0f9"/><stop offset="1" style="stop-color:#3cf"/></linearGradient><path d="M994.4 1900.5 1014 2240s12 112 0 184 40 102.6 40 129.3c0 26.7-8 94.7 0 130.7s110.3 92 129.1 132c18.9 40 66.9 236 98.9 280" style="fill:none;stroke:url(#e);stroke-width:30;stroke-miterlimit:10"/><linearGradient id="f" gradientUnits="userSpaceOnUse" x1="2016.069" y1="2275.502" x2="3102.573" y2="2275.502"><stop offset="0" style="stop-color:#0f9"/><stop offset="1" style="stop-color:#3cf"/></linearGradient><path d="M2018.7 1985.3s185.2 32.6 203.3 194.6c0 0 222 189.6 300 220.8 78 31.2 357 115.2 420 115.2s74 12 154 51" style="fill:none;stroke:url(#f);stroke-width:30;stroke-miterlimit:10"/><linearGradient id="g" gradientUnits="userSpaceOnUse" x1="-7.149" y1="2499.16" x2="1017.325" y2="2499.16"><stop offset="0" style="stop-color:#0f9"/><stop offset="1" style="stop-color:#3cf"/></linearGradient><path d="M1010.9 2185.7c-13.1 6.2-157.1 126.2-157.1 198.3 0 72-165 99-288 144S0 2813 0 2813" style="fill:none;stroke:url(#g);stroke-width:30;stroke-miterlimit:10"/></svg>