<?xml version="1.0" encoding="utf-8"?>
<!-- Generator: Adobe Illustrator 19.0.0, SVG Export Plug-In . SVG Version: 6.00 Build 0)  -->
<svg version="1.1" id="Calque_1" xmlns="http://www.w3.org/2000/svg" xmlns:xlink="http://www.w3.org/1999/xlink" x="0px" y="0px"
	 viewBox="0 0 3096 3096" style="enable-background:new 0 0 3096 3096;" xml:space="preserve">
<style type="text/css">
	.st0{fill:none;stroke:url(#SVGID_1_);stroke-width:30;stroke-miterlimit:10;}
	.st1{fill:none;stroke:url(#SVGID_2_);stroke-width:30;stroke-miterlimit:10;}
	.st2{fill:none;stroke:url(#SVGID_3_);stroke-width:30;stroke-miterlimit:10;}
	.st3{fill:none;stroke:url(#SVGID_4_);stroke-width:30;stroke-miterlimit:10;}
	.st4{fill:none;stroke:url(#SVGID_5_);stroke-width:30;stroke-miterlimit:10;}
	.st5{fill:none;stroke:url(#SVGID_6_);stroke-width:30;stroke-miterlimit:10;}
	.st6{fill:none;stroke:url(#SVGID_7_);stroke-width:30;stroke-miterlimit:10;}
</style>
<linearGradient id="SVGID_1_" gradientUnits="userSpaceOnUse" x1="738.437" y1="1302.0015" x2="2314.7778" y2="1302.0015">
	<stop  offset="0" style="stop-color:#00FF99"/>
	<stop  offset="1" style="stop-color:#33CCFF"/>
</linearGradient>
<path class="st0" d="M868.8,1048.8c0,0-78-816.1,606.1-840.1c0,0,651.1-111,720.1,669.1c0,0,10.9,174.2,0,214.2c0,0,83.1-66,95.1-24
	c0,0,22,72,0,112s-22,250-22,250s-16,120-62,118s-36-2-46-2s10.9,240.9-76.1,354.9c0,0-58.6,48.4-65.2,84.4
	c0,0-51.6,110.7-84.6,134.7c-33,24-40.5,214.5-120,246c-79.5,31.5-361.5,78-525-51c-163.5-129-211.5-208.5-211.5-208.5
	s-19.5-108-33-136.5c-13.5-28.5-112.5-142.5-126-175.5c-13.5-33-31.5-175.5-27-202.5c0,0-48.6,0.9-56.6-57.1s-54-130-54-130
	l-26.2-131.2c0,0-3-78,0-141C757.8,1069.8,739.6,1009.6,868.8,1048.8z"/>
<linearGradient id="SVGID_2_" gradientUnits="userSpaceOnUse" x1="1168.1466" y1="1899.1973" x2="1917.6332" y2="1899.1973">
	<stop  offset="0" style="stop-color:#00FF99"/>
	<stop  offset="1" style="stop-color:#33CCFF"/>
</linearGradient>
<path class="st1" d="M1189.8,1708.9c0,0,453.7,81.1,708.1,18c0,0,33,228-75,318c-108,90-57-87-174-117c-117-30-201,9-201,9
	s-66,44.5-63,133.3c3,88.7-180-117-195-180.7S1189.8,1708.9,1189.8,1708.9z"/>
<linearGradient id="SVGID_3_" gradientUnits="userSpaceOnUse" x1="1090.1641" y1="1980.5424" x2="2004.4288" y2="1980.5424">
	<stop  offset="0" style="stop-color:#00FF99"/>
	<stop  offset="1" style="stop-color:#33CCFF"/>
</linearGradient>
<path class="st2" d="M1959,2092.1c16.9-26.1,7.9-311.2,25.9-362.2c18-51-21-105.7-57-114.3c-36-8.7-120,24.3-189-14.7
	c-69-39-177-45-240-39c-63,6-147,69-168,69c-21,0-117-15-117-15s-132-12-105,111s-27,192,12,267c39,75,128.1,288.5,128.1,288.5
	s220.2,221.5,596.6,59.5c0,0,45.3-76.6,60.9-156.3S1959,2092.1,1959,2092.1z"/>
<linearGradient id="SVGID_4_" gradientUnits="userSpaceOnUse" x1="1813.8779" y1="2552.99" x2="2141.0315" y2="2552.99">
	<stop  offset="0" style="stop-color:#00FF99"/>
	<stop  offset="1" style="stop-color:#33CCFF"/>
</linearGradient>
<path class="st3" d="M2006.3,2010.6c0,0,8.6,215.4,89.6,271.9s-27,392.5-27,392.5s-84,153-138,222s-102,161-102,199"/>
<linearGradient id="SVGID_5_" gradientUnits="userSpaceOnUse" x1="979.4445" y1="2502.2124" x2="1294.131" y2="2502.2124">
	<stop  offset="0" style="stop-color:#00FF99"/>
	<stop  offset="1" style="stop-color:#33CCFF"/>
</linearGradient>
<path class="st4" d="M994.4,1900.5L1014,2240c0,0,12,112,0,184s40,102.6,40,129.3c0,26.7-8,94.7,0,130.7s110.3,92,129.1,132
	c18.9,40,66.9,236,98.9,280"/>
<linearGradient id="SVGID_6_" gradientUnits="userSpaceOnUse" x1="2016.0691" y1="2275.502" x2="3102.5728" y2="2275.502">
	<stop  offset="0" style="stop-color:#00FF99"/>
	<stop  offset="1" style="stop-color:#33CCFF"/>
</linearGradient>
<path class="st5" d="M2018.7,1985.3c0,0,185.2,32.6,203.3,194.6c0,0,222,189.6,300,220.8c78,31.2,357,115.2,420,115.2s74,12,154,51"
	/>
<linearGradient id="SVGID_7_" gradientUnits="userSpaceOnUse" x1="-7.149" y1="2499.1604" x2="1017.3254" y2="2499.1604">
	<stop  offset="0" style="stop-color:#00FF99"/>
	<stop  offset="1" style="stop-color:#33CCFF"/>
</linearGradient>
<path class="st6" d="M1010.9,2185.7c-13.1,6.2-157.1,126.2-157.1,198.3c0,72-165,99-288,144S0,2813,0,2813"/>
</svg>
