<?xml version="1.0" encoding="utf-8"?>
<!-- Generator: Adobe Illustrator 19.0.0, SVG Export Plug-In . SVG Version: 6.00 Build 0)  -->
<svg version="1.1" id="Calque_1" xmlns="http://www.w3.org/2000/svg" xmlns:xlink="http://www.w3.org/1999/xlink" x="0px" y="0px"
	 viewBox="0 0 3096 3096" style="enable-background:new 0 0 3096 3096;" xml:space="preserve">
<style type="text/css">
	.st0{fill:none;stroke:url(#SVGID_1_);stroke-width:30;stroke-miterlimit:10;}
	.st1{fill:none;stroke:url(#SVGID_2_);stroke-width:30;stroke-miterlimit:10;}
	.st2{fill:none;stroke:url(#SVGID_3_);stroke-width:30;stroke-miterlimit:10;}
	.st3{fill:none;stroke:url(#SVGID_4_);stroke-width:30;stroke-miterlimit:10;}
	.st4{fill:none;stroke:url(#SVGID_5_);stroke-width:30;stroke-miterlimit:10;}
	.st5{fill:none;stroke:url(#SVGID_6_);stroke-width:30;stroke-miterlimit:10;}
	.st6{fill:none;stroke:url(#SVGID_7_);stroke-width:30;stroke-miterlimit:10;}
	.st7{fill:none;stroke:url(#SVGID_8_);stroke-width:30;stroke-miterlimit:10;}
	.st8{fill:none;stroke:url(#SVGID_9_);stroke-width:30;stroke-miterlimit:10;}
	.st9{fill:none;stroke:url(#SVGID_10_);stroke-width:30;stroke-miterlimit:10;}
	.st10{fill:none;stroke:url(#SVGID_11_);stroke-width:30;stroke-miterlimit:10;}
	.st11{fill:none;stroke:url(#SVGID_12_);stroke-width:30;stroke-miterlimit:10;}
	.st12{fill:none;stroke:url(#SVGID_13_);stroke-width:30;stroke-miterlimit:10;}
	.st13{fill:none;stroke:url(#SVGID_14_);stroke-width:30;stroke-miterlimit:10;}
	.st14{fill:none;stroke:url(#SVGID_15_);stroke-width:30;stroke-miterlimit:10;}
</style>
<linearGradient id="SVGID_1_" gradientUnits="userSpaceOnUse" x1="700.7446" y1="1253.7393" x2="2437.4531" y2="1253.7393">
	<stop  offset="0" style="stop-color:#00FF99"/>
	<stop  offset="1" style="stop-color:#33CCFF"/>
</linearGradient>
<path class="st0" d="M2215.4,1393.2c0,0,5.5,9.1-23.4,36.8s-32,114-52,230s-76,204-80,210c0,0-82,92-156,132s-194,158-194,158
	s-114,70-352,0c0,0-124-42-202-156s-118-56-226-236s-60-270-60-270l4-20c0,0-44,50-114-14s-36-168.9-36-168.9s8-109.1,10-129.1
	s-18-70,58-80s74,90,74,90l22,154c0,0,16-354,28-386s240.8-168.2,249.8-393.2c0,0-36-126,369-222c0,0-25.2,24,66.9,51
	s398.1,84,452.1,297s-42,375,96,606.1c14.6,24.4,27.8,46.8,39.9,67.3c102.5,173.3,126.7,214.2,242.1,259.8"/>
<linearGradient id="SVGID_2_" gradientUnits="userSpaceOnUse" x1="803.5067" y1="1515.5723" x2="803.5067" y2="1515.5723">
	<stop  offset="0" style="stop-color:#00FF99"/>
	<stop  offset="1" style="stop-color:#33CCFF"/>
</linearGradient>
<path class="st1" d="M803.5,1515.6"/>
<linearGradient id="SVGID_3_" gradientUnits="userSpaceOnUse" x1="793.1078" y1="1761.7073" x2="793.1078" y2="1761.7073">
	<stop  offset="0" style="stop-color:#00FF99"/>
	<stop  offset="1" style="stop-color:#33CCFF"/>
</linearGradient>
<path class="st2" d="M793.1,1761.7"/>
<linearGradient id="SVGID_4_" gradientUnits="userSpaceOnUse" x1="918.6066" y1="2223.5369" x2="918.6066" y2="2223.5369">
	<stop  offset="0" style="stop-color:#00FF99"/>
	<stop  offset="1" style="stop-color:#33CCFF"/>
</linearGradient>
<path class="st3" d="M918.6,2223.5"/>
<linearGradient id="SVGID_5_" gradientUnits="userSpaceOnUse" x1="282.4384" y1="2309.9939" x2="957.3602" y2="2309.9939">
	<stop  offset="0" style="stop-color:#00FF99"/>
	<stop  offset="1" style="stop-color:#33CCFF"/>
</linearGradient>
<path class="st4" d="M368.2,1954.8c0,0-268.6,527.8,240.5,690c0,0,80.4,12.2,168.9,12.2s112.5-12.2,112.5-12.2
	S736.8,2471,778.8,2266.9c0,0,23.9-184,171.1-269"/>
<linearGradient id="SVGID_6_" gradientUnits="userSpaceOnUse" x1="2303.9233" y1="2576.957" x2="2303.9233" y2="2576.957">
	<stop  offset="0" style="stop-color:#00FF99"/>
	<stop  offset="1" style="stop-color:#33CCFF"/>
</linearGradient>
<path class="st5" d="M2303.9,2577"/>
<linearGradient id="SVGID_7_" gradientUnits="userSpaceOnUse" x1="2303.9233" y1="2576.957" x2="2303.9233" y2="2576.957">
	<stop  offset="0" style="stop-color:#00FF99"/>
	<stop  offset="1" style="stop-color:#33CCFF"/>
</linearGradient>
<path class="st6" d="M2303.9,2577"/>
<linearGradient id="SVGID_8_" gradientUnits="userSpaceOnUse" x1="326.8958" y1="1409.2684" x2="2817.5496" y2="1409.2684">
	<stop  offset="0" style="stop-color:#00FF99"/>
	<stop  offset="1" style="stop-color:#33CCFF"/>
</linearGradient>
<path class="st7" d="M368.2,1954.8c-2.2-8.8-4.4-17.7-6.5-26.9c-84-363,126-625.9,126-625.9S558,1180,622,836s664-728,724-760
	s227.9,30.7,227.9,30.7s135-78,243-36c108,42,397.1,181.3,669.1,781.3c0,0,102.1,272.4,234.1,518.3s66,610.2,66,610.2
	s-27.8,591.5-463.9,771.5c0,0,9.7-116.1-18.2-175"/>
<linearGradient id="SVGID_9_" gradientUnits="userSpaceOnUse" x1="1812.4026" y1="2317.6169" x2="2323.0613" y2="2317.6169">
	<stop  offset="0" style="stop-color:#00FF99"/>
	<stop  offset="1" style="stop-color:#33CCFF"/>
</linearGradient>
<path class="st8" d="M2322.1,2578.3c-615.4-39.4-482.6-532.4-482.6-532.4"/>
<linearGradient id="SVGID_10_" gradientUnits="userSpaceOnUse" x1="903.6066" y1="2471.3442" x2="1194.1029" y2="2471.3442">
	<stop  offset="0" style="stop-color:#00FF99"/>
	<stop  offset="1" style="stop-color:#33CCFF"/>
</linearGradient>
<path class="st9" d="M979.4,1840.8c0,0-60.8,304.8-60.8,382.8c0,0,99.4,648.5,263.4,872.5"/>
<linearGradient id="SVGID_11_" gradientUnits="userSpaceOnUse" x1="1743.601" y1="2191.2473" x2="1785.7817" y2="2191.2473">
	<stop  offset="0" style="stop-color:#00FF99"/>
	<stop  offset="1" style="stop-color:#33CCFF"/>
</linearGradient>
<line class="st10" x1="1770.8" y1="2103.5" x2="1758.6" y2="2279"/>
<linearGradient id="SVGID_12_" gradientUnits="userSpaceOnUse" x1="918.6066" y1="2180.0391" x2="918.6066" y2="2180.0391">
	<stop  offset="0" style="stop-color:#00FF99"/>
	<stop  offset="1" style="stop-color:#33CCFF"/>
</linearGradient>
<path class="st11" d="M918.6,2180"/>
<linearGradient id="SVGID_13_" gradientUnits="userSpaceOnUse" x1="1562.6272" y1="2691.4988" x2="1782.6442" y2="2691.4988">
	<stop  offset="0" style="stop-color:#00FF99"/>
	<stop  offset="1" style="stop-color:#33CCFF"/>
</linearGradient>
<path class="st12" d="M1758.6,2279c0,0,71.1,529-184.7,817"/>
<linearGradient id="SVGID_14_" gradientUnits="userSpaceOnUse" x1="-13.2797" y1="2566.9158" x2="380.4712" y2="2566.9158">
	<stop  offset="0" style="stop-color:#00FF99"/>
	<stop  offset="1" style="stop-color:#33CCFF"/>
</linearGradient>
<path class="st13" d="M376.4,2496.5c0,0-351,100.1-376.4,148.3"/>
<linearGradient id="SVGID_15_" gradientUnits="userSpaceOnUse" x1="2615.5332" y1="2653.1565" x2="3108.8445" y2="2653.1565">
	<stop  offset="0" style="stop-color:#00FF99"/>
	<stop  offset="1" style="stop-color:#33CCFF"/>
</linearGradient>
<path class="st14" d="M3096,2814c-76-126-187.7-189.2-187.7-189.2s-43.1-31-105.2-62.4c0,0-31.7-25.1-183.9-63.3"/>
</svg>
