<svg xmlns="http://www.w3.org/2000/svg" viewBox="0 0 3096 3096" style="enable-background:new 0 0 3096 3096" xml:space="preserve"><linearGradient id="a" gradientUnits="userSpaceOnUse" x1="700.745" y1="1253.739" x2="2437.453" y2="1253.739"><stop offset="0" style="stop-color:#0f9"/><stop offset="1" style="stop-color:#3cf"/></linearGradient><path d="M2215.4 1393.2s5.5 9.1-23.4 36.8-32 114-52 230-76 204-80 210c0 0-82 92-156 132s-194 158-194 158-114 70-352 0c0 0-124-42-202-156s-118-56-226-236-60-270-60-270l4-20s-44 50-114-14-36-168.9-36-168.9 8-109.1 10-129.1-18-70 58-80 74 90 74 90l22 154s16-354 28-386 240.8-168.2 249.8-393.2c0 0-36-126 369-222 0 0-25.2 24 66.9 51s398.1 84 452.1 297-42 375 96 606.1c14.6 24.4 27.8 46.8 39.9 67.3 102.5 173.3 126.7 214.2 242.1 259.8" style="fill:none;stroke:url(#a);stroke-width:30;stroke-miterlimit:10"/><linearGradient id="b" gradientUnits="userSpaceOnUse" x1="803.507" y1="1515.572" x2="803.507" y2="1515.572"><stop offset="0" style="stop-color:#0f9"/><stop offset="1" style="stop-color:#3cf"/></linearGradient><linearGradient id="c" gradientUnits="userSpaceOnUse" x1="793.108" y1="1761.707" x2="793.108" y2="1761.707"><stop offset="0" style="stop-color:#0f9"/><stop offset="1" style="stop-color:#3cf"/></linearGradient><linearGradient id="d" gradientUnits="userSpaceOnUse" x1="918.607" y1="2223.537" x2="918.607" y2="2223.537"><stop offset="0" style="stop-color:#0f9"/><stop offset="1" style="stop-color:#3cf"/></linearGradient><linearGradient id="e" gradientUnits="userSpaceOnUse" x1="282.438" y1="2309.994" x2="957.36" y2="2309.994"><stop offset="0" style="stop-color:#0f9"/><stop offset="1" style="stop-color:#3cf"/></linearGradient><path d="M368.2 1954.8s-268.6 527.8 240.5 690c0 0 80.4 12.2 168.9 12.2s112.5-12.2 112.5-12.2-153.3-173.8-111.3-377.9c0 0 23.9-184 171.1-269" style="fill:none;stroke:url(#e);stroke-width:30;stroke-miterlimit:10"/><linearGradient id="f" gradientUnits="userSpaceOnUse" x1="2303.923" y1="2576.957" x2="2303.923" y2="2576.957"><stop offset="0" style="stop-color:#0f9"/><stop offset="1" style="stop-color:#3cf"/></linearGradient><linearGradient id="g" gradientUnits="userSpaceOnUse" x1="2303.923" y1="2576.957" x2="2303.923" y2="2576.957"><stop offset="0" style="stop-color:#0f9"/><stop offset="1" style="stop-color:#3cf"/></linearGradient><linearGradient id="h" gradientUnits="userSpaceOnUse" x1="326.896" y1="1409.268" x2="2817.55" y2="1409.268"><stop offset="0" style="stop-color:#0f9"/><stop offset="1" style="stop-color:#3cf"/></linearGradient><path d="M368.2 1954.8c-2.2-8.8-4.4-17.7-6.5-26.9-84-363 126-625.9 126-625.9S558 1180 622 836s664-728 724-760 227.9 30.7 227.9 30.7 135-78 243-36S2214 252 2486 852c0 0 102.1 272.4 234.1 518.3s66 610.2 66 610.2-27.8 591.5-463.9 771.5c0 0 9.7-116.1-18.2-175" style="fill:none;stroke:url(#h);stroke-width:30;stroke-miterlimit:10"/><linearGradient id="i" gradientUnits="userSpaceOnUse" x1="1812.403" y1="2317.617" x2="2323.061" y2="2317.617"><stop offset="0" style="stop-color:#0f9"/><stop offset="1" style="stop-color:#3cf"/></linearGradient><path d="M2322.1 2578.3c-615.4-39.4-482.6-532.4-482.6-532.4" style="fill:none;stroke:url(#i);stroke-width:30;stroke-miterlimit:10"/><linearGradient id="j" gradientUnits="userSpaceOnUse" x1="903.607" y1="2471.344" x2="1194.103" y2="2471.344"><stop offset="0" style="stop-color:#0f9"/><stop offset="1" style="stop-color:#3cf"/></linearGradient><path d="M979.4 1840.8s-60.8 304.8-60.8 382.8c0 0 99.4 648.5 263.4 872.5" style="fill:none;stroke:url(#j);stroke-width:30;stroke-miterlimit:10"/><linearGradient id="k" gradientUnits="userSpaceOnUse" x1="1743.601" y1="2191.247" x2="1785.782" y2="2191.247"><stop offset="0" style="stop-color:#0f9"/><stop offset="1" style="stop-color:#3cf"/></linearGradient><path style="fill:none;stroke:url(#k);stroke-width:30;stroke-miterlimit:10" d="m1770.8 2103.5-12.2 175.5"/><linearGradient id="l" gradientUnits="userSpaceOnUse" x1="918.607" y1="2180.039" x2="918.607" y2="2180.039"><stop offset="0" style="stop-color:#0f9"/><stop offset="1" style="stop-color:#3cf"/></linearGradient><linearGradient id="m" gradientUnits="userSpaceOnUse" x1="1562.627" y1="2691.499" x2="1782.644" y2="2691.499"><stop offset="0" style="stop-color:#0f9"/><stop offset="1" style="stop-color:#3cf"/></linearGradient><path d="M1758.6 2279s71.1 529-184.7 817" style="fill:none;stroke:url(#m);stroke-width:30;stroke-miterlimit:10"/><linearGradient id="n" gradientUnits="userSpaceOnUse" x1="-13.28" y1="2566.916" x2="380.471" y2="2566.916"><stop offset="0" style="stop-color:#0f9"/><stop offset="1" style="stop-color:#3cf"/></linearGradient><path d="M376.4 2496.5S25.4 2596.6 0 2644.8" style="fill:none;stroke:url(#n);stroke-width:30;stroke-miterlimit:10"/><linearGradient id="o" gradientUnits="userSpaceOnUse" x1="2615.533" y1="2653.157" x2="3108.845" y2="2653.157"><stop offset="0" style="stop-color:#0f9"/><stop offset="1" style="stop-color:#3cf"/></linearGradient><path d="M3096 2814c-76-126-187.7-189.2-187.7-189.2s-43.1-31-105.2-62.4c0 0-31.7-25.1-183.9-63.3" style="fill:none;stroke:url(#o);stroke-width:30;stroke-miterlimit:10"/></svg>