<svg xmlns="http://www.w3.org/2000/svg" xmlns:xlink="http://www.w3.org/1999/xlink" viewBox="0 0 3096 3096" style="enable-background:new 0 0 3096 3096" xml:space="preserve"><image style="overflow:visible" width="250" height="250" xlink:href="mike.jpg" transform="translate(-4081.633) scale(12.384)"/><linearGradient id="a" gradientUnits="userSpaceOnUse" x1="687.398" y1="788.18" x2="2325.892" y2="788.18"><stop offset="0" style="stop-color:#0f9"/><stop offset="1" style="stop-color:#3cf"/></linearGradient><path d="M925.8 1444.8s-18-186 0-234 5-119-8-134.5 40.7-210.5 16.8-243.5-2.8-222 75.2-255 264-83.5 351-41.8c87 41.8 96 14.8 96 14.8s0-5.5 117-14.8 309 2.8 396 299.8c0 0 4.1 72.2 12.1 94.2s44 104 60 126 82 292 72 344c0 0 92.9-57.2 77.9-228.2 0 0 48 9 78-141s51-249 36-324-126-240-273-282-258-174-258-174-105-144-291-105c0 0-189.8-59.7-271.8-6.7s-148 77-152 145c0 0-114-18-180 96 0 0-22 92-72 114s-74 52-74 114-32 180-26 230 18 168 10 206-23.5 24-10.7 66 30.7 70 76.7 140 66 56 80 110 61.8 84.7 61.8 84.7z" style="fill:none;stroke:url(#a);stroke-width:30;stroke-miterlimit:10"/><linearGradient id="b" gradientUnits="userSpaceOnUse" x1="2063.759" y1="1428.939" x2="2246.047" y2="1428.939"><stop offset="0" style="stop-color:#0f9"/><stop offset="1" style="stop-color:#3cf"/></linearGradient><path d="M2230.2 1144.3s9.8 228.6-35.2 318.6c-7.4 14.7-14.9 26.4-22.3 35.7-30.3 37.6-59.1 34.5-69.6 31.7-2.2-.6-4.4.9-4.6 3.2l-19.6 161.6c-.5 4.1 5 5.8 7 2.2" style="fill:none;stroke:url(#b);stroke-width:30;stroke-miterlimit:10"/><linearGradient id="c" gradientUnits="userSpaceOnUse" x1="831.702" y1="1798.13" x2="2100.219" y2="1798.13"><stop offset="0" style="stop-color:#0f9"/><stop offset="1" style="stop-color:#3cf"/></linearGradient><path d="M856.1 1337.3s-29.3 97.9 15.7 210.7 78 64.9 78 64.9 15 144 117 267 117 144 117 144 75 75 105 123 39 57 108 78 189 30 234 18 171-90 192-108 183.7-152.2 262.9-437.6" style="fill:none;stroke:url(#c);stroke-width:30;stroke-miterlimit:10"/><linearGradient id="d" gradientUnits="userSpaceOnUse" x1="1013.178" y1="2325.814" x2="2236.167" y2="2325.814"><stop offset="0" style="stop-color:#0f9"/><stop offset="1" style="stop-color:#3cf"/></linearGradient><path d="M2031.9 1846.7s1 207.2 16 225.2 105 111 147 111 21 81 21 81-234 435-384 498-213 0-213 0-141-12-180 12-477-118.9-402-454c0 0 69-12.3 93-71.7 24-59.4 10-279.7 10-279.7" style="fill:none;stroke:url(#d);stroke-width:30;stroke-miterlimit:10"/><linearGradient id="e" gradientUnits="userSpaceOnUse" x1="2147.467" y1="2355.185" x2="3104.321" y2="2355.185"><stop offset="0" style="stop-color:#0f9"/><stop offset="1" style="stop-color:#3cf"/></linearGradient><path d="M2154.9 2136s91.1-52 135.1 0 228 148.3 364 192.2c136 43.8 180 35.8 260 119.8s182 152 182 152" style="fill:none;stroke:url(#e);stroke-width:30;stroke-miterlimit:10"/><linearGradient id="f" gradientUnits="userSpaceOnUse" x1="-14.552" y1="2596.713" x2="1140.993" y2="2596.713"><stop offset="0" style="stop-color:#0f9"/><stop offset="1" style="stop-color:#3cf"/></linearGradient><path d="M0 2996s42-168 170-232 444-252 444-252 379.3-280.6 452-292l72.7-11.4" style="fill:none;stroke:url(#f);stroke-width:30;stroke-miterlimit:10"/></svg>