<svg xmlns="http://www.w3.org/2000/svg" viewBox="0 0 3096 3096" style="enable-background:new 0 0 3096 3096" xml:space="preserve"><linearGradient id="a" gradientUnits="userSpaceOnUse" x1="880.785" y1="1335.02" x2="2436.896" y2="1335.02"><stop offset="0" style="stop-color:#0f9"/><stop offset="1" style="stop-color:#3cf"/></linearGradient><path d="M1270 1732s0 136 120 236 200 184 328 184c0 0 140.1 55 386.8-2.6 39.1-9.1 80.9-21.1 125.2-36.5 0 0 116-72.9 176-520.9 0 0 51.5-338.9-31-367.4 0 0-30-73.5 4.5-139.5s-13.5-135-13.5-135l-36.1-255.3S2120 395.2 1983.5 528.6c0 0-58.7 28.1-319.7 1.1s-342 93-342 93-33 57-33 111-45 207-87 234 33 78 33 78-3 66 3 174-24 114-12 180c9.6 52.9 25 116.2 30.8 139.2.8 3.4-2.8 6-5.8 4.3-29.1-17.5-128.5-82.3-154-161.5-30-93-153-108-153-108s-48 29.4-48 61.2 18 184.8 48 235.8 96 129 123 129 45 21 102 21 57.2-11.9 57.2-11.9 42.2 1.3 44 23.2z" style="fill:none;stroke:url(#a);stroke-width:30;stroke-miterlimit:10"/><linearGradient id="b" gradientUnits="userSpaceOnUse" x1="2073.393" y1="2621.733" x2="2297.923" y2="2621.733"><stop offset="0" style="stop-color:#0f9"/><stop offset="1" style="stop-color:#3cf"/></linearGradient><path d="M2191.9 3096s12-241 75-256c0 0 36-162 0-249 0 0-117-18-159-123s-3.1-318.5-3.1-318.5" style="fill:none;stroke:url(#b);stroke-width:30;stroke-miterlimit:10"/><linearGradient id="c" gradientUnits="userSpaceOnUse" x1="1036.185" y1="2408.925" x2="1527.004" y2="2408.925"><stop offset="0" style="stop-color:#0f9"/><stop offset="1" style="stop-color:#3cf"/></linearGradient><path d="M1513.8 3096s-81-148-171-115c0 0-45 15-105-156s-144-165-144-165l-39-96s298.6-189 153.8-846.1" style="fill:none;stroke:url(#c);stroke-width:30;stroke-miterlimit:10"/><linearGradient id="d" gradientUnits="userSpaceOnUse" x1="-14.612" y1="2786.177" x2="1075.141" y2="2786.177"><stop offset="0" style="stop-color:#0f9"/><stop offset="1" style="stop-color:#3cf"/></linearGradient><path d="M0 3056s16.7-72 64.7-105 192-132 279-129 222-90 222-90 42 6 102 0 240-204 294-204 106.8 25.6 106.8 25.6" style="fill:none;stroke:url(#d);stroke-width:30;stroke-miterlimit:10"/><linearGradient id="e" gradientUnits="userSpaceOnUse" x1="2139.958" y1="2710.102" x2="3105.345" y2="2710.102"><stop offset="0" style="stop-color:#0f9"/><stop offset="1" style="stop-color:#3cf"/></linearGradient><path d="M2144.8 2525.7s161.3-54.6 254.3 30.8c93 85.5 243 123 243 123s133.5 12 183 121.5c0 0 21 49.5 45 55.5s109.5-13.5 139.5 0 86.5 58.5 86.5 58.5" style="fill:none;stroke:url(#e);stroke-width:30;stroke-miterlimit:10"/><linearGradient id="f" gradientUnits="userSpaceOnUse" x1="958.083" y1="403.9" x2="2345.013" y2="403.9"><stop offset="0" style="stop-color:#0f9"/><stop offset="1" style="stop-color:#3cf"/></linearGradient><path d="M2329.9 694.8s8.5-255-144.3-288c0 0 30.3-33 12.3-66s-156-150-237-135c0 0-36-39-84-30s-3-87-363-30-321 66-405 132-132 156-144 162" style="fill:none;stroke:url(#f);stroke-width:30;stroke-miterlimit:10"/><linearGradient id="g" gradientUnits="userSpaceOnUse" x1="578.366" y1="1238.815" x2="1251.383" y2="1238.815"><stop offset="0" style="stop-color:#0f9"/><stop offset="1" style="stop-color:#3cf"/></linearGradient><path d="M1237.5 2202.7s-104.7-259.8-182.7-262.8c-78-3-39 6-78-3s-72-165-108-186-12-171-12-171-27-45-48-96-57-156-33-204-123-120-135-276-81-324-27-399 156.9-363.1 480.5-315" style="fill:none;stroke:url(#g);stroke-width:30;stroke-miterlimit:10"/><linearGradient id="h" gradientUnits="userSpaceOnUse" x1="448.741" y1="1415.677" x2="865.569" y2="1415.677"><stop offset="0" style="stop-color:#0f9"/><stop offset="1" style="stop-color:#3cf"/></linearGradient><path d="M617.3 852.1S418 932 496 1122s154.7 74 97.4 256-129.6 225.9-129.6 339.9c0 0 168-213.7 198-169.9s21 373.9 0 424.9 173.8-288 190.4-255" style="fill:none;stroke:url(#h);stroke-width:30;stroke-miterlimit:10"/></svg>