<svg xmlns="http://www.w3.org/2000/svg" viewBox="0 0 3096 3096" style="enable-background:new 0 0 3096 3096" xml:space="preserve"><linearGradient id="a" gradientUnits="userSpaceOnUse" x1="3.683" y1="1570.049" x2="2996.967" y2="1570.049"><stop offset="0" style="stop-color:#0f9"/><stop offset="1" style="stop-color:#3cf"/></linearGradient><path d="M2982 2792c-4-60-192-540-192-540s-132-292-132-664-148-804-156-856-160-396-316-528-452-156-508-148-112 36-112 36-104-72-192 12c0 0-556 260-672 956 0 0-184 630.6-136 957.3S270 2792 270 2792 38 3032 18 3096" style="fill:none;stroke:url(#a);stroke-width:30;stroke-miterlimit:10"/><linearGradient id="b" gradientUnits="userSpaceOnUse" x1="903.625" y1="1709.183" x2="2318.555" y2="1709.183"><stop offset="0" style="stop-color:#0f9"/><stop offset="1" style="stop-color:#3cf"/></linearGradient><path d="M943.6 1076.3S910 1537.7 922 1474.9c12-62.9-64 263.8 156 542.5 0 0 82.1 164.2 163.1 219.7s70.8 54.4 192.9 91c0 0 200 8 368-88s292-424 292-424l48-101.1 24.5-55.3s79.8 55.3 141.2-9.1" style="fill:none;stroke:url(#b);stroke-width:30;stroke-miterlimit:10"/><linearGradient id="c" gradientUnits="userSpaceOnUse" x1="560.619" y1="2886.639" x2="776.406" y2="2886.639"><stop offset="0" style="stop-color:#0f9"/><stop offset="1" style="stop-color:#3cf"/></linearGradient><path d="M574 3096s103.1-203.5 188.5-420" style="fill:none;stroke:url(#c);stroke-width:30;stroke-miterlimit:10"/><linearGradient id="d" gradientUnits="userSpaceOnUse" x1="2090.595" y1="2040.887" x2="2182.819" y2="2040.887"><stop offset="0" style="stop-color:#0f9"/><stop offset="1" style="stop-color:#3cf"/></linearGradient><path d="M2126.8 1746.9s-69.9 432.5 44.1 581.3" style="fill:none;stroke:url(#d);stroke-width:30;stroke-miterlimit:10"/><linearGradient id="e" gradientUnits="userSpaceOnUse" x1="946.394" y1="2644.814" x2="1222.178" y2="2644.814"><stop offset="0" style="stop-color:#0f9"/><stop offset="1" style="stop-color:#3cf"/></linearGradient><path d="M964.8 3096s-14.1-391.9 15.1-548.8c4.3-23.3 9.6-41.4 16.1-52.3 49.8-84 160.9 40.3 160.9 40.3s79.8-77.4 38.5-339.8" style="fill:none;stroke:url(#e);stroke-width:30;stroke-miterlimit:10"/><linearGradient id="f" gradientUnits="userSpaceOnUse" x1="755.435" y1="2595.954" x2="999.387" y2="2595.954"><stop offset="0" style="stop-color:#0f9"/><stop offset="1" style="stop-color:#3cf"/></linearGradient><path d="M762.5 2676s148.2-78.4 225.9-163.2" style="fill:none;stroke:url(#f);stroke-width:30;stroke-miterlimit:10"/><linearGradient id="g" gradientUnits="userSpaceOnUse" x1="-10.636" y1="2736.443" x2="383.631" y2="2736.443"><stop offset="0" style="stop-color:#0f9"/><stop offset="1" style="stop-color:#3cf"/></linearGradient><path d="M0 2855s241.3-242.7 382.5-232.3" style="fill:none;stroke:url(#g);stroke-width:30;stroke-miterlimit:10"/><linearGradient id="h" gradientUnits="userSpaceOnUse" x1="1616.462" y1="2694.56" x2="3103.459" y2="2694.56"><stop offset="0" style="stop-color:#0f9"/><stop offset="1" style="stop-color:#3cf"/></linearGradient><path d="M3096 2855s-146-83.7-270-116.3-661-418.7-661-418.7c15 92-243 356-243 356-166 6-160 202-160 202-28 0-132 218-132 218" style="fill:none;stroke:url(#h);stroke-width:30;stroke-miterlimit:10"/><linearGradient id="i" gradientUnits="userSpaceOnUse" x1="860.567" y1="1453.635" x2="2325" y2="1453.635"><stop offset="0" style="stop-color:#0f9"/><stop offset="1" style="stop-color:#3cf"/></linearGradient><path d="M2257 2385.1s-3.9-31.1-3-65.1c2.5-88.1 56-272 56-548 0-230-25-404.4-33.3-456.2-.9-5.5-8.1-6.9-11-2.2l-97 158.5c-3 4.9-10.6 2.2-9.8-3.5 8.1-56.2 18.8-193.4-32.9-360.6-68-220-196-260-196-260-216-92-464-312-464-312-276 32-592 668-592 668" style="fill:none;stroke:url(#i);stroke-width:30;stroke-miterlimit:10"/></svg>