<svg version="1.1" id="Capa_1" xmlns="http://www.w3.org/2000/svg" x="0" y="0" viewBox="-44 -146 612 792" style="enable-background:new -44 -146 612 792" xml:space="preserve"><style>.st10{fill:none;stroke:#fff;stroke-width:5;stroke-miterlimit:10}</style><linearGradient id="SVGID_1_" gradientUnits="userSpaceOnUse" x1="111.196" y1="-15895.748" x2="119.798" y2="-15895.748" gradientTransform="matrix(1 0 0 -1 0 -15884)"><stop offset="0" style="stop-color:#3f00fc"/><stop offset="1" style="stop-color:#7f00ff"/></linearGradient><linearGradient id="SVGID_2_" gradientUnits="userSpaceOnUse" x1="110.696" y1="-15895.748" x2="120.298" y2="-15895.748" gradientTransform="matrix(1 0 0 -1 0 -15884)"><stop offset="0" style="stop-color:#3f00fc"/><stop offset="1" style="stop-color:#7f00ff"/></linearGradient><circle cx="115.5" cy="11.7" r="4.3" style="fill:url(#SVGID_1_);stroke:url(#SVGID_2_);stroke-miterlimit:10"/><linearGradient id="SVGID_3_" gradientUnits="userSpaceOnUse" x1="110.347" y1="-15844.267" x2="118.949" y2="-15844.267" gradientTransform="matrix(1 0 0 -1 0 -15884)"><stop offset="0" style="stop-color:#3f00fc"/><stop offset="1" style="stop-color:#7f00ff"/></linearGradient><linearGradient id="SVGID_4_" gradientUnits="userSpaceOnUse" x1="109.847" y1="-15844.267" x2="119.449" y2="-15844.267" gradientTransform="matrix(1 0 0 -1 0 -15884)"><stop offset="0" style="stop-color:#3f00fc"/><stop offset="1" style="stop-color:#7f00ff"/></linearGradient><circle cx="114.6" cy="-39.7" r="4.3" style="fill:url(#SVGID_3_);stroke:url(#SVGID_4_);stroke-miterlimit:10"/><linearGradient id="SVGID_5_" gradientUnits="userSpaceOnUse" x1="112.819" y1="-15945.374" x2="121.421" y2="-15945.374" gradientTransform="matrix(1 0 0 -1 0 -15884)"><stop offset="0" style="stop-color:#3f00fc"/><stop offset="1" style="stop-color:#7f00ff"/></linearGradient><linearGradient id="SVGID_6_" gradientUnits="userSpaceOnUse" x1="112.319" y1="-15945.374" x2="121.921" y2="-15945.374" gradientTransform="matrix(1 0 0 -1 0 -15884)"><stop offset="0" style="stop-color:#3f00fc"/><stop offset="1" style="stop-color:#7f00ff"/></linearGradient><circle cx="117.1" cy="61.4" r="4.3" style="fill:url(#SVGID_5_);stroke:url(#SVGID_6_);stroke-miterlimit:10"/><linearGradient id="SVGID_7_" gradientUnits="userSpaceOnUse" x1="114.536" y1="-15996.301" x2="123.138" y2="-15996.301" gradientTransform="matrix(1 0 0 -1 0 -15884)"><stop offset="0" style="stop-color:#3f00fc"/><stop offset="1" style="stop-color:#7f00ff"/></linearGradient><linearGradient id="SVGID_8_" gradientUnits="userSpaceOnUse" x1="114.036" y1="-15996.301" x2="123.638" y2="-15996.301" gradientTransform="matrix(1 0 0 -1 0 -15884)"><stop offset="0" style="stop-color:#3f00fc"/><stop offset="1" style="stop-color:#7f00ff"/></linearGradient><circle cx="118.8" cy="112.3" r="4.3" style="fill:url(#SVGID_7_);stroke:url(#SVGID_8_);stroke-miterlimit:10"/><linearGradient id="SVGID_9_" gradientUnits="userSpaceOnUse" x1="58.631" y1="-15807.942" x2="67.233" y2="-15807.942" gradientTransform="matrix(1 0 0 -1 0 -15884)"><stop offset="0" style="stop-color:#3f00fc"/><stop offset="1" style="stop-color:#7f00ff"/></linearGradient><circle cx="62.9" cy="-76.1" r="4.3" style="fill:url(#SVGID_9_)"/><linearGradient id="SVGID_10_" gradientUnits="userSpaceOnUse" x1="58.928" y1="-15858.858" x2="67.529" y2="-15858.858" gradientTransform="matrix(1 0 0 -1 0 -15884)"><stop offset="0" style="stop-color:#3f00fc"/><stop offset="1" style="stop-color:#7f00ff"/></linearGradient><circle cx="63.2" cy="-25.1" r="4.3" style="fill:url(#SVGID_10_)"/><linearGradient id="SVGID_11_" gradientUnits="userSpaceOnUse" x1="59.244" y1="-15906.996" x2="67.845" y2="-15906.996" gradientTransform="matrix(1 0 0 -1 0 -15884)"><stop offset="0" style="stop-color:#3f00fc"/><stop offset="1" style="stop-color:#7f00ff"/></linearGradient><circle cx="63.5" cy="23" r="4.3" style="fill:url(#SVGID_11_)"/><linearGradient id="SVGID_12_" gradientUnits="userSpaceOnUse" x1="60.35" y1="-15959.522" x2="68.952" y2="-15959.522" gradientTransform="matrix(1 0 0 -1 0 -15884)"><stop offset="0" style="stop-color:#3f00fc"/><stop offset="1" style="stop-color:#7f00ff"/></linearGradient><circle cx="64.7" cy="75.5" r="4.3" style="fill:url(#SVGID_12_)"/><linearGradient id="SVGID_13_" gradientUnits="userSpaceOnUse" x1="183.2" y1="27.61" x2="339.3" y2="27.61"><stop offset="0" style="stop-color:#3f00fc"/><stop offset="1" style="stop-color:#7f00ff"/></linearGradient><path style="fill:none;stroke:url(#SVGID_13_);stroke-width:5;stroke-miterlimit:10" d="m261.6 114.3-75.9-43.4v-88.4l75.9-41.6 75.2 42.8v87.2z"/><linearGradient id="SVGID_14_" gradientUnits="userSpaceOnUse" x1="184.456" y1="4.708" x2="336.651" y2="4.708"><stop offset="0" style="stop-color:#3f00fc"/><stop offset="1" style="stop-color:#7f00ff"/></linearGradient><path style="fill:none;stroke:url(#SVGID_14_);stroke-width:5;stroke-miterlimit:10" d="m185.7-17.5 76.2 43.7 73.5-42.5"/><path class="st10" d="M213 89.1 33.4 191.8v262.1l229.5 127.9L490 452v-23"/><path class="st10" d="m310 89.2 180 100.7V278.3L262.6 410.1 33.4 281.4"/><path class="st10" d="m33.4 191.8 230.1 130.8L490 189.9"/><path class="st10" d="M108.9 496V235.1l227.8-131.3"/><path class="st10" d="M110.3 147.8 339 277.5l.4 88.5-1 87M185.7 538.5l1.1-85.4-153.4-84.9M338.4 538.6V453l76.1-43.3.3 85.8"/><linearGradient id="SVGID_15_" gradientUnits="userSpaceOnUse" x1="184.958" y1="273.042" x2="548.606" y2="273.042"><stop offset="0" style="stop-color:#3f00fc"/><stop offset="1" style="stop-color:#7f00ff"/></linearGradient><path style="fill:none;stroke:url(#SVGID_15_);stroke-width:5;stroke-miterlimit:10" d="m544.3 310.4-73.5 41.7-53.4-31 73.2-42.2 54.7 30.3.8 88.4-76 43.4-55-30.7-.6-176.2-228.3-129.7"/><path class="st10" d="m261.3 146.8.7 87.2M186.8 453.1l-.7-86.3v-88.7L413 146.8"/><linearGradient id="SVGID_16_" gradientUnits="userSpaceOnUse" x1="183.096" y1="459.432" x2="342.42" y2="459.432"><stop offset="0" style="stop-color:#3f00fc"/><stop offset="1" style="stop-color:#7f00ff"/></linearGradient><path style="fill:none;stroke:url(#SVGID_16_);stroke-width:6;stroke-miterlimit:10" d="m307.3 384.7 32.1 18.1-1 88.2-75.8 42.4-76.3-43.4-.2-88.4 28.1-15.9 2.1-1"/><linearGradient id="SVGID_17_" gradientUnits="userSpaceOnUse" x1="184.616" y1="423.867" x2="340.857" y2="423.867"><stop offset="0" style="stop-color:#3f00fc"/><stop offset="1" style="stop-color:#7f00ff"/></linearGradient><path style="fill:none;stroke:url(#SVGID_17_);stroke-width:6;stroke-miterlimit:10" d="m186.1 401.6 76.8 43.7 76.5-42.5"/><linearGradient id="SVGID_18_" gradientUnits="userSpaceOnUse" x1="259.6" y1="489.35" x2="265.9" y2="489.35"><stop offset="0" style="stop-color:#3f00fc"/><stop offset="1" style="stop-color:#7f00ff"/></linearGradient><path style="fill:none;stroke:url(#SVGID_18_);stroke-width:6;stroke-miterlimit:10" d="m262.6 533.4.3-88.1"/><path class="st10" d="m186.1 366.8 76.5 43.3 76.8-44.1M187.2 105.1l226.4 128.4.9 186"/><path class="st10" d="m413 322.9 77.6-44-.6-15.9"/></svg>