<svg xmlns="http://www.w3.org/2000/svg" viewBox="0 0 612 792" style="enable-background:new 0 0 612 792" xml:space="preserve"><style>.st2{fill:none;stroke:#fff;stroke-width:5;stroke-miterlimit:10}.st5{fill:#3c019e}.st6{fill:#03105b}.st38{fill:none;stroke:#00d1b2;stroke-width:5;stroke-miterlimit:10}.st87{fill:#00d1b2}</style><g id="Layer_01"><path class="st2" d="M229.6 447.9v-88.4l75.8-41.5 75.2 41.5v88.4l-75.2 43.5z"/><linearGradient id="SVGID_1_" gradientUnits="userSpaceOnUse" x1="229.337" y1="425.234" x2="305.945" y2="425.234"><stop offset="0" style="stop-color:#66f"/><stop offset="1" style="stop-color:#897de4"/></linearGradient><path style="fill:none;stroke:url(#SVGID_1_);stroke-miterlimit:10" d="M305.4 491.4V403l-75.8-43.5"/><linearGradient id="SVGID_2_" gradientUnits="userSpaceOnUse" x1="305.195" y1="381.258" x2="380.867" y2="381.258"><stop offset="0" style="stop-color:#66f"/><stop offset="1" style="stop-color:#897de4"/></linearGradient><path style="fill:none;stroke:url(#SVGID_2_);stroke-miterlimit:10" d="M380.6 359.5 305.4 403"/><path class="st5" d="M231.6 447.3v-86.5l74.2-40.6 73.5 40.6v86.5l-73.5 42.4z"/><path class="st5" d="M305.8 489.7v-86.4l-74.2-42.5"/><path class="st6" d="m379.3 360.8-73.5 42.5"/><linearGradient id="SVGID_3_" gradientUnits="userSpaceOnUse" x1="304.583" y1="403.791" x2="307.533" y2="403.791"><stop offset="0" style="stop-color:#66f"/><stop offset="1" style="stop-color:#897de4"/></linearGradient><path d="m304.6 404.6 1.5-2.1 1.4 2.1s-1 .9-2.9 0z" style="fill:url(#SVGID_3_)"/><path class="st2" d="m306.1 403.3-74.2-42.5M379.6 360.8l-73.5 42.5M305.8 490v-88.4l75.8-41.6 75.2 41.6V490l-75.2 43.4z"/><linearGradient id="SVGID_4_" gradientUnits="userSpaceOnUse" x1="305.507" y1="467.268" x2="382.115" y2="467.268"><stop offset="0" style="stop-color:#66f"/><stop offset="1" style="stop-color:#897de4"/></linearGradient><path style="fill:none;stroke:url(#SVGID_4_);stroke-miterlimit:10" d="M381.6 533.4V445l-75.8-43.4"/><linearGradient id="SVGID_5_" gradientUnits="userSpaceOnUse" x1="381.365" y1="423.291" x2="457.037" y2="423.291"><stop offset="0" style="stop-color:#66f"/><stop offset="1" style="stop-color:#897de4"/></linearGradient><path style="fill:none;stroke:url(#SVGID_5_);stroke-miterlimit:10" d="M456.8 401.6 381.6 445"/><path class="st5" d="M307.7 489.3v-86.5l74.2-40.6 73.6 40.6v86.5l-73.6 42.5z"/><path class="st5" d="M381.9 531.8v-86.5l-74.2-42.5"/><path class="st6" d="m455.5 402.8-73.6 42.5"/><linearGradient id="SVGID_6_" gradientUnits="userSpaceOnUse" x1="380.753" y1="445.825" x2="383.703" y2="445.825"><stop offset="0" style="stop-color:#66f"/><stop offset="1" style="stop-color:#897de4"/></linearGradient><path d="m380.8 446.7 1.5-2.1 1.4 2.1s-1 .9-2.9 0z" style="fill:url(#SVGID_6_)"/><path class="st2" d="m382.3 445.3-74.2-42.5M455.8 402.8l-73.5 42.5M383 534v-88.3l75.8-41.6 75.2 41.6V534l-75.2 43.5z"/><linearGradient id="SVGID_7_" gradientUnits="userSpaceOnUse" x1="382.703" y1="511.348" x2="459.31" y2="511.348"><stop offset="0" style="stop-color:#66f"/><stop offset="1" style="stop-color:#897de4"/></linearGradient><path style="fill:none;stroke:url(#SVGID_7_);stroke-miterlimit:10" d="M458.8 577.5v-88.4L383 445.7"/><linearGradient id="SVGID_8_" gradientUnits="userSpaceOnUse" x1="458.56" y1="467.372" x2="534.233" y2="467.372"><stop offset="0" style="stop-color:#66f"/><stop offset="1" style="stop-color:#897de4"/></linearGradient><path style="fill:none;stroke:url(#SVGID_8_);stroke-miterlimit:10" d="m534 445.7-75.2 43.4"/><path class="st5" d="M384.9 533.4v-86.5l74.2-40.6 73.6 40.6v86.5l-73.6 42.4z"/><path class="st5" d="M459.1 575.8v-86.4l-74.2-42.5"/><path class="st6" d="m532.7 446.9-73.6 42.5"/><linearGradient id="SVGID_9_" gradientUnits="userSpaceOnUse" x1="457.948" y1="489.905" x2="460.898" y2="489.905"><stop offset="0" style="stop-color:#66f"/><stop offset="1" style="stop-color:#897de4"/></linearGradient><path d="m457.9 490.7 1.5-2.1 1.4 2.1c.1 0-.9.9-2.9 0z" style="fill:url(#SVGID_9_)"/><path class="st2" d="m459.5 489.4-74.3-42.5M533 446.9l-73.5 42.5M153.6 491.6v-88.4l75.8-41.6 75.2 41.6v88.4L229.4 535z"/><linearGradient id="SVGID_10_" gradientUnits="userSpaceOnUse" x1="153.303" y1="468.858" x2="229.91" y2="468.858"><stop offset="0" style="stop-color:#66f"/><stop offset="1" style="stop-color:#897de4"/></linearGradient><path style="fill:none;stroke:url(#SVGID_10_);stroke-miterlimit:10" d="M229.4 535v-88.4l-75.8-43.4"/><linearGradient id="SVGID_11_" gradientUnits="userSpaceOnUse" x1="229.16" y1="424.882" x2="304.833" y2="424.882"><stop offset="0" style="stop-color:#66f"/><stop offset="1" style="stop-color:#897de4"/></linearGradient><path style="fill:none;stroke:url(#SVGID_11_);stroke-miterlimit:10" d="m304.6 403.2-75.2 43.4"/><path class="st5" d="M155.5 490.9v-86.5l74.2-40.6 73.6 40.6v86.5l-73.6 42.4z"/><path class="st5" d="M229.7 533.3v-86.4l-74.2-42.5"/><path class="st6" d="m303.3 404.4-73.6 42.5"/><linearGradient id="SVGID_12_" gradientUnits="userSpaceOnUse" x1="228.549" y1="447.415" x2="231.498" y2="447.415"><stop offset="0" style="stop-color:#66f"/><stop offset="1" style="stop-color:#897de4"/></linearGradient><path d="m228.5 448.2 1.5-2.1 1.4 2.1c.1 0-.9.9-2.9 0z" style="fill:url(#SVGID_12_)"/><path class="st2" d="m230.1 446.9-74.3-42.5M303.6 404.4l-73.5 42.5M229.7 533.6v-88.4l75.9-41.6 75.2 41.6v88.4L305.6 577z"/><linearGradient id="SVGID_13_" gradientUnits="userSpaceOnUse" x1="229.473" y1="510.891" x2="306.08" y2="510.891"><stop offset="0" style="stop-color:#66f"/><stop offset="1" style="stop-color:#897de4"/></linearGradient><path style="fill:none;stroke:url(#SVGID_13_);stroke-miterlimit:10" d="M305.6 577v-88.4l-75.9-43.4"/><linearGradient id="SVGID_14_" gradientUnits="userSpaceOnUse" x1="305.33" y1="466.915" x2="381.003" y2="466.915"><stop offset="0" style="stop-color:#66f"/><stop offset="1" style="stop-color:#897de4"/></linearGradient><path style="fill:none;stroke:url(#SVGID_14_);stroke-miterlimit:10" d="m380.8 445.2-75.2 43.4"/><path class="st5" d="M231.7 532.9v-86.4l74.2-40.7 73.5 40.7v86.4l-73.5 42.5z"/><path class="st5" d="M305.9 575.4v-86.5l-74.2-42.4"/><path class="st6" d="m379.4 446.5-73.5 42.4"/><linearGradient id="SVGID_15_" gradientUnits="userSpaceOnUse" x1="304.719" y1="489.448" x2="307.668" y2="489.448"><stop offset="0" style="stop-color:#66f"/><stop offset="1" style="stop-color:#897de4"/></linearGradient><path d="m304.7 490.3 1.5-2.1 1.4 2.1c.1 0-.9.9-2.9 0z" style="fill:url(#SVGID_15_)"/><path class="st2" d="M306.2 488.9 232 446.5M379.8 446.5l-73.6 42.4M306.9 577.7v-88.4l75.9-41.6 75.1 41.6v88.4l-75.1 43.4z"/><linearGradient id="SVGID_16_" gradientUnits="userSpaceOnUse" x1="306.668" y1="554.972" x2="383.276" y2="554.972"><stop offset="0" style="stop-color:#66f"/><stop offset="1" style="stop-color:#897de4"/></linearGradient><path style="fill:none;stroke:url(#SVGID_16_);stroke-miterlimit:10" d="M382.8 621.1v-88.4l-75.9-43.4"/><linearGradient id="SVGID_17_" gradientUnits="userSpaceOnUse" x1="382.526" y1="510.995" x2="458.199" y2="510.995"><stop offset="0" style="stop-color:#66f"/><stop offset="1" style="stop-color:#897de4"/></linearGradient><path style="fill:none;stroke:url(#SVGID_17_);stroke-miterlimit:10" d="m457.9 489.3-75.1 43.4"/><path class="st5" d="M308.9 577v-86.5l74.2-40.6 73.5 40.6V577l-73.5 42.5z"/><path class="st5" d="M383.1 619.5V533l-74.2-42.5"/><path class="st6" d="M456.6 490.5 383.1 533"/><linearGradient id="SVGID_18_" gradientUnits="userSpaceOnUse" x1="381.914" y1="533.529" x2="384.864" y2="533.529"><stop offset="0" style="stop-color:#66f"/><stop offset="1" style="stop-color:#897de4"/></linearGradient><path d="m381.9 534.4 1.5-2.1 1.4 2.1c.1 0-1 .9-2.9 0z" style="fill:url(#SVGID_18_)"/><path class="st2" d="m383.4 533-74.2-42.5M457 490.5 383.4 533M77.4 535.9v-88.3l75.8-41.6 75.2 41.6v88.3l-75.2 43.5z"/><linearGradient id="SVGID_19_" gradientUnits="userSpaceOnUse" x1="77.139" y1="513.239" x2="153.746" y2="513.239"><stop offset="0" style="stop-color:#66f"/><stop offset="1" style="stop-color:#897de4"/></linearGradient><path style="fill:none;stroke:url(#SVGID_19_);stroke-miterlimit:10" d="M153.2 579.4V491l-75.8-43.4"/><linearGradient id="SVGID_20_" gradientUnits="userSpaceOnUse" x1="152.996" y1="469.263" x2="228.669" y2="469.263"><stop offset="0" style="stop-color:#66f"/><stop offset="1" style="stop-color:#897de4"/></linearGradient><path style="fill:none;stroke:url(#SVGID_20_);stroke-miterlimit:10" d="M228.4 447.6 153.2 491"/><path class="st5" d="M79.4 535.3v-86.5l74.2-40.6 73.5 40.6v86.5l-73.5 42.4z"/><path class="st5" d="M153.6 577.7v-86.4l-74.2-42.5"/><path class="st6" d="m227.1 448.8-73.5 42.5"/><linearGradient id="SVGID_21_" gradientUnits="userSpaceOnUse" x1="152.384" y1="491.796" x2="155.334" y2="491.796"><stop offset="0" style="stop-color:#66f"/><stop offset="1" style="stop-color:#897de4"/></linearGradient><path d="m152.4 492.6 1.5-2.1 1.4 2.1s-1 .9-2.9 0z" style="fill:url(#SVGID_21_)"/><path class="st2" d="m153.9 491.3-74.2-42.5M227.4 448.8l-73.5 42.5M153.6 578v-88.4l75.8-41.6 75.2 41.6V578l-75.2 43.4z"/><linearGradient id="SVGID_22_" gradientUnits="userSpaceOnUse" x1="153.309" y1="555.273" x2="229.916" y2="555.273"><stop offset="0" style="stop-color:#66f"/><stop offset="1" style="stop-color:#897de4"/></linearGradient><path style="fill:none;stroke:url(#SVGID_22_);stroke-miterlimit:10" d="M229.4 621.4V533l-75.8-43.4"/><linearGradient id="SVGID_23_" gradientUnits="userSpaceOnUse" x1="229.166" y1="511.296" x2="304.839" y2="511.296"><stop offset="0" style="stop-color:#66f"/><stop offset="1" style="stop-color:#897de4"/></linearGradient><path style="fill:none;stroke:url(#SVGID_23_);stroke-miterlimit:10" d="M304.6 489.6 229.4 533"/><path class="st5" d="M155.5 577.3v-86.5l74.2-40.6 73.6 40.6v86.5l-73.6 42.5z"/><path class="st5" d="M229.7 619.8v-86.5l-74.2-42.5"/><path class="st6" d="m303.3 490.8-73.6 42.5"/><linearGradient id="SVGID_24_" gradientUnits="userSpaceOnUse" x1="228.554" y1="533.83" x2="231.504" y2="533.83"><stop offset="0" style="stop-color:#66f"/><stop offset="1" style="stop-color:#897de4"/></linearGradient><path d="m228.6 534.7 1.5-2.1 1.4 2.1s-1 .9-2.9 0z" style="fill:url(#SVGID_24_)"/><path class="st2" d="m230.1 533.3-74.2-42.5M303.6 490.8l-73.5 42.5M230.8 622.1v-88.4l75.8-41.6 75.2 41.6v88.4l-75.2 43.4z"/><linearGradient id="SVGID_25_" gradientUnits="userSpaceOnUse" x1="230.504" y1="599.353" x2="307.111" y2="599.353"><stop offset="0" style="stop-color:#66f"/><stop offset="1" style="stop-color:#897de4"/></linearGradient><path style="fill:none;stroke:url(#SVGID_25_);stroke-miterlimit:10" d="M306.6 665.5v-88.4l-75.8-43.4"/><linearGradient id="SVGID_26_" gradientUnits="userSpaceOnUse" x1="306.361" y1="555.377" x2="382.034" y2="555.377"><stop offset="0" style="stop-color:#66f"/><stop offset="1" style="stop-color:#897de4"/></linearGradient><path style="fill:none;stroke:url(#SVGID_26_);stroke-miterlimit:10" d="m381.8 533.7-75.2 43.4"/><path class="st5" d="M232.7 621.4v-86.5l74.2-40.6 73.6 40.6v86.5l-73.6 42.4z"/><path class="st5" d="M306.9 663.8v-86.4l-74.2-42.5"/><path class="st6" d="m380.5 534.9-73.6 42.5"/><linearGradient id="SVGID_27_" gradientUnits="userSpaceOnUse" x1="305.75" y1="577.91" x2="308.7" y2="577.91"><stop offset="0" style="stop-color:#66f"/><stop offset="1" style="stop-color:#897de4"/></linearGradient><path d="m305.7 578.7 1.5-2.1 1.4 2.1c.1 0-.9.9-2.9 0z" style="fill:url(#SVGID_27_)"/><path class="st2" d="m307.3 577.4-74.2-42.5M380.8 534.9l-73.5 42.5M229.6 361.1v-88.3l75.8-41.6 75.2 41.6v88.3l-75.2 43.5z"/><linearGradient id="SVGID_28_" gradientUnits="userSpaceOnUse" x1="229.337" y1="338.44" x2="305.945" y2="338.44"><stop offset="0" style="stop-color:#66f"/><stop offset="1" style="stop-color:#897de4"/></linearGradient><path style="fill:none;stroke:url(#SVGID_28_);stroke-miterlimit:10" d="M305.4 404.6v-88.4l-75.8-43.4"/><linearGradient id="SVGID_29_" gradientUnits="userSpaceOnUse" x1="305.195" y1="294.464" x2="380.867" y2="294.464"><stop offset="0" style="stop-color:#66f"/><stop offset="1" style="stop-color:#897de4"/></linearGradient><path style="fill:none;stroke:url(#SVGID_29_);stroke-miterlimit:10" d="m380.6 272.8-75.2 43.4"/><path class="st5" d="M231.6 360.5V274l74.2-40.6 73.5 40.6v86.5l-73.5 42.4z"/><path class="st5" d="M305.8 402.9v-86.4L231.6 274"/><path class="st6" d="m379.3 274-73.5 42.5"/><linearGradient id="SVGID_30_" gradientUnits="userSpaceOnUse" x1="304.583" y1="316.998" x2="307.533" y2="316.998"><stop offset="0" style="stop-color:#66f"/><stop offset="1" style="stop-color:#897de4"/></linearGradient><path d="m304.6 317.8 1.5-2.1 1.4 2.1s-1 .9-2.9 0z" style="fill:url(#SVGID_30_)"/><path class="st2" d="M306.1 316.5 231.9 274M379.6 274l-73.5 42.5M305.8 403.2v-88.4l75.8-41.6 75.2 41.6v88.4l-75.2 43.4z"/><linearGradient id="SVGID_31_" gradientUnits="userSpaceOnUse" x1="305.507" y1="380.474" x2="382.115" y2="380.474"><stop offset="0" style="stop-color:#66f"/><stop offset="1" style="stop-color:#897de4"/></linearGradient><path style="fill:none;stroke:url(#SVGID_31_);stroke-miterlimit:10" d="M381.6 446.6v-88.4l-75.8-43.4"/><linearGradient id="SVGID_32_" gradientUnits="userSpaceOnUse" x1="381.365" y1="336.498" x2="457.037" y2="336.498"><stop offset="0" style="stop-color:#66f"/><stop offset="1" style="stop-color:#897de4"/></linearGradient><path style="fill:none;stroke:url(#SVGID_32_);stroke-miterlimit:10" d="m456.8 314.8-75.2 43.4"/><path class="st5" d="M307.7 402.5V316l74.2-40.6 73.6 40.6v86.5L381.9 445z"/><path class="st5" d="M381.9 445v-86.5L307.7 316"/><path class="st6" d="m455.5 316-73.6 42.5"/><linearGradient id="SVGID_33_" gradientUnits="userSpaceOnUse" x1="380.753" y1="359.031" x2="383.703" y2="359.031"><stop offset="0" style="stop-color:#66f"/><stop offset="1" style="stop-color:#897de4"/></linearGradient><path d="m380.8 359.9 1.5-2.1 1.4 2.1s-1 .9-2.9 0z" style="fill:url(#SVGID_33_)"/><path class="st2" d="M382.3 358.5 308.1 316M455.8 316l-73.5 42.5"/><path class="st38" d="M437.7 478.9v-88.3l75.8-41.6 75.2 41.6v88.3l-75.2 43.5z"/><linearGradient id="SVGID_34_" gradientUnits="userSpaceOnUse" x1="437.429" y1="456.242" x2="514.037" y2="456.242"><stop offset="0" style="stop-color:#66f"/><stop offset="1" style="stop-color:#897de4"/></linearGradient><path style="fill:none;stroke:url(#SVGID_34_);stroke-miterlimit:10" d="M513.5 522.4V434l-75.8-43.4"/><linearGradient id="SVGID_35_" gradientUnits="userSpaceOnUse" x1="513.287" y1="412.266" x2="588.96" y2="412.266"><stop offset="0" style="stop-color:#66f"/><stop offset="1" style="stop-color:#897de4"/></linearGradient><path style="fill:none;stroke:url(#SVGID_35_);stroke-miterlimit:10" d="M588.7 390.6 513.5 434"/><path class="st5" d="M439.6 478.3v-86.5l74.2-40.6 73.6 40.6v86.5l-73.6 42.4z"/><path class="st5" d="M513.8 520.7v-86.4l-74.2-42.5"/><path class="st6" d="m587.4 391.8-73.6 42.5"/><linearGradient id="SVGID_36_" gradientUnits="userSpaceOnUse" x1="512.675" y1="434.799" x2="515.625" y2="434.799"><stop offset="0" style="stop-color:#66f"/><stop offset="1" style="stop-color:#897de4"/></linearGradient><path d="m512.7 435.6 1.5-2.1 1.4 2.1s-1 .9-2.9 0z" style="fill:url(#SVGID_36_)"/><path class="st38" d="M514.2 434.3 440 391.8M587.7 391.8l-73.5 42.5"/><path class="st2" d="M153.6 404.8v-88.4l75.8-41.6 75.2 41.6v88.4l-75.2 43.4z"/><linearGradient id="SVGID_37_" gradientUnits="userSpaceOnUse" x1="153.303" y1="382.064" x2="229.91" y2="382.064"><stop offset="0" style="stop-color:#66f"/><stop offset="1" style="stop-color:#897de4"/></linearGradient><path style="fill:none;stroke:url(#SVGID_37_);stroke-miterlimit:10" d="M229.4 448.2v-88.4l-75.8-43.4"/><linearGradient id="SVGID_38_" gradientUnits="userSpaceOnUse" x1="229.16" y1="338.088" x2="304.833" y2="338.088"><stop offset="0" style="stop-color:#66f"/><stop offset="1" style="stop-color:#897de4"/></linearGradient><path style="fill:none;stroke:url(#SVGID_38_);stroke-miterlimit:10" d="m304.6 316.4-75.2 43.4"/><path class="st5" d="M155.5 404.1v-86.5l74.2-40.6 73.6 40.6v86.5l-73.6 42.5z"/><path class="st5" d="M229.7 446.6v-86.5l-74.2-42.5"/><path class="st6" d="m303.3 317.6-73.6 42.5"/><linearGradient id="SVGID_39_" gradientUnits="userSpaceOnUse" x1="228.549" y1="360.621" x2="231.498" y2="360.621"><stop offset="0" style="stop-color:#66f"/><stop offset="1" style="stop-color:#897de4"/></linearGradient><path d="m228.5 361.5 1.5-2.1 1.4 2.1c.1 0-.9.9-2.9 0z" style="fill:url(#SVGID_39_)"/><path class="st2" d="m230.1 360.1-74.3-42.5M303.6 317.6l-73.5 42.5M229.7 446.8v-88.4l75.9-41.5 75.2 41.5v88.4l-75.2 43.4z"/><linearGradient id="SVGID_40_" gradientUnits="userSpaceOnUse" x1="229.473" y1="424.097" x2="306.08" y2="424.097"><stop offset="0" style="stop-color:#66f"/><stop offset="1" style="stop-color:#897de4"/></linearGradient><path style="fill:none;stroke:url(#SVGID_40_);stroke-miterlimit:10" d="M305.6 490.2v-88.4l-75.9-43.4"/><linearGradient id="SVGID_41_" gradientUnits="userSpaceOnUse" x1="305.33" y1="380.121" x2="381.003" y2="380.121"><stop offset="0" style="stop-color:#66f"/><stop offset="1" style="stop-color:#897de4"/></linearGradient><path style="fill:none;stroke:url(#SVGID_41_);stroke-miterlimit:10" d="m380.8 358.4-75.2 43.4"/><path class="st5" d="M231.7 446.1v-86.4l74.2-40.7 73.5 40.7v86.4l-73.5 42.5z"/><path class="st5" d="M305.9 488.6v-86.5l-74.2-42.4"/><path class="st6" d="m379.4 359.7-73.5 42.4"/><linearGradient id="SVGID_42_" gradientUnits="userSpaceOnUse" x1="304.719" y1="402.654" x2="307.668" y2="402.654"><stop offset="0" style="stop-color:#66f"/><stop offset="1" style="stop-color:#897de4"/></linearGradient><path d="m304.7 403.5 1.5-2.1 1.4 2.1c.1 0-.9.9-2.9 0z" style="fill:url(#SVGID_42_)"/><path class="st2" d="M306.2 402.1 232 359.7M379.8 359.7l-73.6 42.4M306.9 490.9v-88.4l75.9-41.6 75.1 41.6v88.4l-75.1 43.4z"/><linearGradient id="SVGID_43_" gradientUnits="userSpaceOnUse" x1="306.668" y1="468.178" x2="383.276" y2="468.178"><stop offset="0" style="stop-color:#66f"/><stop offset="1" style="stop-color:#897de4"/></linearGradient><path style="fill:none;stroke:url(#SVGID_43_);stroke-miterlimit:10" d="M382.8 534.3v-88.4l-75.9-43.4"/><linearGradient id="SVGID_44_" gradientUnits="userSpaceOnUse" x1="382.526" y1="424.202" x2="458.199" y2="424.202"><stop offset="0" style="stop-color:#66f"/><stop offset="1" style="stop-color:#897de4"/></linearGradient><path style="fill:none;stroke:url(#SVGID_44_);stroke-miterlimit:10" d="m457.9 402.5-75.1 43.4"/><path class="st5" d="M308.9 490.2v-86.5l74.2-40.6 73.5 40.6v86.5l-73.5 42.5z"/><path class="st5" d="M383.1 532.7v-86.5l-74.2-42.5"/><path class="st6" d="m456.6 403.7-73.5 42.5"/><linearGradient id="SVGID_45_" gradientUnits="userSpaceOnUse" x1="381.914" y1="446.735" x2="384.864" y2="446.735"><stop offset="0" style="stop-color:#66f"/><stop offset="1" style="stop-color:#897de4"/></linearGradient><path d="m381.9 447.6 1.5-2.1 1.4 2.1c.1 0-1 .9-2.9 0z" style="fill:url(#SVGID_45_)"/><path class="st2" d="m383.4 446.2-74.2-42.5M457 403.7l-73.6 42.5M77.4 449.1v-88.3l75.8-41.6 75.2 41.6v88.3l-75.2 43.5z"/><linearGradient id="SVGID_46_" gradientUnits="userSpaceOnUse" x1="77.139" y1="426.445" x2="153.746" y2="426.445"><stop offset="0" style="stop-color:#66f"/><stop offset="1" style="stop-color:#897de4"/></linearGradient><path style="fill:none;stroke:url(#SVGID_46_);stroke-miterlimit:10" d="M153.2 492.6v-88.4l-75.8-43.4"/><linearGradient id="SVGID_47_" gradientUnits="userSpaceOnUse" x1="152.996" y1="382.469" x2="228.669" y2="382.469"><stop offset="0" style="stop-color:#66f"/><stop offset="1" style="stop-color:#897de4"/></linearGradient><path style="fill:none;stroke:url(#SVGID_47_);stroke-miterlimit:10" d="m228.4 360.8-75.2 43.4"/><path class="st5" d="M79.4 448.5V362l74.2-40.6 73.5 40.6v86.5l-73.5 42.4z"/><path class="st5" d="M153.6 490.9v-86.4L79.4 362"/><path class="st6" d="m227.1 362-73.5 42.5"/><linearGradient id="SVGID_48_" gradientUnits="userSpaceOnUse" x1="152.384" y1="405.002" x2="155.334" y2="405.002"><stop offset="0" style="stop-color:#66f"/><stop offset="1" style="stop-color:#897de4"/></linearGradient><path d="m152.4 405.8 1.5-2.1 1.4 2.1s-1 .9-2.9 0z" style="fill:url(#SVGID_48_)"/><path class="st2" d="M153.9 404.5 79.7 362M227.4 362l-73.5 42.5M153.6 491.2v-88.4l75.8-41.6 75.2 41.6v88.4l-75.2 43.4z"/><linearGradient id="SVGID_49_" gradientUnits="userSpaceOnUse" x1="153.309" y1="468.479" x2="229.916" y2="468.479"><stop offset="0" style="stop-color:#66f"/><stop offset="1" style="stop-color:#897de4"/></linearGradient><path style="fill:none;stroke:url(#SVGID_49_);stroke-miterlimit:10" d="M229.4 534.6v-88.4l-75.8-43.4"/><linearGradient id="SVGID_50_" gradientUnits="userSpaceOnUse" x1="229.166" y1="424.503" x2="304.839" y2="424.503"><stop offset="0" style="stop-color:#66f"/><stop offset="1" style="stop-color:#897de4"/></linearGradient><path style="fill:none;stroke:url(#SVGID_50_);stroke-miterlimit:10" d="m304.6 402.8-75.2 43.4"/><path class="st5" d="M155.5 490.5V404l74.2-40.6 73.6 40.6v86.5L229.7 533z"/><path class="st5" d="M229.7 533v-86.5L155.5 404"/><path class="st6" d="m303.3 404-73.6 42.5"/><linearGradient id="SVGID_51_" gradientUnits="userSpaceOnUse" x1="228.554" y1="447.036" x2="231.504" y2="447.036"><stop offset="0" style="stop-color:#66f"/><stop offset="1" style="stop-color:#897de4"/></linearGradient><path d="m228.6 447.9 1.5-2.1 1.4 2.1s-1 .9-2.9 0z" style="fill:url(#SVGID_51_)"/><path class="st2" d="M230.1 446.5 155.9 404M303.6 404l-73.5 42.5"/><path class="st38" d="M230.8 571.9v-88.3l75.8-41.6 75.2 41.6v88.3l-75.2 43.5z"/><linearGradient id="SVGID_52_" gradientUnits="userSpaceOnUse" x1="230.504" y1="549.245" x2="307.111" y2="549.245"><stop offset="0" style="stop-color:#66f"/><stop offset="1" style="stop-color:#897de4"/></linearGradient><path style="fill:none;stroke:url(#SVGID_52_);stroke-miterlimit:10" d="M306.6 615.4V527l-75.8-43.4"/><linearGradient id="SVGID_53_" gradientUnits="userSpaceOnUse" x1="306.361" y1="505.268" x2="382.034" y2="505.268"><stop offset="0" style="stop-color:#66f"/><stop offset="1" style="stop-color:#897de4"/></linearGradient><path style="fill:none;stroke:url(#SVGID_53_);stroke-miterlimit:10" d="M381.8 483.6 306.6 527"/><path class="st5" d="M232.7 571.3v-86.5l74.2-40.6 73.6 40.6v86.5l-73.6 42.4z"/><path class="st38" d="M306.9 613.7v-86.4l-74.2-42.5"/><path class="st6" d="m380.5 484.8-73.6 42.5"/><linearGradient id="SVGID_54_" gradientUnits="userSpaceOnUse" x1="305.75" y1="527.802" x2="308.7" y2="527.802"><stop offset="0" style="stop-color:#66f"/><stop offset="1" style="stop-color:#897de4"/></linearGradient><path d="m305.7 528.6 1.5-2.1 1.4 2.1c.1 0-.9.9-2.9 0z" style="fill:url(#SVGID_54_)"/><path class="st38" d="m307.3 527.3-74.2-42.5M380.8 484.8l-73.5 42.5"/><path class="st2" d="M229.6 274.2v-88.4l75.8-41.5 75.2 41.5v88.4l-75.2 43.4z"/><linearGradient id="SVGID_55_" gradientUnits="userSpaceOnUse" x1="229.337" y1="251.494" x2="305.945" y2="251.494"><stop offset="0" style="stop-color:#66f"/><stop offset="1" style="stop-color:#897de4"/></linearGradient><path style="fill:none;stroke:url(#SVGID_55_);stroke-miterlimit:10" d="M305.4 317.6v-88.4l-75.8-43.4"/><linearGradient id="SVGID_56_" gradientUnits="userSpaceOnUse" x1="305.195" y1="207.518" x2="380.867" y2="207.518"><stop offset="0" style="stop-color:#66f"/><stop offset="1" style="stop-color:#897de4"/></linearGradient><path style="fill:none;stroke:url(#SVGID_56_);stroke-miterlimit:10" d="m380.6 185.8-75.2 43.4"/><path class="st5" d="M231.6 273.5v-86.4l74.2-40.7 73.5 40.7v86.4L305.8 316z"/><path class="st5" d="M305.8 316v-86.5l-74.2-42.4"/><path class="st6" d="m379.3 187.1-73.5 42.4"/><linearGradient id="SVGID_57_" gradientUnits="userSpaceOnUse" x1="304.583" y1="230.052" x2="307.533" y2="230.052"><stop offset="0" style="stop-color:#66f"/><stop offset="1" style="stop-color:#897de4"/></linearGradient><path d="m304.6 230.9 1.5-2.1 1.4 2.1s-1 .9-2.9 0z" style="fill:url(#SVGID_57_)"/><path class="st2" d="m306.1 229.5-74.2-42.4M379.6 187.1l-73.5 42.4M305.8 316.2v-88.4l75.8-41.5 75.2 41.5v88.4l-75.2 43.4z"/><linearGradient id="SVGID_58_" gradientUnits="userSpaceOnUse" x1="305.507" y1="293.528" x2="382.115" y2="293.528"><stop offset="0" style="stop-color:#66f"/><stop offset="1" style="stop-color:#897de4"/></linearGradient><path style="fill:none;stroke:url(#SVGID_58_);stroke-miterlimit:10" d="M381.6 359.6v-88.3l-75.8-43.5"/><linearGradient id="SVGID_59_" gradientUnits="userSpaceOnUse" x1="381.365" y1="249.552" x2="457.037" y2="249.552"><stop offset="0" style="stop-color:#66f"/><stop offset="1" style="stop-color:#897de4"/></linearGradient><path style="fill:none;stroke:url(#SVGID_59_);stroke-miterlimit:10" d="m456.8 227.8-75.2 43.5"/><path class="st5" d="M307.7 315.5v-86.4l74.2-40.7 73.6 40.7v86.4L381.9 358z"/><path class="st5" d="M381.9 358v-86.4l-74.2-42.5"/><path class="st6" d="m455.5 229.1-73.6 42.5"/><linearGradient id="SVGID_60_" gradientUnits="userSpaceOnUse" x1="380.753" y1="272.085" x2="383.703" y2="272.085"><stop offset="0" style="stop-color:#66f"/><stop offset="1" style="stop-color:#897de4"/></linearGradient><path d="m380.8 272.9 1.5-2.1 1.4 2.1s-1 .9-2.9 0z" style="fill:url(#SVGID_60_)"/><path class="st2" d="m382.3 271.6-74.2-42.5M455.8 229.1l-73.5 42.5M383 360.3v-88.4l75.8-41.5 75.2 41.5v88.4l-75.2 43.4z"/><linearGradient id="SVGID_61_" gradientUnits="userSpaceOnUse" x1="382.703" y1="337.608" x2="459.31" y2="337.608"><stop offset="0" style="stop-color:#66f"/><stop offset="1" style="stop-color:#897de4"/></linearGradient><path style="fill:none;stroke:url(#SVGID_61_);stroke-miterlimit:10" d="M458.8 403.7v-88.4L383 271.9"/><linearGradient id="SVGID_62_" gradientUnits="userSpaceOnUse" x1="458.56" y1="293.632" x2="534.233" y2="293.632"><stop offset="0" style="stop-color:#66f"/><stop offset="1" style="stop-color:#897de4"/></linearGradient><path style="fill:none;stroke:url(#SVGID_62_);stroke-miterlimit:10" d="m534 271.9-75.2 43.4"/><path class="st5" d="M384.9 359.6v-86.4l74.2-40.7 73.6 40.7v86.4l-73.6 42.5z"/><path class="st5" d="M459.1 402.1v-86.5l-74.2-42.4"/><path class="st6" d="m532.7 273.2-73.6 42.4"/><linearGradient id="SVGID_63_" gradientUnits="userSpaceOnUse" x1="457.948" y1="316.165" x2="460.898" y2="316.165"><stop offset="0" style="stop-color:#66f"/><stop offset="1" style="stop-color:#897de4"/></linearGradient><path d="m457.9 317 1.5-2.1 1.4 2.1c.1 0-.9.9-2.9 0z" style="fill:url(#SVGID_63_)"/><path class="st2" d="m459.5 315.6-74.3-42.4M533 273.2l-73.5 42.4M153.6 317.8v-88.4l75.8-41.5 75.2 41.5v88.4l-75.2 43.4z"/><linearGradient id="SVGID_64_" gradientUnits="userSpaceOnUse" x1="153.303" y1="295.118" x2="229.91" y2="295.118"><stop offset="0" style="stop-color:#66f"/><stop offset="1" style="stop-color:#897de4"/></linearGradient><path style="fill:none;stroke:url(#SVGID_64_);stroke-miterlimit:10" d="M229.4 361.2v-88.3l-75.8-43.5"/><linearGradient id="SVGID_65_" gradientUnits="userSpaceOnUse" x1="229.16" y1="251.142" x2="304.833" y2="251.142"><stop offset="0" style="stop-color:#66f"/><stop offset="1" style="stop-color:#897de4"/></linearGradient><path style="fill:none;stroke:url(#SVGID_65_);stroke-miterlimit:10" d="m304.6 229.4-75.2 43.5"/><path class="st5" d="M155.5 317.1v-86.4l74.2-40.7 73.6 40.7v86.4l-73.6 42.5z"/><path class="st5" d="M229.7 359.6v-86.4l-74.2-42.5"/><path class="st6" d="m303.3 230.7-73.6 42.5"/><linearGradient id="SVGID_66_" gradientUnits="userSpaceOnUse" x1="228.549" y1="273.675" x2="231.498" y2="273.675"><stop offset="0" style="stop-color:#66f"/><stop offset="1" style="stop-color:#897de4"/></linearGradient><path d="m228.5 274.5 1.5-2.1 1.4 2.1c.1 0-.9.9-2.9 0z" style="fill:url(#SVGID_66_)"/><path class="st2" d="m230.1 273.2-74.3-42.5M303.6 230.7l-73.5 42.5"/><path class="st38" d="M229.7 152.9V64.5l75.9-41.6 75.2 41.6v88.4l-75.2 43.4z"/><linearGradient id="SVGID_67_" gradientUnits="userSpaceOnUse" x1="229.473" y1="130.177" x2="306.08" y2="130.177"><stop offset="0" style="stop-color:#66f"/><stop offset="1" style="stop-color:#897de4"/></linearGradient><path style="fill:none;stroke:url(#SVGID_67_);stroke-miterlimit:10" d="M305.6 196.3v-88.4l-75.9-43.4"/><linearGradient id="SVGID_68_" gradientUnits="userSpaceOnUse" x1="305.33" y1="86.201" x2="381.003" y2="86.201"><stop offset="0" style="stop-color:#66f"/><stop offset="1" style="stop-color:#897de4"/></linearGradient><path style="fill:none;stroke:url(#SVGID_68_);stroke-miterlimit:10" d="m380.8 64.5-75.2 43.4"/><path class="st5" d="M231.7 152.2V65.7l74.2-40.6 73.5 40.6v86.5l-73.5 42.5z"/><path class="st38" d="M305.9 194.7v-86.5l-74.2-42.5"/><path class="st6" d="m379.4 65.7-73.5 42.5"/><linearGradient id="SVGID_69_" gradientUnits="userSpaceOnUse" x1="304.719" y1="108.734" x2="307.668" y2="108.734"><stop offset="0" style="stop-color:#66f"/><stop offset="1" style="stop-color:#897de4"/></linearGradient><path d="m304.7 109.6 1.5-2.1 1.4 2.1c.1 0-.9.9-2.9 0z" style="fill:url(#SVGID_69_)"/><path class="st38" d="M306.2 108.2 232 65.7M379.8 65.7l-73.6 42.5"/><path class="st2" d="M306.9 403.9v-88.4l75.9-41.5 75.1 41.5v88.4l-75.1 43.5z"/><linearGradient id="SVGID_70_" gradientUnits="userSpaceOnUse" x1="306.668" y1="381.232" x2="383.276" y2="381.232"><stop offset="0" style="stop-color:#66f"/><stop offset="1" style="stop-color:#897de4"/></linearGradient><path style="fill:none;stroke:url(#SVGID_70_);stroke-miterlimit:10" d="M382.8 447.4V359l-75.9-43.5"/><linearGradient id="SVGID_71_" gradientUnits="userSpaceOnUse" x1="382.526" y1="337.256" x2="458.199" y2="337.256"><stop offset="0" style="stop-color:#66f"/><stop offset="1" style="stop-color:#897de4"/></linearGradient><path style="fill:none;stroke:url(#SVGID_71_);stroke-miterlimit:10" d="M457.9 315.5 382.8 359"/><path class="st5" d="M308.9 403.3v-86.5l74.2-40.6 73.5 40.6v86.5l-73.5 42.4z"/><path class="st5" d="M383.1 445.7v-86.4l-74.2-42.5"/><path class="st6" d="m456.6 316.8-73.5 42.5"/><linearGradient id="SVGID_72_" gradientUnits="userSpaceOnUse" x1="381.914" y1="359.789" x2="384.864" y2="359.789"><stop offset="0" style="stop-color:#66f"/><stop offset="1" style="stop-color:#897de4"/></linearGradient><path d="m381.9 360.6 1.5-2.1 1.4 2.1c.1 0-1 .9-2.9 0z" style="fill:url(#SVGID_72_)"/><path class="st2" d="m383.4 359.3-74.2-42.5M457 316.8l-73.6 42.5M77.4 362.2v-88.4l75.8-41.5 75.2 41.5v88.4l-75.2 43.4z"/><linearGradient id="SVGID_73_" gradientUnits="userSpaceOnUse" x1="77.139" y1="339.499" x2="153.746" y2="339.499"><stop offset="0" style="stop-color:#66f"/><stop offset="1" style="stop-color:#897de4"/></linearGradient><path style="fill:none;stroke:url(#SVGID_73_);stroke-miterlimit:10" d="M153.2 405.6v-88.4l-75.8-43.4"/><linearGradient id="SVGID_74_" gradientUnits="userSpaceOnUse" x1="152.996" y1="295.523" x2="228.669" y2="295.523"><stop offset="0" style="stop-color:#66f"/><stop offset="1" style="stop-color:#897de4"/></linearGradient><path style="fill:none;stroke:url(#SVGID_74_);stroke-miterlimit:10" d="m228.4 273.8-75.2 43.4"/><path class="st5" d="M79.4 361.5v-86.4l74.2-40.7 73.5 40.7v86.4L153.6 404z"/><path class="st5" d="M153.6 404v-86.5l-74.2-42.4"/><path class="st6" d="m227.1 275.1-73.5 42.4"/><linearGradient id="SVGID_75_" gradientUnits="userSpaceOnUse" x1="152.384" y1="318.057" x2="155.334" y2="318.057"><stop offset="0" style="stop-color:#66f"/><stop offset="1" style="stop-color:#897de4"/></linearGradient><path d="m152.4 318.9 1.5-2.1 1.4 2.1s-1 .9-2.9 0z" style="fill:url(#SVGID_75_)"/><path class="st2" d="m153.9 317.5-74.2-42.4M227.4 275.1l-73.5 42.4M153.6 404.2v-88.4l75.8-41.5 75.2 41.5v88.4l-75.2 43.5z"/><linearGradient id="SVGID_76_" gradientUnits="userSpaceOnUse" x1="153.309" y1="381.533" x2="229.916" y2="381.533"><stop offset="0" style="stop-color:#66f"/><stop offset="1" style="stop-color:#897de4"/></linearGradient><path style="fill:none;stroke:url(#SVGID_76_);stroke-miterlimit:10" d="M229.4 447.7v-88.4l-75.8-43.5"/><linearGradient id="SVGID_77_" gradientUnits="userSpaceOnUse" x1="229.166" y1="337.557" x2="304.839" y2="337.557"><stop offset="0" style="stop-color:#66f"/><stop offset="1" style="stop-color:#897de4"/></linearGradient><path style="fill:none;stroke:url(#SVGID_77_);stroke-miterlimit:10" d="m304.6 315.8-75.2 43.5"/><path class="st5" d="M155.5 403.6v-86.5l74.2-40.6 73.6 40.6v86.5L229.7 446z"/><path class="st5" d="M229.7 446v-86.4l-74.2-42.5"/><path class="st6" d="m303.3 317.1-73.6 42.5"/><linearGradient id="SVGID_78_" gradientUnits="userSpaceOnUse" x1="228.554" y1="360.09" x2="231.504" y2="360.09"><stop offset="0" style="stop-color:#66f"/><stop offset="1" style="stop-color:#897de4"/></linearGradient><path d="m228.6 360.9 1.5-2.1 1.4 2.1s-1 .9-2.9 0z" style="fill:url(#SVGID_78_)"/><path class="st2" d="m230.1 359.6-74.2-42.5M303.6 317.1l-73.5 42.5M230.8 448.3v-88.4l75.8-41.5 75.2 41.5v88.4l-75.2 43.4z"/><linearGradient id="SVGID_79_" gradientUnits="userSpaceOnUse" x1="230.504" y1="425.613" x2="307.111" y2="425.613"><stop offset="0" style="stop-color:#66f"/><stop offset="1" style="stop-color:#897de4"/></linearGradient><path style="fill:none;stroke:url(#SVGID_79_);stroke-miterlimit:10" d="M306.6 491.7v-88.4l-75.8-43.4"/><linearGradient id="SVGID_80_" gradientUnits="userSpaceOnUse" x1="306.361" y1="381.637" x2="382.034" y2="381.637"><stop offset="0" style="stop-color:#66f"/><stop offset="1" style="stop-color:#897de4"/></linearGradient><path style="fill:none;stroke:url(#SVGID_80_);stroke-miterlimit:10" d="m381.8 359.9-75.2 43.4"/><path class="st5" d="M232.7 447.6v-86.4l74.2-40.7 73.6 40.7v86.4l-73.6 42.5z"/><path class="st5" d="M306.9 490.1v-86.5l-74.2-42.4"/><path class="st6" d="m380.5 361.2-73.6 42.4"/><linearGradient id="SVGID_81_" gradientUnits="userSpaceOnUse" x1="305.75" y1="404.17" x2="308.7" y2="404.17"><stop offset="0" style="stop-color:#66f"/><stop offset="1" style="stop-color:#897de4"/></linearGradient><path d="m305.7 405 1.5-2.1 1.4 2.1c.1 0-.9.9-2.9 0z" style="fill:url(#SVGID_81_)"/><path class="st2" d="m307.3 403.6-74.2-42.4M380.8 361.2l-73.5 42.4"/><circle class="st87" cx="576.5" cy="699.7" r="4.3"/><circle class="st87" cx="532.2" cy="674.6" r="4.3"/><circle class="st87" cx="490.3" cy="650.9" r="4.3"/><circle class="st87" cx="444.2" cy="625.7" r="4.3"/><circle class="st87" cx="116.7" cy="651.4" r="4.3"/><circle class="st87" cx="161.6" cy="626.2" r="4.3"/><circle class="st87" cx="73.8" cy="676.4" r="4.3"/><circle class="st87" cx="29.8" cy="702.1" r="4.3"/></g></svg>