<svg version="1.1" id="Layer_01" xmlns="http://www.w3.org/2000/svg" x="0" y="0" viewBox="0 0 612 792" style="enable-background:new 0 0 612 792" xml:space="preserve"><style>.st3,.st4{fill:none;stroke:#fff;stroke-width:6;stroke-miterlimit:10}.st4{stroke:#00d1b2;stroke-width:3}.st7{fill:#3c019e}.st8{fill:#03105b}.st10{fill:none;stroke:#00d1b2;stroke-width:5;stroke-miterlimit:10}.st13{fill:#00d1b2}</style><path style="fill:none;stroke:#00d1b2;stroke-width:6;stroke-miterlimit:10" d="M198.7 536.1V415.5l103.5-56.7 102.6 56.7v120.6l-102.6 59.3z"/><linearGradient id="SVGID_1_" gradientUnits="userSpaceOnUse" x1="198.437" y1="505.208" x2="302.717" y2="505.208"><stop offset="0" style="stop-color:#66f"/><stop offset="1" style="stop-color:#897de4"/></linearGradient><path style="fill:none;stroke:url(#SVGID_1_);stroke-miterlimit:10" d="M302.2 595.4V474.7l-103.5-59.2"/><linearGradient id="SVGID_2_" gradientUnits="userSpaceOnUse" x1="301.966" y1="445.111" x2="405.061" y2="445.111"><stop offset="0" style="stop-color:#66f"/><stop offset="1" style="stop-color:#897de4"/></linearGradient><path style="fill:none;stroke:url(#SVGID_2_);stroke-miterlimit:10" d="m404.8 415.5-102.6 59.2"/><path class="st3" d="M501.1 357.9 302.7 472.6M102.4 591.3V357.9l200.3-109.7 198.4 109.7v233.4L302.7 705.9z"/><path class="st3" d="M302.7 705.9V472.6L102.4 357.9"/><path class="st4" d="M274.6 46.7V14.9L301.9 0l27 14.9v31.8l-27 15.6z"/><linearGradient id="SVGID_3_" gradientUnits="userSpaceOnUse" x1="274.349" y1="38.418" x2="302.372" y2="38.418"><stop offset="0" style="stop-color:#66f"/><stop offset="1" style="stop-color:#897de4"/></linearGradient><path style="fill:none;stroke:url(#SVGID_3_);stroke-miterlimit:10" d="M301.9 62.3V30.6l-27.3-15.7"/><linearGradient id="SVGID_4_" gradientUnits="userSpaceOnUse" x1="301.622" y1="22.746" x2="329.149" y2="22.746"><stop offset="0" style="stop-color:#66f"/><stop offset="1" style="stop-color:#897de4"/></linearGradient><path style="fill:none;stroke:url(#SVGID_4_);stroke-miterlimit:10" d="m328.9 14.9-27 15.7"/><path class="st7" d="M275.3 46.5V15.4L302 .8l26.4 14.6v31.1L302 61.7z"/><path class="st7" d="M302 61.7v-31l-26.7-15.3"/><path class="st8" d="M328.4 15.4 302 30.7"/><linearGradient id="SVGID_5_" gradientUnits="userSpaceOnUse" x1="301.562" y1="30.848" x2="302.622" y2="30.848"><stop offset="0" style="stop-color:#66f"/><stop offset="1" style="stop-color:#897de4"/></linearGradient><path d="m301.6 31.1.5-.7.5.7s-.3.4-1 0z" style="fill:url(#SVGID_5_)"/><path class="st4" d="m302.1 30.7-26.7-15.3M328.5 15.4l-26.4 15.3"/><path class="st10" d="M238.9 250.5V177l63.1-34.5 62.6 34.5v73.5L302 286.7z"/><linearGradient id="SVGID_6_" gradientUnits="userSpaceOnUse" x1="238.684" y1="231.625" x2="302.534" y2="231.625"><stop offset="0" style="stop-color:#66f"/><stop offset="1" style="stop-color:#897de4"/></linearGradient><path style="fill:none;stroke:url(#SVGID_6_);stroke-miterlimit:10" d="M302 286.7v-73.6L238.9 177"/><linearGradient id="SVGID_7_" gradientUnits="userSpaceOnUse" x1="301.784" y1="195.081" x2="364.814" y2="195.081"><stop offset="0" style="stop-color:#66f"/><stop offset="1" style="stop-color:#897de4"/></linearGradient><path style="fill:none;stroke:url(#SVGID_7_);stroke-miterlimit:10" d="M364.6 177 302 213.1"/><circle class="st13" cx="582.1" cy="386.2" r="3"/><circle class="st13" cx="529.9" cy="299.9" r="3"/><circle class="st13" cx="470.6" cy="262.5" r="3"/><circle class="st13" cx="302.7" cy="304.1" r="3"/><circle class="st13" cx="302.7" cy="337.1" r="3"/><circle class="st13" cx="152.5" cy="564.6" r="3"/><circle class="st13" cx="181.5" cy="548.1" r="3"/><circle class="st13" cx="120.6" cy="582.7" r="3"/><circle class="st13" cx="456.6" cy="562" r="3"/><circle class="st13" cx="485.6" cy="578.5" r="3"/><circle class="st13" cx="424.7" cy="543.9" r="3"/><circle class="st13" cx="561.6" cy="318.3" r="3"/><circle class="st13" cx="501.1" cy="280.6" r="3"/><circle class="st13" cx="440.5" cy="245.3" r="3"/><circle class="st13" cx="383.2" cy="209.4" r="3"/><circle class="st13" cx="411.6" cy="226.9" r="3"/><circle class="st13" cx="582.7" cy="350.5" r="3"/><circle class="st13" cx="582.1" cy="420.7" r="3"/><circle class="st13" cx="582.1" cy="456.1" r="3"/><circle class="st13" cx="582.1" cy="489.5" r="3"/><circle class="st13" cx="582.7" cy="526" r="3"/><circle class="st13" cx="494.5" cy="682.6" r="3"/><circle class="st13" cx="580.8" cy="629.6" r="3"/><circle class="st13" cx="582.1" cy="559.7" r="3"/><circle class="st13" cx="582.1" cy="595.4" r="3"/><circle class="st13" cx="555.3" cy="649.2" r="3"/><circle class="st13" cx="526.8" cy="665.2" r="3"/><circle class="st13" cx="463.4" cy="697.5" r="3"/><circle class="st13" cx="432.5" cy="715.4" r="3"/><circle class="st13" cx="401.8" cy="731.8" r="3"/><circle class="st13" cx="371.7" cy="746.6" r="3"/><circle class="st13" cx="340.8" cy="763.9" r="3"/><circle class="st13" cx="310.8" cy="780.6" r="3"/><circle class="st13" cx="280.1" cy="774.7" r="3"/><circle class="st13" cx="247.5" cy="755.8" r="3"/><circle class="st13" cx="220.2" cy="740.7" r="3"/><circle class="st13" cx="157.8" cy="705.9" r="3"/><circle class="st13" cx="125.1" cy="689" r="3"/><circle class="st13" cx="188.1" cy="721.3" r="3"/><circle class="st13" cx="66.1" cy="654.6" r="3"/><circle class="st13" cx="97.9" cy="671.5" r="3"/><circle class="st13" cx="36.3" cy="638.3" r="3"/><circle class="st13" cx="29.3" cy="605.9" r="3"/><circle class="st13" cx="30.4" cy="573.7" r="3"/><circle class="st13" cx="30.4" cy="536.8" r="3"/><circle class="st13" cx="29.3" cy="504.5" r="3"/><circle class="st13" cx="29.3" cy="467.8" r="3"/><circle class="st13" cx="29.3" cy="435.2" r="3"/><circle class="st13" cx="29.3" cy="399.3" r="3"/><circle class="st13" cx="29.3" cy="363.4" r="3"/><circle class="st13" cx="202.5" cy="219.3" r="3"/><circle class="st13" cx="169" cy="238.2" r="3"/><circle class="st13" cx="139.2" cy="253.2" r="3"/><circle class="st13" cx="29.3" cy="327.8" r="3"/><circle class="st13" cx="48.1" cy="302.9" r="3"/><circle class="st13" cx="229.9" cy="203.5" r="3"/><circle class="st13" cx="108.1" cy="271.5" r="3"/><circle class="st13" cx="78.4" cy="286.7" r="3"/><path class="st7" d="M240.6 250v-71.9l61.7-33.8 61.2 33.8V250l-61.2 35.3z"/><path class="st7" d="M302.3 285.3v-71.9l-61.7-35.3"/><path class="st8" d="m363.5 178.1-61.2 35.3"/><linearGradient id="SVGID_8_" gradientUnits="userSpaceOnUse" x1="301.317" y1="213.825" x2="303.771" y2="213.825"><stop offset="0" style="stop-color:#66f"/><stop offset="1" style="stop-color:#897de4"/></linearGradient><path d="m301.3 214.5 1.3-1.7 1.2 1.7s-.9.8-2.5 0z" style="fill:url(#SVGID_8_)"/><path class="st10" d="m302.6 213.4-61.8-35.3M363.7 178.1l-61.1 35.3"/></svg>