<svg version="1.1" id="Capa_1" xmlns="http://www.w3.org/2000/svg" x="0" y="0" viewBox="31 -31 512 512" style="enable-background:new 31 -31 512 512" xml:space="preserve"><style>.st0,.st1{fill:none;stroke:#fff;stroke-width:8;stroke-miterlimit:10}.st1{stroke-linecap:round;stroke-linejoin:round}</style><path id="Stroke-35-Copy-3_1_" class="st0" d="M206.9 48.3c0 15.3-13.1 26.2-26.2 26.2s-26.2-13.1-26.2-26.2c0-15.3 13.1-26.2 26.2-26.2s26.2 10.9 26.2 26.2z"/><g id="Fill-5-Copy-3_1_"><path id="path-1_1_" class="st0" d="M268.5 397.7H152.3c-10.9 0-19.6-8.7-19.6-19.6V18.3c0-4.4 0-6.5 2.2-10.9 2.2-2.2 2.2-6.5 6.5-8.7 4.4-4.4 10.9-6.5 17.4-6.5H342l111.2 111.2V190"/></g><path id="Stroke-14-Copy-3_1_" class="st1" d="M243.9 50.5h48"/><path id="Stroke-8-Copy-2_1_" class="st1" d="M180.7 149.1h154.8"/><path id="Stroke-8-Copy-3_1_" class="st1" d="M180.7 203.7h176.6"/><path id="Stroke-8-Copy-4_1_" class="st1" d="M180.7 247.3h63.8"/><linearGradient id="XMLID_2_" gradientUnits="userSpaceOnUse" x1="238.098" y1="132.95" x2="542.202" y2="132.95" gradientTransform="matrix(1 0 0 -1 0 450)"><stop offset="0" style="stop-color:#7f00ff"/><stop offset="1" style="stop-color:#5671ff"/></linearGradient><path id="XMLID_31_" d="M242.5 257.1c-2.1-8.6 4.3-17.1 12.8-19.3L364 214.1l89.3-19.6 26.8-5.9c8.6-2.1 17.1 4.3 19.3 12.8L537.8 377c2.1 8.6-4.3 17.1-12.8 19.3l-224.7 49.2c-8.6 2.1-17.1-4.3-19.3-12.8l-7.7-34.9-.3-1.5-30.5-139.2z" style="fill:none;stroke:url(#XMLID_2_);stroke-width:8;stroke-miterlimit:10"/><linearGradient id="SVGID_1_" gradientUnits="userSpaceOnUse" x1="357.306" y1="317.05" x2="422.994" y2="317.05"><stop offset="0" style="stop-color:#7f00ff"/><stop offset="1" style="stop-color:#5671ff"/></linearGradient><circle cx="390.1" cy="317.1" r="28.8" style="fill:none;stroke:url(#SVGID_1_);stroke-width:8;stroke-linecap:round;stroke-linejoin:round;stroke-miterlimit:10"/><linearGradient id="SVGID_2_" gradientUnits="userSpaceOnUse" x1="333.33" y1="317.05" x2="446.97" y2="317.05"><stop offset="0" style="stop-color:#7f00ff"/><stop offset="1" style="stop-color:#5671ff"/></linearGradient><circle cx="390.1" cy="317.1" r="52.8" style="fill:none;stroke:url(#SVGID_2_);stroke-width:8;stroke-linecap:round;stroke-linejoin:round;stroke-miterlimit:10"/><linearGradient id="SVGID_3_" gradientUnits="userSpaceOnUse" x1="389.007" y1="357.811" x2="400" y2="357.811"><stop offset="0" style="stop-color:#7f00ff"/><stop offset="1" style="stop-color:#5671ff"/></linearGradient><path style="fill:none;stroke:url(#SVGID_3_);stroke-width:8;stroke-linecap:round;stroke-linejoin:round;stroke-miterlimit:10" d="m393 345.8 3 24.1"/><linearGradient id="SVGID_4_" gradientUnits="userSpaceOnUse" x1="413.314" y1="302.946" x2="443.636" y2="302.946"><stop offset="0" style="stop-color:#7f00ff"/><stop offset="1" style="stop-color:#5671ff"/></linearGradient><path style="fill:none;stroke:url(#SVGID_4_);stroke-width:8;stroke-linecap:round;stroke-linejoin:round;stroke-miterlimit:10" d="m417.3 307.3 22.3-8.7"/><linearGradient id="SVGID_5_" gradientUnits="userSpaceOnUse" x1="267" y1="276.625" x2="337" y2="276.625"><stop offset="0" style="stop-color:#7f00ff"/><stop offset="1" style="stop-color:#5671ff"/></linearGradient><path style="fill:none;stroke:url(#SVGID_5_);stroke-width:8;stroke-linecap:round;stroke-linejoin:round;stroke-miterlimit:10" d="m333 285.8-19.7-18.3-42.3 9.1"/><linearGradient id="SVGID_6_" gradientUnits="userSpaceOnUse" x1="109.525" y1="386.038" x2="179.525" y2="386.038" gradientTransform="rotate(180 302 382.517)"><stop offset="0" style="stop-color:#7f00ff"/><stop offset="1" style="stop-color:#5671ff"/></linearGradient><path style="fill:none;stroke:url(#SVGID_6_);stroke-width:8;stroke-linecap:round;stroke-linejoin:round;stroke-miterlimit:10" d="m428.5 369.9 19.7 18.2 42.3-9.1"/></svg>