<?xml version="1.0" encoding="utf-8"?>
<!-- Generator: Adobe Illustrator 19.0.0, SVG Export Plug-In . SVG Version: 6.00 Build 0)  -->
<svg version="1.1" id="Calque_1" xmlns="http://www.w3.org/2000/svg" xmlns:xlink="http://www.w3.org/1999/xlink" x="0px" y="0px"
	 viewBox="0 0 3096 3096" style="enable-background:new 0 0 3096 3096;" xml:space="preserve">
<style type="text/css">
	.st0{fill:none;stroke:url(#SVGID_1_);stroke-width:30;stroke-miterlimit:10;}
	.st1{fill:none;stroke:url(#SVGID_2_);stroke-width:30;stroke-miterlimit:10;}
	.st2{fill:none;stroke:url(#SVGID_3_);stroke-width:30;stroke-miterlimit:10;}
	.st3{fill:none;stroke:url(#SVGID_4_);stroke-width:30;stroke-miterlimit:10;}
	.st4{fill:none;stroke:url(#SVGID_5_);stroke-width:30;stroke-miterlimit:10;}
	.st5{fill:none;stroke:url(#SVGID_6_);stroke-width:30;stroke-miterlimit:10;}
	.st6{fill:none;stroke:url(#SVGID_7_);stroke-width:30;stroke-miterlimit:10;}
	.st7{fill:none;stroke:url(#SVGID_8_);stroke-width:30;stroke-miterlimit:10;}
	.st8{fill:none;stroke:url(#SVGID_9_);stroke-width:30;stroke-miterlimit:10;}
</style>
<linearGradient id="SVGID_1_" gradientUnits="userSpaceOnUse" x1="3.6828" y1="1570.0485" x2="2996.9668" y2="1570.0485">
	<stop  offset="0" style="stop-color:#00FF99"/>
	<stop  offset="1" style="stop-color:#33CCFF"/>
</linearGradient>
<path class="st0" d="M2982,2792c-4-60-192-540-192-540s-132-292-132-664s-148-804-156-856s-160-396-316-528S1734,48,1678,56
	s-112,36-112,36s-104-72-192,12c0,0-556,260-672,956c0,0-184,630.6-136,957.3S270,2792,270,2792S38,3032,18,3096"/>
<linearGradient id="SVGID_2_" gradientUnits="userSpaceOnUse" x1="903.625" y1="1709.1833" x2="2318.5547" y2="1709.1833">
	<stop  offset="0" style="stop-color:#00FF99"/>
	<stop  offset="1" style="stop-color:#33CCFF"/>
</linearGradient>
<path class="st1" d="M943.6,1076.3c0,0-33.6,461.4-21.6,398.6c12-62.9-64,263.8,156,542.5c0,0,82.1,164.2,163.1,219.7
	s70.8,54.4,192.9,91c0,0,200,8,368-88s292-424,292-424l48-101.1l24.5-55.3c0,0,79.8,55.3,141.2-9.1"/>
<linearGradient id="SVGID_3_" gradientUnits="userSpaceOnUse" x1="560.619" y1="2886.6387" x2="776.4063" y2="2886.6387">
	<stop  offset="0" style="stop-color:#00FF99"/>
	<stop  offset="1" style="stop-color:#33CCFF"/>
</linearGradient>
<path class="st2" d="M574,3096c0,0,103.1-203.5,188.5-420"/>
<linearGradient id="SVGID_4_" gradientUnits="userSpaceOnUse" x1="2090.595" y1="2040.8865" x2="2182.8186" y2="2040.8865">
	<stop  offset="0" style="stop-color:#00FF99"/>
	<stop  offset="1" style="stop-color:#33CCFF"/>
</linearGradient>
<path class="st3" d="M2126.8,1746.9c0,0-69.9,432.5,44.1,581.3"/>
<linearGradient id="SVGID_5_" gradientUnits="userSpaceOnUse" x1="946.3943" y1="2644.814" x2="1222.178" y2="2644.814">
	<stop  offset="0" style="stop-color:#00FF99"/>
	<stop  offset="1" style="stop-color:#33CCFF"/>
</linearGradient>
<path class="st4" d="M964.8,3096c0,0-14.1-391.9,15.1-548.8c4.3-23.3,9.6-41.4,16.1-52.3c49.8-84,160.9,40.3,160.9,40.3
	s79.8-77.4,38.5-339.8"/>
<linearGradient id="SVGID_6_" gradientUnits="userSpaceOnUse" x1="755.4351" y1="2595.9536" x2="999.3868" y2="2595.9536">
	<stop  offset="0" style="stop-color:#00FF99"/>
	<stop  offset="1" style="stop-color:#33CCFF"/>
</linearGradient>
<path class="st5" d="M762.5,2676c0,0,148.2-78.4,225.9-163.2"/>
<linearGradient id="SVGID_7_" gradientUnits="userSpaceOnUse" x1="-10.6362" y1="2736.4426" x2="383.6309" y2="2736.4426">
	<stop  offset="0" style="stop-color:#00FF99"/>
	<stop  offset="1" style="stop-color:#33CCFF"/>
</linearGradient>
<path class="st6" d="M0,2855c0,0,241.3-242.7,382.5-232.3"/>
<linearGradient id="SVGID_8_" gradientUnits="userSpaceOnUse" x1="1616.4617" y1="2694.5601" x2="3103.459" y2="2694.5601">
	<stop  offset="0" style="stop-color:#00FF99"/>
	<stop  offset="1" style="stop-color:#33CCFF"/>
</linearGradient>
<path class="st7" d="M3096,2855c0,0-146-83.7-270-116.3S2165,2320,2165,2320c15,92-243,356-243,356c-166,6-160,202-160,202
	c-28,0-132,218-132,218"/>
<linearGradient id="SVGID_9_" gradientUnits="userSpaceOnUse" x1="860.5667" y1="1453.6353" x2="2325" y2="1453.6353">
	<stop  offset="0" style="stop-color:#00FF99"/>
	<stop  offset="1" style="stop-color:#33CCFF"/>
</linearGradient>
<path class="st8" d="M2257,2385.1c0,0-3.9-31.1-3-65.1c2.5-88.1,56-272,56-548c0-230-25-404.4-33.3-456.2c-0.9-5.5-8.1-6.9-11-2.2
	l-97,158.5c-3,4.9-10.6,2.2-9.8-3.5c8.1-56.2,18.8-193.4-32.9-360.6c-68-220-196-260-196-260c-216-92-464-312-464-312
	c-276,32-592,668-592,668"/>
</svg>
