<svg xmlns="http://www.w3.org/2000/svg" viewBox="0 0 612 792" style="enable-background:new 0 0 612 792" xml:space="preserve"><style>.st2{fill:#fff}.st3{fill:#00d1b2}.st4{fill:none;stroke:#fff;stroke-width:5;stroke-miterlimit:10}.st7{fill:#3c019e}.st8{fill:#03105b}.st16,.st20,.st24{fill:none;stroke:#00d1b2;stroke-width:5;stroke-miterlimit:10}.st20,.st24{stroke:#fff;stroke-width:3}.st24{stroke:#00d1b2}</style><g id="Layer_01"><circle class="st2" cx="57.9" cy="624.2" r="3.3"/><circle class="st2" cx="57.9" cy="582.8" r="3.3"/><circle class="st2" cx="56.7" cy="546.6" r="3.3"/><circle class="st2" cx="56.7" cy="505.3" r="3.3"/><circle class="st2" cx="56.7" cy="468.7" r="3.3"/><circle class="st2" cx="56.7" cy="428.4" r="3.3"/><circle class="st2" cx="56.7" cy="388.2" r="3.3"/><circle class="st3" cx="492.1" cy="444.6" r="3.3"/><circle class="st3" cx="492.1" cy="403.2" r="3.3"/><circle class="st3" cx="490.8" cy="367" r="3.3"/><circle class="st3" cx="490.8" cy="325.7" r="3.3"/><circle class="st3" cx="490.8" cy="289.1" r="3.3"/><circle class="st3" cx="490.8" cy="248.8" r="3.3"/><circle class="st3" cx="490.8" cy="208.6" r="3.3"/><path class="st4" d="M461.5 624v-69.8l59.9-32.8 59.3 32.8V624l-59.3 34.3z"/><linearGradient id="SVGID_1_" gradientUnits="userSpaceOnUse" x1="461.255" y1="606.047" x2="521.894" y2="606.047"><stop offset="0" style="stop-color:#66f"/><stop offset="1" style="stop-color:#897de4"/></linearGradient><path style="fill:none;stroke:url(#SVGID_1_);stroke-miterlimit:10" d="M521.4 658.3v-69.8l-59.9-34.3"/><linearGradient id="SVGID_2_" gradientUnits="userSpaceOnUse" x1="521.144" y1="571.374" x2="580.994" y2="571.374"><stop offset="0" style="stop-color:#66f"/><stop offset="1" style="stop-color:#897de4"/></linearGradient><path style="fill:none;stroke:url(#SVGID_2_);stroke-miterlimit:10" d="m580.7 554.2-59.3 34.3"/><path class="st7" d="M463.1 623.5v-68.3l58.5-32.1 58.1 32.1v68.3L521.6 657z"/><path class="st7" d="M521.6 657v-68.2l-58.5-33.6"/><path class="st8" d="m579.7 555.2-58.1 33.6"/><linearGradient id="SVGID_3_" gradientUnits="userSpaceOnUse" x1="520.714" y1="589.164" x2="523.043" y2="589.164"><stop offset="0" style="stop-color:#66f"/><stop offset="1" style="stop-color:#897de4"/></linearGradient><path d="m520.7 589.8 1.2-1.6 1.1 1.6s-.8.7-2.3 0z" style="fill:url(#SVGID_3_)"/><path class="st4" d="m521.9 588.8-58.6-33.6M580 555.2l-58.1 33.6M461.5 540v-69.7l59.9-32.8 59.3 32.8V540l-59.3 34.3z"/><linearGradient id="SVGID_4_" gradientUnits="userSpaceOnUse" x1="461.255" y1="522.082" x2="521.894" y2="522.082"><stop offset="0" style="stop-color:#66f"/><stop offset="1" style="stop-color:#897de4"/></linearGradient><path style="fill:none;stroke:url(#SVGID_4_);stroke-miterlimit:10" d="M521.4 574.3v-69.8l-59.9-34.2"/><linearGradient id="SVGID_5_" gradientUnits="userSpaceOnUse" x1="521.144" y1="487.408" x2="580.994" y2="487.408"><stop offset="0" style="stop-color:#66f"/><stop offset="1" style="stop-color:#897de4"/></linearGradient><path style="fill:none;stroke:url(#SVGID_5_);stroke-miterlimit:10" d="m580.7 470.3-59.3 34.2"/><path class="st7" d="M463.1 539.5v-68.2l58.5-32.1 58.1 32.1v68.2L521.6 573z"/><path class="st7" d="M521.6 573v-68.2l-58.5-33.5"/><path class="st8" d="m579.7 471.3-58.1 33.5"/><linearGradient id="SVGID_6_" gradientUnits="userSpaceOnUse" x1="520.714" y1="505.198" x2="523.043" y2="505.198"><stop offset="0" style="stop-color:#66f"/><stop offset="1" style="stop-color:#897de4"/></linearGradient><path d="m520.7 505.9 1.2-1.6 1.1 1.6s-.8.7-2.3 0z" style="fill:url(#SVGID_6_)"/><path class="st4" d="m521.9 504.8-58.6-33.5M580 471.3l-58.1 33.5M461.5 456.5v-69.8l59.9-32.8 59.3 32.8v69.8l-59.3 34.2z"/><linearGradient id="SVGID_7_" gradientUnits="userSpaceOnUse" x1="461.255" y1="438.484" x2="521.894" y2="438.484"><stop offset="0" style="stop-color:#66f"/><stop offset="1" style="stop-color:#897de4"/></linearGradient><path style="fill:none;stroke:url(#SVGID_7_);stroke-miterlimit:10" d="M521.4 490.7v-69.8l-59.9-34.2"/><linearGradient id="SVGID_8_" gradientUnits="userSpaceOnUse" x1="521.144" y1="403.81" x2="580.994" y2="403.81"><stop offset="0" style="stop-color:#66f"/><stop offset="1" style="stop-color:#897de4"/></linearGradient><path style="fill:none;stroke:url(#SVGID_8_);stroke-miterlimit:10" d="m580.7 386.7-59.3 34.2"/><path class="st7" d="M463.1 455.9v-68.2l58.5-32.1 58.1 32.1v68.2l-58.1 33.5z"/><path class="st7" d="M521.6 489.4v-68.2l-58.5-33.5"/><path class="st8" d="m579.7 387.7-58.1 33.5"/><linearGradient id="SVGID_9_" gradientUnits="userSpaceOnUse" x1="520.714" y1="421.6" x2="523.043" y2="421.6"><stop offset="0" style="stop-color:#66f"/><stop offset="1" style="stop-color:#897de4"/></linearGradient><path d="m520.7 422.3 1.2-1.6 1.1 1.6s-.8.7-2.3 0z" style="fill:url(#SVGID_9_)"/><path class="st4" d="m521.9 421.2-58.6-33.5M580 387.7l-58.1 33.5"/><path class="st16" d="M461.5 371v-69.7l59.9-32.8 59.3 32.8V371l-59.3 34.3z"/><linearGradient id="SVGID_10_" gradientUnits="userSpaceOnUse" x1="461.255" y1="353.081" x2="521.894" y2="353.081"><stop offset="0" style="stop-color:#66f"/><stop offset="1" style="stop-color:#897de4"/></linearGradient><path style="fill:none;stroke:url(#SVGID_10_);stroke-miterlimit:10" d="M521.4 405.3v-69.8l-59.9-34.2"/><linearGradient id="SVGID_11_" gradientUnits="userSpaceOnUse" x1="521.144" y1="318.408" x2="580.994" y2="318.408"><stop offset="0" style="stop-color:#66f"/><stop offset="1" style="stop-color:#897de4"/></linearGradient><path style="fill:none;stroke:url(#SVGID_11_);stroke-miterlimit:10" d="m580.7 301.3-59.3 34.2"/><path class="st7" d="M463.1 370.5v-68.2l58.5-32.1 58.1 32.1v68.2L521.6 404z"/><path class="st7" d="M521.6 404v-68.2l-58.5-33.5"/><path class="st8" d="m579.7 302.3-58.1 33.5"/><linearGradient id="SVGID_12_" gradientUnits="userSpaceOnUse" x1="520.714" y1="336.197" x2="523.043" y2="336.197"><stop offset="0" style="stop-color:#66f"/><stop offset="1" style="stop-color:#897de4"/></linearGradient><path d="m520.7 336.9 1.2-1.6 1.1 1.6s-.8.7-2.3 0z" style="fill:url(#SVGID_12_)"/><path class="st16" d="m521.9 335.8-58.6-33.5M580 302.3l-58.1 33.5"/><path class="st20" d="M461 174.9v-35.7l30.6-16.8 30.3 16.8v35.7l-30.3 17.5z"/><linearGradient id="SVGID_13_" gradientUnits="userSpaceOnUse" x1="460.724" y1="165.58" x2="492.088" y2="165.58"><stop offset="0" style="stop-color:#66f"/><stop offset="1" style="stop-color:#897de4"/></linearGradient><path style="fill:none;stroke:url(#SVGID_13_);stroke-miterlimit:10" d="M491.6 192.4v-35.7L461 139.2"/><linearGradient id="SVGID_14_" gradientUnits="userSpaceOnUse" x1="491.338" y1="147.961" x2="522.176" y2="147.961"><stop offset="0" style="stop-color:#66f"/><stop offset="1" style="stop-color:#897de4"/></linearGradient><path style="fill:none;stroke:url(#SVGID_14_);stroke-miterlimit:10" d="m521.9 139.2-30.3 17.5"/><path class="st7" d="M461.8 174.6v-34.9l29.9-16.4 29.7 16.4v34.9l-29.7 17.1z"/><path class="st7" d="M491.7 191.7v-34.9l-29.9-17.1"/><path class="st8" d="m521.4 139.7-29.7 17.1"/><linearGradient id="SVGID_15_" gradientUnits="userSpaceOnUse" x1="491.24" y1="157.055" x2="492.43" y2="157.055"><stop offset="0" style="stop-color:#66f"/><stop offset="1" style="stop-color:#897de4"/></linearGradient><path d="m491.2 157.4.6-.8.6.8s-.4.4-1.2 0z" style="fill:url(#SVGID_15_)"/><path class="st20" d="m491.8 156.8-29.9-17.1M521.5 139.7l-29.6 17.1"/><path class="st24" d="M26.2 389.5v-35.7L56.8 337l30.4 16.8v35.7L56.8 407z"/><linearGradient id="SVGID_16_" gradientUnits="userSpaceOnUse" x1="25.966" y1="380.182" x2="57.329" y2="380.182"><stop offset="0" style="stop-color:#66f"/><stop offset="1" style="stop-color:#897de4"/></linearGradient><path style="fill:none;stroke:url(#SVGID_16_);stroke-miterlimit:10" d="M56.8 407v-35.7l-30.6-17.5"/><linearGradient id="SVGID_17_" gradientUnits="userSpaceOnUse" x1="56.579" y1="362.563" x2="87.418" y2="362.563"><stop offset="0" style="stop-color:#66f"/><stop offset="1" style="stop-color:#897de4"/></linearGradient><path style="fill:none;stroke:url(#SVGID_17_);stroke-miterlimit:10" d="m87.2 353.8-30.4 17.5"/><path class="st7" d="M27 389.2v-34.9l30-16.4 29.6 16.4v34.9L57 406.3z"/><path class="st7" d="M57 406.3v-34.9l-30-17.1"/><path class="st8" d="M86.6 354.3 57 371.4"/><linearGradient id="SVGID_18_" gradientUnits="userSpaceOnUse" x1="56.482" y1="371.657" x2="57.672" y2="371.657"><stop offset="0" style="stop-color:#66f"/><stop offset="1" style="stop-color:#897de4"/></linearGradient><path d="m56.5 372 .6-.8.6.8s-.4.4-1.2 0z" style="fill:url(#SVGID_18_)"/><path class="st24" d="m57.1 371.4-30-17.1M86.8 354.3l-29.7 17.1"/><circle class="st3" cx="407.7" cy="604.1" r="3.3"/><circle class="st3" cx="408.4" cy="564" r="3.3"/><circle class="st3" cx="407.7" cy="642.8" r="3.3"/><circle class="st3" cx="407.7" cy="682.5" r="3.3"/><circle class="st3" cx="407.7" cy="720" r="3.3"/><circle class="st3" cx="408.4" cy="761" r="3.3"/><text transform="translate(-2911.5 -3331.5)"><tspan x="0" y="0" style="font-family:'MyriadPro-Regular';font-size:12px">    max-width: 600px;</tspan><tspan x="0" y="14.4" style="font-family:'MyriadPro-Regular';font-size:12px">    margin: 0 auto;</tspan></text><path class="st4" d="M208.5 579.3V478.7l86.3-47.3 85.5 47.3v100.6l-85.5 49.4z"/><linearGradient id="SVGID_19_" gradientUnits="userSpaceOnUse" x1="208.222" y1="553.51" x2="295.293" y2="553.51"><stop offset="0" style="stop-color:#66f"/><stop offset="1" style="stop-color:#897de4"/></linearGradient><path style="fill:none;stroke:url(#SVGID_19_);stroke-miterlimit:10" d="M294.8 628.7V528.1l-86.3-49.4"/><linearGradient id="SVGID_20_" gradientUnits="userSpaceOnUse" x1="294.542" y1="503.439" x2="380.583" y2="503.439"><stop offset="0" style="stop-color:#66f"/><stop offset="1" style="stop-color:#897de4"/></linearGradient><path style="fill:none;stroke:url(#SVGID_20_);stroke-miterlimit:10" d="m380.3 478.7-85.5 49.4"/><path class="st7" d="M210.7 578.5v-98.3l84.4-46.3 83.7 46.3v98.3l-83.7 48.4z"/><path class="st7" d="M295.1 626.9v-98.4l-84.4-48.3"/><path class="st8" d="m378.8 480.2-83.7 48.3"/><linearGradient id="SVGID_21_" gradientUnits="userSpaceOnUse" x1="293.812" y1="529.08" x2="297.168" y2="529.08"><stop offset="0" style="stop-color:#66f"/><stop offset="1" style="stop-color:#897de4"/></linearGradient><path d="m293.8 530 1.7-2.3 1.6 2.3c.1 0-1.1 1.1-3.3 0z" style="fill:url(#SVGID_21_)"/><path class="st4" d="m295.5 528.5-84.4-48.3M379.2 480.2l-83.7 48.3"/><path class="st16" d="M322.1 571.9V471.4l86.3-47.3 85.6 47.3v100.5l-85.6 49.4z"/><linearGradient id="SVGID_22_" gradientUnits="userSpaceOnUse" x1="321.864" y1="546.13" x2="408.934" y2="546.13"><stop offset="0" style="stop-color:#66f"/><stop offset="1" style="stop-color:#897de4"/></linearGradient><path style="fill:none;stroke:url(#SVGID_22_);stroke-miterlimit:10" d="M408.4 621.3V520.8l-86.3-49.4"/><linearGradient id="SVGID_23_" gradientUnits="userSpaceOnUse" x1="408.184" y1="496.059" x2="494.225" y2="496.059"><stop offset="0" style="stop-color:#66f"/><stop offset="1" style="stop-color:#897de4"/></linearGradient><path style="fill:none;stroke:url(#SVGID_23_);stroke-miterlimit:10" d="m494 471.4-85.6 49.4"/><path class="st7" d="M324.4 571.2v-98.4l84.4-46.3 83.7 46.3v98.4l-83.7 48.3z"/><path class="st7" d="M408.8 619.5v-98.4l-84.4-48.3"/><path class="st8" d="m492.5 472.8-83.7 48.3"/><linearGradient id="SVGID_24_" gradientUnits="userSpaceOnUse" x1="407.453" y1="521.7" x2="410.81" y2="521.7"><stop offset="0" style="stop-color:#66f"/><stop offset="1" style="stop-color:#897de4"/></linearGradient><path d="m407.5 522.6 1.7-2.3 1.6 2.3s-1.1 1.1-3.3 0z" style="fill:url(#SVGID_24_)"/><path class="st16" d="m409.2 521.1-84.5-48.3M492.8 472.8l-83.6 48.3"/><path class="st4" d="M208.5 337.8V237.2l86.3-47.3 85.5 47.3v100.6l-85.5 49.4z"/><linearGradient id="SVGID_25_" gradientUnits="userSpaceOnUse" x1="208.222" y1="311.998" x2="295.293" y2="311.998"><stop offset="0" style="stop-color:#66f"/><stop offset="1" style="stop-color:#897de4"/></linearGradient><path style="fill:none;stroke:url(#SVGID_25_);stroke-miterlimit:10" d="M294.8 387.2V286.6l-86.3-49.4"/><linearGradient id="SVGID_26_" gradientUnits="userSpaceOnUse" x1="294.542" y1="261.926" x2="380.583" y2="261.926"><stop offset="0" style="stop-color:#66f"/><stop offset="1" style="stop-color:#897de4"/></linearGradient><path style="fill:none;stroke:url(#SVGID_26_);stroke-miterlimit:10" d="m380.3 237.2-85.5 49.4"/><path class="st7" d="M210.7 337v-98.4l84.4-46.2 83.7 46.2V337l-83.7 48.4z"/><path class="st7" d="M295.1 385.4V287l-84.4-48.4"/><path class="st8" d="M378.8 238.6 295.1 287"/><linearGradient id="SVGID_27_" gradientUnits="userSpaceOnUse" x1="293.812" y1="287.568" x2="297.168" y2="287.568"><stop offset="0" style="stop-color:#66f"/><stop offset="1" style="stop-color:#897de4"/></linearGradient><path d="m293.8 288.5 1.7-2.3 1.6 2.3c.1 0-1.1 1-3.3 0z" style="fill:url(#SVGID_27_)"/><path class="st4" d="m295.5 287-84.4-48.4M379.2 238.6 295.5 287"/><path class="st16" d="M208.5 214.7V114.1l86.3-47.3 85.5 47.3v100.6l-85.5 49.4z"/><linearGradient id="SVGID_28_" gradientUnits="userSpaceOnUse" x1="208.222" y1="188.905" x2="295.293" y2="188.905"><stop offset="0" style="stop-color:#66f"/><stop offset="1" style="stop-color:#897de4"/></linearGradient><path style="fill:none;stroke:url(#SVGID_28_);stroke-miterlimit:10" d="M294.8 264.1V163.5l-86.3-49.4"/><linearGradient id="SVGID_29_" gradientUnits="userSpaceOnUse" x1="294.542" y1="138.834" x2="380.583" y2="138.834"><stop offset="0" style="stop-color:#66f"/><stop offset="1" style="stop-color:#897de4"/></linearGradient><path style="fill:none;stroke:url(#SVGID_29_);stroke-miterlimit:10" d="m380.3 114.1-85.5 49.4"/><path class="st7" d="M210.7 213.9v-98.3l84.4-46.3 83.7 46.3v98.3l-83.7 48.4z"/><path class="st7" d="M295.1 262.3v-98.4l-84.4-48.3"/><path class="st8" d="m378.8 115.6-83.7 48.3"/><linearGradient id="SVGID_30_" gradientUnits="userSpaceOnUse" x1="293.812" y1="164.475" x2="297.168" y2="164.475"><stop offset="0" style="stop-color:#66f"/><stop offset="1" style="stop-color:#897de4"/></linearGradient><path d="m293.8 165.4 1.7-2.3 1.6 2.3c.1 0-1.1 1-3.3 0z" style="fill:url(#SVGID_30_)"/><path class="st16" d="m295.5 163.9-84.4-48.3M379.2 115.6l-83.7 48.3"/><path class="st4" d="M112.2 713.2v-82.6l70.8-38.8 70.2 38.8v82.6L183 753.7z"/><linearGradient id="SVGID_31_" gradientUnits="userSpaceOnUse" x1="111.958" y1="691.966" x2="183.538" y2="691.966"><stop offset="0" style="stop-color:#66f"/><stop offset="1" style="stop-color:#897de4"/></linearGradient><path style="fill:none;stroke:url(#SVGID_31_);stroke-miterlimit:10" d="M183 753.7v-82.5l-70.8-40.6"/><linearGradient id="SVGID_32_" gradientUnits="userSpaceOnUse" x1="182.788" y1="650.919" x2="253.478" y2="650.919"><stop offset="0" style="stop-color:#66f"/><stop offset="1" style="stop-color:#897de4"/></linearGradient><path style="fill:none;stroke:url(#SVGID_32_);stroke-miterlimit:10" d="M253.2 630.6 183 671.2"/><path class="st7" d="M114 712.5v-80.7l69.3-37.9 68.7 37.9v80.7l-68.7 39.7z"/><path class="st7" d="M183.3 752.2v-80.7L114 631.8"/><path class="st8" d="m252 631.8-68.7 39.7"/><linearGradient id="SVGID_33_" gradientUnits="userSpaceOnUse" x1="182.233" y1="671.959" x2="184.987" y2="671.959"><stop offset="0" style="stop-color:#66f"/><stop offset="1" style="stop-color:#897de4"/></linearGradient><path d="m182.2 672.7 1.4-1.9 1.3 1.9c.1 0-.9.9-2.7 0z" style="fill:url(#SVGID_33_)"/><path class="st4" d="m183.6 671.5-69.2-39.7M252.3 631.8l-68.7 39.7M112.2 613.9v-82.6l70.8-38.8 70.2 38.8v82.6L183 654.4z"/><linearGradient id="SVGID_34_" gradientUnits="userSpaceOnUse" x1="111.958" y1="592.663" x2="183.538" y2="592.663"><stop offset="0" style="stop-color:#66f"/><stop offset="1" style="stop-color:#897de4"/></linearGradient><path style="fill:none;stroke:url(#SVGID_34_);stroke-miterlimit:10" d="M183 654.4v-82.5l-70.8-40.6"/><linearGradient id="SVGID_35_" gradientUnits="userSpaceOnUse" x1="182.788" y1="551.616" x2="253.478" y2="551.616"><stop offset="0" style="stop-color:#66f"/><stop offset="1" style="stop-color:#897de4"/></linearGradient><path style="fill:none;stroke:url(#SVGID_35_);stroke-miterlimit:10" d="M253.2 531.3 183 571.9"/><path class="st7" d="M114 613.2v-80.7l69.3-37.9 68.7 37.9v80.7l-68.7 39.7z"/><path class="st7" d="M183.3 652.9v-80.7L114 532.5"/><path class="st8" d="m252 532.5-68.7 39.7"/><linearGradient id="SVGID_36_" gradientUnits="userSpaceOnUse" x1="182.233" y1="572.655" x2="184.987" y2="572.655"><stop offset="0" style="stop-color:#66f"/><stop offset="1" style="stop-color:#897de4"/></linearGradient><path d="m182.2 573.4 1.4-1.9 1.3 1.9c.1 0-.9.9-2.7 0z" style="fill:url(#SVGID_36_)"/><path class="st4" d="m183.6 572.2-69.2-39.7M252.3 532.5l-68.7 39.7"/><path class="st16" d="M112.2 515v-82.5l70.8-38.8 70.2 38.8V515L183 555.5z"/><linearGradient id="SVGID_37_" gradientUnits="userSpaceOnUse" x1="111.958" y1="493.794" x2="183.538" y2="493.794"><stop offset="0" style="stop-color:#66f"/><stop offset="1" style="stop-color:#897de4"/></linearGradient><path style="fill:none;stroke:url(#SVGID_37_);stroke-miterlimit:10" d="M183 555.5V473l-70.8-40.5"/><linearGradient id="SVGID_38_" gradientUnits="userSpaceOnUse" x1="182.788" y1="452.747" x2="253.478" y2="452.747"><stop offset="0" style="stop-color:#66f"/><stop offset="1" style="stop-color:#897de4"/></linearGradient><path style="fill:none;stroke:url(#SVGID_38_);stroke-miterlimit:10" d="M253.2 432.5 183 473"/><path class="st7" d="M114 514.4v-80.8l69.3-37.9 68.7 37.9v80.8L183.3 554z"/><path class="st7" d="M183.3 554v-80.7L114 433.6"/><path class="st8" d="m252 433.6-68.7 39.7"/><linearGradient id="SVGID_39_" gradientUnits="userSpaceOnUse" x1="182.233" y1="473.786" x2="184.987" y2="473.786"><stop offset="0" style="stop-color:#66f"/><stop offset="1" style="stop-color:#897de4"/></linearGradient><path d="m182.2 474.6 1.4-1.9 1.3 1.9c.1 0-.9.8-2.7 0z" style="fill:url(#SVGID_39_)"/><path class="st16" d="m183.6 473.3-69.2-39.7M252.3 433.6l-68.7 39.7"/><path class="st4" d="M112.2 414v-82.5l70.8-38.8 70.2 38.8V414L183 454.5z"/><linearGradient id="SVGID_40_" gradientUnits="userSpaceOnUse" x1="111.958" y1="392.79" x2="183.538" y2="392.79"><stop offset="0" style="stop-color:#66f"/><stop offset="1" style="stop-color:#897de4"/></linearGradient><path style="fill:none;stroke:url(#SVGID_40_);stroke-miterlimit:10" d="M183 454.5V372l-70.8-40.5"/><linearGradient id="SVGID_41_" gradientUnits="userSpaceOnUse" x1="182.788" y1="351.743" x2="253.478" y2="351.743"><stop offset="0" style="stop-color:#66f"/><stop offset="1" style="stop-color:#897de4"/></linearGradient><path style="fill:none;stroke:url(#SVGID_41_);stroke-miterlimit:10" d="M253.2 331.5 183 372"/><path class="st7" d="M114 413.4v-80.8l69.3-37.9 68.7 37.9v80.8L183.3 453z"/><path class="st7" d="M183.3 453v-80.7L114 332.6"/><path class="st8" d="m252 332.6-68.7 39.7"/><linearGradient id="SVGID_42_" gradientUnits="userSpaceOnUse" x1="182.233" y1="372.783" x2="184.987" y2="372.783"><stop offset="0" style="stop-color:#66f"/><stop offset="1" style="stop-color:#897de4"/></linearGradient><path d="m182.2 373.6 1.4-1.9 1.3 1.9c.1 0-.9.8-2.7 0z" style="fill:url(#SVGID_42_)"/><path class="st4" d="m183.6 372.3-69.2-39.7M252.3 332.6l-68.7 39.7"/></g></svg>