<?xml version="1.0" encoding="utf-8"?>
<!-- Generator: Adobe Illustrator 19.0.0, SVG Export Plug-In . SVG Version: 6.00 Build 0)  -->
<svg version="1.1" id="Capa_1" xmlns="http://www.w3.org/2000/svg" xmlns:xlink="http://www.w3.org/1999/xlink" x="0px" y="0px"
	 viewBox="6 -6 512 512" style="enable-background:new 6 -6 512 512;" xml:space="preserve">
<style type="text/css">
	.st0{fill:none;stroke:#FFFFFF;stroke-width:8;stroke-miterlimit:10;}
	.st1{fill:none;stroke:#FFFFFF;stroke-width:8;stroke-linecap:round;stroke-linejoin:round;stroke-miterlimit:10;}
	.st2{fill:none;stroke:url(#SVGID_1_);stroke-width:10;stroke-miterlimit:10;}
	.st3{fill:none;stroke:url(#SVGID_2_);stroke-width:8;stroke-miterlimit:10;}
	.st4{fill:none;stroke:url(#SVGID_3_);stroke-width:8;stroke-miterlimit:10;}
	.st5{fill:none;stroke:url(#SVGID_4_);stroke-width:8;stroke-miterlimit:10;}
</style>
<path id="Stroke-35-Copy-3_1_" class="st0" d="M175.9,79.3c0,15.3-13.1,26.2-26.2,26.2c-13.1,0-26.2-13.1-26.2-26.2
	c0-15.3,13.1-26.2,26.2-26.2C162.8,53.1,175.9,64,175.9,79.3L175.9,79.3z"/>
<g id="Fill-5-Copy-3_1_">
	<path id="path-1_1_" class="st0" d="M237.5,428.7H121.3c-10.9,0-19.6-8.7-19.6-19.6V49.3c0-4.4,0-6.5,2.2-10.9
		c2.2-2.2,2.2-6.5,6.5-8.7c4.4-4.4,10.9-6.5,17.4-6.5h181h2.2l111.2,111.2v2.2v84.4"/>
</g>
<path id="Stroke-14-Copy-3_1_" class="st1" d="M212.9,81.5h48"/>
<path id="Stroke-8-Copy-2_1_" class="st1" d="M149.7,180.1h154.8"/>
<path id="Stroke-8-Copy-3_1_" class="st1" d="M149.7,234.7h146.1"/>
<path id="Stroke-8-Copy-4_1_" class="st1" d="M149.7,278.3h63.8"/>
<linearGradient id="SVGID_1_" gradientUnits="userSpaceOnUse" x1="222.3019" y1="339.1254" x2="499" y2="339.1254">
	<stop  offset="0" style="stop-color:#00FF99"/>
	<stop  offset="1" style="stop-color:#33CCFF"/>
</linearGradient>
<path class="st2" d="M297.6,443.9c20.1,13.5,44.2,21.3,70.2,21.3c69.7,0,126.1-56.5,126.1-126.1S437.5,213,367.9,213
	s-126.1,56.5-126.1,126.1c0,17.4,3.5,34,9.9,49.1c0,0-8.1,51.3-22.6,66.3S297.6,443.9,297.6,443.9z"/>
<g>
	<linearGradient id="SVGID_2_" gradientUnits="userSpaceOnUse" x1="316" y1="336.75" x2="345.5" y2="336.75">
		<stop  offset="0" style="stop-color:#00FF99"/>
		<stop  offset="1" style="stop-color:#33CCFF"/>
	</linearGradient>
	<circle class="st3" cx="330.8" cy="336.8" r="10.8"/>
	<linearGradient id="SVGID_3_" gradientUnits="userSpaceOnUse" x1="351.8456" y1="336.75" x2="381.3456" y2="336.75">
		<stop  offset="0" style="stop-color:#00FF99"/>
		<stop  offset="1" style="stop-color:#33CCFF"/>
	</linearGradient>
	<circle class="st4" cx="366.6" cy="336.8" r="10.8"/>
	<linearGradient id="SVGID_4_" gradientUnits="userSpaceOnUse" x1="387.6912" y1="336.75" x2="417.1912" y2="336.75">
		<stop  offset="0" style="stop-color:#00FF99"/>
		<stop  offset="1" style="stop-color:#33CCFF"/>
	</linearGradient>
	<circle class="st5" cx="402.4" cy="336.8" r="10.8"/>
</g>
</svg>
