<?xml version="1.0" encoding="utf-8"?>
<!-- Generator: Adobe Illustrator 19.0.0, SVG Export Plug-In . SVG Version: 6.00 Build 0)  -->
<svg version="1.1" id="Capa_1" xmlns="http://www.w3.org/2000/svg" xmlns:xlink="http://www.w3.org/1999/xlink" x="0px" y="0px"
	 viewBox="-44 -146 612 792" style="enable-background:new -44 -146 612 792;" xml:space="preserve">
<style type="text/css">
	.st0{fill:url(#SVGID_1_);stroke:url(#SVGID_2_);stroke-miterlimit:10;}
	.st1{fill:url(#SVGID_3_);stroke:url(#SVGID_4_);stroke-miterlimit:10;}
	.st2{fill:url(#SVGID_5_);stroke:url(#SVGID_6_);stroke-miterlimit:10;}
	.st3{fill:url(#SVGID_7_);stroke:url(#SVGID_8_);stroke-miterlimit:10;}
	.st4{fill:url(#SVGID_9_);stroke:url(#SVGID_10_);stroke-miterlimit:10;}
	.st5{fill:url(#SVGID_11_);stroke:url(#SVGID_12_);stroke-miterlimit:10;}
	.st6{fill:url(#SVGID_13_);}
	.st7{fill:url(#SVGID_14_);}
	.st8{fill:none;stroke:url(#SVGID_15_);stroke-width:6;stroke-miterlimit:10;}
	.st9{fill:none;stroke:url(#SVGID_16_);stroke-width:6;stroke-miterlimit:10;}
	.st10{fill:none;stroke:#FFFFFF;stroke-width:4;stroke-miterlimit:10;}
	.st11{fill:none;stroke:url(#SVGID_17_);stroke-width:6;stroke-miterlimit:10;}
	.st12{fill:none;stroke:url(#SVGID_18_);stroke-width:6;stroke-miterlimit:10;}
	.st13{fill:none;stroke:#FFFFFF;stroke-width:6;stroke-miterlimit:10;}
	.st14{fill:none;stroke:url(#SVGID_19_);stroke-width:6;stroke-miterlimit:10;}
	.st15{fill:none;stroke:url(#SVGID_20_);stroke-width:6;stroke-miterlimit:10;}
	.st16{fill:none;stroke:url(#SVGID_21_);stroke-width:6;stroke-miterlimit:10;}
	.st17{fill:none;stroke:url(#SVGID_22_);stroke-width:4;stroke-miterlimit:10;}
	.st18{fill:none;stroke:url(#SVGID_23_);stroke-width:4;stroke-miterlimit:10;}
</style>
<g>
	
		<linearGradient id="SVGID_1_" gradientUnits="userSpaceOnUse" x1="10.6" y1="-16362.2002" x2="17.2" y2="-16362.2002" gradientTransform="matrix(1 0 0 -1 0 -15884)">
		<stop  offset="9.817236e-008" style="stop-color:#3F00FC"/>
		<stop  offset="1" style="stop-color:#7F00FF"/>
	</linearGradient>
	
		<linearGradient id="SVGID_2_" gradientUnits="userSpaceOnUse" x1="10.1" y1="-16362.2002" x2="17.7" y2="-16362.2002" gradientTransform="matrix(1 0 0 -1 0 -15884)">
		<stop  offset="9.817236e-008" style="stop-color:#3F00FC"/>
		<stop  offset="1" style="stop-color:#7F00FF"/>
	</linearGradient>
	<circle class="st0" cx="13.9" cy="478.2" r="3.3"/>
	
		<linearGradient id="SVGID_3_" gradientUnits="userSpaceOnUse" x1="10.6" y1="-16320.7998" x2="17.2" y2="-16320.7998" gradientTransform="matrix(1 0 0 -1 0 -15884)">
		<stop  offset="9.817236e-008" style="stop-color:#3F00FC"/>
		<stop  offset="1" style="stop-color:#7F00FF"/>
	</linearGradient>
	
		<linearGradient id="SVGID_4_" gradientUnits="userSpaceOnUse" x1="10.1" y1="-16320.7998" x2="17.7" y2="-16320.7998" gradientTransform="matrix(1 0 0 -1 0 -15884)">
		<stop  offset="9.817236e-008" style="stop-color:#3F00FC"/>
		<stop  offset="1" style="stop-color:#7F00FF"/>
	</linearGradient>
	<circle class="st1" cx="13.9" cy="436.8" r="3.3"/>
	
		<linearGradient id="SVGID_5_" gradientUnits="userSpaceOnUse" x1="9.4" y1="-16284.5996" x2="16" y2="-16284.5996" gradientTransform="matrix(1 0 0 -1 0 -15884)">
		<stop  offset="9.817236e-008" style="stop-color:#3F00FC"/>
		<stop  offset="1" style="stop-color:#7F00FF"/>
	</linearGradient>
	
		<linearGradient id="SVGID_6_" gradientUnits="userSpaceOnUse" x1="8.9" y1="-16284.5996" x2="16.5" y2="-16284.5996" gradientTransform="matrix(1 0 0 -1 0 -15884)">
		<stop  offset="9.817236e-008" style="stop-color:#3F00FC"/>
		<stop  offset="1" style="stop-color:#7F00FF"/>
	</linearGradient>
	<circle class="st2" cx="12.7" cy="400.6" r="3.3"/>
	
		<linearGradient id="SVGID_7_" gradientUnits="userSpaceOnUse" x1="9.4" y1="-16243.2998" x2="16" y2="-16243.2998" gradientTransform="matrix(1 0 0 -1 0 -15884)">
		<stop  offset="9.817236e-008" style="stop-color:#3F00FC"/>
		<stop  offset="1" style="stop-color:#7F00FF"/>
	</linearGradient>
	
		<linearGradient id="SVGID_8_" gradientUnits="userSpaceOnUse" x1="8.9" y1="-16243.2998" x2="16.5" y2="-16243.2998" gradientTransform="matrix(1 0 0 -1 0 -15884)">
		<stop  offset="9.817236e-008" style="stop-color:#3F00FC"/>
		<stop  offset="1" style="stop-color:#7F00FF"/>
	</linearGradient>
	<circle class="st3" cx="12.7" cy="359.3" r="3.3"/>
	
		<linearGradient id="SVGID_9_" gradientUnits="userSpaceOnUse" x1="9.4" y1="-16206.7002" x2="16" y2="-16206.7002" gradientTransform="matrix(1 0 0 -1 0 -15884)">
		<stop  offset="9.817236e-008" style="stop-color:#3F00FC"/>
		<stop  offset="1" style="stop-color:#7F00FF"/>
	</linearGradient>
	
		<linearGradient id="SVGID_10_" gradientUnits="userSpaceOnUse" x1="8.9" y1="-16206.7002" x2="16.5" y2="-16206.7002" gradientTransform="matrix(1 0 0 -1 0 -15884)">
		<stop  offset="9.817236e-008" style="stop-color:#3F00FC"/>
		<stop  offset="1" style="stop-color:#7F00FF"/>
	</linearGradient>
	<circle class="st4" cx="12.7" cy="322.7" r="3.3"/>
	
		<linearGradient id="SVGID_11_" gradientUnits="userSpaceOnUse" x1="9.4" y1="-16166.4004" x2="16" y2="-16166.4004" gradientTransform="matrix(1 0 0 -1 0 -15884)">
		<stop  offset="9.817236e-008" style="stop-color:#3F00FC"/>
		<stop  offset="1" style="stop-color:#7F00FF"/>
	</linearGradient>
	
		<linearGradient id="SVGID_12_" gradientUnits="userSpaceOnUse" x1="8.9" y1="-16166.4004" x2="16.5" y2="-16166.4004" gradientTransform="matrix(1 0 0 -1 0 -15884)">
		<stop  offset="9.817236e-008" style="stop-color:#3F00FC"/>
		<stop  offset="1" style="stop-color:#7F00FF"/>
	</linearGradient>
	<circle class="st5" cx="12.7" cy="282.4" r="3.3"/>
</g>
<linearGradient id="SVGID_13_" gradientUnits="userSpaceOnUse" x1="443.5" y1="-15986.7998" x2="450.1" y2="-15986.7998" gradientTransform="matrix(1 0 0 -1 0 -15884)">
	<stop  offset="9.817236e-008" style="stop-color:#3F00FC"/>
	<stop  offset="1" style="stop-color:#7F00FF"/>
</linearGradient>
<circle class="st6" cx="446.8" cy="102.8" r="3.3"/>
<linearGradient id="SVGID_14_" gradientUnits="userSpaceOnUse" x1="443.5" y1="-15946.5996" x2="450.1" y2="-15946.5996" gradientTransform="matrix(1 0 0 -1 0 -15884)">
	<stop  offset="9.817236e-008" style="stop-color:#3F00FC"/>
	<stop  offset="1" style="stop-color:#7F00FF"/>
</linearGradient>
<circle class="st7" cx="446.8" cy="62.6" r="3.3"/>
<text transform="matrix(1 0 0 1 -2955.5 -3477.5)" style="font-family:'MyriadPro-Regular'; font-size:12px;">    max-width: 600px;</text>
<text transform="matrix(1 0 0 1 -2955.5 -3463.1001)" style="font-family:'MyriadPro-Regular'; font-size:12px;">    margin: 0 auto;</text>
<g>
	<linearGradient id="SVGID_15_" gradientUnits="userSpaceOnUse" x1="224.4333" y1="356.9724" x2="402.3333" y2="356.9724">
		<stop  offset="9.817236e-008" style="stop-color:#3F00FC"/>
		<stop  offset="1" style="stop-color:#7F00FF"/>
	</linearGradient>
	<polygon class="st8" points="227.4,305.7 313.7,258.4 399.3,305.7 399.3,406.2 313.7,455.6 227.4,406.2 	"/>
	<linearGradient id="SVGID_16_" gradientUnits="userSpaceOnUse" x1="225.9647" y1="330.5222" x2="400.832" y2="330.5222">
		<stop  offset="9.817236e-008" style="stop-color:#3F00FC"/>
		<stop  offset="1" style="stop-color:#7F00FF"/>
	</linearGradient>
	<polyline class="st9" points="227.4,305.7 314.5,354.6 399.3,305.7 	"/>
</g>
<g>
	<polygon class="st10" points="415.5,-27.5 447.2,-44.9 478.7,-27.5 478.7,9.4 447.2,27.5 415.5,9.4 	"/>
	<polyline class="st10" points="415.5,-27.5 447.5,-9.5 478.7,-27.5 	"/>
</g>
<g>
	<linearGradient id="SVGID_17_" gradientUnits="userSpaceOnUse" x1="417.95" y1="171.1729" x2="543.15" y2="171.1729">
		<stop  offset="9.817236e-008" style="stop-color:#3F00FC"/>
		<stop  offset="1" style="stop-color:#7F00FF"/>
	</linearGradient>
	<polygon class="st11" points="480.9,239.6 421,205.3 421,135.6 480.9,102.8 540.2,135.6 540.2,205.3 	"/>
	<linearGradient id="SVGID_18_" gradientUnits="userSpaceOnUse" x1="421.245" y1="153.4818" x2="541.6821" y2="153.4818">
		<stop  offset="9.817236e-008" style="stop-color:#3F00FC"/>
		<stop  offset="1" style="stop-color:#7F00FF"/>
	</linearGradient>
	<polyline class="st12" points="422.8,136.6 481.3,170.5 540.2,135.6 	"/>
	<polygon class="st13" points="421,290.8 421,221 435,213.3 480.9,239.6 527.4,212.6 540.2,221 540.2,290.8 480.9,325 	"/>
	<polyline class="st13" points="421,221 481.4,255 540.2,221 	"/>
	<polygon class="st13" points="480.9,408.6 421,375.8 419,304.6 433.3,297.8 480.9,325 527.9,297.8 540.2,304.6 540.2,374.3 	"/>
	<polyline class="st13" points="419,304.6 481,339.1 540.2,304.6 	"/>
	<polygon class="st13" points="480.9,492.6 421,458.3 421,388.5 432.5,382.1 480.9,408.6 527.6,381.5 540.2,388.5 540.2,458.3 	"/>
	<polyline class="st13" points="421,388.5 481.4,422.5 540.2,388.5 	"/>
	<linearGradient id="SVGID_19_" gradientUnits="userSpaceOnUse" x1="421.245" y1="222.404" x2="541.6821" y2="222.404">
		<stop  offset="9.817236e-008" style="stop-color:#3F00FC"/>
		<stop  offset="1" style="stop-color:#7F00FF"/>
	</linearGradient>
	<polyline class="st14" points="422.8,205.5 481.3,239.4 540.2,204.5 	"/>
</g>
<g>
	<polyline class="st13" points="379.2,60.8 399.6,71.5 399.6,172.1 314.1,221.5 227.8,174.3 227.8,71.5 246.1,61.4 	"/>
	<polyline class="st13" points="227.8,71.5 314.8,121.3 399.6,71.5 	"/>
	<g>
		<linearGradient id="SVGID_20_" gradientUnits="userSpaceOnUse" x1="224.1583" y1="0.1168" x2="402.0583" y2="0.1168">
			<stop  offset="9.817236e-008" style="stop-color:#3F00FC"/>
			<stop  offset="1" style="stop-color:#7F00FF"/>
		</linearGradient>
		<polygon class="st15" points="227.2,-51.2 313.5,-98.5 399.1,-51.2 399.1,49.3 313.5,98.7 227.2,49.3 		"/>
		<linearGradient id="SVGID_21_" gradientUnits="userSpaceOnUse" x1="225.6897" y1="-26.3334" x2="400.557" y2="-26.3334">
			<stop  offset="9.817236e-008" style="stop-color:#3F00FC"/>
			<stop  offset="1" style="stop-color:#7F00FF"/>
		</linearGradient>
		<polyline class="st16" points="227.2,-51.2 314.3,-2.3 399.1,-51.2 		"/>
	</g>
</g>
<g>
	<linearGradient id="SVGID_22_" gradientUnits="userSpaceOnUse" x1="-18.15" y1="202.5229" x2="44.85" y2="202.5229">
		<stop  offset="9.817236e-008" style="stop-color:#3F00FC"/>
		<stop  offset="1" style="stop-color:#7F00FF"/>
	</linearGradient>
	<polygon class="st17" points="-16.1,184.9 13.5,168.7 42.9,184.9 42.9,219.4 13.5,236.4 -16.1,219.4 	"/>
	<linearGradient id="SVGID_23_" gradientUnits="userSpaceOnUse" x1="-17.1291" y1="193.574" x2="43.8491" y2="193.574">
		<stop  offset="9.817236e-008" style="stop-color:#3F00FC"/>
		<stop  offset="1" style="stop-color:#7F00FF"/>
	</linearGradient>
	<polyline class="st18" points="-16.1,184.9 13.7,201.7 42.9,184.9 	"/>
</g>
<g>
	<polygon class="st13" points="66.1,160.9 139.5,120.6 212.4,160.9 212.4,246.4 139.5,288.5 66.1,246.4 	"/>
	<polyline class="st13" points="66.1,160.9 140.2,202.5 212.4,160.9 	"/>
</g>
<polyline class="st13" points="192.7,257.8 208.9,266.8 208.9,349.3 138.7,389.8 67.9,349.3 67.9,266.8 85.1,257.3 "/>
<polyline class="st13" points="67.9,266.8 139.3,307 208.9,266.8 "/>
<polyline class="st13" points="192.7,357.7 208.9,366.6 208.9,449.1 138.7,489.6 67.9,449.1 67.9,366.6 85.1,357.2 "/>
<polyline class="st13" points="67.9,366.6 139.3,406.8 208.9,366.6 "/>
<polyline class="st13" points="192.7,457.6 208.9,466.5 208.9,549 138.7,589.5 67.9,549 67.9,466.5 85.1,457.1 "/>
<polyline class="st13" points="67.9,466.5 139.3,506.7 208.9,466.5 "/>
</svg>
