<svg version="1.1" id="Capa_1" xmlns="http://www.w3.org/2000/svg" x="0" y="0" viewBox="-44 -146 612 792" style="enable-background:new -44 -146 612 792" xml:space="preserve"><style>.st10,.st13{fill:none;stroke:#fff;stroke-width:4;stroke-miterlimit:10}.st13{stroke-width:6}</style><linearGradient id="SVGID_1_" gradientUnits="userSpaceOnUse" x1="10.6" y1="-16362.2" x2="17.2" y2="-16362.2" gradientTransform="matrix(1 0 0 -1 0 -15884)"><stop offset="0" style="stop-color:#3f00fc"/><stop offset="1" style="stop-color:#7f00ff"/></linearGradient><linearGradient id="SVGID_2_" gradientUnits="userSpaceOnUse" x1="10.1" y1="-16362.2" x2="17.7" y2="-16362.2" gradientTransform="matrix(1 0 0 -1 0 -15884)"><stop offset="0" style="stop-color:#3f00fc"/><stop offset="1" style="stop-color:#7f00ff"/></linearGradient><circle cx="13.9" cy="478.2" r="3.3" style="fill:url(#SVGID_1_);stroke:url(#SVGID_2_);stroke-miterlimit:10"/><linearGradient id="SVGID_3_" gradientUnits="userSpaceOnUse" x1="10.6" y1="-16320.8" x2="17.2" y2="-16320.8" gradientTransform="matrix(1 0 0 -1 0 -15884)"><stop offset="0" style="stop-color:#3f00fc"/><stop offset="1" style="stop-color:#7f00ff"/></linearGradient><linearGradient id="SVGID_4_" gradientUnits="userSpaceOnUse" x1="10.1" y1="-16320.8" x2="17.7" y2="-16320.8" gradientTransform="matrix(1 0 0 -1 0 -15884)"><stop offset="0" style="stop-color:#3f00fc"/><stop offset="1" style="stop-color:#7f00ff"/></linearGradient><circle cx="13.9" cy="436.8" r="3.3" style="fill:url(#SVGID_3_);stroke:url(#SVGID_4_);stroke-miterlimit:10"/><linearGradient id="SVGID_5_" gradientUnits="userSpaceOnUse" x1="9.4" y1="-16284.6" x2="16" y2="-16284.6" gradientTransform="matrix(1 0 0 -1 0 -15884)"><stop offset="0" style="stop-color:#3f00fc"/><stop offset="1" style="stop-color:#7f00ff"/></linearGradient><linearGradient id="SVGID_6_" gradientUnits="userSpaceOnUse" x1="8.9" y1="-16284.6" x2="16.5" y2="-16284.6" gradientTransform="matrix(1 0 0 -1 0 -15884)"><stop offset="0" style="stop-color:#3f00fc"/><stop offset="1" style="stop-color:#7f00ff"/></linearGradient><circle cx="12.7" cy="400.6" r="3.3" style="fill:url(#SVGID_5_);stroke:url(#SVGID_6_);stroke-miterlimit:10"/><linearGradient id="SVGID_7_" gradientUnits="userSpaceOnUse" x1="9.4" y1="-16243.3" x2="16" y2="-16243.3" gradientTransform="matrix(1 0 0 -1 0 -15884)"><stop offset="0" style="stop-color:#3f00fc"/><stop offset="1" style="stop-color:#7f00ff"/></linearGradient><linearGradient id="SVGID_8_" gradientUnits="userSpaceOnUse" x1="8.9" y1="-16243.3" x2="16.5" y2="-16243.3" gradientTransform="matrix(1 0 0 -1 0 -15884)"><stop offset="0" style="stop-color:#3f00fc"/><stop offset="1" style="stop-color:#7f00ff"/></linearGradient><circle cx="12.7" cy="359.3" r="3.3" style="fill:url(#SVGID_7_);stroke:url(#SVGID_8_);stroke-miterlimit:10"/><linearGradient id="SVGID_9_" gradientUnits="userSpaceOnUse" x1="9.4" y1="-16206.7" x2="16" y2="-16206.7" gradientTransform="matrix(1 0 0 -1 0 -15884)"><stop offset="0" style="stop-color:#3f00fc"/><stop offset="1" style="stop-color:#7f00ff"/></linearGradient><linearGradient id="SVGID_10_" gradientUnits="userSpaceOnUse" x1="8.9" y1="-16206.7" x2="16.5" y2="-16206.7" gradientTransform="matrix(1 0 0 -1 0 -15884)"><stop offset="0" style="stop-color:#3f00fc"/><stop offset="1" style="stop-color:#7f00ff"/></linearGradient><circle cx="12.7" cy="322.7" r="3.3" style="fill:url(#SVGID_9_);stroke:url(#SVGID_10_);stroke-miterlimit:10"/><linearGradient id="SVGID_11_" gradientUnits="userSpaceOnUse" x1="9.4" y1="-16166.4" x2="16" y2="-16166.4" gradientTransform="matrix(1 0 0 -1 0 -15884)"><stop offset="0" style="stop-color:#3f00fc"/><stop offset="1" style="stop-color:#7f00ff"/></linearGradient><linearGradient id="SVGID_12_" gradientUnits="userSpaceOnUse" x1="8.9" y1="-16166.4" x2="16.5" y2="-16166.4" gradientTransform="matrix(1 0 0 -1 0 -15884)"><stop offset="0" style="stop-color:#3f00fc"/><stop offset="1" style="stop-color:#7f00ff"/></linearGradient><circle cx="12.7" cy="282.4" r="3.3" style="fill:url(#SVGID_11_);stroke:url(#SVGID_12_);stroke-miterlimit:10"/><linearGradient id="SVGID_13_" gradientUnits="userSpaceOnUse" x1="443.5" y1="-15986.8" x2="450.1" y2="-15986.8" gradientTransform="matrix(1 0 0 -1 0 -15884)"><stop offset="0" style="stop-color:#3f00fc"/><stop offset="1" style="stop-color:#7f00ff"/></linearGradient><circle cx="446.8" cy="102.8" r="3.3" style="fill:url(#SVGID_13_)"/><linearGradient id="SVGID_14_" gradientUnits="userSpaceOnUse" x1="443.5" y1="-15946.6" x2="450.1" y2="-15946.6" gradientTransform="matrix(1 0 0 -1 0 -15884)"><stop offset="0" style="stop-color:#3f00fc"/><stop offset="1" style="stop-color:#7f00ff"/></linearGradient><circle cx="446.8" cy="62.6" r="3.3" style="fill:url(#SVGID_14_)"/><text transform="translate(-2955.5 -3477.5)" style="font-family:'MyriadPro-Regular';font-size:12px">    max-width: 600px;</text><text transform="translate(-2955.5 -3463.1)" style="font-family:'MyriadPro-Regular';font-size:12px">    margin: 0 auto;</text><linearGradient id="SVGID_15_" gradientUnits="userSpaceOnUse" x1="224.433" y1="356.972" x2="402.333" y2="356.972"><stop offset="0" style="stop-color:#3f00fc"/><stop offset="1" style="stop-color:#7f00ff"/></linearGradient><path style="fill:none;stroke:url(#SVGID_15_);stroke-width:6;stroke-miterlimit:10" d="m227.4 305.7 86.3-47.3 85.6 47.3v100.5l-85.6 49.4-86.3-49.4z"/><linearGradient id="SVGID_16_" gradientUnits="userSpaceOnUse" x1="225.965" y1="330.522" x2="400.832" y2="330.522"><stop offset="0" style="stop-color:#3f00fc"/><stop offset="1" style="stop-color:#7f00ff"/></linearGradient><path style="fill:none;stroke:url(#SVGID_16_);stroke-width:6;stroke-miterlimit:10" d="m227.4 305.7 87.1 48.9 84.8-48.9"/><path class="st10" d="m415.5-27.5 31.7-17.4 31.5 17.4V9.4l-31.5 18.1-31.7-18.1z"/><path class="st10" d="m415.5-27.5 32 18 31.2-18"/><linearGradient id="SVGID_17_" gradientUnits="userSpaceOnUse" x1="417.95" y1="171.173" x2="543.15" y2="171.173"><stop offset="0" style="stop-color:#3f00fc"/><stop offset="1" style="stop-color:#7f00ff"/></linearGradient><path style="fill:none;stroke:url(#SVGID_17_);stroke-width:6;stroke-miterlimit:10" d="M480.9 239.6 421 205.3v-69.7l59.9-32.8 59.3 32.8v69.7z"/><linearGradient id="SVGID_18_" gradientUnits="userSpaceOnUse" x1="421.245" y1="153.482" x2="541.682" y2="153.482"><stop offset="0" style="stop-color:#3f00fc"/><stop offset="1" style="stop-color:#7f00ff"/></linearGradient><path style="fill:none;stroke:url(#SVGID_18_);stroke-width:6;stroke-miterlimit:10" d="m422.8 136.6 58.5 33.9 58.9-34.9"/><path class="st13" d="M421 290.8V221l14-7.7 45.9 26.3 46.5-27 12.8 8.4v69.8L480.9 325z"/><path class="st13" d="m421 221 60.4 34 58.8-34M480.9 408.6 421 375.8l-2-71.2 14.3-6.8 47.6 27.2 47-27.2 12.3 6.8v69.7z"/><path class="st13" d="m419 304.6 62 34.5 59.2-34.5M480.9 492.6 421 458.3v-69.8l11.5-6.4 48.4 26.5 46.7-27.1 12.6 7v69.8z"/><path class="st13" d="m421 388.5 60.4 34 58.8-34"/><linearGradient id="SVGID_19_" gradientUnits="userSpaceOnUse" x1="421.245" y1="222.404" x2="541.682" y2="222.404"><stop offset="0" style="stop-color:#3f00fc"/><stop offset="1" style="stop-color:#7f00ff"/></linearGradient><path style="fill:none;stroke:url(#SVGID_19_);stroke-width:6;stroke-miterlimit:10" d="m422.8 205.5 58.5 33.9 58.9-34.9"/><path class="st13" d="m379.2 60.8 20.4 10.7v100.6l-85.5 49.4-86.3-47.2V71.5l18.3-10.1"/><path class="st13" d="m227.8 71.5 87 49.8 84.8-49.8"/><linearGradient id="SVGID_20_" gradientUnits="userSpaceOnUse" x1="224.158" y1=".117" x2="402.058" y2=".117"><stop offset="0" style="stop-color:#3f00fc"/><stop offset="1" style="stop-color:#7f00ff"/></linearGradient><path style="fill:none;stroke:url(#SVGID_20_);stroke-width:6;stroke-miterlimit:10" d="m227.2-51.2 86.3-47.3 85.6 47.3V49.3l-85.6 49.4-86.3-49.4z"/><linearGradient id="SVGID_21_" gradientUnits="userSpaceOnUse" x1="225.69" y1="-26.333" x2="400.557" y2="-26.333"><stop offset="0" style="stop-color:#3f00fc"/><stop offset="1" style="stop-color:#7f00ff"/></linearGradient><path style="fill:none;stroke:url(#SVGID_21_);stroke-width:6;stroke-miterlimit:10" d="m227.2-51.2 87.1 48.9 84.8-48.9"/><linearGradient id="SVGID_22_" gradientUnits="userSpaceOnUse" x1="-18.15" y1="202.523" x2="44.85" y2="202.523"><stop offset="0" style="stop-color:#3f00fc"/><stop offset="1" style="stop-color:#7f00ff"/></linearGradient><path style="fill:none;stroke:url(#SVGID_22_);stroke-width:4;stroke-miterlimit:10" d="m-16.1 184.9 29.6-16.2 29.4 16.2v34.5l-29.4 17-29.6-17z"/><linearGradient id="SVGID_23_" gradientUnits="userSpaceOnUse" x1="-17.129" y1="193.574" x2="43.849" y2="193.574"><stop offset="0" style="stop-color:#3f00fc"/><stop offset="1" style="stop-color:#7f00ff"/></linearGradient><path style="fill:none;stroke:url(#SVGID_23_);stroke-width:4;stroke-miterlimit:10" d="m-16.1 184.9 29.8 16.8 29.2-16.8"/><path class="st13" d="m66.1 160.9 73.4-40.3 72.9 40.3v85.5l-72.9 42.1-73.4-42.1z"/><path class="st13" d="m66.1 160.9 74.1 41.6 72.2-41.6M192.7 257.8l16.2 9v82.5l-70.2 40.5-70.8-40.5v-82.5l17.2-9.5"/><path class="st13" d="m67.9 266.8 71.4 40.2 69.6-40.2M192.7 357.7l16.2 8.9v82.5l-70.2 40.5-70.8-40.5v-82.5l17.2-9.4"/><path class="st13" d="m67.9 366.6 71.4 40.2 69.6-40.2M192.7 457.6l16.2 8.9V549l-70.2 40.5L67.9 549v-82.5l17.2-9.4"/><path class="st13" d="m67.9 466.5 71.4 40.2 69.6-40.2"/></svg>