<?xml version="1.0" encoding="utf-8"?>
<!-- Generator: Adobe Illustrator 19.0.0, SVG Export Plug-In . SVG Version: 6.00 Build 0)  -->
<svg version="1.1" id="Capa_1" xmlns="http://www.w3.org/2000/svg" xmlns:xlink="http://www.w3.org/1999/xlink" x="0px" y="0px"
	 viewBox="31 -31 512 512" style="enable-background:new 31 -31 512 512;" xml:space="preserve">
<style type="text/css">
	.st0{fill:none;stroke:#FFFFFF;stroke-width:8;stroke-miterlimit:10;}
	.st1{fill:none;stroke:#FFFFFF;stroke-width:8;stroke-linecap:round;stroke-linejoin:round;stroke-miterlimit:10;}
	.st2{fill:none;stroke:url(#XMLID_2_);stroke-width:8;stroke-miterlimit:10;}
	.st3{fill:none;stroke:url(#SVGID_1_);stroke-width:8;stroke-linecap:round;stroke-linejoin:round;stroke-miterlimit:10;}
	.st4{fill:none;stroke:url(#SVGID_2_);stroke-width:8;stroke-linecap:round;stroke-linejoin:round;stroke-miterlimit:10;}
	.st5{fill:none;stroke:url(#SVGID_3_);stroke-width:8;stroke-linecap:round;stroke-linejoin:round;stroke-miterlimit:10;}
	.st6{fill:none;stroke:url(#SVGID_4_);stroke-width:8;stroke-linecap:round;stroke-linejoin:round;stroke-miterlimit:10;}
	.st7{fill:none;stroke:url(#SVGID_5_);stroke-width:8;stroke-linecap:round;stroke-linejoin:round;stroke-miterlimit:10;}
	.st8{fill:none;stroke:url(#SVGID_6_);stroke-width:8;stroke-linecap:round;stroke-linejoin:round;stroke-miterlimit:10;}
</style>
<path id="Stroke-35-Copy-3_1_" class="st0" d="M206.9,48.3c0,15.3-13.1,26.2-26.2,26.2c-13.1,0-26.2-13.1-26.2-26.2
	c0-15.3,13.1-26.2,26.2-26.2C193.8,22.1,206.9,33,206.9,48.3L206.9,48.3z"/>
<g id="Fill-5-Copy-3_1_">
	<path id="path-1_1_" class="st0" d="M268.5,397.7H152.3c-10.9,0-19.6-8.7-19.6-19.6V18.3c0-4.4,0-6.5,2.2-10.9
		c2.2-2.2,2.2-6.5,6.5-8.7c4.4-4.4,10.9-6.5,17.4-6.5h181h2.2l111.2,111.2v2.2V190"/>
</g>
<path id="Stroke-14-Copy-3_1_" class="st1" d="M243.9,50.5h48"/>
<path id="Stroke-8-Copy-2_1_" class="st1" d="M180.7,149.1h154.8"/>
<path id="Stroke-8-Copy-3_1_" class="st1" d="M180.7,203.7h176.6"/>
<path id="Stroke-8-Copy-4_1_" class="st1" d="M180.7,247.3h63.8"/>
<linearGradient id="XMLID_2_" gradientUnits="userSpaceOnUse" x1="238.0979" y1="132.95" x2="542.2021" y2="132.95" gradientTransform="matrix(1 0 0 -1 0 450)">
	<stop  offset="1.916698e-007" style="stop-color:#7F00FF"/>
	<stop  offset="1" style="stop-color:#5671FF"/>
</linearGradient>
<path id="XMLID_31_" class="st2" d="M242.5,257.1c-2.1-8.6,4.3-17.1,12.8-19.3L364,214.1l89.3-19.6l26.8-5.9
	c8.6-2.1,17.1,4.3,19.3,12.8L537.8,377c2.1,8.6-4.3,17.1-12.8,19.3l-224.7,49.2c-8.6,2.1-17.1-4.3-19.3-12.8l-7.7-34.9l-0.3-1.5
	L242.5,257.1z"/>
<linearGradient id="SVGID_1_" gradientUnits="userSpaceOnUse" x1="357.3059" y1="317.05" x2="422.9941" y2="317.05">
	<stop  offset="1.916698e-007" style="stop-color:#7F00FF"/>
	<stop  offset="1" style="stop-color:#5671FF"/>
</linearGradient>
<circle class="st3" cx="390.1" cy="317.1" r="28.8"/>
<linearGradient id="SVGID_2_" gradientUnits="userSpaceOnUse" x1="333.3304" y1="317.05" x2="446.9696" y2="317.05">
	<stop  offset="1.916698e-007" style="stop-color:#7F00FF"/>
	<stop  offset="1" style="stop-color:#5671FF"/>
</linearGradient>
<circle class="st4" cx="390.1" cy="317.1" r="52.8"/>
<linearGradient id="SVGID_3_" gradientUnits="userSpaceOnUse" x1="389.0066" y1="357.8109" x2="400" y2="357.8109">
	<stop  offset="1.916698e-007" style="stop-color:#7F00FF"/>
	<stop  offset="1" style="stop-color:#5671FF"/>
</linearGradient>
<line class="st5" x1="393" y1="345.8" x2="396" y2="369.9"/>
<linearGradient id="SVGID_4_" gradientUnits="userSpaceOnUse" x1="413.314" y1="302.9457" x2="443.6363" y2="302.9457">
	<stop  offset="1.916698e-007" style="stop-color:#7F00FF"/>
	<stop  offset="1" style="stop-color:#5671FF"/>
</linearGradient>
<line class="st6" x1="417.3" y1="307.3" x2="439.6" y2="298.6"/>
<linearGradient id="SVGID_5_" gradientUnits="userSpaceOnUse" x1="267" y1="276.625" x2="337" y2="276.625">
	<stop  offset="1.916698e-007" style="stop-color:#7F00FF"/>
	<stop  offset="1" style="stop-color:#5671FF"/>
</linearGradient>
<polyline class="st7" points="333,285.8 313.3,267.5 271,276.6 "/>
<linearGradient id="SVGID_6_" gradientUnits="userSpaceOnUse" x1="109.5249" y1="386.0384" x2="179.5249" y2="386.0384" gradientTransform="matrix(-1 0 0 -1 604 765.033)">
	<stop  offset="1.916698e-007" style="stop-color:#7F00FF"/>
	<stop  offset="1" style="stop-color:#5671FF"/>
</linearGradient>
<polyline class="st8" points="428.5,369.9 448.2,388.1 490.5,379 "/>
</svg>
