<?xml version="1.0" encoding="utf-8"?>
<!-- Generator: Adobe Illustrator 19.0.0, SVG Export Plug-In . SVG Version: 6.00 Build 0)  -->
<svg version="1.1" id="Capa_1" xmlns="http://www.w3.org/2000/svg" xmlns:xlink="http://www.w3.org/1999/xlink" x="0px" y="0px"
	 viewBox="225 -56 900 563" style="enable-background:new 225 -56 900 563;" xml:space="preserve">
<style type="text/css">
	.st0{fill:url(#SVGID_1_);}
	.st1{opacity:0.93;}
	.st2{fill:#FFFFFF;}
</style>
<linearGradient id="SVGID_1_" gradientUnits="userSpaceOnUse" x1="225" y1="226.5" x2="1125" y2="226.5" gradientTransform="matrix(1 0 0 -1 0 452)">
	<stop  offset="0" style="stop-color:#7F00FF"/>
	<stop  offset="0.2752" style="stop-color:#7C00FF"/>
	<stop  offset="0.4903" style="stop-color:#7200FF"/>
	<stop  offset="0.6852" style="stop-color:#6100FF"/>
	<stop  offset="0.867" style="stop-color:#4A00FF"/>
	<stop  offset="1" style="stop-color:#3400FF"/>
</linearGradient>
<rect x="225" y="-56" class="st0" width="900" height="563"/>
<g class="st1">
	<path class="st2" d="M462.6,220.1l9.9-17.5c0,0-18.8-13.7-40.1-3.7c-21.2,9.9-21.5,31.2-21.5,31.2s1.7,19.2,11.3,26
		c9.6,6.8,13.7,11.3,35.3,9.9c21.6-1.4,29.8-26.4,29.8-26.4l8.9-16.5c0,0,7.9-14,26-5.5c0,0,12.4,10.6,4.1,22.3
		c-8.2,11.6-22.6,5.8-22.6,5.8l-10.6-6.5l-8.9,15.7c0,0,13.7,13.2,28.7,11.2c15.1-1.9,22.3-7.5,22.3-7.5s23.3-16.5,12-41.8
		s-39.1-21.6-39.1-21.6s-16.1,2.6-21.9,8.7c0,0-3.7,3.1-7.2,8.5c-3.5,5.5-16.1,29.1-16.1,29.1s-5.8,7.5-18.2,5.1
		c-12.4-2.4-11.6-18.5-11.6-18.5s-1-10.6,11.6-12.6C457.4,213.6,462.6,220.1,462.6,220.1z"/>
	<path class="st2" d="M873.2,202l-23.1,62.3h-21.2L805.8,202h20.7l12.9,39.6l12.9-39.6L873.2,202L873.2,202z"/>
	<path class="st2" d="M909.2,249.3c5.1,0,9.5-2,12-4.7l14.9,8.6c-6.1,8.5-15.4,12.9-27.2,12.9c-21.3,0-34.6-14.3-34.6-32.9
		s13.5-32.9,33.2-32.9c18.2,0,31.6,14.1,31.6,32.9c0,2.6-0.3,5.1-0.7,7.5h-44.3C896.6,247.1,902.4,249.3,909.2,249.3z M920.7,226.7
		c-2-7.3-7.6-9.9-13.2-9.9c-7.1,0-11.8,3.5-13.5,9.9C893.9,226.7,920.7,226.7,920.7,226.7z"/>
	<path class="st2" d="M648.6,226.1v38.3H630v-35.6c0-7.7-4.9-11.4-10.8-11.4c-6.8,0-11.5,4-11.5,12.9v34h-18.7V202h18.7v5.9
		c3.4-4.6,9.6-7.6,17.8-7.6C637.8,200.3,648.6,209.3,648.6,226.1z"/>
	<path class="st2" d="M725.6,202.1v62.3h-18.7v-5.9c-4.1,4.7-10.2,7.6-18.6,7.6c-16.3,0-29.8-14.3-29.8-32.9s13.5-32.9,29.8-32.9
		c8.4,0,14.5,2.9,18.6,7.6V202h18.7V202.1z M706.9,233.2c0-9.4-6.2-15.2-14.9-15.2s-14.9,5.9-14.9,15.2c0,9.4,6.2,15.2,14.9,15.2
		S706.9,242.6,706.9,233.2z"/>
	<path class="st2" d="M762.6,220v22.1c0,5.4,4.6,5.9,12.9,5.4v17c-24.5,2.5-31.6-4.9-31.6-22.4V220h-10v-17.9h10v-11.8l18.7-5.6
		v17.5h12.9v17.9L762.6,220L762.6,220z"/>
	<rect x="559.2" y="202.1" class="st2" width="18.7" height="62.3"/>
	<rect x="783.5" y="202.1" class="st2" width="18.7" height="62.3"/>
</g>
</svg>
