<svg xmlns="http://www.w3.org/2000/svg" viewBox="0 0 1920 1080" style="enable-background:new 0 0 1920 1080" xml:space="preserve"><path d="M451.4 580.1-858.3 393.3c-65.9-9.4-111.7-70.4-102.3-136.3l142.8-1000.9c9.4-65.9 70.4-111.7 136.3-102.3L628.2-659.3c65.9 9.4 111.7 70.4 102.3 136.3L587.8 477.8c-9.4 65.9-70.5 111.7-136.4 102.3z" style="opacity:.1;fill:#171b31"/><path d="M647.5 502.5-634.1 174.3c-64.5-16.5-103.3-82.2-86.8-146.6L-470-951.7c16.5-64.5 82.2-103.3 146.6-86.8L958.2-710.3c64.5 16.5 103.3 82.2 86.8 146.6L794.1 415.7C777.6 480.2 712 519 647.5 502.5z" style="opacity:.2;fill:#524696"/></svg>