<?xml version="1.0" encoding="utf-8"?>
<!-- Generator: Adobe Illustrator 19.0.0, SVG Export Plug-In . SVG Version: 6.00 Build 0)  -->
<svg version="1.1" id="Capa_1" xmlns="http://www.w3.org/2000/svg" xmlns:xlink="http://www.w3.org/1999/xlink" x="0px" y="0px"
	 viewBox="6 -6 512 512" style="enable-background:new 6 -6 512 512;" xml:space="preserve">
<style type="text/css">
	.st0{fill:none;stroke:#FFFFFF;stroke-width:8;stroke-miterlimit:10;}
	.st1{fill:none;stroke:#FFFFFF;stroke-width:8;stroke-linecap:round;stroke-linejoin:round;stroke-miterlimit:10;}
	.st2{fill:none;stroke:url(#XMLID_2_);stroke-width:8;stroke-miterlimit:10;}
	.st3{fill:none;stroke:url(#SVGID_1_);stroke-width:8;stroke-linecap:round;stroke-linejoin:round;stroke-miterlimit:10;}
	.st4{fill:none;stroke:url(#SVGID_2_);stroke-width:8;stroke-linecap:round;stroke-linejoin:round;stroke-miterlimit:10;}
</style>
<path id="Stroke-35-Copy-3_1_" class="st0" d="M175.9,79.3c0,15.3-13.1,26.2-26.2,26.2c-13.1,0-26.2-13.1-26.2-26.2
	c0-15.3,13.1-26.2,26.2-26.2C162.8,53.1,175.9,64,175.9,79.3L175.9,79.3z"/>
<g id="Fill-5-Copy-3_1_">
	<path id="path-1_1_" class="st0" d="M237.5,428.7H121.3c-10.9,0-19.6-8.7-19.6-19.6V49.3c0-4.4,0-6.5,2.2-10.9
		c2.2-2.2,2.2-6.5,6.5-8.7c4.4-4.4,10.9-6.5,17.4-6.5h181h2.2l111.2,111.2v2.2v84.4"/>
</g>
<path id="Stroke-14-Copy-3_1_" class="st1" d="M212.9,81.5h48"/>
<path id="Stroke-8-Copy-2_1_" class="st1" d="M149.7,180.1h154.8"/>
<path id="Stroke-8-Copy-3_1_" class="st1" d="M149.7,234.7h176.6"/>
<path id="Stroke-8-Copy-4_1_" class="st1" d="M149.7,278.3h63.8"/>
<linearGradient id="XMLID_2_" gradientUnits="userSpaceOnUse" x1="207.1174" y1="348.062" x2="511.25" y2="348.062">
	<stop  offset="1.916698e-007" style="stop-color:#7F00FF"/>
	<stop  offset="1" style="stop-color:#5671FF"/>
</linearGradient>
<path id="XMLID_31_" class="st2" d="M211.5,288.1c-2.1-8.6,4.3-17.1,12.8-19.3L333,245.1l89.3-19.6l26.8-5.9
	c8.6-2.1,17.1,4.3,19.3,12.8L506.8,408c2.1,8.6-4.3,17.1-12.8,19.3l-224.7,49.2c-8.6,2.1-17.1-4.3-19.3-12.8l-7.7-34.9l-0.3-1.5
	L211.5,288.1z"/>
<g>
	<linearGradient id="SVGID_1_" gradientUnits="userSpaceOnUse" x1="337.7236" y1="348.062" x2="380.6438" y2="348.062">
		<stop  offset="1.916698e-007" style="stop-color:#7F00FF"/>
		<stop  offset="1" style="stop-color:#5671FF"/>
	</linearGradient>
	<circle class="st3" cx="359.2" cy="348.1" r="17.5"/>
	<linearGradient id="SVGID_2_" gradientUnits="userSpaceOnUse" x1="291.1634" y1="348.062" x2="427.204" y2="348.062">
		<stop  offset="1.916698e-007" style="stop-color:#7F00FF"/>
		<stop  offset="1" style="stop-color:#5671FF"/>
	</linearGradient>
	<path class="st4" d="M402.3,365.5c-1.6,3.6-0.8,7.8,1.9,10.6l0.3,0.3c4.5,4.5,4.6,11.9,0,16.5c0,0,0,0,0,0
		c-4.5,4.5-11.9,4.6-16.5,0c0,0,0,0,0,0l-0.3-0.3c-2.8-2.7-7-3.5-10.6-1.9c-3.5,1.5-5.8,5-5.8,8.8v1c0,6.4-5.2,11.6-11.6,11.6
		c-6.4,0-11.6-5.2-11.6-11.6v-0.5c-0.1-3.9-2.6-7.4-6.3-8.8c-3.6-1.6-7.8-0.8-10.6,1.9l-0.3,0.3c-4.5,4.5-11.9,4.6-16.5,0
		c0,0,0,0,0,0c-4.5-4.5-4.6-11.9,0-16.5c0,0,0,0,0,0l0.3-0.3c2.7-2.8,3.5-7,1.9-10.6c-1.5-3.5-5-5.8-8.8-5.8h-1
		c-6.4,0-11.6-5.2-11.6-11.6s5.2-11.6,11.6-11.6h0.5c3.9-0.1,7.4-2.6,8.8-6.3c1.6-3.6,0.8-7.8-1.9-10.6l-0.3-0.3
		c-4.5-4.5-4.6-11.9,0-16.5c0,0,0,0,0,0c4.5-4.5,11.9-4.6,16.5,0c0,0,0,0,0,0l0.3,0.3c2.8,2.7,7,3.5,10.6,1.9h0.5
		c3.5-1.5,5.8-5,5.8-8.8v-1c0-6.4,5.2-11.6,11.6-11.6c6.4,0,11.6,5.2,11.6,11.6v0.5c0,3.8,2.3,7.3,5.8,8.8c3.6,1.6,7.8,0.8,10.6-1.9
		l0.3-0.3c4.5-4.5,11.9-4.6,16.5,0c0,0,0,0,0,0c4.5,4.5,4.6,11.9,0,16.5c0,0,0,0,0,0l-0.3,0.3c-2.7,2.8-3.5,7-1.9,10.6v0.5
		c1.5,3.5,5,5.8,8.8,5.8h1c6.4,0,11.6,5.2,11.6,11.6s-5.2,11.6-11.6,11.6H411C407.2,359.7,403.8,362,402.3,365.5z"/>
</g>
</svg>
