<?xml version="1.0" encoding="utf-8"?>
<!-- Generator: Adobe Illustrator 19.0.0, SVG Export Plug-In . SVG Version: 6.00 Build 0)  -->
<svg version="1.1" id="Capa_1" xmlns="http://www.w3.org/2000/svg" xmlns:xlink="http://www.w3.org/1999/xlink" x="0px" y="0px"
	 viewBox="6 -6 512 512" style="enable-background:new 6 -6 512 512;" xml:space="preserve">
<style type="text/css">
	.st0{opacity:0.2;fill:#11081C;}
	.st1{fill:url(#SVGID_1_);}
	.st2{fill:url(#SVGID_2_);}
	.st3{fill:url(#SVGID_3_);}
	.st4{fill:url(#SVGID_4_);}
	.st5{fill:url(#SVGID_5_);}
	.st6{fill:url(#SVGID_6_);}
	.st7{fill:url(#SVGID_7_);}
	.st8{fill:#3D20B7;}
	.st9{fill:url(#SVGID_8_);}
	.st10{fill:url(#SVGID_9_);}
	.st11{fill:url(#SVGID_10_);}
	.st12{fill:url(#SVGID_11_);}
	.st13{fill:url(#SVGID_12_);}
	.st14{fill:url(#SVGID_13_);}
	.st15{fill:url(#SVGID_14_);}
	.st16{fill:url(#SVGID_15_);}
	.st17{fill:url(#SVGID_16_);}
	.st18{fill:url(#SVGID_17_);}
	.st19{fill:url(#SVGID_18_);}
	.st20{fill:url(#SVGID_19_);}
	.st21{fill:url(#SVGID_20_);}
	.st22{fill:url(#SVGID_21_);}
	.st23{fill:url(#SVGID_22_);}
	.st24{fill:url(#SVGID_23_);}
	.st25{fill:url(#SVGID_24_);}
	.st26{fill:url(#SVGID_25_);}
	.st27{fill:url(#SVGID_26_);}
	.st28{fill:url(#SVGID_27_);}
	.st29{fill:none;stroke:url(#SVGID_28_);stroke-width:3;stroke-linecap:round;stroke-linejoin:round;stroke-miterlimit:10;}
</style>
<g>
	<path class="st0" d="M259.2,358.7c0,0,22,19.9,59.7,4.8c37.7-15.1,84.5-36.2,98.8-44.9c14.2-8.7,24.3-22.2,3.3-25.9
		S346.1,266,346.1,266s-2.1-13.8-8.8-20.5s-115.1,11.3-115.1,11.3l-51,29.1L259.2,358.7z"/>
	<g>
		<g>
			<g>
				<linearGradient id="SVGID_1_" gradientUnits="userSpaceOnUse" x1="152.3061" y1="286.4106" x2="362.6487" y2="286.4106">
					<stop  offset="0" style="stop-color:#4F3E90"/>
					<stop  offset="1" style="stop-color:#171A31"/>
				</linearGradient>
				<path class="st1" d="M153.9,278.9c0,0-4.1,2,0.7,7.2c4.7,5.1,103.4,59.5,103.4,59.5s8.1,4.3,14.2,0l89.9-52.7
					c0,0,2.3-3.4-2.5-5.9l-103.3-59.7c0,0-5.2-4.1-12.2,0C237.2,231.3,153.9,278.9,153.9,278.9z"/>
				<linearGradient id="SVGID_2_" gradientUnits="userSpaceOnUse" x1="152.306" y1="320.6725" x2="362.6947" y2="320.6725">
					<stop  offset="0" style="stop-color:#463780"/>
					<stop  offset="0.1433" style="stop-color:#382E68"/>
					<stop  offset="0.3308" style="stop-color:#292550"/>
					<stop  offset="0.5289" style="stop-color:#1F1F3F"/>
					<stop  offset="0.7426" style="stop-color:#191B34"/>
					<stop  offset="1" style="stop-color:#171A31"/>
				</linearGradient>
				<path class="st2" d="M152.3,293.7v-12.3c0,0-0.1,3.3,3.6,5.8c3.7,2.5,28.7,17.3,28.7,17.3l37.4,21.1l35.5,19.7
					c0,0,7.9,4.4,14.3,0.6c6.4-3.8,90.4-53,90.4-53s0.8-1.1,0.5-2.9l0,13.3c0,1.2-0.6,2.2-1.6,2.8L273,357.4c0,0-8.9,6.6-17.7-1.5
					l-101.2-59.2C153,296.1,152.3,294.9,152.3,293.7L152.3,293.7z"/>
			</g>
			<g>
				<linearGradient id="SVGID_3_" gradientUnits="userSpaceOnUse" x1="199.3599" y1="282.1751" x2="265.7383" y2="282.1751">
					<stop  offset="1.916698e-007" style="stop-color:#7F00FF"/>
					<stop  offset="0.4889" style="stop-color:#7D00FF"/>
					<stop  offset="0.665" style="stop-color:#7600FF"/>
					<stop  offset="0.7905" style="stop-color:#6B00FF"/>
					<stop  offset="0.892" style="stop-color:#5A00FF"/>
					<stop  offset="0.9779" style="stop-color:#4400FF"/>
					<stop  offset="1" style="stop-color:#3D00FF"/>
				</linearGradient>
				<polygon class="st3" points="199.4,275 220,263 265.7,289.4 245.2,301.4 				"/>
				<linearGradient id="SVGID_4_" gradientUnits="userSpaceOnUse" x1="245.1387" y1="301.9954" x2="288.6558" y2="301.9954">
					<stop  offset="2.945171e-007" style="stop-color:#3F00FC"/>
					<stop  offset="0.2077" style="stop-color:#3F02F7"/>
					<stop  offset="0.4672" style="stop-color:#3E09E7"/>
					<stop  offset="0.7531" style="stop-color:#3E14CE"/>
					<stop  offset="1" style="stop-color:#3D20B2"/>
				</linearGradient>
				<polygon class="st4" points="288.7,302.6 265.7,289.4 245.1,301.4 268,314.6 				"/>
				<linearGradient id="SVGID_5_" gradientUnits="userSpaceOnUse" x1="237.1303" y1="264.8411" x2="252.6305" y2="322.6888">
					<stop  offset="2.945171e-007" style="stop-color:#851CB7"/>
					<stop  offset="1" style="stop-color:#3D20B7"/>
				</linearGradient>
				<polygon class="st5" points="199.4,275 199.4,278.5 267.9,318.6 288.7,306.5 288.7,302.6 268,314.6 				"/>
				<linearGradient id="SVGID_6_" gradientUnits="userSpaceOnUse" x1="229.3793" y1="261.2235" x2="259.6805" y2="261.2235">
					<stop  offset="2.945171e-007" style="stop-color:#3F00FC"/>
					<stop  offset="0.2077" style="stop-color:#3F02F7"/>
					<stop  offset="0.4672" style="stop-color:#3E09E7"/>
					<stop  offset="0.7531" style="stop-color:#3E14CE"/>
					<stop  offset="1" style="stop-color:#3D20B2"/>
				</linearGradient>
				<polygon class="st6" points="229.4,264 232.3,255.8 257.9,240.9 259.7,281.5 				"/>
				<linearGradient id="SVGID_7_" gradientUnits="userSpaceOnUse" x1="264.5424" y1="283.204" x2="326.4671" y2="283.204">
					<stop  offset="1.916698e-007" style="stop-color:#7F00FF"/>
					<stop  offset="0.2224" style="stop-color:#7A00FF"/>
					<stop  offset="0.5003" style="stop-color:#6A00FF"/>
					<stop  offset="0.8064" style="stop-color:#5100FF"/>
					<stop  offset="1" style="stop-color:#3D00FF"/>
				</linearGradient>
				<polygon class="st7" points="264.5,284.3 264.6,266 326.5,280.6 292.4,300.4 				"/>
				<polygon class="st8" points="264.5,284.3 292.4,300.4 326.5,280.6 326.5,284.3 292.4,304.8 264.5,288.7 				"/>
				<polygon class="st8" points="229.4,264 229.4,268.4 259.6,285.9 259.7,281.5 				"/>
				<linearGradient id="SVGID_8_" gradientUnits="userSpaceOnUse" x1="276.9953" y1="305.7441" x2="279.5993" y2="315.4626">
					<stop  offset="2.945171e-007" style="stop-color:#3F00FC"/>
					<stop  offset="0.12" style="stop-color:#3D01F7"/>
					<stop  offset="0.27" style="stop-color:#3804E7"/>
					<stop  offset="0.436" style="stop-color:#2F08CE"/>
					<stop  offset="0.6136" style="stop-color:#230EAA"/>
					<stop  offset="0.8005" style="stop-color:#14167C"/>
					<stop  offset="0.9923" style="stop-color:#012045"/>
					<stop  offset="1" style="stop-color:#002043"/>
				</linearGradient>
				<polygon class="st9" points="268,314.6 267.9,318.6 288.7,306.5 288.7,302.6 				"/>
				<linearGradient id="SVGID_9_" gradientUnits="userSpaceOnUse" x1="307.5484" y1="285.6532" x2="311.3112" y2="299.6961">
					<stop  offset="2.945171e-007" style="stop-color:#3F00FC"/>
					<stop  offset="0.12" style="stop-color:#3D01F7"/>
					<stop  offset="0.27" style="stop-color:#3804E7"/>
					<stop  offset="0.436" style="stop-color:#2F08CE"/>
					<stop  offset="0.6136" style="stop-color:#230EAA"/>
					<stop  offset="0.8005" style="stop-color:#14167C"/>
					<stop  offset="0.9923" style="stop-color:#012045"/>
					<stop  offset="1" style="stop-color:#002043"/>
				</linearGradient>
				<polygon class="st10" points="292.4,300.4 292.4,304.8 326.5,284.3 326.5,280.6 				"/>
			</g>
		</g>
		<g>
			<g>
				<linearGradient id="SVGID_10_" gradientUnits="userSpaceOnUse" x1="119.1196" y1="241.1837" x2="329.4622" y2="241.1837">
					<stop  offset="0" style="stop-color:#4F3E90"/>
					<stop  offset="1" style="stop-color:#171A31"/>
				</linearGradient>
				<path class="st11" d="M120.7,233.6c0,0-4.1,2,0.7,7.2s103.4,59.5,103.4,59.5s8.1,4.3,14.2,0l89.9-52.7c0,0,2.3-3.4-2.5-5.9
					L223.1,182c0,0-5.2-4.1-12.2,0S120.7,233.6,120.7,233.6z"/>
				<linearGradient id="SVGID_11_" gradientUnits="userSpaceOnUse" x1="119.1195" y1="275.4456" x2="329.5082" y2="275.4456">
					<stop  offset="0" style="stop-color:#463780"/>
					<stop  offset="0.1433" style="stop-color:#382E68"/>
					<stop  offset="0.3308" style="stop-color:#292550"/>
					<stop  offset="0.5289" style="stop-color:#1F1F3F"/>
					<stop  offset="0.7426" style="stop-color:#191B34"/>
					<stop  offset="1" style="stop-color:#171A31"/>
				</linearGradient>
				<path class="st12" d="M119.1,248.4v-12.3c0,0-0.1,3.3,3.6,5.8s28.7,17.3,28.7,17.3l37.4,21.1l35.5,19.7c0,0,7.9,4.4,14.3,0.6
					c6.4-3.8,90.4-53,90.4-53s0.8-1.1,0.5-2.9l0,13.3c0,1.2-0.6,2.2-1.6,2.8l-88.1,51.4c0,0-8.9,6.6-17.7-1.5l-101.2-59.2
					C119.8,250.8,119.1,249.7,119.1,248.4L119.1,248.4z"/>
			</g>
			<g>
				<linearGradient id="SVGID_12_" gradientUnits="userSpaceOnUse" x1="166.1733" y1="236.9482" x2="232.5517" y2="236.9482">
					<stop  offset="1.916698e-007" style="stop-color:#7F00FF"/>
					<stop  offset="0.4889" style="stop-color:#7D00FF"/>
					<stop  offset="0.665" style="stop-color:#7600FF"/>
					<stop  offset="0.7905" style="stop-color:#6B00FF"/>
					<stop  offset="0.892" style="stop-color:#5A00FF"/>
					<stop  offset="0.9779" style="stop-color:#4400FF"/>
					<stop  offset="1" style="stop-color:#3D00FF"/>
				</linearGradient>
				<polygon class="st13" points="166.2,229.7 186.8,217.7 232.6,244.2 212,256.2 				"/>
				<linearGradient id="SVGID_13_" gradientUnits="userSpaceOnUse" x1="211.9521" y1="256.7685" x2="255.4692" y2="256.7685">
					<stop  offset="2.945171e-007" style="stop-color:#3F00FC"/>
					<stop  offset="0.2077" style="stop-color:#3F02F7"/>
					<stop  offset="0.4672" style="stop-color:#3E09E7"/>
					<stop  offset="0.7531" style="stop-color:#3E14CE"/>
					<stop  offset="1" style="stop-color:#3D20B2"/>
				</linearGradient>
				<polygon class="st14" points="255.5,257.4 232.5,244.2 212,256.2 234.8,269.4 				"/>
				<linearGradient id="SVGID_14_" gradientUnits="userSpaceOnUse" x1="203.9437" y1="219.6142" x2="219.444" y2="277.4619">
					<stop  offset="2.945171e-007" style="stop-color:#851CB7"/>
					<stop  offset="1" style="stop-color:#3D20B7"/>
				</linearGradient>
				<polygon class="st15" points="166.2,229.7 166.2,233.3 234.8,273.4 255.5,261.3 255.5,257.4 234.8,269.4 				"/>
				<linearGradient id="SVGID_15_" gradientUnits="userSpaceOnUse" x1="196.1927" y1="215.9966" x2="226.4939" y2="215.9966">
					<stop  offset="2.945171e-007" style="stop-color:#3F00FC"/>
					<stop  offset="0.2077" style="stop-color:#3F02F7"/>
					<stop  offset="0.4672" style="stop-color:#3E09E7"/>
					<stop  offset="0.7531" style="stop-color:#3E14CE"/>
					<stop  offset="1" style="stop-color:#3D20B2"/>
				</linearGradient>
				<polygon class="st16" points="196.2,218.8 199.2,210.5 224.7,195.7 226.5,236.3 				"/>
				<linearGradient id="SVGID_16_" gradientUnits="userSpaceOnUse" x1="231.3559" y1="237.9771" x2="293.2805" y2="237.9771">
					<stop  offset="1.916698e-007" style="stop-color:#7F00FF"/>
					<stop  offset="0.2224" style="stop-color:#7A00FF"/>
					<stop  offset="0.5003" style="stop-color:#6A00FF"/>
					<stop  offset="0.8064" style="stop-color:#5100FF"/>
					<stop  offset="1" style="stop-color:#3D00FF"/>
				</linearGradient>
				<polygon class="st17" points="231.4,239.1 231.5,220.7 293.3,235.4 259.2,255.2 				"/>
				<polygon class="st8" points="231.4,239.1 259.2,255.2 293.3,235.4 293.3,239.1 259.2,259.5 231.4,243.5 				"/>
				<polygon class="st8" points="196.2,218.8 196.2,223.2 226.4,240.6 226.5,236.3 				"/>
				<linearGradient id="SVGID_17_" gradientUnits="userSpaceOnUse" x1="243.8087" y1="260.5172" x2="246.4128" y2="270.2357">
					<stop  offset="2.945171e-007" style="stop-color:#3F00FC"/>
					<stop  offset="0.12" style="stop-color:#3D01F7"/>
					<stop  offset="0.27" style="stop-color:#3804E7"/>
					<stop  offset="0.436" style="stop-color:#2F08CE"/>
					<stop  offset="0.6136" style="stop-color:#230EAA"/>
					<stop  offset="0.8005" style="stop-color:#14167C"/>
					<stop  offset="0.9923" style="stop-color:#012045"/>
					<stop  offset="1" style="stop-color:#002043"/>
				</linearGradient>
				<polygon class="st18" points="234.8,269.4 234.8,273.4 255.5,261.3 255.5,257.4 				"/>
				<linearGradient id="SVGID_18_" gradientUnits="userSpaceOnUse" x1="274.3618" y1="240.4263" x2="278.1246" y2="254.4692">
					<stop  offset="2.945171e-007" style="stop-color:#3F00FC"/>
					<stop  offset="0.12" style="stop-color:#3D01F7"/>
					<stop  offset="0.27" style="stop-color:#3804E7"/>
					<stop  offset="0.436" style="stop-color:#2F08CE"/>
					<stop  offset="0.6136" style="stop-color:#230EAA"/>
					<stop  offset="0.8005" style="stop-color:#14167C"/>
					<stop  offset="0.9923" style="stop-color:#012045"/>
					<stop  offset="1" style="stop-color:#002043"/>
				</linearGradient>
				<polygon class="st19" points="259.2,255.2 259.2,259.5 293.3,239.1 293.3,235.4 				"/>
			</g>
		</g>
		<g>
			<g>
				<linearGradient id="SVGID_19_" gradientUnits="userSpaceOnUse" x1="90.9984" y1="191.8725" x2="301.341" y2="191.8725">
					<stop  offset="0" style="stop-color:#4F3E90"/>
					<stop  offset="1" style="stop-color:#171A31"/>
				</linearGradient>
				<path class="st20" d="M92.6,184.3c0,0-4.1,2,0.7,7.2S196.7,251,196.7,251s8.1,4.3,14.2,0l89.9-52.7c0,0,2.3-3.4-2.5-5.9
					L195,132.7c0,0-5.2-4.1-12.2,0C175.8,136.7,92.6,184.3,92.6,184.3z"/>
				<linearGradient id="SVGID_20_" gradientUnits="userSpaceOnUse" x1="90.9983" y1="226.1344" x2="301.387" y2="226.1344">
					<stop  offset="0" style="stop-color:#463780"/>
					<stop  offset="0.1433" style="stop-color:#382E68"/>
					<stop  offset="0.3308" style="stop-color:#292550"/>
					<stop  offset="0.5289" style="stop-color:#1F1F3F"/>
					<stop  offset="0.7426" style="stop-color:#191B34"/>
					<stop  offset="1" style="stop-color:#171A31"/>
				</linearGradient>
				<path class="st21" d="M91,199.1v-12.3c0,0-0.1,3.3,3.6,5.8c3.7,2.5,28.7,17.3,28.7,17.3l37.4,21.1l35.5,19.7
					c0,0,7.9,4.4,14.3,0.6c6.4-3.8,90.4-53,90.4-53s0.8-1.1,0.5-2.9l0,13.3c0,1.2-0.6,2.2-1.6,2.8l-88.1,51.4c0,0-8.9,6.6-17.7-1.5
					L92.7,202.2C91.7,201.5,91,200.4,91,199.1L91,199.1z"/>
			</g>
			<g>
				<linearGradient id="SVGID_21_" gradientUnits="userSpaceOnUse" x1="138.0522" y1="187.6371" x2="204.4306" y2="187.6371">
					<stop  offset="1.916698e-007" style="stop-color:#7F00FF"/>
					<stop  offset="0.4889" style="stop-color:#7D00FF"/>
					<stop  offset="0.665" style="stop-color:#7600FF"/>
					<stop  offset="0.7905" style="stop-color:#6B00FF"/>
					<stop  offset="0.892" style="stop-color:#5A00FF"/>
					<stop  offset="0.9779" style="stop-color:#4400FF"/>
					<stop  offset="1" style="stop-color:#3D00FF"/>
				</linearGradient>
				<polygon class="st22" points="138.1,180.4 158.7,168.4 204.4,194.8 183.9,206.8 				"/>
				<linearGradient id="SVGID_22_" gradientUnits="userSpaceOnUse" x1="183.8309" y1="207.4574" x2="227.3481" y2="207.4574">
					<stop  offset="2.945171e-007" style="stop-color:#3F00FC"/>
					<stop  offset="0.2077" style="stop-color:#3F02F7"/>
					<stop  offset="0.4672" style="stop-color:#3E09E7"/>
					<stop  offset="0.7531" style="stop-color:#3E14CE"/>
					<stop  offset="1" style="stop-color:#3D20B2"/>
				</linearGradient>
				<polygon class="st23" points="227.3,208.1 204.4,194.9 183.8,206.8 206.7,220.1 				"/>
				<linearGradient id="SVGID_23_" gradientUnits="userSpaceOnUse" x1="175.8226" y1="170.3031" x2="191.3228" y2="228.1508">
					<stop  offset="2.945171e-007" style="stop-color:#851CB7"/>
					<stop  offset="1" style="stop-color:#3D20B7"/>
				</linearGradient>
				<polygon class="st24" points="138.1,180.4 138.1,184 206.6,224 227.4,212 227.4,208.1 206.7,220.1 				"/>
				<linearGradient id="SVGID_24_" gradientUnits="userSpaceOnUse" x1="168.0715" y1="166.6855" x2="198.3728" y2="166.6855">
					<stop  offset="2.945171e-007" style="stop-color:#3F00FC"/>
					<stop  offset="0.2077" style="stop-color:#3F02F7"/>
					<stop  offset="0.4672" style="stop-color:#3E09E7"/>
					<stop  offset="0.7531" style="stop-color:#3E14CE"/>
					<stop  offset="1" style="stop-color:#3D20B2"/>
				</linearGradient>
				<polygon class="st25" points="168.1,169.5 171,161.2 196.5,146.4 198.4,187 				"/>
				<linearGradient id="SVGID_25_" gradientUnits="userSpaceOnUse" x1="203.2347" y1="188.666" x2="265.1594" y2="188.666">
					<stop  offset="1.916698e-007" style="stop-color:#7F00FF"/>
					<stop  offset="0.2224" style="stop-color:#7A00FF"/>
					<stop  offset="0.5003" style="stop-color:#6A00FF"/>
					<stop  offset="0.8064" style="stop-color:#5100FF"/>
					<stop  offset="1" style="stop-color:#3D00FF"/>
				</linearGradient>
				<polygon class="st26" points="203.2,189.8 203.3,171.4 265.2,186 231.1,205.9 				"/>
				<polygon class="st8" points="203.2,189.8 231.1,205.9 265.2,186 265.2,189.8 231.1,210.2 203.2,194.2 				"/>
				<polygon class="st8" points="168.1,169.5 168.1,173.9 198.3,191.3 198.4,187 				"/>
				<linearGradient id="SVGID_26_" gradientUnits="userSpaceOnUse" x1="215.6876" y1="211.2061" x2="218.2916" y2="220.9245">
					<stop  offset="2.945171e-007" style="stop-color:#3F00FC"/>
					<stop  offset="0.12" style="stop-color:#3D01F7"/>
					<stop  offset="0.27" style="stop-color:#3804E7"/>
					<stop  offset="0.436" style="stop-color:#2F08CE"/>
					<stop  offset="0.6136" style="stop-color:#230EAA"/>
					<stop  offset="0.8005" style="stop-color:#14167C"/>
					<stop  offset="0.9923" style="stop-color:#012045"/>
					<stop  offset="1" style="stop-color:#002043"/>
				</linearGradient>
				<polygon class="st27" points="206.7,220.1 206.6,224 227.4,212 227.3,208.1 				"/>
				<linearGradient id="SVGID_27_" gradientUnits="userSpaceOnUse" x1="246.2407" y1="191.1152" x2="250.0035" y2="205.1581">
					<stop  offset="2.945171e-007" style="stop-color:#3F00FC"/>
					<stop  offset="0.12" style="stop-color:#3D01F7"/>
					<stop  offset="0.27" style="stop-color:#3804E7"/>
					<stop  offset="0.436" style="stop-color:#2F08CE"/>
					<stop  offset="0.6136" style="stop-color:#230EAA"/>
					<stop  offset="0.8005" style="stop-color:#14167C"/>
					<stop  offset="0.9923" style="stop-color:#012045"/>
					<stop  offset="1" style="stop-color:#002043"/>
				</linearGradient>
				<polygon class="st28" points="231.1,205.9 231.1,210.2 265.2,189.8 265.2,186 				"/>
			</g>
		</g>
	</g>
</g>
<linearGradient id="SVGID_28_" gradientUnits="userSpaceOnUse" x1="197.7694" y1="451.2969" x2="197.7694" y2="451.2969">
	<stop  offset="2.945171e-007" style="stop-color:#3F00FC"/>
	<stop  offset="0.2077" style="stop-color:#3F02F7"/>
	<stop  offset="0.4672" style="stop-color:#3E09E7"/>
	<stop  offset="0.7531" style="stop-color:#3E14CE"/>
	<stop  offset="1" style="stop-color:#3D20B2"/>
</linearGradient>
<path class="st29" d="M197.8,451.3"/>
</svg>
