<svg version="1.1" id="Calque_1" xmlns="http://www.w3.org/2000/svg" x="0" y="0" viewBox="-50 55 798 454" style="enable-background:new -50 55 798 454" xml:space="preserve"><style>.st1{fill:#fff}</style><g style="opacity:.3"><path class="st1" d="m288.7 217.7 35.8-7.7v30h26.3v30.7h-27v53s-.4 19 27 11v28.1s-15.4 10.2-46.1 0c0 0-14.1-10.5-16.1-28.7-1.9-18.2.1-116.4.1-116.4zM243.4 239.9H279v126.5h-35.6zM243.4 228.4l35.6-7.8v-29l-35.6 7.8zM459.8 217.7l35.8-7.7v30h26.3v30.7h-27v53s-.4 19 27 11v28.1s-15.4 10.2-46.1 0c0 0-14.1-10.5-16.1-28.7-1.9-18.2.1-116.4.1-116.4zM414.5 239.9h35.6v126.5h-35.6zM414.5 228.4l35.6-7.8v-29l-35.6 7.8zM226.4 261.2s-9.7-18.9-32.8-23.2-33.8 10.6-33.8 10.6l-2 1.1v-58l-32.6 7.6v167.2h37.5v-8c14.3 9.7 29.5 8.8 29.5 8.8 24.7-5.1 30.6-17.8 30.6-17.8s8.6-8 13.2-36.6-9.6-51.7-9.6-51.7zm-37.8 71.5c-15.4 8-26.3-3.7-26.3-3.7v-52.9s4.4-7.5 18.7-7.1 19.8 23.6 19.8 23.6 3.1 32.1-12.2 40.1z"/><circle class="st1" cx="554.4" cy="354" r="18.4"/></g></svg>