<svg xmlns="http://www.w3.org/2000/svg" viewBox="1242 -1152 3096 3096" style="enable-background:new 1242 -1152 3096 3096" xml:space="preserve"><linearGradient id="a" gradientUnits="userSpaceOnUse" x1="1980.571" y1="1083.535" x2="3493.246" y2="1083.535" gradientTransform="matrix(1 0 0 -1 0 792)"><stop offset="0" style="stop-color:#0f9"/><stop offset="1" style="stop-color:#3cf"/></linearGradient><path d="M2068 64s-4-16 0-72-100-40-32-428l-40.4-61.4s-6-108 154.5-237 125.7-175.9 125.7-175.9 138-48 225-42c0 0 87-87 237-87s255 90 255 90 234 72 294 177c0 0 69.1 84.3 71.1 140.3s10 96 24 108 70 82 70 128 26 378 26 378-68.1 106.8-80.1 145.8-30 195-30 195-54-615.1-99-711.1-54-174-213-186-435 30-543.1 3c-108-27-99-42-99-42s-192 120-213 192-87 63-87 63-36 201 0 261 24 249 24 249L2068 64z" style="fill:none;stroke:url(#a);stroke-width:30;stroke-miterlimit:10"/><linearGradient id="b" gradientUnits="userSpaceOnUse" x1="2060.578" y1="496.82" x2="2193.35" y2="496.82" gradientTransform="matrix(1 0 0 -1 0 792)"><stop offset="0" style="stop-color:#0f9"/><stop offset="1" style="stop-color:#3cf"/></linearGradient><path d="M2192.5 502s-70.5 4-94.5-164-22.4-264.4-22.4-264.4" style="fill:none;stroke:url(#b);stroke-width:30;stroke-miterlimit:10"/><linearGradient id="c" gradientUnits="userSpaceOnUse" x1="2122.883" y1="227.668" x2="3557.767" y2="227.668" gradientTransform="matrix(1 0 0 -1 0 792)"><stop offset="0" style="stop-color:#0f9"/><stop offset="1" style="stop-color:#3cf"/></linearGradient><path d="M3478-18s79 57.6 62.5 152.1-37.5 72-40.5 147-43.5 177-75 187.5-61.5 15-61.5 15 3 264-87 373.5c0 0-78 70.5-135 94.5s-130.5 130.5-211.5 144c0 0-149 103.3-351.2 7.4 0 0-42-48-117-126s-141-87-216-219-48-309.7-51-361.9-21-37.1-30-55.1-27-189-27-189" style="fill:none;stroke:url(#c);stroke-width:30;stroke-miterlimit:10"/><linearGradient id="d" gradientUnits="userSpaceOnUse" x1="2394.233" y1="-565.723" x2="4346.264" y2="-565.723" gradientTransform="matrix(1 0 0 -1 0 792)"><stop offset="0" style="stop-color:#0f9"/><stop offset="1" style="stop-color:#3cf"/></linearGradient><path d="M4338 1782s-406-268-542-320c0 0-76-34-128-80s-152-140-280-184c0 0 10-.6 0-54.3s-67.7-241.1-120.9-278.4c0 0-.8 13.5-2.2 34.6-4.4 68.4-14.3 216.5-18.9 243.8-6 35.7-134 244.3-194 284.3s-102 192-102 192 40 22 48 40-220 238-208 198-106-160-106-160-82-34-92-142-76-152-140-286-37.2-335.5-37.2-335.5" style="fill:none;stroke:url(#d);stroke-width:30;stroke-miterlimit:10"/><linearGradient id="e" gradientUnits="userSpaceOnUse" x1="1238.053" y1="-490.733" x2="2413.573" y2="-490.733" gradientTransform="matrix(1 0 0 -1 0 792)"><stop offset="0" style="stop-color:#0f9"/><stop offset="1" style="stop-color:#3cf"/></linearGradient><path d="M2399.7 922.7s-51.9 126.2-102.9 186.2-43.8 66.1-43.8 66.1-17-47-134 18-357 205-393 207-162 28-208 76-172 74-202 110-74 48-74 48" style="fill:none;stroke:url(#e);stroke-width:30;stroke-miterlimit:10"/></svg>