<?xml version="1.0" encoding="utf-8"?>
<!-- Generator: Adobe Illustrator 19.0.0, SVG Export Plug-In . SVG Version: 6.00 Build 0)  -->
<svg version="1.1" id="Calque_1" xmlns="http://www.w3.org/2000/svg" xmlns:xlink="http://www.w3.org/1999/xlink" x="0px" y="0px"
	 viewBox="-50 55 798 454" style="enable-background:new -50 55 798 454;" xml:space="preserve">
<style type="text/css">
	.st0{opacity:0.3;}
	.st1{fill:#FFFFFF;}
</style>
<g class="st0">
	<path class="st1" d="M288.7,217.7l35.8-7.7v30h26.3v30.7h-27v53c0,0-0.4,19,27,11v28.1c0,0-15.4,10.2-46.1,0
		c0,0-14.1-10.5-16.1-28.7C286.7,315.9,288.7,217.7,288.7,217.7z"/>
	<g>
		<rect x="243.4" y="239.9" class="st1" width="35.6" height="126.5"/>
		<polygon class="st1" points="243.4,228.4 279,220.6 279,191.6 243.4,199.4 		"/>
	</g>
	<path class="st1" d="M459.8,217.7l35.8-7.7v30h26.3v30.7h-27v53c0,0-0.4,19,27,11v28.1c0,0-15.4,10.2-46.1,0
		c0,0-14.1-10.5-16.1-28.7C457.8,315.9,459.8,217.7,459.8,217.7z"/>
	<g>
		<rect x="414.5" y="239.9" class="st1" width="35.6" height="126.5"/>
		<polygon class="st1" points="414.5,228.4 450.1,220.6 450.1,191.6 414.5,199.4 		"/>
	</g>
	<path class="st1" d="M226.4,261.2c0,0-9.7-18.9-32.8-23.2s-33.8,10.6-33.8,10.6l-2,1.1v-39.6v-18.4l-32.6,7.6v167.2h1.1h36.4v-8
		c14.3,9.7,29.5,8.8,29.5,8.8c24.7-5.1,30.6-17.8,30.6-17.8s8.6-8,13.2-36.6S226.4,261.2,226.4,261.2z M188.6,332.7
		c-15.4,8-26.3-3.7-26.3-3.7v-52.9c0,0,4.4-7.5,18.7-7.1s19.8,23.6,19.8,23.6S203.9,324.7,188.6,332.7z"/>
	<circle class="st1" cx="554.4" cy="354" r="18.4"/>
</g>
</svg>
