<?xml version="1.0" encoding="utf-8"?>
<!-- Generator: Adobe Illustrator 19.0.0, SVG Export Plug-In . SVG Version: 6.00 Build 0)  -->
<svg version="1.1" id="Calque_1" xmlns="http://www.w3.org/2000/svg" xmlns:xlink="http://www.w3.org/1999/xlink" x="0px" y="0px"
	 viewBox="-50 55 798 454" style="enable-background:new -50 55 798 454;" xml:space="preserve">
<style type="text/css">
	.st0{opacity:0.3;}
	.st1{fill:#FFFFFF;}
</style>
<g class="st0">
	<path class="st1" d="M60,274.6l13.5-23.8c0,0-25.6-18.6-54.5-5.1c-28.9,13.5-29.3,42.4-29.3,42.4s2.3,26.1,15.4,35.4
		s18.6,15.4,48,13.5s40.5-35.9,40.5-35.9l12.1-22.4c0,0,10.7-19.1,35.4-7.5c0,0,16.8,14.4,5.6,30.3c-11.2,15.8-30.7,7.9-30.7,7.9
		l-14.4-8.9l-12.1,21.4c0,0,18.6,17.9,39.1,15.3c20.5-2.6,30.3-10.2,30.3-10.2s31.7-22.4,16.3-56.8S122,240.8,122,240.8
		s-21.9,3.5-29.8,11.9c0,0-5.1,4.2-9.8,11.6c-4.7,7.5-21.9,39.6-21.9,39.6s-7.9,10.2-24.7,7C19,307.7,20,285.8,20,285.8
		s-1.4-14.4,15.8-17.2S60,274.6,60,274.6z"/>
	<path class="st1" d="M618.5,249.9l-31.4,84.8h-28.8l-31.4-84.8H555l17.6,53.8l17.6-53.8H618.5L618.5,249.9z"/>
	<path class="st1" d="M667.5,314.3c7,0,12.9-2.7,16.3-6.4l20.3,11.7c-8.3,11.6-20.9,17.5-37,17.5c-29,0-47-19.5-47-44.8
		c0-25.3,18.4-44.8,45.1-44.8c24.8,0,43,19.2,43,44.8c0,3.5-0.4,7-1,10.2h-60.2C650.3,311.3,658.2,314.3,667.5,314.3z M683.1,283.5
		c-2.7-9.9-10.3-13.4-18-13.4c-9.7,0-16.1,4.8-18.4,13.4C646.7,283.5,683.1,283.5,683.1,283.5z"/>
	<path class="st1" d="M313.1,282.8v52.1h-25.4v-48.4c0-10.5-6.6-15.5-14.7-15.5c-9.3,0-15.7,5.4-15.7,17.5v46.3h-25.4v-84.8h25.4v8
		c4.6-6.2,13-10.3,24.2-10.3C298.4,247.7,313.1,259.9,313.1,282.8z"/>
	<path class="st1" d="M417.8,250.1v84.8h-25.4v-8c-5.6,6.4-13.9,10.3-25.3,10.3c-22.2,0-40.5-19.5-40.5-44.8
		c0-25.3,18.4-44.8,40.5-44.8c11.4,0,19.7,3.9,25.3,10.3v-8h25.4V250.1z M392.4,292.4c0-12.8-8.5-20.7-20.2-20.7
		c-11.7,0-20.2,8-20.2,20.7c0,12.8,8.5,20.7,20.2,20.7C383.9,313.1,392.4,305.2,392.4,292.4z"/>
	<path class="st1" d="M468.1,274.5v30c0,7.3,6.2,8,17.5,7.3v23.1c-33.3,3.4-43-6.6-43-30.4v-30h-13.6v-24.4h13.6v-16.1l25.4-7.6
		v23.8h17.5v24.4H468.1L468.1,274.5z"/>
	<rect x="191.5" y="250.1" class="st1" width="25.4" height="84.8"/>
	<rect x="496.5" y="250.1" class="st1" width="25.4" height="84.8"/>
</g>
</svg>
