<?xml version="1.0" encoding="utf-8"?>
<!-- Generator: Adobe Illustrator 19.0.0, SVG Export Plug-In . SVG Version: 6.00 Build 0)  -->
<svg version="1.1" id="Calque_1" xmlns="http://www.w3.org/2000/svg" xmlns:xlink="http://www.w3.org/1999/xlink" x="0px" y="0px"
	 viewBox="-560 314 798 454" style="enable-background:new -560 314 798 454;" xml:space="preserve">
<style type="text/css">
	.st0{opacity:0.65;}
	.st1{opacity:0.2;}
	.st2{fill:#FFFFFF;}
	.st3{opacity:0.2;fill:#FFFFFF;enable-background:new    ;}
</style>
<g class="st0">
	<g class="st1">
		<path class="st2" d="M-470.5,615.6c-15.7,0-27.1-4.5-34-13.6s-10.4-22.3-10.4-39.6v-50.1c0-8.8,0.8-16.5,2.3-22.8
			c1.5-6.4,4.1-12,7.6-16.8s8.5-8.5,14.7-10.9c6.3-2.4,13.8-3.6,22.9-3.6c16.5,0,28.3,3.7,35.5,11.2c7.1,7.5,10.8,18.8,10.8,33.8
			v7.5h-29.1v-8c0-3.4-0.1-6.1-0.2-8.3c-0.2-2.2-0.5-4.4-1.2-6.6s-1.5-3.8-2.7-5.1c-1.2-1.2-2.9-2.1-4.9-2.9
			c-2.1-0.8-4.6-1.1-7.7-1.1c-2.3,0-4.3,0.2-6,0.8c-1.8,0.5-3.3,1.2-4.5,2s-2.2,1.9-3.1,3.3s-1.4,2.7-1.9,4.2
			c-0.4,1.3-0.8,3.1-1,5.2s-0.4,4-0.4,5.6c-0.1,1.6-0.1,3.6-0.1,6.3v62c0,9.2,1.2,16,3.7,20.3s7.2,6.5,14.2,6.5
			c3.6,0,6.7-0.7,9.1-1.9c2.4-1.3,4.4-3.2,5.7-5.7c1.3-2.5,2.3-5.5,3-8.8c0.5-3.3,0.9-7.4,0.9-12v-12.6h-18v-18.1h45.3v78.1h-19.7
			l-2.2-15.6C-447.4,609.8-456.8,615.6-470.5,615.6z"/>
		<path class="st2" d="M-398.8,613.6V504h28.1v16.9c4-6.5,7.9-11.2,12-13.9c4.1-2.9,8.3-4.3,13.1-4.3c1.4,0,2.9,0.1,4.2,0.4v25.7
			c-3.2-1.1-6.4-1.6-9.8-1.6c-4.1,0.1-7.6,1.1-10.7,2.7c-3.1,1.8-6,4.6-8.9,8.6v75.2h-28V613.6z"/>
		<path class="st2" d="M-309.1,615.3c-6.8,0-11.7-2.3-14.8-6.8c-3.1-4.6-4.7-10.2-4.7-16.9V504h28v82.4c0,3.4,0.5,5.9,1.8,7.6
			c1.1,1.6,3.3,2.5,6.4,2.4c3.3,0,7.2-1.5,12.1-4.6v-87.7h28v109.7h-28v-10.3C-289.9,611.3-299.5,615.3-309.1,615.3z"/>
		<path class="st2" d="M-180.1,615.4c-7.5,0-14.8-3.3-22.2-9.8v8h-28.1V459.9h28.1v52.3c7.4-6.7,15.3-10.1,24-10
			c4.2,0.1,7.9,1,11.2,2.6c3.3,1.8,5.8,3.8,7.7,6.5c1.9,2.5,3.4,5.6,4.5,9.1c1.2,3.5,2,6.7,2.4,9.8c0.4,3,0.5,6,0.5,9.1v35.9
			c0,5.6-0.5,10.7-1.5,15.4c-1,4.6-2.5,8.9-4.7,12.7s-5.1,6.8-8.8,8.9C-170.7,614.3-175.1,615.4-180.1,615.4z M-189.9,596.7
			c2.1,0,3.8-0.5,5.2-1.5c1.3-1.1,2.4-2.6,3-4.7c0.7-2.1,1.1-4.3,1.2-6.4c0.2-2.2,0.3-4.8,0.3-8v-37.9c0-2.6-0.1-4.8-0.4-6.8
			c-0.2-2-0.8-3.8-1.5-5.7c-0.8-1.9-1.9-3.2-3.3-4.2c-1.4-1-3.2-1.4-5.3-1.3c-3.8,0.1-7.7,1.5-11.7,4.3v68.8
			C-198.4,595.6-194.4,596.7-189.9,596.7z"/>
		<path class="st2" d="M-101.6,615.4c-9.9,0-17.9-3.7-24.3-11.2c-6.3-7.5-10.7-18.2-13-32.3l21.3-10.5c1.4,8.9,3.5,15.7,6.3,20.3
			c2.6,4.6,6,6.8,10.1,6.6c3-0.1,5.4-1.5,7.2-4.3c1.9-2.7,2.7-6.1,2.6-10.2c-0.2-5.8-4.2-13.2-11.7-22.1l-16-18.7
			c-11.5-13.5-17.1-27.6-16.9-42.3c0.2-13,3.4-23.3,9.7-31s14.3-11.5,23.9-11.5c9.3,0,16.9,3.8,22.7,11.5s9.7,17.9,11.3,30.9
			l-18.4,10.5c-2.5-16.8-7.4-25.3-14.3-25.4c-3-0.1-5.3,1.1-7.1,3.7c-1.8,2.5-2.6,5.6-2.6,9.2c-0.1,4.9,3.3,11.4,10,19.3l16.3,20.1
			c2.7,3.3,5.1,6.3,6.8,8.8c1.8,2.6,3.7,5.8,5.7,9.6s3.4,7.8,4.4,12.1s1.4,8.9,1.4,13.8c0,13.7-3.3,24.3-10,31.8
			C-82.7,611.6-91.3,615.4-101.6,615.4z"/>
		<path class="st2" d="M-50.9,649.8v-146h28.1v8.5c7.4-6.8,15.4-10.2,24-10.1c4.2,0.1,7.9,1,11.2,2.6c3.3,1.8,5.8,3.8,7.7,6.5
			c1.9,2.5,3.4,5.6,4.5,9.1c1.2,3.5,2,6.7,2.4,9.8c0.4,3,0.5,6,0.5,9.1v35.9c0,5.6-0.5,10.7-1.5,15.4c-1,4.6-2.5,8.9-4.7,12.7
			s-5.1,6.8-8.8,8.9s-8.1,3.2-13.1,3.2c-7.4,0-14.8-3.3-22.2-9.9v44.3H-50.9L-50.9,649.8z M-10.4,596.7c2.1,0,3.8-0.5,5.3-1.6
			s2.4-2.6,3.1-4.7s1.1-4.2,1.3-6.4s0.3-4.8,0.3-7.9v-37.9c0-2.5-0.1-4.8-0.4-6.8s-0.8-4-1.5-5.7c-0.8-1.9-1.9-3.2-3.3-4.2
			s-3.3-1.4-5.4-1.3c-3.7,0.1-7.6,1.5-11.6,4.4v68.7C-18.7,595.6-14.5,596.7-10.4,596.7z"/>
		<path class="st2" d="M173.8,615.1c-5.4-0.1-10-0.9-13.8-2.5c-3.7-1.6-6.7-4-8.8-6.9c-2.1-3-3.5-6.4-4.4-10.1
			c-0.9-3.7-1.3-8-1.3-13V521h-11.7v-17.1h11.7v-32.3h28.2v32.3h18.1V521h-18.1v63.4c0,3.6,0.9,6.1,2.5,7.7c1.8,1.5,4.4,2.4,8.2,2.4
			c2.6,0.1,5.5-0.1,8.6-0.5v19.9C185,614.7,178.6,615.2,173.8,615.1z"/>
	</g>
	<path class="st3" d="M125.3,628.7c-0.5,0-1,0-1.5,0.1l-13-22.4c0.3-0.3,0.7-0.7,1-1c6.4-6.6,9.4-16.1,9.4-28.5v-36.2
		c0-12.4-3.2-21.9-9.4-28.5c-3.6-3.8-8.3-6.6-14.2-8.1v-52.7c7.6-3.2,12.8-10.7,12.8-19.3c0-11.6-9.4-21.1-21.1-21.1
		s-21.1,9.4-21.1,21.1c0,8.7,5.3,16.1,12.8,19.3v50.9c-7.4,0.2-13.5,1.5-18.6,4.1L2.8,440.7c3.4-7.5,2.3-16.5-3.5-22.9
		c-7.8-8.6-21.1-9.2-29.8-1.4c-8.6,7.8-9.2,21.1-1.4,29.8c5.8,6.5,14.8,8.3,22.5,5.7l59.8,65.7c-3.6,6-5.5,13.8-5.5,23.3v36.2
		c0,12.4,3.2,21.9,9.4,28.5c6.3,6.6,15.8,10,28.5,10c4.8,0,9.2-0.4,13.1-1.4l13,22.4c-3.1,3.6-4.8,8.3-4.8,13.4
		c0,11.6,9.4,21.1,21.1,21.1s21.1-9.4,21.1-21.1C146.3,638.2,136.9,628.7,125.3,628.7z M88.7,595.7c-1.4,0.9-3.3,1.4-5.6,1.4
		c-1.9,0-3.4-0.3-4.7-1.1c-1.3-0.7-2.3-1.5-3-2.6c-0.8-1-1.3-2.4-1.6-4.2s-0.5-3.4-0.7-4.9c-0.1-1.5-0.1-3.4-0.1-5.7v-39.7
		c0-2.9,0.1-5.3,0.3-7.1c0.2-1.9,0.7-3.7,1.2-5.6c0.7-2,1.6-3.4,3.1-4.4c1.4-1,3.3-1.4,5.6-1.4c1.9,0,3.4,0.3,4.7,1.1
		c1.3,0.7,2.3,1.5,3,2.6c0.8,1,1.3,2.4,1.6,4.2s0.5,3.4,0.7,4.9c0.1,1.5,0.1,3.4,0.1,5.7v39.7c0,2.9-0.1,5.3-0.3,7.1
		c-0.2,1.9-0.7,3.7-1.2,5.6C91.2,593.3,90.1,594.8,88.7,595.7z"/>
</g>
</svg>
