<?xml version="1.0" encoding="utf-8"?>
<!-- Generator: Adobe Illustrator 19.0.0, SVG Export Plug-In . SVG Version: 6.00 Build 0)  -->
<svg version="1.1" id="Calque_1" xmlns="http://www.w3.org/2000/svg" xmlns:xlink="http://www.w3.org/1999/xlink" x="0px" y="0px"
	 viewBox="-560 314 798 454" style="enable-background:new -560 314 798 454;" xml:space="preserve">
<style type="text/css">
	.st0{opacity:0.65;}
	.st1{opacity:0.2;fill:#FFFFFF;enable-background:new    ;}
</style>
<g class="st0">
	<path class="st1" d="M-445.6,455.3l49-10.5v41h36v42h-37v72.5c0,0-0.5,26,37,15v38.5c0,0-21,14-63,0c0,0-19.3-14.4-22-39.3
		C-448.3,589.6-445.6,455.3-445.6,455.3z"/>
	<path class="st1" d="M-344.6,487.3V660h49V541.8c0,0,18-20,36-8.5v-46.8c0,0-9.8-5.3-27.3,0.7c0,0-11,6-13.4,13.5l-2.4-14.6
		l-41.9,0.2L-344.6,487.3L-344.6,487.3z"/>
	<rect x="-246.9" y="487" class="st1" width="48.7" height="173.1"/>
	<polygon class="st1" points="-246.9,471.3 -198.2,460.6 -198.2,421 -246.9,431.6 	"/>
	<path class="st1" d="M-43.1,516.1c0,0-13.3-25.8-44.8-31.8s-46.3,14.5-46.3,14.5l-2.8,1.5v-54.2v-25.2l-44.6,10.4V660h1.5h49.8v-11
		c19.5,13.3,40.3,12,40.3,12c33.8-7,41.8-24.3,41.8-24.3s11.8-11,18-50C-24,547.7-43.1,516.1-43.1,516.1z M-94.9,613.9
		c-21,11-36-5-36-5v-72.3c0,0,6-10.3,25.6-9.7c19.6,0.6,27.1,32.3,27.1,32.3S-73.9,602.9-94.9,613.9z"/>
	<path class="st1" d="M121.5,545.3c-6-43.3-42-58.3-42-58.3s-47-15.4-78,19s-20.7,87.7-20.7,87.7s4.7,44.3,46,61
		c41.4,16.7,87.7-7,87.7-7l-0.3-38.3c-28,11-40,11.3-62.7,8.5C28.8,615.1,28.8,590,28.8,590h95C126.8,561,121.4,545.3,121.5,545.3z
		 M27.9,553.8v-1c0,0-1.2-27.7,24-29.7s26,30.7,26,30.7H27.9z"/>
</g>
</svg>
