<svg xmlns="http://www.w3.org/2000/svg" viewBox="18 62.3 377.7 377.7" style="enable-background:new 18 62.3 377.7 377.7" xml:space="preserve"><switch><g><path d="M371 93.7 26.6 228c-11.2 4.3-10.5 20.4 1 23.7l87.5 25.8 32.7 103.6c3.4 10.8 17.1 14.1 25.1 6l45.2-46.2 88.8 65.2c10.9 8 26.3 2.1 29.1-11.1l58.8-281.1c2.8-13.8-10.7-25.3-23.8-20.2zm-43.2 62.4-160 141.5c-1.6 1.4-2.6 3.4-2.8 5.5l-6.2 54.8c-.2 1.8-2.7 2-3.2.3l-25.3-81.7c-1.2-3.7.4-7.8 3.7-9.9l188.9-117.2c4.3-2.6 8.7 3.4 4.9 6.7z" style="fill:#fff"/></g></switch></svg>