<?xml version="1.0" encoding="utf-8"?>
<!-- Generator: Adobe Illustrator 19.0.0, SVG Export Plug-In . SVG Version: 6.00 Build 0)  -->
<svg version="1.1" id="Capa_1" xmlns="http://www.w3.org/2000/svg" xmlns:xlink="http://www.w3.org/1999/xlink" x="0px" y="0px"
	 viewBox="225 -56 900 563" style="enable-background:new 225 -56 900 563;" xml:space="preserve">
<style type="text/css">
	.st0{fill:url(#SVGID_1_);}
	.st1{opacity:0.94;}
	.st2{fill:#FFFFFF;}
</style>
<linearGradient id="SVGID_1_" gradientUnits="userSpaceOnUse" x1="225" y1="226.5" x2="1125" y2="226.5" gradientTransform="matrix(1 0 0 -1 0 452)">
	<stop  offset="0" style="stop-color:#7F00FF"/>
	<stop  offset="0.2752" style="stop-color:#7C00FF"/>
	<stop  offset="0.4903" style="stop-color:#7200FF"/>
	<stop  offset="0.6852" style="stop-color:#6100FF"/>
	<stop  offset="0.867" style="stop-color:#4A00FF"/>
	<stop  offset="1" style="stop-color:#3400FF"/>
</linearGradient>
<rect x="225" y="-56" class="st0" width="900" height="563"/>
<g class="st1">
	<path class="st2" d="M634.7,182.6l23.9-5.1v20h17.6V218h-18v35.4c0,0-0.3,12.7,18,7.3v18.8c0,0-10.3,6.8-30.8,0
		c0,0-9.4-7-10.8-19.2C633.4,248.1,634.7,182.6,634.7,182.6z"/>
	<g>
		<rect x="604.5" y="197.4" class="st2" width="23.8" height="84.5"/>
		<polygon class="st2" points="604.5,189.7 628.3,184.5 628.3,165.1 604.5,170.3 		"/>
	</g>
	<path class="st2" d="M749,182.6l23.9-5.1v20h17.6V218h-18v35.4c0,0-0.3,12.7,18,7.3v18.8c0,0-10.3,6.8-30.8,0c0,0-9.4-7-10.8-19.2
		C747.7,248.1,749,182.6,749,182.6z"/>
	<g>
		<rect x="718.7" y="197.4" class="st2" width="23.8" height="84.5"/>
		<polygon class="st2" points="718.7,189.7 742.5,184.5 742.5,165.1 718.7,170.3 		"/>
	</g>
	<path class="st2" d="M593.1,211.6c0,0-6.5-12.6-21.9-15.5c-15.4-2.9-22.6,7.1-22.6,7.1l-1.3,0.7v-26.4v-12.3l-21.8,5.1v111.7h0.7
		h24.3v-5.3c9.5,6.5,19.7,5.9,19.7,5.9c16.5-3.4,20.4-11.9,20.4-11.9s5.7-5.3,8.8-24.4S593.1,211.6,593.1,211.6z M567.9,259.4
		c-10.3,5.3-17.6-2.5-17.6-2.5v-35.3c0,0,2.9-5,12.5-4.7c9.5,0.3,13.2,15.8,13.2,15.8S578.1,254,567.9,259.4z"/>
	<circle class="st2" cx="812.2" cy="273.6" r="12.3"/>
</g>
</svg>
