<?xml version="1.0" encoding="utf-8"?>
<!-- Generator: Adobe Illustrator 19.0.0, SVG Export Plug-In . SVG Version: 6.00 Build 0)  -->
<svg version="1.1" id="Calque_1" xmlns="http://www.w3.org/2000/svg" xmlns:xlink="http://www.w3.org/1999/xlink" x="0px" y="0px"
	 viewBox="0 0 3096 3096" style="enable-background:new 0 0 3096 3096;" xml:space="preserve">
<style type="text/css">
	.st0{fill:none;stroke:url(#SVGID_1_);stroke-width:30;stroke-miterlimit:10;}
	.st1{fill:none;stroke:url(#SVGID_2_);stroke-width:30;stroke-miterlimit:10;}
	.st2{fill:none;stroke:url(#SVGID_3_);stroke-width:30;stroke-miterlimit:10;}
	.st3{fill:none;stroke:url(#SVGID_4_);stroke-width:30;stroke-miterlimit:10;}
	.st4{fill:none;stroke:url(#SVGID_5_);stroke-width:30;stroke-miterlimit:10;}
	.st5{fill:none;stroke:url(#SVGID_6_);stroke-width:30;stroke-miterlimit:10;}
	.st6{fill:none;stroke:url(#SVGID_7_);stroke-width:30;stroke-miterlimit:10;}
	.st7{fill:none;stroke:url(#SVGID_8_);stroke-width:30;stroke-miterlimit:10;}
</style>
<linearGradient id="SVGID_1_" gradientUnits="userSpaceOnUse" x1="880.7846" y1="1335.0199" x2="2436.896" y2="1335.0199">
	<stop  offset="0" style="stop-color:#00FF99"/>
	<stop  offset="1" style="stop-color:#33CCFF"/>
</linearGradient>
<path class="st0" d="M1270,1732c0,0,0,136,120,236s200,184,328,184c0,0,140.1,55,386.8-2.6c39.1-9.1,80.9-21.1,125.2-36.5
	c0,0,116-72.9,176-520.9c0,0,51.5-338.9-31-367.4c0,0-30-73.5,4.5-139.5s-13.5-135-13.5-135l-36.1-255.3
	c0,0-209.9-299.6-346.4-166.2c0,0-58.7,28.1-319.7,1.1c-261-27-342,93-342,93s-33,57-33,111c0,54-45,207-87,234s33,78,33,78
	s-3,66,3,174c6,108-24,114-12,180c9.6,52.9,25,116.2,30.8,139.2c0.8,3.4-2.8,6-5.8,4.3c-29.1-17.5-128.5-82.3-154-161.5
	c-30-93-153-108-153-108s-48,29.4-48,61.2s18,184.8,48,235.8s96,129,123,129s45,21,102,21s57.2-11.9,57.2-11.9
	S1268.2,1710.1,1270,1732z"/>
<linearGradient id="SVGID_2_" gradientUnits="userSpaceOnUse" x1="2073.3928" y1="2621.7334" x2="2297.9233" y2="2621.7334">
	<stop  offset="0" style="stop-color:#00FF99"/>
	<stop  offset="1" style="stop-color:#33CCFF"/>
</linearGradient>
<path class="st1" d="M2191.9,3096c0,0,12-241,75-256c0,0,36-162,0-249c0,0-117-18-159-123s-3.1-318.5-3.1-318.5"/>
<linearGradient id="SVGID_3_" gradientUnits="userSpaceOnUse" x1="1036.1852" y1="2408.925" x2="1527.0043" y2="2408.925">
	<stop  offset="0" style="stop-color:#00FF99"/>
	<stop  offset="1" style="stop-color:#33CCFF"/>
</linearGradient>
<path class="st2" d="M1513.8,3096c0,0-81-148-171-115c0,0-45,15-105-156c-60-171-144-165-144-165l-39-96c0,0,298.6-189,153.8-846.1"
	/>
<linearGradient id="SVGID_4_" gradientUnits="userSpaceOnUse" x1="-14.6123" y1="2786.1772" x2="1075.1409" y2="2786.1772">
	<stop  offset="0" style="stop-color:#00FF99"/>
	<stop  offset="1" style="stop-color:#33CCFF"/>
</linearGradient>
<path class="st3" d="M0,3056c0,0,16.7-72,64.7-105c48-33,192-132,279-129c87,3,222-90,222-90s42,6,102,0c60-6,240-204,294-204
	c54,0,106.8,25.6,106.8,25.6"/>
<linearGradient id="SVGID_5_" gradientUnits="userSpaceOnUse" x1="2139.9583" y1="2710.1016" x2="3105.3447" y2="2710.1016">
	<stop  offset="0" style="stop-color:#00FF99"/>
	<stop  offset="1" style="stop-color:#33CCFF"/>
</linearGradient>
<path class="st4" d="M2144.8,2525.7c0,0,161.3-54.6,254.3,30.8c93,85.5,243,123,243,123s133.5,12,183,121.5c0,0,21,49.5,45,55.5
	s109.5-13.5,139.5,0s86.5,58.5,86.5,58.5"/>
<linearGradient id="SVGID_6_" gradientUnits="userSpaceOnUse" x1="958.0833" y1="403.9004" x2="2345.0129" y2="403.9004">
	<stop  offset="0" style="stop-color:#00FF99"/>
	<stop  offset="1" style="stop-color:#33CCFF"/>
</linearGradient>
<path class="st5" d="M2329.9,694.8c0,0,8.5-255-144.3-288c0,0,30.3-33,12.3-66s-156-150-237-135c0,0-36-39-84-30s-3-87-363-30
	s-321,66-405,132s-132,156-144,162"/>
<linearGradient id="SVGID_7_" gradientUnits="userSpaceOnUse" x1="578.3665" y1="1238.8152" x2="1251.3828" y2="1238.8152">
	<stop  offset="0" style="stop-color:#00FF99"/>
	<stop  offset="1" style="stop-color:#33CCFF"/>
</linearGradient>
<path class="st6" d="M1237.5,2202.7c0,0-104.7-259.8-182.7-262.8c-78-3-39,6-78-3s-72-165-108-186c-36-21-12-171-12-171
	s-27-45-48-96s-57-156-33-204c24-48-123-120-135-276c-12-156-81-324-27-399c54-75,156.9-363.1,480.5-315"/>
<linearGradient id="SVGID_8_" gradientUnits="userSpaceOnUse" x1="448.7414" y1="1415.677" x2="865.5687" y2="1415.677">
	<stop  offset="0" style="stop-color:#00FF99"/>
	<stop  offset="1" style="stop-color:#33CCFF"/>
</linearGradient>
<path class="st7" d="M617.3,852.1c0,0-199.3,79.9-121.3,269.9s154.7,74,97.4,256s-129.6,225.9-129.6,339.9c0,0,168-213.7,198-169.9
	s21,373.9,0,424.9c-21,51,173.8-288,190.4-255"/>
</svg>
