<?xml version="1.0" encoding="utf-8"?>
<!-- Generator: Adobe Illustrator 19.0.0, SVG Export Plug-In . SVG Version: 6.00 Build 0)  -->
<svg version="1.1" id="Capa_1" xmlns="http://www.w3.org/2000/svg" xmlns:xlink="http://www.w3.org/1999/xlink" x="0px" y="0px"
	 viewBox="-188 -537.5 900 563" style="enable-background:new -188 -537.5 900 563;" xml:space="preserve">
<style type="text/css">
	.st0{fill:url(#SVGID_1_);}
	.st1{opacity:0.2;fill:#1D1B30;}
	.st2{opacity:0.3;fill:#7B20E5;}
	.st3{fill:url(#XMLID_38_);}
	.st4{fill:url(#XMLID_39_);}
	.st5{fill:url(#XMLID_40_);}
	.st6{clip-path:url(#XMLID_41_);fill:url(#XMLID_46_);}
	.st7{clip-path:url(#XMLID_41_);fill:url(#XMLID_47_);}
	.st8{clip-path:url(#XMLID_41_);fill:url(#XMLID_48_);}
	.st9{clip-path:url(#XMLID_41_);fill:url(#XMLID_51_);}
	.st10{clip-path:url(#XMLID_41_);fill:url(#XMLID_52_);}
	.st11{clip-path:url(#XMLID_41_);fill:url(#XMLID_53_);}
	.st12{clip-path:url(#XMLID_41_);fill:url(#XMLID_54_);}
	.st13{clip-path:url(#XMLID_41_);fill:url(#XMLID_55_);}
	.st14{opacity:0.3;fill:url(#XMLID_56_);}
	.st15{opacity:0.5;fill:url(#XMLID_57_);}
	.st16{opacity:0.55;fill:url(#XMLID_58_);}
	.st17{opacity:0.6;fill:url(#XMLID_59_);}
	.st18{opacity:0.4;fill:url(#XMLID_60_);}
	.st19{opacity:0.6;fill:url(#XMLID_61_);}
	.st20{opacity:0.4;fill:url(#XMLID_62_);}
	.st21{opacity:0.55;fill:url(#XMLID_63_);}
	.st22{opacity:0.2;fill:url(#XMLID_64_);}
	.st23{opacity:0.4;fill:url(#XMLID_65_);}
	.st24{opacity:0.6;fill:url(#XMLID_66_);}
	.st25{opacity:0.4;fill:url(#XMLID_67_);}
	.st26{opacity:0.5;fill:url(#XMLID_68_);}
	.st27{opacity:0.55;fill:url(#XMLID_69_);}
	.st28{opacity:0.6;fill:url(#XMLID_74_);}
	.st29{opacity:0.2;fill:url(#XMLID_75_);}
	.st30{opacity:0.4;fill:url(#XMLID_76_);}
	.st31{opacity:0.6;fill:url(#XMLID_77_);}
	.st32{opacity:0.55;fill:url(#XMLID_78_);}
	.st33{fill:none;}
	.st34{fill:url(#XMLID_79_);}
	.st35{fill:url(#XMLID_80_);}
	.st36{fill:url(#XMLID_81_);}
	.st37{fill:url(#XMLID_82_);}
	.st38{fill:url(#XMLID_83_);}
	.st39{fill:url(#XMLID_84_);}
	.st40{fill:url(#XMLID_85_);}
	.st41{fill:url(#XMLID_86_);}
	.st42{fill:url(#XMLID_87_);}
	.st43{fill:url(#XMLID_88_);}
	.st44{fill:url(#XMLID_89_);}
	.st45{fill:url(#XMLID_90_);}
	.st46{fill:url(#XMLID_91_);}
	.st47{fill:url(#XMLID_92_);}
	.st48{fill:url(#XMLID_93_);}
	.st49{fill:url(#XMLID_94_);}
	.st50{clip-path:url(#XMLID_95_);fill:url(#XMLID_99_);}
	.st51{clip-path:url(#XMLID_95_);fill:url(#XMLID_102_);}
	.st52{clip-path:url(#XMLID_95_);fill:url(#XMLID_106_);}
	.st53{clip-path:url(#XMLID_95_);fill:url(#XMLID_110_);}
	.st54{clip-path:url(#XMLID_95_);fill:url(#XMLID_111_);}
	.st55{clip-path:url(#XMLID_95_);fill:url(#XMLID_112_);}
	.st56{clip-path:url(#XMLID_95_);fill:url(#XMLID_113_);}
	.st57{clip-path:url(#XMLID_95_);fill:url(#XMLID_115_);}
	.st58{opacity:0.3;fill:url(#XMLID_116_);}
	.st59{opacity:0.6;fill:url(#XMLID_117_);}
	.st60{opacity:0.55;fill:url(#XMLID_118_);}
</style>
<linearGradient id="SVGID_1_" gradientUnits="userSpaceOnUse" x1="-188" y1="-256" x2="712" y2="-256">
	<stop  offset="0" style="stop-color:#7F00FF"/>
	<stop  offset="0.2752" style="stop-color:#7C00FF"/>
	<stop  offset="0.4903" style="stop-color:#7200FF"/>
	<stop  offset="0.6852" style="stop-color:#6100FF"/>
	<stop  offset="0.867" style="stop-color:#4A00FF"/>
	<stop  offset="1" style="stop-color:#3400FF"/>
</linearGradient>
<rect x="-188" y="-537.5" class="st0" width="900" height="563"/>
<polygon id="XMLID_2_" class="st1" points="366.5,-187.7 524,-89.1 367.6,9.6 210.1,-89 "/>
<path class="st2" d="M-42.4-93.1l-13.3-46.5c-2-7.1-0.1-14.8,5-20.1l33.6-34.8c5.1-5.3,12.7-7.5,19.9-5.7l46.9,11.8
	c7.2,1.8,12.8,7.3,14.9,14.4l13.3,46.5c2,7.1,0.1,14.8-5,20.1L39.3-72.6c-5.1,5.3-12.7,7.5-19.9,5.7l-46.9-11.8
	C-34.7-80.5-40.4-86-42.4-93.1z"/>
<path class="st2" d="M399.5-334.6l-19.9-69.6c-3-10.6-0.2-22.1,7.5-30l50.4-52c7.7-8,19.1-11.2,29.8-8.5l70.3,17.6
	c10.7,2.7,19.2,10.9,22.3,21.5l19.9,69.6c3,10.6,0.2,22.1-7.5,30l-50.4,52c-7.7,8-19.1,11.2-29.8,8.5l-70.3-17.6
	C411-315.8,402.5-324,399.5-334.6z"/>
<path class="st2" d="M289.4-344.2l51.7-48.8c7.9-7.5,19.2-10.1,29.6-7l68.1,20.4c10.4,3.1,18.4,11.5,20.9,22.1l16.4,69.1
	c2.5,10.6-0.8,21.7-8.7,29.1l-51.7,48.8c-7.9,7.5-19.2,10.1-29.6,7L318-223.8c-10.4-3.1-18.4-11.5-20.9-22.1L280.7-315
	C278.2-325.6,281.5-336.7,289.4-344.2z"/>
<linearGradient id="XMLID_38_" gradientUnits="userSpaceOnUse" x1="316.2018" y1="-16805.4297" x2="425.6665" y2="-16396.9023" gradientTransform="matrix(1 0 0 -1 0 -16896)">
	<stop  offset="0" style="stop-color:#4F3E90"/>
	<stop  offset="1" style="stop-color:#171A31"/>
</linearGradient>
<polygon id="XMLID_20_" class="st3" points="181.7,-185.2 181.7,-404.3 370.3,-513.9 560.1,-404.4 560.1,-185.3 371.6,-75.7 "/>
<linearGradient id="XMLID_39_" gradientUnits="userSpaceOnUse" x1="343.5894" y1="-16593.668" x2="398.279" y2="-16389.5645" gradientTransform="matrix(1 0 0 -1 0 -16896)">
	<stop  offset="0" style="stop-color:#4F3E90"/>
	<stop  offset="1" style="stop-color:#171A31"/>
</linearGradient>
<polygon id="XMLID_49_" class="st4" points="370.3,-513.9 560.1,-404.4 371.6,-294.8 181.7,-404.3 "/>
<linearGradient id="XMLID_40_" gradientUnits="userSpaceOnUse" x1="431.0809" y1="-16526.1836" x2="500.6162" y2="-16785.6934" gradientTransform="matrix(1 0 0 -1 0 -16896)">
	<stop  offset="0" style="stop-color:#4F3E90"/>
	<stop  offset="1" style="stop-color:#171A31"/>
</linearGradient>
<polygon id="XMLID_50_" class="st5" points="371.6,-75.7 371.6,-294.8 560.1,-404.4 560.1,-185.3 "/>
<g id="XMLID_97_">
	<defs>
		<polygon id="XMLID_98_" points="368.2,-477.8 480,-413.3 369,-348.8 257.2,-413.3 		"/>
	</defs>
	<clipPath id="XMLID_41_">
		<use xlink:href="#XMLID_98_"  style="overflow:visible;"/>
	</clipPath>
	
		<linearGradient id="XMLID_46_" gradientUnits="userSpaceOnUse" x1="352.4459" y1="-16442.6699" x2="384.7614" y2="-16563.2734" gradientTransform="matrix(1 0 0 -1 0 -16896)">
		<stop  offset="0" style="stop-color:#00ACE9"/>
		<stop  offset="1" style="stop-color:#007541"/>
	</linearGradient>
	<polygon id="XMLID_109_" class="st6" points="368.2,-457.6 480,-393 369,-328.5 257.2,-393 	"/>
	
		<linearGradient id="XMLID_47_" gradientUnits="userSpaceOnUse" x1="352.4459" y1="-16462.5762" x2="384.7614" y2="-16583.1797" gradientTransform="matrix(1 0 0 -1 0 -16896)">
		<stop  offset="0" style="stop-color:#00ACE9"/>
		<stop  offset="1" style="stop-color:#007541"/>
	</linearGradient>
	<polygon id="XMLID_108_" class="st7" points="368.2,-437.7 480,-373.1 369,-308.6 257.2,-373.1 	"/>
	
		<linearGradient id="XMLID_48_" gradientUnits="userSpaceOnUse" x1="352.4459" y1="-16482.4844" x2="384.7614" y2="-16603.0879" gradientTransform="matrix(1 0 0 -1 0 -16896)">
		<stop  offset="0" style="stop-color:#00ACE9"/>
		<stop  offset="1" style="stop-color:#007541"/>
	</linearGradient>
	<polygon id="XMLID_107_" class="st8" points="368.2,-417.7 480,-353.2 369,-288.7 257.2,-353.2 	"/>
	
		<linearGradient id="XMLID_51_" gradientUnits="userSpaceOnUse" x1="352.4459" y1="-16502.3906" x2="384.7614" y2="-16622.9941" gradientTransform="matrix(1 0 0 -1 0 -16896)">
		<stop  offset="0" style="stop-color:#00ACE9"/>
		<stop  offset="1" style="stop-color:#007541"/>
	</linearGradient>
	<polygon id="XMLID_105_" class="st9" points="368.2,-397.8 480,-333.3 369,-268.8 257.2,-333.3 	"/>
	
		<linearGradient id="XMLID_52_" gradientUnits="userSpaceOnUse" x1="352.4459" y1="-16522.2969" x2="384.7614" y2="-16642.9004" gradientTransform="matrix(1 0 0 -1 0 -16896)">
		<stop  offset="0" style="stop-color:#00ACE9"/>
		<stop  offset="1" style="stop-color:#007541"/>
	</linearGradient>
	<polygon id="XMLID_104_" class="st10" points="368.2,-377.9 480,-313.4 369,-248.9 257.2,-313.4 	"/>
	
		<linearGradient id="XMLID_53_" gradientUnits="userSpaceOnUse" x1="352.4459" y1="-16542.2051" x2="384.7614" y2="-16662.8086" gradientTransform="matrix(1 0 0 -1 0 -16896)">
		<stop  offset="0" style="stop-color:#00ACE9"/>
		<stop  offset="1" style="stop-color:#007541"/>
	</linearGradient>
	<polygon id="XMLID_103_" class="st11" points="368.2,-358 480,-293.5 369,-229 257.2,-293.5 	"/>
	
		<linearGradient id="XMLID_54_" gradientUnits="userSpaceOnUse" x1="352.4459" y1="-16562.1113" x2="384.7614" y2="-16682.7148" gradientTransform="matrix(1 0 0 -1 0 -16896)">
		<stop  offset="0" style="stop-color:#00ACE9"/>
		<stop  offset="1" style="stop-color:#007541"/>
	</linearGradient>
	<polygon id="XMLID_101_" class="st12" points="368.2,-338.1 480,-273.6 369,-209.1 257.2,-273.6 	"/>
	
		<linearGradient id="XMLID_55_" gradientUnits="userSpaceOnUse" x1="352.4459" y1="-16582.0176" x2="384.7614" y2="-16702.6211" gradientTransform="matrix(1 0 0 -1 0 -16896)">
		<stop  offset="0" style="stop-color:#00ACE9"/>
		<stop  offset="1" style="stop-color:#007541"/>
	</linearGradient>
	<polygon id="XMLID_100_" class="st13" points="368.2,-318.2 480,-253.7 369,-189.2 257.2,-253.7 	"/>
</g>
<linearGradient id="XMLID_56_" gradientUnits="userSpaceOnUse" x1="327.8908" y1="-16536.2246" x2="409.3263" y2="-16232.3027" gradientTransform="matrix(1 0 0 -1 0 -16896)">
	<stop  offset="0" style="stop-color:#FFFFFF;stop-opacity:0"/>
	<stop  offset="1" style="stop-color:#FFFFFF;stop-opacity:0.3"/>
</linearGradient>
<polygon id="XMLID_96_" class="st14" points="368.3,-674.7 278.8,-622.7 278.8,-400.8 368.9,-348.8 458.4,-400.8 458.4,-622.7 "/>
<linearGradient id="XMLID_57_" gradientUnits="userSpaceOnUse" x1="387.2983" y1="-16511.3516" x2="389.8019" y2="-16511.3516" gradientTransform="matrix(1 0 0 -1 0 -16896)">
	<stop  offset="9.817236e-008" style="stop-color:#FFFFFF;stop-opacity:0.6"/>
	<stop  offset="1" style="stop-color:#FFFFFF"/>
</linearGradient>
<circle id="XMLID_304_" class="st15" cx="388.6" cy="-384.6" r="1.3"/>
<linearGradient id="XMLID_58_" gradientUnits="userSpaceOnUse" x1="133.9648" y1="-16514.6309" x2="136.4685" y2="-16514.6309" gradientTransform="matrix(1 0 0 -1 0 -16896)">
	<stop  offset="9.817236e-008" style="stop-color:#FFFFFF;stop-opacity:0.6"/>
	<stop  offset="1" style="stop-color:#FFFFFF"/>
</linearGradient>
<circle id="XMLID_302_" class="st16" cx="135.2" cy="-381.4" r="1.3"/>
<linearGradient id="XMLID_59_" gradientUnits="userSpaceOnUse" x1="67.7992" y1="-16489.4121" x2="73.6272" y2="-16489.4121" gradientTransform="matrix(1 0 0 -1 0 -16896)">
	<stop  offset="9.817236e-008" style="stop-color:#FFFFFF;stop-opacity:0.6"/>
	<stop  offset="1" style="stop-color:#FFFFFF"/>
</linearGradient>
<circle id="XMLID_37_" class="st17" cx="70.7" cy="-406.6" r="2.9"/>
<linearGradient id="XMLID_60_" gradientUnits="userSpaceOnUse" x1="682.2487" y1="-16498.7891" x2="686.3563" y2="-16498.7891" gradientTransform="matrix(1 0 0 -1 0 -16896)">
	<stop  offset="9.817236e-008" style="stop-color:#FFFFFF;stop-opacity:0.6"/>
	<stop  offset="1" style="stop-color:#FFFFFF"/>
</linearGradient>
<circle id="XMLID_43_" class="st18" cx="684.3" cy="-397.2" r="2.1"/>
<linearGradient id="XMLID_61_" gradientUnits="userSpaceOnUse" x1="109.5189" y1="-16392.3457" x2="115.3469" y2="-16392.3457" gradientTransform="matrix(1 0 0 -1 0 -16896)">
	<stop  offset="9.817236e-008" style="stop-color:#FFFFFF;stop-opacity:0.6"/>
	<stop  offset="1" style="stop-color:#FFFFFF"/>
</linearGradient>
<circle id="XMLID_143_" class="st19" cx="112.4" cy="-503.7" r="2.9"/>
<linearGradient id="XMLID_62_" gradientUnits="userSpaceOnUse" x1="231.2551" y1="-16408.668" x2="233.6209" y2="-16408.668" gradientTransform="matrix(1 0 0 -1 0 -16896)">
	<stop  offset="9.817236e-008" style="stop-color:#FFFFFF;stop-opacity:0.6"/>
	<stop  offset="1" style="stop-color:#FFFFFF"/>
</linearGradient>
<circle id="XMLID_142_" class="st20" cx="232.4" cy="-487.3" r="1.2"/>
<linearGradient id="XMLID_63_" gradientUnits="userSpaceOnUse" x1="187.9911" y1="-16421.0918" x2="191.1447" y2="-16421.0918" gradientTransform="matrix(1 0 0 -1 0 -16896)">
	<stop  offset="9.817236e-008" style="stop-color:#FFFFFF;stop-opacity:0.6"/>
	<stop  offset="1" style="stop-color:#FFFFFF"/>
</linearGradient>
<circle id="XMLID_140_" class="st21" cx="189.6" cy="-474.9" r="1.6"/>
<linearGradient id="XMLID_64_" gradientUnits="userSpaceOnUse" x1="163.3987" y1="-16372.6846" x2="168.251" y2="-16372.6846" gradientTransform="matrix(1 0 0 -1 0 -16896)">
	<stop  offset="9.817236e-008" style="stop-color:#FFFFFF;stop-opacity:0.6"/>
	<stop  offset="1" style="stop-color:#FFFFFF"/>
</linearGradient>
<circle id="XMLID_44_" class="st22" cx="165.8" cy="-523.3" r="2.4"/>
<linearGradient id="XMLID_65_" gradientUnits="userSpaceOnUse" x1="-42.0152" y1="-16437.1191" x2="-39.0722" y2="-16437.1191" gradientTransform="matrix(1 0 0 -1 0 -16896)">
	<stop  offset="9.817236e-008" style="stop-color:#FFFFFF;stop-opacity:0.6"/>
	<stop  offset="1" style="stop-color:#FFFFFF"/>
</linearGradient>
<circle id="XMLID_42_" class="st23" cx="-40.5" cy="-458.9" r="1.5"/>
<linearGradient id="XMLID_66_" gradientUnits="userSpaceOnUse" x1="376.0675" y1="-16445.0879" x2="381.8955" y2="-16445.0879" gradientTransform="matrix(1 0 0 -1 0 -16896)">
	<stop  offset="9.817236e-008" style="stop-color:#FFFFFF;stop-opacity:0.6"/>
	<stop  offset="1" style="stop-color:#FFFFFF"/>
</linearGradient>
<circle id="XMLID_73_" class="st24" cx="379" cy="-450.9" r="2.9"/>
<linearGradient id="XMLID_67_" gradientUnits="userSpaceOnUse" x1="172.7365" y1="-16488.2285" x2="175.1024" y2="-16488.2285" gradientTransform="matrix(1 0 0 -1 0 -16896)">
	<stop  offset="9.817236e-008" style="stop-color:#FFFFFF;stop-opacity:0.6"/>
	<stop  offset="1" style="stop-color:#FFFFFF"/>
</linearGradient>
<circle id="XMLID_72_" class="st25" cx="173.9" cy="-407.8" r="1.2"/>
<linearGradient id="XMLID_68_" gradientUnits="userSpaceOnUse" x1="338.7458" y1="-16492.6875" x2="341.8994" y2="-16492.6875" gradientTransform="matrix(1 0 0 -1 0 -16896)">
	<stop  offset="9.817236e-008" style="stop-color:#FFFFFF;stop-opacity:0.6"/>
	<stop  offset="1" style="stop-color:#FFFFFF"/>
</linearGradient>
<circle id="XMLID_71_" class="st26" cx="340.3" cy="-403.3" r="1.6"/>
<linearGradient id="XMLID_69_" gradientUnits="userSpaceOnUse" x1="417.898" y1="-16408.668" x2="421.0516" y2="-16408.668" gradientTransform="matrix(1 0 0 -1 0 -16896)">
	<stop  offset="9.817236e-008" style="stop-color:#FFFFFF;stop-opacity:0.6"/>
	<stop  offset="1" style="stop-color:#FFFFFF"/>
</linearGradient>
<circle id="XMLID_70_" class="st27" cx="419.5" cy="-487.3" r="1.6"/>
<linearGradient id="XMLID_74_" gradientUnits="userSpaceOnUse" x1="74.5825" y1="-16437.1191" x2="80.4105" y2="-16437.1191" gradientTransform="matrix(1 0 0 -1 0 -16896)">
	<stop  offset="9.817236e-008" style="stop-color:#FFFFFF;stop-opacity:0.6"/>
	<stop  offset="1" style="stop-color:#FFFFFF"/>
</linearGradient>
<circle id="XMLID_369_" class="st28" cx="77.5" cy="-458.9" r="2.9"/>
<linearGradient id="XMLID_75_" gradientUnits="userSpaceOnUse" x1="-32.8765" y1="-16447.9082" x2="-28.0242" y2="-16447.9082" gradientTransform="matrix(1 0 0 -1 0 -16896)">
	<stop  offset="9.817236e-008" style="stop-color:#FFFFFF;stop-opacity:0.6"/>
	<stop  offset="1" style="stop-color:#FFFFFF"/>
</linearGradient>
<circle id="XMLID_361_" class="st29" cx="-30.5" cy="-448.1" r="2.4"/>
<linearGradient id="XMLID_76_" gradientUnits="userSpaceOnUse" x1="27.5376" y1="-16529.8672" x2="30.4806" y2="-16529.8672" gradientTransform="matrix(1 0 0 -1 0 -16896)">
	<stop  offset="9.817236e-008" style="stop-color:#FFFFFF;stop-opacity:0.6"/>
	<stop  offset="1" style="stop-color:#FFFFFF"/>
</linearGradient>
<circle id="XMLID_360_" class="st30" cx="29" cy="-366.1" r="1.5"/>
<linearGradient id="XMLID_77_" gradientUnits="userSpaceOnUse" x1="315.4334" y1="-16360.1025" x2="321.2614" y2="-16360.1025" gradientTransform="matrix(1 0 0 -1 0 -16896)">
	<stop  offset="9.817236e-008" style="stop-color:#FFFFFF;stop-opacity:0.6"/>
	<stop  offset="1" style="stop-color:#FFFFFF"/>
</linearGradient>
<circle id="XMLID_359_" class="st31" cx="318.3" cy="-535.9" r="2.9"/>
<linearGradient id="XMLID_78_" gradientUnits="userSpaceOnUse" x1="159.9847" y1="-16501.168" x2="163.1383" y2="-16501.168" gradientTransform="matrix(1 0 0 -1 0 -16896)">
	<stop  offset="9.817236e-008" style="stop-color:#FFFFFF;stop-opacity:0.6"/>
	<stop  offset="1" style="stop-color:#FFFFFF"/>
</linearGradient>
<circle id="XMLID_358_" class="st32" cx="161.6" cy="-394.8" r="1.6"/>
<rect x="-167.9" y="-510.9" class="st33" width="518.4" height="324.3"/>
<polygon id="XMLID_168_" class="st1" points="108.7,-127.6 206.6,-66.3 109.3,-5 11.4,-66.3 "/>
<g id="XMLID_7_">
	
		<linearGradient id="XMLID_79_" gradientUnits="userSpaceOnUse" x1="97.1861" y1="-16811.998" x2="128.1347" y2="-16696.4961" gradientTransform="matrix(1 0 0 -1 0 -16896)">
		<stop  offset="0" style="stop-color:#4F3E90"/>
		<stop  offset="1" style="stop-color:#171A31"/>
	</linearGradient>
	<polygon id="XMLID_30_" class="st34" points="112.3,-203.7 219.7,-141.8 113,-79.8 5.6,-141.7 	"/>
	
		<linearGradient id="XMLID_80_" gradientUnits="userSpaceOnUse" x1="52.5484" y1="-16820.9727" x2="66.0737" y2="-16770.4961" gradientTransform="matrix(1 0 0 -1 0 -16896)">
		<stop  offset="0" style="stop-color:#00ACE9"/>
		<stop  offset="1" style="stop-color:#007541"/>
	</linearGradient>
	<polygon id="XMLID_25_" class="st35" points="5.6,-141.7 5.5,-120.8 113,-58.8 113,-79.7 	"/>
	
		<linearGradient id="XMLID_81_" gradientUnits="userSpaceOnUse" x1="166.3945" y1="-16837.1855" x2="166.3945" y2="-16754.2832" gradientTransform="matrix(1 0 0 -1 0 -16896)">
		<stop  offset="0" style="stop-color:#463780"/>
		<stop  offset="0.1433" style="stop-color:#382E68"/>
		<stop  offset="0.3308" style="stop-color:#292550"/>
		<stop  offset="0.5289" style="stop-color:#1F1F3F"/>
		<stop  offset="0.7426" style="stop-color:#191B34"/>
		<stop  offset="1" style="stop-color:#171A31"/>
	</linearGradient>
	<polygon id="XMLID_8_" class="st36" points="113,-58.8 113,-79.7 219.8,-141.7 219.7,-120.8 	"/>
</g>
<g id="XMLID_21_">
	
		<linearGradient id="XMLID_82_" gradientUnits="userSpaceOnUse" x1="97.1861" y1="-16773.002" x2="128.1347" y2="-16657.5" gradientTransform="matrix(1 0 0 -1 0 -16896)">
		<stop  offset="0" style="stop-color:#4F3E90"/>
		<stop  offset="1" style="stop-color:#171A31"/>
	</linearGradient>
	<polygon id="XMLID_6_" class="st37" points="112.3,-242.7 219.7,-180.8 113,-118.8 5.6,-180.7 	"/>
	
		<linearGradient id="XMLID_83_" gradientUnits="userSpaceOnUse" x1="52.5484" y1="-16781.9785" x2="66.0737" y2="-16731.5" gradientTransform="matrix(1 0 0 -1 0 -16896)">
		<stop  offset="0" style="stop-color:#00ACE9"/>
		<stop  offset="1" style="stop-color:#007541"/>
	</linearGradient>
	<polygon id="XMLID_5_" class="st38" points="5.6,-180.7 5.5,-159.8 113,-97.8 113,-118.7 	"/>
	
		<linearGradient id="XMLID_84_" gradientUnits="userSpaceOnUse" x1="166.3945" y1="-16798.1895" x2="166.3945" y2="-16715.2871" gradientTransform="matrix(1 0 0 -1 0 -16896)">
		<stop  offset="0" style="stop-color:#463780"/>
		<stop  offset="0.1433" style="stop-color:#382E68"/>
		<stop  offset="0.3308" style="stop-color:#292550"/>
		<stop  offset="0.5289" style="stop-color:#1F1F3F"/>
		<stop  offset="0.7426" style="stop-color:#191B34"/>
		<stop  offset="1" style="stop-color:#171A31"/>
	</linearGradient>
	<polygon id="XMLID_9_" class="st39" points="113,-97.8 113,-118.7 219.8,-180.7 219.7,-159.8 	"/>
</g>
<g id="XMLID_22_">
	
		<linearGradient id="XMLID_85_" gradientUnits="userSpaceOnUse" x1="97.1861" y1="-16734.0078" x2="128.1347" y2="-16618.5059" gradientTransform="matrix(1 0 0 -1 0 -16896)">
		<stop  offset="0" style="stop-color:#4F3E90"/>
		<stop  offset="1" style="stop-color:#171A31"/>
	</linearGradient>
	<polygon id="XMLID_11_" class="st40" points="112.3,-281.7 219.7,-219.7 113,-157.7 5.6,-219.7 	"/>
	
		<linearGradient id="XMLID_86_" gradientUnits="userSpaceOnUse" x1="52.5484" y1="-16742.9824" x2="66.0737" y2="-16692.5059" gradientTransform="matrix(1 0 0 -1 0 -16896)">
		<stop  offset="0" style="stop-color:#00ACE9"/>
		<stop  offset="1" style="stop-color:#007541"/>
	</linearGradient>
	<polygon id="XMLID_10_" class="st41" points="5.6,-219.7 5.5,-198.8 113,-136.8 113,-157.7 	"/>
	
		<linearGradient id="XMLID_87_" gradientUnits="userSpaceOnUse" x1="166.3945" y1="-16759.1953" x2="166.3945" y2="-16676.293" gradientTransform="matrix(1 0 0 -1 0 -16896)">
		<stop  offset="0" style="stop-color:#463780"/>
		<stop  offset="0.1433" style="stop-color:#382E68"/>
		<stop  offset="0.3308" style="stop-color:#292550"/>
		<stop  offset="0.5289" style="stop-color:#1F1F3F"/>
		<stop  offset="0.7426" style="stop-color:#191B34"/>
		<stop  offset="1" style="stop-color:#171A31"/>
	</linearGradient>
	<polygon id="XMLID_12_" class="st42" points="113,-136.8 113,-157.7 219.8,-219.7 219.7,-198.8 	"/>
</g>
<g id="XMLID_23_">
	
		<linearGradient id="XMLID_88_" gradientUnits="userSpaceOnUse" x1="97.1861" y1="-16695.0117" x2="128.1347" y2="-16579.5098" gradientTransform="matrix(1 0 0 -1 0 -16896)">
		<stop  offset="0" style="stop-color:#4F3E90"/>
		<stop  offset="1" style="stop-color:#171A31"/>
	</linearGradient>
	<polygon id="XMLID_14_" class="st43" points="112.3,-320.7 219.7,-258.7 113,-196.7 5.6,-258.7 	"/>
	
		<linearGradient id="XMLID_89_" gradientUnits="userSpaceOnUse" x1="52.5484" y1="-16703.9863" x2="66.0737" y2="-16653.5098" gradientTransform="matrix(1 0 0 -1 0 -16896)">
		<stop  offset="0" style="stop-color:#00ACE9"/>
		<stop  offset="1" style="stop-color:#007541"/>
	</linearGradient>
	<polygon id="XMLID_13_" class="st44" points="5.6,-258.7 5.5,-237.8 113,-175.8 113,-196.7 	"/>
	
		<linearGradient id="XMLID_90_" gradientUnits="userSpaceOnUse" x1="166.3945" y1="-16720.1992" x2="166.3945" y2="-16637.2969" gradientTransform="matrix(1 0 0 -1 0 -16896)">
		<stop  offset="0" style="stop-color:#463780"/>
		<stop  offset="0.1433" style="stop-color:#382E68"/>
		<stop  offset="0.3308" style="stop-color:#292550"/>
		<stop  offset="0.5289" style="stop-color:#1F1F3F"/>
		<stop  offset="0.7426" style="stop-color:#191B34"/>
		<stop  offset="1" style="stop-color:#171A31"/>
	</linearGradient>
	<polygon id="XMLID_15_" class="st45" points="113,-175.8 113,-196.7 219.8,-258.7 219.7,-237.8 	"/>
</g>
<g id="XMLID_24_">
	
		<linearGradient id="XMLID_91_" gradientUnits="userSpaceOnUse" x1="97.1861" y1="-16656.0156" x2="128.1347" y2="-16540.5137" gradientTransform="matrix(1 0 0 -1 0 -16896)">
		<stop  offset="0" style="stop-color:#4F3E90"/>
		<stop  offset="1" style="stop-color:#171A31"/>
	</linearGradient>
	<polygon id="XMLID_17_" class="st46" points="112.3,-359.7 219.7,-297.7 113,-235.7 5.6,-297.7 	"/>
	
		<linearGradient id="XMLID_92_" gradientUnits="userSpaceOnUse" x1="52.5484" y1="-16664.9922" x2="66.0737" y2="-16614.5137" gradientTransform="matrix(1 0 0 -1 0 -16896)">
		<stop  offset="0" style="stop-color:#00ACE9"/>
		<stop  offset="1" style="stop-color:#007541"/>
	</linearGradient>
	<polygon id="XMLID_16_" class="st47" points="5.6,-297.7 5.5,-276.8 113,-214.8 113,-235.7 	"/>
	
		<linearGradient id="XMLID_93_" gradientUnits="userSpaceOnUse" x1="166.3945" y1="-16681.2051" x2="166.3945" y2="-16598.3008" gradientTransform="matrix(1 0 0 -1 0 -16896)">
		<stop  offset="0" style="stop-color:#463780"/>
		<stop  offset="0.1433" style="stop-color:#382E68"/>
		<stop  offset="0.3308" style="stop-color:#292550"/>
		<stop  offset="0.5289" style="stop-color:#1F1F3F"/>
		<stop  offset="0.7426" style="stop-color:#191B34"/>
		<stop  offset="1" style="stop-color:#171A31"/>
	</linearGradient>
	<polygon id="XMLID_18_" class="st48" points="113,-214.8 113,-235.7 219.8,-297.7 219.7,-276.8 	"/>
</g>
<linearGradient id="XMLID_94_" gradientUnits="userSpaceOnUse" x1="103.7763" y1="-16631.1797" x2="122.2813" y2="-16562.1191" gradientTransform="matrix(1 0 0 -1 0 -16896)">
	<stop  offset="0" style="stop-color:#00ACE9"/>
	<stop  offset="1" style="stop-color:#007541"/>
</linearGradient>
<polygon id="XMLID_26_" class="st49" points="112.8,-336.4 177,-299.4 113.2,-262.3 49,-299.3 "/>
<g id="XMLID_4_">
	<defs>
		<polygon id="XMLID_35_" points="112.8,-336.4 177,-299.4 113.2,-262.3 49,-299.3 		"/>
	</defs>
	<clipPath id="XMLID_95_">
		<use xlink:href="#XMLID_35_"  style="overflow:visible;"/>
	</clipPath>
	
		<linearGradient id="XMLID_99_" gradientUnits="userSpaceOnUse" x1="103.7442" y1="-16573.6641" x2="122.307" y2="-16642.9414" gradientTransform="matrix(1 0 0 -1 0 -16896)">
		<stop  offset="0" style="stop-color:#00ACE9"/>
		<stop  offset="1" style="stop-color:#007541"/>
	</linearGradient>
	<polygon id="XMLID_19_" class="st50" points="112.8,-324.8 177,-287.7 113.2,-250.6 49,-287.7 	"/>
	
		<linearGradient id="XMLID_102_" gradientUnits="userSpaceOnUse" x1="103.7442" y1="-16585.0996" x2="122.307" y2="-16654.375" gradientTransform="matrix(1 0 0 -1 0 -16896)">
		<stop  offset="0" style="stop-color:#00ACE9"/>
		<stop  offset="1" style="stop-color:#007541"/>
	</linearGradient>
	<polygon id="XMLID_27_" class="st51" points="112.8,-313.3 177,-276.3 113.2,-239.2 49,-276.2 	"/>
	
		<linearGradient id="XMLID_106_" gradientUnits="userSpaceOnUse" x1="103.7442" y1="-16596.5332" x2="122.307" y2="-16665.8105" gradientTransform="matrix(1 0 0 -1 0 -16896)">
		<stop  offset="0" style="stop-color:#00ACE9"/>
		<stop  offset="1" style="stop-color:#007541"/>
	</linearGradient>
	<polygon id="XMLID_28_" class="st52" points="112.8,-301.9 177,-264.8 113.2,-227.8 49,-264.8 	"/>
	
		<linearGradient id="XMLID_110_" gradientUnits="userSpaceOnUse" x1="103.7442" y1="-16607.9688" x2="122.307" y2="-16677.2461" gradientTransform="matrix(1 0 0 -1 0 -16896)">
		<stop  offset="0" style="stop-color:#00ACE9"/>
		<stop  offset="1" style="stop-color:#007541"/>
	</linearGradient>
	<polygon id="XMLID_29_" class="st53" points="112.8,-290.5 177,-253.4 113.2,-216.3 49,-253.4 	"/>
	
		<linearGradient id="XMLID_111_" gradientUnits="userSpaceOnUse" x1="103.7442" y1="-16619.4043" x2="122.307" y2="-16688.6816" gradientTransform="matrix(1 0 0 -1 0 -16896)">
		<stop  offset="0" style="stop-color:#00ACE9"/>
		<stop  offset="1" style="stop-color:#007541"/>
	</linearGradient>
	<polygon id="XMLID_31_" class="st54" points="112.8,-279 177,-242 113.2,-204.9 49,-241.9 	"/>
	
		<linearGradient id="XMLID_112_" gradientUnits="userSpaceOnUse" x1="103.7442" y1="-16630.8379" x2="122.307" y2="-16700.1152" gradientTransform="matrix(1 0 0 -1 0 -16896)">
		<stop  offset="0" style="stop-color:#00ACE9"/>
		<stop  offset="1" style="stop-color:#007541"/>
	</linearGradient>
	<polygon id="XMLID_32_" class="st55" points="112.8,-267.6 177,-230.5 113.2,-193.5 49,-230.5 	"/>
	
		<linearGradient id="XMLID_113_" gradientUnits="userSpaceOnUse" x1="103.7442" y1="-16642.2734" x2="122.307" y2="-16711.5508" gradientTransform="matrix(1 0 0 -1 0 -16896)">
		<stop  offset="0" style="stop-color:#00ACE9"/>
		<stop  offset="1" style="stop-color:#007541"/>
	</linearGradient>
	<polygon id="XMLID_33_" class="st56" points="112.8,-256.2 177,-219.1 113.2,-182 49,-219.1 	"/>
	
		<linearGradient id="XMLID_115_" gradientUnits="userSpaceOnUse" x1="103.7442" y1="-16653.709" x2="122.307" y2="-16722.9863" gradientTransform="matrix(1 0 0 -1 0 -16896)">
		<stop  offset="0" style="stop-color:#00ACE9"/>
		<stop  offset="1" style="stop-color:#007541"/>
	</linearGradient>
	<polygon id="XMLID_34_" class="st57" points="112.8,-244.7 177,-207.7 113.2,-170.6 49,-207.6 	"/>
</g>
<linearGradient id="XMLID_116_" gradientUnits="userSpaceOnUse" x1="83.635" y1="-16624.6543" x2="141.6832" y2="-16408.0156" gradientTransform="matrix(1 0 0 -1 0 -16896)">
	<stop  offset="0" style="stop-color:#FFFFFF;stop-opacity:0"/>
	<stop  offset="1" style="stop-color:#FFFFFF;stop-opacity:0.3"/>
</linearGradient>
<polygon id="XMLID_36_" class="st58" points="112.4,-495.8 48.6,-458.7 48.6,-300.6 112.9,-263.5 176.7,-300.6 176.7,-458.8 "/>
<linearGradient id="XMLID_117_" gradientUnits="userSpaceOnUse" x1="91.2618" y1="-16589.9141" x2="97.374" y2="-16589.9141" gradientTransform="matrix(1 0 0 -1 0 -16896)">
	<stop  offset="9.817236e-008" style="stop-color:#FFFFFF;stop-opacity:0.6"/>
	<stop  offset="1" style="stop-color:#FFFFFF"/>
</linearGradient>
<circle id="XMLID_3_" class="st59" cx="94.3" cy="-306.1" r="3.1"/>
<linearGradient id="XMLID_118_" gradientUnits="userSpaceOnUse" x1="116.0012" y1="-16556.7598" x2="119.3085" y2="-16556.7598" gradientTransform="matrix(1 0 0 -1 0 -16896)">
	<stop  offset="9.817236e-008" style="stop-color:#FFFFFF;stop-opacity:0.6"/>
	<stop  offset="1" style="stop-color:#FFFFFF"/>
</linearGradient>
<circle id="XMLID_45_" class="st60" cx="117.7" cy="-339.2" r="1.7"/>
<polyline id="XMLID_114_" class="st1" points="113,-59.2 5.6,-121.2 112.6,-236.4 219.7,-121.2 113,-59.2 "/>
</svg>
