<svg version="1.1" id="Capa_1" xmlns="http://www.w3.org/2000/svg" xmlns:xlink="http://www.w3.org/1999/xlink" x="0" y="0" viewBox="6 -6 512 512" style="enable-background:new 6 -6 512 512" xml:space="preserve"><style>.st19{enable-background:new}</style><switch><g><path style="opacity:.17;fill:#1d1b30" d="m67 223.3 439 5.8 12 44-38 70.3-142.5 36.2z"/><linearGradient id="SVGID_1_" gradientUnits="userSpaceOnUse" x1="155.672" y1="187.196" x2="426.18" y2="187.196"><stop offset="0" style="stop-color:#00ffba"/><stop offset=".179" style="stop-color:#11e0d1"/><stop offset=".378" style="stop-color:#20c5e5"/><stop offset=".581" style="stop-color:#2bb1f4"/><stop offset=".787" style="stop-color:#31a6fc"/><stop offset="1" style="stop-color:#33a2ff"/></linearGradient><path style="fill:url(#SVGID_1_)" d="M155.7 171.1v-66.9l68.9 23.2 39.7-31.1 35.5 26.5 46.5-37.2L426.2 47v280.4z"/><linearGradient id="SVGID_2_" gradientUnits="userSpaceOnUse" x1="395.671" y1="319.182" x2="467.172" y2="52.334"><stop offset="0" style="stop-color:#00ffba"/><stop offset=".179" style="stop-color:#11e0d1"/><stop offset=".378" style="stop-color:#20c5e5"/><stop offset=".581" style="stop-color:#2bb1f4"/><stop offset=".787" style="stop-color:#31a6fc"/><stop offset="1" style="stop-color:#33a2ff"/></linearGradient><path style="fill:url(#SVGID_2_)" d="m426.2 327.4 11.5-6.8V44.4L426.2 47z"/><linearGradient id="SVGID_3_" gradientUnits="userSpaceOnUse" x1="264.341" y1="107.113" x2="308.293" y2="107.113"><stop offset="0" style="stop-color:#00ffba"/><stop offset=".179" style="stop-color:#11e0d1"/><stop offset=".378" style="stop-color:#20c5e5"/><stop offset=".581" style="stop-color:#2bb1f4"/><stop offset=".787" style="stop-color:#31a6fc"/><stop offset="1" style="stop-color:#33a2ff"/></linearGradient><path style="fill:url(#SVGID_3_)" d="m264.3 96.3 7.9-4.9 36.1 24.6-8.5 6.8z"/><linearGradient id="SVGID_4_" gradientUnits="userSpaceOnUse" x1="126.127" y1="219.461" x2="396.635" y2="219.461"><stop offset="0" style="stop-color:#7f00ff"/><stop offset=".298" style="stop-color:#7c00ff"/><stop offset=".526" style="stop-color:#7200fe"/><stop offset=".731" style="stop-color:#6200fe"/><stop offset=".921" style="stop-color:#4b00fd"/><stop offset="1" style="stop-color:#3f00fc"/></linearGradient><path style="fill:url(#SVGID_4_)" d="M126.1 188.5v-71.9l35-22.4 73.9 36.6 69.2-14.2 46.3 24.6 46.1-42.5v246.1z"/><linearGradient id="SVGID_5_" gradientUnits="userSpaceOnUse" x1="370.406" y1="337.732" x2="434.257" y2="99.436"><stop offset="0" style="stop-color:#7f00ff"/><stop offset="1" style="stop-color:#3f00fc"/></linearGradient><path style="fill:url(#SVGID_5_)" d="m396.6 344.8 11.5-6.7V92.4l-11.5 6.3z"/><linearGradient id="SVGID_6_" gradientUnits="userSpaceOnUse" x1="161.146" y1="110.306" x2="245.243" y2="110.306"><stop offset="0" style="stop-color:#7f00ff"/><stop offset="1" style="stop-color:#3f00fc"/></linearGradient><path style="fill:url(#SVGID_6_)" d="m161.1 94.2 7.7-4.4 76.4 38.9-10.2 2.1z"/><linearGradient id="SVGID_7_" gradientUnits="userSpaceOnUse" x1="304.204" y1="127.277" x2="356.878" y2="127.277"><stop offset="0" style="stop-color:#7f00ff"/><stop offset="1" style="stop-color:#3f00fc"/></linearGradient><path style="fill:url(#SVGID_7_)" d="m304.2 116.6 9.4-3.3 43.3 22.1-6.4 5.8z"/><linearGradient id="SVGID_8_" gradientUnits="userSpaceOnUse" x1="96.582" y1="234.241" x2="367.09" y2="234.241"><stop offset="0" style="stop-color:#0f9"/><stop offset=".024" style="stop-color:#02fd9e"/><stop offset=".213" style="stop-color:#14ebc1"/><stop offset=".406" style="stop-color:#22dddc"/><stop offset=".6" style="stop-color:#2bd4f0"/><stop offset=".796" style="stop-color:#31cefb"/><stop offset="1" style="stop-color:#3cf"/></linearGradient><path style="fill:url(#SVGID_8_)" d="M96.6 205.9v-51.1l68.2-39.5 65.8 28.6 41.6-14.8 27.3 21.8 67.6-44.6v255.9z"/><linearGradient id="SVGID_9_" gradientUnits="userSpaceOnUse" x1="339.64" y1="354.808" x2="405.933" y2="107.399"><stop offset="0" style="stop-color:#0f9"/><stop offset=".034" style="stop-color:#08f7a9"/><stop offset=".103" style="stop-color:#15eac4"/><stop offset=".183" style="stop-color:#20dfda"/><stop offset=".276" style="stop-color:#29d6eb"/><stop offset=".391" style="stop-color:#2fd0f6"/><stop offset=".552" style="stop-color:#32cdfd"/><stop offset="1" style="stop-color:#3cf"/></linearGradient><path style="fill:url(#SVGID_9_)" d="m367.1 362.2 11.5-6.7V100.1l-11.5 6.2z"/><linearGradient id="SVGID_10_" gradientUnits="userSpaceOnUse" x1="164.834" y1="127.419" x2="240.968" y2="127.419"><stop offset="0" style="stop-color:#0f9"/><stop offset="1" style="stop-color:#3cf"/></linearGradient><path style="fill:url(#SVGID_10_)" d="m164.8 115.3 7.7-4.3 68.5 29.1-10.4 3.8z"/><linearGradient id="SVGID_11_" gradientUnits="userSpaceOnUse" x1="272.233" y1="138.555" x2="306.096" y2="138.555"><stop offset="0" style="stop-color:#0f9"/><stop offset="1" style="stop-color:#3cf"/></linearGradient><path style="fill:url(#SVGID_11_)" d="m272.2 129.1 6.7-2.9 27.2 20.3-6.6 4.4z"/><linearGradient id="SVGID_12_" gradientUnits="userSpaceOnUse" x1="67.036" y1="261.32" x2="337.545" y2="261.32"><stop offset="0" style="stop-color:#7f00ff"/><stop offset=".298" style="stop-color:#7c00ff"/><stop offset=".526" style="stop-color:#7200fe"/><stop offset=".731" style="stop-color:#6200fe"/><stop offset=".921" style="stop-color:#4b00fd"/><stop offset="1" style="stop-color:#3f00fc"/></linearGradient><path style="fill:url(#SVGID_12_)" d="M67 223.3v-40.1l35.1-19.7 99 19.7 35-20.4 33.8 21.1 67.6-40.8v236.5z"/><linearGradient id="SVGID_13_" gradientUnits="userSpaceOnUse" x1="312.514" y1="372.859" x2="373.969" y2="143.506"><stop offset="0" style="stop-color:#7f00ff"/><stop offset="1" style="stop-color:#3f00fc"/></linearGradient><path style="fill:url(#SVGID_13_)" d="m337.5 379.6 11.6-6.7V136.8l-11.6 6.3z"/><linearGradient id="SVGID_14_" gradientUnits="userSpaceOnUse" x1="102.056" y1="170.444" x2="212.536" y2="170.444"><stop offset="0" style="stop-color:#7f00ff"/><stop offset="1" style="stop-color:#3f00fc"/></linearGradient><path style="fill:url(#SVGID_14_)" d="m102.1 163.5 10.6-5.8 99.8 18.7-11.4 6.8z"/><linearGradient id="SVGID_15_" gradientUnits="userSpaceOnUse" x1="236.104" y1="171.356" x2="277.761" y2="171.356"><stop offset="0" style="stop-color:#7f00ff"/><stop offset="1" style="stop-color:#3f00fc"/></linearGradient><path style="fill:url(#SVGID_15_)" d="m236.1 162.8 7.6-4 34.1 20.4-7.9 4.7z"/><g class="st19" id="XMLID_7_" style="opacity:.17"><defs><path id="SVGID_22_" class="st19" d="m59.8 384 73.9-43 74.5 43-74 43z"/></defs><clipPath id="SVGID_16_"><use xlink:href="#SVGID_22_" style="overflow:visible"/></clipPath><g style="clip-path:url(#SVGID_16_)"><path d="M171 362.5c-20.6-11.9-53.8-11.9-74.2 0-20.4 11.9-20.3 31.1.2 43 20.6 11.9 53.8 11.9 74.2 0s20.3-31.1-.2-43" style="fill:#1d1b30"/></g></g><linearGradient id="SVGID_17_" gradientUnits="userSpaceOnUse" x1="58.534" y1="-16233.348" x2="209.441" y2="-16233.348" gradientTransform="matrix(1 0 0 -1 0 -15884)"><stop offset="0" style="stop-color:#4f3e90"/><stop offset="1" style="stop-color:#171a31"/></linearGradient><path d="M58.5 348.2s0 40.7 69.7 44.2c69.7 3.6 81-37.6 81-37.6s7.5-40.5-62-48c0 0-40.2-5.4-70.3 14.1.1-.1-16 7.8-18.4 27.3z" style="fill:url(#SVGID_17_)"/><linearGradient id="XMLID_3_" gradientUnits="userSpaceOnUse" x1="4291.706" y1="2346.819" x2="4414.233" y2="2346.819" gradientTransform="matrix(-1 0 0 -1.1206 4486.957 2958.81)"><stop offset="0" style="stop-color:#4f3e90"/><stop offset="1" style="stop-color:#171a31"/></linearGradient><path id="XMLID_5_" d="M195 344.6s-.9-24.3-60.9-25.7c0 0-56.3-.4-60.9 25.7 0 0-8.6-28.5 60.9-31.3-.1.1 66.1 1.3 60.9 31.3z" style="fill:url(#XMLID_3_)"/><linearGradient id="XMLID_4_" gradientUnits="userSpaceOnUse" x1="121.449" y1="-16285.478" x2="140.381" y2="-16214.821" gradientTransform="matrix(1 0 0 -1 0 -15884)"><stop offset="0" style="stop-color:#4f3e90"/><stop offset="1" style="stop-color:#171a31"/></linearGradient><path id="XMLID_2_" d="M58.4 349.3s1.1 40.1 75.6 42.5c0 0 69.8.6 75.6-42.5 0 0 10.6 47.1-75.6 51.7 0 0-82.1-2.1-75.6-51.7z" style="fill:url(#XMLID_4_)"/><linearGradient id="SVGID_18_" gradientUnits="userSpaceOnUse" x1="86.608" y1="-16231.254" x2="168.285" y2="-16231.254" gradientTransform="matrix(1 0 0 -1 0 -15884)"><stop offset="0" style="stop-color:#7f00ff"/><stop offset="1" style="stop-color:#3f00fc"/></linearGradient><path d="m163.1 339.6 5.2-2.8-9.4-5.1-4.8 3.2-4.1-2.7 5.4-2.8-9.1-5.2-5.1 3-6.7-3.9-8.9 5.2 4.4 2.8-29.7 17.1-4.7-2.7-9 5.2 6.7 3.8-4.2 2.5 8.9 5.1 4.2-2.3 3.9 2.2-4.2 2.4 9 5.2 4.1-2.4c10.9 5.5 22.3 3.2 22.3 3.2 14.3-4.5 12.6-12.1 12.6-12.1 10.4-.7 15.2-5.6 15.2-5.6 6.9-7.6-2-13.3-2-13.3zm-27.1 22c-4.1 3-10.6 1.1-10.6 1.1l-16.2-9.4 11.5-6.7 15.3 8.8c0 .1 4.2 3.2 0 6.2zm17-11.8c-4.8 2.6-9.5 0-9.5 0l-13.9-8.1 9.7-5.7 14.4 8.4c0-.1 4.1 2.7-.7 5.4z" style="fill:url(#SVGID_18_)"/></g></switch></svg>