<svg xmlns="http://www.w3.org/2000/svg" viewBox="31 -31 512 512" style="enable-background:new 31 -31 512 512" xml:space="preserve"><path d="M286.8 374c-75.9 1.7-79.2 29.4-79.2 29.4s3.2 27.6 79.2 29.4c0 0 70.2-1 79.4-29.4C357 375 286.8 374 286.8 374z" style="opacity:.2;fill:#11081c;enable-background:new"/><linearGradient id="a" gradientUnits="userSpaceOnUse" x1="-526.2" y1="389.3" x2="-526.2" y2="389.3"><stop offset="0" style="stop-color:#3f00fc"/><stop offset=".208" style="stop-color:#3f02f7"/><stop offset=".467" style="stop-color:#3e09e7"/><stop offset=".753" style="stop-color:#3e14ce"/><stop offset="1" style="stop-color:#3d20b2"/></linearGradient><linearGradient id="b" gradientUnits="userSpaceOnUse" x1="104.087" y1="253.188" x2="469.913" y2="253.188"><stop offset="0" style="stop-color:#4f3e90"/><stop offset="1" style="stop-color:#171a31"/></linearGradient><path d="M469.9 161.7c0 101-81.9 182.9-182.9 182.9s-182.9-81.9-182.9-182.9" style="fill:url(#b)"/><linearGradient id="c" gradientUnits="userSpaceOnUse" x1="104.087" y1="161.732" x2="469.722" y2="161.732"><stop offset="0" style="stop-color:#3f00fc"/><stop offset=".208" style="stop-color:#3f02f7"/><stop offset=".467" style="stop-color:#3e09e7"/><stop offset=".753" style="stop-color:#3e14ce"/><stop offset="1" style="stop-color:#3d20b2"/></linearGradient><path d="M286.6 94c-175.1 4-182.5 67.7-182.5 67.7s7.5 63.7 182.5 67.7c0 0 161.9-2.3 183.1-67.7C448.5 96.3 286.6 94 286.6 94z" style="fill:url(#c)"/><linearGradient id="d" gradientUnits="userSpaceOnUse" x1="185.211" y1="161.732" x2="382.857" y2="161.732"><stop offset="0" style="stop-color:#7f00ff"/><stop offset=".489" style="stop-color:#7d00ff"/><stop offset=".665" style="stop-color:#7600ff"/><stop offset=".79" style="stop-color:#6b00ff"/><stop offset=".892" style="stop-color:#5a00ff"/><stop offset=".978" style="stop-color:#40f"/><stop offset="1" style="stop-color:#3d00ff"/></linearGradient><path d="M283.9 125.1c-94.6 2.2-98.7 36.6-98.7 36.6s4 34.4 98.7 36.6c0 0 87.5-1.2 99-36.6-11.5-35.3-99-36.6-99-36.6z" style="fill:url(#d)"/><linearGradient id="e" gradientUnits="userSpaceOnUse" x1="251.241" y1="161.732" x2="316.828" y2="161.732"><stop offset="0" style="stop-color:#0f9"/><stop offset="1" style="stop-color:#3cf"/></linearGradient><path d="M284 149.6c-31.4.7-32.7 12.1-32.7 12.1s1.3 11.4 32.7 12.1c0 0 29-.4 32.8-12.1C313 150 284 149.6 284 149.6z" style="fill:url(#e)"/><linearGradient id="f" gradientUnits="userSpaceOnUse" x1="251.671" y1="145.653" x2="315.987" y2="145.653"><stop offset="0" style="stop-color:#0f9"/><stop offset="1" style="stop-color:#3cf"/></linearGradient><path d="M251.7 161.7c0-17.8 14.4-32.2 32.2-32.2 17.8 0 32.2 14.4 32.2 32.2" style="fill:url(#f)"/></svg>