<svg version="1.1" id="Capa_1" xmlns="http://www.w3.org/2000/svg" x="0" y="0" viewBox="151.7 164 220 177" style="enable-background:new 151.7 164 220 177" xml:space="preserve"><style>.st16{fill:#3d20b7}</style><path d="M197.8 283.8s-2.5 1.3.4 4.4c2.9 3.2 63.8 36.7 63.8 36.7s5 2.6 8.8 0l55.5-32.5s1.4-2.1-1.5-3.6L261 251.9s-3.2-2.5-7.5 0-55.7 31.9-55.7 31.9z" style="opacity:.2;fill:#1e1a21"/><linearGradient id="SVGID_1_" gradientUnits="userSpaceOnUse" x1="196.753" y1="271.903" x2="326.587" y2="271.903"><stop offset="0" style="stop-color:#4f3e90"/><stop offset="1" style="stop-color:#171a31"/></linearGradient><path d="M197.8 267.3s-2.5 1.3.4 4.4c2.9 3.2 63.8 36.7 63.8 36.7s5 2.6 8.8 0l55.5-32.5s1.4-2.1-1.5-3.6L261 235.4s-3.2-2.5-7.5 0-55.7 31.9-55.7 31.9z" style="fill:url(#SVGID_1_)"/><linearGradient id="SVGID_2_" gradientUnits="userSpaceOnUse" x1="196.753" y1="293.051" x2="326.615" y2="293.051"><stop offset="0" style="stop-color:#463780"/><stop offset=".143" style="stop-color:#382e68"/><stop offset=".331" style="stop-color:#292550"/><stop offset=".529" style="stop-color:#1f1f3f"/><stop offset=".743" style="stop-color:#191b34"/><stop offset="1" style="stop-color:#171a31"/></linearGradient><path d="M196.8 276.4v-7.6s0 2 2.2 3.6c2.3 1.5 17.7 10.7 17.7 10.7l23.1 13 21.9 12.2s4.9 2.7 8.8.4 55.8-32.7 55.8-32.7.5-.7.3-1.8v8.2c0 .7-.4 1.4-1 1.7l-54.4 31.7s-5.5 4.1-10.9-.9l-62.5-36.6c-.6-.4-1-1.2-1-1.9z" style="fill:url(#SVGID_2_)"/><linearGradient id="SVGID_3_" gradientUnits="userSpaceOnUse" x1="196.753" y1="253.903" x2="326.587" y2="253.903"><stop offset="0" style="stop-color:#4f3e90"/><stop offset="1" style="stop-color:#171a31"/></linearGradient><path d="M197.8 249.3s-2.5 1.3.4 4.4c2.9 3.2 63.8 36.7 63.8 36.7s5 2.6 8.8 0l55.5-32.5s1.4-2.1-1.5-3.6L261 217.4s-3.2-2.5-7.5 0-55.7 31.9-55.7 31.9z" style="fill:url(#SVGID_3_)"/><linearGradient id="SVGID_4_" gradientUnits="userSpaceOnUse" x1="196.753" y1="275.051" x2="326.615" y2="275.051"><stop offset="0" style="stop-color:#463780"/><stop offset=".143" style="stop-color:#382e68"/><stop offset=".331" style="stop-color:#292550"/><stop offset=".529" style="stop-color:#1f1f3f"/><stop offset=".743" style="stop-color:#191b34"/><stop offset="1" style="stop-color:#171a31"/></linearGradient><path d="M196.8 258.4v-7.6s0 2 2.2 3.6 17.7 10.7 17.7 10.7l23.1 13 21.9 12.2s4.9 2.7 8.8.4 55.8-32.7 55.8-32.7.5-.7.3-1.8v8.2c0 .7-.4 1.4-1 1.7l-54.4 31.7s-5.5 4.1-10.9-.9l-62.5-36.6c-.6-.4-1-1.2-1-1.9z" style="fill:url(#SVGID_4_)"/><linearGradient id="SVGID_5_" gradientUnits="userSpaceOnUse" x1="196.753" y1="235.903" x2="326.587" y2="235.903"><stop offset="0" style="stop-color:#4f3e90"/><stop offset="1" style="stop-color:#171a31"/></linearGradient><path d="M197.8 231.3s-2.5 1.3.4 4.4c2.9 3.2 63.8 36.7 63.8 36.7s5 2.6 8.8 0l55.5-32.5s1.4-2.1-1.5-3.6L261 199.4s-3.2-2.5-7.5 0-55.7 31.9-55.7 31.9z" style="fill:url(#SVGID_5_)"/><linearGradient id="SVGID_6_" gradientUnits="userSpaceOnUse" x1="196.753" y1="257.051" x2="326.615" y2="257.051"><stop offset="0" style="stop-color:#463780"/><stop offset=".143" style="stop-color:#382e68"/><stop offset=".331" style="stop-color:#292550"/><stop offset=".529" style="stop-color:#1f1f3f"/><stop offset=".743" style="stop-color:#191b34"/><stop offset="1" style="stop-color:#171a31"/></linearGradient><path d="M196.8 240.4v-7.6s0 2 2.2 3.6 17.7 10.7 17.7 10.7l23.1 13 21.9 12.2s4.9 2.7 8.8.4 55.8-32.7 55.8-32.7.5-.7.3-1.8v8.2c0 .7-.4 1.4-1 1.7l-54.4 31.7s-5.5 4.1-10.9-.9l-62.5-36.6c-.6-.4-1-1.2-1-1.9z" style="fill:url(#SVGID_6_)"/><linearGradient id="SVGID_7_" gradientUnits="userSpaceOnUse" x1="254.911" y1="267.265" x2="271.743" y2="204.447"><stop offset="0" style="stop-color:#4f3e90;stop-opacity:.6"/><stop offset="1" style="stop-color:#171abf;stop-opacity:.4"/></linearGradient><path d="M204.6 231.6s-2.3 1.1.4 4.1c2.7 2.9 58.6 33.7 58.6 33.7s4.6 2.4 8 0l51-29.8s1.3-2-1.4-3.3l-58.6-33.9s-2.9-2.3-6.9 0c-3.9 2.2-51.1 29.2-51.1 29.2z" style="opacity:.25;fill:url(#SVGID_7_)"/><linearGradient id="SVGID_8_" gradientUnits="userSpaceOnUse" x1="196.753" y1="217.903" x2="326.587" y2="217.903"><stop offset="0" style="stop-color:#4f3e90"/><stop offset="1" style="stop-color:#171a31"/></linearGradient><path d="M197.8 213.3s-2.5 1.3.4 4.4c2.9 3.2 63.8 36.7 63.8 36.7s5 2.6 8.8 0l55.5-32.5s1.4-2.1-1.5-3.6L261 181.4s-3.2-2.5-7.5 0-55.7 31.9-55.7 31.9z" style="fill:url(#SVGID_8_)"/><linearGradient id="SVGID_9_" gradientUnits="userSpaceOnUse" x1="196.753" y1="239.051" x2="326.615" y2="239.051"><stop offset="0" style="stop-color:#463780"/><stop offset=".143" style="stop-color:#382e68"/><stop offset=".331" style="stop-color:#292550"/><stop offset=".529" style="stop-color:#1f1f3f"/><stop offset=".743" style="stop-color:#191b34"/><stop offset="1" style="stop-color:#171a31"/></linearGradient><path d="M196.8 222.4v-7.6s0 2 2.2 3.6 17.7 10.7 17.7 10.7l23.1 13 21.9 12.2s4.9 2.7 8.8.4 55.8-32.7 55.8-32.7.5-.7.3-1.8v8.2c0 .7-.4 1.4-1 1.7l-54.4 31.7s-5.5 4.1-10.9-.9l-62.5-36.6c-.6-.4-1-1.2-1-1.9z" style="fill:url(#SVGID_9_)"/><linearGradient id="SVGID_10_" gradientUnits="userSpaceOnUse" x1="225.797" y1="223.129" x2="310.833" y2="223.129"><stop offset="0" style="stop-color:#463780"/><stop offset=".143" style="stop-color:#382e68"/><stop offset=".331" style="stop-color:#292550"/><stop offset=".529" style="stop-color:#1f1f3f"/><stop offset=".743" style="stop-color:#191b34"/><stop offset="1" style="stop-color:#171a31"/></linearGradient><path style="opacity:.6;fill:url(#SVGID_10_)" d="m225.8 213.4 43.7 26.4 41.3-22.1-4.1-.4-42.9-10.8z"/><linearGradient id="SVGID_11_" gradientUnits="userSpaceOnUse" x1="225.797" y1="215.288" x2="266.769" y2="215.288"><stop offset="0" style="stop-color:#7f00ff"/><stop offset=".489" style="stop-color:#7d00ff"/><stop offset=".665" style="stop-color:#7600ff"/><stop offset=".79" style="stop-color:#6b00ff"/><stop offset=".892" style="stop-color:#5a00ff"/><stop offset=".978" style="stop-color:#40f"/><stop offset="1" style="stop-color:#3d00ff"/></linearGradient><path style="fill:url(#SVGID_11_)" d="m225.8 210.8 12.7-7.4 28.3 16.3-12.7 7.4z"/><linearGradient id="SVGID_12_" gradientUnits="userSpaceOnUse" x1="254.054" y1="227.523" x2="280.914" y2="227.523"><stop offset="0" style="stop-color:#3f00fc"/><stop offset=".208" style="stop-color:#3f02f7"/><stop offset=".467" style="stop-color:#3e09e7"/><stop offset=".753" style="stop-color:#3e14ce"/><stop offset="1" style="stop-color:#3d20b2"/></linearGradient><path style="fill:url(#SVGID_12_)" d="m280.9 227.9-14.1-8.2-12.7 7.4 14.1 8.2z"/><linearGradient id="SVGID_13_" gradientUnits="userSpaceOnUse" x1="249.11" y1="204.589" x2="258.678" y2="240.296"><stop offset="0" style="stop-color:#851cb7"/><stop offset="1" style="stop-color:#3d20b7"/></linearGradient><path style="fill:url(#SVGID_13_)" d="M225.8 210.8v2.2l42.3 24.8 12.8-7.5v-2.4l-12.7 7.4z"/><linearGradient id="SVGID_14_" gradientUnits="userSpaceOnUse" x1="244.326" y1="202.356" x2="263.029" y2="202.356"><stop offset="0" style="stop-color:#3f00fc"/><stop offset=".208" style="stop-color:#3f02f7"/><stop offset=".467" style="stop-color:#3e09e7"/><stop offset=".753" style="stop-color:#3e14ce"/><stop offset="1" style="stop-color:#3d20b2"/></linearGradient><path style="fill:url(#SVGID_14_)" d="m244.3 204.1 1.9-5.1 15.7-9.2 1.1 25.1z"/><linearGradient id="SVGID_15_" gradientUnits="userSpaceOnUse" x1="266.031" y1="215.923" x2="304.253" y2="215.923"><stop offset="0" style="stop-color:#7f00ff"/><stop offset=".222" style="stop-color:#7a00ff"/><stop offset=".5" style="stop-color:#6a00ff"/><stop offset=".806" style="stop-color:#5100ff"/><stop offset="1" style="stop-color:#3d00ff"/></linearGradient><path style="fill:url(#SVGID_15_)" d="m266 216.6.1-11.3 38.2 9-21.1 12.3z"/><path class="st16" d="m266 216.6 17.2 10 21.1-12.3v2.3l-21.1 12.6-17.2-9.9zM244.3 204.1v2.7l18.7 10.8v-2.7z"/><linearGradient id="SVGID_16_" gradientUnits="userSpaceOnUse" x1="273.717" y1="229.836" x2="275.324" y2="235.835"><stop offset="0" style="stop-color:#3f00fc"/><stop offset=".12" style="stop-color:#3d01f7"/><stop offset=".27" style="stop-color:#3804e7"/><stop offset=".436" style="stop-color:#2f08ce"/><stop offset=".614" style="stop-color:#230eaa"/><stop offset=".8" style="stop-color:#14167c"/><stop offset=".992" style="stop-color:#012045"/><stop offset="1" style="stop-color:#002043"/></linearGradient><path style="fill:url(#SVGID_16_)" d="m268.2 235.3-.1 2.5 12.8-7.5v-2.4z"/><linearGradient id="SVGID_17_" gradientUnits="userSpaceOnUse" x1="292.576" y1="217.435" x2="294.898" y2="226.103"><stop offset="0" style="stop-color:#3f00fc"/><stop offset=".12" style="stop-color:#3d01f7"/><stop offset=".27" style="stop-color:#3804e7"/><stop offset=".436" style="stop-color:#2f08ce"/><stop offset=".614" style="stop-color:#230eaa"/><stop offset=".8" style="stop-color:#14167c"/><stop offset=".992" style="stop-color:#012045"/><stop offset="1" style="stop-color:#002043"/></linearGradient><path style="fill:url(#SVGID_17_)" d="M283.2 226.6v2.6l21.1-12.6v-2.3z"/></svg>