<svg version="1.1" id="Capa_1" xmlns="http://www.w3.org/2000/svg" xmlns:xlink="http://www.w3.org/1999/xlink" x="0" y="0" viewBox="31 -31 512 512" style="enable-background:new 31 -31 512 512" xml:space="preserve"><style>.st0{opacity:.2;fill:#1e1a21;enable-background:new}.st43{fill:#3d20b7}</style><path class="st0" d="M149.6 393.5s-5 2.4.8 8.8c5.7 6.3 126.7 72.9 126.7 72.9s10 5.2 17.4 0l110.2-64.6s2.8-4.2-3.1-7.1l-126.5-73.3s-6.4-5-14.9 0-110.6 63.3-110.6 63.3z"/><linearGradient id="SVGID_1_" gradientUnits="userSpaceOnUse" x1="228.8" y1="38.575" x2="228.8" y2="38.575" gradientTransform="matrix(1 0 0 -1 0 450)"><stop offset="0" style="stop-color:#3f00fc"/><stop offset=".208" style="stop-color:#3f02f7"/><stop offset=".467" style="stop-color:#3e09e7"/><stop offset=".753" style="stop-color:#3e14ce"/><stop offset="1" style="stop-color:#3d20b2"/></linearGradient><linearGradient id="XMLID_2_" gradientUnits="userSpaceOnUse" x1="253.445" y1="-16381.15" x2="320.562" y2="-16130.664" gradientTransform="matrix(1 0 0 -1 0 -15934)"><stop offset="0" style="stop-color:#4f3e90"/><stop offset="1" style="stop-color:#171a31"/></linearGradient><path id="XMLID_20_" style="fill:url(#XMLID_2_)" d="M171 389.1V254.8l115.6-67.2L403 254.7v134.4l-115.6 67.1z"/><linearGradient id="XMLID_3_" gradientUnits="userSpaceOnUse" x1="270.237" y1="-16251.31" x2="303.77" y2="-16126.164" gradientTransform="matrix(1 0 0 -1 0 -15934)"><stop offset="0" style="stop-color:#4f3e90"/><stop offset="1" style="stop-color:#171a31"/></linearGradient><path id="XMLID_49_" style="fill:url(#XMLID_3_)" d="M286.6 187.6 403 254.7l-115.6 67.2L171 254.8z"/><linearGradient id="XMLID_4_" gradientUnits="userSpaceOnUse" x1="323.882" y1="-16209.933" x2="366.517" y2="-16369.049" gradientTransform="matrix(1 0 0 -1 0 -15934)"><stop offset="0" style="stop-color:#4f3e90"/><stop offset="1" style="stop-color:#171a31"/></linearGradient><path id="XMLID_50_" style="fill:url(#XMLID_4_)" d="M287.4 456.2V321.9L403 254.7v134.4z"/><g id="XMLID_97_"><defs><path id="XMLID_98_" d="m285.4 209.7 68.5 39.6-68.1 39.5-68.6-39.5z"/></defs><linearGradient id="XMLID_5_" gradientUnits="userSpaceOnUse" x1="217.246" y1="249.262" x2="353.906" y2="249.262"><stop offset="0" style="stop-color:#7f00ff;stop-opacity:.4"/><stop offset="1" style="stop-color:#3d00ff;stop-opacity:.6"/></linearGradient><use xlink:href="#XMLID_98_" style="overflow:visible;fill:url(#XMLID_5_)"/><clipPath id="XMLID_6_"><use xlink:href="#XMLID_98_" style="overflow:visible"/></clipPath><linearGradient id="XMLID_7_" gradientUnits="userSpaceOnUse" x1="275.667" y1="-16158.726" x2="295.482" y2="-16232.673" gradientTransform="matrix(1 0 0 -1 0 -15934)"><stop offset="0" style="stop-color:#7f00ff;stop-opacity:.4"/><stop offset="1" style="stop-color:#3d00ff;stop-opacity:.6"/></linearGradient><path id="XMLID_109_" style="clip-path:url(#XMLID_6_);fill:url(#XMLID_7_)" d="m285.4 222.1 68.5 39.6-68.1 39.6-68.6-39.6z"/><linearGradient id="XMLID_8_" gradientUnits="userSpaceOnUse" x1="275.667" y1="-16170.932" x2="295.482" y2="-16244.879" gradientTransform="matrix(1 0 0 -1 0 -15934)"><stop offset="0" style="stop-color:#7f00ff;stop-opacity:.4"/><stop offset="1" style="stop-color:#3d00ff;stop-opacity:.6"/></linearGradient><path id="XMLID_108_" style="clip-path:url(#XMLID_6_);fill:url(#XMLID_8_)" d="m285.4 234.3 68.5 39.6-68.1 39.6-68.6-39.6z"/><linearGradient id="XMLID_9_" gradientUnits="userSpaceOnUse" x1="275.667" y1="-16183.138" x2="295.482" y2="-16257.085" gradientTransform="matrix(1 0 0 -1 0 -15934)"><stop offset="0" style="stop-color:#7f00ff;stop-opacity:.4"/><stop offset="1" style="stop-color:#3d00ff;stop-opacity:.6"/></linearGradient><path id="XMLID_107_" style="clip-path:url(#XMLID_6_);fill:url(#XMLID_9_)" d="m285.4 246.5 68.5 39.6-68.1 39.6-68.6-39.6z"/><linearGradient id="XMLID_10_" gradientUnits="userSpaceOnUse" x1="275.667" y1="-16195.344" x2="295.482" y2="-16269.291" gradientTransform="matrix(1 0 0 -1 0 -15934)"><stop offset="0" style="stop-color:#7f00ff;stop-opacity:.4"/><stop offset="1" style="stop-color:#3d00ff;stop-opacity:.6"/></linearGradient><path id="XMLID_105_" style="clip-path:url(#XMLID_6_);fill:url(#XMLID_10_)" d="m285.4 258.7 68.5 39.6-68.1 39.6-68.6-39.6z"/><linearGradient id="XMLID_11_" gradientUnits="userSpaceOnUse" x1="275.667" y1="-16207.549" x2="295.482" y2="-16281.496" gradientTransform="matrix(1 0 0 -1 0 -15934)"><stop offset="0" style="stop-color:#7f00ff;stop-opacity:.4"/><stop offset="1" style="stop-color:#3d00ff;stop-opacity:.6"/></linearGradient><path id="XMLID_104_" style="clip-path:url(#XMLID_6_);fill:url(#XMLID_11_)" d="m285.4 271 68.5 39.5-68.1 39.6-68.6-39.6z"/><linearGradient id="XMLID_12_" gradientUnits="userSpaceOnUse" x1="275.667" y1="-16219.755" x2="295.482" y2="-16293.702" gradientTransform="matrix(1 0 0 -1 0 -15934)"><stop offset="0" style="stop-color:#7f00ff;stop-opacity:.4"/><stop offset="1" style="stop-color:#3d00ff;stop-opacity:.6"/></linearGradient><path id="XMLID_103_" style="clip-path:url(#XMLID_6_);fill:url(#XMLID_12_)" d="m285.4 283.2 68.5 39.5-68.1 39.6-68.6-39.6z"/><linearGradient id="XMLID_13_" gradientUnits="userSpaceOnUse" x1="275.667" y1="-16231.961" x2="295.482" y2="-16305.908" gradientTransform="matrix(1 0 0 -1 0 -15934)"><stop offset="0" style="stop-color:#7f00ff;stop-opacity:.4"/><stop offset="1" style="stop-color:#3d00ff;stop-opacity:.6"/></linearGradient><path id="XMLID_101_" style="clip-path:url(#XMLID_6_);fill:url(#XMLID_13_)" d="m285.4 295.4 68.5 39.5-68.1 39.6-68.6-39.6z"/><linearGradient id="XMLID_14_" gradientUnits="userSpaceOnUse" x1="275.667" y1="-16244.167" x2="295.482" y2="-16318.114" gradientTransform="matrix(1 0 0 -1 0 -15934)"><stop offset="0" style="stop-color:#7f00ff;stop-opacity:.4"/><stop offset="1" style="stop-color:#3d00ff;stop-opacity:.6"/></linearGradient><path id="XMLID_100_" style="clip-path:url(#XMLID_6_);fill:url(#XMLID_14_)" d="m285.4 307.6 68.5 39.5-68.1 39.6-68.6-39.5z"/></g><path id="XMLID_56_" style="opacity:.5;fill:none;stroke:#0053fb;stroke-width:2;stroke-miterlimit:10" d="M362.1 278.5V361l-24 15.9v49.9"/><linearGradient id="XMLID_15_" gradientUnits="userSpaceOnUse" x1="297.037" y1="-16200.838" x2="298.572" y2="-16200.838" gradientTransform="matrix(1 0 0 -1 0 -15934)"><stop offset="0" style="stop-color:#3f00fc"/><stop offset=".208" style="stop-color:#3f02f7"/><stop offset=".467" style="stop-color:#3e09e7"/><stop offset=".753" style="stop-color:#3e14ce"/><stop offset="1" style="stop-color:#3d20b2"/></linearGradient><circle id="XMLID_304_" cx="297.8" cy="266.8" r=".8" style="fill:url(#XMLID_15_)"/><linearGradient id="XMLID_16_" gradientUnits="userSpaceOnUse" x1="251.483" y1="-16096.972" x2="253.018" y2="-16096.972" gradientTransform="matrix(1 0 0 -1 0 -15934)"><stop offset="0" style="stop-color:#3f00fc"/><stop offset=".208" style="stop-color:#3f02f7"/><stop offset=".467" style="stop-color:#3e09e7"/><stop offset=".753" style="stop-color:#3e14ce"/><stop offset="1" style="stop-color:#3d20b2"/></linearGradient><circle id="XMLID_302_" cx="252.3" cy="163" r=".8" style="fill:url(#XMLID_16_)"/><linearGradient id="XMLID_17_" gradientUnits="userSpaceOnUse" x1="345.391" y1="-16026.505" x2="348.964" y2="-16026.505" gradientTransform="matrix(1 0 0 -1 0 -15934)"><stop offset="0" style="stop-color:#3f00fc"/><stop offset=".208" style="stop-color:#3f02f7"/><stop offset=".467" style="stop-color:#3e09e7"/><stop offset=".753" style="stop-color:#3e14ce"/><stop offset="1" style="stop-color:#3d20b2"/></linearGradient><circle id="XMLID_37_" cx="347.2" cy="92.5" r="1.8" style="fill:url(#XMLID_17_)"/><linearGradient id="XMLID_18_" gradientUnits="userSpaceOnUse" x1="365.215" y1="-15946.5" x2="366.665" y2="-15946.5" gradientTransform="matrix(1 0 0 -1 0 -15934)"><stop offset="0" style="stop-color:#3f00fc"/><stop offset=".208" style="stop-color:#3f02f7"/><stop offset=".467" style="stop-color:#3e09e7"/><stop offset=".753" style="stop-color:#3e14ce"/><stop offset="1" style="stop-color:#3d20b2"/></linearGradient><circle id="XMLID_43_" cx="365.9" cy="12.5" r=".7" style="fill:url(#XMLID_18_)"/><linearGradient id="XMLID_19_" gradientUnits="userSpaceOnUse" x1="236.494" y1="-16021.993" x2="240.068" y2="-16021.993" gradientTransform="matrix(1 0 0 -1 0 -15934)"><stop offset="0" style="stop-color:#3f00fc"/><stop offset=".208" style="stop-color:#3f02f7"/><stop offset=".467" style="stop-color:#3e09e7"/><stop offset=".753" style="stop-color:#3e14ce"/><stop offset="1" style="stop-color:#3d20b2"/></linearGradient><circle id="XMLID_143_" cx="238.3" cy="88" r="1.8" style="fill:url(#XMLID_19_)"/><linearGradient id="XMLID_21_" gradientUnits="userSpaceOnUse" x1="358.329" y1="-16105.871" x2="359.779" y2="-16105.871" gradientTransform="matrix(1 0 0 -1 0 -15934)"><stop offset="0" style="stop-color:#3f00fc"/><stop offset=".208" style="stop-color:#3f02f7"/><stop offset=".467" style="stop-color:#3e09e7"/><stop offset=".753" style="stop-color:#3e14ce"/><stop offset="1" style="stop-color:#3d20b2"/></linearGradient><circle id="XMLID_142_" cx="359.1" cy="171.9" r=".7" style="fill:url(#XMLID_21_)"/><linearGradient id="XMLID_22_" gradientUnits="userSpaceOnUse" x1="284.609" y1="-16039.618" x2="286.543" y2="-16039.618" gradientTransform="matrix(1 0 0 -1 0 -15934)"><stop offset="0" style="stop-color:#3f00fc"/><stop offset=".208" style="stop-color:#3f02f7"/><stop offset=".467" style="stop-color:#3e09e7"/><stop offset=".753" style="stop-color:#3e14ce"/><stop offset="1" style="stop-color:#3d20b2"/></linearGradient><circle id="XMLID_140_" cx="285.6" cy="105.6" r="1" style="fill:url(#XMLID_22_)"/><linearGradient id="XMLID_23_" gradientUnits="userSpaceOnUse" x1="290.151" y1="-16160.208" x2="293.724" y2="-16160.208" gradientTransform="matrix(1 0 0 -1 0 -15934)"><stop offset="0" style="stop-color:#3f00fc"/><stop offset=".208" style="stop-color:#3f02f7"/><stop offset=".467" style="stop-color:#3e09e7"/><stop offset=".753" style="stop-color:#3e14ce"/><stop offset="1" style="stop-color:#3d20b2"/></linearGradient><circle id="XMLID_73_" cx="291.9" cy="226.2" r="1.8" style="fill:url(#XMLID_23_)"/><linearGradient id="XMLID_24_" gradientUnits="userSpaceOnUse" x1="275.256" y1="-16080.783" x2="276.706" y2="-16080.783" gradientTransform="matrix(1 0 0 -1 0 -15934)"><stop offset="0" style="stop-color:#3f00fc"/><stop offset=".208" style="stop-color:#3f02f7"/><stop offset=".467" style="stop-color:#3e09e7"/><stop offset=".753" style="stop-color:#3e14ce"/><stop offset="1" style="stop-color:#3d20b2"/></linearGradient><circle id="XMLID_72_" cx="276" cy="146.8" r=".7" style="fill:url(#XMLID_24_)"/><linearGradient id="XMLID_25_" gradientUnits="userSpaceOnUse" x1="267.267" y1="-16189.394" x2="269.201" y2="-16189.394" gradientTransform="matrix(1 0 0 -1 0 -15934)"><stop offset="0" style="stop-color:#3f00fc"/><stop offset=".208" style="stop-color:#3f02f7"/><stop offset=".467" style="stop-color:#3e09e7"/><stop offset=".753" style="stop-color:#3e14ce"/><stop offset="1" style="stop-color:#3d20b2"/></linearGradient><circle id="XMLID_71_" cx="268.2" cy="255.4" r="1" style="fill:url(#XMLID_25_)"/><linearGradient id="XMLID_26_" gradientUnits="userSpaceOnUse" x1="315.799" y1="-16137.878" x2="317.733" y2="-16137.878" gradientTransform="matrix(1 0 0 -1 0 -15934)"><stop offset="0" style="stop-color:#3f00fc"/><stop offset=".208" style="stop-color:#3f02f7"/><stop offset=".467" style="stop-color:#3e09e7"/><stop offset=".753" style="stop-color:#3e14ce"/><stop offset="1" style="stop-color:#3d20b2"/></linearGradient><circle id="XMLID_70_" cx="316.8" cy="203.9" r="1" style="fill:url(#XMLID_26_)"/><linearGradient id="XMLID_27_" gradientUnits="userSpaceOnUse" x1="250.464" y1="-15928.862" x2="254.037" y2="-15928.862" gradientTransform="matrix(1 0 0 -1 0 -15934)"><stop offset="0" style="stop-color:#3f00fc"/><stop offset=".208" style="stop-color:#3f02f7"/><stop offset=".467" style="stop-color:#3e09e7"/><stop offset=".753" style="stop-color:#3e14ce"/><stop offset="1" style="stop-color:#3d20b2"/></linearGradient><circle id="XMLID_369_" cx="252.3" cy="-5.1" r="1.8" style="fill:url(#XMLID_27_)"/><linearGradient id="XMLID_28_" gradientUnits="userSpaceOnUse" x1="288.364" y1="-15987.517" x2="291.938" y2="-15987.517" gradientTransform="matrix(1 0 0 -1 0 -15934)"><stop offset="0" style="stop-color:#3f00fc"/><stop offset=".208" style="stop-color:#3f02f7"/><stop offset=".467" style="stop-color:#3e09e7"/><stop offset=".753" style="stop-color:#3e14ce"/><stop offset="1" style="stop-color:#3d20b2"/></linearGradient><circle id="XMLID_359_" cx="290.2" cy="53.5" r="1.8" style="fill:url(#XMLID_28_)"/><linearGradient id="XMLID_29_" gradientUnits="userSpaceOnUse" x1="302.828" y1="-15968.134" x2="304.762" y2="-15968.134" gradientTransform="matrix(1 0 0 -1 0 -15934)"><stop offset="0" style="stop-color:#3f00fc"/><stop offset=".208" style="stop-color:#3f02f7"/><stop offset=".467" style="stop-color:#3e09e7"/><stop offset=".753" style="stop-color:#3e14ce"/><stop offset="1" style="stop-color:#3d20b2"/></linearGradient><circle id="XMLID_358_" cx="303.8" cy="34.1" r="1" style="fill:url(#XMLID_29_)"/><path class="st0" d="M148.5 430.1s-2.1 1 .3 3.7c2.4 2.6 52.9 30.4 52.9 30.4s4.2 2.2 7.2 0l46-27s1.2-1.8-1.3-3l-52.8-30.6s-2.7-2.1-6.2 0c-3.6 2.1-46.1 26.5-46.1 26.5z"/><linearGradient id="SVGID_2_" gradientUnits="userSpaceOnUse" x1="147.632" y1="29.771" x2="255.18" y2="29.771" gradientTransform="matrix(1 0 0 -1 0 450)"><stop offset="0" style="stop-color:#4f3e90"/><stop offset="1" style="stop-color:#171a31"/></linearGradient><path d="M148.5 416.4s-2.1 1 .3 3.7c2.4 2.6 52.9 30.4 52.9 30.4s4.2 2.2 7.2 0l46-27s1.2-1.8-1.3-3l-52.8-30.6s-2.7-2.1-6.2 0c-3.6 2.1-46.1 26.5-46.1 26.5z" style="fill:url(#SVGID_2_)"/><linearGradient id="SVGID_3_" gradientUnits="userSpaceOnUse" x1="147.668" y1="12.229" x2="255.362" y2="12.229" gradientTransform="matrix(1 0 0 -1 0 450)"><stop offset="0" style="stop-color:#463780"/><stop offset=".143" style="stop-color:#382e68"/><stop offset=".331" style="stop-color:#292550"/><stop offset=".529" style="stop-color:#1f1f3f"/><stop offset=".743" style="stop-color:#191b34"/><stop offset="1" style="stop-color:#171a31"/></linearGradient><path d="M147.7 423.9v-6.3s-.1 1.7 1.9 2.9c1.9 1.3 14.7 8.8 14.7 8.8l19.1 10.8 18.2 10.1s4 2.2 7.3.3c3.2-1.9 46.2-27.1 46.2-27.1s.4-.5.3-1.5v6.8c0 .6-.3 1.1-.8 1.4l-45.1 26.3s-4.6 3.4-9.1-.8l-51.8-30.3c-.6-.1-.9-.7-.9-1.4z" style="fill:url(#SVGID_3_)"/><linearGradient id="SVGID_4_" gradientUnits="userSpaceOnUse" x1="147.632" y1="44.686" x2="255.18" y2="44.686" gradientTransform="matrix(1 0 0 -1 0 450)"><stop offset="0" style="stop-color:#4f3e90"/><stop offset="1" style="stop-color:#171a31"/></linearGradient><path d="M148.5 401.5s-2.1 1 .3 3.7c2.4 2.6 52.9 30.4 52.9 30.4s4.2 2.2 7.2 0l46-27s1.2-1.8-1.3-3L200.8 375s-2.7-2.1-6.2 0c-3.6 2.1-46.1 26.5-46.1 26.5z" style="fill:url(#SVGID_4_)"/><linearGradient id="SVGID_5_" gradientUnits="userSpaceOnUse" x1="147.668" y1="27.145" x2="255.362" y2="27.145" gradientTransform="matrix(1 0 0 -1 0 450)"><stop offset="0" style="stop-color:#463780"/><stop offset=".143" style="stop-color:#382e68"/><stop offset=".331" style="stop-color:#292550"/><stop offset=".529" style="stop-color:#1f1f3f"/><stop offset=".743" style="stop-color:#191b34"/><stop offset="1" style="stop-color:#171a31"/></linearGradient><path d="M147.7 409v-6.3s-.1 1.7 1.9 2.9c1.9 1.3 14.7 8.8 14.7 8.8l19.1 10.8 18.2 10.1s4 2.2 7.3.3c3.2-1.9 46.2-27.1 46.2-27.1s.4-.5.3-1.5v6.8c0 .6-.3 1.1-.8 1.4l-45.1 26.3s-4.6 3.4-9.1-.8l-51.8-30.3c-.6-.2-.9-.7-.9-1.4z" style="fill:url(#SVGID_5_)"/><linearGradient id="SVGID_6_" gradientUnits="userSpaceOnUse" x1="147.632" y1="59.602" x2="255.18" y2="59.602" gradientTransform="matrix(1 0 0 -1 0 450)"><stop offset="0" style="stop-color:#4f3e90"/><stop offset="1" style="stop-color:#171a31"/></linearGradient><path d="M148.5 386.5s-2.1 1 .3 3.7c2.4 2.6 52.9 30.4 52.9 30.4s4.2 2.2 7.2 0l46-27s1.2-1.8-1.3-3L200.8 360s-2.7-2.1-6.2 0c-3.6 2.2-46.1 26.5-46.1 26.5z" style="fill:url(#SVGID_6_)"/><linearGradient id="SVGID_7_" gradientUnits="userSpaceOnUse" x1="147.668" y1="42.06" x2="255.362" y2="42.06" gradientTransform="matrix(1 0 0 -1 0 450)"><stop offset="0" style="stop-color:#463780"/><stop offset=".143" style="stop-color:#382e68"/><stop offset=".331" style="stop-color:#292550"/><stop offset=".529" style="stop-color:#1f1f3f"/><stop offset=".743" style="stop-color:#191b34"/><stop offset="1" style="stop-color:#171a31"/></linearGradient><path d="M147.7 394.1v-6.3s-.1 1.7 1.9 2.9c1.9 1.3 14.7 8.8 14.7 8.8l19.1 10.8 18.2 10.1s4 2.2 7.3.3 46.2-27.1 46.2-27.1.4-.5.3-1.5v6.8c0 .6-.3 1.1-.8 1.4l-45.1 26.3s-4.6 3.4-9.1-.8l-51.8-30.3c-.6-.2-.9-.8-.9-1.4z" style="fill:url(#SVGID_7_)"/><linearGradient id="SVGID_8_" gradientUnits="userSpaceOnUse" x1="195.836" y1="33.632" x2="209.775" y2="85.652" gradientTransform="matrix(1 0 0 -1 0 450)"><stop offset="0" style="stop-color:#4f3e90;stop-opacity:.6"/><stop offset="1" style="stop-color:#171abf;stop-opacity:.4"/></linearGradient><path d="M154.2 386.9s-1.9 1 .3 3.4 48.6 27.9 48.6 27.9 3.8 2 6.7 0l42.2-24.7s1.1-1.6-1.2-2.8l-48.5-28s-2.5-1.9-5.7 0c-3.3 1.8-42.4 24.2-42.4 24.2z" style="opacity:.25;fill:url(#SVGID_8_);enable-background:new"/><linearGradient id="SVGID_9_" gradientUnits="userSpaceOnUse" x1="147.632" y1="74.517" x2="255.18" y2="74.517" gradientTransform="matrix(1 0 0 -1 0 450)"><stop offset="0" style="stop-color:#4f3e90"/><stop offset="1" style="stop-color:#171a31"/></linearGradient><path d="M148.5 371.6s-2.1 1 .3 3.7c2.4 2.6 52.9 30.4 52.9 30.4s4.2 2.2 7.2 0l46-27s1.2-1.8-1.3-3l-52.8-30.6s-2.7-2.1-6.2 0c-3.6 2.2-46.1 26.5-46.1 26.5z" style="fill:url(#SVGID_9_)"/><linearGradient id="SVGID_10_" gradientUnits="userSpaceOnUse" x1="147.668" y1="56.976" x2="255.362" y2="56.976" gradientTransform="matrix(1 0 0 -1 0 450)"><stop offset="0" style="stop-color:#463780"/><stop offset=".143" style="stop-color:#382e68"/><stop offset=".331" style="stop-color:#292550"/><stop offset=".529" style="stop-color:#1f1f3f"/><stop offset=".743" style="stop-color:#191b34"/><stop offset="1" style="stop-color:#171a31"/></linearGradient><path d="M147.7 379.2v-6.3s-.1 1.7 1.9 2.9c1.9 1.3 14.7 8.8 14.7 8.8l19.1 10.8 18.2 10.1s4 2.2 7.3.3c3.2-1.9 46.2-27.1 46.2-27.1s.4-.5.3-1.5v6.8c0 .6-.3 1.1-.8 1.4l-45.1 26.3s-4.6 3.4-9.1-.8l-51.8-30.3c-.6-.2-.9-.8-.9-1.4z" style="fill:url(#SVGID_10_)"/><linearGradient id="SVGID_11_" gradientUnits="userSpaceOnUse" x1="171.693" y1="70.172" x2="242.168" y2="70.172" gradientTransform="matrix(1 0 0 -1 0 450)"><stop offset="0" style="stop-color:#463780"/><stop offset=".143" style="stop-color:#382e68"/><stop offset=".331" style="stop-color:#292550"/><stop offset=".529" style="stop-color:#1f1f3f"/><stop offset=".743" style="stop-color:#191b34"/><stop offset="1" style="stop-color:#171a31"/></linearGradient><path style="opacity:.6;fill:url(#SVGID_11_);enable-background:new" d="m171.7 371.8 36.2 21.8 34.3-18.3-3.4-.3-35.6-9z"/><linearGradient id="SVGID_12_" gradientUnits="userSpaceOnUse" x1="171.693" y1="76.671" x2="205.643" y2="76.671" gradientTransform="matrix(1 0 0 -1 0 450)"><stop offset="0" style="stop-color:#7f00ff"/><stop offset=".489" style="stop-color:#7d00ff"/><stop offset=".665" style="stop-color:#7600ff"/><stop offset=".79" style="stop-color:#6b00ff"/><stop offset=".892" style="stop-color:#5a00ff"/><stop offset=".978" style="stop-color:#40f"/><stop offset="1" style="stop-color:#3d00ff"/></linearGradient><path style="fill:url(#SVGID_12_)" d="m171.7 369.7 10.5-6.2 23.5 13.5-10.6 6.1z"/><linearGradient id="SVGID_13_" gradientUnits="userSpaceOnUse" x1="195.131" y1="66.55" x2="217.398" y2="66.55" gradientTransform="matrix(1 0 0 -1 0 450)"><stop offset="0" style="stop-color:#3f00fc"/><stop offset=".208" style="stop-color:#3f02f7"/><stop offset=".467" style="stop-color:#3e09e7"/><stop offset=".753" style="stop-color:#3e14ce"/><stop offset="1" style="stop-color:#3d20b2"/></linearGradient><path style="fill:url(#SVGID_13_)" d="m217.4 383.8-11.8-6.8-10.5 6.2 11.7 6.7z"/><linearGradient id="SVGID_14_" gradientUnits="userSpaceOnUse" x1="191.024" y1="85.527" x2="198.955" y2="55.926" gradientTransform="matrix(1 0 0 -1 0 450)"><stop offset="0" style="stop-color:#851cb7"/><stop offset="1" style="stop-color:#3d20b7"/></linearGradient><path style="fill:url(#SVGID_14_)" d="M171.7 369.7v1.8l35.1 20.5 10.6-6.2v-2l-10.5 6.1z"/><linearGradient id="SVGID_15_" gradientUnits="userSpaceOnUse" x1="187.065" y1="87.379" x2="202.566" y2="87.379" gradientTransform="matrix(1 0 0 -1 0 450)"><stop offset="0" style="stop-color:#3f00fc"/><stop offset=".208" style="stop-color:#3f02f7"/><stop offset=".467" style="stop-color:#3e09e7"/><stop offset=".753" style="stop-color:#3e14ce"/><stop offset="1" style="stop-color:#3d20b2"/></linearGradient><path style="fill:url(#SVGID_15_)" d="m187.1 364.1 1.5-4.2 13-7.7 1 20.8z"/><linearGradient id="SVGID_16_" gradientUnits="userSpaceOnUse" x1="205.039" y1="76.165" x2="236.735" y2="76.165" gradientTransform="matrix(1 0 0 -1 0 450)"><stop offset="0" style="stop-color:#7f00ff"/><stop offset=".222" style="stop-color:#7a00ff"/><stop offset=".5" style="stop-color:#6a00ff"/><stop offset=".806" style="stop-color:#5100ff"/><stop offset="1" style="stop-color:#3d00ff"/></linearGradient><path style="fill:url(#SVGID_16_)" d="m205 374.4.1-9.4 31.6 7.5-17.4 10.2z"/><path class="st43" d="m205 374.4 14.3 8.3 17.4-10.2v1.9l-17.4 10.5-14.3-8.2zM187.1 364.1v2.2l15.4 8.9.1-2.2z"/><linearGradient id="SVGID_17_" gradientUnits="userSpaceOnUse" x1="211.431" y1="64.616" x2="212.763" y2="59.645" gradientTransform="matrix(1 0 0 -1 0 450)"><stop offset="0" style="stop-color:#3f00fc"/><stop offset=".12" style="stop-color:#3d01f7"/><stop offset=".27" style="stop-color:#3804e7"/><stop offset=".436" style="stop-color:#2f08ce"/><stop offset=".614" style="stop-color:#230eaa"/><stop offset=".8" style="stop-color:#14167c"/><stop offset=".992" style="stop-color:#012045"/><stop offset="1" style="stop-color:#002043"/></linearGradient><path style="fill:url(#SVGID_17_)" d="m206.9 389.9-.1 2.1 10.6-6.2v-2z"/><linearGradient id="SVGID_18_" gradientUnits="userSpaceOnUse" x1="227.06" y1="74.892" x2="228.983" y2="67.717" gradientTransform="matrix(1 0 0 -1 0 450)"><stop offset="0" style="stop-color:#3f00fc"/><stop offset=".12" style="stop-color:#3d01f7"/><stop offset=".27" style="stop-color:#3804e7"/><stop offset=".436" style="stop-color:#2f08ce"/><stop offset=".614" style="stop-color:#230eaa"/><stop offset=".8" style="stop-color:#14167c"/><stop offset=".992" style="stop-color:#012045"/><stop offset="1" style="stop-color:#002043"/></linearGradient><path style="fill:url(#SVGID_18_)" d="M219.3 382.7v2.2l17.4-10.5v-1.9z"/><g style="opacity:.5"><image style="overflow:visible;opacity:.3" width="32" height="328" xlink:href="C0168991.png" transform="translate(275 -11)"/><path style="fill:none;stroke:#0053fb;stroke-miterlimit:10" d="M285.6-31v297.1"/></g></svg>