<svg version="1.1" id="Capa_1" xmlns="http://www.w3.org/2000/svg" xmlns:xlink="http://www.w3.org/1999/xlink" x="0" y="0" viewBox="-779.5 -791.5 2083 2083" style="enable-background:new -779.5 -791.5 2083 2083" xml:space="preserve"><style>.st2{enable-background:new}</style><switch><g><linearGradient id="SVGID_1_" gradientUnits="userSpaceOnUse" x1="-27.1" y1="821.337" x2="1172.68" y2="821.337"><stop offset="0" style="stop-color:#7f00ff"/><stop offset="1" style="stop-color:#3f00fc"/></linearGradient><path style="fill:none;stroke:url(#SVGID_1_);stroke-width:6;stroke-miterlimit:10" d="m816.1 718.7 350.6 204-280.6 164-468.7-271.4-84.7 48L86.1 718.7l85.3-50.7-197-112.9"/><g class="st2" id="XMLID_26_" style="opacity:.17"><defs><path id="SVGID_18_" class="st2" d="m-772.4 250.3 458.6-266.5 461.6 266.5-458.6 266.5z"/></defs><clipPath id="SVGID_2_"><use xlink:href="#SVGID_18_" style="overflow:visible"/></clipPath><g style="clip-path:url(#SVGID_2_)"><path d="M-83 117c-127.5-73.6-333.5-73.6-460.1 0-126.6 73.6-126 192.9 1.5 266.5s333.5 73.6 460.1 0C45.2 310 44.5 190.6-83 117" style="fill:#1d1b30"/></g></g><linearGradient id="XMLID_3_" gradientUnits="userSpaceOnUse" x1="178.629" y1="-16227.315" x2="283.687" y2="-16227.315" gradientTransform="matrix(1 0 0 -1 0 -15884)"><stop offset="0" style="stop-color:#7f00ff"/><stop offset="1" style="stop-color:#3f00fc"/></linearGradient><path id="XMLID_154_" style="fill:none;stroke:url(#XMLID_3_);stroke-width:6;stroke-miterlimit:10" d="m282.2 373.6-102-60.6"/><linearGradient id="XMLID_4_" gradientUnits="userSpaceOnUse" x1="29.085" y1="-16318.936" x2="275.237" y2="-16318.936" gradientTransform="matrix(1 0 0 -1 0 -15884)"><stop offset="0" style="stop-color:#7f00ff"/><stop offset="1" style="stop-color:#3f00fc"/></linearGradient><path id="XMLID_74_" style="fill:none;stroke:url(#XMLID_4_);stroke-width:6;stroke-miterlimit:10" d="m273.6 466.4-96-62-108 54-39-23"/><linearGradient id="XMLID_5_" gradientUnits="userSpaceOnUse" x1="-441.191" y1="-16651.986" x2="649.216" y2="-16651.986" gradientTransform="matrix(1 0 0 -1 0 -15884)"><stop offset="0" style="stop-color:#7f00ff"/><stop offset="1" style="stop-color:#3f00fc"/></linearGradient><path id="XMLID_12_" style="fill:none;stroke:url(#XMLID_5_);stroke-width:6;stroke-miterlimit:10" d="M647.6 598.2 96.7 936.9l-536.4-310.3"/><path id="XMLID_121_" style="opacity:.3;fill:#1d1b30" d="m713.4 311.1 476.2 296.3-473 296.4-476.2-296.3z"/><g id="XMLID_172_"><linearGradient id="XMLID_7_" gradientUnits="userSpaceOnUse" x1="605.816" y1="-16363.395" x2="824.262" y2="-15548.143" gradientTransform="matrix(1 0 0 -1 0 -15884)"><stop offset="0" style="stop-color:#4f3e90"/><stop offset="1" style="stop-color:#171a31"/></linearGradient><path id="XMLID_182_" style="fill:url(#XMLID_7_)" d="m483.9-231.4 230.4-133.9 231.9 133.8V375L715.8 508.9 483.9 375.1z"/><linearGradient id="XMLID_8_" gradientUnits="userSpaceOnUse" x1="681.633" y1="-15777.176" x2="748.445" y2="-15527.828" gradientTransform="matrix(1 0 0 -1 0 -15884)"><stop offset="0" style="stop-color:#4f3e90"/><stop offset="1" style="stop-color:#171a31"/></linearGradient><path id="XMLID_181_" style="fill:url(#XMLID_8_)" d="m714.3-365.3 231.9 133.8L715.8-97.7 483.9-231.4z"/><g id="XMLID_173_"><linearGradient id="XMLID_9_" gradientUnits="userSpaceOnUse" x1="697.693" y1="-15706.18" x2="732.309" y2="-15576.988" gradientTransform="matrix(1 0 0 -1 0 -15884)"><stop offset="0" style="stop-color:#4f3e90"/><stop offset="1" style="stop-color:#171a31"/></linearGradient><path id="XMLID_178_" style="fill:url(#XMLID_9_)" d="m714.6-311.8 120.1 69.4-119.3 69.3-120.2-69.3z"/><linearGradient id="XMLID_10_" gradientUnits="userSpaceOnUse" x1="696.436" y1="-15717.389" x2="724.681" y2="-15611.978" gradientTransform="matrix(1 0 0 -1 0 -15884)"><stop offset="0" style="stop-color:#463780"/><stop offset=".143" style="stop-color:#382e68"/><stop offset=".331" style="stop-color:#292550"/><stop offset=".529" style="stop-color:#1f1f3f"/><stop offset=".743" style="stop-color:#191b34"/><stop offset="1" style="stop-color:#171a31"/></linearGradient><path id="XMLID_175_" d="m711.1-175.3-115.7-67.2v11L711.1-163c2.5 1.5 5.5 1.5 8 0l115.7-67.2v-12.4l-115.7 67.2c-2.5 1.5-5.5 1.5-8 .1z" style="fill:url(#XMLID_10_)"/><linearGradient id="XMLID_11_" gradientUnits="userSpaceOnUse" x1="594.747" y1="-15675.715" x2="835.25" y2="-15675.715" gradientTransform="matrix(1 0 0 -1 0 -15884)"><stop offset="0" style="stop-color:#00ace9"/><stop offset="1" style="stop-color:#007541"/></linearGradient><path id="XMLID_174_" d="m595.2-242.4 116.3 67.1c2.4 1.4 5.4 1.4 7.8 0l115.4-67.1" style="opacity:.2;fill:none;stroke:url(#XMLID_11_);stroke-width:2;stroke-miterlimit:10"/></g></g><g id="XMLID_413_"><linearGradient id="XMLID_13_" gradientUnits="userSpaceOnUse" x1="380.136" y1="-16521.006" x2="521.424" y2="-15993.711" gradientTransform="matrix(1 0 0 -1 0 -15884)"><stop offset="0" style="stop-color:#4f3e90"/><stop offset="1" style="stop-color:#171a31"/></linearGradient><path id="XMLID_185_" style="fill:url(#XMLID_13_)" d="M220.1 522.6V224.2L450 90.6l231.4 133.5v298.5L451.6 656.1z"/><g id="XMLID_315_"><linearGradient id="XMLID_14_" gradientUnits="userSpaceOnUse" x1="416.584" y1="-16185.992" x2="483.384" y2="-15936.692" gradientTransform="matrix(1 0 0 -1 0 -15884)"><stop offset="0" style="stop-color:#4f3e90"/><stop offset="1" style="stop-color:#171a31"/></linearGradient><path id="XMLID_382_" style="fill:url(#XMLID_14_)" d="m449.2 43.5 231.9 133.8-230.3 133.9-231.9-133.8z"/><linearGradient id="XMLID_15_" gradientUnits="userSpaceOnUse" x1="320.238" y1="-16205.363" x2="349.431" y2="-16096.414" gradientTransform="matrix(1 0 0 -1 0 -15884)"><stop offset="0" style="stop-color:#7f00ff"/><stop offset="1" style="stop-color:#3f00fc"/></linearGradient><path id="XMLID_381_" style="fill:url(#XMLID_15_)" d="m218.9 177.4-.2 45.1 232.1 133.8v-45.1z"/><linearGradient id="XMLID_16_" gradientUnits="userSpaceOnUse" x1="565.964" y1="-16240.357" x2="565.964" y2="-16061.421" gradientTransform="matrix(1 0 0 -1 0 -15884)"><stop offset="0" style="stop-color:#463780"/><stop offset=".143" style="stop-color:#382e68"/><stop offset=".331" style="stop-color:#292550"/><stop offset=".529" style="stop-color:#1f1f3f"/><stop offset=".743" style="stop-color:#191b34"/><stop offset="1" style="stop-color:#171a31"/></linearGradient><path id="XMLID_318_" style="fill:url(#XMLID_16_)" d="M450.8 356.4v-45.2l230.4-133.8-.2 45.2z"/></g><g id="XMLID_265_"><linearGradient id="XMLID_17_" gradientUnits="userSpaceOnUse" x1="416.584" y1="-16098.983" x2="483.384" y2="-15849.684" gradientTransform="matrix(1 0 0 -1 0 -15884)"><stop offset="0" style="stop-color:#4f3e90"/><stop offset="1" style="stop-color:#171a31"/></linearGradient><path id="XMLID_312_" style="fill:url(#XMLID_17_)" d="M449.2-43.5 681.1 90.3 450.8 224.1 218.9 90.4z"/><linearGradient id="XMLID_18_" gradientUnits="userSpaceOnUse" x1="320.238" y1="-16118.355" x2="349.431" y2="-16009.405" gradientTransform="matrix(1 0 0 -1 0 -15884)"><stop offset="0" style="stop-color:#7f00ff"/><stop offset="1" style="stop-color:#3f00fc"/></linearGradient><path id="XMLID_307_" style="fill:url(#XMLID_18_)" d="m218.9 90.4-.2 45.1 232.1 133.8v-45.1z"/><linearGradient id="XMLID_19_" gradientUnits="userSpaceOnUse" x1="565.964" y1="-16153.349" x2="565.964" y2="-15974.412" gradientTransform="matrix(1 0 0 -1 0 -15884)"><stop offset="0" style="stop-color:#463780"/><stop offset=".143" style="stop-color:#382e68"/><stop offset=".331" style="stop-color:#292550"/><stop offset=".529" style="stop-color:#1f1f3f"/><stop offset=".743" style="stop-color:#191b34"/><stop offset="1" style="stop-color:#171a31"/></linearGradient><path id="XMLID_291_" style="fill:url(#XMLID_19_)" d="M450.8 269.3v-45.1L681.2 90.4l-.2 45.1z"/></g><g id="XMLID_189_"><linearGradient id="XMLID_20_" gradientUnits="userSpaceOnUse" x1="416.584" y1="-16011.975" x2="483.384" y2="-15762.676" gradientTransform="matrix(1 0 0 -1 0 -15884)"><stop offset="0" style="stop-color:#4f3e90"/><stop offset="1" style="stop-color:#171a31"/></linearGradient><path id="XMLID_246_" style="fill:url(#XMLID_20_)" d="M449.2-130.5 681.1 3.3 450.8 137.1 218.9 3.4z"/><linearGradient id="XMLID_21_" gradientUnits="userSpaceOnUse" x1="320.238" y1="-16031.347" x2="349.431" y2="-15922.397" gradientTransform="matrix(1 0 0 -1 0 -15884)"><stop offset="0" style="stop-color:#7f00ff"/><stop offset="1" style="stop-color:#3f00fc"/></linearGradient><path id="XMLID_245_" style="fill:url(#XMLID_21_)" d="m218.9 3.4-.2 45.1 232.1 133.8v-45.1z"/><linearGradient id="XMLID_22_" gradientUnits="userSpaceOnUse" x1="565.964" y1="-16066.34" x2="565.964" y2="-15887.403" gradientTransform="matrix(1 0 0 -1 0 -15884)"><stop offset="0" style="stop-color:#463780"/><stop offset=".143" style="stop-color:#382e68"/><stop offset=".331" style="stop-color:#292550"/><stop offset=".529" style="stop-color:#1f1f3f"/><stop offset=".743" style="stop-color:#191b34"/><stop offset="1" style="stop-color:#171a31"/></linearGradient><path id="XMLID_229_" style="fill:url(#XMLID_22_)" d="M450.8 182.3v-45.1L681.2 3.4l-.2 45.1z"/></g><g id="XMLID_160_"><linearGradient id="XMLID_23_" gradientUnits="userSpaceOnUse" x1="416.584" y1="-15924.966" x2="483.384" y2="-15675.667" gradientTransform="matrix(1 0 0 -1 0 -15884)"><stop offset="0" style="stop-color:#4f3e90"/><stop offset="1" style="stop-color:#171a31"/></linearGradient><path id="XMLID_163_" style="fill:url(#XMLID_23_)" d="M449.2-217.5 681.1-83.7 450.8 50.1 218.9-83.6z"/><linearGradient id="XMLID_24_" gradientUnits="userSpaceOnUse" x1="320.238" y1="-15944.338" x2="349.431" y2="-15835.389" gradientTransform="matrix(1 0 0 -1 0 -15884)"><stop offset="0" style="stop-color:#7f00ff"/><stop offset="1" style="stop-color:#3f00fc"/></linearGradient><path id="XMLID_162_" style="fill:url(#XMLID_24_)" d="m218.9-83.6-.2 45.1L450.8 95.3V50.2z"/><linearGradient id="XMLID_25_" gradientUnits="userSpaceOnUse" x1="565.964" y1="-15979.331" x2="565.964" y2="-15800.395" gradientTransform="matrix(1 0 0 -1 0 -15884)"><stop offset="0" style="stop-color:#463780"/><stop offset=".143" style="stop-color:#382e68"/><stop offset=".331" style="stop-color:#292550"/><stop offset=".529" style="stop-color:#1f1f3f"/><stop offset=".743" style="stop-color:#191b34"/><stop offset="1" style="stop-color:#171a31"/></linearGradient><path id="XMLID_161_" style="fill:url(#XMLID_25_)" d="M450.8 95.3V50.2L681.2-83.6l-.2 45.1z"/></g><linearGradient id="XMLID_29_" gradientUnits="userSpaceOnUse" x1="417.374" y1="-15924.45" x2="484.186" y2="-15675.103" gradientTransform="matrix(1 0 0 -1 0 -15884)"><stop offset="0" style="stop-color:#4f3e90"/><stop offset="1" style="stop-color:#171a31"/></linearGradient><path id="XMLID_212_" style="fill:url(#XMLID_29_)" d="M450-218.1 681.9-84.2 451.6 49.6l-232-133.8z"/><g id="XMLID_190_"><linearGradient id="XMLID_31_" gradientUnits="userSpaceOnUse" x1="433.434" y1="-15853.454" x2="468.05" y2="-15724.263" gradientTransform="matrix(1 0 0 -1 0 -15884)"><stop offset="0" style="stop-color:#4f3e90"/><stop offset="1" style="stop-color:#171a31"/></linearGradient><path id="XMLID_210_" style="fill:url(#XMLID_31_)" d="m450.3-164.5 120.2 69.4-119.3 69.3L331-95.1z"/><linearGradient id="XMLID_32_" gradientUnits="userSpaceOnUse" x1="432.177" y1="-15864.663" x2="460.421" y2="-15759.253" gradientTransform="matrix(1 0 0 -1 0 -15884)"><stop offset="0" style="stop-color:#463780"/><stop offset=".143" style="stop-color:#382e68"/><stop offset=".331" style="stop-color:#292550"/><stop offset=".529" style="stop-color:#1f1f3f"/><stop offset=".743" style="stop-color:#191b34"/><stop offset="1" style="stop-color:#171a31"/></linearGradient><path id="XMLID_208_" d="M446.9-28.1 331.1-95.2v11l115.7 68.5c2.5 1.5 5.5 1.5 8 0l115.7-67.2v-12.4L454.8-28.1c-2.4 1.5-5.5 1.5-7.9 0z" style="fill:url(#XMLID_32_)"/><linearGradient id="XMLID_33_" gradientUnits="userSpaceOnUse" x1="330.488" y1="-15822.989" x2="570.991" y2="-15822.989" gradientTransform="matrix(1 0 0 -1 0 -15884)"><stop offset="0" style="stop-color:#00ace9"/><stop offset="1" style="stop-color:#007541"/></linearGradient><path id="XMLID_191_" d="M331-95.1 447.3-28c2.4 1.4 5.4 1.4 7.8 0l115.4-67.1" style="opacity:.2;fill:none;stroke:url(#XMLID_33_);stroke-width:2;stroke-miterlimit:10"/></g></g><linearGradient id="XMLID_34_" gradientUnits="userSpaceOnUse" x1="860.983" y1="-16512.137" x2="1079.429" y2="-15696.884" gradientTransform="matrix(1 0 0 -1 0 -15884)"><stop offset="0" style="stop-color:#4f3e90"/><stop offset="1" style="stop-color:#171a31"/></linearGradient><path id="XMLID_171_" style="fill:url(#XMLID_34_)" d="m739.1-82.7 230.3-133.9 231.9 133.8v606.6L971 657.6 739.1 523.8z"/><linearGradient id="XMLID_35_" gradientUnits="userSpaceOnUse" x1="936.8" y1="-15925.917" x2="1003.613" y2="-15676.569" gradientTransform="matrix(1 0 0 -1 0 -15884)"><stop offset="0" style="stop-color:#4f3e90"/><stop offset="1" style="stop-color:#171a31"/></linearGradient><path id="XMLID_170_" style="fill:url(#XMLID_35_)" d="m969.4-216.6 231.9 133.8L971 51.1 739.1-82.7z"/><linearGradient id="XMLID_36_" gradientUnits="userSpaceOnUse" x1="605.816" y1="-16660.877" x2="824.262" y2="-15845.626" gradientTransform="matrix(1 0 0 -1 0 -15884)"><stop offset="0" style="stop-color:#4f3e90"/><stop offset="1" style="stop-color:#171a31"/></linearGradient><path id="XMLID_52_" style="fill:url(#XMLID_36_)" d="M483.9 66 714.3-67.8 946.2 66v606.5L715.8 806.4 483.9 672.6z"/><linearGradient id="XMLID_37_" gradientUnits="userSpaceOnUse" x1="1026.519" y1="-15681.807" x2="1031.629" y2="-15681.807" gradientTransform="matrix(1 0 0 -1 0 -15884)"><stop offset="0" style="stop-color:#fff;stop-opacity:.6"/><stop offset="1" style="stop-color:#fff"/></linearGradient><circle id="XMLID_214_" cx="1029.1" cy="-202.2" r="2.6" style="opacity:.4;fill:url(#XMLID_37_)"/><linearGradient id="XMLID_38_" gradientUnits="userSpaceOnUse" x1="1006.134" y1="-15644.323" x2="1011.609" y2="-15644.323" gradientTransform="matrix(1 0 0 -1 0 -15884)"><stop offset="0" style="stop-color:#fff;stop-opacity:.6"/><stop offset="1" style="stop-color:#fff"/></linearGradient><circle id="XMLID_358_" cx="1008.9" cy="-239.7" r="2.7" style="opacity:.55;fill:url(#XMLID_38_)"/><linearGradient id="XMLID_41_" gradientUnits="userSpaceOnUse" x1="681.633" y1="-16074.658" x2="748.445" y2="-15825.31" gradientTransform="matrix(1 0 0 -1 0 -15884)"><stop offset="0" style="stop-color:#4f3e90"/><stop offset="1" style="stop-color:#171a31"/></linearGradient><path id="XMLID_92_" style="fill:url(#XMLID_41_)" d="M714.3-67.8 946.2 66 715.8 199.8 483.9 66z"/><g id="XMLID_111_"><linearGradient id="XMLID_42_" gradientUnits="userSpaceOnUse" x1="953.658" y1="-15844.429" x2="986.786" y2="-15720.794" gradientTransform="matrix(1 0 0 -1 0 -15884)"><stop offset="0" style="stop-color:#4f3e90"/><stop offset="1" style="stop-color:#171a31"/></linearGradient><path id="XMLID_115_" style="fill:url(#XMLID_42_)" d="m969.8-167.7 115 66.3L970.6-35l-115-66.4z"/><linearGradient id="XMLID_43_" gradientUnits="userSpaceOnUse" x1="905.878" y1="-15854.035" x2="920.355" y2="-15800.004" gradientTransform="matrix(1 0 0 -1 0 -15884)"><stop offset="0" style="stop-color:#7f00ff"/><stop offset="1" style="stop-color:#3f00fc"/></linearGradient><path id="XMLID_113_" style="fill:url(#XMLID_43_)" d="m855.6-101.3-.1 22.3 115.1 66.4V-35z"/><linearGradient id="XMLID_44_" gradientUnits="userSpaceOnUse" x1="1027.739" y1="-15871.39" x2="1027.739" y2="-15782.65" gradientTransform="matrix(1 0 0 -1 0 -15884)"><stop offset="0" style="stop-color:#463780"/><stop offset=".143" style="stop-color:#382e68"/><stop offset=".331" style="stop-color:#292550"/><stop offset=".529" style="stop-color:#1f1f3f"/><stop offset=".743" style="stop-color:#191b34"/><stop offset="1" style="stop-color:#171a31"/></linearGradient><path id="XMLID_112_" style="fill:url(#XMLID_44_)" d="M970.6-12.6V-35l114.3-66.3-.1 22.3z"/></g><linearGradient id="XMLID_45_" gradientUnits="userSpaceOnUse" x1="960.712" y1="-15817.843" x2="980.52" y2="-15743.919" gradientTransform="matrix(1 0 0 -1 0 -15884)"><stop offset="0" style="stop-color:#7f00ff;stop-opacity:.2"/><stop offset="1" style="stop-color:#3f00fc"/></linearGradient><path id="XMLID_110_" style="fill:url(#XMLID_45_)" d="m970.4-142.8 68.7 39.7-68.2 39.7-68.8-39.7z"/><g id="XMLID_97_"><defs><path id="XMLID_98_" d="m970.4-142.8 68.7 39.7-68.2 39.7-68.8-39.7z"/></defs><clipPath id="XMLID_46_"><use xlink:href="#XMLID_98_" style="overflow:visible"/></clipPath><linearGradient id="XMLID_47_" gradientUnits="userSpaceOnUse" x1="960.678" y1="-15756.277" x2="980.548" y2="-15830.433" gradientTransform="matrix(1 0 0 -1 0 -15884)"><stop offset="0" style="stop-color:#7f00ff;stop-opacity:.7"/><stop offset="1" style="stop-color:#3f00fc;stop-opacity:.6"/></linearGradient><path id="XMLID_109_" style="clip-path:url(#XMLID_46_);fill:url(#XMLID_47_)" d="m970.4-130.3 68.7 39.6L970.9-51l-68.8-39.6z"/><linearGradient id="XMLID_51_" gradientUnits="userSpaceOnUse" x1="960.678" y1="-15768.518" x2="980.548" y2="-15842.672" gradientTransform="matrix(1 0 0 -1 0 -15884)"><stop offset="0" style="stop-color:#7f00ff;stop-opacity:.7"/><stop offset="1" style="stop-color:#3f00fc;stop-opacity:.6"/></linearGradient><path id="XMLID_108_" style="clip-path:url(#XMLID_46_);fill:url(#XMLID_51_)" d="m970.4-118.1 68.7 39.7-68.2 39.7-68.8-39.7z"/><linearGradient id="XMLID_53_" gradientUnits="userSpaceOnUse" x1="960.678" y1="-15780.758" x2="980.548" y2="-15854.912" gradientTransform="matrix(1 0 0 -1 0 -15884)"><stop offset="0" style="stop-color:#7f00ff;stop-opacity:.7"/><stop offset="1" style="stop-color:#3f00fc;stop-opacity:.6"/></linearGradient><path id="XMLID_107_" style="clip-path:url(#XMLID_46_);fill:url(#XMLID_53_)" d="m970.4-105.8 68.7 39.6-68.2 39.7-68.8-39.6z"/><linearGradient id="XMLID_54_" gradientUnits="userSpaceOnUse" x1="960.678" y1="-15792.998" x2="980.548" y2="-15867.152" gradientTransform="matrix(1 0 0 -1 0 -15884)"><stop offset="0" style="stop-color:#7f00ff;stop-opacity:.7"/><stop offset="1" style="stop-color:#3f00fc;stop-opacity:.6"/></linearGradient><path id="XMLID_105_" style="clip-path:url(#XMLID_46_);fill:url(#XMLID_54_)" d="m970.4-93.6 68.7 39.7-68.2 39.7-68.8-39.7z"/><linearGradient id="XMLID_55_" gradientUnits="userSpaceOnUse" x1="960.678" y1="-15805.238" x2="980.548" y2="-15879.393" gradientTransform="matrix(1 0 0 -1 0 -15884)"><stop offset="0" style="stop-color:#7f00ff;stop-opacity:.7"/><stop offset="1" style="stop-color:#3f00fc;stop-opacity:.6"/></linearGradient><path id="XMLID_104_" style="clip-path:url(#XMLID_46_);fill:url(#XMLID_55_)" d="m970.4-81.4 68.7 39.7L970.9-2l-68.8-39.7z"/><linearGradient id="XMLID_56_" gradientUnits="userSpaceOnUse" x1="960.678" y1="-15817.478" x2="980.548" y2="-15891.633" gradientTransform="matrix(1 0 0 -1 0 -15884)"><stop offset="0" style="stop-color:#7f00ff;stop-opacity:.7"/><stop offset="1" style="stop-color:#3f00fc;stop-opacity:.6"/></linearGradient><path id="XMLID_103_" style="clip-path:url(#XMLID_46_);fill:url(#XMLID_56_)" d="m970.4-69.1 68.7 39.7-68.2 39.6-68.8-39.6z"/><linearGradient id="XMLID_57_" gradientUnits="userSpaceOnUse" x1="960.678" y1="-15829.718" x2="980.548" y2="-15903.873" gradientTransform="matrix(1 0 0 -1 0 -15884)"><stop offset="0" style="stop-color:#7f00ff;stop-opacity:.7"/><stop offset="1" style="stop-color:#3f00fc;stop-opacity:.6"/></linearGradient><path id="XMLID_101_" style="clip-path:url(#XMLID_46_);fill:url(#XMLID_57_)" d="m970.4-56.9 68.7 39.7-68.2 39.7-68.8-39.7z"/><linearGradient id="XMLID_58_" gradientUnits="userSpaceOnUse" x1="960.678" y1="-15841.958" x2="980.548" y2="-15916.112" gradientTransform="matrix(1 0 0 -1 0 -15884)"><stop offset="0" style="stop-color:#7f00ff;stop-opacity:.7"/><stop offset="1" style="stop-color:#3f00fc;stop-opacity:.6"/></linearGradient><path id="XMLID_100_" style="clip-path:url(#XMLID_46_);fill:url(#XMLID_58_)" d="M970.4-44.6 1039.1-5l-68.2 39.7-68.8-39.6z"/></g><linearGradient id="XMLID_59_" gradientUnits="userSpaceOnUse" x1="973.798" y1="-15738.184" x2="977.338" y2="-15738.184" gradientTransform="matrix(1 0 0 -1 0 -15884)"><stop offset="0" style="stop-color:#fff;stop-opacity:.6"/><stop offset="1" style="stop-color:#fff"/></linearGradient><circle id="XMLID_93_" cx="975.6" cy="-145.8" r="1.8" style="opacity:.55;fill:url(#XMLID_59_)"/><linearGradient id="XMLID_60_" gradientUnits="userSpaceOnUse" x1="524.305" y1="-16038.195" x2="675.43" y2="-16602.205" gradientTransform="matrix(1 0 0 -1 0 -15884)"><stop offset="0" style="stop-color:#7f00ff"/><stop offset="1" style="stop-color:#3f00fc"/></linearGradient><path id="XMLID_252_" style="fill:url(#XMLID_60_)" d="m512.5 157.4 174.7 100.7V715L512.5 614.3z"/><linearGradient id="XMLID_61_" gradientUnits="userSpaceOnUse" x1="664.302" y1="-15917.344" x2="946.157" y2="-15917.344" gradientTransform="matrix(1 0 0 -1 0 -15884)"><stop offset="0" style="stop-color:#463780"/><stop offset=".143" style="stop-color:#382e68"/><stop offset=".331" style="stop-color:#292550"/><stop offset=".529" style="stop-color:#1f1f3f"/><stop offset=".743" style="stop-color:#191b34"/><stop offset="1" style="stop-color:#171a31"/></linearGradient><path id="XMLID_693_" style="opacity:5.000000e-002;fill:url(#XMLID_61_)" d="m719.1 134.5 128.6-11.3L946.2 66 714.3-67.8l-50 82.8z"/><g id="XMLID_40_"><linearGradient id="XMLID_62_" gradientUnits="userSpaceOnUse" x1="697.693" y1="-16003.663" x2="732.309" y2="-15874.472" gradientTransform="matrix(1 0 0 -1 0 -15884)"><stop offset="0" style="stop-color:#4f3e90"/><stop offset="1" style="stop-color:#171a31"/></linearGradient><path id="XMLID_50_" style="fill:url(#XMLID_62_)" d="m714.6-14.3 120.1 69.4-119.3 69.3-120.2-69.3z"/><linearGradient id="XMLID_63_" gradientUnits="userSpaceOnUse" x1="696.436" y1="-16014.872" x2="724.681" y2="-15909.461" gradientTransform="matrix(1 0 0 -1 0 -15884)"><stop offset="0" style="stop-color:#463780"/><stop offset=".143" style="stop-color:#382e68"/><stop offset=".331" style="stop-color:#292550"/><stop offset=".529" style="stop-color:#1f1f3f"/><stop offset=".743" style="stop-color:#191b34"/><stop offset="1" style="stop-color:#171a31"/></linearGradient><path id="XMLID_49_" d="M711.1 122.2 595.4 55v11l115.7 68.5c2.5 1.5 5.5 1.5 8 0l115.7-67.2V55l-115.7 67.2c-2.5 1.4-5.5 1.4-8 0z" style="fill:url(#XMLID_63_)"/><linearGradient id="XMLID_64_" gradientUnits="userSpaceOnUse" x1="594.747" y1="-15973.197" x2="835.25" y2="-15973.197" gradientTransform="matrix(1 0 0 -1 0 -15884)"><stop offset="0" style="stop-color:#00ace9"/><stop offset="1" style="stop-color:#007541"/></linearGradient><path id="XMLID_48_" d="m595.2 55.1 116.3 67.1c2.4 1.4 5.4 1.4 7.8 0l115.4-67.1" style="opacity:.2;fill:none;stroke:url(#XMLID_64_);stroke-width:2;stroke-miterlimit:10"/></g><linearGradient id="XMLID_65_" gradientUnits="userSpaceOnUse" x1="901.232" y1="-15800.703" x2="1005.685" y2="-15410.88" gradientTransform="matrix(1 0 0 -1 0 -15884)"><stop offset="0" style="stop-color:#fff;stop-opacity:0"/><stop offset="1" style="stop-color:#fff;stop-opacity:.12"/></linearGradient><path id="XMLID_39_" style="fill:url(#XMLID_65_)" d="m901.7-104.4-42.5-314 110.6-64.3 111.4 64.2-42.5 314.1-68.3 39.6z"/><linearGradient id="SVGID_3_" gradientUnits="userSpaceOnUse" x1="764.695" y1="210.845" x2="904.799" y2="210.845"><stop offset="0" style="stop-color:#4f3e90"/><stop offset="1" style="stop-color:#171a31"/></linearGradient><path style="fill:url(#SVGID_3_)" d="M764.7 247.9v6.8l140.1-80.8V167z"/><linearGradient id="SVGID_4_" gradientUnits="userSpaceOnUse" x1="764.695" y1="225.104" x2="904.799" y2="225.104"><stop offset="0" style="stop-color:#4f3e90"/><stop offset="1" style="stop-color:#171a31"/></linearGradient><path style="fill:url(#SVGID_4_)" d="M764.7 262.2v6.7l140.1-80.7v-6.9z"/><linearGradient id="SVGID_5_" gradientUnits="userSpaceOnUse" x1="764.695" y1="239.364" x2="904.799" y2="239.364"><stop offset="0" style="stop-color:#4f3e90"/><stop offset="1" style="stop-color:#171a31"/></linearGradient><path style="fill:url(#SVGID_5_)" d="M764.7 276.4v6.8l140.1-80.8v-6.9z"/><linearGradient id="SVGID_6_" gradientUnits="userSpaceOnUse" x1="764.695" y1="253.624" x2="904.799" y2="253.624"><stop offset="0" style="stop-color:#4f3e90"/><stop offset="1" style="stop-color:#171a31"/></linearGradient><path style="fill:url(#SVGID_6_)" d="M764.7 290.7v6.7l140.1-80.7v-6.9z"/><linearGradient id="SVGID_7_" gradientUnits="userSpaceOnUse" x1="764.695" y1="267.884" x2="904.799" y2="267.884"><stop offset="0" style="stop-color:#4f3e90"/><stop offset="1" style="stop-color:#171a31"/></linearGradient><path style="fill:url(#SVGID_7_)" d="M764.7 305v6.7l140.1-80.8v-6.8z"/><linearGradient id="SVGID_8_" gradientUnits="userSpaceOnUse" x1="764.695" y1="282.144" x2="904.799" y2="282.144"><stop offset="0" style="stop-color:#4f3e90"/><stop offset="1" style="stop-color:#171a31"/></linearGradient><path style="fill:url(#SVGID_8_)" d="M764.7 319.2v6.8l140.1-80.8v-6.9z"/><linearGradient id="SVGID_9_" gradientUnits="userSpaceOnUse" x1="764.695" y1="296.403" x2="904.799" y2="296.403"><stop offset="0" style="stop-color:#4f3e90"/><stop offset="1" style="stop-color:#171a31"/></linearGradient><path style="fill:url(#SVGID_9_)" d="M764.7 333.5v6.7l140.1-80.7v-6.9z"/><linearGradient id="SVGID_10_" gradientUnits="userSpaceOnUse" x1="764.695" y1="310.663" x2="904.799" y2="310.663"><stop offset="0" style="stop-color:#4f3e90"/><stop offset="1" style="stop-color:#171a31"/></linearGradient><path style="fill:url(#SVGID_10_)" d="M764.7 347.7v6.8l140.1-80.8v-6.9z"/><linearGradient id="SVGID_11_" gradientUnits="userSpaceOnUse" x1="764.695" y1="557.508" x2="904.799" y2="557.508"><stop offset="0" style="stop-color:#4f3e90"/><stop offset="1" style="stop-color:#171a31"/></linearGradient><path style="fill:url(#SVGID_11_)" d="M764.7 594.6v6.7l140.1-80.7v-6.9z"/><linearGradient id="SVGID_12_" gradientUnits="userSpaceOnUse" x1="764.695" y1="571.768" x2="904.799" y2="571.768"><stop offset="0" style="stop-color:#4f3e90"/><stop offset="1" style="stop-color:#171a31"/></linearGradient><path style="fill:url(#SVGID_12_)" d="M764.7 608.8v6.8l140.1-80.8v-6.9z"/><linearGradient id="SVGID_13_" gradientUnits="userSpaceOnUse" x1="764.695" y1="586.028" x2="904.799" y2="586.028"><stop offset="0" style="stop-color:#4f3e90"/><stop offset="1" style="stop-color:#171a31"/></linearGradient><path style="fill:url(#SVGID_13_)" d="M764.7 623.1v6.8l140.1-80.8v-6.9z"/><linearGradient id="SVGID_14_" gradientUnits="userSpaceOnUse" x1="764.695" y1="600.287" x2="904.799" y2="600.287"><stop offset="0" style="stop-color:#4f3e90"/><stop offset="1" style="stop-color:#171a31"/></linearGradient><path style="fill:url(#SVGID_14_)" d="M764.7 637.4v6.7l140.1-80.8v-6.8z"/><linearGradient id="SVGID_15_" gradientUnits="userSpaceOnUse" x1="764.695" y1="614.547" x2="904.799" y2="614.547"><stop offset="0" style="stop-color:#4f3e90"/><stop offset="1" style="stop-color:#171a31"/></linearGradient><path style="fill:url(#SVGID_15_)" d="M764.7 651.6v6.8l140.1-80.8v-6.9z"/><linearGradient id="SVGID_16_" gradientUnits="userSpaceOnUse" x1="764.695" y1="628.807" x2="904.799" y2="628.807"><stop offset="0" style="stop-color:#4f3e90"/><stop offset="1" style="stop-color:#171a31"/></linearGradient><path style="fill:url(#SVGID_16_)" d="M764.7 665.9v6.7l140.1-80.7V585z"/><linearGradient id="SVGID_17_" gradientUnits="userSpaceOnUse" x1="764.695" y1="643.067" x2="904.799" y2="643.067"><stop offset="0" style="stop-color:#4f3e90"/><stop offset="1" style="stop-color:#171a31"/></linearGradient><path style="fill:url(#SVGID_17_)" d="M764.7 680.1v6.8l140.1-80.8v-6.9z"/><linearGradient id="SVGID_19_" gradientUnits="userSpaceOnUse" x1="764.695" y1="657.327" x2="904.799" y2="657.327"><stop offset="0" style="stop-color:#4f3e90"/><stop offset="1" style="stop-color:#171a31"/></linearGradient><path style="fill:url(#SVGID_19_)" d="M764.7 694.4v6.7l140.1-80.7v-6.9z"/><linearGradient id="SVGID_20_" gradientUnits="userSpaceOnUse" x1="-663.022" y1="89.289" x2="38.453" y2="89.289"><stop offset="0" style="stop-color:#4f3e90"/><stop offset="1" style="stop-color:#171a31"/></linearGradient><path d="M-663 84s-.1 189 323.8 205.5S37.3 114.7 37.3 114.7s35-188.1-288-223.3c0 0-186.7-25.3-326.7 65.3.1 0-74.7 36.6-85.6 127.3z" style="fill:url(#SVGID_20_)"/><linearGradient id="XMLID_66_" gradientUnits="userSpaceOnUse" x1="4514.466" y1="2645.191" x2="5084.017" y2="2645.191" gradientTransform="matrix(-1 0 0 -1.1206 4486.957 2958.81)"><stop offset="0" style="stop-color:#4f3e90"/><stop offset="1" style="stop-color:#171a31"/></linearGradient><path id="XMLID_1_" d="M-28.9 67.3s-4-112.8-283.3-119.6c0 0-261.9-1.7-283.3 119.6 0 0-39.9-132.5 283.3-145.3 0 0 307.6 5.9 283.3 145.3z" style="fill:url(#XMLID_66_)"/><linearGradient id="XMLID_67_" gradientUnits="userSpaceOnUse" x1="-370.567" y1="-16215.609" x2="-282.563" y2="-15887.172" gradientTransform="matrix(1 0 0 -1 0 -15884)"><stop offset="0" style="stop-color:#4f3e90"/><stop offset="1" style="stop-color:#171a31"/></linearGradient><path id="XMLID_6_" d="M-663.6 89.3s4.9 186.6 351.2 197.8c0 0 324.7 2.8 351.2-197.8 0 0 49.4 219.2-351.2 240.3 0 0-381.3-9.8-351.2-240.3z" style="fill:url(#XMLID_67_)"/><linearGradient id="SVGID_21_" gradientUnits="userSpaceOnUse" x1="-532.522" y1="79.555" x2="-152.855" y2="79.555"><stop offset="0" style="stop-color:#7f00ff"/><stop offset="1" style="stop-color:#3f00fc"/></linearGradient><path d="m-176.9 44 24-13-43.5-23.5-22.5 14.8L-238 9.5l25.1-13-42.5-24-23.5 14-31.3-18-41.2 24 20.5 13-138 79.5-22-12.3-41.6 24.3 31.4 17.9-19.4 11.5 41.5 23.9 19.3-10.9 18.2 10-19.6 11.2 41.9 24.4 19.1-11.4c50.8 25.8 103.8 14.8 103.8 14.8C-229.9 167.6-238 132-238 132c48.2-3.3 70.8-26 70.8-26 31.7-35.3-9.7-62-9.7-62zm-125.8 102.3c-19.1 14.2-49.3 5.2-49.3 5.2l-75.3-43.5 53.6-30.9 71 41s19.1 14.1 0 28.2zm78.8-55c-22.3 12.3-44.1 0-44.1 0l-64.8-37.9 45.1-26.5 67 38.9c.1 0 19.1 13.2-3.2 25.5z" style="fill:url(#SVGID_21_)"/><linearGradient id="SVGID_22_" gradientUnits="userSpaceOnUse" x1="-473.145" y1="619.152" x2="-449.55" y2="619.152"><stop offset="0" style="stop-color:#7f00ff"/><stop offset="1" style="stop-color:#3f00fc"/></linearGradient><path d="M-469.5 614.5s4-3.7 13.1-1.5 6.6 8.1 6.6 8.1-2.5 5.6-13.8 4.9c0 0-16.7-3.2-5.9-11.5z" style="fill:url(#SVGID_22_)"/><linearGradient id="SVGID_23_" gradientUnits="userSpaceOnUse" x1="-486.409" y1="619.458" x2="-435.018" y2="619.458"><stop offset="0" style="stop-color:#7f00ff"/><stop offset="1" style="stop-color:#3f00fc"/></linearGradient><path d="M-465.9 605.8s22.8-2.6 28.6 11.9-24.1 15.6-24.1 15.6-23.8-1.3-23.6-15c.1 0 .3-10 19.1-12.5z" style="fill:none;stroke:url(#SVGID_23_);stroke-width:3;stroke-miterlimit:10"/><linearGradient id="SVGID_24_" gradientUnits="userSpaceOnUse" x1="-58.757" y1="546.18" x2="-35.162" y2="546.18"><stop offset="0" style="stop-color:#7f00ff"/><stop offset="1" style="stop-color:#3f00fc"/></linearGradient><path d="M-55.1 541.5s4-3.7 13.1-1.5 6.6 8.1 6.6 8.1-2.5 5.6-13.8 4.9c0 0-16.7-3.2-5.9-11.5z" style="fill:url(#SVGID_24_)"/><linearGradient id="SVGID_25_" gradientUnits="userSpaceOnUse" x1="-72.021" y1="546.486" x2="-20.63" y2="546.486"><stop offset="0" style="stop-color:#7f00ff"/><stop offset="1" style="stop-color:#3f00fc"/></linearGradient><path d="M-51.5 532.8s22.8-2.6 28.6 11.9S-47 560.3-47 560.3s-23.8-1.3-23.6-15c.1 0 .3-10 19.1-12.5z" style="fill:none;stroke:url(#SVGID_25_);stroke-width:3;stroke-miterlimit:10"/><linearGradient id="SVGID_26_" gradientUnits="userSpaceOnUse" x1=".629" y1="425.342" x2="24.223" y2="425.342"><stop offset="0" style="stop-color:#7f00ff"/><stop offset="1" style="stop-color:#3f00fc"/></linearGradient><path d="M4.2 420.7s4-3.7 13.1-1.5 6.6 8.1 6.6 8.1-2.5 5.6-13.8 4.9c.1 0-16.6-3.2-5.9-11.5z" style="fill:url(#SVGID_26_)"/><linearGradient id="SVGID_27_" gradientUnits="userSpaceOnUse" x1="-12.635" y1="425.649" x2="38.755" y2="425.649"><stop offset="0" style="stop-color:#7f00ff"/><stop offset="1" style="stop-color:#3f00fc"/></linearGradient><path d="M7.9 412s22.8-2.6 28.6 11.9-24.1 15.6-24.1 15.6-23.8-1.3-23.6-15c.1 0 .3-10 19.1-12.5z" style="fill:none;stroke:url(#SVGID_27_);stroke-width:3;stroke-miterlimit:10"/><linearGradient id="SVGID_28_" gradientUnits="userSpaceOnUse" x1="148.742" y1="304.037" x2="172.336" y2="304.037"><stop offset="0" style="stop-color:#7f00ff"/><stop offset="1" style="stop-color:#3f00fc"/></linearGradient><path d="M152.4 299.4s4-3.7 13.1-1.5 6.6 8.1 6.6 8.1-2.5 5.6-13.8 4.9c0 0-16.7-3.2-5.9-11.5z" style="fill:url(#SVGID_28_)"/><linearGradient id="SVGID_29_" gradientUnits="userSpaceOnUse" x1="135.477" y1="304.343" x2="186.868" y2="304.343"><stop offset="0" style="stop-color:#7f00ff"/><stop offset="1" style="stop-color:#3f00fc"/></linearGradient><path d="M156 290.7s22.8-2.6 28.6 11.9-24.1 15.6-24.1 15.6-23.8-1.3-23.6-15c.1 0 .3-10 19.1-12.5z" style="fill:none;stroke:url(#SVGID_29_);stroke-width:3;stroke-miterlimit:10"/></g></switch></svg>