<svg version="1.1" id="Capa_1" xmlns="http://www.w3.org/2000/svg" xmlns:xlink="http://www.w3.org/1999/xlink" x="0" y="0" viewBox="6 -6 512 512" style="enable-background:new 6 -6 512 512" xml:space="preserve"><style>.st0{opacity:.17}.st1{enable-background:new}.st3{fill:#1d1b30}</style><switch><g><g id="XMLID_26_" class="st0"><g class="st1"><defs><path id="SVGID_1_" class="st1" d="M18.5 202.8 145.4 129l127.8 73.8-126.9 73.8z"/></defs><clipPath id="SVGID_2_"><use xlink:href="#SVGID_1_" style="overflow:visible"/></clipPath><path class="st3" d="M209.3 165.9c-35.3-20.4-92.3-20.4-127.4 0-35.1 20.4-34.9 53.4.4 73.8s92.3 20.4 127.4 0c35.1-20.4 34.9-53.4-.4-73.8" style="clip-path:url(#SVGID_2_)"/></g></g><linearGradient id="SVGID_3_" gradientUnits="userSpaceOnUse" x1="29.545" y1="-16033.402" x2="262.138" y2="-16033.402" gradientTransform="matrix(1 0 0 -1 0 -15884)"><stop offset="0" style="stop-color:#4f3e90"/><stop offset="1" style="stop-color:#171a31"/></linearGradient><path d="M29.5 147.6s0 62.7 107.4 68.1 124.9-58 124.9-58 11.6-62.4-95.5-74.1c0 0-61.9-8.4-108.3 21.7 0 .1-24.8 12.3-28.5 42.3z" style="fill:url(#SVGID_3_)"/><linearGradient id="XMLID_16_" gradientUnits="userSpaceOnUse" x1="4246.69" y1="2535.084" x2="4435.54" y2="2535.084" gradientTransform="matrix(-1 0 0 -1.1206 4486.957 2958.81)"><stop offset="0" style="stop-color:#4f3e90"/><stop offset="1" style="stop-color:#171a31"/></linearGradient><path id="XMLID_1_" d="M239.8 142.1s-1.3-37.4-93.9-39.6c0 0-86.8-.6-93.9 39.6 0 0-13.2-43.9 93.9-48.2 0 0 102 2 93.9 48.2z" style="fill:url(#XMLID_16_)"/><linearGradient id="XMLID_17_" gradientUnits="userSpaceOnUse" x1="126.516" y1="-16113.751" x2="155.697" y2="-16004.849" gradientTransform="matrix(1 0 0 -1 0 -15884)"><stop offset="0" style="stop-color:#4f3e90"/><stop offset="1" style="stop-color:#171a31"/></linearGradient><path id="XMLID_6_" d="M29.3 149.4s1.6 61.9 116.5 65.6c0 0 107.7.9 116.5-65.6 0 0 16.4 72.7-116.5 79.7 0 0-126.4-3.3-116.5-79.7z" style="fill:url(#XMLID_17_)"/><linearGradient id="SVGID_4_" gradientUnits="userSpaceOnUse" x1="72.816" y1="-16030.175" x2="198.705" y2="-16030.175" gradientTransform="matrix(1 0 0 -1 0 -15884)"><stop offset="0" style="stop-color:#7f00ff"/><stop offset="1" style="stop-color:#3f00fc"/></linearGradient><path d="m190.7 134.4 8-4.3-14.4-7.8-7.5 4.9-6.3-4.2 8.3-4.3-14.1-8-7.8 4.6-10.4-6-13.6 8 6.8 4.3L93.9 148l-7.3-4.1-13.8 8.1 10.4 5.9-6.4 3.8 13.8 7.9L97 166l6 3.3-6.5 3.7 13.9 8.1 6.3-3.8c16.8 8.5 34.4 4.9 34.4 4.9 22-6.9 19.4-18.7 19.4-18.7 16-1.1 23.5-8.6 23.5-8.6 10.5-11.7-3.3-20.5-3.3-20.5zM149 168.3c-6.3 4.7-16.3 1.7-16.3 1.7l-25-14.4 17.8-10.3 23.5 13.6s6.4 4.7 0 9.4zm26.2-18.2c-7.4 4.1-14.6 0-14.6 0l-21.5-12.6 15-8.8 22.2 12.9c-.1 0 6.2 4.4-1.1 8.5z" style="fill:url(#SVGID_4_)"/><g id="XMLID_7_" class="st0"><g class="st1"><defs><path id="SVGID_5_" class="st1" d="m263.8 259.2 114-66.3 114.7 66.3-114 66.2z"/></defs><clipPath id="SVGID_6_"><use xlink:href="#SVGID_5_" style="overflow:visible"/></clipPath><path class="st3" d="M435.2 226c-31.7-18.3-82.9-18.3-114.4 0s-31.3 48 .4 66.3c31.7 18.3 82.9 18.3 114.4 0 31.4-18.3 31.3-48-.4-66.3" style="clip-path:url(#SVGID_6_)"/></g></g><linearGradient id="SVGID_7_" gradientUnits="userSpaceOnUse" x1="261.862" y1="-16089.795" x2="494.455" y2="-16089.795" gradientTransform="matrix(1 0 0 -1 0 -15884)"><stop offset="0" style="stop-color:#4f3e90"/><stop offset="1" style="stop-color:#171a31"/></linearGradient><path d="M261.9 204s0 62.7 107.4 68.1 124.9-58 124.9-58 11.6-62.4-95.5-74.1c0 0-61.9-8.4-108.3 21.7-.1.1-24.9 12.3-28.5 42.3z" style="fill:url(#SVGID_7_)"/><linearGradient id="XMLID_18_" gradientUnits="userSpaceOnUse" x1="4014.373" y1="2484.76" x2="4203.224" y2="2484.76" gradientTransform="matrix(-1 0 0 -1.1206 4486.957 2958.81)"><stop offset="0" style="stop-color:#4f3e90"/><stop offset="1" style="stop-color:#171a31"/></linearGradient><path id="XMLID_5_" d="M472.1 198.5s-1.3-37.4-93.9-39.6c0 0-86.8-.6-93.9 39.6 0 0-13.2-43.9 93.9-48.2 0 0 102 2 93.9 48.2z" style="fill:url(#XMLID_18_)"/><linearGradient id="XMLID_19_" gradientUnits="userSpaceOnUse" x1="358.833" y1="-16170.144" x2="388.014" y2="-16061.241" gradientTransform="matrix(1 0 0 -1 0 -15884)"><stop offset="0" style="stop-color:#4f3e90"/><stop offset="1" style="stop-color:#171a31"/></linearGradient><path id="XMLID_2_" d="M261.7 205.8s1.6 61.9 116.5 65.6c0 0 107.7.9 116.5-65.6 0 0 16.4 72.7-116.5 79.7-.1 0-126.5-3.3-116.5-79.7z" style="fill:url(#XMLID_19_)"/><linearGradient id="SVGID_8_" gradientUnits="userSpaceOnUse" x1="305.133" y1="-16086.567" x2="431.022" y2="-16086.567" gradientTransform="matrix(1 0 0 -1 0 -15884)"><stop offset="0" style="stop-color:#7f00ff"/><stop offset="1" style="stop-color:#3f00fc"/></linearGradient><path d="m423.1 190.8 8-4.3-14.4-7.8-7.5 4.9-6.3-4.2 8.3-4.3-14.1-8-7.8 4.6-10.4-6-13.6 8 6.8 4.3-45.8 26.4-7.3-4.1-13.8 8.1 10.4 5.9-6.4 3.8L323 226l6.4-3.6 6 3.3-6.5 3.7 13.9 8.1 6.3-3.8c16.8 8.5 34.4 4.9 34.4 4.9 22-6.9 19.4-18.7 19.4-18.7 16-1.1 23.5-8.6 23.5-8.6 10.4-11.7-3.3-20.5-3.3-20.5zm-41.8 33.9c-6.3 4.7-16.3 1.7-16.3 1.7L340 212l17.8-10.3 23.5 13.6s6.4 4.7 0 9.4zm26.2-18.3c-7.4 4.1-14.6 0-14.6 0l-21.5-12.6 15-8.8 22.2 12.9c0 .1 6.3 4.5-1.1 8.5z" style="fill:url(#SVGID_8_)"/><g id="XMLID_14_" class="st0"><g class="st1"><defs><path id="SVGID_9_" class="st1" d="m19.1 366.9 132.3-76.8 133.1 76.8-132.2 76.9z"/></defs><clipPath id="SVGID_10_"><use xlink:href="#SVGID_9_" style="overflow:visible"/></clipPath><path class="st3" d="M218 328.5c-36.8-21.2-96.2-21.2-132.7 0-36.5 21.2-36.3 55.6.4 76.9s96.2 21.2 132.7 0c36.5-21.3 36.3-55.7-.4-76.9" style="clip-path:url(#SVGID_10_)"/></g></g><linearGradient id="SVGID_11_" gradientUnits="userSpaceOnUse" x1="35.531" y1="-16197.542" x2="268.125" y2="-16197.542" gradientTransform="matrix(1 0 0 -1 0 -15884)"><stop offset="0" style="stop-color:#4f3e90"/><stop offset="1" style="stop-color:#171a31"/></linearGradient><path d="M35.5 311.8s0 62.7 107.4 68.1 124.9-58 124.9-58 11.6-62.4-95.5-74.1c0 0-61.9-8.4-108.3 21.7-.1.1-24.8 12.2-28.5 42.3z" style="fill:url(#SVGID_11_)"/><linearGradient id="XMLID_20_" gradientUnits="userSpaceOnUse" x1="4240.704" y1="2388.608" x2="4429.554" y2="2388.608" gradientTransform="matrix(-1 0 0 -1.1206 4486.957 2958.81)"><stop offset="0" style="stop-color:#4f3e90"/><stop offset="1" style="stop-color:#171a31"/></linearGradient><path id="XMLID_13_" d="M245.8 306.2s-1.3-37.4-93.9-39.6c0 0-86.8-.6-93.9 39.6 0 0-13.2-43.9 93.9-48.2 0 .1 101.9 2 93.9 48.2z" style="fill:url(#XMLID_20_)"/><linearGradient id="XMLID_21_" gradientUnits="userSpaceOnUse" x1="132.503" y1="-16277.891" x2="161.683" y2="-16168.988" gradientTransform="matrix(1 0 0 -1 0 -15884)"><stop offset="0" style="stop-color:#4f3e90"/><stop offset="1" style="stop-color:#171a31"/></linearGradient><path id="XMLID_12_" d="M35.3 313.5s1.6 61.9 116.5 65.6c0 0 107.7.9 116.5-65.6 0 0 16.4 72.7-116.5 79.7 0 0-126.4-3.2-116.5-79.7z" style="fill:url(#XMLID_21_)"/><linearGradient id="SVGID_12_" gradientUnits="userSpaceOnUse" x1="78.802" y1="-16194.315" x2="204.691" y2="-16194.315" gradientTransform="matrix(1 0 0 -1 0 -15884)"><stop offset="0" style="stop-color:#7f00ff"/><stop offset="1" style="stop-color:#3f00fc"/></linearGradient><path d="m196.7 298.5 8-4.3-14.4-7.8-7.5 4.9-6.3-4.2 8.3-4.3-14.1-8-7.8 4.6-10.4-6-13.6 8 6.8 4.3-45.8 26.4-7.3-4.1-13.8 8.1 10.4 5.9-6.4 3.8 13.8 7.9 6.4-3.6 6 3.3-6.5 3.7 13.9 8.1 6.3-3.8c16.8 8.5 34.4 4.9 34.4 4.9 22-6.9 19.4-18.7 19.4-18.7 16-1.1 23.5-8.6 23.5-8.6 10.4-11.6-3.3-20.5-3.3-20.5zm-41.7 34c-6.3 4.7-16.3 1.7-16.3 1.7l-25-14.4 17.8-10.3 23.5 13.6s6.3 4.7 0 9.4zm26.1-18.3c-7.4 4.1-14.6 0-14.6 0L145 301.6l15-8.8 22.2 12.9s6.3 4.4-1.1 8.5z" style="fill:url(#SVGID_12_)"/></g></switch></svg>