<?xml version="1.0" encoding="utf-8"?>
<!-- Generator: Adobe Illustrator 19.0.0, SVG Export Plug-In . SVG Version: 6.00 Build 0)  -->
<svg version="1.1" id="Layer_1" xmlns="http://www.w3.org/2000/svg" xmlns:xlink="http://www.w3.org/1999/xlink" x="0px" y="0px"
	 viewBox="0 0 1400 980" style="enable-background:new 0 0 1400 980;" xml:space="preserve">
<style type="text/css">
	.st0{opacity:8.000000e-002;}
	.st1{fill:none;stroke:#0053FB;stroke-width:2;stroke-miterlimit:10;}
	.st2{fill:#0053FB;}
	.st3{fill:none;}
	.st4{fill-rule:evenodd;clip-rule:evenodd;fill:#0053FB;}
	.st5{fill:#FFFFFF;}
</style>
<g class="st0">
	<g>
		<path class="st1" d="M1155.6,66.9c19.7-13.4,43.5-21.2,69.2-21.2c68.1,0,123.3,55.2,123.3,123.3s-55.2,123.3-123.3,123.3
			s-123.3-55.2-123.3-123.3c0-27,8.7-52,23.5-72.4"/>
		<path class="st1" d="M1053.8,148.8c10-85.6,82.7-152.1,171-152.1c95.1,0,172.2,77.1,172.2,172.2s-77.1,172.2-172.2,172.2
			c-75.8,0-140.1-49-163.1-117"/>
		<path class="st1" d="M1122.9,384.2C1042.4,346,986.7,264,986.7,169c0-131.5,106.6-238.1,238.1-238.1S1462.9,37.5,1462.9,169
			S1356.3,407,1224.8,407c-0.5,0-1.1,0-1.6,0"/>
		<circle class="st1" cx="1224.8" cy="169" r="304.3"/>
		<path class="st1" d="M854.8,157.2c6.2-199,169.5-358.4,370-358.4c204.4,0,370.2,165.7,370.2,370.2s-165.7,370.2-370.2,370.2
			c-186.8,0-341.3-138.4-366.6-318.3"/>
		<path class="st1" d="M1176.6,650.6C931.9,626.4,740.8,420,740.8,169c0-267.3,216.7-484,484-484s484,216.7,484,484
			c0,236.3-169.3,433-393.3,475.5"/>
		<path class="st1" d="M673.1,424.8C637,347,616.8,260.4,616.8,169c0-335.8,272.2-608,608-608s608,272.2,608,608s-272.2,608-608,608
			c-198.4,0-374.6-95-485.6-242.1"/>
		<path class="st1" d="M813.1,781.9C616.1,649.3,486.6,424.3,486.6,169c0-407.7,330.5-738.3,738.3-738.3s738.3,330.5,738.3,738.3
			s-330.5,738.3-738.3,738.3c-122.7,0-238.4-29.9-340.2-82.9"/>
		<path class="st1" d="M516.1,679.1C412.6,535.6,351.7,359.4,351.7,169c0-482.2,390.9-873.1,873.1-873.1S2098-313.3,2098,169
			s-390.9,873.1-873.1,873.1c-247.5,0-471-103-629.9-268.4"/>
	</g>
	<path class="st2" d="M1225.3,91.3c43,0,77.8,34.8,77.8,77.8c0,43-34.8,77.8-77.8,77.8c-43,0-77.8-34.8-77.8-77.8
		C1147.5,126.1,1182.3,91.3,1225.3,91.3L1225.3,91.3z M1225.3,93c-42.2,0-76.2,34.1-76.2,76.2c0,42.2,34,76.2,76.2,76.2
		c42,0,76.2-34,76.2-76.2C1301.5,127.1,1267.3,93,1225.3,93L1225.3,93z"/>
	<g>
		<path class="st3" d="M1141.1,64.1c-9.3,0-17,7.7-17,17c0,9.3,7.7,16.9,17,16.9c9.3,0,16.9-7.6,16.9-16.9
			C1157.9,71.7,1150.4,64.1,1141.1,64.1L1141.1,64.1z"/>
		<path class="st4" d="M1132.3,73.5c1.5,0,2.6,0.5,2.6,0.9c0,0.6-3.2,1.7-4.7,1.7c-1.4,0-0.5-1.1-0.5-1.7
			C1129.7,74,1130.9,73.5,1132.3,73.5L1132.3,73.5z"/>
		<path class="st4" d="M1146.4,68.5c1.5,0,2.7,0.5,2.7,1.1c0,0.6-3.3,1.7-4.7,1.7c-1.5,0-8.2-1.5-8.2-2.1
			C1136.2,68.5,1145,68.5,1146.4,68.5L1146.4,68.5z"/>
		<path class="st4" d="M1151.2,79.1c1.5,0,2.7,0.5,2.7,1.1c-6.7,7.3-6.6,0.2-8,0.2c-1.5,0-8.2,1.9-4.8-0.7
			C1141.1,79.1,1146.4,76.8,1151.2,79.1L1151.2,79.1z"/>
		<path class="st4" d="M1144.4,74c1.5,0,1.4,0.6,1.4,1.2c0,0.6-2,1.4-3.4,1.4c-1.5,0,0.7-0.7,0.7-1.3
			C1143.1,74.7,1142.9,74,1144.4,74L1144.4,74z"/>
		<path class="st4" d="M1146.8,87.1c1.4,0,6-1.8,6-1.2c0,0.5-6.6,3.8-8.1,3.8c-1.4,0,0.7-0.7,0.7-1.3
			C1144.5,88,1141.3,87.9,1146.8,87.1L1146.8,87.1z"/>
		<path class="st4" d="M1141.2,89.8c1.4,0,0.7,0.7,0.7,1.3c0,0.6-1.4,1.3-2.8,1.3C1133.9,92.4,1137.6,90.3,1141.2,89.8L1141.2,89.8z
			"/>
		<path class="st4" d="M1134.4,81.8c1.5,0,4.8,2.1,4.8,2.7c-3.2,2.8-5.9,3.1-7-0.1C1132.3,84.4,1125.8,81.8,1134.4,81.8L1134.4,81.8
			z"/>
		<path class="st2" d="M1141.1,62.5c10.2,0,18.4,8.3,18.4,18.5c0,10.2-8.3,18.4-18.4,18.4c-10.3,0-18.5-8.3-18.5-18.4
			C1122.5,70.8,1130.8,62.5,1141.1,62.5L1141.1,62.5z M1141.1,64.1c-9.3,0-17,7.7-17,17c0,9.3,7.7,16.9,17,16.9
			c9.3,0,16.9-7.6,16.9-16.9C1157.9,71.7,1150.4,64.1,1141.1,64.1L1141.1,64.1z"/>
	</g>
	<g>
		<path class="st3" d="M1059,152.1c-18.7,0-33.9,15.2-33.9,33.9c0,18.8,15.2,33.9,33.9,33.9c18.8,0,33.9-15.1,33.9-33.9
			C1092.9,167.3,1077.8,152.1,1059,152.1L1059,152.1z"/>
		<path class="st2" d="M1059,150.6c19.6,0,35.4,15.8,35.4,35.4c0,19.6-15.8,35.4-35.4,35.4c-19.6,0-35.4-15.8-35.4-35.4
			C1023.6,166.4,1039.5,150.6,1059,150.6L1059,150.6z M1059,152.1c-18.7,0-33.9,15.2-33.9,33.9c0,18.8,15.2,33.9,33.9,33.9
			c18.8,0,33.9-15.1,33.9-33.9C1092.9,167.3,1077.8,152.1,1059,152.1L1059,152.1z"/>
		<rect x="1047.7" y="166" class="st5" width="3" height="0"/>
		<rect x="1030.7" y="175" class="st5" width="3" height="0"/>
		<rect x="1040.7" y="175" class="st5" width="3" height="0"/>
		<rect x="1058.7" y="166" class="st5" width="3" height="0"/>
		<rect x="1052" y="158" class="st2" width="3" height="4"/>
		<rect x="1066" y="158" class="st2" width="3" height="4"/>
		<rect x="1057.7" y="175" class="st5" width="3" height="0"/>
		<rect x="1063.7" y="183" class="st5" width="3" height="0"/>
		<rect x="1072.7" y="175" class="st5" width="3" height="0"/>
		<rect x="1079.7" y="182.8" class="st5" width="2" height="0"/>
		<rect x="1079.7" y="166.1" class="st5" width="2" height="0"/>
		<rect x="1038.7" y="191" class="st5" width="3" height="0"/>
		<rect x="1050.7" y="191" class="st5" width="3" height="0"/>
		<rect x="1071.7" y="191" class="st5" width="3" height="0"/>
		<rect x="1061" y="196" class="st2" width="3" height="4"/>
		<rect x="1045" y="196" class="st2" width="2" height="4"/>
		<rect x="1053" y="204" class="st2" width="3" height="4"/>
		<rect x="1063.7" y="212" class="st5" width="3" height="0"/>
		<rect x="1043" y="204" class="st2" width="2" height="4"/>
		<rect x="1078" y="204" class="st2" width="3" height="4"/>
	</g>
	<g>
		<path class="st3" d="M860,160.7c-15,0-27.3,12.3-27.3,27.3s12.3,27.3,27.3,27.3s27.3-12.3,27.3-27.3S875,160.7,860,160.7
			L860,160.7z"/>
		<path class="st2" d="M860,159.2c15.9,0,28.8,12.9,28.8,28.8c0,15.9-12.9,28.8-28.8,28.8c-15.9,0-28.8-12.9-28.8-28.8
			C831.2,172.1,844.1,159.2,860,159.2L860,159.2z M860,160.7c-15,0-27.3,12.3-27.3,27.3s12.3,27.3,27.3,27.3s27.3-12.3,27.3-27.3
			S875,160.7,860,160.7L860,160.7z"/>
		<path class="st2" d="M838.3,182.9l1.5-1.7l0.5-0.4l0.4,0.4l1.5,1.7l0.5,0.4l-0.5,0.4l-1.5,1.7l-0.4,0.4l-0.5-0.4l-1.5-1.7
			l-0.4-0.4L838.3,182.9z M840.3,182.5l-0.8,0.8l0.8,0.8l0.7-0.8L840.3,182.5z"/>
		<path class="st2" d="M847.6,176l1.7-1.5l0.4-0.4l0.4,0.4l1.7,1.5l0.4,0.5l-0.4,0.4l-1.7,1.5l-0.4,0.5l-0.4-0.5l-1.7-1.5l-0.4-0.4
			L847.6,176z M849.6,175.6l-0.8,0.8l0.8,0.7l0.8-0.7L849.6,175.6z"/>
		<path class="st2" d="M848.5,167.7l1.5-1.7l0.5-0.4l0.4,0.4l1.5,1.7l0.5,0.4l-0.5,0.4l-1.5,1.7l-0.4,0.4l-0.5-0.4l-1.5-1.7
			l-0.4-0.4L848.5,167.7z M850.6,167.2l-0.8,0.8l0.8,0.8l0.8-0.8L850.6,167.2z"/>
		<path class="st2" d="M840.9,194.7l1.5-1.5l0.5-0.4l0.4,0.4l1.5,1.5l0.5,0.5l-0.5,0.4l-1.5,1.5l-0.4,0.5l-0.5-0.5l-1.5-1.5
			l-0.4-0.4L840.9,194.7z M842.9,194.4l-0.8,0.8l0.8,0.8l0.7-0.8L842.9,194.4z"/>
		<path class="st2" d="M862.8,179.9l1.5-1.7l0.5-0.4l0.4,0.5l1.5,1.5l0.5,0.4l-0.5,0.4l-1.5,1.7l-0.4,0.4l-0.5-0.4l-1.5-1.7
			l-0.4-0.4L862.8,179.9z M864.8,179.4l-0.8,0.8l0.8,0.8l0.7-0.8L864.8,179.4z"/>
		<path class="st2" d="M860.7,164.3l1.5-1.7l0.5-0.4l0.4,0.4l1.5,1.7l0.5,0.4l-0.5,0.4l-1.5,1.7l-0.4,0.4l-0.5-0.4l-1.5-1.7
			l-0.4-0.4L860.7,164.3z M862.7,163.8l-0.8,0.8l0.8,0.8l0.7-0.8L862.7,163.8z"/>
		<path class="st2" d="M862.7,192.1l1.7-1.7l0.4-0.4l0.4,0.4l1.5,1.7l0.5,0.4l-0.5,0.4l-1.5,1.7l-0.4,0.4l-0.4-0.4l-1.7-1.7
			l-0.4-0.4L862.7,192.1z M864.7,191.7l-0.8,0.8l0.8,0.8l0.8-0.8L864.7,191.7z"/>
		<path class="st2" d="M877.4,176.7l1.7-1.7l0.4-0.4l0.4,0.4l1.5,1.7l0.5,0.4l-0.5,0.4l-1.5,1.7l-0.4,0.4L879,179l-1.7-1.7L877,177
			L877.4,176.7z M879.4,176.2l-0.8,0.8l0.8,0.8l0.8-0.8L879.4,176.2z"/>
		<path class="st2" d="M851.5,201.3l1.7-1.7l0.4-0.4l0.4,0.4l1.7,1.7l0.4,0.4l-0.4,0.4l-1.7,1.7l-0.4,0.4l-0.4-0.4l-1.7-1.7
			l-0.4-0.4L851.5,201.3z M853.5,200.9l-0.8,0.8l0.8,0.8l0.8-0.8L853.5,200.9z"/>
		<path class="st2" d="M877.8,199.5l1.7-1.7l0.4-0.4l0.4,0.4l1.7,1.7l0.4,0.4l-0.4,0.4l-1.7,1.7l-0.4,0.4l-0.4-0.4l-1.7-1.7
			l-0.4-0.4L877.8,199.5z M879.8,199l-0.8,0.8l0.8,0.8l0.8-0.8L879.8,199z"/>
		<path class="st2" d="M867.4,209.8l1.7-1.5l0.4-0.5l0.4,0.5l1.5,1.5l0.5,0.4l-0.5,0.4l-1.5,1.7l-0.4,0.4l-0.4-0.4l-1.7-1.7
			l-0.4-0.4L867.4,209.8z M869.4,209.4l-0.8,0.8l0.8,0.8l0.8-0.8L869.4,209.4z"/>
		<path class="st2" d="M881.6,186.9l1.5-1.5l0.5-0.4l0.4,0.4l1.5,1.5l0.5,0.4l-0.5,0.5l-1.5,1.5l-0.4,0.4l-0.5-0.4l-1.5-1.5
			l-0.4-0.5L881.6,186.9z M883.6,186.6l-0.8,0.7l0.8,0.8l0.7-0.8L883.6,186.6z"/>
	</g>
	<g>
		<path class="st3" d="M1173,347.5c-26.2,0-47.5,21.3-47.5,47.5s21.3,47.5,47.5,47.5s47.5-21.3,47.5-47.5S1199.2,347.5,1173,347.5
			L1173,347.5z"/>
		<path class="st2" d="M1173,346c27,0,49,22,49,49s-22,49-49,49s-49-22-49-49S1146,346,1173,346L1173,346z M1173,347.5
			c-26.2,0-47.5,21.3-47.5,47.5s21.3,47.5,47.5,47.5s47.5-21.3,47.5-47.5S1199.2,347.5,1173,347.5L1173,347.5z"/>
		<path class="st2" d="M1206.2,365l0.2,3.7l-0.7,1.3h0.9l0.9-2.5c3.8,4.6,6,8.1,8.3,13.6l-3.5-0.1c-0.7-0.8-1.4-1.7-2.1-2.4
			l-0.8,1.4c-2.2-1.4-2.5-1.1-2.6-3.8l-1.9-2.1h-0.4l1.5,3.3l-0.9,1.2l-6.3-2.2l-1.8,2.8c-4.3,0.4-5,0.8-7.2-2.3l0.7-2l3.7-1.3
			l0.5-2.2l2.6-0.5l1.7-2.4c0.9-0.1,1.7-0.4,2.7-0.4l-0.1-0.1l-1.3,0.1l-0.5-1.3l-1.2-0.1l-0.4-2.1l4.3-3.2
			C1203.8,362.5,1205,363.7,1206.2,365L1206.2,365z M1202.4,363.4l-2.4,1.7v0.2l0.9,0.1l0.5,0.9l1.5,0l0.6,3.7h-2.2l-1.4,0.1
			l-1.7,2.2l-2.1,0.3l-0.4,1.9c-2.1,1.3-1.5,1.2-3.9,1.6l-0.1,0.5c1.2,1.8,2.1,1.2,4.3,1.2l0.5-0.9c1.7-1.8,1.4-2.5,4-1.7l3.3,1.3
			l-1.8-3.3l4.1,0.2l2.9,2.2v1.8l0.1,0.2l0.9-2.3c1.1,1.1,2,2.7,3,2.7h0.5c-1.5-4-3.3-6.2-5.8-9.3l-0.2,0.7l-3.1,0l-0.7-2.3l1.2-0.5
			v-0.8C1205,365,1203.3,364.1,1202.4,363.4L1202.4,363.4z M1218.4,395.2c0,11.1-4,21.6-11.3,29.9l-1.4-0.5l-1.5-4.4l-0.2-3.8
			c-2.5-2.5-1.4-3.4,0.1-6.4l-3.1-5.8l0.4-3.1c-2.7-0.2-4.1-1.9-5.6-0.6l-0.5,0.2c-2,0-3.9,0.4-5.8,0.4l-4.7-5.3l-0.1-0.5
			c0-3-0.4-4.7-1.2-7.6l4.6-3.8v-2.6c4-1.8,4.5-2.4,7.8-0.7l9.2-2.6v3.3c0,0.2,0,0.5,4,1.2v-1.2l2.7-0.1l5.4,1.5
			C1218.3,386.9,1218.4,391.1,1218.4,395.2L1218.4,395.2z M1215.4,384.5l-3.3-0.1l-3.1-1.4v3h-1.9c-2-4-2.1-2.8-7.1-3.3v-2l-3.5,1.7
			l-1.2-0.1c-2.5-1.1-3.2-1.1-3.2,0.2v2.5l-5.5,3.7c0.5,2.1-0.1,4.4-0.1,6.5c5.1,5.8,2.6,4.3,8.6,4.3l0.6-0.7c2-0.8,4.8,0.9,7.3,1.2
			l-0.4,4.4l3.3,5.9c-1.5,2.7-3,3.2-0.4,5.8l1.5,5.8l0.1,0.8C1215.8,411.8,1218.7,397.7,1215.4,384.5L1215.4,384.5z M1130.1,381.2
			c3.1-9.1,8.7-16.9,16.4-22.6l1.9-0.6c3.3-2.5,2-2,6-2l1.2,1.7l1.3,0.1l1.4-1.4c1.7,0.8,1.3,0.8,3.1,0.2l1.7,2.1l0.4,0.9l0.6,0.1
			l1.5-2.8c1.1-0.1,2.8-0.5,3.8-0.4l4.6,2.1l1.7,2.4l-1.1,2.1c-3.4,0-2.2,0.4-4.7-1.8l-0.7,4.3c0.9,0.2,4,2.2,5.1,2.8l-0.1,2.6
			l-2,0.7l-1.3,1.1l-9.2,4.1l-2.5,3.7v0.4l-3.3,2l-1.3,1.2l-0.3,3.8l-4.1-1.7V385l-4,0.1l-2.1,1.1l-1.3,3.4l0.5,1.1l4.8-2l1-0.6
			l0.6,2.1l-0.6,1.7l2.1,0.4l0.2,2.6l3.7,0.8l1.3-1.5l3.3,0.7l1.2,1.3l1.7-0.1l0.1-1c3.1,1.5,2.4,0,4.3,4h2.9l1.3,2l0.1,1.5l6.5,0.5
			h0.5l1.3,2.5l2.1,1c-0.6,3.2-0.5,2.3-2.5,5v5.6c-2,2-4,2-4,1.8v3.4l-0.5,0.4l-3.4,3.9l-1.3,2.9l-3.1,2.4h0.2c-0.4,0-0.1,0-1.2,0
			h1.2v1.4c0,1.3-0.1,1.5-0.2,2.6l2.2,1.8l-0.5,1.9l-3.7-0.2l-2.8-2.6l-2.2-4.1l-1.2-5.2l-0.2-0.2l1.1-3.3l-0.3-0.2v-8
			c0-0.6-2.4-1.7-2.5-1.7c-0.5,0-1.9-0.4-2.4-0.5l-0.4-1.8l-3.7-4.5l0.4-1.9l0.1-2.8l2.2-1.7l-0.1-1.8l-3.4-0.5l-4.3-3.4
			c-1.5-0.2-1.4-0.2-2.8-0.9l-4.4-1.3l-4.3-3.5l-2.1-3.4l-0.1-3.5l-1.3-0.7L1130.1,381.2z M1137.9,369.6c-2.6,3.4-4.1,7.2-5.5,11.3
			l1.6,0.5v4l3.7,4l1.5,2.5l3.6,0.9l2.5,0.8l2,0.6l2.8,3.1l3.9,0.4l0.5,3.9l-2.5,1.8l-0.1,2.2l-0.2,1.3l3.3,4.4l0.2,0.9
			c0.2,0.1,0.3,0.2,0.4,0.2c0.5,0,3.3,1.9,3.3,2.4v7.7l1.3,0.2l-0.6,4l1.7,2.4l1.7,6.7l3.9,2.1l-1.6-0.5c0-0.7,0.5-1.5,0.5-1.5h-0.8
			l-1.4-2.6l1.3-1.8l-1.1-0.6l0.2-2.1l4.6-1.6l0.9-1.6l2.6-3.3c-0.7-3.2-0.9-2.4,0.6-5.1l2.8,0.1l1.3-1.1l0.7-5.5l2-3.1
			c-1.9-0.6-1.5-0.5-2.5-2.2l-3.9-0.1l-3.7-1.4l-0.2-3.1l-0.7-1.8h-2.8l-2.3-2.3l-0.6,0.4v0.4l-3.4,0.2l-0.9-1.5l-2-0.4l-1.3,1.5
			l-5.8-1.3l-0.1-2.5l-3.2-0.6l1.3-2.4c-3.1,2.1-2,1.9-5.5,1.4c-1.2-2.5-1.3-1.8-0.6-4.4l1.3-3.2l3.2-2.5h8.9v3.3l-0.9,0.1l-0.7-1.9
			l1.4-1.7l2.4-1.7l0.3-1.4l3-3.1l3.1-1.8l7.5-3.4l1.4-0.5l0.1-0.6l-1.4-2l0,0l-3-2.5h-0.8l0.2-1.8l0.9-5.7c1.3,1.2,2.5,3.5,3.8,3.5
			h1.2l0.2-0.1l-5-2.9l-2.2,0.3l-1.7,3.2l-2.8-0.4l-0.4-1.5l-0.9-1.2c-0.8,0.4-1.4,0.4-2.2,0l-1.1,0.9l-2.7-0.1l-1.2-1.7l-4.4,1.9
			l-1.9,0.6C1143.7,362.8,1140.5,365.9,1137.9,369.6L1137.9,369.6z"/>
	</g>
	<g>
		<path class="st3" d="M696.1,424.9c-33.8,0-61.1,27.4-61.1,61c0,33.7,27.3,60.9,61.1,60.9c33.7,0,60.9-27.3,60.9-60.9
			C757,452.3,729.7,424.9,696.1,424.9L696.1,424.9z"/>
		<path class="st2" d="M696.1,423.4c34.5,0,62.5,28,62.5,62.6c0,34.5-28,62.6-62.5,62.6c-34.6,0-62.6-28.1-62.6-62.6
			C633.5,451.4,661.5,423.4,696.1,423.4L696.1,423.4z M696.1,424.9c-33.8,0-61.1,27.4-61.1,61c0,33.7,27.3,60.9,61.1,60.9
			c33.7,0,60.9-27.3,60.9-60.9C757,452.3,729.7,424.9,696.1,424.9L696.1,424.9z"/>
		<path class="st2" d="M704.8,520.1c4.3,0,14.4-4.5,24.6-8.9c6.5-2.8,20.3-9.6,27.2-9.1c-3.9,13.7-11.3,25.2-22.8,33.8
			c-10.5,7.9-23.6,12.6-37.7,12.6c-11.9,0-23-3.3-32.5-9.1c-10.4-6.3-18-14.8-23.5-25.5c11.7-4.3,18-2.7,29.5,0.6
			C678,517.1,688.4,520.1,704.8,520.1L704.8,520.1z M730.1,512.7c-10.4,4.5-20.7,9-25.3,9c-16.7,0-27.2-3.1-35.7-5.6
			c-9.3-2.7-16.4-4.8-26.8-1.3c5.1,9.7,12.8,17.7,22.1,23.4c9.2,5.6,20.1,8.7,31.7,8.7c13.7,0,26.5-4.5,36.7-12.3
			c10.2-7.7,17.8-18.4,21.6-30.9C749.8,504.1,739.9,508.3,730.1,512.7L730.1,512.7z"/>
		<path class="st2" d="M614.7,509.9c-22,3.8-35.9,4.8-36.5,2.2c-0.4-1.8,5-4.6,14.9-8.1c13.7-5,28.1-9.1,42.2-13
			c0.1,1.5,0.4,3.1,0.6,4.6c-5.3,1.7-10.9,3.3-16.1,5.5c-3,1.2-4.6,2-4.5,2.2c0.2,0.9,9.3-0.1,23.9-2.6
			c36.6-6.3,79.6-16.4,115.2-27.3c14.2-4.4,22.7-7.6,22.4-8.5c0-0.2-1.9-0.2-5.3,0.1c-5.7,0.4-11.6,1.3-17.2,2.2
			c-0.5-1.4-1.1-2.8-1.5-4.3c14.4-2.8,29.3-5.7,44.1-7.6c10.5-1.3,16.7-1.2,17.1,0.7c0.6,2.5-12.3,7.8-33.5,14.3
			C732.7,485.2,663.7,501.5,614.7,509.9L614.7,509.9z M779.8,469.1c20.4-6.3,32.8-11,32.5-12.5c-0.2-0.9-5.8-0.6-15.5,0.6
			c-10.2,1.2-24.8,3.7-42,7.1l0.5,1.3c6.7-1.1,12.3-1.8,16.2-2.1c4.1-0.2,6.6,0.1,6.8,1.2c0.5,1.9-8.5,5.7-23.5,10.3
			c-35.7,11-78.7,21.1-115.4,27.4c-15.5,2.6-25.2,3.3-25.6,1.4c-0.2-1.2,1.7-2.5,5.4-4.1c3.4-1.4,8.5-3.2,14.9-5.2
			c-0.1-0.5-0.1-0.9-0.2-1.4c-16.8,4.7-30.7,9-40.3,12.4c-9,3.2-13.9,5.5-13.8,6.4c0.4,1.5,13.6,0.1,34.6-3.4
			C664.8,499.7,730.9,484,779.8,469.1L779.8,469.1z"/>
		<path class="st2" d="M689.8,440.3c13,1.4,28.5-2.6,40.9-6.4c7.2,4.8,12.4,10.2,17.4,17.2c-30,7-64.8-1.4-106.4,6.5l-1.5,0.2
			c2.1-3.9,4.3-7.4,7.1-11c2.4-3,5.1-5.8,8-8.3l0.4-0.2C667.1,437.1,678.6,437.6,689.8,440.3L689.8,440.3z M709.6,440.4
			c-7,1.2-13.8,0.6-20,0.6h-0.1c-11.1,0-22.3-2.7-33.5-1.5c-5.2,4.5-9.6,10.1-13,16c40.3-7.7,74.1,0,102.4-5.6
			c-4.1-5.7-9.2-10.7-15-14.7C723.7,437.4,716.6,439.2,709.6,440.4L709.6,440.4z"/>
	</g>
	<g>
		<path class="st3" d="M1244.9,592.6c-36,0-65.3,29.3-65.3,65.3c0,36.1,29.3,65.3,65.3,65.3c36.1,0,65.3-29.2,65.3-65.3
			C1310.3,621.9,1281.1,592.6,1244.9,592.6L1244.9,592.6z"/>
		<path class="st4" d="M1199.2,670.5c1.5,0,2.8,1.3,2.8,2.8c0,1.7-1.3,3-2.8,3c-1.7,0-2.8-1.3-2.8-3
			C1196.4,671.8,1197.6,670.5,1199.2,670.5L1199.2,670.5z"/>
		<path class="st4" d="M1266.7,594.2c1.5,0,2.8,1.3,2.8,2.8c0,1.7-1.3,3-2.8,3c-1.7,0-2.8-1.3-2.8-3
			C1263.8,595.5,1265,594.2,1266.7,594.2L1266.7,594.2z"/>
		<path class="st2" d="M1244.9,591.1c37,0,67,30,67,66.8c0,37-30,67-67,67c-36.8,0-66.8-30-66.8-67
			C1178.1,621.1,1208.1,591.1,1244.9,591.1L1244.9,591.1z M1244.9,592.6c-36,0-65.3,29.3-65.3,65.3c0,36.1,29.3,65.3,65.3,65.3
			c36.1,0,65.3-29.2,65.3-65.3C1310.3,621.9,1281.1,592.6,1244.9,592.6L1244.9,592.6z"/>
		<path class="st2" d="M1206,603.4c9,0.6,18.9,2,27.4,3.3c17.6,2.7,34.1,5.2,55,0.9l0.4,1.5c-21.3,4.3-38,1.8-55.7-0.9
			c-8.5-1.3-18.1-2.6-27.1-3.3V603.4z"/>
		<path class="st2" d="M1185.3,628.5c20.6-4,40.5-1.1,60.7,1.9c19.6,2.9,39.6,6,60.2,2.4l0.4,1.7c-21,3.5-41,0.6-60.8-2.4
			c-20.1-3.1-39.8-6-60.1-2L1185.3,628.5z"/>
		<path class="st2" d="M1180.8,672.9c17.5,1.2,33.8-2.6,50.1-6.4c24.9-5.9,50-11.7,79.8,0.1l-0.6,1.4c-29.4-11.6-54.2-5.8-78.9,0
			c-16.4,3.8-32.8,7.7-50.6,6.4L1180.8,672.9z"/>
		<path class="st2" d="M1193,698.1c22.4-4.4,38.6-0.1,55.8,4c11.7,3,24.2,5.8,36.2,6.1v1.5c-12-0.4-24.8-3.2-36.6-6.1
			c-17.1-4.1-33.5-8.3-55.7-3.9L1193,698.1z"/>
		<path class="st2" d="M1207.5,638.5c6,0,11.3,1.1,15.2,2.8c4.1,1.9,6.7,4.5,6.7,7.4c0,3-2.6,5.5-6.7,7.4c-3.9,1.8-9.2,2.8-15.2,2.8
			c-5.9,0-11.3-1.1-15.2-2.8c-4.1-1.9-6.6-4.5-6.6-7.4c0-3,2.5-5.5,6.6-7.4C1196.2,639.5,1201.6,638.5,1207.5,638.5L1207.5,638.5z
			 M1222.1,642.7c-3.8-1.7-8.9-2.7-14.6-2.7c-5.7,0-10.9,1.1-14.5,2.7c-3.5,1.7-5.8,3.8-5.8,6c0,2.2,2.2,4.4,5.8,6
			c3.7,1.7,8.9,2.7,14.5,2.7c5.8,0,10.9-1.1,14.6-2.7c3.5-1.7,5.7-3.8,5.7-6C1227.8,646.5,1225.7,644.4,1222.1,642.7L1222.1,642.7z"
			/>
		<path class="st2" d="M1272.5,673.4c4.8,0,9.2,1.1,12.4,2.8c3.3,1.9,5.4,4.5,5.4,7.4c0,2.8-2.1,5.4-5.4,7.3
			c-3.2,1.8-7.6,2.8-12.4,2.8s-9.2-1.1-12.4-2.8c-3.3-1.9-5.3-4.5-5.3-7.3c0-3,2-5.5,5.3-7.4
			C1263.2,674.5,1267.6,673.4,1272.5,673.4L1272.5,673.4z M1284,677.7c-3-1.7-7-2.7-11.6-2.7c-4.6,0-8.6,1.1-11.6,2.7
			c-2.8,1.5-4.6,3.7-4.6,6c0,2.2,1.8,4.4,4.6,5.9c3,1.7,7,2.7,11.6,2.7c4.6,0,8.6-1.1,11.6-2.7c2.8-1.5,4.6-3.7,4.6-5.9
			C1288.6,681.3,1286.9,679.2,1284,677.7L1284,677.7z"/>
		<path class="st2" d="M1260.4,621.3c4,0.7,7.8,1.2,11.5,1.5c3.5,0.2,7.1,0.5,10.5,0.6l-0.1,1.5c-3.4-0.1-6.8-0.2-10.5-0.6
			c-3.7-0.4-7.6-0.8-11.6-1.5L1260.4,621.3z"/>
		<path class="st2" d="M1234,600.4c3.9-0.5,7.7-0.7,11.3-0.7s7.2,0.2,10.6,0.7l-0.1,1.2c-3.4-0.6-7-0.8-10.5-0.8
			c-3.7,0-7.3,0.2-11.1,0.8L1234,600.4z"/>
		<path class="st2" d="M1223,705.5c4,0.2,7.1,0.6,10.6,1.2c3.7,0.7,6.8,1.5,10.1,2.6l-0.4,1.1c-3.3-1.1-6.2-1.9-9.8-2.5
			c-3.5-0.7-6.6-1.1-10.6-1.2V705.5z"/>
	</g>
	<g>
		<path class="st3" d="M843,772.4c-20.7,0-37.6,16.9-37.6,37.6c0,20.8,16.9,37.6,37.6,37.6c20.8,0,37.6-16.8,37.6-37.6
			C880.6,789.3,863.8,772.4,843,772.4L843,772.4z"/>
		<path class="st2" d="M843,770.9c21.6,0,39.1,17.5,39.1,39.1c0,21.6-17.5,39.1-39.1,39.1c-21.6,0-39.1-17.5-39.1-39.1
			C803.9,788.4,821.4,770.9,843,770.9L843,770.9z M843,772.4c-20.7,0-37.6,16.9-37.6,37.6c0,20.8,16.9,37.6,37.6,37.6
			c20.8,0,37.6-16.8,37.6-37.6C880.6,789.3,863.8,772.4,843,772.4L843,772.4z"/>
		<path class="st2" d="M830.8,786.4c2.4-0.1,20.3-1.2,23.3,1.5c1.3,1.1,1.4,2.7-0.7,5.1c-2.2,2.5-9.1,0.2-11.5-0.9
			c-5-2.5-8.5-3.1-13.3-0.1C823.4,795.1,796.9,787.1,830.8,786.4L830.8,786.4z M830.8,787.9c-28.8,0.6-5.9,4.4-3.1,2.7
			c5.3-3.3,9.4-2.7,14.8,0c1.8,0.8,8.2,2.9,9.7,1.3c1.3-1.4,1.4-2.4,0.8-2.8C850.7,787,832,787.9,830.8,787.9L830.8,787.9z"/>
		<path class="st2" d="M854.9,806.1c-0.2,1.8,5.1,10.4,5.7,1.1c0.1-3.3,4.8-4.6,7.6-3.5c1.7,0.7,3.3,2.1,4.6,4.7
			c0.8,1.8,4.7,3.9,4.6,6.6c-0.1,1.7-2,3-8,2.7c-2.2-0.1-3.3-0.8-4-1.5c-0.8,2.4-1.4,4.3-4.1,5.3c-3.3,1.2-7.4-0.2-10.3-2.2
			c-4.5-3.1-3.7-6.4-6.9-8.6c-1.7-1.2-2.8-3.4,1.3-9.3C846.4,799.7,856,798.2,854.9,806.1L854.9,806.1z M853.4,805.9
			c0.8-6.1-6.6-3.9-6.7-3.8c-3.4,4.8-2.7,6.5-1.8,7.2c4.5,3.1,1.3,4.7,7,8.6c2.2,1.7,6,3.1,8.9,2c2.1-0.8,2.6-2.7,3.2-4.6
			c0.5-1.1,0.6-1.5,1.2-1.5c0.6-0.1,0.7,0.2,0.9,0.6c0.2,0.5,0.9,1.7,3.3,1.8c4.8,0.1,6.4-0.5,6.5-1.3c0-1.7-3.7-4.1-4.5-5.8
			c-1.2-2.2-2.5-3.4-3.8-3.9c-1.8-0.8-5.3,0-5.4,2C861.4,819,852.8,810,853.4,805.9L853.4,805.9z"/>
		<path class="st2" d="M824.1,812.8c1.3,0.5,2.6,1.1,3.7,1.9c1.1,0.8,1.8,1.9,1.5,3.2c-0.1,1.2-0.9,1.8-0.9,3.1
			c0.1,0.9,0.8,1.9,1.8,2.7c1.2,0.9,2.6,1.7,4.3,2.2c2.6,0.8,5.4,1.2,7.2,0.7c2.8-0.9,10.5-0.9,15,0c1.3,0.4,2.4,0.7,3.1,1.2
			c0.9,0.7,1.2,1.5,0.6,2.6c-0.6,0.9-2.1,2-5.1,3.2c-2.1,0.9-2.8,0.6-3.7,0.1c-4-1.9-7.6,7.2-17.8,2.8c-4-1.7-21-11.9-17.2-19.4
			C818.6,813.2,812.6,808.9,824.1,812.8L824.1,812.8z M823.5,814.4c-8.1-2.8-3-1.7-5.7,3.7c-3.3,6.1,13.5,15.8,16.4,17.1
			c9.8,4.1,12.5-5.3,17.8-2.8c0.6,0.2,1.1,0.5,2.5-0.1c2.6-1.1,3.9-1.9,4.3-2.6c0.1-0.1,0.1-0.4-0.1-0.5c-0.5-0.4-1.3-0.7-2.5-0.9
			c-4.3-0.9-11.6-0.8-14.3-0.1c-1.9,0.6-5.2,0.2-8.2-0.7c-1.7-0.6-3.4-1.4-4.6-2.4c-1.4-1.2-2.2-2.5-2.4-3.9
			c-0.1-1.8,0.8-2.2,0.9-3.3c0.1-0.7-0.4-1.3-0.9-1.9C826,815.3,824.8,814.7,823.5,814.4L823.5,814.4z"/>
	</g>
	<g>
		<path class="st3" d="M535.9,678.9c-33.7,0-61.1,27.4-61.1,61.1c0,33.8,27.4,61,61.1,61c33.8,0,61.2-27.3,61.2-61
			C597.1,706.3,569.7,678.9,535.9,678.9L535.9,678.9z"/>
		<path class="st4" d="M577.4,695.2c1.5,0,2.8,1.2,2.8,2.8c0,1.5-1.3,2.8-2.8,2.8c-1.5,0-2.8-1.3-2.8-2.8
			C574.6,696.4,575.9,695.2,577.4,695.2L577.4,695.2z"/>
		<path class="st2" d="M535.9,677.4c34.6,0,62.7,28.1,62.7,62.6c0,34.6-28.1,62.7-62.7,62.7c-34.5,0-62.6-28.1-62.6-62.7
			C473.3,705.5,501.5,677.4,535.9,677.4L535.9,677.4z M535.9,678.9c-33.7,0-61.1,27.4-61.1,61.1c0,33.8,27.4,61,61.1,61
			c33.8,0,61.2-27.3,61.2-61C597.1,706.3,569.7,678.9,535.9,678.9L535.9,678.9z"/>
		<rect x="500.5" y="698" class="st5" width="20.8" height="0"/>
		<rect x="538" y="698" class="st5" width="33.3" height="0"/>
		<rect x="488" y="710" class="st5" width="54.2" height="0"/>
		<rect x="554.7" y="718" class="st5" width="33.3" height="0"/>
		<rect x="480" y="731" class="st2" width="66" height="4"/>
		<rect x="504.7" y="752" class="st5" width="83.3" height="0"/>
		<rect x="525.5" y="768" class="st5" width="58.3" height="0"/>
		<rect x="509" y="785" class="st2" width="46" height="4"/>
	</g>
</g>
</svg>
