<?xml version="1.0" encoding="utf-8"?>
<!-- Generator: Adobe Illustrator 19.0.0, SVG Export Plug-In . SVG Version: 6.00 Build 0)  -->
<svg version="1.1" id="Capa_1" xmlns="http://www.w3.org/2000/svg" xmlns:xlink="http://www.w3.org/1999/xlink" x="0px" y="0px"
	 viewBox="151.7 164 220 177" style="enable-background:new 151.7 164 220 177;" xml:space="preserve">
<style type="text/css">
	.st0{opacity:0.2;fill:#1E1A21;}
	.st1{fill:url(#SVGID_1_);}
	.st2{fill:url(#SVGID_2_);}
	.st3{fill:url(#SVGID_3_);}
	.st4{fill:url(#SVGID_4_);}
	.st5{fill:url(#SVGID_5_);}
	.st6{fill:url(#SVGID_6_);}
	.st7{opacity:0.25;fill:url(#SVGID_7_);}
	.st8{fill:url(#SVGID_8_);}
	.st9{fill:url(#SVGID_9_);}
	.st10{opacity:0.6;fill:url(#SVGID_10_);}
	.st11{fill:url(#SVGID_11_);}
	.st12{fill:url(#SVGID_12_);}
	.st13{fill:url(#SVGID_13_);}
	.st14{fill:url(#SVGID_14_);}
	.st15{fill:url(#SVGID_15_);}
	.st16{fill:#3D20B7;}
	.st17{fill:url(#SVGID_16_);}
	.st18{fill:url(#SVGID_17_);}
</style>
<path class="st0" d="M197.8,283.8c0,0-2.5,1.3,0.4,4.4c2.9,3.2,63.8,36.7,63.8,36.7s5,2.6,8.8,0l55.5-32.5c0,0,1.4-2.1-1.5-3.6
	l-63.8-36.9c0,0-3.2-2.5-7.5,0S197.8,283.8,197.8,283.8z"/>
<linearGradient id="SVGID_1_" gradientUnits="userSpaceOnUse" x1="196.7528" y1="271.9028" x2="326.5865" y2="271.9028">
	<stop  offset="0" style="stop-color:#4F3E90"/>
	<stop  offset="1" style="stop-color:#171A31"/>
</linearGradient>
<path class="st1" d="M197.8,267.3c0,0-2.5,1.3,0.4,4.4c2.9,3.2,63.8,36.7,63.8,36.7s5,2.6,8.8,0l55.5-32.5c0,0,1.4-2.1-1.5-3.6
	l-63.8-36.9c0,0-3.2-2.5-7.5,0S197.8,267.3,197.8,267.3z"/>
<linearGradient id="SVGID_2_" gradientUnits="userSpaceOnUse" x1="196.7527" y1="293.0509" x2="326.6148" y2="293.0509">
	<stop  offset="0" style="stop-color:#463780"/>
	<stop  offset="0.1433" style="stop-color:#382E68"/>
	<stop  offset="0.3308" style="stop-color:#292550"/>
	<stop  offset="0.5289" style="stop-color:#1F1F3F"/>
	<stop  offset="0.7426" style="stop-color:#191B34"/>
	<stop  offset="1" style="stop-color:#171A31"/>
</linearGradient>
<path class="st2" d="M196.8,276.4v-7.6c0,0,0,2,2.2,3.6c2.3,1.5,17.7,10.7,17.7,10.7l23.1,13l21.9,12.2c0,0,4.9,2.7,8.8,0.4
	s55.8-32.7,55.8-32.7s0.5-0.7,0.3-1.8l0,8.2c0,0.7-0.4,1.4-1,1.7l-54.4,31.7c0,0-5.5,4.1-10.9-0.9l-62.5-36.6
	C197.2,277.9,196.8,277.1,196.8,276.4L196.8,276.4z"/>
<linearGradient id="SVGID_3_" gradientUnits="userSpaceOnUse" x1="196.7528" y1="253.9028" x2="326.5865" y2="253.9028">
	<stop  offset="0" style="stop-color:#4F3E90"/>
	<stop  offset="1" style="stop-color:#171A31"/>
</linearGradient>
<path class="st3" d="M197.8,249.3c0,0-2.5,1.3,0.4,4.4c2.9,3.2,63.8,36.7,63.8,36.7s5,2.6,8.8,0l55.5-32.5c0,0,1.4-2.1-1.5-3.6
	l-63.8-36.9c0,0-3.2-2.5-7.5,0S197.8,249.3,197.8,249.3z"/>
<linearGradient id="SVGID_4_" gradientUnits="userSpaceOnUse" x1="196.7527" y1="275.0509" x2="326.6148" y2="275.0509">
	<stop  offset="0" style="stop-color:#463780"/>
	<stop  offset="0.1433" style="stop-color:#382E68"/>
	<stop  offset="0.3308" style="stop-color:#292550"/>
	<stop  offset="0.5289" style="stop-color:#1F1F3F"/>
	<stop  offset="0.7426" style="stop-color:#191B34"/>
	<stop  offset="1" style="stop-color:#171A31"/>
</linearGradient>
<path class="st4" d="M196.8,258.4v-7.6c0,0,0,2,2.2,3.6s17.7,10.7,17.7,10.7l23.1,13l21.9,12.2c0,0,4.9,2.7,8.8,0.4
	s55.8-32.7,55.8-32.7s0.5-0.7,0.3-1.8l0,8.2c0,0.7-0.4,1.4-1,1.7l-54.4,31.7c0,0-5.5,4.1-10.9-0.9l-62.5-36.6
	C197.2,259.9,196.8,259.1,196.8,258.4L196.8,258.4z"/>
<linearGradient id="SVGID_5_" gradientUnits="userSpaceOnUse" x1="196.7528" y1="235.9028" x2="326.5865" y2="235.9028">
	<stop  offset="0" style="stop-color:#4F3E90"/>
	<stop  offset="1" style="stop-color:#171A31"/>
</linearGradient>
<path class="st5" d="M197.8,231.3c0,0-2.5,1.3,0.4,4.4c2.9,3.2,63.8,36.7,63.8,36.7s5,2.6,8.8,0l55.5-32.5c0,0,1.4-2.1-1.5-3.6
	l-63.8-36.9c0,0-3.2-2.5-7.5,0S197.8,231.3,197.8,231.3z"/>
<linearGradient id="SVGID_6_" gradientUnits="userSpaceOnUse" x1="196.7527" y1="257.0509" x2="326.6148" y2="257.0509">
	<stop  offset="0" style="stop-color:#463780"/>
	<stop  offset="0.1433" style="stop-color:#382E68"/>
	<stop  offset="0.3308" style="stop-color:#292550"/>
	<stop  offset="0.5289" style="stop-color:#1F1F3F"/>
	<stop  offset="0.7426" style="stop-color:#191B34"/>
	<stop  offset="1" style="stop-color:#171A31"/>
</linearGradient>
<path class="st6" d="M196.8,240.4v-7.6c0,0,0,2,2.2,3.6s17.7,10.7,17.7,10.7l23.1,13l21.9,12.2c0,0,4.9,2.7,8.8,0.4
	s55.8-32.7,55.8-32.7s0.5-0.7,0.3-1.8l0,8.2c0,0.7-0.4,1.4-1,1.7l-54.4,31.7c0,0-5.5,4.1-10.9-0.9l-62.5-36.6
	C197.2,241.9,196.8,241.1,196.8,240.4L196.8,240.4z"/>
<linearGradient id="SVGID_7_" gradientUnits="userSpaceOnUse" x1="254.9109" y1="267.2647" x2="271.7429" y2="204.4472">
	<stop  offset="0" style="stop-color:#4F3E90;stop-opacity:0.6"/>
	<stop  offset="1" style="stop-color:#171ABF;stop-opacity:0.4"/>
</linearGradient>
<path class="st7" d="M204.6,231.6c0,0-2.3,1.1,0.4,4.1c2.7,2.9,58.6,33.7,58.6,33.7s4.6,2.4,8,0l51-29.8c0,0,1.3-2-1.4-3.3
	l-58.6-33.9c0,0-2.9-2.3-6.9,0C251.8,204.6,204.6,231.6,204.6,231.6z"/>
<g>
	<linearGradient id="SVGID_8_" gradientUnits="userSpaceOnUse" x1="196.7528" y1="217.9028" x2="326.5865" y2="217.9028">
		<stop  offset="0" style="stop-color:#4F3E90"/>
		<stop  offset="1" style="stop-color:#171A31"/>
	</linearGradient>
	<path class="st8" d="M197.8,213.3c0,0-2.5,1.3,0.4,4.4c2.9,3.2,63.8,36.7,63.8,36.7s5,2.6,8.8,0l55.5-32.5c0,0,1.4-2.1-1.5-3.6
		l-63.8-36.9c0,0-3.2-2.5-7.5,0S197.8,213.3,197.8,213.3z"/>
	<linearGradient id="SVGID_9_" gradientUnits="userSpaceOnUse" x1="196.7527" y1="239.0509" x2="326.6148" y2="239.0509">
		<stop  offset="0" style="stop-color:#463780"/>
		<stop  offset="0.1433" style="stop-color:#382E68"/>
		<stop  offset="0.3308" style="stop-color:#292550"/>
		<stop  offset="0.5289" style="stop-color:#1F1F3F"/>
		<stop  offset="0.7426" style="stop-color:#191B34"/>
		<stop  offset="1" style="stop-color:#171A31"/>
	</linearGradient>
	<path class="st9" d="M196.8,222.4v-7.6c0,0,0,2,2.2,3.6s17.7,10.7,17.7,10.7l23.1,13l21.9,12.2c0,0,4.9,2.7,8.8,0.4
		s55.8-32.7,55.8-32.7s0.5-0.7,0.3-1.8l0,8.2c0,0.7-0.4,1.4-1,1.7l-54.4,31.7c0,0-5.5,4.1-10.9-0.9l-62.5-36.6
		C197.2,223.9,196.8,223.1,196.8,222.4L196.8,222.4z"/>
</g>
<linearGradient id="SVGID_10_" gradientUnits="userSpaceOnUse" x1="225.7966" y1="223.1291" x2="310.8333" y2="223.1291">
	<stop  offset="0" style="stop-color:#463780"/>
	<stop  offset="0.1433" style="stop-color:#382E68"/>
	<stop  offset="0.3308" style="stop-color:#292550"/>
	<stop  offset="0.5289" style="stop-color:#1F1F3F"/>
	<stop  offset="0.7426" style="stop-color:#191B34"/>
	<stop  offset="1" style="stop-color:#171A31"/>
</linearGradient>
<polygon class="st10" points="225.8,213.4 269.5,239.8 310.8,217.7 306.7,217.3 263.8,206.5 "/>
<g>
	<linearGradient id="SVGID_11_" gradientUnits="userSpaceOnUse" x1="225.7966" y1="215.2885" x2="266.7686" y2="215.2885">
		<stop  offset="1.916698e-007" style="stop-color:#7F00FF"/>
		<stop  offset="0.4889" style="stop-color:#7D00FF"/>
		<stop  offset="0.665" style="stop-color:#7600FF"/>
		<stop  offset="0.7905" style="stop-color:#6B00FF"/>
		<stop  offset="0.892" style="stop-color:#5A00FF"/>
		<stop  offset="0.9779" style="stop-color:#4400FF"/>
		<stop  offset="1" style="stop-color:#3D00FF"/>
	</linearGradient>
	<polygon class="st11" points="225.8,210.8 238.5,203.4 266.8,219.7 254.1,227.1 	"/>
	<linearGradient id="SVGID_12_" gradientUnits="userSpaceOnUse" x1="254.0535" y1="227.5225" x2="280.9144" y2="227.5225">
		<stop  offset="2.945171e-007" style="stop-color:#3F00FC"/>
		<stop  offset="0.2077" style="stop-color:#3F02F7"/>
		<stop  offset="0.4672" style="stop-color:#3E09E7"/>
		<stop  offset="0.7531" style="stop-color:#3E14CE"/>
		<stop  offset="1" style="stop-color:#3D20B2"/>
	</linearGradient>
	<polygon class="st12" points="280.9,227.9 266.8,219.7 254.1,227.1 268.2,235.3 	"/>
	<linearGradient id="SVGID_13_" gradientUnits="userSpaceOnUse" x1="249.1104" y1="204.5891" x2="258.6779" y2="240.2955">
		<stop  offset="2.945171e-007" style="stop-color:#851CB7"/>
		<stop  offset="1" style="stop-color:#3D20B7"/>
	</linearGradient>
	<polygon class="st13" points="225.8,210.8 225.8,213 268.1,237.8 280.9,230.3 280.9,227.9 268.2,235.3 	"/>
	<linearGradient id="SVGID_14_" gradientUnits="userSpaceOnUse" x1="244.326" y1="202.3561" x2="263.0294" y2="202.3561">
		<stop  offset="2.945171e-007" style="stop-color:#3F00FC"/>
		<stop  offset="0.2077" style="stop-color:#3F02F7"/>
		<stop  offset="0.4672" style="stop-color:#3E09E7"/>
		<stop  offset="0.7531" style="stop-color:#3E14CE"/>
		<stop  offset="1" style="stop-color:#3D20B2"/>
	</linearGradient>
	<polygon class="st14" points="244.3,204.1 246.2,199 261.9,189.8 263,214.9 	"/>
	<linearGradient id="SVGID_15_" gradientUnits="userSpaceOnUse" x1="266.0305" y1="215.9235" x2="304.2534" y2="215.9235">
		<stop  offset="1.916698e-007" style="stop-color:#7F00FF"/>
		<stop  offset="0.2224" style="stop-color:#7A00FF"/>
		<stop  offset="0.5003" style="stop-color:#6A00FF"/>
		<stop  offset="0.8064" style="stop-color:#5100FF"/>
		<stop  offset="1" style="stop-color:#3D00FF"/>
	</linearGradient>
	<polygon class="st15" points="266,216.6 266.1,205.3 304.3,214.3 283.2,226.6 	"/>
	<polygon class="st16" points="266,216.6 283.2,226.6 304.3,214.3 304.3,216.6 283.2,229.2 266,219.3 	"/>
	<polygon class="st16" points="244.3,204.1 244.3,206.8 263,217.6 263,214.9 	"/>
	<linearGradient id="SVGID_16_" gradientUnits="userSpaceOnUse" x1="273.717" y1="229.8364" x2="275.3243" y2="235.8351">
		<stop  offset="2.945171e-007" style="stop-color:#3F00FC"/>
		<stop  offset="0.12" style="stop-color:#3D01F7"/>
		<stop  offset="0.27" style="stop-color:#3804E7"/>
		<stop  offset="0.436" style="stop-color:#2F08CE"/>
		<stop  offset="0.6136" style="stop-color:#230EAA"/>
		<stop  offset="0.8005" style="stop-color:#14167C"/>
		<stop  offset="0.9923" style="stop-color:#012045"/>
		<stop  offset="1" style="stop-color:#002043"/>
	</linearGradient>
	<polygon class="st17" points="268.2,235.3 268.1,237.8 280.9,230.3 280.9,227.9 	"/>
	<linearGradient id="SVGID_17_" gradientUnits="userSpaceOnUse" x1="292.5758" y1="217.4353" x2="294.8984" y2="226.1033">
		<stop  offset="2.945171e-007" style="stop-color:#3F00FC"/>
		<stop  offset="0.12" style="stop-color:#3D01F7"/>
		<stop  offset="0.27" style="stop-color:#3804E7"/>
		<stop  offset="0.436" style="stop-color:#2F08CE"/>
		<stop  offset="0.6136" style="stop-color:#230EAA"/>
		<stop  offset="0.8005" style="stop-color:#14167C"/>
		<stop  offset="0.9923" style="stop-color:#012045"/>
		<stop  offset="1" style="stop-color:#002043"/>
	</linearGradient>
	<polygon class="st18" points="283.2,226.6 283.2,229.2 304.3,216.6 304.3,214.3 	"/>
</g>
</svg>
