<svg xmlns="http://www.w3.org/2000/svg" viewBox="6 -6 512 512" style="enable-background:new 6 -6 512 512" xml:space="preserve"><switch><g><linearGradient id="a" gradientUnits="userSpaceOnUse" x1="6" y1="321.733" x2="518" y2="321.733"><stop offset="0" style="stop-color:#7f00ff"/><stop offset="1" style="stop-color:#3f00fc"/></linearGradient><path d="M483.9 193.7H185.2c0-37.7-30.6-68.3-68.3-68.3S48.7 156 48.7 193.7h-8.5C21.3 193.7 6 209 6 227.9v256C6 502.7 21.3 518 40.1 518h443.7c18.9 0 34.1-15.3 34.1-34.1v-256c.1-18.9-15.2-34.2-34-34.2zm-367-51.2c28.3 0 51.2 22.9 51.2 51.2s-22.9 51.2-51.2 51.2-51.2-22.9-51.2-51.2c.1-28.2 23-51.1 51.2-51.2zM65.7 244.9h6.2c25.7 22.8 64.3 22.8 90 0h91.5v42.7h17.1v-42.7h162.1v221.9H65.7V244.9zm435.2 239c0 9.4-7.6 17.1-17.1 17.1H40.1c-9.4 0-17.1-7.6-17.1-17.1v-256c0-9.4 7.6-17.1 17.1-17.1h10.8c1.5 6 3.9 11.7 7 17.1h-.7c-4.7 0-8.5 3.8-8.5 8.5v238.9c0 4.7 3.8 8.5 8.5 8.5h384c4.7 0 8.5-3.8 8.5-8.5V236.4c0-4.7-3.8-8.5-8.5-8.5H176c3.1-5.3 5.4-11.1 7-17.1h300.9c9.4 0 17.1 7.6 17.1 17.1v256z" style="fill:url(#a)"/><linearGradient id="b" gradientUnits="userSpaceOnUse" x1="151.067" y1="368.501" x2="364.4" y2="368.501"><stop offset="0" style="stop-color:#7f00ff"/><stop offset="1" style="stop-color:#3f00fc"/></linearGradient><path d="M334.8 415.6c2.7-8.3 4-16.9 4-25.6.2-47.1-37.9-85.5-85-85.7-47.1-.2-85.5 37.9-85.7 85 0 8.9 1.3 17.8 4 26.3H151v17.1h213.3v-17.1h-29.5zm-64.3 0h-25.6v-17.1h25.6c4.7 0 8.5 3.8 8.5 8.5.1 4.8-3.8 8.6-8.5 8.6zm0-34.1h-25.6v-17.1h25.6c4.7 0 8.5 3.8 8.5 8.5.1 4.7-3.8 8.6-8.5 8.6zm46.2 34.1h-22.1c3.3-8.8 1.3-18.7-5.1-25.6 9.5-10.3 8.8-26.4-1.6-35.8-2.6-2.3-5.6-4.1-8.8-5.3v-10.1H262v8.5h-17.1v-8.5h-17.1v8.5h-8.5v17.1h8.5v51.2h-37.6c-3.3-8.1-5.1-16.8-5.1-25.6 0-37.7 30.6-68.3 68.3-68.3s68.3 30.6 68.3 68.3c0 8.8-1.7 17.5-5 25.6z" style="fill:url(#b)"/><linearGradient id="c" gradientUnits="userSpaceOnUse" x1="296.133" y1="108.4" x2="432.667" y2="108.4"><stop offset="0" style="stop-color:#7f00ff"/><stop offset="1" style="stop-color:#3f00fc"/></linearGradient><path d="M364.4 40.1c-37.7 0-68.2 30.6-68.3 68.3 0 37.7 30.6 68.3 68.3 68.3s68.3-30.6 68.3-68.3-30.6-68.3-68.3-68.3zm0 119.5c-28.3 0-51.2-22.9-51.2-51.2s22.9-51.2 51.2-51.2c28.3 0 51.2 22.9 51.2 51.2 0 28.3-22.9 51.2-51.2 51.2z" style="fill:url(#c)"/><linearGradient id="d" gradientUnits="userSpaceOnUse" x1="279.067" y1="35.867" x2="296.133" y2="35.867"><stop offset="0" style="stop-color:#7f00ff"/><stop offset="1" style="stop-color:#3f00fc"/></linearGradient><path style="fill:url(#d)" d="M279.1 6h17.1v59.7h-17.1z"/><linearGradient id="e" gradientUnits="userSpaceOnUse" x1="407.067" y1="18.8" x2="424.133" y2="18.8"><stop offset="0" style="stop-color:#7f00ff"/><stop offset="1" style="stop-color:#3f00fc"/></linearGradient><path style="fill:url(#e)" d="M407.1 6h17.1v25.6h-17.1z"/><linearGradient id="f" gradientUnits="userSpaceOnUse" x1="236.4" y1="104.133" x2="253.467" y2="104.133"><stop offset="0" style="stop-color:#7f00ff"/><stop offset="1" style="stop-color:#3f00fc"/></linearGradient><path style="fill:url(#f)" d="M236.4 65.7h17.1v76.8h-17.1z"/><linearGradient id="g" gradientUnits="userSpaceOnUse" x1="173.9" y1="44.4" x2="190.967" y2="44.4"><stop offset="0" style="stop-color:#7f00ff"/><stop offset="1" style="stop-color:#3f00fc"/></linearGradient><path style="fill:url(#g)" d="M173.9 6H191v76.8h-17.1z"/><linearGradient id="h" gradientUnits="userSpaceOnUse" x1="82.8" y1="18.8" x2="99.867" y2="18.8"><stop offset="0" style="stop-color:#7f00ff"/><stop offset="1" style="stop-color:#3f00fc"/></linearGradient><path style="fill:url(#h)" d="M82.8 6h17.1v25.6H82.8z"/><linearGradient id="i" gradientUnits="userSpaceOnUse" x1="338.8" y1="108.4" x2="390" y2="108.4"><stop offset="0" style="stop-color:#7f00ff"/><stop offset="1" style="stop-color:#3f00fc"/></linearGradient><path d="M390 95.6c0-11.8-9.6-21.3-21.3-21.3h-21.3c-4.7 0-8.5 3.8-8.5 8.5V134c0 4.7 3.8 8.5 8.5 8.5h21.3c11.8 0 21.3-9.6 21.3-21.3 0-4.6-1.6-9.1-4.4-12.8 2.8-3.7 4.4-8.2 4.4-12.8zm-21.3 29.9h-12.8V117h12.8c2.4 0 4.3 1.9 4.3 4.3-.1 2.3-2 4.2-4.3 4.2zm0-25.6h-12.8v-8.5h12.8c2.4 0 4.3 1.9 4.3 4.3-.1 2.3-2 4.2-4.3 4.2z" style="fill:url(#i)"/><linearGradient id="j" gradientUnits="userSpaceOnUse" x1="279.067" y1="159.6" x2="296.133" y2="159.6"><stop offset="0" style="stop-color:#7f00ff"/><stop offset="1" style="stop-color:#3f00fc"/></linearGradient><path style="fill:url(#j)" d="M279.1 151.1h17.1v17.1h-17.1z"/><linearGradient id="k" gradientUnits="userSpaceOnUse" x1="173.9" y1="112.667" x2="190.967" y2="112.667"><stop offset="0" style="stop-color:#7f00ff"/><stop offset="1" style="stop-color:#3f00fc"/></linearGradient><path style="fill:url(#k)" d="M173.9 104.1H191v17.1h-17.1z"/><linearGradient id="l" gradientUnits="userSpaceOnUse" x1="142.533" y1="270.533" x2="159.6" y2="270.533"><stop offset="0" style="stop-color:#7f00ff"/><stop offset="1" style="stop-color:#3f00fc"/></linearGradient><path style="fill:url(#l)" d="M142.5 262h17.1v17.1h-17.1z"/><linearGradient id="m" gradientUnits="userSpaceOnUse" x1="142.533" y1="321.733" x2="159.6" y2="321.733"><stop offset="0" style="stop-color:#7f00ff"/><stop offset="1" style="stop-color:#3f00fc"/></linearGradient><path style="fill:url(#m)" d="M142.5 296.1h17.1v51.2h-17.1z"/><linearGradient id="n" gradientUnits="userSpaceOnUse" x1="108.4" y1="48.667" x2="125.467" y2="48.667"><stop offset="0" style="stop-color:#7f00ff"/><stop offset="1" style="stop-color:#3f00fc"/></linearGradient><path style="fill:url(#n)" d="M108.4 40.1h17.1v17.1h-17.1z"/><linearGradient id="o" gradientUnits="userSpaceOnUse" x1="108.4" y1="91.333" x2="125.467" y2="91.333"><stop offset="0" style="stop-color:#7f00ff"/><stop offset="1" style="stop-color:#3f00fc"/></linearGradient><path style="fill:url(#o)" d="M108.4 74.3h17.1v34.1h-17.1z"/><linearGradient id="p" gradientUnits="userSpaceOnUse" x1="236.4" y1="40.133" x2="253.467" y2="40.133"><stop offset="0" style="stop-color:#7f00ff"/><stop offset="1" style="stop-color:#3f00fc"/></linearGradient><path style="fill:url(#p)" d="M236.4 31.6h17.1v17.1h-17.1z"/><linearGradient id="q" gradientUnits="userSpaceOnUse" x1="330.267" y1="296.133" x2="398.533" y2="296.133"><stop offset="0" style="stop-color:#7f00ff"/><stop offset="1" style="stop-color:#3f00fc"/></linearGradient><path d="M364.4 262c-18.9 0-34.1 15.3-34.1 34.1s15.3 34.1 34.1 34.1 34.1-15.3 34.1-34.1-15.2-34.1-34.1-34.1zm0 51.2c-9.4 0-17.1-7.6-17.1-17.1s7.6-17.1 17.1-17.1 17.1 7.6 17.1 17.1-7.7 17.1-17.1 17.1z" style="fill:url(#q)"/><linearGradient id="r" gradientUnits="userSpaceOnUse" x1="91.333" y1="193.733" x2="142.533" y2="193.733"><stop offset="0" style="stop-color:#7f00ff"/><stop offset="1" style="stop-color:#3f00fc"/></linearGradient><path d="M142.5 180.9c0-11.8-9.6-21.3-21.3-21.3H99.9c-4.7 0-8.5 3.8-8.5 8.5v51.2c0 4.7 3.8 8.5 8.5 8.5h21.3c11.8 0 21.3-9.6 21.3-21.3 0-4.6-1.6-9.1-4.4-12.8 2.9-3.6 4.4-8.1 4.4-12.8zm-21.3 29.9h-12.8v-8.5h12.8c2.4 0 4.3 1.9 4.3 4.3 0 2.3-1.9 4.2-4.3 4.2zm0-25.6h-12.8v-8.5h12.8c2.4 0 4.3 1.9 4.3 4.3s-1.9 4.2-4.3 4.2z" style="fill:url(#r)"/></g></switch></svg>