<svg xmlns="http://www.w3.org/2000/svg" viewBox="6 -6 512 512" style="enable-background:new 6 -6 512 512" xml:space="preserve"><switch><g><linearGradient id="a" gradientUnits="userSpaceOnUse" x1="114.852" y1="128.445" x2="172.441" y2="128.445"><stop offset="0" style="stop-color:#0f9"/><stop offset="1" style="stop-color:#3cf"/></linearGradient><path d="M171.4 135.1c-.8-2.5-2.2-4.7-3.9-6.6 7.1-7.7 6.6-19.8-1.2-26.9-1.9-1.8-4.2-3.1-6.6-3.9v-7.6h-12.8v6.4H134v-6.4h-12.8v6.4h-6.4v12.8h6.4v38.4h-6.4v12.8h6.4v6.4H134v-6.4h12.8v6.4h12.8v-7.6c10-3.5 15.2-14.3 11.8-24.2zm-18.2 12.5H134v-12.8h19.2c3.5 0 6.4 2.9 6.4 6.4 0 3.6-2.8 6.4-6.4 6.4zm0-25.6H134v-12.8h19.2c3.5 0 6.4 2.9 6.4 6.4 0 3.6-2.8 6.4-6.4 6.4z" style="fill:url(#a)"/><linearGradient id="b" gradientUnits="userSpaceOnUse" x1="357.975" y1="371.567" x2="415.564" y2="371.567"><stop offset="0" style="stop-color:#0f9"/><stop offset="1" style="stop-color:#3cf"/></linearGradient><path d="M414.5 378.2c-.8-2.5-2.2-4.7-3.9-6.6 7.1-7.7 6.6-19.8-1.2-26.9-1.9-1.8-4.2-3.1-6.6-3.9v-7.6H390v6.4h-12.8v-6.4h-12.8v6.4H358v12.8h6.4v38.4H358v12.8h6.4v6.4h12.8v-6.4H390v6.4h12.8v-7.6c9.9-3.5 15.1-14.3 11.7-24.2zm-18.1 12.6h-19.2V378h19.2c3.5 0 6.4 2.9 6.4 6.4 0 3.5-2.9 6.4-6.4 6.4zm0-25.6h-19.2v-12.8h19.2c3.5 0 6.4 2.9 6.4 6.4 0 3.5-2.9 6.4-6.4 6.4z" style="fill:url(#b)"/><linearGradient id="c" gradientUnits="userSpaceOnUse" x1="230.015" y1="250.006" x2="287.604" y2="250.006"><stop offset="0" style="stop-color:#0f9"/><stop offset="1" style="stop-color:#3cf"/></linearGradient><path d="M286.6 256.6c-.8-2.5-2.2-4.7-3.9-6.6 7.1-7.7 6.6-19.8-1.2-26.9-1.9-1.8-4.2-3.1-6.6-3.9v-7.6H262v6.4h-12.8v-6.4h-12.8v6.4H230v12.8h6.4v38.4H230V282h6.4v6.4h12.8V282H262v6.4h12.8v-7.6c9.9-3.4 15.2-14.2 11.8-24.2zm-18.2 12.6h-19.2v-12.8h19.2c3.5 0 6.4 2.9 6.4 6.4 0 3.5-2.9 6.4-6.4 6.4zm0-25.6h-19.2v-12.8h19.2c3.5 0 6.4 2.9 6.4 6.4 0 3.5-2.9 6.4-6.4 6.4z" style="fill:url(#c)"/><linearGradient id="d" gradientUnits="userSpaceOnUse" x1="357.975" y1="128.445" x2="415.564" y2="128.445"><stop offset="0" style="stop-color:#0f9"/><stop offset="1" style="stop-color:#3cf"/></linearGradient><path d="M414.5 135.1c-.8-2.5-2.2-4.7-3.9-6.6 7.1-7.7 6.6-19.8-1.2-26.9-1.9-1.8-4.2-3.1-6.6-3.9v-7.6H390v6.4h-12.8v-6.4h-12.8v6.4H358v12.8h6.4v38.4H358v12.8h6.4v6.4h12.8v-6.4H390v6.4h12.8v-7.6c9.9-3.5 15.1-14.3 11.7-24.2zm-18.1 12.5h-19.2v-12.8h19.2c3.5 0 6.4 2.9 6.4 6.4 0 3.6-2.9 6.4-6.4 6.4zm0-25.6h-19.2v-12.8h19.2c3.5 0 6.4 2.9 6.4 6.4 0 3.6-2.9 6.4-6.4 6.4z" style="fill:url(#d)"/><linearGradient id="e" gradientUnits="userSpaceOnUse" x1="114.852" y1="371.567" x2="172.441" y2="371.567"><stop offset="0" style="stop-color:#0f9"/><stop offset="1" style="stop-color:#3cf"/></linearGradient><path d="M171.4 378.2c-.8-2.5-2.2-4.7-3.9-6.6 7.1-7.7 6.6-19.8-1.2-26.9-1.9-1.8-4.2-3.1-6.6-3.9v-7.6h-12.8v6.4H134v-6.4h-12.8v6.4h-6.4v12.8h6.4v38.4h-6.4v12.8h6.4v6.4H134v-6.4h12.8v6.4h12.8v-7.6c10-3.5 15.2-14.3 11.8-24.2zm-18.2 12.6H134V378h19.2c3.5 0 6.4 2.9 6.4 6.4 0 3.5-2.8 6.4-6.4 6.4zm0-25.6H134v-12.8h19.2c3.5 0 6.4 2.9 6.4 6.4 0 3.5-2.8 6.4-6.4 6.4z" style="fill:url(#e)"/><linearGradient id="f" gradientUnits="userSpaceOnUse" x1="69.997" y1="250" x2="454.003" y2="250"><stop offset="0" style="stop-color:#0f9"/><stop offset="1" style="stop-color:#3cf"/></linearGradient><path d="M390 301.5v-103c38.7-3.5 67.3-37.7 63.7-76.4S416 54.8 377.3 58.3c-31.4 2.8-57.1 26.3-62.9 57.3H209.6c-7-38.2-43.7-63.5-82-56.5-38.2 7-63.5 43.7-56.5 82 5.7 31.1 31.4 54.5 62.9 57.3v103c-36.2 3.3-63.9 33.7-64 70.1.2 38.9 31.9 70.2 70.7 70 36.1-.2 66.2-27.7 69.7-63.6h103c3.5 38.7 37.7 67.2 76.5 63.7 38.7-3.5 67.2-37.7 63.7-76.5-3-33.7-29.8-60.5-63.6-63.6zm-6.4-230.6c31.8 0 57.6 25.8 57.6 57.6s-25.8 57.6-57.6 57.6-57.6-25.8-57.6-57.6 25.8-57.6 57.6-57.6zM198 250c0-31.8 25.8-57.6 57.6-57.6s57.5 25.8 57.6 57.6c0 31.8-25.8 57.6-57.6 57.6S198 281.8 198 250zm6.6 48.4-19.2 19.2c-10.9-9.1-24.4-14.7-38.6-16v-103c14.2-1.3 27.7-6.9 38.6-16l19.2 19.2c-12.4 13-19.4 30.3-19.4 48.3 0 17.9 7 35.2 19.4 48.3zm107.8-89.8 26.1-26.1c10.9 9.1 24.4 14.7 38.6 16v103c-14.2 1.3-27.7 6.9-38.6 16l-26.1-26.1c18.1-24.6 18.1-58.1 0-82.8zm-101.6-80.2h102.4c0 16.5 5.8 32.4 16.3 45L304 199c-24.5-23.4-62.4-25.9-89.7-5.8l-19.7-19.7c10.5-12.7 16.2-28.6 16.2-45.1zm-127.9 0c0-31.8 25.8-57.6 57.6-57.6S198 96.6 198 128.4 172.2 186 140.4 186c-31.7 0-57.5-25.8-57.5-57.6zm57.5 300.7c-31.8 0-57.6-25.8-57.6-57.6s25.8-57.5 57.6-57.6c31.8 0 57.6 25.8 57.6 57.6s-25.8 57.6-57.6 57.6zm70.1-63.9c-1.3-14.2-6.9-27.7-16-38.6l19.7-19.7c27.4 20.1 65.2 17.6 89.7-5.8l25.6 25.6c-9.1 10.9-14.7 24.4-16 38.6h-103zm173.1 63.9c-31.8 0-57.6-25.8-57.6-57.6s25.8-57.6 57.6-57.6 57.5 25.8 57.6 57.6c-.1 31.9-25.8 57.6-57.6 57.6z" style="fill:url(#f)"/></g></switch></svg>