<svg xmlns="http://www.w3.org/2000/svg" viewBox="6 -6 512 512" style="enable-background:new 6 -6 512 512" xml:space="preserve"><switch><g><linearGradient id="a" gradientUnits="userSpaceOnUse" x1="233.785" y1="221.784" x2="374.865" y2="221.784"><stop offset="0" style="stop-color:#0f9"/><stop offset="1" style="stop-color:#3cf"/></linearGradient><path d="M304.3 151.2c-39 0-70.5 31.6-70.5 70.5s31.6 70.5 70.5 70.5c39 0 70.5-31.6 70.5-70.5s-31.5-70.5-70.5-70.5zm0 127c-31.2 0-56.4-25.3-56.4-56.4 0-31.2 25.3-56.4 56.4-56.4 31.2 0 56.4 25.3 56.4 56.4s-25.2 56.4-56.4 56.4z" style="fill:url(#a)"/><linearGradient id="b" gradientUnits="userSpaceOnUse" x1="127.975" y1="137.136" x2="240.839" y2="137.136"><stop offset="0" style="stop-color:#0f9"/><stop offset="1" style="stop-color:#3cf"/></linearGradient><path d="M184.4 80.7c-31.2 0-56.4 25.3-56.4 56.4s25.3 56.4 56.4 56.4c31.2 0 56.4-25.3 56.4-56.4 0-31.1-25.2-56.4-56.4-56.4zm0 98.8c-23.4 0-42.3-19-42.3-42.3 0-23.4 18.9-42.3 42.3-42.3s42.3 18.9 42.3 42.3-18.9 42.3-42.3 42.3z" style="fill:url(#b)"/><linearGradient id="c" gradientUnits="userSpaceOnUse" x1="311.379" y1="94.812" x2="424.243" y2="94.812"><stop offset="0" style="stop-color:#0f9"/><stop offset="1" style="stop-color:#3cf"/></linearGradient><path d="M367.8 38.4c-31.2 0-56.4 25.3-56.4 56.4s25.3 56.4 56.4 56.4c31.2 0 56.4-25.3 56.4-56.4 0-31.2-25.2-56.4-56.4-56.4zm0 98.7c-23.4 0-42.3-18.9-42.3-42.3s18.9-42.3 42.3-42.3 42.3 18.9 42.3 42.3-18.9 42.3-42.3 42.3z" style="fill:url(#c)"/><linearGradient id="d" gradientUnits="userSpaceOnUse" x1="417.189" y1="211.203" x2="431.297" y2="211.203"><stop offset="0" style="stop-color:#0f9"/><stop offset="1" style="stop-color:#3cf"/></linearGradient><path style="fill:url(#d)" d="M417.2 186.5h14.1v49.4h-14.1z"/><linearGradient id="e" gradientUnits="userSpaceOnUse" x1="417.189" y1="165.352" x2="431.297" y2="165.352"><stop offset="0" style="stop-color:#0f9"/><stop offset="1" style="stop-color:#3cf"/></linearGradient><path style="fill:url(#e)" d="M417.2 158.3h14.1v14.1h-14.1z"/><linearGradient id="f" gradientUnits="userSpaceOnUse" x1="170.299" y1="260.581" x2="184.407" y2="260.581"><stop offset="0" style="stop-color:#0f9"/><stop offset="1" style="stop-color:#3cf"/></linearGradient><path style="fill:url(#f)" d="M170.3 235.9h14.1v49.4h-14.1z"/><linearGradient id="g" gradientUnits="userSpaceOnUse" x1="170.299" y1="214.73" x2="184.407" y2="214.73"><stop offset="0" style="stop-color:#0f9"/><stop offset="1" style="stop-color:#3cf"/></linearGradient><path style="fill:url(#g)" d="M170.3 207.7h14.1v14.1h-14.1z"/><linearGradient id="h" gradientUnits="userSpaceOnUse" x1="388.973" y1="267.635" x2="403.081" y2="267.635"><stop offset="0" style="stop-color:#0f9"/><stop offset="1" style="stop-color:#3cf"/></linearGradient><path style="fill:url(#h)" d="M389 250h14.1v35.3H389z"/><linearGradient id="i" gradientUnits="userSpaceOnUse" x1="269.055" y1="98.339" x2="283.163" y2="98.339"><stop offset="0" style="stop-color:#0f9"/><stop offset="1" style="stop-color:#3cf"/></linearGradient><path style="fill:url(#i)" d="M269.1 66.6h14.1v63.5h-14.1z"/><linearGradient id="j" gradientUnits="userSpaceOnUse" x1="156.191" y1="48.961" x2="170.299" y2="48.961"><stop offset="0" style="stop-color:#0f9"/><stop offset="1" style="stop-color:#3cf"/></linearGradient><path style="fill:url(#j)" d="M156.2 38.4h14.1v21.2h-14.1z"/><linearGradient id="k" gradientUnits="userSpaceOnUse" x1="50.381" y1="380.5" x2="473.619" y2="380.5"><stop offset="0" style="stop-color:#0f9"/><stop offset="1" style="stop-color:#3cf"/></linearGradient><path d="M472 330.2c-.4-.5-.8-.9-1.2-1.2-19.3-14.4-45.6-15.3-65.9-2.3L316.4 384h-24.2l-47-28.2h31c23.4 0 42.3-19 42.3-42.3 0-3.9-3.2-7.1-7.1-7.1h-48.7l-70.5-7.1c-1.2-.1-2.4.1-3.5.5l-48 20.6H50.4v14.1h91.7c1 0 1.9-.2 2.8-.6l47.7-20.5 69.4 6.9h41.4c-3.2 12.4-14.5 21.1-27.3 21.2h-56.4c-3.9 0-7.1 3.2-7.1 7.1 0 2.5 1.3 4.8 3.4 6l70.5 42.3c1.1.7 2.4 1 3.6 1h28.2c1.4 0 2.7-.4 3.8-1.1l90.3-58.4c12.5-8 28.2-9.2 41.7-3.1l-138.3 112h-38.6l-132.8-48.9c-.8-.3-1.6-.4-2.4-.4H50.4v14.1h90.4L273.6 461c.8.3 1.6.4 2.4.4h42.3c1.6 0 3.2-.6 4.4-1.6L471 340.1c3-2.4 3.5-6.9 1-9.9z" style="fill:url(#k)"/><linearGradient id="l" gradientUnits="userSpaceOnUse" x1="276.109" y1="221.784" x2="339.603" y2="221.784"><stop offset="0" style="stop-color:#0f9"/><stop offset="1" style="stop-color:#3cf"/></linearGradient><path d="M338.4 229.1c-.9-2.7-2.4-5.2-4.4-7.3 7.8-8.5 7.2-21.8-1.3-29.6-2.1-1.9-4.6-3.4-7.3-4.4v-8.4h-14.1v7.1h-14.1v-7.1h-14.1v7.1H276v14.1h7.1v42.3H276V257h7.1v7.1h14.1V257h14.1v7.1h14.1v-8.4c11-3.7 16.8-15.7 13-26.6zm-20 13.8h-21.2v-14.1h21.2c3.9 0 7.1 3.2 7.1 7.1s-3.2 7-7.1 7zm0-28.2h-21.2v-14.1h21.2c3.9 0 7.1 3.2 7.1 7.1 0 3.9-3.2 7-7.1 7z" style="fill:url(#l)"/><linearGradient id="m" gradientUnits="userSpaceOnUse" x1="163.245" y1="137.136" x2="205.57" y2="137.136"><stop offset="0" style="stop-color:#0f9"/><stop offset="1" style="stop-color:#3cf"/></linearGradient><path d="M202 137.1c5.8-7.8 4.3-18.8-3.5-24.7-3.1-2.3-6.8-3.5-10.6-3.5h-17.6c-3.9 0-7.1 3.2-7.1 7.1v42.3c0 3.9 3.2 7.1 7.1 7.1h17.6c9.7 0 17.6-7.9 17.6-17.6.1-3.9-1.2-7.6-3.5-10.7zm-14.1 14.1h-10.6v-7.1h10.6c1.9 0 3.5 1.6 3.5 3.5s-1.5 3.6-3.5 3.6zm0-21.1h-10.6V123h10.6c1.9 0 3.5 1.6 3.5 3.5s-1.5 3.6-3.5 3.6z" style="fill:url(#m)"/><linearGradient id="n" gradientUnits="userSpaceOnUse" x1="346.649" y1="94.812" x2="388.974" y2="94.812"><stop offset="0" style="stop-color:#0f9"/><stop offset="1" style="stop-color:#3cf"/></linearGradient><path d="M385.4 94.8c5.8-7.8 4.3-18.8-3.5-24.7-3.1-2.3-6.8-3.5-10.6-3.5h-17.6c-3.9 0-7.1 3.2-7.1 7.1V116c0 3.9 3.2 7.1 7.1 7.1h17.6c9.7 0 17.6-7.9 17.6-17.6.1-3.9-1.2-7.6-3.5-10.7zm-14.1 14.1h-10.6v-7.1h10.6c1.9 0 3.5 1.6 3.5 3.5s-1.5 3.6-3.5 3.6zm0-21.1h-10.6v-7.1h10.6c1.9 0 3.5 1.6 3.5 3.5s-1.5 3.6-3.5 3.6z" style="fill:url(#n)"/></g></switch></svg>