<svg xmlns="http://www.w3.org/2000/svg" viewBox="6 -6 512 512" style="enable-background:new 6 -6 512 512" xml:space="preserve"><switch><g><linearGradient id="a" gradientUnits="userSpaceOnUse" x1="448.809" y1="412.599" x2="462.647" y2="412.599"><stop offset="0" style="stop-color:#0f9"/><stop offset="1" style="stop-color:#3cf"/></linearGradient><path style="fill:url(#a)" d="M448.8 381.5h13.8v62.3h-13.8z"/><linearGradient id="b" gradientUnits="userSpaceOnUse" x1="75.177" y1="322.651" x2="89.016" y2="322.651"><stop offset="0" style="stop-color:#0f9"/><stop offset="1" style="stop-color:#3cf"/></linearGradient><path style="fill:url(#b)" d="M75.2 298.4H89v48.4H75.2z"/><linearGradient id="c" gradientUnits="userSpaceOnUse" x1="111.8" y1="381.464" x2="163.098" y2="381.464"><stop offset="0" style="stop-color:#0f9"/><stop offset="1" style="stop-color:#3cf"/></linearGradient><path d="M142.3 342c-2.7-2.7-7.1-2.7-9.8 0l-20.8 20.8 9.8 9.8 8.9-8.9V423h13.8v-59.4l8.9 8.9 9.8-9.8-20.6-20.7z" style="fill:url(#c)"/><linearGradient id="d" gradientUnits="userSpaceOnUse" x1="172.045" y1="433.356" x2="185.883" y2="433.356"><stop offset="0" style="stop-color:#0f9"/><stop offset="1" style="stop-color:#3cf"/></linearGradient><path style="fill:url(#d)" d="M172 409.1h13.8v48.4H172z"/><linearGradient id="e" gradientUnits="userSpaceOnUse" x1="75.177" y1="367.625" x2="89.016" y2="367.625"><stop offset="0" style="stop-color:#0f9"/><stop offset="1" style="stop-color:#3cf"/></linearGradient><path style="fill:url(#e)" d="M75.2 360.7H89v13.8H75.2z"/><linearGradient id="f" gradientUnits="userSpaceOnUse" x1="54.42" y1="246.541" x2="469.58" y2="246.541"><stop offset="0" style="stop-color:#0f9"/><stop offset="1" style="stop-color:#3cf"/></linearGradient><path d="M461.3 173.9c-12.1-23.7-35.7-39.4-62.2-41.3 7.8-41.3-19.4-81.1-60.7-88.8-31-5.8-62.4 8.1-78.9 34.9-33.5-25.4-81.2-18.9-106.6 14.6-8.7 11.5-14 25.1-15.2 39.4-2.4-.2-4.8-.3-7.2-.3-42 0-76.1 34.1-76.1 76.1s34.1 76.1 76.1 76.1h20.8V333h13.8v-48.4h20.8v6.9h13.8v-6.9H262v13.8c-42-.1-76.2 33.9-76.3 76-.1 42 33.9 76.2 76 76.3 21.1 0 41.2-8.7 55.7-24v10.2h13.8v-30.7c17.5-38.1.8-83.1-37.3-100.6-5.8-2.6-11.8-4.6-18.1-5.7v-15.2h62.3V333h13.8v-48.4h41.5c7 0 14-1 20.8-2.9v37.5H428v-43c37.5-19.1 52.3-64.9 33.3-102.3zM290.6 319.2c20.7 10.7 33.7 32.1 33.7 55.4 0 9.6-2.3 19.1-6.6 27.7h-.3v.7c-15.7 30.5-53.2 42.5-83.8 26.7s-42.5-53.2-26.7-83.8 53.2-42.5 83.7-26.7zm164.2-102.6c-4 30.9-30.2 54-61.4 54.2H130.5c-34.4 0-62.3-27.9-62.3-62.3s27.9-62.3 62.3-62.3c4.2 0 8.4.4 12.5 1.3 3.7.8 7.4-1.7 8.2-5.4.1-.5.1-1 .1-1.5 0-.1-.1-1.1-.1-1.3 0-34.4 27.8-62.3 62.2-62.3 16.1 0 31.6 6.2 43.3 17.4 2.8 2.6 7.1 2.6 9.8-.2.5-.6 1-1.2 1.3-1.9 14.2-31.3 51-45.1 82.3-30.9C376 73.2 390.6 101 385.6 129a65.36 65.36 0 0 0-40.5-14.1v13.8c28.6 0 51.9 23.2 51.9 51.9h13.8c0-12-3.3-23.8-9.6-34.1 34 4.7 58.1 36 53.6 70.1z" style="fill:url(#f)"/><linearGradient id="g" gradientUnits="userSpaceOnUse" x1="234.317" y1="374.544" x2="296.596" y2="374.544"><stop offset="0" style="stop-color:#0f9"/><stop offset="1" style="stop-color:#3cf"/></linearGradient><path d="M295.5 381.7c-.9-2.7-2.4-5.1-4.3-7.2 7.7-8.4 7.1-21.4-1.3-29.1-2.1-1.9-4.5-3.4-7.2-4.3V333h-13.8v6.9h-13.8V333h-13.8v6.9h-6.9v13.8h6.9v41.5h-6.9V409h6.9v6.9h13.8V409h13.8v6.9h13.8v-8.2c10.8-3.5 16.5-15.3 12.8-26zm-19.7 13.6H255v-13.8h20.8c3.8 0 6.9 3.1 6.9 6.9s-3 6.9-6.9 6.9zm0-27.7H255v-13.8h20.8c3.8 0 6.9 3.1 6.9 6.9.1 3.8-3 6.9-6.9 6.9z" style="fill:url(#g)"/><linearGradient id="h" gradientUnits="userSpaceOnUse" x1="374.726" y1="398.76" x2="426.024" y2="398.76"><stop offset="0" style="stop-color:#0f9"/><stop offset="1" style="stop-color:#3cf"/></linearGradient><path d="m416.2 404.2-8.9 8.9v-52.5h-13.8v52.5l-8.9-8.9-9.8 9.8 20.8 20.8c2.7 2.7 7.1 2.7 9.8 0L426 414l-9.8-9.8z" style="fill:url(#h)"/><linearGradient id="i" gradientUnits="userSpaceOnUse" x1="393.456" y1="339.949" x2="407.294" y2="339.949"><stop offset="0" style="stop-color:#0f9"/><stop offset="1" style="stop-color:#3cf"/></linearGradient><path style="fill:url(#i)" d="M393.5 333h13.8v13.8h-13.8z"/><linearGradient id="j" gradientUnits="userSpaceOnUse" x1="172.045" y1="203.286" x2="379.618" y2="203.286"><stop offset="0" style="stop-color:#0f9"/><stop offset="1" style="stop-color:#3cf"/></linearGradient><path d="M313.9 187.7c-5.8 0-11.5.8-17.1 2.3-15.9-32.6-55.2-46.2-87.8-30.3-22.6 11-36.9 34-36.9 59.1h13.8c.1-28.7 23.4-51.8 52-51.7 21.6.1 41 13.5 48.5 33.8 1.3 3.6 5.3 5.4 8.9 4.1h.1c26.7-10.3 56.7 3.1 66.9 29.8 2.3 6 3.5 12.3 3.4 18.7h13.8c.1-36.3-29.3-65.7-65.6-65.8z" style="fill:url(#j)"/></g></switch></svg>