<svg xmlns="http://www.w3.org/2000/svg" viewBox="6 -6 512 512" style="enable-background:new 6 -6 512 512" xml:space="preserve"><switch><g><linearGradient id="a" gradientUnits="userSpaceOnUse" x1="130.267" y1="118.267" x2="192.674" y2="118.267"><stop offset="0" style="stop-color:#0f9"/><stop offset="1" style="stop-color:#3cf"/></linearGradient><path d="M191.5 125.4c-.9-2.7-2.4-5.1-4.3-7.2 7.7-8.4 7.1-21.4-1.3-29.1-2.1-1.9-4.5-3.4-7.2-4.3v-8.2h-13.9v6.9h-13.9v-6.9H137v6.9h-6.9v13.9h6.9V139h-6.9v13.9h6.9v6.9h13.9v-6.9h13.9v6.9h13.9v-8.2c10.9-3.7 16.6-15.4 12.8-26.2zm-19.6 13.7h-20.8v-13.9h20.8c3.8 0 6.9 3.1 6.9 6.9s-3.1 7-6.9 7zm0-27.8h-20.8V97.5h20.8c3.8 0 6.9 3.1 6.9 6.9s-3.1 6.9-6.9 6.9z" style="fill:url(#a)"/><linearGradient id="b" gradientUnits="userSpaceOnUse" x1="81.733" y1="118.267" x2="234.267" y2="118.267"><stop offset="0" style="stop-color:#0f9"/><stop offset="1" style="stop-color:#3cf"/></linearGradient><path d="M158 42c-42.1 0-76.3 34.1-76.3 76.3 0 42.1 34.2 76.2 76.3 76.3 42.1 0 76.3-34.1 76.3-76.3S200.1 42 158 42zm0 138.7c-34.5 0-62.4-27.9-62.4-62.4 0-34.4 28-62.4 62.4-62.4 34.5 0 62.4 27.9 62.4 62.4 0 34.4-27.9 62.4-62.4 62.4z" style="fill:url(#b)"/><linearGradient id="c" gradientUnits="userSpaceOnUse" x1="81.733" y1="333.2" x2="234.267" y2="333.2"><stop offset="0" style="stop-color:#0f9"/><stop offset="1" style="stop-color:#3cf"/></linearGradient><path d="M158 256.9c-42.1 0-76.3 34.1-76.3 76.3s34.1 76.3 76.3 76.3c42.1 0 76.2-34.2 76.3-76.3 0-42.1-34.2-76.3-76.3-76.3zm0 138.7c-34.5 0-62.4-27.9-62.4-62.4s27.9-62.4 62.4-62.4 62.4 27.9 62.4 62.4c0 34.4-28 62.4-62.4 62.4z" style="fill:url(#c)"/><linearGradient id="d" gradientUnits="userSpaceOnUse" x1="109.467" y1="336.743" x2="206.533" y2="336.743"><stop offset="0" style="stop-color:#0f9"/><stop offset="1" style="stop-color:#3cf"/></linearGradient><path d="m205.1 336-41.6-55.5c-2.5-3.1-7-3.5-10.1-1-.4.3-.7.6-1 1L110.9 336c-2 2.6-1.8 6.2.3 8.7l41.6 48.5c2.5 2.9 6.9 3.2 9.8.7.3-.2.5-.5.7-.7l41.6-48.5c2.1-2.5 2.2-6.1.2-8.7zM158 378l-32.7-38.2 32.7-43.6 32.7 43.6L158 378z" style="fill:url(#d)"/><linearGradient id="e" gradientUnits="userSpaceOnUse" x1="141.034" y1="343.966" x2="174.966" y2="343.966"><stop offset="0" style="stop-color:#0f9"/><stop offset="1" style="stop-color:#3cf"/></linearGradient><path d="m168.8 333.9-10.8 5.4-10.8-5.4-6.2 12.4 13.9 6.9c2 1 4.2 1 6.2 0l13.9-6.9-6.2-12.4z" style="fill:url(#e)"/><linearGradient id="f" gradientUnits="userSpaceOnUse" x1="317.467" y1="381.733" x2="470" y2="381.733"><stop offset="0" style="stop-color:#0f9"/><stop offset="1" style="stop-color:#3cf"/></linearGradient><path d="M393.7 305.5c-42.1 0-76.3 34.1-76.3 76.3s34.1 76.3 76.3 76.3S470 424 470 381.8c0-42.2-34.2-76.3-76.3-76.3zm0 138.6c-34.5 0-62.4-27.9-62.4-62.4s27.9-62.4 62.4-62.4 62.4 27.9 62.4 62.4-27.9 62.4-62.4 62.4z" style="fill:url(#f)"/><linearGradient id="g" gradientUnits="userSpaceOnUse" x1="255.067" y1="187.6" x2="407.6" y2="187.6"><stop offset="0" style="stop-color:#0f9"/><stop offset="1" style="stop-color:#3cf"/></linearGradient><path d="M331.3 111.3c-42.1 0-76.3 34.1-76.3 76.3 0 42.1 34.2 76.2 76.3 76.3 42.1 0 76.3-34.1 76.3-76.3s-34.1-76.3-76.3-76.3zm0 138.7c-34.5 0-62.4-27.9-62.4-62.4 0-34.4 28-62.4 62.4-62.4 34.5 0 62.4 27.9 62.4 62.4S365.8 250 331.3 250z" style="fill:url(#g)"/><linearGradient id="h" gradientUnits="userSpaceOnUse" x1="386.8" y1="385.2" x2="442.267" y2="385.2"><stop offset="0" style="stop-color:#0f9"/><stop offset="1" style="stop-color:#3cf"/></linearGradient><path d="M418 347.1h-24.3c-3.8 0-6.9 3.1-6.9 6.9v69.3h13.9v-27.7H418c13.4 0 24.3-10.9 24.3-24.3s-10.9-24.2-24.3-24.2zm0 34.6h-17.3v-20.8H418c5.7 0 10.4 4.7 10.4 10.4s-4.7 10.4-10.4 10.4z" style="fill:url(#h)"/><linearGradient id="i" gradientUnits="userSpaceOnUse" x1="366" y1="385.2" x2="379.867" y2="385.2"><stop offset="0" style="stop-color:#0f9"/><stop offset="1" style="stop-color:#3cf"/></linearGradient><path style="fill:url(#i)" d="M366 347.1h13.9v76.3H366z"/><linearGradient id="j" gradientUnits="userSpaceOnUse" x1="303.6" y1="187.6" x2="366" y2="187.6"><stop offset="0" style="stop-color:#0f9"/><stop offset="1" style="stop-color:#3cf"/></linearGradient><path d="M331.3 152.9h-20.8c-3.8 0-6.9 3.1-6.9 6.9v55.5c0 3.8 3.1 6.9 6.9 6.9h20.8c19.1 0 34.7-15.5 34.7-34.7s-15.5-34.6-34.7-34.6zm0 55.5h-13.9v-13.9h20.8v-13.9h-20.8v-13.9h13.9c11.5 0 20.8 9.3 20.8 20.8s-9.3 20.9-20.8 20.9z" style="fill:url(#j)"/><linearGradient id="k" gradientUnits="userSpaceOnUse" x1="456.133" y1="73.2" x2="470" y2="73.2"><stop offset="0" style="stop-color:#0f9"/><stop offset="1" style="stop-color:#3cf"/></linearGradient><path style="fill:url(#k)" d="M456.1 48.9H470v48.5h-13.9z"/><linearGradient id="l" gradientUnits="userSpaceOnUse" x1="54" y1="52.4" x2="67.867" y2="52.4"><stop offset="0" style="stop-color:#0f9"/><stop offset="1" style="stop-color:#3cf"/></linearGradient><path style="fill:url(#l)" d="M54 42h13.9v20.8H54z"/><linearGradient id="m" gradientUnits="userSpaceOnUse" x1="421.467" y1="128.667" x2="435.333" y2="128.667"><stop offset="0" style="stop-color:#0f9"/><stop offset="1" style="stop-color:#3cf"/></linearGradient><path style="fill:url(#m)" d="M421.5 97.5h13.9v62.4h-13.9z"/><linearGradient id="n" gradientUnits="userSpaceOnUse" x1="54" y1="191.067" x2="67.867" y2="191.067"><stop offset="0" style="stop-color:#0f9"/><stop offset="1" style="stop-color:#3cf"/></linearGradient><path style="fill:url(#n)" d="M54 180.7h13.9v20.8H54z"/><linearGradient id="o" gradientUnits="userSpaceOnUse" x1="74.8" y1="215.333" x2="88.667" y2="215.333"><stop offset="0" style="stop-color:#0f9"/><stop offset="1" style="stop-color:#3cf"/></linearGradient><path style="fill:url(#o)" d="M74.8 208.4h13.9v13.9H74.8z"/><linearGradient id="p" gradientUnits="userSpaceOnUse" x1="74.8" y1="250" x2="88.667" y2="250"><stop offset="0" style="stop-color:#0f9"/><stop offset="1" style="stop-color:#3cf"/></linearGradient><path style="fill:url(#p)" d="M74.8 236.1h13.9v27.7H74.8z"/><linearGradient id="q" gradientUnits="userSpaceOnUse" x1="171.867" y1="423.333" x2="185.733" y2="423.333"><stop offset="0" style="stop-color:#0f9"/><stop offset="1" style="stop-color:#3cf"/></linearGradient><path style="fill:url(#q)" d="M171.9 416.4h13.9v13.9h-13.9z"/><linearGradient id="r" gradientUnits="userSpaceOnUse" x1="171.867" y1="451.067" x2="185.733" y2="451.067"><stop offset="0" style="stop-color:#0f9"/><stop offset="1" style="stop-color:#3cf"/></linearGradient><path style="fill:url(#r)" d="M171.9 444.1h13.9V458h-13.9z"/><linearGradient id="s" gradientUnits="userSpaceOnUse" x1="296.667" y1="437.2" x2="310.533" y2="437.2"><stop offset="0" style="stop-color:#0f9"/><stop offset="1" style="stop-color:#3cf"/></linearGradient><path style="fill:url(#s)" d="M296.7 430.3h13.9v13.9h-13.9z"/><linearGradient id="t" gradientUnits="userSpaceOnUse" x1="213.467" y1="194.533" x2="227.333" y2="194.533"><stop offset="0" style="stop-color:#0f9"/><stop offset="1" style="stop-color:#3cf"/></linearGradient><path style="fill:url(#t)" d="M213.5 187.6h13.9v13.9h-13.9z"/><linearGradient id="u" gradientUnits="userSpaceOnUse" x1="213.467" y1="229.2" x2="227.333" y2="229.2"><stop offset="0" style="stop-color:#0f9"/><stop offset="1" style="stop-color:#3cf"/></linearGradient><path style="fill:url(#u)" d="M213.5 215.3h13.9V243h-13.9z"/><linearGradient id="v" gradientUnits="userSpaceOnUse" x1="421.467" y1="76.667" x2="435.333" y2="76.667"><stop offset="0" style="stop-color:#0f9"/><stop offset="1" style="stop-color:#3cf"/></linearGradient><path style="fill:url(#v)" d="M421.5 69.7h13.9v13.9h-13.9z"/><linearGradient id="w" gradientUnits="userSpaceOnUse" x1="262" y1="371.333" x2="275.867" y2="371.333"><stop offset="0" style="stop-color:#0f9"/><stop offset="1" style="stop-color:#3cf"/></linearGradient><path style="fill:url(#w)" d="M262 340.1h13.9v62.4H262z"/><linearGradient id="x" gradientUnits="userSpaceOnUse" x1="303.6" y1="66.267" x2="317.467" y2="66.267"><stop offset="0" style="stop-color:#0f9"/><stop offset="1" style="stop-color:#3cf"/></linearGradient><path style="fill:url(#x)" d="M303.6 42h13.9v48.5h-13.9z"/><linearGradient id="y" gradientUnits="userSpaceOnUse" x1="262" y1="319.333" x2="275.867" y2="319.333"><stop offset="0" style="stop-color:#0f9"/><stop offset="1" style="stop-color:#3cf"/></linearGradient><path style="fill:url(#y)" d="M262 312.4h13.9v13.9H262z"/><linearGradient id="z" gradientUnits="userSpaceOnUse" x1="456.133" y1="274.267" x2="470" y2="274.267"><stop offset="0" style="stop-color:#0f9"/><stop offset="1" style="stop-color:#3cf"/></linearGradient><path style="fill:url(#z)" d="M456.1 243.1H470v62.4h-13.9z"/><linearGradient id="A" gradientUnits="userSpaceOnUse" x1="456.133" y1="222.267" x2="470" y2="222.267"><stop offset="0" style="stop-color:#0f9"/><stop offset="1" style="stop-color:#3cf"/></linearGradient><path style="fill:url(#A)" d="M456.1 215.3H470v13.9h-13.9z"/><linearGradient id="B" gradientUnits="userSpaceOnUse" x1="54" y1="426.8" x2="67.867" y2="426.8"><stop offset="0" style="stop-color:#0f9"/><stop offset="1" style="stop-color:#3cf"/></linearGradient><path style="fill:url(#B)" d="M54 395.6h13.9V458H54z"/><linearGradient id="C" gradientUnits="userSpaceOnUse" x1="54" y1="374.8" x2="67.867" y2="374.8"><stop offset="0" style="stop-color:#0f9"/><stop offset="1" style="stop-color:#3cf"/></linearGradient><path style="fill:url(#C)" d="M54 367.9h13.9v13.9H54z"/></g></switch></svg>