<svg xmlns="http://www.w3.org/2000/svg" viewBox="6 -6 512 512" style="enable-background:new 6 -6 512 512" xml:space="preserve"><switch><g><linearGradient id="a" gradientUnits="userSpaceOnUse" x1="6" y1="250" x2="257.325" y2="250"><stop offset="0" style="stop-color:#0f9"/><stop offset="1" style="stop-color:#3cf"/></linearGradient><path d="M238 66.6v34c-82.5-37.5-179.8-.9-217.3 81.6s-.9 179.8 81.6 217.3c43.1 19.6 92.6 19.6 135.7 0v34h19.3V66.6H238zm0 265.2c-45.2 37.4-112.1 31.1-149.5-14s-31.1-112.1 14-149.5c39.3-32.6 96.2-32.6 135.5 0v163.5zm0-187.5c-58.4-37.4-136-20.4-173.4 37.9s-20.4 136 37.9 173.4c41.3 26.5 94.2 26.5 135.5 0V378c-70.7 37.4-158.3 10.5-195.8-60.2S31.7 159.5 102.4 122c42.4-22.5 93.2-22.5 135.6 0v22.3z" style="fill:url(#a)"/><linearGradient id="b" gradientUnits="userSpaceOnUse" x1="276.635" y1="105.18" x2="344.217" y2="105.18"><stop offset="0" style="stop-color:#0f9"/><stop offset="1" style="stop-color:#3cf"/></linearGradient><path style="fill:url(#b)" d="M276.6 95.5h67.6v19.3h-67.6z"/><linearGradient id="c" gradientUnits="userSpaceOnUse" x1="295.944" y1="317.582" x2="363.526" y2="317.582"><stop offset="0" style="stop-color:#0f9"/><stop offset="1" style="stop-color:#3cf"/></linearGradient><path style="fill:url(#c)" d="M295.9 307.9h67.6v19.3h-67.6z"/><linearGradient id="d" gradientUnits="userSpaceOnUse" x1="295.944" y1="211.381" x2="363.526" y2="211.381"><stop offset="0" style="stop-color:#0f9"/><stop offset="1" style="stop-color:#3cf"/></linearGradient><path style="fill:url(#d)" d="M295.9 201.7h67.6V221h-67.6z"/><linearGradient id="e" gradientUnits="userSpaceOnUse" x1="450.418" y1="414.128" x2="479.382" y2="414.128"><stop offset="0" style="stop-color:#0f9"/><stop offset="1" style="stop-color:#3cf"/></linearGradient><path style="fill:url(#e)" d="M450.4 404.5h29v19.3h-29z"/><linearGradient id="f" gradientUnits="userSpaceOnUse" x1="276.635" y1="423.782" x2="305.599" y2="423.782"><stop offset="0" style="stop-color:#0f9"/><stop offset="1" style="stop-color:#3cf"/></linearGradient><path style="fill:url(#f)" d="M276.6 414.1h29v19.3h-29z"/><linearGradient id="g" gradientUnits="userSpaceOnUse" x1="402.145" y1="134.144" x2="469.727" y2="134.144"><stop offset="0" style="stop-color:#0f9"/><stop offset="1" style="stop-color:#3cf"/></linearGradient><path style="fill:url(#g)" d="M402.1 124.5h67.6v19.3h-67.6z"/><linearGradient id="h" gradientUnits="userSpaceOnUse" x1="450.418" y1="76.217" x2="518" y2="76.217"><stop offset="0" style="stop-color:#0f9"/><stop offset="1" style="stop-color:#3cf"/></linearGradient><path style="fill:url(#h)" d="M450.4 66.6H518v19.3h-67.6z"/><linearGradient id="i" gradientUnits="userSpaceOnUse" x1="382.836" y1="317.582" x2="402.145" y2="317.582"><stop offset="0" style="stop-color:#0f9"/><stop offset="1" style="stop-color:#3cf"/></linearGradient><path style="fill:url(#i)" d="M382.8 307.9h19.3v19.3h-19.3z"/><linearGradient id="j" gradientUnits="userSpaceOnUse" x1="469.727" y1="240.345" x2="508.345" y2="240.345"><stop offset="0" style="stop-color:#0f9"/><stop offset="1" style="stop-color:#3cf"/></linearGradient><path style="fill:url(#j)" d="M469.7 230.7h38.6V250h-38.6z"/><linearGradient id="k" gradientUnits="userSpaceOnUse" x1="122.161" y1="249.999" x2="228.374" y2="249.999"><stop offset="0" style="stop-color:#0f9"/><stop offset="1" style="stop-color:#3cf"/></linearGradient><path d="M227.2 269.7c-1.9-7.7-6.2-14.6-12.2-19.7 16-13.8 17.9-38 4.1-54-5.2-6-12-10.3-19.7-12.2v-20.7h-19.3v19.3h-19.3v-19.3h-19.3v19.3h-19.3v19.3h9.7v96.5h-9.7v19.3h19.3v19.3h19.3v-19.3h19.3v19.3h19.3v-20.7c20.5-5 33-25.9 27.8-46.4zm-37.5 28.6h-38.6v-38.6h38.6c10.7 0 19.3 8.6 19.3 19.3s-8.6 19.3-19.3 19.3zm0-58h-38.6v-38.6h38.6c10.7 0 19.3 8.6 19.3 19.3.1 10.7-8.6 19.3-19.3 19.3z" style="fill:url(#k)"/></g></switch></svg>