<svg xmlns="http://www.w3.org/2000/svg" viewBox="6 -6 512 512" style="enable-background:new 6 -6 512 512" xml:space="preserve"><switch><g><linearGradient id="a" gradientUnits="userSpaceOnUse" x1="230.12" y1="374.288" x2="293.858" y2="374.288"><stop offset="0" style="stop-color:#0f9"/><stop offset="1" style="stop-color:#3cf"/></linearGradient><path d="M274.7 329.7h-25.5c-10.6 0-19.1 8.6-19.1 19.1v12.7c0 8.1 5.1 15.3 12.7 18v33c0 3.5 2.9 6.4 6.4 6.4h25.5c3.5 0 6.4-2.9 6.4-6.4v-33c7.6-2.7 12.7-9.9 12.7-18v-12.7c.1-10.6-8.5-19.1-19.1-19.1zm6.4 31.8c0 3.5-2.9 6.4-6.4 6.4-3.5 0-6.4 2.9-6.4 6.4v31.9h-12.7v-31.9c0-3.5-2.9-6.4-6.4-6.4s-6.4-2.9-6.4-6.4v-12.7c0-3.5 2.9-6.4 6.4-6.4h25.5c3.5 0 6.4 2.9 6.4 6.4v12.7z" style="fill:url(#a)"/><linearGradient id="b" gradientUnits="userSpaceOnUse" x1="153.635" y1="250" x2="370.365" y2="250"><stop offset="0" style="stop-color:#0f9"/><stop offset="1" style="stop-color:#3cf"/></linearGradient><path d="M338.5 310.6h-19.1V266c0-3.2-.3-6.5-.8-9.6 51-31.2 67.1-97.8 35.9-148.9-19.7-32.2-54.7-51.8-92.5-51.8-59.8-.1-108.3 48.3-108.4 108.1 0 37.8 19.6 72.9 51.9 92.5-.6 3.2-.9 6.4-.9 9.7v44.6h-19.1c-3.5 0-6.4 2.9-6.4 6.4v121c0 3.5 2.9 6.4 6.4 6.4h153c3.5 0 6.4-2.9 6.4-6.4V316.9c-.1-3.5-2.9-6.3-6.4-6.3zM167.6 181.3c-9.7-52 24.6-102.1 76.7-111.7s102 24.6 111.7 76.6c7 37.8-9.2 76.1-41.1 97.3-1.7-3.9-3.8-7.7-6.2-11.1 37.8-25.8 47.5-77.3 21.8-115-25.8-37.8-77.3-47.5-115-21.8s-47.5 77.3-21.8 115c15.4 22.6 41 36.2 68.4 36.1h3.9c.8.4 1.7.8 2.5 1.1 4.8 1.7 8.8 5.4 10.9 10-52.1 9.9-102.1-24.5-111.8-76.5zm105.1 54.6c-2.5-.7-4.2-2.9-4.4-5.5v-1.6c0-3.1 2.5-5.7 5.7-5.7.6 0 1.1.1 1.7.3 18.4 5.9 30.9 23.1 30.9 42.5v44.6h-12.7v-44.6c-.1-13.4-8.5-25.4-21.2-30zm27.1-13.1c-5.9-5.2-12.7-9.1-20.2-11.5-9.7-3.1-20 2.2-23.2 11.9-.6 1.8-.9 3.7-.9 5.7v1.6c0 1.1.1 2.3.4 3.4-38.8-3.2-67.6-37.1-64.5-75.9s37.1-67.6 75.9-64.5c38.8 3.2 67.6 37.1 64.5 75.9-1.7 21.8-13.6 41.5-32 53.4zm-18.7 47.8v40h-38.2v-40c12.6 2.3 25.6 2.3 38.2 0zm-51-3.1v43h-12.7v-44.6c0-1.1.1-2.2.2-3.3 4.1 2 8.2 3.6 12.5 4.9zm102 164.2H191.9V323.3h140.2v108.4z" style="fill:url(#b)"/><linearGradient id="c" gradientUnits="userSpaceOnUse" x1="230.12" y1="157.58" x2="300.233" y2="157.58"><stop offset="0" style="stop-color:#0f9"/><stop offset="1" style="stop-color:#3cf"/></linearGradient><path d="M291.4 164c10.6-9.1 11.8-25.1 2.7-35.7-3.4-4-8-6.8-13-8v-13.7h-12.7v12.7h-12.7v-12.7H243v12.7h-12.7V132h6.4v63.7h-6.4v12.7h44.6c14.1 0 25.5-11.4 25.5-25.5-.2-7.2-3.4-14.2-9-18.9zm-16.7 31.8h-25.5v-25.5h25.5c7 0 12.7 5.7 12.7 12.7.1 7.1-5.6 12.8-12.7 12.8zm0-38.2h-25.5v-25.5h25.5c7 0 12.7 5.7 12.7 12.7s-5.6 12.8-12.7 12.8z" style="fill:url(#c)"/></g></switch></svg>