<svg xmlns="http://www.w3.org/2000/svg" viewBox="6 -6 512 512" style="enable-background:new 6 -6 512 512" xml:space="preserve"><switch><g><linearGradient id="a" gradientUnits="userSpaceOnUse" x1="47.546" y1="250" x2="476.454" y2="250"><stop offset="0" style="stop-color:#0f9"/><stop offset="1" style="stop-color:#3cf"/></linearGradient><path d="M433.6 157.6V78.4c0-3.9-3.2-7.1-7.1-7.1H97.6c-27.6 0-50 22.4-50 50v257.3c0 27.6 22.4 50 50 50h328.8c3.9 0 7.1-3.2 7.1-7.1v-78.6h-7.1c27.6 0 50-22.4 50-50v-85.8c0-24.8-18.2-45.9-42.8-49.5zm-336-72h321.7v71.5l-321.7.5v-.5c-19.7 0-35.7-16-35.7-35.7s15.9-35.8 35.7-35.8zm321.7 328.8H97.6c-19.7 0-35.7-16-35.7-35.7V156.3c9.4 9.7 22.3 15.1 35.7 15.1v.5l321.7-.5v71.5H319.2c-27.6 0-50 22.4-50 50s22.4 50 50 50h100.1v71.5zm42.9-121.5c0 19.7-16 35.7-35.7 35.7H319.2c-19.7 0-35.7-16-35.7-35.7s16-35.7 35.7-35.7h114.4v-.6c10.9-1.6 20.9-6.7 28.6-14.5v50.8zm-.7-78.7c-2.9 14.1-13.8 25.1-27.9 27.9V172c19.3 4 31.8 22.9 27.9 42.2z" style="fill:url(#a)"/><linearGradient id="b" gradientUnits="userSpaceOnUse" x1="297.742" y1="292.891" x2="340.633" y2="292.891"><stop offset="0" style="stop-color:#0f9"/><stop offset="1" style="stop-color:#3cf"/></linearGradient><path d="M319.2 271.4c-11.8 0-21.4 9.6-21.4 21.4s9.6 21.4 21.4 21.4 21.4-9.6 21.4-21.4-9.6-21.4-21.4-21.4zm0 28.6c-3.9 0-7.1-3.2-7.1-7.1 0-3.9 3.2-7.1 7.1-7.1 3.9 0 7.1 3.2 7.1 7.1 0 3.9-3.2 7.1-7.1 7.1z" style="fill:url(#b)"/><linearGradient id="c" gradientUnits="userSpaceOnUse" x1="90.437" y1="135.625" x2="404.969" y2="135.625"><stop offset="0" style="stop-color:#0f9"/><stop offset="1" style="stop-color:#3cf"/></linearGradient><path style="fill:url(#c)" d="M90.4 128.5h314.5v14.3H90.4z"/><linearGradient id="d" gradientUnits="userSpaceOnUse" x1="376.375" y1="192.812" x2="397.821" y2="192.812"><stop offset="0" style="stop-color:#0f9"/><stop offset="1" style="stop-color:#3cf"/></linearGradient><path style="fill:url(#d)" d="M376.4 185.7h21.4V200h-21.4z"/><linearGradient id="e" gradientUnits="userSpaceOnUse" x1="340.633" y1="192.812" x2="362.079" y2="192.812"><stop offset="0" style="stop-color:#0f9"/><stop offset="1" style="stop-color:#3cf"/></linearGradient><path style="fill:url(#e)" d="M340.6 185.7H362V200h-21.4z"/><linearGradient id="f" gradientUnits="userSpaceOnUse" x1="304.891" y1="192.812" x2="326.336" y2="192.812"><stop offset="0" style="stop-color:#0f9"/><stop offset="1" style="stop-color:#3cf"/></linearGradient><path style="fill:url(#f)" d="M304.9 185.7h21.4V200h-21.4z"/><linearGradient id="g" gradientUnits="userSpaceOnUse" x1="269.149" y1="192.812" x2="290.594" y2="192.812"><stop offset="0" style="stop-color:#0f9"/><stop offset="1" style="stop-color:#3cf"/></linearGradient><path style="fill:url(#g)" d="M269.1 185.7h21.4V200h-21.4z"/><linearGradient id="h" gradientUnits="userSpaceOnUse" x1="233.406" y1="192.812" x2="254.851" y2="192.812"><stop offset="0" style="stop-color:#0f9"/><stop offset="1" style="stop-color:#3cf"/></linearGradient><path style="fill:url(#h)" d="M233.4 185.7h21.4V200h-21.4z"/><linearGradient id="i" gradientUnits="userSpaceOnUse" x1="197.664" y1="192.812" x2="219.109" y2="192.812"><stop offset="0" style="stop-color:#0f9"/><stop offset="1" style="stop-color:#3cf"/></linearGradient><path style="fill:url(#i)" d="M197.7 185.7h21.4V200h-21.4z"/><linearGradient id="j" gradientUnits="userSpaceOnUse" x1="161.922" y1="192.812" x2="183.367" y2="192.812"><stop offset="0" style="stop-color:#0f9"/><stop offset="1" style="stop-color:#3cf"/></linearGradient><path style="fill:url(#j)" d="M161.9 185.7h21.4V200h-21.4z"/><linearGradient id="k" gradientUnits="userSpaceOnUse" x1="126.179" y1="192.812" x2="147.625" y2="192.812"><stop offset="0" style="stop-color:#0f9"/><stop offset="1" style="stop-color:#3cf"/></linearGradient><path style="fill:url(#k)" d="M126.2 185.7h21.4V200h-21.4z"/><linearGradient id="l" gradientUnits="userSpaceOnUse" x1="90.437" y1="192.812" x2="111.882" y2="192.812"><stop offset="0" style="stop-color:#0f9"/><stop offset="1" style="stop-color:#3cf"/></linearGradient><path style="fill:url(#l)" d="M90.4 185.7h21.4V200H90.4z"/><linearGradient id="m" gradientUnits="userSpaceOnUse" x1="376.375" y1="392.969" x2="397.821" y2="392.969"><stop offset="0" style="stop-color:#0f9"/><stop offset="1" style="stop-color:#3cf"/></linearGradient><path style="fill:url(#m)" d="M376.4 385.8h21.4v14.3h-21.4z"/><linearGradient id="n" gradientUnits="userSpaceOnUse" x1="340.633" y1="392.969" x2="362.079" y2="392.969"><stop offset="0" style="stop-color:#0f9"/><stop offset="1" style="stop-color:#3cf"/></linearGradient><path style="fill:url(#n)" d="M340.6 385.8H362v14.3h-21.4z"/><linearGradient id="o" gradientUnits="userSpaceOnUse" x1="304.891" y1="392.969" x2="326.336" y2="392.969"><stop offset="0" style="stop-color:#0f9"/><stop offset="1" style="stop-color:#3cf"/></linearGradient><path style="fill:url(#o)" d="M304.9 385.8h21.4v14.3h-21.4z"/><linearGradient id="p" gradientUnits="userSpaceOnUse" x1="269.149" y1="392.969" x2="290.594" y2="392.969"><stop offset="0" style="stop-color:#0f9"/><stop offset="1" style="stop-color:#3cf"/></linearGradient><path style="fill:url(#p)" d="M269.1 385.8h21.4v14.3h-21.4z"/><linearGradient id="q" gradientUnits="userSpaceOnUse" x1="233.406" y1="392.969" x2="254.851" y2="392.969"><stop offset="0" style="stop-color:#0f9"/><stop offset="1" style="stop-color:#3cf"/></linearGradient><path style="fill:url(#q)" d="M233.4 385.8h21.4v14.3h-21.4z"/><linearGradient id="r" gradientUnits="userSpaceOnUse" x1="197.664" y1="392.969" x2="219.109" y2="392.969"><stop offset="0" style="stop-color:#0f9"/><stop offset="1" style="stop-color:#3cf"/></linearGradient><path style="fill:url(#r)" d="M197.7 385.8h21.4v14.3h-21.4z"/><linearGradient id="s" gradientUnits="userSpaceOnUse" x1="161.922" y1="392.969" x2="183.367" y2="392.969"><stop offset="0" style="stop-color:#0f9"/><stop offset="1" style="stop-color:#3cf"/></linearGradient><path style="fill:url(#s)" d="M161.9 385.8h21.4v14.3h-21.4z"/><linearGradient id="t" gradientUnits="userSpaceOnUse" x1="126.179" y1="392.969" x2="147.625" y2="392.969"><stop offset="0" style="stop-color:#0f9"/><stop offset="1" style="stop-color:#3cf"/></linearGradient><path style="fill:url(#t)" d="M126.2 385.8h21.4v14.3h-21.4z"/><linearGradient id="u" gradientUnits="userSpaceOnUse" x1="90.437" y1="392.969" x2="111.882" y2="392.969"><stop offset="0" style="stop-color:#0f9"/><stop offset="1" style="stop-color:#3cf"/></linearGradient><path style="fill:url(#u)" d="M90.4 385.8h21.4v14.3H90.4z"/><linearGradient id="v" gradientUnits="userSpaceOnUse" x1="90.437" y1="107.031" x2="404.969" y2="107.031"><stop offset="0" style="stop-color:#0f9"/><stop offset="1" style="stop-color:#3cf"/></linearGradient><path style="fill:url(#v)" d="M90.4 99.9h314.5v14.3H90.4z"/><linearGradient id="w" gradientUnits="userSpaceOnUse" x1="147.625" y1="292.891" x2="211.969" y2="292.891"><stop offset="0" style="stop-color:#0f9"/><stop offset="1" style="stop-color:#3cf"/></linearGradient><path d="M210.8 300.3c-.9-2.7-2.5-5.3-4.4-7.4 7.9-8.7 7.3-22.1-1.3-30-2.1-2-4.7-3.5-7.4-4.4V250h-14.3v7.1h-14.3V250h-14.3v7.1h-7.1v14.3h7.1v42.9h-7.1v14.3h7.1v7.1h14.3v-7.1h14.3v7.1h14.3v-8.5c11.1-3.7 16.9-15.8 13.1-26.9zm-20.3 14h-21.4V300h21.4c3.9 0 7.1 3.2 7.1 7.1.1 4-3.1 7.2-7.1 7.2zm0-28.6h-21.4v-14.3h21.4c3.9 0 7.1 3.2 7.1 7.1.1 4-3.1 7.2-7.1 7.2z" style="fill:url(#w)"/><linearGradient id="x" gradientUnits="userSpaceOnUse" x1="97.585" y1="292.891" x2="254.851" y2="292.891"><stop offset="0" style="stop-color:#0f9"/><stop offset="1" style="stop-color:#3cf"/></linearGradient><path d="M176.2 214.3c-43.4 0-78.6 35.2-78.6 78.6s35.2 78.6 78.6 78.6 78.6-35.2 78.6-78.6c0-43.4-35.2-78.6-78.6-78.6zm0 142.9c-35.5 0-64.3-28.8-64.3-64.3s28.8-64.3 64.3-64.3 64.3 28.8 64.3 64.3-28.8 64.3-64.3 64.3z" style="fill:url(#x)"/></g></switch></svg>